<svg id="GROUND_PLANT" data-name="GROUND &amp; PLANT" xmlns="http://www.w3.org/2000/svg" viewBox="0 0 500 500"><defs><style>.cls-1{fill:#404b7c;}.cls-2{fill:#9ab3da;}.cls-3{fill:#f68d88;}.cls-4{fill:#ecbdbb;}.cls-5{fill:#e9f3ff;}.cls-6{fill:#fff;}</style></defs><title>Strategy</title><path class="cls-1" d="M364.51,475.64H318.29a0.5,0.5,0,0,1,0-1h46.22A0.5,0.5,0,1,1,364.51,475.64Z"/><path class="cls-1" d="M236.81,475.64H190.59a0.5,0.5,0,0,1,0-1h46.22A0.5,0.5,0,1,1,236.81,475.64Z"/><path class="cls-1" d="M335.45,478.71h-72.1a0.5,0.5,0,1,1,0-1h72.1A0.5,0.5,0,1,1,335.45,478.71Z"/><path class="cls-1" d="M187,478.71H168.27a0.5,0.5,0,0,1,0-1H187A0.5,0.5,0,1,1,187,478.71Z"/><path class="cls-2" d="M187.06,378.43s-12.28.76-22.2-7.43-12.58-20.76-12.58-20.76,13.26,0.08,22.88,6.52S187.06,378.43,187.06,378.43Z"/><path class="cls-2" d="M212,364.11s-0.76-14.55,13.64-24.85,24.25-3.64,24.25-3.64S241.69,360.78,212,364.11Z"/><path class="cls-2" d="M199.11,326.07s-12.73-12.12-5-34.25,24.7-29.4,24.7-29.4,4,18.09,1.21,34.71C216.69,317,199.11,326.07,199.11,326.07Z"/><path class="cls-2" d="M176.83,324.86c0-.45,5.76-17.88-7.12-32.43s-26.82-16.67-26.82-16.67,3.49,19.55,11.06,32.89S176.83,324.86,176.83,324.86Z"/><path class="cls-1" d="M195,398.89c-0.46-70.82,16.87-121.17,16.87-121.17-10.71,22.13-15.92,52.67-18.45,78.79-4.86-10.48-24.07-50.89-40.86-72.22,0,0,33.34,56.43,40.18,80-0.46,5.74-.79,11.17-1,16.16-8.81-8.79-26.67-19.82-26.67-19.82,9.72,7.75,22.13,20.19,26.46,24.6-0.57,14.65-.34,24.35-0.34,24.35h3.61l1.65,0.61c0-.61,5.86-46.07,38.59-68.3C235,341.88,208.13,351.66,195,398.89Z"/><polygon class="cls-3" points="219.41 467.47 170.31 467.47 164.86 405.94 224.87 405.94 219.41 467.47"/><path class="cls-4" d="M178.5,428.52c8.94,5,14.55.3,9.85-12.28-1.82-4.89,0-8.14,2.89-10.31H180.62a7,7,0,0,0-.46,7.58c3,5.3,4.39,11.21-3.94,7.88-5.37-2.15-8.58-1.76-10.11-1.26l1,11.22C169.58,428.42,173.49,425.72,178.5,428.52Z"/><path class="cls-4" d="M204.41,434.28c1.36,10-1.06,14.85-18.94,8.94-9-3-13.91,2.14-16.6,8l1.44,16.24h3.37c0.83-7.83,3.85-23.35,15.88-18.49,15.76,6.37,23.64,5.46,22.58-10.76-0.81-12.34,7-11.25,10.76-10l0.6-6.81C213.74,418.5,203.26,425.85,204.41,434.28Z"/><path class="cls-4" d="M188.35,457.16c-6.45,1.47-5.3,7.88.76,6.21S193.65,455.95,188.35,457.16Z"/><path class="cls-4" d="M216.38,437.61c-1.28,1.34-1.06,6.67,1.21,5S219.57,434.28,216.38,437.61Z"/><path class="cls-4" d="M199.41,412.3c-5.52,5.06.91,11.67,3.94,6.52S203,409,199.41,412.3Z"/><polygon class="cls-4" points="317.29 417.54 317.29 437.81 326.27 437.81 328.31 418.22 317.29 417.54"/><path class="cls-2" d="M315,436.82l13.06-.91s2.45,12.51,2.31,16.19-3.4,17.41-3.4,17.41h-5.31l-0.14-9.93-10.27,7.92a10.33,10.33,0,0,1-6.31,2.15H292.61a2.29,2.29,0,0,1-1.85-3.66,17.08,17.08,0,0,1,5.45-4.37C306.81,455.77,315,436.82,315,436.82Z"/><path class="cls-1" d="M319.6,224.52s-5.44,28.57-5.71,34.28,1.63,162.69,1.63,162.69l16.05,0.82s10.07-59.31,11.7-72.64,16.32-70.74,16.32-70.74,5.71-42.44,2.45-57.68S325.59,195.41,319.6,224.52Z"/><path class="cls-2" d="M327.39,417.09h-0.07a0.5,0.5,0,0,1-.43-0.56l18.87-141.77a0.51,0.51,0,0,1,.56-0.43,0.5,0.5,0,0,1,.43.56L327.89,416.66A0.5,0.5,0,0,1,327.39,417.09Z"/><polygon class="cls-4" points="385.99 425.03 387.35 445.02 395.24 445.29 395.64 424.75 385.99 425.03"/><path class="cls-2" d="M386.39,442.44l10.47-.54s4.49,13.47,4.63,17.55-1.77,20.4-1.77,20.4-5.44,4.76-9.93,4.9-9.79-3-10.2-3.54S385.58,460,386.39,442.44Z"/><path class="cls-2" d="M349.94,276h-0.07c-1.93-.27-8.27-1.3-8.72-3.38-0.41-1.92-3.08-40.72-3.19-42.38a0.5,0.5,0,0,1,.46-0.53,0.51,0.51,0,0,1,.53.46c1,14,2.86,40.76,3.17,42.24,0.21,1,4.25,2.1,7.88,2.6A0.5,0.5,0,0,1,349.94,276Z"/><path class="cls-1" d="M346.26,230s1.9,49.52,1.9,52.78,21.76,66.11,23.67,74.82,10.88,70.74,10.88,70.74,9,2.72,16.6,0c0,0,3.54-55.77,2.45-63.12s-4.63-21.49-4.63-21.49,7.35-68.56,7.62-81.07-11.7-42.44-11.7-42.44S348.17,179.9,346.26,230Z"/><path class="cls-2" d="M353.27,300.27a0.5,0.5,0,0,1-.48-0.36l-5.1-17a0.49,0.49,0,0,1,0-.13l-0.16-5.58L345.76,230a0.5,0.5,0,0,1,.48-0.52,0.47,0.47,0,0,1,.52.48l1.75,47.2,0.16,5.52,5.08,17a0.5,0.5,0,0,1-.33.62Z"/><path class="cls-2" d="M392.4,265.64h0c-1-.08-9.67-0.83-10.65-3.59-0.91-2.55-4-20.63-4.1-21.4a0.5,0.5,0,0,1,.41-0.58,0.51,0.51,0,0,1,.58.41c0,0.19,3.18,18.76,4.06,21.23,0.58,1.63,6.31,2.66,9.79,2.93A0.5,0.5,0,0,1,392.4,265.64Z"/><path class="cls-2" d="M396,424.71a0.5,0.5,0,0,1-.5-0.5V376.69c0-6-5-32.29-5.07-32.55a0.47,0.47,0,0,1,0-.11c0-.71,1.63-71.33,1.63-76.35s-2.87-27.46-2.9-27.69a0.5,0.5,0,0,1,.43-0.56,0.51,0.51,0,0,1,.56.43c0.12,0.93,2.91,22.76,2.91,27.81s-1.58,74-1.63,76.32c0.32,1.67,5.08,26.62,5.08,32.69v47.52A0.5,0.5,0,0,1,396,424.71Z"/><rect class="cls-5" x="129.16" y="40.33" width="155.98" height="200.24" rx="10.38" ry="10.38"/><rect class="cls-2" x="233.51" y="79.8" width="33.26" height="5.17" rx="2.58" ry="2.58"/><rect class="cls-2" x="233.51" y="92.24" width="33.26" height="5.17" rx="2.58" ry="2.58"/><rect class="cls-2" x="233.51" y="104.69" width="33.26" height="5.17" rx="2.58" ry="2.58"/><path class="cls-1" d="M152.08,207.93a0.5,0.5,0,0,1-.5-0.5V153.37a0.5,0.5,0,0,1,1,0v54.06A0.5,0.5,0,0,1,152.08,207.93Z"/><path class="cls-1" d="M174.11,207.93a0.5,0.5,0,0,1-.5-0.5V153.37a0.5,0.5,0,0,1,1,0v54.06A0.5,0.5,0,0,1,174.11,207.93Z"/><path class="cls-1" d="M196.14,207.93a0.5,0.5,0,0,1-.5-0.5V153.37a0.5,0.5,0,0,1,1,0v54.06A0.5,0.5,0,0,1,196.14,207.93Z"/><path class="cls-1" d="M218.16,207.93a0.5,0.5,0,0,1-.5-0.5V153.37a0.5,0.5,0,0,1,1,0v54.06A0.5,0.5,0,0,1,218.16,207.93Z"/><path class="cls-1" d="M240.19,207.93a0.5,0.5,0,0,1-.5-0.5V153.37a0.5,0.5,0,0,1,1,0v54.06A0.5,0.5,0,0,1,240.19,207.93Z"/><path class="cls-1" d="M262.22,207.93a0.5,0.5,0,0,1-.5-0.5V153.37a0.5,0.5,0,0,1,1,0v54.06A0.5,0.5,0,0,1,262.22,207.93Z"/><path class="cls-1" d="M262.22,163.87H152.08a0.5,0.5,0,0,1,0-1H262.22A0.5,0.5,0,0,1,262.22,163.87Z"/><path class="cls-1" d="M262.22,185.9H152.08a0.5,0.5,0,0,1,0-1H262.22A0.5,0.5,0,0,1,262.22,185.9Z"/><path class="cls-1" d="M262.22,207.93H152.08a0.5,0.5,0,0,1,0-1H262.22A0.5,0.5,0,0,1,262.22,207.93Z"/><path class="cls-4" d="M152.08,207.93a0.5,0.5,0,0,1-.35-0.85l22-22a0.5,0.5,0,0,1,.35-0.15H196l44-22a0.5,0.5,0,0,1,.22-0.05h22a0.5,0.5,0,0,1,0,1H240.31l-44,22a0.5,0.5,0,0,1-.22.05H174.31l-21.88,21.88A0.5,0.5,0,0,1,152.08,207.93Z"/><circle class="cls-3" cx="196.14" cy="185.4" r="2.74"/><circle class="cls-3" cx="174.11" cy="185.4" r="2.74"/><circle class="cls-3" cx="152.08" cy="207.58" r="2.74"/><circle class="cls-3" cx="240.19" cy="163.37" r="2.74"/><circle class="cls-3" cx="262.22" cy="163.37" r="2.74"/><circle class="cls-2" cx="184.26" cy="105.17" r="36.73"/><circle class="cls-3" cx="184.26" cy="105.17" r="26.71"/><circle class="cls-2" cx="184.26" cy="105.17" r="16.69"/><circle class="cls-3" cx="184.26" cy="105.17" r="6.67"/><path class="cls-5" d="M219.37,68.61l1.45,1.45-35.1,35.1a1,1,0,1,1-1.45-1.45Z"/><ellipse class="cls-2" cx="220.09" cy="69.33" rx="1.02" ry="1.02" transform="translate(15.44 175.94) rotate(-45)"/><path class="cls-1" d="M206.32,81.67V71.74a4.82,4.82,0,0,1,1.41-3.41L221.11,55v9.93a4.82,4.82,0,0,1-1.41,3.41Z"/><path class="cls-1" d="M207.76,83.11h9.93a4.82,4.82,0,0,0,3.41-1.41l13.38-13.38h-9.93a4.82,4.82,0,0,0-3.41,1.41Z"/><polygon class="cls-4" points="284.62 145.26 271.92 135.11 267.12 140.18 277.45 153.24 284.62 145.26"/><path class="cls-4" d="M271.65,136l0.27-.91s-3.9-7.66-4.13-7.75-20.86-10.84-21.63-11.11-1.9,1-1.31,2.09,12.2,8.84,12.2,8.84L254.6,138.6s7.94,2.95,12.51,1.59S271.65,136,271.65,136Z"/><path class="cls-4" d="M252,127.17s3.4-1.45,5.31-1.22,3.85,3.31,3.85,4.22a2.75,2.75,0,0,1-1,1.72,8.07,8.07,0,0,1,.14,2.18,3.06,3.06,0,0,1-.77,1.41,5.47,5.47,0,0,1,.09,1.72c-0.14.63-1.86,1.72-2.27,1.9a23.64,23.64,0,0,1-5.72-1.22c-0.86-.41-1.06-2.44-0.31-3.27,0,0-1.18-2.63.45-4C251.79,130.62,250.25,128,252,127.17Z"/><path class="cls-1" d="M258,139.23a0.5,0.5,0,0,1-.27-0.92,4.21,4.21,0,0,0,1.42-1.23,4.84,4.84,0,0,0-.09-1.51,0.5,0.5,0,0,1,.13-0.45,2.57,2.57,0,0,0,.63-1.14,7.34,7.34,0,0,0-.13-2,0.5,0.5,0,0,1,.17-0.48,2.21,2.21,0,0,0,.81-1.34c0-.68-1.78-3.53-3.41-3.72h-0.11a0.5,0.5,0,1,1,.07-1l0.16,0c2.21,0.26,4.29,3.57,4.29,4.71a2.91,2.91,0,0,1-1,1.91,7.33,7.33,0,0,1,.09,2.08,3.36,3.36,0,0,1-.73,1.47,5.12,5.12,0,0,1,0,1.68,4.24,4.24,0,0,1-1.85,1.86A0.5,0.5,0,0,1,258,139.23Z"/><path class="cls-1" d="M259.21,132.08a0.5,0.5,0,0,1-.3-0.1,13.25,13.25,0,0,0-2.46-1.57,29.39,29.39,0,0,0-3.28.64,0.5,0.5,0,0,1-.23-1,25.1,25.1,0,0,1,3.58-.66,10.19,10.19,0,0,1,3,1.77A0.5,0.5,0,0,1,259.21,132.08Z"/><path class="cls-1" d="M258.23,135.79a0.5,0.5,0,0,1-.23-0.06,6.76,6.76,0,0,0-2.35-.76,16.25,16.25,0,0,0-2.74.43,0.5,0.5,0,0,1-.23-1,16.9,16.9,0,0,1,3-.46,7.65,7.65,0,0,1,2.82.87A0.5,0.5,0,0,1,258.23,135.79Z"/><path class="cls-4" d="M260.41,130.63a37.11,37.11,0,0,1,.34-6.05c0.2-.61,5.48-0.58,7-0.14s4.14,10.67,4.14,10.67-4.31.35-6-.53-1.8-5.58-1.8-5.58S263.74,132.26,260.41,130.63Z"/><path class="cls-1" d="M266,135.1a0.47,0.47,0,0,1-.22-0.06l0.23-.44-0.25.43c-1.19-.63-1.71-2.64-1.93-4.18a2.33,2.33,0,0,1-.59.45,3.26,3.26,0,0,1-3-.23c-0.63-.31-0.19-4.61,0-5.92a0.51,0.51,0,0,1,.55-0.44,0.5,0.5,0,0,1,.44.55c-0.16,1.39-.3,4.19-0.27,5a2.17,2.17,0,0,0,1.89.14,2.21,2.21,0,0,0,.9-1.49,0.51,0.51,0,0,1,.52-0.44,0.5,0.5,0,0,1,.48.48c0.05,1.7.51,4.61,1.54,5.15a0.52,0.52,0,0,1,.23.69A0.5,0.5,0,0,1,266,135.1Z"/><path class="cls-2" d="M336.47,127.53s-11,10.88-26.39,36.46c0,0-22.17-16.32-22.58-16.19s-11.43,11.29-11.43,11.29,22.58,28.57,33.06,31.15,35.64-24.89,44.07-40S349,116.37,336.47,127.53Z"/><path class="cls-1" d="M313.86,183a0.5,0.5,0,0,1-.5-0.48,68.75,68.75,0,0,0-3.26-16.61,0.5,0.5,0,0,1,.95-0.33,69.87,69.87,0,0,1,3.31,16.89,0.5,0.5,0,0,1-.48.52h0Z"/><path class="cls-1" d="M281.33,140.36l8.25,6.62s-14.69,16.23-14.6,16-7.16-10-7.16-10Z"/><path class="cls-3" d="M364,111s-13.6,5.26-21,15.05-13.06,31-13.06,31l2.9,10-15.6,58.77a74.09,74.09,0,0,0,30.47,7.62c17.59,0.54,51.6-3.45,51.6-3.45s-11.88-51.69-12.06-58.4S390,131.11,390,131.11,373.83,113.51,364,111Z"/><path class="cls-4" d="M355.17,228.25c-18.54,0-30.3-4-30.45-4a0.5,0.5,0,1,1,.33-0.95c0.2,0.07,20.11,6.78,49,2.6a0.5,0.5,0,1,1,.14,1A132.94,132.94,0,0,1,355.17,228.25Z"/><path class="cls-4" d="M347.12,176.5a0.5,0.5,0,0,1-.06-1c6.35-.73,13.49-2,14.55-2.89a9.13,9.13,0,0,0-2.94-.75,101.65,101.65,0,0,0-23.34-.56l-1,.07a0.5,0.5,0,0,1,0-1l0.88-.06a102.6,102.6,0,0,1,23.57.57c2.8,0.43,3.89.92,3.87,1.73,0,1.73-8.46,3.07-15.51,3.88h-0.06Z"/><path class="cls-2" d="M364,111s-11.06,4.58-27.57,16.55c0,0-10.16,16.82-11.61,23.9s2.36,21.95,2.36,21.95-15.24,37.73-23,76.72a76.18,76.18,0,0,0,20.13,7.62s7.62-61.12,14.15-88.87S351.89,122.4,364,111Z"/><path class="cls-1" d="M323.75,183a0.49,0.49,0,0,1-.17,0,0.5,0.5,0,0,1-.3-0.64c1.84-5,3.13-8.27,3.42-9-0.43-1.71-3.72-15.22-2.32-22,1-4.91,6.15-14.44,9.13-19.69a0.5,0.5,0,1,1,.87.49c-2.95,5.19-8,14.62-9,19.4-1.41,6.88,2.31,21.57,2.35,21.72a0.5,0.5,0,0,1,0,.31s-1.38,3.42-3.47,9.11A0.5,0.5,0,0,1,323.75,183Z"/><path class="cls-2" d="M368.71,112.15s-3.4,40-2.49,58.67,5.26,87.42,5.26,87.42,21.4-2.18,35.55-8.89L392.7,185.16l2.54-53.69S381.9,117.58,368.71,112.15Z"/><path class="cls-3" d="M350.75,125s6.6-18,14.22-17.21,9,19.59,9,19.59-7.21-4.9-11.09-5.37S350.75,125,350.75,125Z"/><path class="cls-4" d="M372.94,127.23a0.49,0.49,0,0,1-.27-0.08c-2-1.28-7-4.29-9.87-4.64-2.54-.31-7.13,1.18-9.65,2.1a0.5,0.5,0,0,1-.34-0.94c3.18-1.16,7.51-2.48,10.11-2.16,3,0.37,7.73,3.16,10.29,4.79A0.5,0.5,0,0,1,372.94,127.23Z"/><polygon class="cls-1" points="278.34 174.19 279.79 171.46 320.6 171.46 319.15 174.19 278.34 174.19"/><polygon class="cls-1" points="342.82 216.9 344.27 214.18 320.6 171.46 319.15 174.19 342.82 216.9"/><polygon class="cls-5" points="302.01 216.9 278.34 174.19 319.15 174.19 342.82 216.9 302.01 216.9"/><path class="cls-6" d="M313,189.25c1.55,2.44.29,4.41-2.81,4.41a11,11,0,0,1-8.43-4.41c-1.55-2.44-.29-4.41,2.81-4.41A11,11,0,0,1,313,189.25Z"/><path class="cls-2" d="M395.24,131.47C405.15,139.61,417,172.82,417,190s-57.95,20.68-57.95,20.68l-6.26-14.69L386,180.71s-11.15-19-12-34.82S384.62,122.76,395.24,131.47Z"/><path class="cls-1" d="M359.05,211.14a0.5,0.5,0,0,1-.46-0.3l-6.26-14.69a0.5,0.5,0,0,1,.25-0.65l32.7-15c-1.72-3.07-11-20.24-11.77-34.57-0.39-7.55,1.94-13.64,6.38-16.72a11.34,11.34,0,0,1,11.34-.8,0.5,0.5,0,0,1-.4.92,10.37,10.37,0,0,0-10.37.7c-4.15,2.88-6.32,8.65-6,15.85,0.8,15.47,11.79,34.41,11.9,34.6a0.5,0.5,0,0,1-.22.71l-32.75,15,5.93,13.92c2.65-.18,19.7-1.47,34.41-5.23a0.5,0.5,0,1,1,.25,1c-16,4.09-34.76,5.27-35,5.28h0Z"/><path class="cls-1" d="M409.33,187.17a0.5,0.5,0,0,1-.28-0.08c-8.43-5.67-20.42-5.42-20.54-5.42a0.51,0.51,0,0,1-.51-0.49,0.5,0.5,0,0,1,.49-0.51c0.51,0,12.43-.27,21.13,5.59A0.5,0.5,0,0,1,409.33,187.17Z"/><path class="cls-4" d="M347.71,197.85l-8.43.86s-6-5.76-6.8-6.21-0.18,1.72.09,2.72,1.36,4,1.36,4-5.71,1.13-6.26,1.13-9.16-2.49-10.66-1.86c-1.74.74,1.27,2.81,1.27,2.81a2.1,2.1,0,0,0,1,2.78s-0.48,1.58,1.79,2.44a2.64,2.64,0,0,0,2,2.4,23.67,23.67,0,0,0,6.57,1.5c2,0.14,10.07-3.36,10.07-3.36l10.66,0.09Z"/><path class="cls-1" d="M346.26,196.63l7.89-2.45s6,4.76,6.39,18.23l-10.61.41Z"/><path class="cls-1" d="M326.27,203.46l-0.13,0-6.26-1.7a0.5,0.5,0,0,1,.26-1l6.26,1.7A0.5,0.5,0,0,1,326.27,203.46Z"/><path class="cls-1" d="M326.61,205.87h-0.12l-5.68-1.36a0.5,0.5,0,1,1,.23-1l5.68,1.36A0.5,0.5,0,0,1,326.61,205.87Z"/><path class="cls-1" d="M327.39,208.15h-0.11L322.48,207a0.5,0.5,0,1,1,.23-1l4.79,1.12A0.5,0.5,0,0,1,327.39,208.15Z"/><path class="cls-4" d="M367.08,116.71s-1.77,2.72-3.74,2.93a3.49,3.49,0,0,1-3.06-1.3l-1.38-6.74-0.55-2.7-1.54-7.49,7.75-2.93,0,0.38,0.59,4.3Z"/><path class="cls-1" d="M365.2,103.16c0.19,2.84-2.76,6.79-6.3,8.44l-0.55-2.7-1.54-7.49,7.75-2.93,0,0.38Z"/><path class="cls-1" d="M360.94,75s-3.34-3.48-.7-9.2,14.42-6.76,18.19,2.51S371.81,85,360.94,75Z"/><path class="cls-3" d="M358.31,75.5s1.16-4.56,7.35-2.58,2.18,7.69,2.18,7.69Z"/><path class="cls-1" d="M347.77,78.84a16.31,16.31,0,0,1,14.76-4.08c9.18,1.9,12.79,14.42,13,19.18s-3.06,9.59-11.43,7.89a140.43,140.43,0,0,1-14-3.54s-9,2.45-13.33-4.63S338.25,78.84,347.77,78.84Z"/><path class="cls-4" d="M349.95,80.13c-7.38,4.61-4.22,22.17,5.85,26.25s12-7.48,11.15-15S358.65,74.69,349.95,80.13Z"/><path class="cls-1" d="M345.59,84s6.53,9.52,20.27,6.87l2.58-1.43s-3.65-12.66-13.6-12.11A10.24,10.24,0,0,0,345.59,84Z"/><path class="cls-4" d="M364.57,91.55s2.92-4.9,6.26-3.33,1.29,9-5.65,8.5Z"/><path class="cls-1" d="M361.09,90s-2.1-2.75-4.19-1.14a0.77,0.77,0,0,0-.81-0.58c-0.61.1-.3,2-0.3,2A13.32,13.32,0,0,1,361.09,90Z"/><path class="cls-1" d="M348.37,94s-0.42-3.14,1.54-2.63a0.72,0.72,0,0,1,.31-0.72c0.65-.24,1.14,1.51,1.14,1.51A5.61,5.61,0,0,0,348.37,94Z"/><ellipse class="cls-1" cx="358.52" cy="94.28" rx="1.3" ry="1.61" transform="translate(-11.99 82.02) rotate(-12.84)"/><circle class="cls-6" cx="358.11" cy="93.79" r="0.35" transform="translate(-11.89 81.92) rotate(-12.84)"/><ellipse class="cls-1" cx="351.05" cy="95.98" rx="1.3" ry="1.61" transform="translate(-12.55 80.4) rotate(-12.84)"/><circle class="cls-6" cx="350.64" cy="95.49" r="0.35" transform="translate(-12.45 80.3) rotate(-12.84)"/><path class="cls-1" d="M354.73,100.71a1.85,1.85,0,0,1-1.61-.81,1.21,1.21,0,0,1-.18-1.16,2.32,2.32,0,0,1,1.42-1.12L353.79,95a0.5,0.5,0,1,1,1-.21l0.68,3.07a0.5,0.5,0,0,1-.37.59,2.08,2.08,0,0,0-1.19.65,0.24,0.24,0,0,0,.07.24c0.5,0.74,1.72.14,1.74,0.14a0.5,0.5,0,0,1,.45.89A3.26,3.26,0,0,1,354.73,100.71Z"/><path class="cls-1" d="M356,104h-0.32a0.5,0.5,0,0,1,.11-1c0.12,0,2.79.25,4.67-2.85a0.5,0.5,0,0,1,.86.52A6.25,6.25,0,0,1,356,104Z"/><path class="cls-2" d="M102.7,36.09h0a8.71,8.71,0,0,0,8.71-8.71h0a8.71,8.71,0,0,0,8.71,8.71h0a8.71,8.71,0,0,0-8.71,8.71h0a8.71,8.71,0,0,0-8.71-8.71h0Z"/><circle class="cls-5" cx="105.4" cy="52.94" r="3.45"/><circle class="cls-5" cx="113.11" cy="66.27" r="1.72"/><path class="cls-2" d="M283.44,30.43h0a7.22,7.22,0,0,0,7.22-7.22h0a7.22,7.22,0,0,0,7.22,7.22h0a7.22,7.22,0,0,0-7.22,7.22h0a7.22,7.22,0,0,0-7.22-7.22h0Z"/><circle class="cls-5" cx="246.42" cy="21.1" r="2.45"/><circle class="cls-5" cx="262.57" cy="30.69" r="1.91"/><circle class="cls-5" cx="272.44" cy="17.39" r="4.17"/><path class="cls-2" d="M102.54,222.74h0a7.22,7.22,0,0,0,7.22-7.22h0a7.22,7.22,0,0,0,7.22,7.22h0a7.22,7.22,0,0,0-7.22,7.22h0a7.22,7.22,0,0,0-7.22-7.22h0Z"/><circle class="cls-5" cx="126.79" cy="250.85" r="5.39"/><circle class="cls-5" cx="107.35" cy="242.29" r="2.4"/><circle class="cls-5" cx="117.46" cy="201.93" r="1.22"/><circle class="cls-5" cx="104.54" cy="192.55" r="3.54"/><path class="cls-2" d="M271.49,253.56h0a7.22,7.22,0,0,0,7.22-7.22h0a7.22,7.22,0,0,0,7.22,7.22h0a7.22,7.22,0,0,0-7.22,7.22h0a7.22,7.22,0,0,0-7.22-7.22h0Z"/><circle class="cls-5" cx="289.57" cy="244.27" r="2.07"/><circle class="cls-5" cx="289.84" cy="263.66" r="2.89"/><circle class="cls-5" cx="257.83" cy="254.9" r="1.34"/></svg>