<?xml version="1.0" encoding="iso-8859-1"?>
<!-- Generator: Adobe Illustrator 24.0.0, SVG Export Plug-In . SVG Version: 6.00 Build 0)  -->
<svg version="1.1" xmlns="http://www.w3.org/2000/svg" xmlns:xlink="http://www.w3.org/1999/xlink" x="0px" y="0px"
	 viewBox="0 0 1200 1200" enable-background="new 0 0 1200 1200" xml:space="preserve">
<g id="Background_x5F_Simple">
	<g>
		<g>
			<path fill="#EEEEEE" d="M858.7249146,171.5791168h-0.8395386c-2.6977539,0-4.8847656-2.1869659-4.8847656-4.8847351v-17.7273712
				c0-2.6977539,2.1870117-4.8847351,4.8847656-4.8847351h0.8395386c2.6977539,0,4.8847656,2.1869812,4.8847656,4.8847351
				v17.7273712C863.6096802,169.3921509,861.4226685,171.5791168,858.7249146,171.5791168z"/>
			<path fill="#EEEEEE" d="M870.7545166,184.4482422v-0.8395538c0-2.6977539,2.1869507-4.8847351,4.8847046-4.8847351h17.727356
				c2.6978149,0,4.8847656,2.1869812,4.8847656,4.8847351v0.8395538c0,2.6977692-2.1869507,4.8847351-4.8847656,4.8847351
				h-17.727356C872.9414673,189.3329773,870.7545166,187.1460114,870.7545166,184.4482422z"/>
			<path fill="#EEEEEE" d="M857.885376,196.4778137h0.8395386c2.6977539,0,4.8847656,2.1869812,4.8847656,4.8847351V219.08992
				c0,2.6977692-2.1870117,4.8847351-4.8847656,4.8847351h-0.8395386c-2.6977539,0-4.8847656-2.1869659-4.8847656-4.8847351
				v-17.7273712C853.0006104,198.6647949,855.1876221,196.4778137,857.885376,196.4778137z"/>
			<path fill="#EEEEEE" d="M845.8557739,183.6086884v0.8395538c0,2.6977692-2.1869507,4.8847351-4.8847046,4.8847351h-17.727356
				c-2.6977539,0-4.8847656-2.1869659-4.8847656-4.8847351v-0.8395538c0-2.6977539,2.1870117-4.8847351,4.8847656-4.8847351
				h17.727356C843.6688232,178.7239532,845.8557739,180.9109344,845.8557739,183.6086884z"/>
		</g>
		<g>
			<path fill="#EEEEEE" d="M184.1426849,798.7631226h-0.8395538c-2.6977539,0-4.8847351-2.1869507-4.8847351-4.8847046v-17.727356
				c0-2.6977539,2.1869812-4.8847656,4.8847351-4.8847656h0.8395538c2.6977692,0,4.8847351,2.1870117,4.8847351,4.8847656v17.727356
				C189.02742,796.5761719,186.8404541,798.7631226,184.1426849,798.7631226z"/>
			<path fill="#EEEEEE" d="M196.1722565,811.6322632v-0.8395386c0-2.6977539,2.1869812-4.8847046,4.8847351-4.8847046h17.7273712
				c2.6977692,0,4.8847351,2.1869507,4.8847351,4.8847046v0.8395386c0,2.6977539-2.1869659,4.8847656-4.8847351,4.8847656
				h-17.7273712C198.3592377,816.5170288,196.1722565,814.3300171,196.1722565,811.6322632z"/>
			<path fill="#EEEEEE" d="M183.3031311,823.6618652h0.8395538c2.6977692,0,4.8847351,2.1869507,4.8847351,4.8847046v17.727356
				c0,2.6978149-2.1869659,4.8847656-4.8847351,4.8847656h-0.8395538c-2.6977539,0-4.8847351-2.1869507-4.8847351-4.8847656
				v-17.727356C178.418396,825.8488159,180.6053772,823.6618652,183.3031311,823.6618652z"/>
			<path fill="#EEEEEE" d="M171.2735596,810.7927246v0.8395386c0,2.6977539-2.1869659,4.8847656-4.8847351,4.8847656h-17.7273712
				c-2.6977539,0-4.8847351-2.1870117-4.8847351-4.8847656v-0.8395386c0-2.6977539,2.1869812-4.8847046,4.8847351-4.8847046
				h17.7273712C169.0865936,805.90802,171.2735596,808.0949707,171.2735596,810.7927246z"/>
		</g>
		<g>
			<path fill="#EEEEEE" d="M364.4038391,176.8836212h-0.8395386c-2.6977844,0-4.8847351-2.1869659-4.8847351-4.8847351v-17.7273712
				c0-2.6977539,2.1869507-4.8847351,4.8847351-4.8847351h0.8395386c2.6977539,0,4.8847351,2.1869812,4.8847351,4.8847351
				v17.7273712C369.2885742,174.6966553,367.101593,176.8836212,364.4038391,176.8836212z"/>
			<path fill="#EEEEEE" d="M376.4334106,189.7527466v-0.8395538c0-2.6977539,2.1869812-4.8847351,4.8847351-4.8847351h17.727356
				c2.6977844,0,4.8847351,2.1869812,4.8847351,4.8847351v0.8395538c0,2.6977692-2.1869507,4.8847351-4.8847351,4.8847351
				h-17.727356C378.6203918,194.6374817,376.4334106,192.4505157,376.4334106,189.7527466z"/>
			<path fill="#EEEEEE" d="M363.5643005,201.7823181h0.8395386c2.6977539,0,4.8847351,2.1869812,4.8847351,4.8847351v17.7273712
				c0,2.6977692-2.1869812,4.8847351-4.8847351,4.8847351h-0.8395386c-2.6977844,0-4.8847351-2.1869659-4.8847351-4.8847351
				v-17.7273712C358.6795654,203.9692993,360.8665161,201.7823181,363.5643005,201.7823181z"/>
			<path fill="#EEEEEE" d="M351.5346985,188.9131927v0.8395538c0,2.6977692-2.1869507,4.8847351-4.8847351,4.8847351h-17.727356
				c-2.6977539,0-4.8847351-2.1869659-4.8847351-4.8847351v-0.8395538c0-2.6977539,2.1869812-4.8847351,4.8847351-4.8847351
				h17.727356C349.3477478,184.0284576,351.5346985,186.2154388,351.5346985,188.9131927z"/>
		</g>
		<g>
			<path fill="#EEEEEE" d="M1018.7814941,754.4125977h-0.8395996c-2.6977539,0-4.8847046-2.1869507-4.8847046-4.8847046v-17.727356
				c0-2.6978149,2.1869507-4.8847656,4.8847046-4.8847656h0.8395996c2.6977539,0,4.8847046,2.1869507,4.8847046,4.8847656v17.727356
				C1023.6661987,752.225647,1021.479248,754.4125977,1018.7814941,754.4125977z"/>
			<path fill="#EEEEEE" d="M1030.8110352,767.2817383v-0.8395386c0-2.6977539,2.1870117-4.8847656,4.8847656-4.8847656h17.7272949
				c2.697876,0,4.8847656,2.1870117,4.8847656,4.8847656v0.8395386c0,2.6977539-2.1868896,4.8847046-4.8847656,4.8847046
				h-17.7272949C1032.9980469,772.1664429,1030.8110352,769.9794922,1030.8110352,767.2817383z"/>
			<path fill="#EEEEEE" d="M1017.9418945,779.3113403h0.8395996c2.6977539,0,4.8847046,2.1869507,4.8847046,4.8847046v17.727356
				c0,2.6977539-2.1869507,4.8847656-4.8847046,4.8847656h-0.8395996c-2.6977539,0-4.8847046-2.1870117-4.8847046-4.8847656
				v-17.727356C1013.0571899,781.498291,1015.2441406,779.3113403,1017.9418945,779.3113403z"/>
			<path fill="#EEEEEE" d="M1005.9123535,766.4421997v0.8395386c0,2.6977539-2.1869507,4.8847046-4.8847656,4.8847046h-17.727356
				c-2.6977539,0-4.8847046-2.1869507-4.8847046-4.8847046v-0.8395386c0-2.6977539,2.1869507-4.8847656,4.8847046-4.8847656
				h17.727356C1003.7254028,761.5574341,1005.9123535,763.7444458,1005.9123535,766.4421997z"/>
		</g>
		<g>
			<path fill="#EEEEEE" d="M482.5910034,983.5233154h-0.6950684c-2.2335205,0-4.0441284-1.8106079-4.0441284-4.0441284v-14.6767578
				c0-2.2334595,1.8106079-4.0441284,4.0441284-4.0441284h0.6950684c2.2335205,0,4.0441284,1.8106689,4.0441284,4.0441284
				v14.6767578C486.6351318,981.7127075,484.8245239,983.5233154,482.5910034,983.5233154z"/>
			<path fill="#EEEEEE" d="M492.5504456,994.1778564v-0.6950684c0-2.2335205,1.8106384-4.0441895,4.0441284-4.0441895h14.6767273
				c2.2335205,0,4.0441284,1.8106689,4.0441284,4.0441895v0.6950684c0,2.2335205-1.8106079,4.0441284-4.0441284,4.0441284
				H496.594574C494.361084,998.2219849,492.5504456,996.411377,492.5504456,994.1778564z"/>
			<path fill="#EEEEEE" d="M481.8959351,1004.1372681h0.6950684c2.2335205,0,4.0441284,1.8106079,4.0441284,4.0441284v14.6767578
				c0,2.2335205-1.8106079,4.0440674-4.0441284,4.0440674h-0.6950684c-2.2335205,0-4.0441284-1.8105469-4.0441284-4.0440674
				v-14.6767578C477.8518066,1005.947876,479.6624146,1004.1372681,481.8959351,1004.1372681z"/>
			<path fill="#EEEEEE" d="M471.9364929,993.4827881v0.6950684c0,2.2335205-1.8106384,4.0441284-4.0441589,4.0441284h-14.6767273
				c-2.23349,0-4.0441284-1.8106079-4.0441284-4.0441284v-0.6950684c0-2.2335205,1.8106384-4.0441895,4.0441284-4.0441895
				h14.6767273C470.1258545,989.4385986,471.9364929,991.2492676,471.9364929,993.4827881z"/>
		</g>
		<path fill="#EEEEEE" d="M143.7767181,547.5147095c-11.7311096,0-21.2006836,9.4978638-21.2006836,21.2006836
			c0,11.730957,9.469574,21.2007446,21.2006836,21.2007446c11.7028351,0,21.2006989-9.4697876,21.2006989-21.2007446
			C164.977417,557.0125732,155.4795532,547.5147095,143.7767181,547.5147095z M143.775528,580.201416
			c-6.363266,0-11.4848175-5.1217041-11.4848175-11.4848022c0-6.3373413,5.1215515-11.4589233,11.4848175-11.4589233
			c6.3373566,0,11.4589081,5.121582,11.4589081,11.4589233C155.234436,575.0797119,150.1128845,580.201416,143.775528,580.201416z"
			/>
		<path fill="#EEEEEE" d="M697.7721558,979.5038452c-11.7311401,0-21.2006836,9.4978638-21.2006836,21.2006836
			c0,11.730896,9.4695435,21.2006836,21.2006836,21.2006836c11.7028198,0,21.2006836-9.4697876,21.2006836-21.2006836
			C718.9728394,989.001709,709.4749756,979.5038452,697.7721558,979.5038452z M697.7709351,1012.1905518
			c-6.3632202,0-11.4848022-5.1217651-11.4848022-11.4848633c0-6.3373413,5.121582-11.4589233,11.4848022-11.4589233
			c6.3374023,0,11.4589233,5.121582,11.4589233,11.4589233
			C709.2298584,1007.0687866,704.1083374,1012.1905518,697.7709351,1012.1905518z"/>
		<path fill="#EEEEEE" d="M1030.8110352,520.739563c-11.7310791,0-21.2006836,9.4978638-21.2006836,21.2006836
			c0,11.730957,9.4696045,21.2006836,21.2006836,21.2006836c11.7028809,0,21.2006836-9.4697266,21.2006836-21.2006836
			C1052.0117188,530.2374268,1042.513916,520.739563,1030.8110352,520.739563z M1030.8098145,553.4262695
			c-6.3632813,0-11.4848022-5.1217041-11.4848022-11.4848022c0-6.3374023,5.121521-11.4589233,11.4848022-11.4589233
			c6.3374023,0,11.4589844,5.121521,11.4589844,11.4589233
			C1042.2687988,548.3045654,1037.1472168,553.4262695,1030.8098145,553.4262695z"/>
	</g>
</g>
<g id="Layer_x5F_Sink">
	<g>
		<g>
			<path fill="#6081C1" d="M988.6467285,413.4767761c-4.1599731,206.5099792-41.4699707,327.2399597-65.9500122,384.8799744
				c-13.3399658,31.4199829-39.5599976,55.5300293-72,66.1500244
				c-93.0700073,30.4599609-244.5299683,34.289978-244.5299683,34.289978s-151.4700317-3.8300171-244.5400391-34.289978
				c-32.4400024-10.6199951-58.6599731-34.7300415-72-66.1500244
				c-24.4799805-57.6400146-61.7899933-178.3699951-65.9499664-384.8799744
				c-0.4200439-21.0100098,16.5099487-38.2799683,37.5299835-38.2799683H951.126709
				C972.1367188,375.1968079,989.0667114,392.4667664,988.6467285,413.4767761z"/>
			<g>
				<g>
					<path fill="#6081C1" d="M606.2050781,900.2957153c-1.5927734-0.0380859-152.8325195-4.1845703-245.0454102-34.3632813
						c-32.8251953-10.7460938-59.4013672-35.1630859-72.9140625-66.9892578
						c-22.8588867-53.8232422-61.8388672-175.4697266-66.0683594-385.4360352
						c-0.2114258-10.5673828,3.7490234-20.5454102,11.1513672-28.097168
						c7.4038086-7.5537109,17.3046875-11.7133789,27.8779297-11.7133789h689.9204102
						c10.5673828,0,20.4638672,4.1591797,27.8662109,11.7109375c7.4033203,7.5522461,11.3642578,17.5317383,11.1533203,28.0991211
						v0.0004883c-4.2304688,209.9682617-43.2099609,331.612793-66.0693359,385.4360352
						c-13.5126953,31.8261719-40.0888672,56.2431641-72.9140625,66.9892578
						C758.9511719,896.111145,607.7216797,900.2576294,606.2050781,900.2957153z M261.206543,376.6965942
						c-9.7607422,0-18.9003906,3.840332-25.7358398,10.8134766c-6.8334961,6.9711914-10.4892578,16.1826172-10.2944336,25.9370117
						c4.2197266,209.4624023,43.0561523,330.6992188,65.8310547,384.3242188
						c13.1743164,31.0283203,39.0839844,54.8330078,71.0859375,65.3095703
						c91.7924805,30.0419922,242.5991211,34.1777344,244.1118164,34.2167969
						c1.4365234-0.0390625,152.2333984-4.1748047,244.0244141-34.2167969
						c32.0029297-10.4765625,57.9121094-34.28125,71.0859375-65.3095703
						c22.7744141-53.625,61.6113281-174.8603516,65.8310547-384.324707
						c0.1953125-9.7548828-3.4609375-18.9667969-10.2949219-25.9389648
						c-6.8339844-6.9716797-15.9697266-10.8110352-25.7246094-10.8110352H261.206543z"/>
				</g>
				<g opacity="0.3">
					<path fill="#FFFFFF" d="M606.2050781,900.2957153c-1.5927734-0.0380859-152.8325195-4.1845703-245.0454102-34.3632813
						c-32.8251953-10.7460938-59.4013672-35.1630859-72.9140625-66.9892578
						c-22.8588867-53.8232422-61.8388672-175.4697266-66.0683594-385.4360352
						c-0.2114258-10.5673828,3.7490234-20.5454102,11.1513672-28.097168
						c7.4038086-7.5537109,17.3046875-11.7133789,27.8779297-11.7133789h689.9204102
						c10.5673828,0,20.4638672,4.1591797,27.8662109,11.7109375c7.4033203,7.5522461,11.3642578,17.5317383,11.1533203,28.0991211
						v0.0004883c-4.2304688,209.9682617-43.2099609,331.612793-66.0693359,385.4360352
						c-13.5126953,31.8261719-40.0888672,56.2431641-72.9140625,66.9892578
						C758.9511719,896.111145,607.7216797,900.2576294,606.2050781,900.2957153z M261.206543,376.6965942
						c-9.7607422,0-18.9003906,3.840332-25.7358398,10.8134766c-6.8334961,6.9711914-10.4892578,16.1826172-10.2944336,25.9370117
						c4.2197266,209.4624023,43.0561523,330.6992188,65.8310547,384.3242188
						c13.1743164,31.0283203,39.0839844,54.8330078,71.0859375,65.3095703
						c91.7924805,30.0419922,242.5991211,34.1777344,244.1118164,34.2167969
						c1.4365234-0.0390625,152.2333984-4.1748047,244.0244141-34.2167969
						c32.0029297-10.4765625,57.9121094-34.28125,71.0859375-65.3095703
						c22.7744141-53.625,61.6113281-174.8603516,65.8310547-384.324707
						c0.1953125-9.7548828-3.4609375-18.9667969-10.2949219-25.9389648
						c-6.8339844-6.9716797-15.9697266-10.8110352-25.7246094-10.8110352H261.206543z"/>
				</g>
			</g>
			<path opacity="0.3" fill="#FFFFFF" d="M931.1467285,432.1968079
				c-5.9400024,187.8399353-40.4199829,295.6199646-60.9099731,343.8799133
				c-6.9200439,16.2800293-20.5,28.7700195-37.2700195,34.2600098
				c-49.789978,16.2900391-120.3499756,24.3200073-169.8099976,28.1600342l-56.9400024,3.0199585l-0.0499878,0.0100098
				l-0.0599976-0.0100098l-56.9400024-3.0199585c-49.460022-3.8400269-120.0200195-11.8699951-169.8099976-28.1600342
				c-16.7700195-5.4899902-30.3500366-17.9799805-37.2700195-34.2600098
				c-20.4899902-48.2599487-54.9699707-156.039978-60.9099731-343.8799133H931.1467285z"/>
		</g>
		<g opacity="0.3">
			<g>
				<g>
					<path fill="#FFFFFF" d="M529.0922241,788.1754761c-0.1591797,0-0.3212891-0.0253906-0.480957-0.0791016
						c-4.8637695-1.6455078-9.6357422-3.7021484-14.1826172-6.1123047
						c-0.7319336-0.3876953-1.0107422-1.2958984-0.6225586-2.0273438c0.387207-0.7333984,1.2944336-1.0136719,2.027832-0.6230469
						c4.4047852,2.3349609,9.0273438,4.3271484,13.7392578,5.9208984c0.784668,0.265625,1.2055664,1.1171875,0.9399414,1.9013672
						C530.3016968,787.7819214,529.7177124,788.1754761,529.0922241,788.1754761z"/>
				</g>
				<g>
					<path fill="#FFFFFF" d="M559.5385132,793.1618042c-5.9643555,0-11.9365234-0.5478516-17.7509766-1.6298828
						c-0.8144531-0.1513672-1.3515625-0.9345703-1.2001953-1.7490234s0.9321289-1.3564453,1.7490234-1.2001953
						c5.6337891,1.0478516,11.4213867,1.5791016,17.2021484,1.5791016c34.2543945,0,65.7211914-18.7060547,82.121582-48.8173828
						c0.3964844-0.7275391,1.3066406-0.9951172,2.0351563-0.5996094c0.7275391,0.3964844,0.9960938,1.3076172,0.5996094,2.0351563
						C627.3690796,773.8561401,594.8920288,793.1618042,559.5385132,793.1618042z"/>
				</g>
				<g>
					<path fill="#FFFFFF" d="M648.9100952,730.3483276c-0.1689453,0-0.3398438-0.0283203-0.5078125-0.0888672
						c-0.7792969-0.2802734-1.1835938-1.1396484-0.9033203-1.9189453
						c1.8671875-5.1904297,3.2773438-10.5839844,4.1914063-16.0292969c0.1376953-0.8183594,0.9130859-1.3662109,1.7275391-1.2314453
						c0.8173828,0.1376953,1.3681641,0.9111328,1.2314453,1.7275391c-0.9443359,5.6230469-2.4003906,11.1904297-4.328125,16.5488281
						C650.1015015,729.9674683,649.524353,730.3483276,648.9100952,730.3483276z"/>
				</g>
				<g>
					<path fill="#FFFFFF" d="M633.5165405,638.6901245c-0.4384766,0-0.8730469-0.190918-1.1689453-0.559082
						c-12.1289063-15.0537109-28.296875-25.8374023-46.7578125-31.1850586
						c-0.7954102-0.2304688-1.2539063-1.0625-1.0234375-1.8583984c0.230957-0.7954102,1.0615234-1.2529297,1.8583984-1.0234375
						c19.0546875,5.5200195,35.7421875,16.6494141,48.2587891,32.1850586
						c0.5195313,0.6450195,0.4179688,1.5893555-0.2265625,2.1088867
						C634.1796265,638.5817261,633.8466187,638.6901245,633.5165405,638.6901245z"/>
				</g>
				<g>
					<path fill="#FFFFFF" d="M557.9896851,765.3346558c-0.0112305,0-0.0229492,0-0.034668,0
						c-9.9238281-0.2255859-19.4580078-2.5224609-28.3374023-6.8300781
						c-0.7451172-0.3613281-1.0561523-1.2587891-0.6948242-2.0039063c0.3618164-0.7460938,1.2592773-1.0576172,2.0043945-0.6953125
						c8.4887695,4.1181641,17.6054688,6.3144531,27.0961914,6.5292969c0.828125,0.0195313,1.484375,0.7060547,1.465332,1.5341797
						C559.4701538,764.6852417,558.8026733,765.3346558,557.9896851,765.3346558z"/>
				</g>
				<g>
					<path fill="#FFFFFF" d="M575.0409546,763.5534058c-0.6796875,0-1.2949219-0.4648438-1.4584961-1.1552734
						c-0.1904297-0.8056641,0.3085938-1.6142578,1.1147461-1.8046875
						c29.7216797-7.0253906,50.4794922-33.2939453,50.4794922-63.8789063c0-9.7504883-2.0859375-19.1337891-6.2011719-27.8886719
						c-0.3525391-0.75-0.0302734-1.6435547,0.7197266-1.9956055c0.7490234-0.3525391,1.6425781-0.0307617,1.9951172,0.7192383
						c4.3037109,9.1577148,6.4863281,18.9702148,6.4863281,29.1650391c0,31.9824219-21.7075195,59.4511719-52.7890625,66.7988281
						C575.2714233,763.5407104,575.1552124,763.5534058,575.0409546,763.5534058z"/>
				</g>
				<g>
					<path fill="#FFFFFF" d="M614.2831421,659.3380737c-0.46875,0-0.9306641-0.2192383-1.2236328-0.6303711
						c-10.3349609-14.5273438-26.3242188-24.3417969-43.8686523-26.9272461
						c-0.8193359-0.1206055-1.3862305-0.8828125-1.2651367-1.7026367c0.1210938-0.8193359,0.8837891-1.3876953,1.7026367-1.2651367
						c18.3481445,2.7036133,35.0693359,12.9658203,45.8764648,28.1557617
						c0.4794922,0.675293,0.3222656,1.6118164-0.3535156,2.0917969
						C614.8876343,659.2477417,614.5839233,659.3380737,614.2831421,659.3380737z"/>
				</g>
			</g>
			<g>
				<g>
					<path fill="#FFFFFF" d="M815.7782593,558.5128784c-0.5351563,0-1.0527344-0.2875977-1.3232422-0.7924805
						c-16.3154297-30.4716797-47.9042969-49.4013367-82.4375-49.4013367c-0.828125,0-1.5-0.6713867-1.5-1.5s0.671875-1.5,1.5-1.5
						c35.6416016,0,68.2431641,19.5365906,85.0820313,50.985321c0.3916016,0.7304688,0.1162109,1.6391602-0.6142578,2.0302734
						C816.2597046,558.4552612,816.0175171,558.5128784,815.7782593,558.5128784z"/>
				</g>
				<g>
					<path fill="#FFFFFF" d="M647.8095093,559.3590698c-0.234375,0-0.4716797-0.0551758-0.6933594-0.1708984
						c-0.734375-0.3837891-1.0185547-1.2900391-0.6347656-2.0244141
						c13.2490234-25.3579102,36.8095703-43.4272461,64.640625-49.5751648
						c0.8115234-0.1782227,1.6103516,0.3334961,1.7880859,1.1411133c0.1787109,0.809082-0.3320313,1.6098633-1.1416016,1.7885742
						c-26.9638672,5.9560242-49.7910156,23.464325-62.6289063,48.0351257
						C648.8720093,559.0656128,648.3495483,559.3590698,647.8095093,559.3590698z"/>
				</g>
				<g>
					<path fill="#FFFFFF" d="M639.1981812,583.1886597c-0.1054688,0-0.2109375-0.0112305-0.3183594-0.0341797
						c-0.8095703-0.1743164-1.3242188-0.972168-1.1503906-1.7822266c1.0996094-5.1015625,2.6259766-10.1450195,4.5380859-14.9897461
						c0.3056641-0.7709961,1.1777344-1.1484375,1.9462891-0.8447266c0.7705078,0.3041992,1.1484375,1.1757813,0.8447266,1.9462891
						c-1.8525391,4.6928711-3.3310547,9.578125-4.3955078,14.5200195
						C640.5106812,582.7072144,639.8895874,583.1886597,639.1981812,583.1886597z"/>
				</g>
				<g>
					<path fill="#FFFFFF" d="M761.4540405,542.9098511c-0.2207031,0-0.4453125-0.0493164-0.6572266-0.152832
						c-5.1953125-2.5385742-10.7089844-4.3759766-16.3857422-5.4609375
						c-0.8144531-0.1552734-1.3476563-0.940918-1.1923828-1.7548828s0.9462891-1.3520508,1.7548828-1.1914063
						c5.9394531,1.1347656,11.7060547,3.0566406,17.1396484,5.7119141c0.7451172,0.3637695,1.0527344,1.2617188,0.6894531,2.0063477
						C762.5429077,542.6002808,762.008728,542.9098511,761.4540405,542.9098511z"/>
				</g>
				<g>
					<path fill="#FFFFFF" d="M684.086853,556.2536011c-0.3789063,0-0.7587891-0.1425781-1.0507813-0.4291992
						c-0.5908203-0.5800781-0.6005859-1.5297852-0.0195313-2.1210938
						c13.015625-13.2680664,30.4179688-20.574707,49.0009766-20.574707c0.828125,0,1.5,0.6713867,1.5,1.5s-0.671875,1.5-1.5,1.5
						c-17.7714844,0-34.4130859,6.9873047-46.8603516,19.675293
						C684.8641968,556.1032104,684.4755249,556.2536011,684.086853,556.2536011z"/>
				</g>
			</g>
			<g>
				<g>
					<path fill="#FFFFFF" d="M480.7435913,515.0084839c-0.140625,0-0.2836914-0.0200195-0.425293-0.0620117
						c-5.0830078-1.5009766-10.3745117-2.262207-15.7275391-2.262207c-0.8286133,0-1.5-0.6713867-1.5-1.4999695
						c0-0.8286133,0.6713867-1.5,1.5-1.5c5.640625,0,11.2177734,0.8022461,16.5771484,2.3852234
						c0.7944336,0.234375,1.2485352,1.0688477,1.0136719,1.8632813
						C481.9887085,514.5856323,481.3915405,515.0084839,480.7435913,515.0084839z"/>
				</g>
				<g>
					<path fill="#FFFFFF" d="M417.3754272,601.4620972c-0.4814453,0-0.9545898-0.2314453-1.2446289-0.6601563
						c-6.5297852-9.6660156-9.9814453-20.965332-9.9814453-32.6762695c0-23.796875,14.2207031-45.0214844,36.2294922-54.0717773
						c0.7661133-0.3144531,1.6425781,0.0507813,1.9575195,0.8168945s-0.0507813,1.6425781-0.8168945,1.9575195
						c-20.8789063,8.5864258-34.3701172,28.7216797-34.3701172,51.2973633c0,11.1103516,3.2739258,21.8286133,9.4677734,30.996582
						c0.4633789,0.6865234,0.2832031,1.6191406-0.4033203,2.0830078
						C417.9564819,601.3790894,417.6640015,601.4620972,417.3754272,601.4620972z"/>
				</g>
				<g>
					<path fill="#FFFFFF" d="M431.0839233,566.6237183c-0.0444336,0-0.0893555-0.0019531-0.1342773-0.0058594
						c-0.8251953-0.0727539-1.4350586-0.8012695-1.3618164-1.6264648
						c1.6137695-18.246582,16.6621094-32.0063477,35.0029297-32.0063477c1.0771484,0,2.1635742,0.0493164,3.2304688,0.1464844
						c0.824707,0.074707,1.4326172,0.8046875,1.3574219,1.6298828c-0.0751953,0.824707-0.8168945,1.4311523-1.6298828,1.3574219
						c-0.9760742-0.0888672-1.9716797-0.1337891-2.9580078-0.1337891c-16.7753906,0-30.5385742,12.5834961-32.0146484,29.2709961
						C432.5072632,566.0363159,431.852478,566.6237183,431.0839233,566.6237183z"/>
				</g>
				<g>
					<path fill="#FFFFFF" d="M433.7977905,583.1911011c-0.5761719,0-1.1259766-0.3339844-1.3735352-0.8950195
						c-1.1728516-2.6591797-2.0112305-5.4619141-2.4907227-8.3295898c-0.1367188-0.8173828,0.4150391-1.590332,1.2319336-1.7270508
						c0.815918-0.1357422,1.590332,0.4145508,1.7270508,1.2319336c0.4384766,2.621582,1.2041016,5.1831055,2.2768555,7.6137695
						c0.3339844,0.7578125-0.0092773,1.6435547-0.7670898,1.9780273
						C434.2055054,583.1500854,433.999939,583.1911011,433.7977905,583.1911011z"/>
				</g>
			</g>
		</g>
	</g>
</g>
<g id="Layer_x5F_Character_1">
	<g id="left_forearm">
		<g>
			<path fill="#FFD4D4" d="M348.6785889,581.2735596c12.4618835-9.0349121,26.4589233,1.3643188,17.90448,31.8989868
				c-5.5233459,19.71521-8.1980286,37.9009399-8.1980286,37.9009399l14.3762512,21.9802246
				c0,0,42.2970276-50.3762207,63.6831665-86.0197754c21.3861389-35.6436157,31.8415833-44.1980591,42.7722778-40.3960571
				s6.6534424,23.2871094-4.7525024,46.5742798c-11.4059143,23.2871094-30.7674866,54.1781616-30.7674866,54.1781616
				l5.104126,2.3762817c0,0,30.8911133-41.8217773,44.6732788-61.3069458s26.1386414-35.6435547,40.8713074-27.5643311
				c14.732666,8.0791626,1.4257202,30.5363159-9.9802246,48.5354614s-36.831665,57.3259277-36.831665,57.3259277
				l3.9207764,3.2078857c0,0,32.4356689-43.364624,43.8416138-60.5338135
				c11.4058838-17.1691284,22.8118286-29.050354,31.366333-23.8226318
				c8.5544434,5.2277222,9.0296631,14.2574463-5.2277222,41.8217773
				c-14.2574463,27.5643921-46.9307251,69.8613892-46.9307251,69.8613892l3.0891113,4.5148926
				c0,0,24.831665-31.1287231,35.7623901-48.2376709c10.9306641-17.1088867,32.3168335-12.3563843,23.2871094,12.3564453
				c-9.0296631,24.7128906-66.9254761,110.6520996-89.8217773,136.8712769
				c-22.8963013,26.2192383-46.098999,34.2178345-46.098999,34.2178345s-66.2970276,153.0297241-121.901001,235.0099487
				c0,0-116.9108887,17.8217773-148.990097,9.267334s-34.9306946-91.2475586-34.9306946-91.2475586
				s111.2079315-86.4950562,187.4851532-204.831665c0,0-13.943512-90.9194946-13.2306519-115.1571045
				C309.8672791,645.8174438,339.1736145,588.1646118,348.6785889,581.2735596z"/>
			<g opacity="0.2">
				<path fill="#222B3F" d="M362.484314,625.4850464c-0.5952148,0-1.1586914-0.3569336-1.3930664-0.9433594
					c-3.8554688-9.6396484-15.4868164-10.28125-15.6040039-10.2866211c-0.8266602-0.0375977-1.4677734-0.737793-1.4311523-1.5644531
					c0.0361328-0.8266602,0.7250977-1.4716797,1.5605469-1.4326172c0.5561523,0.0234375,13.6757813,0.7075195,18.2597656,12.1694336
					c0.3076172,0.7695313-0.0664063,1.6420898-0.8354492,1.949707
					C362.8583374,625.4503784,362.6698608,625.4850464,362.484314,625.4850464z"/>
			</g>
			<g opacity="0.2">
				<path fill="#222B3F" d="M403.2977905,771.2662964c-0.0859375,0-0.1723633-0.0068359-0.2597656-0.0224609
					c-0.815918-0.1425781-1.3623047-0.9189453-1.2197266-1.7353516
					c9.0283203-51.7392578-27.7719727-92.7773438-28.1445313-93.1855469
					c-0.5585938-0.6118164-0.515625-1.5605469,0.0961914-2.1191406c0.6118164-0.5581055,1.5605469-0.515625,2.1186523,0.0957031
					c0.3828125,0.4189453,38.171875,42.5058594,28.8847656,95.7246094
					C404.6464233,770.7526245,404.0126343,771.2662964,403.2977905,771.2662964z"/>
			</g>
			<g opacity="0.2">
				<path fill="#222B3F" d="M412.9198608,761.6432495c-0.3647461,0-0.7299805-0.1328125-1.0180664-0.3994141
					c-0.6079102-0.5625-0.6455078-1.5097656-0.0834961-2.1181641c0.2866211-0.3115234,29.2260742-31.0039063,75.7416992-26.4960938
					c0.8242188,0.0800781,1.4282227,0.8134766,1.3481445,1.6376953c-0.0800781,0.8251953-0.8242188,1.4316406-1.6381836,1.3486328
					c-44.984375-4.3740234-72.9716797,25.2460938-73.2490234,25.5458984
					C413.7255249,761.4811401,413.3231812,761.6432495,412.9198608,761.6432495z"/>
			</g>
			<g opacity="0.2">
				<path fill="#222B3F" d="M508.4452515,717.088562c-0.5537109,0-1.0864258-0.3076172-1.347168-0.8388672
					c-19.7895508-40.2739258-80.1044922-58.9228516-80.7114258-59.1069336
					c-0.7929688-0.2397461-1.2412109-1.0771484-1.0014648-1.8696289c0.2392578-0.7929688,1.0766602-1.2412109,1.8696289-1.0019531
					c2.5288086,0.7646484,62.1660156,19.2001953,82.5356445,60.65625c0.3652344,0.7431641,0.0585938,1.6416016-0.6845703,2.0078125
					C508.8930054,717.0397339,508.6674194,717.088562,508.4452515,717.088562z"/>
			</g>
			<g opacity="0.2">
				<path fill="#222B3F" d="M473.5150757,589.3063354c-0.4995117,0-0.9882813-0.2490234-1.2729492-0.7041016
					c-8.8388672-14.1142578-23.9990234-11.3876953-24.6411133-11.2641602
					c-0.8110352,0.1523438-1.5996094-0.3759766-1.7563477-1.1875c-0.1572266-0.8125,0.3710938-1.5986328,1.1831055-1.7573242
					c0.1757813-0.0356445,17.8027344-3.2773438,27.7573242,12.6171875c0.4394531,0.7016602,0.2265625,1.6274414-0.4755859,2.0673828
					C474.062439,589.232605,473.7870483,589.3063354,473.5150757,589.3063354z"/>
			</g>
			<g opacity="0.2">
				<path fill="#222B3F" d="M455.5145874,619.8707886c-0.5708008,0-1.1162109-0.3276367-1.3671875-0.8813477
					c-6.7885742-14.984375-23.4594727-13.6650391-23.6279297-13.6494141
					c-0.8115234,0.074707-1.5541992-0.5336914-1.628418-1.3598633c-0.0742188-0.824707,0.534668-1.5541992,1.3598633-1.628418
					c0.1865234-0.0166016,18.9716797-1.5039063,26.6289063,15.3994141c0.3417969,0.7548828,0.0073242,1.6435547-0.7470703,1.9853516
					C455.9320679,619.8278198,455.7216187,619.8707886,455.5145874,619.8707886z"/>
			</g>
			<g opacity="0.2">
				<path fill="#222B3F" d="M521.5336304,607.007019c-0.5273438,0-1.0385742-0.2783203-1.3125-0.7719727
					c-8.090332-14.5576172-23.3725586-12.6254883-24.019043-12.5371094
					c-0.8222656,0.1186523-1.5776367-0.4580078-1.6923828-1.2773438c-0.1142578-0.8198242,0.4545898-1.5771484,1.2739258-1.6933594
					c0.1767578-0.0249023,17.9501953-2.3417969,27.0595703,14.0507813c0.4023438,0.7241211,0.1416016,1.637207-0.5825195,2.0395508
					C522.0302124,606.9459839,521.7802124,607.007019,521.5336304,607.007019z"/>
			</g>
			<g opacity="0.2">
				<path fill="#222B3F" d="M499.9144897,638.494812c-0.5996094,0-1.1655273-0.3618164-1.3974609-0.9536133
					c-5.9765625-15.2705078-22.1962891-14.8857422-22.8847656-14.8662109
					c-0.8320313,0.0087891-1.5219727-0.6181641-1.5517578-1.4453125c-0.0292969-0.8266602,0.6147461-1.5214844,1.4418945-1.5527344
					c0.1889648-0.0039063,19.0253906-0.5078125,25.7885742,16.7705078c0.3017578,0.7714844-0.0786133,1.6416016-0.8500977,1.9438477
					C500.281189,638.4616089,500.0961304,638.494812,499.9144897,638.494812z"/>
			</g>
			<g opacity="0.2">
				<path fill="#222B3F" d="M555.6727905,633.326355c-0.5913086,0-1.1513672-0.3520508-1.3891602-0.9331055
					c-5.2680664-12.890625-19.5400391-12.6035156-20.1391602-12.5834961
					c-0.8461914,0.0219727-1.5205078-0.6240234-1.546875-1.4506836c-0.0268555-0.8266602,0.6201172-1.5195313,1.4467773-1.5473633
					c0.1660156-0.0126953,16.9482422-0.3999023,23.0166016,14.4467773c0.3134766,0.7666016-0.0541992,1.6425781-0.8212891,1.9560547
					C556.0541382,633.2902222,555.8617554,633.326355,555.6727905,633.326355z"/>
			</g>
			<g opacity="0.2">
				<path fill="#222B3F" d="M529.0922241,670.3668823c-0.6616211,0-1.2675781-0.4414063-1.4472656-1.1108398
					c-3.6191406-13.4477539-17.8095703-14.940918-18.4116211-14.9980469
					c-0.8242188-0.078125-1.4301758-0.8085938-1.3535156-1.6323242s0.8066406-1.4331055,1.628418-1.3549805
					c0.168457,0.0151367,16.8647461,1.7148438,21.0332031,17.2060547c0.215332,0.7998047-0.2583008,1.6230469-1.0585938,1.8378906
					C529.352478,670.3497925,529.2211304,670.3668823,529.0922241,670.3668823z"/>
			</g>
			<g opacity="0.2">
				<path fill="#222B3F" d="M563.4970093,687.5392456c-0.6616211,0-1.2675781-0.4414063-1.4472656-1.1108398
					c-3.1806641-11.8198242-15.6674805-13.1391602-16.1972656-13.1894531
					c-0.8237305-0.0786133-1.4296875-0.809082-1.3530273-1.6328125c0.0776367-0.8227539,0.8017578-1.4257813,1.628418-1.3544922
					c0.1508789,0.0136719,15.0883789,1.534668,18.8183594,15.3974609c0.215332,0.7998047-0.2583008,1.6230469-1.0585938,1.8378906
					C563.7572632,687.5221558,563.6259155,687.5392456,563.4970093,687.5392456z"/>
			</g>
			<g opacity="0.2">
				<path fill="#222B3F" d="M537.2098999,723.963562c-0.8022461,0-1.4672852-0.6347656-1.4980469-1.4433594
					c-0.4633789-12.2314453-12.3408203-16.3037109-12.8461914-16.4707031
					c-0.7856445-0.2597656-1.2133789-1.1074219-0.9545898-1.8935547c0.2587891-0.7851563,1.1035156-1.2138672,1.8896484-0.9570313
					c0.1435547,0.046875,14.3657227,4.8623047,14.9091797,19.2080078c0.03125,0.828125-0.6142578,1.5244141-1.4423828,1.5556641
					C537.2484741,723.963562,537.2289429,723.963562,537.2098999,723.963562z"/>
			</g>
		</g>
	</g>
	<g id="right_forearm">
		<g>
			<path fill="#FFD4D4" d="M863.6452637,581.2735596c-12.461853-9.0349121-26.4589233,1.3643188-17.90448,31.8989868
				c5.5233154,19.71521,8.1980591,37.9009399,8.1980591,37.9009399l-14.3762817,21.9802246
				c0,0-42.2969971-50.3762207-63.6831665-86.0197754c-21.3861084-35.6436157-31.8415527-44.1980591-42.7722778-40.3960571
				c-10.9306641,3.802002-6.6534424,23.2871094,4.7525024,46.5742798
				c11.4059448,23.2871094,30.7675171,54.1781616,30.7675171,54.1781616l-5.104187,2.3762817
				c0,0-30.8910522-41.8217773-44.6732178-61.3069458c-13.7822266-19.4851685-26.1386108-35.6435547-40.8713379-27.5643311
				c-14.732666,8.0791626-1.4257202,30.5363159,9.9802246,48.5354614s36.831665,57.3259277,36.831665,57.3259277
				l-3.9207764,3.2078857c0,0-32.4356689-43.364624-43.8415527-60.5338135
				c-11.4059448-17.1691284-22.8118896-29.050354-31.366394-23.8226318
				c-8.5544434,5.2277222-9.0296631,14.2574463,5.2277832,41.8217773
				c14.2573853,27.5643921,46.9306641,69.8613892,46.9306641,69.8613892l-3.0891113,4.5148926
				c0,0-24.831665-31.1287231-35.7623901-48.2376709c-10.9306641-17.1088867-32.3168335-12.3563843-23.2871094,12.3564453
				c9.0297241,24.7128906,66.9254761,110.6520996,89.8217773,136.8712769
				c22.8963013,26.2192383,46.098999,34.2178345,46.098999,34.2178345s66.2970581,153.0297241,121.901001,235.0099487
				c0,0,116.9108887,17.8217773,148.9901123,9.267334s34.9306641-91.2475586,34.9306641-91.2475586
				s-111.2078857-86.4950562-187.4851074-204.831665c0,0,13.9434814-90.9194946,13.2305908-115.1571045
				C902.456604,645.8174438,873.1502075,588.1646118,863.6452637,581.2735596z"/>
			<g opacity="0.2">
				<path fill="#222B3F" d="M849.8397827,625.4850464c-0.1855469,0-0.3740234-0.034668-0.5566406-0.1079102
					c-0.7695313-0.3076172-1.1435547-1.1806641-0.8359375-1.949707
					c4.5849609-11.4619141,17.7041016-12.1459961,18.2597656-12.1694336c0.84375-0.0307617,1.5273438,0.6069336,1.5625,1.4350586
					c0.0341797,0.8271484-0.6064453,1.5258789-1.4326172,1.5620117l0,0
					c-0.1171875,0.0053711-11.7480469,0.6469727-15.6044922,10.2866211
					C850.9979858,625.1281128,850.4345093,625.4850464,849.8397827,625.4850464z"/>
			</g>
			<g opacity="0.2">
				<path fill="#222B3F" d="M809.0263062,771.2662964c-0.7148438,0-1.3486328-0.5136719-1.4755859-1.2421875
					c-9.2871094-53.21875,28.5019531-95.3056641,28.8847656-95.7246094
					c0.5595703-0.6113281,1.5068359-0.6542969,2.1191406-0.0957031c0.6113281,0.5585938,0.6542969,1.5073242,0.0957031,2.1191406
					c-0.3720703,0.4082031-37.1728516,41.4462891-28.1445313,93.1855469
					c0.1425781,0.8164063-0.4033203,1.5927734-1.2197266,1.7353516
					C809.1991577,771.2594604,809.1122437,771.2662964,809.0263062,771.2662964z"/>
			</g>
			<g opacity="0.2">
				<path fill="#222B3F" d="M799.4042358,761.6432495c-0.4033203,0-0.8056641-0.1621094-1.1015625-0.4814453
					c-0.2763672-0.2998047-28.2636719-29.9101563-73.2490234-25.5458984
					c-0.8183594,0.0791016-1.5576172-0.5234375-1.6376953-1.3486328c-0.0800781-0.8242188,0.5234375-1.5576172,1.3486328-1.6376953
					c46.5039063-4.5107422,75.4541016,26.1845703,75.7412109,26.4960938c0.5625,0.6074219,0.5244141,1.5556641-0.0830078,2.1181641
					C800.133728,761.510437,799.7684937,761.6432495,799.4042358,761.6432495z"/>
			</g>
			<g opacity="0.2">
				<path fill="#222B3F" d="M703.8788452,717.088562c-0.2226563,0-0.4472656-0.0488281-0.6601563-0.1533203
					c-0.7441406-0.3662109-1.0507813-1.2646484-0.6855469-2.0078125
					c20.3701172-41.4560547,80.0068359-59.8916016,82.5361328-60.65625
					c0.7871094-0.2387695,1.6289063,0.2075195,1.8691406,1.0019531c0.2402344,0.7924805-0.2080078,1.6298828-1.0009766,1.8696289
					c-0.6074219,0.184082-60.921875,18.8330078-80.7109375,59.1069336
					C704.9657593,716.7809448,704.4325562,717.088562,703.8788452,717.088562z"/>
			</g>
			<g opacity="0.2">
				<path fill="#222B3F" d="M738.8095093,589.3063354c-0.2724609,0-0.5478516-0.0737305-0.7949219-0.2285156
					c-0.7021484-0.4399414-0.9150391-1.3652344-0.4755859-2.0673828
					c9.9521484-15.8925781,27.5800781-12.6523438,27.7568359-12.6171875c0.8125,0.1591797,1.3427734,0.9472656,1.1835938,1.7602539
					c-0.1582031,0.8120117-0.9521484,1.3393555-1.7568359,1.1845703l0,0
					c-0.6416016-0.1225586-15.8027344-2.8500977-24.640625,11.2641602
					C739.796814,589.057312,739.3085327,589.3063354,738.8095093,589.3063354z"/>
			</g>
			<g opacity="0.2">
				<path fill="#222B3F" d="M756.8095093,619.8707886c-0.2070313,0-0.4169922-0.0429688-0.6181641-0.1342773
					c-0.7548828-0.3417969-1.0888672-1.2304688-0.7470703-1.9853516
					c7.6582031-16.9033203,26.4355469-15.4160156,26.6289063-15.3994141c0.8251953,0.0742188,1.4335938,0.8037109,1.359375,1.628418
					c-0.0751953,0.8251953-0.8164063,1.4257813-1.6259766,1.3598633l0,0
					c-0.6835938-0.0571289-16.8632813-1.2861328-23.6298828,13.6494141
					C757.9257202,619.5431519,757.3807983,619.8707886,756.8095093,619.8707886z"/>
			</g>
			<g opacity="0.2">
				<path fill="#222B3F" d="M690.7909546,607.007019c-0.2470703,0-0.4970703-0.0610352-0.7275391-0.1894531
					c-0.7246094-0.4023438-0.9853516-1.3154297-0.5830078-2.0395508
					c9.1113281-16.3950195,26.8808594-14.074707,27.0605469-14.0507813c0.8203125,0.1166992,1.390625,0.8759766,1.2744141,1.6958008
					s-0.875,1.3984375-1.6933594,1.2749023l0,0c-0.6455078-0.0893555-15.9296875-2.0195313-24.0185547,12.5371094
					C691.8290405,606.7286987,691.3173218,607.0065308,690.7909546,607.007019z"/>
			</g>
			<g opacity="0.2">
				<path fill="#222B3F" d="M712.4100952,638.494812c-0.1826172,0-0.3671875-0.0332031-0.546875-0.1035156
					c-0.7714844-0.3022461-1.1523438-1.1723633-0.8496094-1.9438477c6.765625-17.2841797,25.59375-16.7807617,25.7880859-16.7705078
					c0.8271484,0.03125,1.4736328,0.7275391,1.4423828,1.5551758c-0.0302734,0.8276367-0.7148438,1.4702148-1.5546875,1.4428711
					c-0.7070313-0.0180664-16.9101563-0.390625-22.8828125,14.8662109
					C713.5751343,638.1329956,713.008728,638.494812,712.4100952,638.494812z"/>
			</g>
			<g opacity="0.2">
				<path fill="#222B3F" d="M656.6503296,633.326355c-0.1884766,0-0.3808594-0.0361328-0.5664063-0.1118164
					c-0.7666016-0.3134766-1.1347656-1.1894531-0.8212891-1.9560547
					c6.0673828-14.8452148,22.8427734-14.453125,23.0166016-14.4467773c0.828125,0.0283203,1.4765625,0.722168,1.4482422,1.550293
					c-0.0283203,0.8266602-0.7246094,1.4697266-1.5478516,1.4477539
					c-0.6162109-0.0146484-14.8740234-0.3022461-20.1396484,12.5834961
					C657.8026733,632.9743042,657.2421265,633.326355,656.6503296,633.326355z"/>
			</g>
			<g opacity="0.2">
				<path fill="#222B3F" d="M683.2313843,670.3668823c-0.1289063,0-0.2597656-0.0170898-0.390625-0.0522461
					c-0.7998047-0.2148438-1.2744141-1.0380859-1.0585938-1.8378906
					c4.1679688-15.4912109,20.8652344-17.190918,21.0332031-17.2060547
					c0.8261719-0.0830078,1.5546875,0.5317383,1.6308594,1.3574219c0.0751953,0.8242188-0.53125,1.5532227-1.3554688,1.6298828l0,0
					c-0.6025391,0.0571289-14.7929688,1.550293-18.4121094,14.9980469
					C684.4989624,669.9254761,683.8925171,670.3668823,683.2313843,670.3668823z"/>
			</g>
			<g opacity="0.2">
				<path fill="#222B3F" d="M648.8270874,687.5392456c-0.1289063,0-0.2597656-0.0170898-0.390625-0.0522461
					c-0.7998047-0.2148438-1.2744141-1.0380859-1.0585938-1.8378906
					c3.7304688-13.862793,18.6669922-15.3837891,18.8173828-15.3974609
					c0.8232422-0.0825195,1.5556641,0.5317383,1.6308594,1.3574219c0.0751953,0.824707-0.5322266,1.5546875-1.3574219,1.6298828
					c-0.5654297,0.0541992-13.0185547,1.3876953-16.1943359,13.1894531
					C650.0946655,687.0978394,649.4882202,687.5392456,648.8270874,687.5392456z"/>
			</g>
			<g opacity="0.2">
				<path fill="#222B3F" d="M675.1141968,723.963562c-0.0195313,0-0.0380859,0-0.0576172-0.0009766
					c-0.828125-0.03125-1.4736328-0.7285156-1.4423828-1.5556641c0.5439453-14.3457031,14.765625-19.1611328,14.9091797-19.2080078
					c0.7861328-0.2607422,1.6337891,0.171875,1.8916016,0.9599609c0.2568359,0.7861328-0.1708984,1.6318359-0.9570313,1.890625l0,0
					c-0.5048828,0.1669922-12.3818359,4.2392578-12.8457031,16.4707031
					C676.5819702,723.3287964,675.9159546,723.963562,675.1141968,723.963562z"/>
			</g>
		</g>
	</g>
</g>
<g id="Layer_x5F_Faucet">
	<g>
		<g>
			<path fill="#374D6D" d="M668.2367554,258.4367981l-11.8800049,189.9699707
				c-0.6799927,10.8599854-8.460022,19.9199829-19.0700073,22.3300171
				c-9.5200195,2.1500244-20.7000122,3.2000122-31.1199951,3.1900024
				c-10.4299927,0.0100098-21.6099854-1.039978-31.1300049-3.1900024
				c-10.6099854-2.4100342-18.3900146-11.4700317-19.0700073-22.3300171L544.086731,258.4367981
				c-0.960022-16.1100616,10.7399902-30.2000275,26.75-32.2300568c0.1735229-0.0219421,0.3471069-0.0437622,0.520752-0.0654602
				c23.1100464-2.8888702,46.4993896-2.8888397,69.6094971,0.0001068c0.1732788,0.0216675,0.3465576,0.043457,0.5197754,0.0653534
				C657.5067139,228.2367706,669.1967163,242.3267365,668.2367554,258.4367981z"/>
			<g opacity="0.4">
				<path fill="#FFFFFF" d="M562.4100342,287.0768433l-1.8554077-29.6697693l0.0002441,0.0042419
					c-0.0166626-0.2790222-0.0249023-0.5567322-0.0249023-0.8329163
					c-0.005188-7.0058136,5.2985229-13.1104431,12.3827515-14.0027313c0.8217773-0.1042023,1.4035645-0.8549042,1.2993774-1.6767273
					c-0.104187-0.8218384-0.8549194-1.4036102-1.6766968-1.299408c-8.5992432,1.0966339-15.0001831,8.449585-15.0053711,16.9788666
					c-0.000061,0.3356323,0.0099487,0.6729736,0.0301514,1.0116577l0.0002441,0.0042419l1.8554077,29.6697998
					c0.0516968,0.8268127,0.763855,1.4552002,1.5906982,1.4035034s1.4552612-0.763916,1.4035645-1.5907288L562.4100342,287.0768433z
					"/>
				<path fill="#FFFFFF" d="M564.0378418,313.1063232l-0.9603271-15.3558655
					c-0.0517578-0.8268127-0.763916-1.4551697-1.5906982-1.4034424c-0.8268433,0.0516968-1.4552002,0.7638855-1.4035034,1.5906982
					l0.9603271,15.355835c0.0517578,0.8268127,0.763916,1.4551697,1.5906982,1.4034729
					C563.4611816,314.6452942,564.0895386,313.933136,564.0378418,313.1063232"/>
				<path fill="#FFFFFF" d="M584.8217773,241.3398438c7.1065063-0.5751038,14.2473755-0.8650513,21.3407593-0.8650513
					c0.8283691,0,1.499939-0.6715698,1.499939-1.4999847c0-0.8284302-0.6715698-1.4999847-1.499939-1.4999847
					c-7.1751099-0.0000153-14.3960571,0.2931976-21.5827637,0.8748016c-0.8257446,0.0668335-1.440979,0.7904053-1.3740845,1.6161499
					c0.0668335,0.8257294,0.7904053,1.440918,1.6161499,1.3740845L584.8217773,241.3398438z"/>
			</g>
		</g>
		<g>
			<g>
				<path fill="#374D6D" d="M751.0477295,280.8093567h25.4257202l3.6771851-37.2971344
					c0.7033081-7.1332092-4.9005737-13.3167419-12.0683594-13.3167419h-8.6433716
					c-7.1677856,0-12.7716064,6.1835327-12.0683594,13.3167419L751.0477295,280.8093567z"/>
				<path fill="#374D6D" d="M727.1853027,330.0975037v-25.4257507l-37.2971191-3.6771851
					c-7.1331787-0.7032776-13.3167114,4.9006042-13.3167114,12.0683899v8.6433411
					c0,7.1677856,6.1835327,12.771637,13.3167114,12.0683594L727.1853027,330.0975037z"/>
				<path fill="#374D6D" d="M776.4734497,353.9598999h-25.4257202l-3.6771851,37.2971191
					c-0.7032471,7.1332092,4.9005737,13.3167419,12.0683594,13.3167419h8.6433716
					c7.1677856,0,12.7716675-6.1835327,12.0683594-13.3167419L776.4734497,353.9598999z"/>
				<path fill="#374D6D" d="M800.3358765,304.6717529v25.4257507l37.2971191,3.6771545
					c7.1331787,0.7032776,13.3167114-4.9005737,13.3167114-12.0683594v-8.6433411
					c0-7.1677856-6.1835327-12.7716675-13.3167114-12.0683899L800.3358765,304.6717529z"/>
				<g>
					<circle fill="#FF8D88" cx="763.7606201" cy="317.384613" r="41.3465347"/>
					<g opacity="0.3">
						<g>
							<path fill="#FFFFFF" d="M751.2352905,298.6882019c-0.5009766,0-0.9912109-0.2509766-1.2753906-0.7080078
								c-0.4365234-0.7036133-0.2207031-1.6289063,0.4824219-2.065918c3.9912109-2.480957,8.5966797-3.7919922,13.3183594-3.7919922
								c0.828125,0,1.5,0.6713867,1.5,1.5s-0.671875,1.5-1.5,1.5c-4.1611328,0-8.21875,1.1547852-11.734375,3.3398438
								C751.7792358,298.615448,751.5057983,298.6882019,751.2352905,298.6882019z"/>
						</g>
						<g>
							<path fill="#FFFFFF" d="M745.274353,333.815155c-0.4375,0-0.8710938-0.1904297-1.1669922-0.5571289
								c-3.6171875-4.4731445-5.609375-10.1108398-5.609375-15.8735352c0-5.7631836,1.9921875-11.4013672,5.6103516-15.875
								c0.5195313-0.6435547,1.4648438-0.7451172,2.109375-0.2231445c0.6435547,0.5209961,0.7441406,1.465332,0.2226563,2.1098633
								c-3.1875,3.9414063-4.9423828,8.9091797-4.9423828,13.9882813c0,5.0786133,1.7548828,10.0458984,4.9414063,13.987793
								c0.5214844,0.644043,0.4208984,1.5883789-0.2226563,2.109375
								C745.9384155,333.7062683,745.6054077,333.815155,745.274353,333.815155z"/>
						</g>
					</g>
				</g>
			</g>
			<g>
				<path fill="#374D6D" d="M461.276123,280.8093567h-25.4257507l-3.6771545-37.2971344
					c-0.7032776-7.1332092,4.9005737-13.3167419,12.0683594-13.3167419h8.6433411
					c7.1677856,0,12.7716675,6.1835327,12.0683899,13.3167419L461.276123,280.8093567z"/>
				<path fill="#374D6D" d="M485.1385193,330.0975037v-25.4257507l37.2971497-3.6771851
					c7.1331787-0.7032776,13.3167114,4.9006042,13.3167114,12.0683899v8.6433411
					c0,7.1677856-6.1835327,12.771637-13.3167114,12.0683594L485.1385193,330.0975037z"/>
				<path fill="#374D6D" d="M435.8503723,353.9598999h25.4257507l3.6771851,37.2971191
					c0.7032776,7.1332092-4.9006042,13.3167419-12.0683899,13.3167419h-8.6433411
					c-7.1677856,0-12.771637-6.1835327-12.0683594-13.3167419L435.8503723,353.9598999z"/>
				<path fill="#374D6D" d="M411.9879761,304.6717529v25.4257507l-37.2971191,3.6771545
					c-7.1332092,0.7032776-13.3167419-4.9005737-13.3167419-12.0683594v-8.6433411
					c0-7.1677856,6.1835327-12.7716675,13.3167419-12.0683899L411.9879761,304.6717529z"/>
				<circle fill="#FF8D88" cx="448.5632629" cy="317.384613" r="41.3465347"/>
				<g opacity="0.3">
					<g>
						<path fill="#FFFFFF" d="M436.0385132,298.6882019c-0.5014648,0-0.9912109-0.2509766-1.2753906-0.7080078
							c-0.4375-0.7036133-0.2216797-1.6289063,0.4819336-2.065918c3.9916992-2.480957,8.597168-3.7919922,13.3183594-3.7919922
							c0.8286133,0,1.5,0.6713867,1.5,1.5s-0.6713867,1.5-1.5,1.5c-4.1611328,0-8.21875,1.1547852-11.734375,3.3398438
							C436.5824585,298.615448,436.3085327,298.6882019,436.0385132,298.6882019z"/>
					</g>
					<g>
						<path fill="#FFFFFF" d="M430.0770874,333.815155c-0.4375,0-0.8710938-0.1904297-1.1674805-0.5566406
							c-3.6166992-4.4731445-5.6088867-10.1108398-5.6088867-15.8740234s1.9921875-11.4013672,5.6098633-15.875
							c0.5205078-0.6435547,1.4643555-0.7451172,2.1098633-0.2231445c0.644043,0.5209961,0.7441406,1.465332,0.2231445,2.1098633
							c-3.1875,3.9414063-4.9428711,8.9091797-4.9428711,13.9882813s1.7548828,10.0463867,4.9418945,13.9873047
							c0.5209961,0.6445313,0.4208984,1.5888672-0.2231445,2.1098633
							C430.7416382,333.70578,430.4081421,333.815155,430.0770874,333.815155z"/>
					</g>
				</g>
			</g>
		</g>
	</g>
</g>
<g id="Layer_x5F_Foam">
	<g>
		<path fill="#EEEEEE" d="M354.4222412,472.1552429c-3.0317383-5.1218262-8.5968018-8.5668945-14.9799805-8.5668945
			c-9.6173096,0-17.4136353,7.7963867-17.4136353,17.4136353c0,2.8015137,0.6776123,5.4393311,1.8530273,7.7841187
			c-6.2695313,2.2421875-10.763916,8.2174072-10.763916,15.2576904c0,8.9568176,7.2609253,16.217804,16.2178345,16.217804
			c5.173584,0,9.7706299-2.4310303,12.7401123-6.2036133c3.447937,2.1242676,7.506958,3.3521118,11.8539429,3.3521118
			c12.5001831,0,22.633667-10.1333923,22.633667-22.6336365
			C376.5632935,482.4414978,366.6940918,472.4181824,354.4222412,472.1552429z"/>
		<path fill="#EEEEEE" d="M857.9016113,472.1552429c3.0317383-5.1218262,8.5968018-8.5668945,14.9799805-8.5668945
			c9.6173096,0,17.4136353,7.7963867,17.4136353,17.4136353c0,2.8015137-0.6776123,5.4393311-1.8530273,7.7841187
			c6.2695313,2.2421875,10.763916,8.2174072,10.763916,15.2576904c0,8.9568176-7.2609253,16.217804-16.2178345,16.217804
			c-5.173584,0-9.7706299-2.4310303-12.7401123-6.2036133c-3.447937,2.1242676-7.506958,3.3521118-11.8539429,3.3521118
			c-12.5001831,0-22.633667-10.1333923-22.633667-22.6336365
			C835.7605591,482.4414978,845.6297607,472.4181824,857.9016113,472.1552429z"/>
		<path fill="#EEEEEE" d="M782.3652954,467.8655701c-5.1864014,0-9.9547729,1.7772827-13.7406616,4.7493286
			c0.0031738-0.1185303,0.0178223-0.2340088,0.0178223-0.3532715c0-7.2179565-5.8513184-13.0692749-13.0692749-13.0692749
			c-7.2180176,0-13.0693359,5.8513184-13.0693359,13.0692749c0,4.4030151,2.184082,8.2887573,5.520752,10.6567383
			c-2.5179443,2.1357422-4.1203003,5.3181152-4.1203003,8.87854c0,6.430542,5.2130127,11.6435547,11.6436157,11.6435547
			c2.7613525,0,5.2943726-0.9658813,7.2903442-2.5720215c3.789856,6.8849487,11.1125488,11.5516052,19.5270386,11.5516052
			c12.3033447,0,22.2772217-9.9738464,22.2772217-22.2772522
			C804.6425171,477.839447,794.6686401,467.8655701,782.3652954,467.8655701z"/>
		<path fill="#EEEEEE" d="M719.1898193,762.9975586c3.6306152-3.8504028,5.8712158-9.026123,5.8712158-14.7359619
			c0-11.8768311-9.6281128-21.5049438-21.5049438-21.5049438c-11.8768921,0-21.5049438,9.6281128-21.5049438,21.5049438
			c0,6.6524048,3.0230713,12.5966797,7.7675781,16.5413208c-8.8258057,5.4803467-14.7058105,15.2561035-14.7058105,26.4091797
			c0,17.1591187,13.9102173,31.0693359,31.0692749,31.0693359c17.1591187,0,31.0693359-13.9102173,31.0693359-31.0693359
			C737.2515259,778.6989136,729.8500977,767.9206543,719.1898193,762.9975586z"/>
		<g>
			<path fill="#EEEEEE" d="M608.0390015,532.5644531c3.2522583-4.711731,5.1613159-10.421814,5.1613159-16.5800781
				c0-16.1419983-13.0856934-29.2276917-29.2277222-29.2276917c-7.369812,0-14.097229,2.7336426-19.2384033,7.2345581
				c-3.9030762-15.0287476-17.5596924-26.1256714-33.8096313-26.1256714c-19.291687,0-34.9306641,15.6390381-34.9306641,34.9307251
				c0,5.0654297,1.0869751,9.874176,3.0263672,14.2189636c-5.7072144,1.2159424-10.1355591,5.8476563-11.0737915,11.65271
				c-14.3113403,2.750061-25.1257935,15.331543-25.1257935,30.4451294c0,13.0736694,8.0945435,24.2495117,19.5418091,28.8104858
				c-0.2752075,1.1760864-0.435791,2.3962402-0.435791,3.65625c0,8.8412476,7.1672363,16.0084839,16.0084839,16.0084839
				c2.4117432,0,4.6902466-0.548584,6.741333-1.5037231c4.9096069,11.1747437,16.0684204,18.9824829,29.0567627,18.9824829
				c7.8370361,0,15.0053101-2.847168,20.5411987-7.5558472c1.8352051,0.5543213,3.7786865,0.8592529,5.7947388,0.8592529
				c10.15802,0,18.5285645-7.5718384,19.8258667-17.3754272c1.2059937,0.1133423,2.4263306,0.1774292,3.6619873,0.1774292
				c21.3586426,0,38.6732788-17.3145752,38.6732788-38.6732788
				C622.2303467,550.4311523,616.7005615,539.6566772,608.0390015,532.5644531z"/>
			<g>
				<g>
					<path fill="#FFFFFF" d="M578.8120117,589.3059692c-0.8286133,0-1.5-0.6713867-1.5-1.5s0.6713867-1.5,1.5-1.5
						c6.0629883,0,11.762207-2.0004883,16.480957-5.7851563c0.6469727-0.5185547,1.5917969-0.4140625,2.1083984,0.2314453
						c0.5185547,0.6459961,0.4150391,1.590332-0.2314453,2.1083984
						C591.9882813,587.0169067,585.4682617,589.3059692,578.8120117,589.3059692z"/>
				</g>
				<g>
					<path fill="#FFFFFF" d="M602.328125,546.4939575c-0.4951172,0-0.9804688-0.2451172-1.265625-0.6938477
						c-4.8745117-7.6508789-13.1918945-12.2182617-22.2504883-12.2182617c-0.8286133,0-1.5-0.6713867-1.5-1.5s0.6713867-1.5,1.5-1.5
						c10.0888672,0,19.3525391,5.0864258,24.7797852,13.605957c0.4453125,0.6987305,0.2402344,1.6259766-0.4589844,2.0712891
						C602.8837891,546.4182739,602.6044922,546.4939575,602.328125,546.4939575z"/>
				</g>
				<g>
					<path fill="#FFFFFF" d="M558.9150391,541.9402466c-0.3789063,0-0.7583008-0.1425781-1.0498047-0.4287109
						c-0.5917969-0.5800781-0.6010742-1.5297852-0.0214844-2.1210938c3.4960938-3.5668945,7.8618164-6.1967773,12.6254883-7.605957
						c0.7944336-0.2353516,1.6289063,0.21875,1.8637695,1.0131836s-0.21875,1.6289063-1.0131836,1.8637695
						c-4.2749023,1.2646484-8.1938477,3.6259766-11.3334961,6.8286133
						C559.6923828,541.789856,559.3037109,541.9402466,558.9150391,541.9402466z"/>
				</g>
			</g>
			<g>
				<g>
					<path fill="#FFFFFF" d="M490.03125,565.0090942c-0.0493164,0-0.0991211-0.0024414-0.1489258-0.0073242
						c-0.824707-0.0810547-1.4272461-0.8154297-1.3457031-1.6396484c0.3564453-3.6206055,1.4448242-7.0595703,3.2348633-10.2226563
						c0.4077148-0.7211914,1.3222656-0.9750977,2.0444336-0.5668945c0.7211914,0.4082031,0.9746094,1.3232422,0.5668945,2.0444336
						c-1.5830078,2.7963867-2.5454102,5.8378906-2.8608398,9.0390625
						C491.4458008,564.430481,490.793457,565.0090942,490.03125,565.0090942z"/>
				</g>
				<g>
					<path fill="#FFFFFF" d="M505.4228516,544.6228638c-0.5976563,0-1.1621094-0.359375-1.3955078-0.9487305
						c-0.3046875-0.7700195,0.0727539-1.6416016,0.8432617-1.9467773
						c5.8349609-2.3085938,12.4716797-2.4116211,18.3759766-0.2910156c0.7792969,0.2797852,1.1845703,1.1391602,0.9042969,1.9189453
						c-0.2797852,0.7797852-1.1367188,1.1845703-1.9189453,0.9042969
						c-5.2192383-1.8754883-11.0996094-1.7841797-16.2578125,0.2573242
						C505.7929688,544.5886841,505.6064453,544.6228638,505.4228516,544.6228638z"/>
				</g>
			</g>
			<g>
				<g>
					<path fill="#FFFFFF" d="M545.8261719,493.9465942c-0.3056641,0-0.6142578-0.0932617-0.8808594-0.2871094
						c-2.6157227-1.9023438-5.7138672-2.9077148-8.9599609-2.9077148c-2.015625,0-3.9726563,0.3862305-5.8164063,1.1474609
						c-0.765625,0.3193359-1.6425781-0.0473633-1.9589844-0.8134766s0.0478516-1.6430664,0.8134766-1.9589844
						c2.2094727-0.9125977,4.5517578-1.375,6.9619141-1.375c3.8842773,0,7.5927734,1.2041016,10.7246094,3.4819336
						c0.6699219,0.4873047,0.8178711,1.425293,0.3305664,2.0952148
						C546.7470703,493.7327271,546.2900391,493.9465942,545.8261719,493.9465942z"/>
				</g>
				<g>
					<path fill="#FFFFFF" d="M519.2954102,506.0632935c-0.0424805,0-0.0854492-0.0019531-0.1289063-0.0053711
						c-0.8251953-0.0703125-1.4375-0.7963867-1.3671875-1.6220703c0.2875977-3.3754883,1.5092773-6.597168,3.5341797-9.3178711
						c0.4936523-0.6645508,1.434082-0.8022461,2.0986328-0.3076172c0.6645508,0.4941406,0.8022461,1.434082,0.3076172,2.0986328
						c-1.6904297,2.2719727-2.7114258,4.9628906-2.9511719,7.7817383
						C520.722168,505.4724731,520.0664063,506.0632935,519.2954102,506.0632935z"/>
				</g>
			</g>
		</g>
		<g>
			<path fill="#EEEEEE" d="M811.8382568,568.7368774c-1.8466187,0-3.6248169,0.2892456-5.2963257,0.8184814
				c0.0080566-0.272583,0.0206909-0.5440063,0.0206909-0.8184814c0-15.0921631-12.2346191-27.3267822-27.3267822-27.3267822
				c-13.4646606,0-24.6466675,9.7409668-26.9035034,22.5585938c-2.3484497-0.7582397-4.8514404-1.1724243-7.4522095-1.1724243
				c-13.3861084,0-24.2376709,10.8515625-24.2376709,24.2376099s10.8515625,24.2376099,24.2376709,24.2376099
				c2.6748047,0,5.2454834-0.4396362,7.6515503-1.2398682c-0.4070435,1.9648438-0.6225586,3.9997559-0.6225586,6.0852661
				c0,16.484436,13.3632813,29.8477173,29.8476563,29.8477173c16.484436,0,29.8477173-13.3632813,29.8477173-29.8477173
				c0-4.5009766-1.0023193-8.7659912-2.786377-12.5931396c0.9830322,0.1710205,1.9882202,0.2778931,3.0201416,0.2778931
				c9.6828613,0,17.5323486-7.8495483,17.5323486-17.5324097S821.5211182,568.7368774,811.8382568,568.7368774z"/>
			<g>
				<g>
					<g>
						<path fill="#FFFFFF" d="M809.1621094,595.9793091c-0.4951172,0-0.9804688-0.2451172-1.265625-0.6938477
							c-2.6923828-4.2246094-7.2861328-6.7470703-12.2880859-6.7470703c-0.828125,0-1.5-0.6713867-1.5-1.5s0.671875-1.5,1.5-1.5
							c6.0322266,0,11.5722656,3.0410156,14.8173828,8.1347656c0.4453125,0.6987305,0.2402344,1.6259766-0.4589844,2.0712891
							C809.7177734,595.9036255,809.4384766,595.9793091,809.1621094,595.9793091z"/>
					</g>
					<g>
						<path fill="#FFFFFF" d="M784.1416016,593.3552856c-0.3789063,0-0.7578125-0.1425781-1.0498047-0.4287109
							c-0.5917969-0.5800781-0.6015625-1.5297852-0.0214844-2.1210938c2.0908203-2.1328125,4.7011719-3.7055664,7.5507813-4.5478516
							c0.7880859-0.2319336,1.6279297,0.2182617,1.8632813,1.0131836c0.234375,0.7944336-0.21875,1.6289063-1.0136719,1.8637695
							c-2.359375,0.6977539-4.5234375,2.0014648-6.2578125,3.7705078
							C784.9189453,593.204895,784.5302734,593.3552856,784.1416016,593.3552856z"/>
					</g>
				</g>
				<g>
					<g>
						<path fill="#FFFFFF" d="M753.3134766,594.9011841c-0.5966797,0-1.1621094-0.359375-1.3945313-0.9487305
							c-0.3046875-0.7700195,0.0722656-1.6416016,0.8427734-1.9467773
							c3.5029297-1.3857422,7.4912109-1.4492188,11.0390625-0.1748047c0.7792969,0.2797852,1.1845703,1.1386719,0.9052734,1.918457
							c-0.2802734,0.7792969-1.1425781,1.184082-1.9189453,0.9047852c-2.8623047-1.0268555-6.09375-0.9775391-8.921875,0.1416016
							C753.6845703,594.8670044,753.4970703,594.9011841,753.3134766,594.9011841z"/>
					</g>
				</g>
				<g>
					<g>
						<path fill="#FFFFFF" d="M776.5986328,565.696106c-0.3066406,0-0.6152344-0.0932617-0.8808594-0.2866211
							c-2.2666016-1.6484375-5.3251953-2.0043945-7.9003906-0.940918c-0.7685547,0.3173828-1.6425781-0.0483398-1.9589844-0.8144531
							c-0.3154297-0.7661133,0.0488281-1.6430664,0.8144531-1.9589844c1.3515625-0.5576172,2.7832031-0.840332,4.2548828-0.840332
							c2.3730469,0,4.6396484,0.7358398,6.5537109,2.1279297c0.6699219,0.4873047,0.8183594,1.425293,0.3310547,2.0957031
							C777.5195313,565.4817505,777.0615234,565.696106,776.5986328,565.696106z"/>
					</g>
					<g>
						<path fill="#FFFFFF" d="M761.3095703,572.6790161c-0.0429688,0-0.0859375-0.0019531-0.1298828-0.0053711
							c-0.8251953-0.0708008-1.4375-0.796875-1.3662109-1.6225586c0.1757813-2.0629883,0.9228516-4.0322266,2.1601563-5.6948242
							c0.4941406-0.6640625,1.4326172-0.8017578,2.0986328-0.3081055c0.6640625,0.4946289,0.8027344,1.434082,0.3076172,2.0991211
							c-0.9033203,1.2143555-1.4492188,2.652832-1.578125,4.159668
							C762.7353516,572.0886841,762.0800781,572.6790161,761.3095703,572.6790161z"/>
					</g>
				</g>
			</g>
		</g>
	</g>
</g>
</svg>
