<?xml version="1.0" encoding="iso-8859-1"?>
<!-- Generator: Adobe Illustrator 24.0.0, SVG Export Plug-In . SVG Version: 6.00 Build 0)  -->
<svg version="1.1" xmlns="http://www.w3.org/2000/svg" xmlns:xlink="http://www.w3.org/1999/xlink" x="0px" y="0px"
	 viewBox="0 0 1200 1200" enable-background="new 0 0 1200 1200" xml:space="preserve">
<g id="Background_x5F_Simple_1_">
	<g>
		<g>
			<path fill="#EEEEEE" d="M693.7590332,224.2715759L693.7590332,224.2715759c-2.298584,0-4.1691284-1.8612366-4.1691284-4.1691742
				V206.841095c0-2.2986298,1.8612061-4.1691895,4.1691284-4.1691895l0,0c2.298584,0,4.1691895,1.8612518,4.1691895,4.1691895
				v13.2613068C697.9282837,222.4010315,696.0670166,224.2715759,693.7590332,224.2715759z"/>
			<path fill="#EEEEEE" d="M703.539856,234.0430756L703.539856,234.0430756c0-2.2986298,1.8612671-4.1691742,4.1691284-4.1691742
				h13.2613525c2.298584,0,4.1691284,1.8612366,4.1691284,4.1691742l0,0c0,2.2986298-1.8612061,4.1691742-4.1691284,4.1691742
				h-13.2613525C705.401123,238.2122498,703.539856,236.3417053,703.539856,234.0430756z"/>
			<path fill="#EEEEEE" d="M693.7590332,243.8238831L693.7590332,243.8238831c2.298584,0,4.1691895,1.8612366,4.1691895,4.1691742
				v13.2613068c0,2.298645-1.8612671,4.1691895-4.1691895,4.1691895l0,0c-2.298584,0-4.1691284-1.8612366-4.1691284-4.1691895
				v-13.2613068C689.5991821,245.6851196,691.4604492,243.8238831,693.7590332,243.8238831z"/>
			<path fill="#EEEEEE" d="M683.9875488,234.0430756L683.9875488,234.0430756c0,2.2986298-1.8612671,4.1691742-4.1691284,4.1691742
				h-13.2613525c-2.298584,0-4.1691284-1.8612366-4.1691284-4.1691742l0,0c0-2.2986298,1.8612061-4.1691742,4.1691284-4.1691742
				h13.2613525C682.1262817,229.8832092,683.9875488,231.7444458,683.9875488,234.0430756z"/>
		</g>
		<g>
			<path fill="#EEEEEE" d="M105.5289154,658.4697266L105.5289154,658.4697266c-2.2986069,0-4.1691589-1.8612671-4.1691589-4.1691895
				v-13.2612915c0-2.298584,1.8612366-4.1691284,4.1691589-4.1691284l0,0c2.2985992,0,4.1691513,1.8612061,4.1691513,4.1691284
				v13.2612915C109.6887512,656.5991821,107.8275146,658.4697266,105.5289154,658.4697266z"/>
			<path fill="#EEEEEE" d="M115.3004074,668.2412109L115.3004074,668.2412109c0-2.298584,1.8612366-4.1691284,4.1691589-4.1691284
				h13.2613144c2.2985992,0,4.1691589,1.8612061,4.1691589,4.1691284l0,0c0,2.298584-1.8612366,4.1691284-4.1691589,4.1691284
				h-13.2613144C117.1708527,672.4103394,115.3004074,670.5397949,115.3004074,668.2412109z"/>
			<path fill="#EEEEEE" d="M105.5289154,678.0126953L105.5289154,678.0126953c2.2985992,0,4.1691513,1.8612671,4.1691513,4.1691895
				v13.2612915c0,2.298584-1.8612366,4.1691895-4.1691513,4.1691895l0,0c-2.2986069,0-4.1691589-1.8612671-4.1691589-4.1691895
				v-13.2612915C101.359642,679.8832397,103.2301941,678.0126953,105.5289154,678.0126953z"/>
			<path fill="#EEEEEE" d="M95.7481003,668.2412109L95.7481003,668.2412109c0,2.298584-1.8612366,4.1691284-4.1691513,4.1691284
				H78.317627c-2.2985992,0-4.1691513-1.8612061-4.1691513-4.1691284l0,0c0-2.298584,1.8612366-4.1691284,4.1691513-4.1691284
				h13.261322C93.8868637,664.0720215,95.7481003,665.9425659,95.7481003,668.2412109z"/>
		</g>
		<g>
			<path fill="#EEEEEE" d="M422.0788574,157.3507843L422.0788574,157.3507843c-2.2986145,0-4.1691589-1.8612366-4.1691589-4.1691742
				v-13.2520142c0-2.2986298,1.8612366-4.1691742,4.1691589-4.1691742l0,0c2.298645,0,4.1691895,1.8612366,4.1691895,4.1691742
				v13.261322C426.2480469,155.4895477,424.3775024,157.3507843,422.0788574,157.3507843z"/>
			<path fill="#EEEEEE" d="M431.8596802,167.1315918L431.8596802,167.1315918c0-2.2986298,1.8612366-4.1691895,4.1691895-4.1691895
				h13.261322c2.2986145,0,4.1691895,1.8612518,4.1691895,4.1691895l0,0c0,2.2986298-1.8612671,4.1691742-4.1691895,4.1691742
				h-13.2706299C433.7209167,171.2914581,431.8596802,169.4302216,431.8596802,167.1315918z"/>
			<path fill="#EEEEEE" d="M422.0788574,176.9030762L422.0788574,176.9030762c2.298645,0,4.1691895,1.8612518,4.1691895,4.1691742
				v13.261322c0,2.2986298-1.8612366,4.1691742-4.1691895,4.1691742l0,0c-2.2986145,0-4.1691589-1.8612366-4.1691589-4.1691742
				v-13.261322C417.9190063,178.7643127,419.7802429,176.9030762,422.0788574,176.9030762z"/>
			<path fill="#EEEEEE" d="M412.307373,167.1315918L412.307373,167.1315918c0,2.2986298-1.8612366,4.1691742-4.1691895,4.1691742
				h-13.261322c-2.2986145,0-4.1691589-1.8612366-4.1691589-4.1691742l0,0c0-2.2986298,1.8612366-4.1691895,4.1691589-4.1691895
				h13.261322C410.4368286,162.9624023,412.307373,164.8236542,412.307373,167.1315918z"/>
		</g>
		<path fill="#EEEEEE" d="M174.6645355,224.2004395c-9.2131195,0-16.6487579,7.4542542-16.6487579,16.6487732
			c0,9.2131195,7.4356384,16.6487732,16.6487579,16.6487732c9.1852112,0,16.6487732-7.4356537,16.6487732-16.6487732
			C191.3040009,231.6546936,183.8497467,224.2004395,174.6645355,224.2004395z M174.6552277,249.8668976
			c-4.9974213,0-9.0177002-4.0202789-9.0177002-9.0177002c0-4.9788208,4.0202789-8.9990845,9.0177002-8.9990845
			c4.9788208,0,8.9990845,4.0202789,8.9990845,8.9990845C183.6543121,245.837326,179.6340485,249.8668976,174.6552277,249.8668976z"
			/>
		<path fill="#EEEEEE" d="M1011.7376709,323.6691284c-9.2131958,0-16.6488037,7.4542542-16.6488037,16.6487732
			c0,9.2131042,7.4356079,16.6487732,16.6488037,16.6487732c9.1851807,0,16.6488037-7.4356689,16.6488037-16.6487732
			C1028.3864746,331.1233826,1020.9228516,323.6691284,1011.7376709,323.6691284z M1011.7376709,349.3262939
			c-4.9974365,0-9.0177002-4.0202942-9.0177002-9.0177002c0-4.9788208,4.0202637-8.9990845,9.0177002-8.9990845
			c4.9787598,0,8.9990234,4.0202942,8.9990234,8.9990845
			C1020.7367554,345.3059998,1016.7071533,349.3262939,1011.7376709,349.3262939z"/>
		<path fill="#EEEEEE" d="M673.1877441,485.0201721c-9.2131348,0-16.6488037,7.4542542-16.6488037,16.6487732
			c0,9.2131348,7.4356689,16.6488037,16.6488037,16.6488037c9.1851807,0,16.6487427-7.4356689,16.6487427-16.6488037
			C689.8364868,492.4744263,682.3729248,485.0201721,673.1877441,485.0201721z M673.1877441,510.6866455
			c-4.9974365,0-9.0177002-4.0202942-9.0177002-9.0177002c0-4.9787903,4.0202637-8.9990845,9.0177002-8.9990845
			c4.9788208,0,8.9990845,4.0202942,8.9990845,8.9990845C682.1774902,506.6663513,678.1572266,510.6866455,673.1877441,510.6866455z
			"/>
		<path fill="#EEEEEE" d="M431.8596802,821.0212402c-9.2131348,0-16.6487732,7.4542847-16.6487732,16.6488037
			c0,9.2131348,7.4356384,16.6488037,16.6487732,16.6488037c9.1852112,0,16.6487732-7.4356689,16.6487732-16.6488037
			C448.5084534,828.4755249,441.0448914,821.0212402,431.8596802,821.0212402z M431.8596802,846.6877441
			c-4.997406,0-9.0177002-4.0202637-9.0177002-9.0177002c0-4.9787598,4.0202942-8.9990845,9.0177002-8.9990845
			c4.9787903,0,8.9990845,4.0203247,8.9990845,8.9990845C440.8587952,842.6674805,436.8292236,846.6877441,431.8596802,846.6877441z
			"/>
	</g>
</g>
<g id="Layer_x5F_Plants">
	<g>
		<g>
			<path fill="#FF8D88" d="M299.3782349,926.1293335c0,0-106.1463776-4.4297485-135.7772369-30.524292
				c-26.2993011-23.163147,5.1742401-35.1680908,31.6317139-23.656311
				c-16.8349152-10.3857422-49.8904572-34.5353394-51.537674-64.7990112
				C141.4801636,766.4630127,228.1673279,787.2531128,299.3782349,926.1293335z"/>
			<path opacity="0.3" fill="#FFFFFF" d="M295.5952759,922.8544312l-4.2754822-4.8266602
				c-33.6177063-37.9663696-33.6177063-37.9663696-91.3401489-81.1029053
				c-0.4121399-0.3098755-0.9946899-0.2226563-1.3027802,0.1881104c-0.3076324,0.4116821-0.2230988,0.9951782,0.1885834,1.3023071
				c45.8873291,34.2924805,55.1992645,41.2515259,74.0489502,61.8171387
				c-30.3788757-5.5911865-81.6436768-14.7337646-82.1741486-14.828125
				c-0.5089264-0.0927124-0.9892273,0.2462769-1.0792084,0.7525024c-0.0904236,0.5061646,0.2467499,0.9896851,0.7529449,1.0796509
				c0.5443268,0.0969238,54.592865,9.7359619,84.5742035,15.2709961c4.2841797,4.7218628,9.1019287,10.1622314,14.9384155,16.75354
				l4.2754822,4.8275757c0.184021,0.2081299,0.4398499,0.3135376,0.697052,0.3135376
				c0.2194824,0,0.4398499-0.0772095,0.6166077-0.234436C295.9006348,923.8268433,295.9360657,923.2388306,295.5952759,922.8544312z
				"/>
		</g>
		<g>
			<path fill="#374D6D" d="M321.9326782,926.124939c0,0-9.2877502-105.1507568-60.0387268-161.8724365
				s-86.3540649-3.9804688-23.1088409,55.2843018S321.9326782,926.124939,321.9326782,926.124939z"/>
			<g opacity="0.3">
				<path fill="#FFFFFF" d="M321.9320679,927.0558472c-0.4057922,0-0.7788391-0.2672119-0.8947144-0.677063
					c-28.7733154-101.5783081-93.7103271-159.086731-94.362854-159.6556396
					c-0.387146-0.3380737-0.427597-0.9260864-0.0899658-1.3132324c0.3380737-0.387146,0.9265289-0.4262695,1.3132172-0.0899658
					c0.1640472,0.1435547,16.6702576,14.6417847,36.5145111,41.5570068
					c18.3052063,24.8286133,43.2987671,65.6277466,58.4154358,118.9946899
					c0.1404114,0.4943848-0.1472473,1.0087891-0.6416321,1.1487427
					C322.1015625,927.0449219,322.0161133,927.0558472,321.9320679,927.0558472z"/>
			</g>
		</g>
	</g>
</g>
<g id="Layer_x5F_Ground">
	<g>
		<path fill="#222B3F" d="M134.8506622,927.055481h916.8345337c0.5140381,0,0.9306641-0.416687,0.9306641-0.930603
			c0-0.5139771-0.416626-0.930603-0.9306641-0.930603H134.8506622c-0.5139771,0-0.9306183,0.416626-0.9306183,0.930603
			C133.9200439,926.6387939,134.3366852,927.055481,134.8506622,927.055481"/>
		<path fill="#222B3F" d="M328.566803,982.7821045h529.4023438c0.513916,0,0.930603-0.416687,0.930603-0.930603
			c0-0.5140381-0.416687-0.9306641-0.930603-0.9306641H328.566803c-0.5139771,0-0.930603,0.416626-0.930603,0.9306641
			C327.6362,982.3654175,328.0528259,982.7821045,328.566803,982.7821045"/>
	</g>
</g>
<g id="Layer_x5F_Blood">
	<g>
		<g>
			<path fill="#6081C1" d="M591.588562,440.6688232c-13.0100098,165.8456421-248.7450562,283.9411621-248.7450562,283.9411621
				s-235.7350464-118.09552-248.7543945-283.9411621C81.079071,274.8139648,254.6208496,232.3591461,342.8435059,331.8702087
				C431.0568542,232.3591461,604.6079712,274.8139648,591.588562,440.6688232z"/>
			<g>
				<path fill="#FF8D88" d="M130.5135345,470.0019531c0,0,12.8614044-29.7785034,56.2042847-41.7199097
					s122.5099945,16.806427,190.620224,53.9574585s-127.817276,74.7443848-165.4105835,52.6306763
					S130.5135345,470.0019531,130.5135345,470.0019531z"/>
				<path opacity="0.3" fill="#FFFFFF" d="M130.5135345,470.0019531c0,0,12.8614044-29.7785034,56.2042847-41.7199097
					s122.5099945,16.806427,190.620224,53.9574585s-127.817276,74.7443848-165.4105835,52.6306763
					S130.5135345,470.0019531,130.5135345,470.0019531z"/>
				<path fill="#FF8D88" d="M557.9746094,458.7414856c-14.0802612,66.1018372-68.6889343,123.6698914-114.3264771,161.6950378
					c-40.3143921,33.5859985-80.4333801,57.8007202-100.8046265,69.2659302
					c-20.3712769-11.46521-60.4902344-35.6799316-100.8046417-69.2659302
					c-43.0224915-35.8567505-94.0203857-89.0695801-111.5253296-150.4345703c0,0,111.8231354,78.7954712,233.2223663,15.1132507
					C480.2772827,423.9828491,528.5949707,438.9472046,557.9746094,458.7414856z"/>
			</g>
		</g>
		<g opacity="0.3">
			<path fill="#FFFFFF" d="M549.8392944,437.3921814c-1.3545532,17.27005-5.9234619,34.1879883-12.8768921,50.5697632
				c-10.418396,24.5653992-26.2333679,47.8721008-44.134491,68.8514099
				c-17.8929138,20.9837646-37.8409424,39.6365967-56.3327026,55.0424194
				c-39.539032,32.9543457-79.1509094,56.8760986-99.1295166,68.1161499
				c-5.3746033,3.0254517-7.2789917,9.835022-4.25354,15.2095947c3.0254211,5.3745728,9.8349915,7.2789917,15.2095947,4.25354
				c20.7704468-11.6982422,61.3917236-36.199585,102.4711304-70.4205933
				c25.6343689-21.3710938,54.1343689-48.8051758,77.2403259-80.8613281
				c11.5480957-16.0327759,21.7481079-33.2341919,29.4884644-51.4641418
				c7.7363892-18.2246399,13.0106812-37.4997253,14.5839844-57.5500488
				c0.4822998-6.1487122-4.111145-11.524231-10.2597656-12.0065613c-6.1487427-0.4823303-11.524292,4.1111145-12.0065308,10.2598267
				L549.8392944,437.3921814z"/>
		</g>
		<g>
			<path fill="#374D6D" d="M294.8427734,659.7833252l-25.5957336-9.1714478l9.981781-27.8572998
				c1.6731567-4.6694946,8.7654419-6.4064331,15.8295593-3.8752441c7.0774231,2.5360107,11.4393005,8.3771362,9.7661438,13.0466309
				L294.8427734,659.7833252z"/>
			
				<ellipse transform="matrix(0.3373171 -0.9413911 0.9413911 0.3373171 -429.8907776 699.7037354)" fill="#222B3F" cx="282.0456238" cy="655.1980591" rx="8.9826813" ry="13.5999479"/>
		</g>
		<g>
			<path fill="#FF8D88" d="M670.192627,633.0681763c0,7.4356079-1.5634155,15.0480957-4.8764038,22.4465332
				s-8.3756104,14.5827637-15.3366699,21.1901245c-13.9313354,13.2334595-35.4100342,24.1682129-65.9249878,30.3381958
				c-1.5076294,0.2978516-2.9779663-0.6793823-3.2850952-2.1869507c-0.3070679-1.5169067,0.6700439-2.9872437,2.1869507-3.2943726
				c22.3162231-4.5042114,39.4210205-11.5862427,52.0308838-20.0361938
				c12.6098633-8.4593506,20.7342529-18.2587891,25.2290649-28.3001709
				c3.0059204-6.6911621,4.3925781-13.5032959,4.3925781-20.1571655c0-13.661499-5.8815308-26.6901245-16.0532227-36.3406982
				c-10.1809692-9.631897-24.6148682-15.8856201-41.7940674-15.8856201c-12.8983765,0-27.3601685,3.5270386-42.7060547,11.9212036
				c-15.3459473,8.3848267-31.5666504,21.6369019-47.8897095,41.0495605
				c-29.6401672,35.2518921-55.8464355,62.1467285-79.111908,82.0340576
				c-23.2747803,19.8873901-43.5994568,32.7857056-61.5418091,39.9514771
				c-11.9584351,4.7833862-22.8838806,7.0168457-32.8601685,7.0168457
				c-10.3484497,0.0093384-19.6732178-2.4195557-27.9650574-6.7841797
				c-8.2918091-4.3553467-15.5506897-10.6370239-21.9346924-18.2959595
				c-6.7097473-8.0498657-11.16745-16.7790527-13.9220276-25.6385498
				c-2.7546692-8.8502197-3.8248901-17.8306885-3.8248901-26.4481812
				c0.0093079-11.1860352,1.8053894-21.7764893,4.1040649-30.757019c2.4682922-0.9867554,4.2571716-0.4432373,5.3137817,1.7495728
				c-2.1589661,8.5524292-3.834137,18.5658569-3.834137,29.0074463c0,8.1521606,1.0144043,16.5650024,3.5736084,24.791626
				c2.5592041,8.2266846,6.663208,16.2579346,12.8797302,23.7215576
				c6.0211182,7.2122803,12.7215881,12.9727783,20.2502747,16.9279175
				c7.528717,3.9551392,15.8763428,6.1420898,25.3593445,6.1420898c9.1387024,0,19.3476257-2.0473633,30.7849121-6.6166992
				c11.4372559-4.5600586,24.0844116-11.6607056,38.0437012-21.692749
				c27.9278564-20.0734253,61.0858154-51.9285278,100.4137878-98.7106934
				c16.6859741-19.8408203,33.4185181-33.5674438,49.480957-42.352478
				c16.0625-8.7757568,31.4642334-12.6005859,45.3862915-12.6005859
				c18.5472412-0.0092773,34.423584,6.7841797,45.6375732,17.4211426
				C663.6131592,603.3069458,670.192627,617.7873535,670.192627,633.0681763z"/>
		</g>
		<g opacity="0.3">
			<path fill="#FFFFFF" d="M166.2387848,522.7514648c-8.5202942-13.2827148-15.7818298-27.155365-21.1889954-41.4237976
				c-5.4090576-14.271698-8.9665375-28.9285278-10.1389923-43.8632507
				c-0.3777008-4.8143005-0.5642242-9.5101624-0.564209-14.0795593c-0.000473-16.0153198,2.292511-30.4605713,6.6444092-43.1027527
				c4.3579559-12.6485596,10.7454529-23.4998474,19.09198-32.5328369c3.8381653-4.151123,3.5844879-10.6277466-0.5666199-14.4659119
				c-4.151123-3.8382263-10.6277313-3.5845032-14.4659119,0.5666199
				c-10.3918304,11.2329712-18.2327652,24.6861877-23.4187012,39.7697144
				c-5.1920013,15.0898743-7.758316,31.8041687-7.7587738,49.7651672c0,5.1264648,0.2091827,10.3558044,0.626976,15.6813354
				c1.3440628,17.1213074,5.4050751,33.6882935,11.4052887,49.5178223
				c6.0021286,15.8327332,13.9406204,30.9386292,23.1000748,45.2207336
				c3.0522614,4.7588501,9.3844604,6.142334,14.1433716,3.0901489c4.7588806-3.0523071,6.1423798-9.3845215,3.0901184-14.1433716
				L166.2387848,522.7514648z"/>
			<path fill="#FFFFFF" d="M227.4537964,319.6752625c15.7643738,0.0000916,31.3701782,3.5524292,45.8374634,10.2530823
				c14.465332,6.6999512,27.7794189,16.5475159,38.9128723,29.1059875
				c3.7505493,4.2304382,10.2204895,4.6194763,14.4509583,0.868927c4.2304382-3.7505798,4.6194763-10.22052,0.868927-14.4509583
				c-12.9841003-14.644928-28.5698547-26.1997375-45.6276245-34.1013794
				c-17.0558777-7.9009399-35.5963593-12.149353-54.4425964-12.149231c-5.6536255,0-10.2368011,4.5831604-10.2368011,10.2367859
				s4.5831757,10.2368164,10.2368011,10.2368164V319.6752625z"/>
		</g>
	</g>
</g>
<g id="Layer_x5F_Character_1">
	<g id="hair_00000103233243714452193020000007336577402674802049_">
		<g id="hair">
			<g>
				<path fill="#374D6D" d="M936.5863037,296.0653687c35.1762085,14.7018127,46.8414307-12.356781,36.1834106-36.363739
					c-10.6580811-24.0069885-30.5010986-40.242157-48.765625-28.8174133
					c-18.2644653,11.4247284-22.9997559,39.4754639-22.9997559,39.4754639S908.9414673,284.4902649,936.5863037,296.0653687z"/>
				<path fill="#374D6D" d="M841.2199097,245.8265533c-25.7357178,11.2293243-11.8607178,38.4833527-11.8607178,38.4833527
					c-13.0933838,1.6235046-23.6311646,9.5907593-15.6939697,32.5604858
					c7.9372559,22.9847717,32.6206665,17.3475647,32.6206665,17.3475647s0.9470215,25.7207031,33.5075073,33.2970886
					c32.5604858,7.576416,75.809082-31.3278198,69.8562012-61.3929138
					c-5.9528809-30.0651245-43.3237915-37.0252075-43.3237915-37.0252075
					C891.6690674,242.3389893,866.9404907,234.6122589,841.2199097,245.8265533z"/>
				<g opacity="0.3">
					<path fill="#FFFFFF" d="M944.0123291,295.4189148c-11.0789795-19.5272522-37.6866455-24.6984558-37.9572144-24.7435608
						c-0.8567505-0.1653442-1.4279785-0.9771118-1.27771-1.8339539c0.1503906-0.856842,0.9470825-1.4431152,1.803894-1.3078308
						c0.2706299,0.0300598,28.3513794,5.4417725,40.1970215,26.3069458
						c0.4359741,0.7666931,0.1654053,1.7287598-0.6012573,2.1647034c-0.2405396,0.1503296-0.5111084,0.2104492-0.7816772,0.2104492
						C944.8391724,296.2156677,944.2980347,295.9300537,944.0123291,295.4189148z"/>
				</g>
			</g>
		</g>
	</g>
	<g id="right_arm_00000021080328055096650150000012428914266832657539_">
		<g id="left_arm">
			<g>
				<path fill="#6081C1" d="M782.8621216,448.7529602c7.6757202-5.7060242,15.9829712-6.0351868,23.8804932-6.152771
					c25.0595703-0.3543701,47.0712891,11.1135254,34.9817505,55.0305481
					c-19.1552124,69.5562134-82.8000488,191.1828613-97.8753662,194.8983154
					c-15.0753174,3.7153931-52.1672363-18.0427246-52.1672363-18.0427246l-11.3535156-14.9499512
					c35.4056396-90.3354492,65.144043-153.6707458,80.9803467-185.0083923
					C766.7721558,463.7513733,776.913269,453.1743774,782.8621216,448.7529602z"/>
				<path fill="#222B3F" d="M743.7014771,654.1015015c-38.6766968-27.5262451-67.0324097-5.3890381-67.0324097-5.3890381
					l-12.7166748,26.3045044c0,0,3.6517944,16.8584595,32.2011108,31.6569214
					c28.5441895,14.7841797,60.3458252,9.9978638,60.3458252,9.9978638l12.5951538-22.2826538
					C769.0944824,694.3890991,772.2288208,674.3948364,743.7014771,654.1015015z"/>
				<path fill="#9F5353" d="M679.5081177,677.2260132l-9.4644165,23.4794922
					c-13.4437256,27.6665649,25.0579224,65.029541,55.0313721,49.9388428
					c13.0357666-19.9098511,21.772644-55.1688843,21.772644-55.1688843
					C730.5971069,678.2591553,708.7128296,671.1656494,679.5081177,677.2260132z"/>
			</g>
		</g>
	</g>
	<g id="right_forearm_00000039816475873953915440000012673647100821667490_">
		<g>
			<path fill="#9F5353" d="M563.1199951,706.8416748l-27.6207886-27.2019653
				c-1.1260376-1.1167603-2.7080688-1.6564941-4.2901611-1.4796753c-2.8197021,0.3256836-4.6624146,2.7173462-4.6624146,5.2393799
				c0,1.0236206,0.3071289,2.0567017,0.9585571,2.996521l-2.9128418-4.15979
				c-1.3214111-1.8892212-3.56427-2.9035645-5.8535156-2.633667c-3.331665,0.3815918-5.5558472,3.2012939-5.5558472,6.2351685
				c0,1.0422363,0.2606201,2.1217651,0.8468628,3.1268311l-2.5499268-4.4017944
				c-1.3586731-2.3544922-3.9736938-3.666626-6.6725159-3.3595581c-3.6201172,0.4187622-6.0303955,3.4898682-6.0303955,6.7749023
				c0,1.1912231,0.3163757,2.401001,1.0050964,3.5270996l-3.5084534-5.7420044
				c-1.2377319-2.0380249-3.5549622-3.1640625-5.9280396-2.894165c-3.2664795,0.3815308-5.434845,3.1455078-5.434845,6.1048584
				c0,1.0422974,0.269928,2.1032104,0.8562012,3.098938l20.1412354,34.0806274
				c3.2298279,5.46521,9.2052612,8.7092896,15.5477905,8.4411011l36.796875-1.5559082
				c0,0,101.7495117,23.3366089,148.0384521,30.7628784c6.8187256,1.0945435,13.1958008-4.6224976,18.7837524-13.1571045
				c16.4729614-37.1466064-24.319397-52.7788086-55.0313721-49.9388428L563.1199951,706.8416748z"/>
			<g>
				<path fill="#222B3F" d="M498.9877014,691.9899292l11.8138733,19.3568115
					c0.2677307,0.4387207,0.8404541,0.5773315,1.2791748,0.3095703s0.5773315-0.8404541,0.3095703-1.2791748l-11.8138733-19.3568726
					c-0.2677612-0.4387207-0.8404541-0.5773315-1.2792053-0.3095703
					C498.8585205,690.9784546,498.7199402,691.5511475,498.9877014,691.9899292"/>
				<path fill="#222B3F" d="M513.2241211,689.4300537l10.5800171,18.3076172
					c0.2572021,0.4450073,0.826416,0.59729,1.2713623,0.3400879c0.4450684-0.2571411,0.5973511-0.826355,0.3401489-1.2713623
					l-10.5800781-18.3075562c-0.2572021-0.4450684-0.826355-0.5973511-1.2713623-0.3401489
					S512.9669189,688.9851074,513.2241211,689.4300537"/>
				<path fill="#222B3F" d="M526.7422485,686.928833l12.5068359,17.9061279
					c0.2943115,0.4214478,0.8744507,0.5244141,1.2958374,0.2300415c0.4213867-0.2942505,0.524353-0.8743896,0.2300415-1.2957764
					l-12.5068359-17.906189c-0.2943115-0.4213867-0.8744507-0.524353-1.2958374-0.2300415
					S526.447937,686.5074463,526.7422485,686.928833"/>
			</g>
		</g>
	</g>
	<g id="body_00000129916003627796597020000000501349260777921688_">
		<g id="body">
			<g>
				<g>
					<g>
						<path fill="#FF8D88" d="M785.1784668,555.5723267l3.9234619-82.9345398l92.3900757-70.171936l66.3236084,57.6949158
							c0,0,3.3372192,111.3009644,21.0606079,201.0753784c15.3933105,77.9136963,45.6087646,135.9994507,44.3460083,135.9994507
							c-2.7359009,0-91.4730225,28.1710205-172.0324707,12.7325439
							c-80.5443726-15.4384766-101.890625-24.5481567-101.890625-24.5481567L785.1784668,555.5723267z"/>
						<g opacity="0.3">
							<path fill="#FFFFFF" d="M759.0819702,766.5991821c-0.8118286-0.3607788-1.1575317-1.3078003-0.796814-2.1045532
								c0.3609009-0.8117676,1.3078613-1.1574707,2.1046143-0.7967529
								c82.8444824,37.5362549,212.3198242,25.4200439,213.6126099,25.2998047
								c0.8718872-0.09021,1.6535645,0.5562134,1.7437744,1.4281006c0.09021,0.8869019-0.5562744,1.6535645-1.4281006,1.7437744
								c-0.5111084,0.045105-21.0004883,1.9692383-50.7648926,1.9692383
								C877.6737671,794.1387939,809.7868042,789.5689087,759.0819702,766.5991821z"/>
						</g>
					</g>
					<path fill="#6081C1" d="M901.1846924,537.3978882c6.0731201-50.2688599,0.045166-120.5159912-1.5934448-137.4877014
						c35.7173462,13.5142517,85.9110718,57.5295715,85.9110718,57.5295715s-0.5411377,70.5628052,2.1346436,210.9367676
						c12.1011963,79.9581299,69.4387207,241.5484009,69.4387207,241.5484009s-76.3839111,29.072998-127.885437,0
						c0,0-39.821106-104.2109985-47.7131958-241.6987305C881.4770508,668.2261963,894.194519,594.9274902,901.1846924,537.3978882z"
						/>
					<g>
						<path fill="#6081C1" d="M865.5875854,399.9101563c0,0-33.7630615,12.0861816-77.2371826,45.9695129v16.1149292
							c0,0-19.076355,63.6026917-19.9782715,74.95224c-0.9018555,11.364624,8.6286621,50.8851929,8.6286621,50.8851929
							s-57.2288818,221.2190552-63.6027222,317.5325928c-0.000061,0,34.0787964-1.8188477,69.5105591-10.4476318
							c-3.8400269-2.6065674,45.8964233-393.0958862,58.2962646-420.5205383
							C849.397644,444.1208496,865.5875854,399.9101563,865.5875854,399.9101563z"/>
					</g>
					<g opacity="0.3">
						<g>
							<path fill="#FFFFFF" d="M760.6604614,653.9602661c-0.7365723-0.1653442-1.187561-0.9019775-1.0072021-1.6385498
								c8.5385742-35.7474365,15.1077881-61.3328247,15.9195557-64.5046997
								c-0.9771729-4.1038818-9.4555664-39.956543-8.5836182-50.9754028
								c0.9019775-11.364563,19.2566528-72.637207,20.0383911-75.237854
								c0.2105103-0.7215576,0.9771729-1.1274414,1.6986694-0.9169617c0.7215576,0.2104492,1.1274414,0.9770813,0.9169922,1.6986694
								c-0.1954346,0.6313477-19.0462036,63.587677-19.9331665,74.6666565
								c-0.8869629,11.0038452,8.5083618,50.0583496,8.5985718,50.4492188c0.0600586,0.2105103,0.0600586,0.4509888,0,0.661438
								c-0.0601807,0.2705688-6.9150391,26.7729492-15.9946899,64.7902832
								c-0.1502686,0.6314087-0.706543,1.0523071-1.322876,1.0523071
								C760.8858643,654.0053711,760.7806396,653.9903564,760.6604614,653.9602661z"/>
						</g>
					</g>
					<g>
						<path fill="#6081C1" d="M822.12854,457.4547424l9.0796509,23.6161194l-30.2906494,23.3155212
							c-4.8403931,50.5845032-2.420166,144.4627991-2.420166,144.4627991s19.9932251-93.8782349,42.7073975-159.6005554
							c23.4658203-59.3785706,52.5386963-57.0936279,53.6060181,6.0581055
							c-5.4417725,61.4831238-13.3187866,172.9344788-13.3187866,172.9344788
							c16.956665-68.4432373,47.6982422-145.3647461,47.6982422-145.3647461l-20.5194702-36.3487244l20.5194702-18.7756348
							c-6.8096924-36.0480652-22.729187-76.7862854-41.0388184-79.6575012
							C853.3209839,382.6377869,822.128479,457.4397583,822.12854,457.4547424z"/>
						<g opacity="0.3">
							<path fill="#FFFFFF" d="M797.4902954,627.7886963c-0.0300903-0.7366333-2.7208862-73.4189453,2.0744629-123.5074158
								c0.0300293-0.375824,0.2254639-0.7215881,0.526123-0.947052l29.4788208-22.6991882l-8.7188721-22.6690369
								c-0.1203003-0.330719-0.1203003-0.6914978,0.0150757-1.0222168
								c0.1051025-0.2555847,10.8233643-25.7357178,26.4572144-45.7590942
								c0.4510498-0.6012878,1.3078613-0.7065125,1.9091797-0.240509c0.6012573,0.4509583,0.7064819,1.3078003,0.2404785,1.9091187
								c-14.2058105,18.1893921-24.3076782,40.9937439-25.8710327,44.6316223l8.8841553,23.1050415
								c0.2255249,0.5711975,0.045166,1.2025757-0.4359131,1.5783997l-29.8095703,22.9546814
								c-4.7052002,49.8779907-2.0444946,121.8237305-2.0144043,122.5453491
								c0.0300903,0.7515869-0.5561523,1.3829956-1.3078003,1.4130249c-0.0300293,0-0.0450439,0-0.0601196,0
								C798.121521,629.0814209,797.5202026,628.4951782,797.4902954,627.7886963z"/>
						</g>
						<g opacity="0.3">
							<path fill="#FFFFFF" d="M888.0913696,643.3773804c-0.7214966-0.2104492-1.1424561-0.9620972-0.9320068-1.6836548
								c16.1300049-56.5975342,37.97229-112.3232422,40.5127563-118.7421265l-20.2037354-35.7774353
								c-0.3157349-0.5561829-0.1954346-1.2476807,0.2705688-1.6836243l19.9632568-18.2645264
								c-4.2241211-22.0227356-11.1842041-42.9029236-19.1063843-57.3792725
								c-0.3607788-0.661438-0.1203003-1.4882202,0.5411377-1.848999s1.4882202-0.1202698,1.848999,0.5411682
								c8.147583,14.8972778,15.2730103,36.3787537,19.5422974,58.942627c0.09021,0.4660034-0.0752563,0.947052-0.4209595,1.2627258
								l-19.7227173,18.0390625l19.9782715,35.4016113c0.1954346,0.3607788,0.2254028,0.7816772,0.0751343,1.1725464
								c-0.2404785,0.5863037-23.6461792,59.3635254-40.6630249,119.0878906
								c-0.1653442,0.6012573-0.7064819,0.9921265-1.3078613,0.9921265
								C888.3468628,643.4375,888.2266235,643.4224854,888.0913696,643.3773804z"/>
						</g>
					</g>
				</g>
				<g>
					<path fill="#9F5353" d="M863.9189453,425.9315491c2.3601074-7.0953674,4.1790771-23.5560303,5.3816528-38.5284424
						c1.2327271-15.7390747,1.894165-29.8696594,1.894165-29.8696594l29.9899292-6.388855
						c0,0-0.2255249,2.1045837-0.5863037,5.6672974c-1.5183105,15.2730713-5.5469971,57.1687927-5.772522,74.5764771v63.9334412
						c0,0-16.6710815,16.3554077-36.0480347,17.8435974c0,0-13.0181274-7.2757263-17.5579834-23.9167786
						C841.2198486,489.2486267,859.0634766,440.4680176,863.9189453,425.9315491z"/>
					<path fill="#222B3F" d="M871.1947632,357.5334473l29.9899292-6.388855c0,0-0.2255249,2.1045837-0.5863037,5.6672974
						c-4.8104248,11.3044739-14.0404053,25.2697144-31.2977905,30.6062622
						C870.5483398,371.6790771,871.1947632,357.5334473,871.1947632,357.5334473z"/>
				</g>
			</g>
		</g>
	</g>
	<g id="left_thigh">
		<g id="right_thigh">
			<g>
				<g>
					<path fill="#374D6D" d="M1015.9121704,764.9476929c0,0-104.015686,20.4931641-195.9884644,29.1478882
						c-9.4902344,21.3037109-22.0814209,67.1312866,3.0884399,130.8742676
						c46.6019287,0.0370483,88.9134521,0.4647827,110.5858765,1.5973511
						c75.6289673,0.824646,157.8706055-51.1273193,158.1130371-116.0970459
						C1091.8201904,781.2382813,1058.3739014,768.5010376,1015.9121704,764.9476929z"/>
				</g>
			</g>
		</g>
	</g>
	<g id="right_thigh_00000160157064998359959850000007845005913401515950_">
		<g>
			<g id="right_thigh_00000049905476631782787040000009760058055408606606_">
				<g>
					<g>
						<path fill="#374D6D" d="M877.2182007,814.4243774l-56.8098145-21.1231689c0,0-176.1381226-52.3070068-216.8265381-62.5599365
							c-1.4828491-0.37323-3.1622314-0.8353271-4.9573975-1.3723145
							c-52.4094849-12.7689209-84.8775024,63.9658203-48.8424072,79.4199829
							c42.6949463,29.1826172,210.4943848,94.8629761,258.4075317,119.8811035S910.4692993,833.2875366,877.2182007,814.4243774z"/>
					</g>
				</g>
			</g>
			<g opacity="0.3">
				<path fill="#FFFFFF" d="M809.7598877,869.1175537c-0.4471436,0-0.8415527-0.3226318-0.9169922-0.7779541
					c-7.4885254-44.9341431,10.1077881-74.4358521,10.2868042-74.7285156
					c0.2672119-0.4398193,0.8361206-0.5806885,1.2786865-0.3098755c0.4389648,0.2671509,0.5770874,0.8397217,0.3099365,1.2786865
					c-0.1744995,0.2871704-17.4082031,29.2399902-10.0396118,73.4543457
					c0.0845337,0.5062256-0.2581177,0.986084-0.7651978,1.0705566
					C809.8616943,869.1138916,809.810791,869.1175537,809.7598877,869.1175537z"/>
			</g>
		</g>
	</g>
	<g id="left_calf">
		<g id="right_calf">
			<g>
				<g>
					<path fill="#9F5353" d="M739.8372803,902.8526001l-55.8364258,4.5842285
						c-8.3251343-12.6846924-1.979248-24.1434326-1.979248-24.1434326l51.7427368-10.0194092L739.8372803,902.8526001z"/>
				</g>
				<g>
					<path fill="#374D6D" d="M1006.9174805,897.4946899c148.2191162-47.3464966,84.0810547-160.6281128-5.4329834-128.5545044
						c-51.4608154,19.4539795-277.8613281,92.0863647-277.8613281,92.0863647l9.6796265,57.9547729
						C733.3027954,918.9813232,990.2579346,902.18927,1006.9174805,897.4946899z"/>
				</g>
				<g>
					<path fill="#374D6D" d="M733.3019409,919.9116821c-0.4508057,0-0.8415527-0.3262329-0.9169922-0.7769775l-9.6796875-57.9546509
						c-0.076355-0.4562378,0.1935425-0.8988647,0.6334229-1.0396729
						c1.6567383-0.5316772,166.5507813-53.4524536,245.7478638-80.6812134
						c0.4871216-0.1672363,1.0160522,0.0908813,1.182373,0.5770874c0.1672363,0.4862061-0.0908813,1.0151367-0.5770874,1.182373
						c-76.4352417,26.2790527-232.6592407,76.4797363-245.0181274,80.4476318l9.407959,56.3314819
						c16.2231445-1.06604,256.6808472-16.9174194,272.5831909-21.3987427
						c26.96698-8.614624,48.3258667-19.8574829,63.4529419-33.4059448c0.3807373-0.3417358,0.9705811-0.3108521,1.3140869,0.0726929
						c0.3426514,0.3826294,0.3099365,0.9705811-0.0726318,1.3141479
						c-15.3234863,13.723877-36.9104004,25.0966797-64.1582031,33.8012695
						c-16.5939331,4.6766968-263.3414917,20.8425903-273.8373413,21.5287476
						C733.3428345,919.9108276,733.3228149,919.9116821,733.3019409,919.9116821z"/>
				</g>
				<g opacity="0.3">
					<g>
						<path fill="#FFFFFF" d="M733.3019409,919.9116821c-0.4508057,0-0.8415527-0.3262329-0.9169922-0.7769775
							l-9.6796875-57.9546509c-0.076355-0.4562378,0.1935425-0.8988647,0.6334229-1.0396729
							c1.6567383-0.5316772,166.5507813-53.4524536,245.7478638-80.6812134
							c0.4871216-0.1672363,1.0160522,0.0908813,1.182373,0.5770874c0.1672363,0.4862061-0.0908813,1.0151367-0.5770874,1.182373
							c-76.4352417,26.2790527-232.6592407,76.4797363-245.0181274,80.4476318l9.407959,56.3314819
							c16.2231445-1.06604,256.6808472-16.9174194,272.5831909-21.3987427
							c26.96698-8.614624,48.3258667-19.8574829,63.4529419-33.4059448
							c0.3807373-0.3417358,0.9705811-0.3108521,1.3140869,0.0726929c0.3426514,0.3826294,0.3099365,0.9705811-0.0726318,1.3141479
							c-15.3234863,13.723877-36.9104004,25.0966797-64.1582031,33.8012695
							c-16.5939331,4.6766968-263.3414917,20.8425903-273.8373413,21.5287476
							C733.3428345,919.9108276,733.3228149,919.9116821,733.3019409,919.9116821z"/>
					</g>
					<g>
						<path fill="#FFFFFF" d="M740.1734009,906.7512817c-0.4689331,0-0.8724365-0.3526611-0.9242554-0.8297729
							c-0.0554199-0.5107422,0.3135376-0.9705811,0.8243408-1.026001
							c2.4473877-0.2672119,245.2816162-26.8244019,294.1164551-38.0699463
							c0.5062256-0.1154175,1.0006104,0.1972046,1.1159668,0.697937c0.1154785,0.5007324-0.1971436,1.0006104-0.697998,1.1160278
							c-48.94104,11.2701416-291.8843994,37.8391113-294.3327026,38.1062622
							C740.2406616,906.7494507,740.2070313,906.7512817,740.1734009,906.7512817z"/>
					</g>
				</g>
			</g>
		</g>
	</g>
	<g id="right_calf_00000005952132159785052880000007632702602403721104_">
		<g id="right_calf_00000008109680795453757830000013817904186457514928_">
			<g>
				<path fill="#374D6D" d="M805.6255493,853.6433716c-0.0092163-0.0092773-0.0185547-0.0185547-0.0278931-0.0185547
					c-1.963562-1.4238892-128.0996704-92.7919922-176.5011597-118.0303955
					c-85.0678711-42.4827881-175.0400696,55.2694702-33.5023193,119.8916626
					c15.6158447,6.4863892,174.1374512,44.2601929,181.5637817,46.0283203
					c0.0837402,0.0186768,0.1768188,0.0465698,0.2698975,0.0651855
					C798.7855225,906.697998,835.0145264,869.4918823,805.6255493,853.6433716z"/>
			</g>
			<g>
				<g>
					<path fill="#374D6D" d="M781.6505127,902.9906006c-1.5186157,0-3.0045166-0.1626587-4.4395752-0.5061646
						c-0.0317993-0.0054932-0.1035767-0.0236206-0.1726685-0.0408936c-0.0054321-0.0018311-0.0899658-0.0218506-0.0953979-0.0236816
						c-6.7715454-1.6130981-42.5076294-10.1395264-81.1392212-19.628418
						c-0.4989624-0.1217651-0.8043213-0.6261597-0.6816406-1.125061c0.1217651-0.4989624,0.6279907-0.8070679,1.1251221-0.6816406
						c38.6261597,9.4870605,74.3568115,18.0116577,81.1265259,19.6248169l0.2317505,0.0563354
						c12.3334351,2.9500122,31.1720581-9.1998291,36.6876221-23.6398926
						c3.6052246-9.4379883,0.3707886-17.4518433-9.1089478-22.5639038
						c-0.0263672-0.0136108-0.0518188-0.0290527-0.0772705-0.0463257c-0.019104-0.0118408-0.0372925-0.0245361-0.0554199-0.0372314
						c-1.0797119-0.7834473-108.6052246-78.6873169-163.4544678-110.7545776
						c-0.4435425-0.2590332-0.5925903-0.8297119-0.3335571-1.2732544c0.2581177-0.4453125,0.8279419-0.5925293,1.2732544-0.3334961
						c54.5756836,31.9072876,161.1497192,109.0732422,163.5734863,110.8299561
						c13.994751,7.5722046,12.2252808,18.8132324,9.9214478,24.8431396
						C811.302124,890.0710449,795.194458,902.9896851,781.6505127,902.9906006z"/>
				</g>
			</g>
			<g opacity="0.3">
				<g>
					<path fill="#FFFFFF" d="M781.6505127,902.9906006c-1.5186157,0-3.0045166-0.1626587-4.4395752-0.5061646
						c-0.0317993-0.0054932-0.1035767-0.0236206-0.1726685-0.0408936c-0.0054321-0.0018311-0.0899658-0.0218506-0.0953979-0.0236816
						c-6.7715454-1.6130981-42.5076294-10.1395264-81.1392212-19.628418
						c-0.4989624-0.1217651-0.8043213-0.6261597-0.6816406-1.125061c0.1217651-0.4989624,0.6279907-0.8070679,1.1251221-0.6816406
						c38.6261597,9.4870605,74.3568115,18.0116577,81.1265259,19.6248169l0.2317505,0.0563354
						c12.3334351,2.9500122,31.1720581-9.1998291,36.6876221-23.6398926
						c3.6052246-9.4379883,0.3707886-17.4518433-9.1089478-22.5639038
						c-0.0263672-0.0136108-0.0518188-0.0290527-0.0772705-0.0463257c-0.019104-0.0118408-0.0372925-0.0245361-0.0554199-0.0372314
						c-1.0797119-0.7834473-108.6052246-78.6873169-163.4544678-110.7545776
						c-0.4435425-0.2590332-0.5925903-0.8297119-0.3335571-1.2732544c0.2581177-0.4453125,0.8279419-0.5925293,1.2732544-0.3334961
						c54.5756836,31.9072876,161.1497192,109.0732422,163.5734863,110.8299561
						c13.994751,7.5722046,12.2252808,18.8132324,9.9214478,24.8431396
						C811.302124,890.0710449,795.194458,902.9896851,781.6505127,902.9906006z"/>
				</g>
			</g>
			<g opacity="0.3">
				<path fill="#FFFFFF" d="M769.0708008,842.0750732c-0.1690674,0-0.3408203-0.0463257-0.4944458-0.1427002
					L601.3839722,736.7352295c-0.4353027-0.2735596-0.5661621-0.848877-0.2926025-1.2832642
					c0.2744141-0.4362183,0.8488159-0.5652466,1.2832031-0.2926025l167.1923828,105.1971436
					c0.4353638,0.2735596,0.5662231,0.8488159,0.2926636,1.2832642
					C769.682373,841.9215088,769.3797607,842.0750732,769.0708008,842.0750732z"/>
			</g>
			<path fill="#9F5353" d="M815.9275513,864.8759766l-2.0007935,15.2528687l-2.401062,18.2773438l-11.9025879-2.6616211
				l-40.2027588-8.9990234c-6.2723389-15.5599365,3.2943726-37.1409912,23.9821167-38.3787231l32.2392578,18.6881104
				L815.9275513,864.8759766z"/>
			<g>
				<g>
					<path fill="#374D6D" d="M781.6641235,902.9888306c-1.5513306,0-3.0418091-0.1663208-4.453186-0.5043945
						c-8.8835449-2.1257324-15.5078735-7.5913086-18.6541748-15.390686
						c-3.3998413-8.4337158-2.3456421-18.6787109,2.750061-26.7362061
						c4.9175415-7.7757568,12.7442017-12.3634033,22.0404053-12.9196167
						c3.4053345-0.2062988,7.0132446,0.1363525,10.7130127,1.0197144
						c11.0956421,2.6409912,18.3770142,7.1723022,21.6414185,13.4685059
						c0.4371338,0.8170166,0.8143311,1.7185669,1.1141968,2.670105c1.5131836,4.8093872,0.8015747,10.3258667-2.0593262,15.9541016
						c-2.9990845,5.906311-8.3255615,11.7263184-14.6127319,15.9659424
						C793.8721313,900.741333,787.3650513,902.9888306,781.6641235,902.9888306z M785.2938843,849.2410278
						c-0.617981,0-1.2296143,0.0181885-1.8348389,0.0545044c-8.6828003,0.5198364-15.9904785,4.8012695-20.5790405,12.0571899
						c-4.78125,7.5603638-5.7764282,17.1573486-2.5964966,25.0449219
						c2.9136353,7.2249756,9.079895,12.2952271,17.3609619,14.2764282
						c6.0908203,1.4604492,13.9129028-0.6170654,21.4587402-5.7009277
						c6.0326538-4.0687256,11.1337891-9.6324463,13.9938354-15.2661743l0,0
						c2.6355591-5.1847534,3.3071289-10.2167969,1.9430542-14.5518188
						c-0.2653809-0.8406372-0.5961914-1.6358643-0.9851685-2.3619995
						c-3.0099487-5.8045654-9.8805542-10.0150757-20.4263306-12.5251465
						C790.7667236,849.5845337,787.9712524,849.2410278,785.2938843,849.2410278z"/>
				</g>
			</g>
			<g opacity="0.3">
				<g>
					<path fill="#FFFFFF" d="M781.6641235,902.9888306c-1.5513306,0-3.0418091-0.1663208-4.453186-0.5043945
						c-8.8835449-2.1257324-15.5078735-7.5913086-18.6541748-15.390686
						c-3.3998413-8.4337158-2.3456421-18.6787109,2.750061-26.7362061
						c4.9175415-7.7757568,12.7442017-12.3634033,22.0404053-12.9196167
						c3.4053345-0.2062988,7.0132446,0.1363525,10.7130127,1.0197144
						c11.0956421,2.6409912,18.3770142,7.1723022,21.6414185,13.4685059
						c0.4371338,0.8170166,0.8143311,1.7185669,1.1141968,2.670105c1.5131836,4.8093872,0.8015747,10.3258667-2.0593262,15.9541016
						c-2.9990845,5.906311-8.3255615,11.7263184-14.6127319,15.9659424
						C793.8721313,900.741333,787.3650513,902.9888306,781.6641235,902.9888306z M785.2938843,849.2410278
						c-0.617981,0-1.2296143,0.0181885-1.8348389,0.0545044c-8.6828003,0.5198364-15.9904785,4.8012695-20.5790405,12.0571899
						c-4.78125,7.5603638-5.7764282,17.1573486-2.5964966,25.0449219
						c2.9136353,7.2249756,9.079895,12.2952271,17.3609619,14.2764282
						c6.0908203,1.4604492,13.9129028-0.6170654,21.4587402-5.7009277
						c6.0326538-4.0687256,11.1337891-9.6324463,13.9938354-15.2661743l0,0
						c2.6355591-5.1847534,3.3071289-10.2167969,1.9430542-14.5518188
						c-0.2653809-0.8406372-0.5961914-1.6358643-0.9851685-2.3619995
						c-3.0099487-5.8045654-9.8805542-10.0150757-20.4263306-12.5251465
						C790.7667236,849.5845337,787.9712524,849.2410278,785.2938843,849.2410278z"/>
				</g>
			</g>
			<g>
				<g>
					<g>
						<path fill="#FF8D88" d="M887.3230591,931.9714966l-18.9592285-9.847168l-2.3339233,3.5445557l-10.3694458,22.9754028
							c0,0-48.2307129,22.3843994-62.8452759,12.9939575c-1.4069824-0.8942871-2.4321899-2.0612793-2.977478-3.5336914
							c-6.2275391-16.7194824,6.2493896-31.5194702,1.9413452-45.7087402
							c-4.3189087-14.2001343-7.8962402-26.6040649-7.8962402-26.6040649s-0.272644-30.1201172,34.333374-29.0512695
							c0,0,16.817688,5.7040405,37.4198608,16.9485474c16.2178345,8.8668823,24.9359741,19.7282715,39.4742432,35.3899536
							C902.5484619,924.4460449,887.3230591,931.9714966,887.3230591,931.9714966z"/>
					</g>
					<path fill="#374D6D" d="M887.3230591,931.9714966l-18.9592285-9.847168l-2.3339233,3.5445557l-10.3694458,22.9754028
						c0,0-48.2307129,22.3843994-62.8452759,12.9939575c-10.1211548-10.2301636,10.0884399-30.5270386,23.4487915-37.1908569
						c15.9451294-7.9398193,29.5454102-12.0515747,29.5454102-12.0515747s2.3339844-18.0500488,5.0606079-32.0430298
						c0.5888672-3.0428467,2.3557739-5.180542,4.7660522-6.6637573
						c16.2178345,8.8668823,24.9359741,19.7282715,39.4742432,35.3899536
						C902.5484619,924.4460449,887.3230591,931.9714966,887.3230591,931.9714966z"/>
					<g>
						<path fill="#374D6D" d="M896.7763672,921.4575806c-0.0708618,0-0.1426392-0.0081787-0.2144775-0.0245361
							c-0.5007324-0.1181641-0.8106079-0.619812-0.6925049-1.1196289c0.7852173-3.3208008,0.2681274-6.9224243-1.5367432-10.704834
							c-1.8894653-2.0357666-3.6798096-3.9906006-5.4019775-5.8699951
							c-11.4973145-12.5469971-19.803833-21.6132813-33.7403564-29.2336426
							c-0.4508057-0.2462769-0.6171265-0.8115234-0.3699341-1.2623291c0.2462769-0.4516602,0.8115845-0.6188965,1.2623291-0.369873
							c14.208313,7.7675781,22.6020508,16.9292603,34.2202759,29.6080322
							c1.7485352,1.9085083,3.5679321,3.8951416,5.4891968,5.9645386c0.0635986,0.0681152,0.1154175,0.1444702,0.156311,0.2280884
							c2.0438843,4.2232056,2.6264648,8.2828369,1.7330933,12.0671387
							C897.5797729,921.1694946,897.1980591,921.4575806,896.7763672,921.4575806z"/>
					</g>
					<g opacity="0.3">
						<path fill="#FFFFFF" d="M896.7763672,921.4575806c-0.0708618,0-0.1426392-0.0081787-0.2144775-0.0245361
							c-0.5007324-0.1181641-0.8106079-0.619812-0.6925049-1.1196289c0.7852173-3.3208008,0.2681274-6.9224243-1.5367432-10.704834
							c-1.8894653-2.0357666-3.6798096-3.9906006-5.4019775-5.8699951
							c-11.4973145-12.5469971-19.803833-21.6132813-33.7403564-29.2336426
							c-0.4508057-0.2462769-0.6171265-0.8115234-0.3699341-1.2623291c0.2462769-0.4516602,0.8115845-0.6188965,1.2623291-0.369873
							c14.208313,7.7675781,22.6020508,16.9292603,34.2202759,29.6080322
							c1.7485352,1.9085083,3.5679321,3.8951416,5.4891968,5.9645386c0.0635986,0.0681152,0.1154175,0.1444702,0.156311,0.2280884
							c2.0438843,4.2232056,2.6264648,8.2828369,1.7330933,12.0671387
							C897.5797729,921.1694946,897.1980591,921.4575806,896.7763672,921.4575806z"/>
					</g>
				</g>
				<g opacity="0.3">
					<path fill="#FFFFFF" d="M887.0100098,910.9599609v18.6300049c0,0.5200195-0.4199829,0.9299927-0.9299927,0.9299927
						c-0.5200195,0-0.9299927-0.4099731-0.9299927-0.9299927v-18.1499634l-18.7000122-13.6400146l2.7600098,20.8900146
						c0.0700073,0.5100098-0.2900391,0.9799805-0.8000488,1.0499878h-0.1199951
						c-0.4599609,0-0.8599854-0.3400269-0.9199829-0.7999878L864.6699829,898.5l-11.1599731,18.2299805l2.8200073,28.4500122
						c0.0499878,0.5200195-0.3300171,0.9699707-0.8400269,1.0200195c-0.0299683,0-0.0599976,0.0099487-0.0899658,0.0099487
						c-0.4700317,0-0.8800049-0.3599854-0.9200439-0.8399658l-2.8599854-28.7700195
						c-0.0200195-0.2000122,0.0300293-0.3999634,0.1400146-0.5800171l12.6599731-20.6599731
						c0.0200195-0.039978,0.0400391-0.0700073,0.0599976-0.0999756c0.0200195-0.0400391,0.0500488-0.0700073,0.0700073-0.1000366
						c0.0599976-0.0599976,0.1300049-0.1199951,0.2000122-0.1699829c0.039978-0.0300293,0.0800171-0.0499878,0.1199951-0.0599976
						c0.0800171-0.039978,0.1699829-0.0700073,0.2600098-0.0800171c0.0999756-0.0100098,0.2000122-0.0100098,0.2999878,0.0100098
						c0.0499878,0.0100098,0.1000366,0.0200195,0.1500244,0.039978c0.0299683,0.0100098,0.0599976,0.0200195,0.0899658,0.0400391
						c0.0499878,0.0199585,0.0900269,0.0499878,0.1300049,0.0799561c0.0200195,0.0100098,0.0499878,0.0300293,0.0700073,0.0500488
						l20.75,15.1399536C886.8599854,910.3900146,887.0100098,910.6699829,887.0100098,910.9599609z"/>
				</g>
			</g>
		</g>
	</g>
	<g id="left_foot">
		<g>
			<path fill="#222B3F" d="M631.9414063,899.666687c-12.8842773,5.0657959-41.5627441,9.0512695-41.5627441,9.0512695
				l-0.3222656,10.5957642c17.9614258,4.2061768,33.7788086,6.2661743,46.5780029,5.350708
				C647.9841919,919.8632813,644.8098755,894.6150513,631.9414063,899.666687z"/>
			<path fill="#FF8D88" d="M636.6494141,924.6651001c0,0-3.0480957-9.4953003-12.9539185-22.5164185
				c-9.9057617-13.0210571-28.6036377-26.3136597-30.8657227-41.5328369
				c-2.2771606-15.2199097,3.0117188-79.895874,7.2959595-71.2832031s14.4344482,33.4639282,24.0898438,44.9663086
				c9.6403198,11.501709,63.7543335,45.8550415,63.7543335,45.8550415
				c-6.3515015,19.8043823-0.9508667,31.4871216-0.9508667,31.4871216
				C664.8862305,922.1917114,636.6494141,924.6651001,636.6494141,924.6651001z"/>
		</g>
	</g>
	<g id="left_arm_00000057145095977934074850000016170741037173028508_">
		<g id="right_arm">
			<g>
				<g>
					<path fill="#6081C1" d="M946.477478,563.2761841c17.9891357,46.7745361,66.2288208,150.8637085,82.7463989,160.1918945
						c16.5372314,9.3202515,49.6314697-11.3016357,49.6314697-11.3016357l-8.3790283-75.5546265
						c0,0-42.1719971-108.3695679-59.7418213-143.4164429s-26.9302979-37.3126526-26.9302979-37.3126526
						C958.9570923,465.1794128,926.3570557,510.9886475,946.477478,563.2761841z"/>
				</g>
				<g opacity="0.3">
					<path fill="#FFFFFF" d="M975.6885376,458.8633728c-8.9700928,5.6589355-18.0648804,15.2238464-24.9465942,27.5217285
						c-6.8781738,12.296936-11.5330811,27.3354187-11.5333862,43.9147034
						c-0.0003662,10.5957031,1.9030151,21.817627,6.3356323,33.3355103
						c7.4833984,19.4573975,20.1727905,48.7697754,33.6466064,77.0895996
						c0.2372437,0.4987183,0.8338623,0.7106323,1.3326416,0.4733887c0.4987183-0.2373047,0.7106323-0.8339233,0.4733887-1.3326416
						c-13.4525146-28.2739258-26.1312866-57.5643921-33.5859985-76.9484863
						c-4.3446045-11.2908936-6.2019653-22.2608643-6.2023315-32.6173706
						c-0.0003052-16.2015991,4.5507202-30.9095764,11.2789307-42.938385
						c6.7246094-12.0278625,15.6364136-21.3678589,24.2678223-26.8062439
						c0.4671631-0.2945557,0.6070557-0.9120483,0.312561-1.3792114c-0.2945557-0.4671936-0.9120483-0.6071167-1.3792114-0.312561
						L975.6885376,458.8633728z"/>
				</g>
				<path fill="#222B3F" d="M990.8226929,693.0385742c3.729248,42.2780151,69.6605835,65.7445068,92.7589722,25.8753052
					c23.0985107-39.8692017,8.5499268-93.005188-36.0689697-89.2260132
					C1009.3607178,632.93396,987.0934448,650.7605591,990.8226929,693.0385742z"/>
			</g>
		</g>
	</g>
	<g id="left_arm_00000102523854719307774460000002655091385891596985_">
		<g id="right_forearm">
			<g>
				<g>
					<g>
						<path fill="#9F5353" d="M857.9519043,767.2439575c-1.2355957-5.1522217,17.5768433-33.6287231,36.2839355-28.878418
							c18.6923828,4.7471924,34.684082,19.6162109,34.684082,19.6162109l77.5897217-78.9577026
							c0,0,29.9532471-29.9697266,49.795166-5.8543091c0.449707,0.557251,0.9025879,1.0997925,1.322876,1.6507568
							c15.3151855,19.6895752,9.1617432,48.4882813-12.4970703,60.8617554
							c-24.7067261,14.1202393-72.5647583,41.555603-93.725647,54.4043579l-0.0231323-0.0356445
							c-3.6880493,2.2248535-7.3898926,4.3699341-10.9154053,6.3374634
							c-16.4962769,12.6003418-18.1259766-5.6715088-34.4085693-2.8480835
							c-16.27948,2.8086548-13.6876831,14.4916992-21.8960571,12.4765015
							c-8.2199707-2.0330811-2.5274658-12.991272-2.5274658-12.991272s-6.3699341,5.2796021-9.3969116-0.1939697
							c-2.8598633-5.1765137-0.3102417-9.8428345-0.0355225-10.3374634
							c-0.4564209,0.409729-4.9319458,4.4493408-8.2891846-0.1263428
							c-3.5368652-4.8139648,1.7081299-12.6704102,1.7081299-12.6704102S859.1727905,772.3931885,857.9519043,767.2439575z"/>
					</g>
					<g>
						<path fill="#222B3F" d="M867.458313,768.0762939c-0.7247314-0.493042-0.897522-1.4830322-0.40448-2.2077637
							c7.3630981-10.6473389,20.1712036-17.6410522,20.711731-17.9406128
							c0.7661743-0.4204102,1.7322388-0.1217651,2.1526489,0.6444092c0.4204712,0.7662354,0.1218262,1.7322998-0.6444092,2.15271
							c-0.1217651,0.0662231-12.6862793,6.9274902-19.5930176,16.9498901
							c-0.090271,0.1344604-0.1889038,0.2363892-0.3021851,0.335144
							C868.8391724,768.4481812,868.0601807,768.4969482,867.458313,768.0762939z"/>
					</g>
					<g>
						<path fill="#222B3F" d="M875.4523926,780.5908203c-0.7247314-0.493042-0.897522-1.4829712-0.40448-2.2077637
							c7.3337402-10.6536255,18.5314941-17.161377,19.0037842-17.4293213
							c0.7546387-0.4382935,1.7269897-0.1690674,2.1652222,0.5855713c0.4382935,0.7546387,0.1721802,1.7123413-0.5855713,2.1652832
							c-0.1038818,0.0546265-11.043457,6.4330444-17.9680176,16.46698c-0.090271,0.1344604-0.1888428,0.2363892-0.3021851,0.335144
							C876.8248291,780.9301758,876.0458374,780.9789429,875.4523926,780.5908203z"/>
					</g>
					<g>
						<path fill="#222B3F" d="M883.3171387,792.631897c-0.7247314-0.493042-0.8974609-1.4830322-0.40448-2.2077637
							c7.3516235-10.6652222,17.6900635-16.1729126,18.1235352-16.4030762
							c0.77771-0.4025879,1.7438354-0.1039429,2.1464233,0.6738281c0.4025269,0.77771,0.1038818,1.7438354-0.6738892,2.1464233
							c-0.1038818,0.0546875-10.0655518,5.3815308-16.9869995,15.4008179
							c-0.09021,0.1343994-0.1888428,0.2363281-0.3021851,0.335083
							C884.6832886,793.0006714,883.9042969,793.0493774,883.3171387,792.631897z"/>
					</g>
				</g>
			</g>
		</g>
	</g>
	<g id="head_00000088838577538560881700000015833268584235284149_">
		<g id="head">
			<g>
				<g>
					<path fill="#9F5353" d="M893.187439,277.9060364c21.3612061,6.1933899,20.2789307,35.2062378,20.2789307,35.2062378
						s-3.2019653,34.2441406-21.2711182,49.9080505c-18.0841675,15.6639099-39.7310791,19.6024475-47.578064-6.7496338
						c-7.8469238-26.3520508-1.848938-50.5093689-1.848938-50.5093689
						C849.3374634,282.6112061,871.8262329,271.7126465,893.187439,277.9060364z"/>
					<path fill="#374D6D" d="M910.4747925,330.3395691c20.3540649-12.3417358,29.118042-51.5015259-19.0762939-61.6334534
						c-48.1943359-10.131958-58.1008301,46.1048279-58.1008301,46.1048279
						c39.2650146,3.2319946,59.9648438-27.8553162,59.9648438-27.8553162
						C893.7435303,320.012207,910.4747925,330.3395691,910.4747925,330.3395691z"/>
					<g>
						<g>
							<path fill="#9F5353" d="M925.1466064,317.6972046c-12.2816162-3.0215759-19.9031372,10.2822571-19.9031372,10.2822571
								l-5.4567871,18.0089722C935.9399414,352.8583069,937.4281616,320.6886597,925.1466064,317.6972046z"/>
							<g>
								<path fill="#222B3F" d="M903.8453979,339.7198792c-0.7215576-0.4960938-0.9169922-1.473175-0.4359131-2.2097778
									c7.4260864-11.0940552,19.7678223-13.875061,20.2939453-13.9953003
									c0.8718872-0.1803894,1.7137451,0.3607483,1.894104,1.2176208c0.1803589,0.856842-0.3607788,1.7137146-1.2176514,1.894104
									c-0.1052246,0.0300598-11.6051636,2.6156616-18.324646,12.6573792
									c-0.3006592,0.4660339-0.8117676,0.706543-1.322876,0.706543
									C904.4317017,339.990448,904.1160278,339.9152832,903.8453979,339.7198792z"/>
							</g>
							<g>
								<path fill="#222B3F" d="M916.9238281,338.6676025c0-0.045105-0.4509888-4.6450806-2.8261108-9.3803101
									c-0.3908691-0.7817078-0.0752563-1.7438049,0.7064819-2.1346436
									c0.7816162-0.3908386,1.7437134-0.0751648,2.1345825,0.706543
									c2.6607056,5.306488,3.1417236,10.3123474,3.1567993,10.5227966
									c0.0751343,0.8718567-0.571228,1.6535645-1.4431763,1.7287292c-0.0450439,0-0.1051636,0-0.1502686,0
									C917.6904297,340.1107178,916.9989014,339.4943848,916.9238281,338.6676025z"/>
							</g>
						</g>
						<g>
							<path fill="#FF8D88" d="M910.2793579,369.3790894c-2.6758423-2.3601074-4.8855591-5.9077759-6.2084351-9.9815979
								c-1.322876-4.0738525-1.6235352-8.237854-0.8417969-11.7254028c0.8568115-3.7731628,2.8562012-6.3587646,5.6672974-7.2757568
								c0.8417969-0.2705994,1.7287598,0.1803894,1.9993286,1.0222168c0.2705688,0.8267822-0.1803589,1.7287598-1.0222168,1.9993286
								c-1.6835938,0.5561829-2.9462891,2.2999573-3.5325928,4.9456787c-0.661438,2.931366-0.3908691,6.4940491,0.7666626,10.041748
								c1.1425171,3.5476685,3.0215454,6.5992737,5.2764282,8.5835876c2.02948,1.7888794,4.0738525,2.4803772,5.772583,1.9241638
								c1.6835938-0.5561829,2.9462891-2.2999573,3.5325928-4.9456787c0.661438-2.931366,0.3908691-6.4940491-0.7666626-10.041748
								c-0.8869629-2.750946-2.2247925-5.2163086-3.8634033-7.1404724c-0.571228-0.6614075-0.4810181-1.6686096,0.1804199-2.2398376
								c0.661438-0.5712585,1.6685791-0.4810486,2.2398071,0.1803894c1.9090576,2.224823,3.4574585,5.065979,4.4796753,8.2077637
								c1.322876,4.073822,1.6235352,8.2378235,0.8417969,11.7254028c-0.8568726,3.7731628-2.8562012,6.3587646-5.6672974,7.2757568
								c-0.7216187,0.2254639-1.4431152,0.3457336-2.1947632,0.3457336
								C914.7440186,372.280365,912.4440308,371.2882385,910.2793579,369.3790894z"/>
						</g>
					</g>
				</g>
				<g>
					<path fill="#222B3F" d="M872.9083862,312.3456116c0,0,0.2554932-6.8097534,2.4202271-6.7496338
						c2.1646729,0.0601196,2.3901978,2.555542,2.3901978,2.555542c8.3280029-4.164032,13.7247314,6.8247681,13.7247314,6.8247681
						C882.9050293,311.5639038,872.9083862,312.3456116,872.9083862,312.3456116z"/>
					<path fill="#222B3F" d="M856.2523804,315.7579651c0,0-0.4810791-6.4188843-2.9012451-6.0280457
						c-1.4130859,0.2254944-1.5784302,2.2849426-1.5784302,2.2849426c-6.43396-3.1117249-7.1404419,8.0574646-7.1404419,8.0574646
						C849.2922974,315.8631897,856.2523804,315.7579651,856.2523804,315.7579651z"/>
					<g>
						
							<ellipse transform="matrix(0.9995938 -0.0284998 0.0284998 0.9995938 -8.9871788 25.2026711)" fill="#222B3F" cx="879.6365356" cy="327.8788452" rx="4.5999851" ry="5.6823831"/>
						<circle fill="#FFFFFF" cx="878.56073" cy="325.9049683" r="1.2176329"/>
					</g>
					<g>
						
							<ellipse transform="matrix(0.9995938 -0.0284998 0.0284998 0.9995938 -9.0201569 24.4319592)" fill="#222B3F" cx="852.5828857" cy="328.6503906" rx="4.5999851" ry="5.6823831"/>
						<circle fill="#FFFFFF" cx="851.5021362" cy="326.6716003" r="1.2176329"/>
					</g>
					<g>
						<path fill="#222B3F" d="M857.2144775,343.6584167c-0.7817383-1.8339844-0.3307495-3.171875,0.1803589-3.9836121
							c1.2026367-1.894104,3.9235229-2.6006165,5.7124023-2.8561707l-0.1954346-9.6358643
							c-0.0150757-0.8719177,0.6914063-1.6085205,1.5633545-1.6235352c0.8568726,0,1.6084595,0.6914978,1.6235352,1.563385
							l0.2255249,11.1090393c0.0150146,0.8718872-0.661438,1.5934448-1.5333862,1.6235352
							c-1.6084595,0.0601196-4.1339111,0.6163025-4.7052002,1.51828c-0.0751953,0.1052246-0.2255249,0.3607788,0.0601196,1.0372314
							c1.3078003,3.0516052,5.9378662,1.8339539,6.1333008,1.7738342c0.8418579-0.240509,1.713623,0.2555542,1.9542236,1.0973816
							s-0.2555542,1.7137146-1.0973511,1.9542236c-0.7967529,0.2254944-1.8640137,0.3908386-3.0065308,0.3908386
							C861.5438843,347.6269836,858.5524292,346.7550964,857.2144775,343.6584167z"/>
					</g>
					<g>
						<path fill="#222B3F" d="M863.182373,359.4275513c-0.8267822-0.2705994-1.2927856-1.1575012-1.0222168-1.9993286
							c0.2705688-0.8268127,1.1575317-1.2928162,1.9993286-1.037262c0.3908691,0.1202698,9.605835,2.841156,18.3397827-6.7195435
							c0.5862427-0.6464233,1.5934448-0.6914978,2.2398071-0.1052246c0.6463623,0.5862427,0.6915283,1.5934448,0.1052246,2.2398376
							c-6.2385254,6.8247681-12.7927246,8.192749-17.046936,8.192749
							C865.1365967,359.9987793,863.3778076,359.4576111,863.182373,359.4275513z"/>
					</g>
				</g>
			</g>
		</g>
	</g>
</g>
</svg>
