<?xml version="1.0" encoding="iso-8859-1"?>
<!-- Generator: Adobe Illustrator 24.0.0, SVG Export Plug-In . SVG Version: 6.00 Build 0)  -->
<svg version="1.1" xmlns="http://www.w3.org/2000/svg" xmlns:xlink="http://www.w3.org/1999/xlink" x="0px" y="0px"
	 viewBox="0 0 1200 1200" enable-background="new 0 0 1200 1200" xml:space="preserve">
<g id="Background_x5F_Simple">
	<g>
		<g>
			<path fill="#EEEEEE" d="M830.3601685,69.1424179h-0.6998291c-2.2488403,0-4.0718994-1.8230515-4.0718994-4.071907V50.2929955
				c0-2.2488518,1.8230591-4.071907,4.0718994-4.071907h0.6998291c2.2488403,0,4.0718994,1.8230553,4.0718994,4.071907v14.7775154
				C834.4320679,67.3193665,832.6090088,69.1424179,830.3601685,69.1424179z"/>
			<path fill="#EEEEEE" d="M840.3880005,79.8701172v-0.699852c0-2.2488556,1.8230591-4.071907,4.0718994-4.071907h14.7775269
				c2.2489014,0,4.0718994,1.8230515,4.0718994,4.071907v0.699852c0,2.248848-1.822998,4.071907-4.0718994,4.071907h-14.7775269
				C842.2110596,83.9420242,840.3880005,82.1189651,840.3880005,79.8701172z"/>
			<path fill="#EEEEEE" d="M829.6603394,89.8979568h0.6998291c2.2488403,0,4.0718994,1.8230591,4.0718994,4.071907v14.7775192
				c0,2.248848-1.8230591,4.071907-4.0718994,4.071907h-0.6998291c-2.2488403,0-4.0718994-1.8230591-4.0718994-4.071907V93.9698639
				C825.5884399,91.7210159,827.411499,89.8979568,829.6603394,89.8979568z"/>
			<path fill="#EEEEEE" d="M819.6325073,79.1702652v0.699852c0,2.248848-1.8230591,4.071907-4.0719604,4.071907h-14.7774658
				c-2.2489014,0-4.0718994-1.8230591-4.0718994-4.071907v-0.699852c0-2.2488556,1.822998-4.071907,4.0718994-4.071907h14.7774658
				C817.8094482,75.0983582,819.6325073,76.9214096,819.6325073,79.1702652z"/>
		</g>
		<g>
			<path fill="#EEEEEE" d="M117.9695282,763.9592285h-0.6998444c-2.2488556,0-4.071907-1.8230591-4.071907-4.0718994v-14.7775269
				c0-2.2488403,1.8230515-4.0718994,4.071907-4.0718994h0.6998444c2.2488556,0,4.071907,1.8230591,4.071907,4.0718994v14.7775269
				C122.0414352,762.1361694,120.2183838,763.9592285,117.9695282,763.9592285z"/>
			<path fill="#EEEEEE" d="M127.9973755,774.6869507v-0.6998901c0-2.2488403,1.8230591-4.0718994,4.0719147-4.0718994h14.7775116
				c2.2488556,0,4.0718994,1.8230591,4.0718994,4.0718994v0.6998901c0,2.2488403-1.8230438,4.0718994-4.0718994,4.0718994
				h-14.7775116C129.8204346,778.7588501,127.9973755,776.935791,127.9973755,774.6869507z"/>
			<path fill="#EEEEEE" d="M117.2696838,784.7147827h0.6998444c2.2488556,0,4.071907,1.8230591,4.071907,4.0718994v14.7775269
				c0,2.2488403-1.8230515,4.0718994-4.071907,4.0718994h-0.6998444c-2.2488556,0-4.071907-1.8230591-4.071907-4.0718994
				v-14.7775269C113.1977768,786.5378418,115.0208282,784.7147827,117.2696838,784.7147827z"/>
			<path fill="#EEEEEE" d="M107.2418365,773.9870605v0.6998901c0,2.2488403-1.8230515,4.0718994-4.071907,4.0718994H88.3924179
				c-2.2488556,0-4.0719147-1.8230591-4.0719147-4.0718994v-0.6998901c0-2.2488403,1.8230591-4.0718994,4.0719147-4.0718994
				h14.7775116C105.4187851,769.9151611,107.2418365,771.7382202,107.2418365,773.9870605z"/>
		</g>
		<g>
			<path fill="#EEEEEE" d="M1087.9620361,475.1930847h-0.6998291c-2.2489014,0-4.0718994-1.8230591-4.0718994-4.0719299v-14.7774963
				c0-2.2488708,1.822998-4.0719299,4.0718994-4.0719299h0.6998291c2.2487793,0,4.0718994,1.8230591,4.0718994,4.0719299v14.7774963
				C1092.0339355,473.3700256,1090.2108154,475.1930847,1087.9620361,475.1930847z"/>
			<path fill="#EEEEEE" d="M1097.9898682,485.9207764v-0.6998596c0-2.2488403,1.822998-4.0718994,4.0718994-4.0718994h14.7774658
				c2.2489014,0,4.0718994,1.8230591,4.0718994,4.0718994v0.6998596c0,2.2488403-1.822998,4.0718994-4.0718994,4.0718994
				h-14.7774658C1099.8128662,489.9926758,1097.9898682,488.1696167,1097.9898682,485.9207764z"/>
			<path fill="#EEEEEE" d="M1087.262207,495.9486084h0.6998291c2.2487793,0,4.0718994,1.8230591,4.0718994,4.0718994v14.7775269
				c0,2.2488403-1.8231201,4.0718994-4.0718994,4.0718994h-0.6998291c-2.2489014,0-4.0718994-1.8230591-4.0718994-4.0718994
				v-14.7775269C1083.1903076,497.7716675,1085.0133057,495.9486084,1087.262207,495.9486084z"/>
			<path fill="#EEEEEE" d="M1077.234375,485.2209167v0.6998596c0,2.2488403-1.8231201,4.0718994-4.0720215,4.0718994h-14.7774658
				c-2.2489014,0-4.0718994-1.8230591-4.0718994-4.0718994v-0.6998596c0-2.2488403,1.822998-4.0718994,4.0718994-4.0718994
				h14.7774658C1075.4112549,481.1490173,1077.234375,482.9720764,1077.234375,485.2209167z"/>
		</g>
		<g>
			<path fill="#EEEEEE" d="M134.6658478,293.9363708h-0.6998444c-2.2488556,0-4.0718994-1.8230591-4.0718994-4.0719299v-14.7774963
				c0-2.2488708,1.8230438-4.0718994,4.0718994-4.0718994h0.6998444c2.2488556,0,4.0719147,1.8230286,4.0719147,4.0718994
				v14.7774963C138.7377625,292.1133118,136.9147034,293.9363708,134.6658478,293.9363708z"/>
			<path fill="#EEEEEE" d="M144.6936951,304.6640625v-0.6998596c0-2.2488403,1.8230591-4.0718994,4.0719147-4.0718994h14.7775116
				c2.2488556,0,4.0719147,1.8230591,4.0719147,4.0718994v0.6998596c0,2.2488403-1.8230591,4.0718994-4.0719147,4.0718994
				h-14.7775116C146.5167542,308.7359619,144.6936951,306.9129028,144.6936951,304.6640625z"/>
			<path fill="#EEEEEE" d="M133.9660034,314.6918945h0.6998444c2.2488556,0,4.0719147,1.8230591,4.0719147,4.0718994v14.7775269
				c0,2.2488708-1.8230591,4.0718994-4.0719147,4.0718994h-0.6998444c-2.2488556,0-4.0718994-1.8230286-4.0718994-4.0718994
				v-14.7775269C129.894104,316.5149536,131.7171478,314.6918945,133.9660034,314.6918945z"/>
			<path fill="#EEEEEE" d="M123.9381561,303.9642029v0.6998596c0,2.2488403-1.8230515,4.0718994-4.071907,4.0718994h-14.7775116
				c-2.2488556,0-4.071907-1.8230591-4.071907-4.0718994v-0.6998596c0-2.2488403,1.8230515-4.0718994,4.071907-4.0718994h14.7775116
				C122.1151047,299.8923035,123.9381561,301.7153625,123.9381561,303.9642029z"/>
		</g>
		<path fill="#EEEEEE" d="M310.4617004,164.1869202c-9.7790527,0-17.6728821,7.9174194-17.6728821,17.6728821
			c0,9.7789001,7.8938293,17.6728668,17.6728821,17.6728668c9.7554626,0,17.6728516-7.8939667,17.6728516-17.6728668
			C328.134552,172.1043396,320.2171631,164.1869202,310.4617004,164.1869202z M310.4606934,191.4345245
			c-5.3044128,0-9.5737305-4.269455-9.5737305-9.5737305c0-5.2828217,4.2693176-9.5521393,9.5737305-9.5521393
			c5.2828064,0,9.552124,4.2693176,9.552124,9.5521393C320.0128174,187.1650696,315.7434998,191.4345245,310.4606934,191.4345245z"
			/>
		<path fill="#EEEEEE" d="M1077.234375,766.215271c-9.7790527,0-17.6729736,7.9174194-17.6729736,17.6728516
			c0,9.7789307,7.8939209,17.6729126,17.6729736,17.6729126c9.7553711,0,17.6728516-7.8939819,17.6728516-17.6729126
			C1094.9072266,774.1326904,1086.9897461,766.215271,1077.234375,766.215271z M1077.2332764,793.4628906
			c-5.3043213,0-9.5737305-4.2694702-9.5737305-9.5737305c0-5.2828369,4.2694092-9.5521851,9.5737305-9.5521851
			c5.2828369,0,9.5522461,4.2693481,9.5522461,9.5521851
			C1086.7855225,789.1934204,1082.5161133,793.4628906,1077.2332764,793.4628906z"/>
	</g>
</g>
<g id="Layer_x5F_Medicine">
	<g>
		<g>
			<path fill="#6081C1" d="M918.8812256,262.9566956l60.6980591,60.6980591l-15.7330933,15.7331238
				c-0.4313354,0.6010437-0.9122314,1.166748-1.4425659,1.6970825c-9.5600586,9.5600586-30.928833,3.6910706-47.7225952-13.1027222
				c-16.8008423-16.8008423-22.6627808-38.1625671-13.1027222-47.7226257L918.8812256,262.9566956z"/>
			<path fill="#6081C1" d="M965.0906372,277.5726318c16.7938232,16.7937927,22.6628418,38.1625366,13.1027222,47.7226257
				c-2.0435791,2.0435486-4.6244507,3.3799438-7.5872192,4.0516968c-3.7901001,0.8768005-8.2095337,0.6576538-12.9188232-0.5585938
				c-8.7964478-2.2627563-18.6040039-7.9973755-27.2095337-16.6029053
				c-16.8008423-16.8008423-22.6627808-38.1625061-13.1097412-47.7155457
				c2.0435181-2.0435486,4.6245117-3.3799744,7.5942993-4.0587769c3.78302-0.8697815,8.1953735-0.6575928,12.8977051,0.5514832
				C946.6705322,263.2254333,956.4780884,268.960083,965.0906372,277.5726318z"/>
			<path opacity="0.3" fill="#FFFFFF" d="M965.0906372,277.5726318
				c16.7938232,16.7937927,22.6628418,38.1625366,13.1027222,47.7226257
				c-2.0435791,2.0435486-4.6244507,3.3799438-7.5872192,4.0516968c-3.7901001,0.8768005-8.2095337,0.6576538-12.9188232-0.5585938
				c-8.7964478-2.2627563-18.6040039-7.9973755-27.2095337-16.6029053
				c-16.8008423-16.8008423-22.6627808-38.1625061-13.1097412-47.7155457
				c2.0435181-2.0435486,4.6245117-3.3799744,7.5942993-4.0587769c3.78302-0.8697815,8.1953735-0.6575928,12.8977051,0.5514832
				C946.6705322,263.2254333,956.4780884,268.960083,965.0906372,277.5726318z"/>
			<path fill="#6081C1" d="M937.8600464,260.962616l32.7460938,68.3843384
				c-3.7901001,0.8768005-8.2095337,0.6576538-12.9188232-0.5585938l-32.7249756-68.3772278
				C928.7453613,259.5413513,933.1577148,259.75354,937.8600464,260.962616z"/>
		</g>
		<g>
			<path fill="#FF8D88" d="M300.4332275,779.8828735l60.6980591,60.6980591l-15.7331238,15.7331543
				c-0.4313354,0.6010132-0.9122009,1.166748-1.4425354,1.6970215c-9.5600586,9.5600586-30.928833,3.6911011-47.7226257-13.1026611
				c-16.8008423-16.8009033-22.6627502-38.1625977-13.1026917-47.7226563L300.4332275,779.8828735z"/>
			<path fill="#FF8D88" d="M346.6426392,794.4987793c16.7937927,16.7938232,22.6628113,38.1625366,13.1026917,47.7226563
				c-2.0435486,2.0435181-4.6244507,3.3799438-7.5872192,4.0516968c-3.7901001,0.8768311-8.2095032,0.6576538-12.9188232-0.5585938
				c-8.7964172-2.2627563-18.6039734-7.9973755-27.2095032-16.6029053
				c-16.8008423-16.8008423-22.6628113-38.1625366-13.1097717-47.7155151
				c2.0435486-2.0435791,4.6245117-3.3800049,7.5942993-4.0588379c3.7830505-0.869751,8.1954041-0.6575928,12.8977051,0.5515137
				C328.2225037,780.1516113,338.0300903,785.8862305,346.6426392,794.4987793z"/>
			<path opacity="0.3" fill="#FFFFFF" d="M346.6426392,794.4987793
				c16.7937927,16.7938232,22.6628113,38.1625366,13.1026917,47.7226563
				c-2.0435486,2.0435181-4.6244507,3.3799438-7.5872192,4.0516968c-3.7901001,0.8768311-8.2095032,0.6576538-12.9188232-0.5585938
				c-8.7964172-2.2627563-18.6039734-7.9973755-27.2095032-16.6029053
				c-16.8008423-16.8008423-22.6628113-38.1625366-13.1097717-47.7155151
				c2.0435486-2.0435791,4.6245117-3.3800049,7.5942993-4.0588379c3.7830505-0.869751,8.1954041-0.6575928,12.8977051,0.5515137
				C328.2225037,780.1516113,338.0300903,785.8862305,346.6426392,794.4987793z"/>
			<path fill="#FF8D88" d="M319.4120178,777.8887939l32.7460938,68.3843384
				c-3.7901001,0.8768311-8.2095032,0.6576538-12.9188232-0.5585938l-32.7249756-68.3772583
				C310.2973633,776.4675293,314.7097168,776.6796875,319.4120178,777.8887939z"/>
		</g>
		<g>
			<path fill="#EEEEEE" d="M779.8851929,188.6475677l-35.8850708,35.8862305
				c-8.3720703,8.3722839-21.9414063,8.3654175-30.3066406,0.000473
				c-8.3722534-8.3720398-8.3795776-21.9413757-0.0075073-30.3136749l35.8851318-35.8862152
				c8.3720093-8.3722992,21.9413452-8.3654327,30.3136597,0.0066071c4.1860962,4.1859894,6.2721558,9.6660767,6.2722778,15.1531982
				C786.1641235,178.9742584,784.071228,184.461441,779.8851929,188.6475677z"/>
			<path fill="#FF8D88" d="M779.8851929,188.6475677l-10.5852051,10.5855865
				c-8.3649292,8.3651581-21.9414063,8.3654175-30.3066406,0.0004578
				c-8.3722534-8.3720245-8.3724365-21.9484863-0.0075073-30.3136597l10.5852661-10.5855713
				c8.3720093-8.3722992,21.9413452-8.3654327,30.3136597,0.0066071c4.1860962,4.1859894,6.2721558,9.6660767,6.2722778,15.1531982
				C786.1641235,178.9742584,784.071228,184.461441,779.8851929,188.6475677z"/>
		</g>
		<g>
			<path fill="#6081C1" d="M223.0477448,677.559082l-33.0925446-38.4765625
				c-7.72052-8.9766235-6.6955414-22.5071411,2.2734833-30.2211914c8.9766235-7.72052,22.508255-6.7096558,30.228775,2.2669678
				l33.0925598,38.4765625c7.72052,8.9766235,6.6955566,22.5072021-2.2810822,30.2277222
				c-4.4882813,3.8602295-10.1094513,5.5292358-15.5811005,5.1176758
				C232.2226715,684.5461426,226.9079895,682.0474243,223.0477448,677.559082z"/>
			<path fill="#EEEEEE" d="M223.0477448,677.559082l-9.7615051-11.3496094
				c-7.7139587-8.9689941-6.6955414-22.5072021,2.2734833-30.2211914
				c8.9766235-7.7205811,22.5148315-6.7020264,30.2287903,2.2669067l9.7615051,11.3496704
				c7.72052,8.9766235,6.6955566,22.5072021-2.2810822,30.2277222c-4.4882813,3.8602295-10.1094513,5.5292358-15.5811005,5.1176758
				C232.2226715,684.5461426,226.9079895,682.0474243,223.0477448,677.559082z"/>
		</g>
	</g>
	<g id="Medicine_2">
		<g>
			<path fill="#314060" d="M690.0408325,1124.3990479L436.538147,936.0278931
				c-14.9578857-11.1148071-18.0733032-32.2508545-6.9584961-47.2087402l364.5946045-490.6573792
				c11.1147461-14.9578857,32.2508545-18.0733032,47.2087402-6.9584961l253.5026245,188.3711853
				c14.9578857,11.1147461,18.0733643,32.2508545,6.9584961,47.2087402l-364.5945435,490.6573486
				C726.1347656,1132.3984375,704.9987183,1135.513916,690.0408325,1124.3990479z"/>
			<g>
				<g>
					<path fill="#EEEEEE" d="M749.6422729,952.2069092l-53.4644775,71.9505615
						c-8.1473389,10.9643555-23.6912842,13.2554932-34.6557007,5.1081543
						c-10.9642944-8.1472778-13.2554321-23.6912231-5.1080933-34.6556396l53.4644775-71.9505005
						c8.1473389-10.9642944,23.6912842-13.2554932,34.6556396-5.1082153
						C755.4984741,925.6986084,757.7896118,941.2426147,749.6422729,952.2069092z"/>
					<path fill="#FF8D88" d="M724.7649536,985.6859131l-28.5871582,38.4715576
						c-8.1473389,10.9643555-23.6912842,13.2554932-34.6557007,5.1081543
						c-10.9642944-8.1472778-13.2554321-23.6912231-5.1080933-34.6556396l28.5871582-38.4714966L724.7649536,985.6859131z"/>
				</g>
				<g>
					<path fill="#EEEEEE" d="M623.9743042,858.826355l-53.4645386,71.9505005
						c-8.1473389,10.9643555-23.6912842,13.2554932-34.6556396,5.1081543
						c-10.9643555-8.1472778-13.2554932-23.6912231-5.1081543-34.6555786l53.4645386-71.9505005
						c8.1472778-10.9643555,23.6912842-13.2555542,34.6555786-5.1082153
						C629.8305054,832.3179932,632.121582,847.8619995,623.9743042,858.826355z"/>
					<path fill="#FF8D88" d="M599.0969238,892.3053589l-28.5871582,38.4714966
						c-8.1473389,10.9643555-23.6912842,13.2554932-34.6556396,5.1081543
						c-10.9643555-8.1472778-13.2554932-23.6912231-5.1081543-34.6555786l28.5871582-38.4714966L599.0969238,892.3053589z"/>
				</g>
				<g>
					<path fill="#EEEEEE" d="M875.1600342,783.289917l-53.4644775,71.9505005
						c-8.1473389,10.9644165-23.6912842,13.2555542-34.6557007,5.1082153
						c-10.9642944-8.1473389-13.2554321-23.6912231-5.1080933-34.6556396l53.4645386-71.9505005
						c8.1472778-10.9642944,23.6912231-13.2554932,34.6555786-5.1082153
						C881.0162354,756.7816162,883.307373,772.3256226,875.1600342,783.289917z"/>
					<path fill="#FF8D88" d="M850.2827148,816.7689209l-28.5871582,38.4714966
						c-8.1473389,10.9644165-23.6912842,13.2555542-34.6557007,5.1082153
						c-10.9642944-8.1473389-13.2554321-23.6912231-5.1080933-34.6556396l28.5871582-38.4714966L850.2827148,816.7689209z"/>
				</g>
				<g>
					<path fill="#EEEEEE" d="M749.4920654,689.9093628l-53.4645386,71.9505005
						c-8.1473389,10.9643555-23.6912842,13.2554932-34.6556396,5.1081543
						c-10.9643555-8.1472778-13.2554932-23.6912231-5.1081543-34.6555786l53.4645386-71.9505005
						c8.1472778-10.9643555,23.6912842-13.2555542,34.6555786-5.1082764
						C755.3482666,663.401001,757.6393433,678.9450073,749.4920654,689.9093628z"/>
					<path fill="#FF8D88" d="M724.6146851,723.3883057l-28.5871582,38.4715576
						c-8.1473389,10.9643555-23.6912842,13.2554932-34.6556396,5.1081543
						c-10.9643555-8.1472778-13.2554932-23.6912231-5.1081543-34.6555786l28.5871582-38.4715576L724.6146851,723.3883057z"/>
				</g>
				<g>
					<path fill="#EEEEEE" d="M1000.6778564,614.3729248l-53.4645386,71.9505005
						c-8.1473389,10.9643555-23.6912842,13.2555542-34.6556396,5.1082153s-13.2554932-23.6912842-5.1081543-34.6556396
						l53.4645386-71.9505005c8.1472778-10.9642944,23.6912842-13.2555542,34.6555786-5.1082153
						C1006.5339966,587.864624,1008.8251343,603.4086304,1000.6778564,614.3729248z"/>
					<path fill="#FF8D88" d="M975.8004761,647.8519287l-28.5871582,38.4714966
						c-8.1473389,10.9643555-23.6912842,13.2555542-34.6556396,5.1082153s-13.2554932-23.6912842-5.1081543-34.6556396
						l28.5871582-38.4714966L975.8004761,647.8519287z"/>
				</g>
				<g>
					<path fill="#EEEEEE" d="M875.0098267,520.9923706l-53.4645386,71.9505005
						c-8.1473389,10.9643555-23.6912842,13.2554932-34.6556396,5.1081543
						c-10.9642944-8.1472778-13.2554932-23.6912231-5.1081543-34.6555786l53.4645386-71.950531
						c8.1472778-10.964325,23.6912842-13.2555237,34.6555786-5.1082153
						C880.8660278,494.4840393,883.1571045,510.0280151,875.0098267,520.9923706z"/>
					<path fill="#FF8D88" d="M850.1324463,554.4713135l-28.5871582,38.4715576
						c-8.1473389,10.9643555-23.6912842,13.2554932-34.6556396,5.1081543
						c-10.9642944-8.1472778-13.2554932-23.6912231-5.1081543-34.6555786l28.5871582-38.4715576L850.1324463,554.4713135z"/>
				</g>
			</g>
			<g>
				<g>
					<path opacity="0.3" fill="#FFFFFF" d="M780.328186,606.8813477l-0.000061-0.000061
						c-15.8553467-11.7816772-19.1576538-34.1859131-7.3759766-50.0412598l53.4677734-71.9548645
						c11.7816772-15.8553467,34.1859131-19.1576843,50.0411987-7.3760071l0.000061,0.0000305
						c15.8553467,11.7816772,19.1577148,34.1859131,7.3760376,50.0412292l-53.4678345,71.954895
						C818.5877075,615.3606567,796.1835327,618.6630249,780.328186,606.8813477z"/>
				</g>
				<g>
					<path opacity="0.3" fill="#FFFFFF" d="M905.9962158,700.2619019l-0.000061-0.000061
						c-15.8553467-11.7816772-19.1577148-34.1858521-7.3760376-50.0411987l53.4678345-71.954895
						c11.7816772-15.8553467,34.1858521-19.1577148,50.0411987-7.3760376l0.000061,0.000061
						c15.8553467,11.7816772,19.1576538,34.1859131,7.3759766,50.0411987l-53.4677734,71.9549561
						C944.2557373,708.7412109,921.8515015,712.0435791,905.9962158,700.2619019z"/>
				</g>
			</g>
			<g>
				<g>
					<path opacity="0.3" fill="#FFFFFF" d="M654.8114014,775.7969971l-0.000061-0.000061
						c-15.8552856-11.7816772-19.1576538-34.1859131-7.3759766-50.0411987l53.4677734-71.9549561
						c11.7816772-15.8552856,34.1859131-19.1576538,50.0412598-7.3759766l0.000061,0.000061
						c15.8552856,11.7816772,19.1576538,34.1858521,7.3759766,50.0411987l-53.4677734,71.954895
						C693.0709839,784.2763062,670.666748,787.5786743,654.8114014,775.7969971z"/>
				</g>
				<g>
					<path opacity="0.3" fill="#FFFFFF" d="M780.4794312,869.1775513l-0.000061-0.000061
						c-15.8553467-11.7816772-19.1576538-34.1858521-7.3759766-50.0411987l53.4677734-71.954895
						c11.7816772-15.8553467,34.1859131-19.1577148,50.0411987-7.3760376l0.000061,0.000061
						c15.8553467,11.7816772,19.1577148,34.1859131,7.3760376,50.0411987l-53.4678345,71.9549561
						C818.7389526,877.6568604,796.3347778,880.9592285,780.4794312,869.1775513z"/>
				</g>
			</g>
			<g>
				<g>
					<path opacity="0.3" fill="#FFFFFF" d="M529.2946777,944.7126465l-0.000061-0.000061
						c-15.8553467-11.7816772-19.1576843-34.1859131-7.3760376-50.0411987l53.4678345-71.9549561
						c11.7816772-15.8552856,34.1858521-19.1576538,50.0411987-7.3759766l0.000061,0.000061
						c15.8553467,11.7816772,19.1576538,34.1858521,7.3759766,50.0411987l-53.4677734,71.954895
						C567.5541992,953.1919556,545.1499634,956.4943237,529.2946777,944.7126465z"/>
				</g>
				<g>
					<path opacity="0.3" fill="#FFFFFF" d="M654.9626465,1038.0931396h-0.000061
						c-15.8552856-11.7816162-19.1576538-34.1858521-7.3759766-50.0411987l53.4677734-71.954895
						c11.7816772-15.8553467,34.1859131-19.1577148,50.0412598-7.3760376v0.000061
						c15.8553467,11.7816772,19.1577148,34.1859131,7.3760376,50.0411987l-53.4677734,71.954895
						C693.222229,1046.5725098,670.8179932,1049.8748779,654.9626465,1038.0931396z"/>
				</g>
			</g>
			<g>
				<path opacity="0.7" fill="#FFFFFF" d="M840.0970459,495.0483398c3.0857544-4.1493835,7.5392456-6.6393127,12.3023071-7.3464661
					c4.7644653-0.6972046,9.7470093,0.4019165,13.8987427,3.4845276c2.0982056,1.5591125,5.0631104,1.1220703,6.6221924-0.9761353
					c1.5592041-2.0982666,1.1221924-5.0631104-0.9760132-6.6222229c-6.2316284-4.6330872-13.8029785-6.3065796-20.925415-5.2516785
					c-7.1238403,1.0449829-13.8903198,4.8318787-18.5201416,11.0658569
					c-1.5592041,2.0982361-1.1221924,5.0631409,0.9760742,6.6223145c2.0982056,1.5591431,5.0632324,1.1221313,6.6223755-0.9761047
					L840.0970459,495.0483398z"/>
				<path opacity="0.7" fill="#FFFFFF" d="M803.730957,543.9887085l26.2967529-35.3892517
					c1.5592041-2.0982971,1.1221313-5.0632019-0.9760742-6.622345c-2.0983276-1.5591736-5.0631714-1.1221619-6.6223755,0.9761353
					l-26.296814,35.3892212c-1.5591431,2.0982666-1.1221313,5.0631714,0.9761353,6.6223755
					C799.2067871,546.5239258,802.1717529,546.0869141,803.730957,543.9887085"/>
				<path opacity="0.7" fill="#FFFFFF" d="M965.7650757,588.4289551c3.0857544-4.1494141,7.5391846-6.6393433,12.3023071-7.3464966
					c4.7644653-0.6972046,9.7469482,0.4019165,13.8987427,3.4844971c2.0982056,1.5591431,5.0630493,1.1220703,6.6221924-0.9761353
					s1.1221313-5.0631104-0.9760742-6.6221924c-6.2316284-4.6331177-13.8029175-6.3065796-20.925354-5.2516479
					c-7.1238403,1.0449219-13.8903809,4.8318481-18.5202026,11.0657959
					c-1.5591431,2.0982666-1.1221924,5.0631714,0.9761353,6.6223755c2.0982056,1.559082,5.0631714,1.1220703,6.6223145-0.9761353
					L965.7650757,588.4289551z"/>
				<path opacity="0.7" fill="#FFFFFF" d="M929.3989258,637.3692627l26.296814-35.3892212
					c1.5592041-2.0983276,1.1220703-5.0632324-0.9761353-6.6223145c-2.0982666-1.5592041-5.0631714-1.1221924-6.6223145,0.9760742
					l-26.296814,35.3892822c-1.5591431,2.0982056-1.1221924,5.0631104,0.9761353,6.6223145
					C924.8748169,639.904541,927.8397827,639.4675293,929.3989258,637.3692627"/>
				<path opacity="0.7" fill="#FFFFFF" d="M714.5802612,663.9639893c3.0858154-4.1494141,7.5392456-6.6393433,12.3023071-7.3464966
					c4.7644653-0.6971436,9.7470093,0.4019775,13.8987427,3.4845581c2.0982056,1.5591431,5.0631104,1.1220703,6.6222534-0.9761353
					c1.5591431-2.0982666,1.1221313-5.0631104-0.9760742-6.6222534c-6.2316284-4.6330566-13.8029785-6.3065186-20.925415-5.2516479
					c-7.1237793,1.0449829-13.8903198,4.8319092-18.5201416,11.0658569
					c-1.5591431,2.0982666-1.1221924,5.0631104,0.9761353,6.6223145c2.0982056,1.5591431,5.0631714,1.1221313,6.6223145-0.9761353
					L714.5802612,663.9639893z"/>
				<path opacity="0.7" fill="#FFFFFF" d="M678.2141724,712.9043579l26.296814-35.3892212
					c1.5591431-2.0983276,1.1220703-5.0632324-0.9761353-6.6223755c-2.0983276-1.5592041-5.0631714-1.1221313-6.6223145,0.9761353
					l-26.296814,35.3892212c-1.5592041,2.0982666-1.1221924,5.0631714,0.9760742,6.6223755
					C673.6900024,715.4395752,676.6550293,715.0026245,678.2141724,712.9043579"/>
				<path opacity="0.7" fill="#FFFFFF" d="M840.248291,757.3446045c3.0857544-4.1494141,7.5392456-6.6393433,12.3023071-7.3464966
					c4.7644653-0.6972046,9.7470093,0.4019165,13.8987427,3.4844971c2.0982056,1.5591431,5.0631104,1.1220703,6.6221924-0.9761353
					c1.5591431-2.0982056,1.1221313-5.0631104-0.9760742-6.6221924c-6.2316284-4.6331177-13.8029175-6.3065796-20.925354-5.2516479
					c-7.1238403,1.0449219-13.8903198,4.8318481-18.5202026,11.0657959
					c-1.5591431,2.0982666-1.1221313,5.0631714,0.9761353,6.6223755c2.0982056,1.559082,5.0631714,1.1221313,6.6223755-0.9761353
					L840.248291,757.3446045z"/>
				<path opacity="0.7" fill="#FFFFFF" d="M803.8821411,806.2849121l26.296814-35.3892212
					c1.5592041-2.0982666,1.1220703-5.0632324-0.9761353-6.6223145c-2.0982666-1.5592041-5.0631104-1.1221924-6.6223145,0.9760742
					l-26.296814,35.3892822c-1.5591431,2.0982056-1.1221924,5.0631104,0.9761353,6.6223145
					C799.3580322,808.8201904,802.322998,808.3831787,803.8821411,806.2849121"/>
				<path opacity="0.7" fill="#FFFFFF" d="M589.0635376,832.8796387c3.0857544-4.1494141,7.5392456-6.6393433,12.3023071-7.3464966
					c4.7644653-0.6971436,9.7469482,0.4019775,13.8987427,3.4845581c2.0982056,1.5591431,5.0630493,1.1220703,6.6221924-0.9761353
					c1.5591431-2.0982666,1.1221313-5.0631104-0.9760742-6.6222534c-6.2316284-4.6330566-13.8029175-6.3065186-20.925354-5.2516479
					c-7.1238403,1.0449829-13.8903809,4.8319092-18.5202026,11.0658569
					c-1.5591431,2.0982666-1.1221924,5.0631104,0.9761353,6.6223145c2.0982056,1.5591431,5.0631714,1.1221313,6.6223145-0.9761353
					L589.0635376,832.8796387z"/>
				<path opacity="0.7" fill="#FFFFFF" d="M552.6973877,881.8200073l26.296814-35.3892212
					c1.5592041-2.0983276,1.1220703-5.0632324-0.9761353-6.6223755c-2.0982666-1.5592041-5.0631104-1.1221313-6.6223145,0.9761353
					l-26.296814,35.3892212c-1.5591431,2.0982666-1.1221924,5.0631714,0.9761353,6.6223755
					C548.1732788,884.3552246,551.1382446,883.9182739,552.6973877,881.8200073"/>
				<path opacity="0.7" fill="#FFFFFF" d="M714.7315063,926.2602539c3.0857544-4.1494141,7.5392456-6.6393433,12.3023071-7.3464966
					c4.7644653-0.6972046,9.7470093,0.4019165,13.8987427,3.4844971c2.0982056,1.5591431,5.0631104,1.1220703,6.6221924-0.9761353
					c1.5592041-2.0982056,1.1221924-5.0631104-0.9760132-6.6221924c-6.2316284-4.6331177-13.8029785-6.3065796-20.925415-5.2516479
					c-7.1238403,1.0449219-13.8903198,4.8318481-18.5201416,11.0657959
					c-1.5592041,2.0982666-1.1221924,5.0631714,0.9760742,6.6223755c2.0982056,1.559082,5.0632324,1.1221313,6.6223755-0.9761353
					L714.7315063,926.2602539z"/>
				<path opacity="0.7" fill="#FFFFFF" d="M678.3654175,975.2005615l26.2967529-35.3892212
					c1.5592041-2.0982666,1.1221313-5.0632324-0.9760742-6.6223145c-2.0983276-1.5592041-5.0631714-1.1221924-6.6223755,0.9760742
					l-26.296814,35.3892822c-1.5591431,2.0982056-1.1221313,5.0631104,0.9761353,6.6223145
					C673.8412476,977.7358398,676.8062134,977.2988281,678.3654175,975.2005615"/>
			</g>
		</g>
	</g>
</g>
<g id="Layer_x5F_Plants">
	<g>
		<g>
			<g>
				<g>
					<path fill="#314060" d="M316.2493286,1116.4749756c0,0-71.6399689-73.0736084-125.7993317-130.617981
						c-54.1593781-57.5443115-113.628334-27.8455811-72.7766571,34.3986206
						C183.5384979,1120.6119385,316.2493286,1116.4749756,316.2493286,1116.4749756z"/>
					<g opacity="0.3">
						<path fill="#FFFFFF" d="M278.8201904,1104.37854c-0.2236328,0.0096436-0.4531555-0.0407715-0.6631165-0.157959
							c-68.5533447-38.3410645-142.7610474-116.9992676-143.5023499-117.7894897
							c-0.4726868-0.50354-0.4477081-1.2949829,0.0558777-1.7672729c0.5031281-0.4730835,1.2941895-0.4476929,1.7672882,0.0558472
							c0.7391357,0.7870483,74.6880341,79.1687622,142.9002838,117.3184204
							c0.6023865,0.3365479,0.817749,1.098999,0.4807129,1.7017822
							C279.6390686,1104.1323242,279.2390442,1104.3605957,278.8201904,1104.37854z"/>
					</g>
				</g>
				<g>
					<path fill="#6081C1" d="M256.5735474,894.5598145c-95.9402618-70.1786499-97.2726746,46.052063-16.0053406,131.7669678
						c44.8084412,47.2607422,136.4645691,90.1481934,136.4645691,90.1481934S352.5137329,964.7382202,256.5735474,894.5598145z"/>
					<g opacity="0.3">
						<path fill="#FFFFFF" d="M220.671936,913.8340454c0.0287933,0.036499,83.8455811,89.6911011,135.8025818,178.3231812
							c0.3492432,0.5958252,0.1494141,1.3618164-0.4463501,1.7111816c-0.5958252,0.3491211-1.3618469,0.149292-1.7110596-0.4464111
							c-25.869751-44.1379395-59.7472839-88.6265259-87.1507568-122.0631104
							c-13.7019196-16.7191772-25.7855225-30.677124-34.4421082-40.4533081
							c-4.3282776-4.8881836-7.7997742-8.730896-10.1883087-11.350647
							c-1.1943817-1.3099365-2.1178741-2.3141479-2.7424469-2.9902954
							c-0.6246033-0.6763306-0.9475708-1.0218506-0.9485779-1.0228882c-0.4715271-0.5045776-0.444809-1.2958374,0.0597076-1.767334
							c0.5045319-0.4715576,1.2958679-0.4448242,1.767395,0.0597534L220.671936,913.8340454z"/>
					</g>
				</g>
			</g>
			<g>
				
					<ellipse transform="matrix(0.5275434 -0.8495281 0.8495281 0.5275434 -852.7037354 593.0195923)" fill="#6081C1" cx="106.8047867" cy="1063.1365967" rx="8.3801565" ry="11.5459938"/>
				
					<ellipse transform="matrix(0.6306075 -0.7761019 0.7761019 0.6306075 -762.6563721 445.6837769)" fill="#6081C1" cx="86.8675919" cy="1024.020874" rx="6.2651691" ry="8.6320105"/>
				
					<ellipse transform="matrix(0.8320147 -0.5547535 0.5547535 0.8320147 -491.9488831 248.4662628)" fill="#6081C1" cx="164.2923126" cy="936.5377197" rx="10.0818377" ry="13.8905315"/>
			</g>
		</g>
		<g>
			<g>
				<g>
					<path fill="#314060" d="M854.1810303,1116.4820557c0,0,50.6177368-51.6308594,88.8844604-92.2891846
						c38.2667236-40.6583862,80.2850342-19.6744995,51.4209595,24.3045654
						C947.9489136,1119.4050293,854.1810303,1116.4820557,854.1810303,1116.4820557z"/>
					<g opacity="0.3">
						<path fill="#FFFFFF" d="M880.6268311,1107.9351807c0.15802,0.0068359,0.3201904-0.0288086,0.4685669-0.1115723
							c48.4368896-27.09021,100.8689575-82.666748,101.3927002-83.2250977
							c0.3339844-0.355835,0.3163452-0.9150391-0.0394897-1.2487183c-0.3554688-0.3342285-0.9144287-0.3162842-1.2486572,0.0394897
							c-0.5222778,0.5560913-52.7714233,55.9372559-100.9673462,82.8922119
							c-0.4255981,0.237793-0.5777588,0.7764893-0.3396606,1.2023926
							C880.0482788,1107.7612305,880.3309326,1107.9224854,880.6268311,1107.9351807z"/>
					</g>
				</g>
				<g>
					<path fill="#6081C1" d="M896.3453979,959.6860962c67.7873535-49.5852051,68.7287598,32.5384521,11.3087158,93.1010132
						c-31.65979,33.3924561-96.420105,63.6949463-96.420105,63.6949463S828.5581055,1009.2712402,896.3453979,959.6860962z"/>
					<g opacity="0.3">
						<path fill="#FFFFFF" d="M921.7119751,973.3045044c-0.0203857,0.0257568-59.2417603,63.3718872-95.9523926,125.9956665
							c-0.2467651,0.4208984-0.1055908,0.9621582,0.3153687,1.2089844c0.4210205,0.2467041,0.9622192,0.1055908,1.2089844-0.3154297
							c18.2784424-31.1859131,42.2149048-62.619751,61.5770264-86.2446289
							c9.6812134-11.8130493,18.2189941-21.6751099,24.3353271-28.5825806
							c3.0582275-3.4537964,5.5109863-6.1688843,7.1986694-8.0198975c0.8438721-0.9255371,1.4963989-1.6350708,1.9376831-2.112854
							c0.4413452-0.4778442,0.6694946-0.7219849,0.6702271-0.7227173c0.3331299-0.3565063,0.31427-0.9155884-0.0421753-1.2487183
							c-0.3565063-0.3331909-0.9155884-0.31427-1.2487793,0.0422363L921.7119751,973.3045044z"/>
					</g>
				</g>
			</g>
			<g>
				
					<ellipse transform="matrix(0.5547535 -0.8320147 0.8320147 0.5547535 -395.0247803 1240.5244141)" fill="#6081C1" cx="961.5474243" cy="989.3459473" rx="9.8144636" ry="7.1234012"/>
			</g>
		</g>
	</g>
</g>
<g id="Layer_x5F_Character_1">
	<g id="right_arm">
		<g>
			<g>
				<g>
					<path fill="#FBBDBB" d="M375.6288147,309.2139282l-50.0528259,45.9507141
						c-29.1230164,27.181366,8.4748535,80.9885254,36.8319397,62.105072l61.3507385-53.3205566L375.6288147,309.2139282z"/>
					<path fill="#FF8D88" d="M469.8327637,233.6573181c-20.4968567-1.2320099-116.1695862,67.3371277-116.1695862,67.3371277
						s17.0238342,53.7242737,52.4897766,87.9481201c0,0,42.9924011-39.7263184,78.4017029-81.3536377
						S495.4151611,235.1950073,469.8327637,233.6573181z"/>
					<g>
						<path opacity="0.3" fill="#FFFFFF" d="M409.3275452,368.8913574c-0.3674316,0.0315247-0.7452393-0.088562-1.032074-0.363678
							c-26.3586426-25.1870728-42.6615601-68.8757019-42.8242798-69.3139343
							c-0.2546387-0.6897278,0.0994568-1.4537964,0.7892761-1.7071533c0.687439-0.2505493,1.4522705,0.0969543,1.7069092,0.7866821
							c0.159668,0.4332886,16.2576294,43.5556641,42.1649475,68.3122864c0.5308838,0.507019,0.5509338,1.3484802,0.0439148,1.879364
							C409.9417725,368.729187,409.638031,368.8647156,409.3275452,368.8913574z"/>
					</g>
				</g>
			</g>
		</g>
	</g>
	<g id="right_forearm_and_medicine">
		<g>
			<path fill="#FBBDBB" d="M321.4370728,359.7788086c-35.448761,30.7483521,22.6538696,178.7736816,22.6538696,178.7736816
				s-6.5346375,4.633667-8.5544434,7.366333s-10.9012756,24.8723755-5.9406128,25.534668
				c11.6435852,1.5544434,14.0609131-12.1221924,15.0630798-12.9628906c1.7693176-1.4842529,4.686554-2.6748657,4.686554-2.6748657
				s8.0523682,26.2218628,10.5474243,27.2911987c2.4950256,1.0692749,45.6237488-11.6433105,47.0494995-14.9143066
				c1.4257202-3.2710571-29.9342346-37.8381958-29.9342346-37.8381958s3.2015381-94.9251709,3.2015381-130.6903076
				S352.4861755,332.8467102,321.4370728,359.7788086z"/>
			<g>
				<path fill="#314060" d="M486.0801392,530.2334595c-18.0499878,41.6500244-51.8799438,67.0700073-75.5799561,56.7999878
					l-9.9000244-4.289978l-143.7000122-62.2999878l65.3800049-150.8000183l153.6000366,66.5799561
					c1.7299805,0.75,3.3599854,1.6800537,4.8899536,2.7700195c2.9400024,2.0700073,5.4900513,4.7299805,7.6500244,7.8800049
					c4.2199707,6.1199951,6.9199829,14.1199951,8.0599976,23.3400269
					C498.6401367,487.4434509,495.3301392,508.9034729,486.0801392,530.2334595z"/>
				<path fill="#222B3F" d="M486.0801392,530.2334595c-18.0499878,41.6500244-51.8799438,67.0700073-75.5799561,56.7999878
					l-9.9000244-4.289978l41.6300049-95.5100403l38.539978-48.2399902c2.9400024,2.0700073,5.4900513,4.7299805,7.6500244,7.8800049
					c4.2199707,6.1199951,6.9199829,14.1199951,8.0599976,23.3400269
					C498.6401367,487.4434509,495.3301392,508.9034729,486.0801392,530.2334595z"/>
				<path fill="#EEEEEE" d="M252.3424988,524.4536133l69.5958557-160.5429382l41.6132507,18.0394592
					c1.4625244,0.3674011,2.8952637,0.8551941,4.2979431,1.4632874
					c25.2857971,10.9614563,30.1685791,55.8686218,10.9129639,100.2872314
					c-19.2637024,44.4373474-55.3689575,71.5538025-80.6547546,60.5923157L252.3424988,524.4536133z"/>
				<path opacity="0.2" d="M252.3424988,524.4536133l69.5958557-160.5429382l41.6132507,18.0394592
					c1.4625244,0.3674011,2.8952637,0.8551941,4.2979431,1.4632874
					c25.2857971,10.9614563,30.1685791,55.8686218,10.9129639,100.2872314
					c-19.2637024,44.4373474-55.3689575,71.5538025-80.6547546,60.5923157L252.3424988,524.4536133z"/>
				<path opacity="0.2" d="M346.1633301,465.6092834l24.8873901,10.7887573
					c1.8408508,0.7980042,2.6862183,2.9372253,1.8882141,4.7780457v0.0000305
					c-0.7980042,1.8408203-2.9372253,2.6862183-4.7780457,1.8881836l-24.8873901-10.7887573
					c-1.8408508-0.7980042-2.6862183-2.9371948-1.8882141-4.7780457l0,0
					C342.1832886,465.6566467,344.3224792,464.8112793,346.1633301,465.6092834z"/>
				<g opacity="0.2">
					<path d="M304.3778992,518.7663574l24.8873901,10.7887573c1.8408203,0.7980347,2.6862183,2.9372559,1.8882141,4.7780762l0,0
						c-0.7980347,1.8408203-2.9372253,2.6862183-4.7780762,1.8881836l-24.8873901-10.7887573
						c-1.8408203-0.7979736-2.6862183-2.9371948-1.8882141-4.7780151h0.0000305
						C300.3978577,518.8137207,302.5370483,517.9683838,304.3778992,518.7663574z"/>
					<path d="M356.3951111,398.7736206l24.8873901,10.7887573c1.8408508,0.7980042,2.6862183,2.9371948,1.8882141,4.7780457l0,0
						c-0.7980042,1.8408508-2.9372253,2.6862183-4.7780457,1.8882141l-24.8873901-10.7887573
						c-1.8408508-0.7980042-2.6862183-2.9372253-1.8882141-4.7780457v-0.0000305
						C352.4150696,398.8209839,354.5542908,397.9755859,356.3951111,398.7736206z"/>
				</g>
				<path fill="#EEEEEE" d="M245.4319153,425.9014282c19.2555847-44.4186096,55.3688354-71.5538635,80.6547546-60.5923462
					c5.4050598,2.3431091,9.8721313,6.2347107,13.3652649,11.3482056
					c4.5016785,6.5282288,7.3971252,15.0705872,8.6195068,24.9095459
					c2.300415,18.3711243-1.2235107,41.2602539-11.0905151,64.0213623
					c-19.2637329,44.4373474-55.368866,71.553894-80.6360474,60.6004639
					c-5.4050751-2.3431396-9.8722534-6.2348022-13.3840027-11.3563232
					c-4.4830475-6.5201721-7.3864441-15.0438843-8.6171722-24.8641968
					C232.0329132,471.5702515,235.5568237,448.6811523,245.4319153,425.9014282z"/>
			</g>
			<path fill="#FBBDBB" d="M355.4403687,559.3039551c0,0-3.0883179,17.3737793,3.8823242,22.2849121
				s9.6697998-1.8684692,9.6697998-1.8684692s3.6377869,5.5443726,8.3904724,3.6536255
				c4.7527161-1.8908081,4.2246399-5.9041748,4.2246399-5.9041748s0.2112427,5.2807617,5.3864136,5.7032471
				c5.1751709,0.4224243,5.9812622-3.0056763,5.9812622-3.0056763s-0.3836365,5.0123901,4.5802917,5.8572998
				c4.9639587,0.8449097,6.0304565-1.2587891,6.0304565-1.2587891s6.9602966-13.5274048,0.8345642-17.7520752
				c-6.1257019-4.2246094-9.9278564,9.8829956-9.9278564,9.8829956s4.4358521-16.1143188-3.5909424-16.9592285
				s-9.1885681,13.3075562-9.1885681,13.3075562s2.1123047-19.5388794-6.5629883-20.3570557
				c-5.9481201-0.5609741-6.1109009,16.7661743-6.1109009,16.7661743s-1.1617737-17.0028687-7.8155518-17.0014648
				C357.2088013,552.6536255,355.4403687,559.3039551,355.4403687,559.3039551z"/>
		</g>
	</g>
	<g id="left_leg">
		<g>
			<g>
				<path fill="#ECBDBB" d="M918.902771,888.6862793c0,0,16.9341431-17.3264771,16.3613892-17.7659912
					c-0.4122314-0.3162842-13.338562-15.5848999-20.2664795-23.7761841
					c-2.5601807-3.0198364-4.2935181-5.0778198-4.2935181-5.0778198l-20.151123,21.519104l15.1300659,13.3925171
					L918.902771,888.6862793z"/>
				<path fill="#222B3F" d="M890.5530396,863.5853882l15.1300659,13.3925171
					c7.4754028-13.3004761,9.0892944-24.0372925,9.3145752-29.8338013
					c-2.5601807-3.0198364-4.2935181-5.0778198-4.2935181-5.0778198L890.5530396,863.5853882z"/>
			</g>
			<g>
				<path fill="#222B3F" d="M931.1488647,860.4710083c0,0,46.2119751-4.883728,49.7145386-8.2626343
					c3.5025024-3.3789063,20.4605713-17.9692993,20.4605713-17.9692993l33.3387451,14.6608887
					c0,0-49.539917,66.9370117-83.0164795,95.545166c-18.4171143-14.737915-36.5196533-36.2105713-43.9981079-56.5079956
					C917.1734009,881.6530151,925.0993652,872.6549072,931.1488647,860.4710083z"/>
				<g>
					<path opacity="0.3" fill="#FFFFFF" d="M983.4321289,868.4366455c0.2797852-0.364624,0.3621216-0.8644409,0.1744385-1.319458
						c-0.2818604-0.6777954-1.0595093-0.9995117-1.7393799-0.7192383
						c-29.6008911,12.291687-56.015564,9.326416-56.2769775,9.2960205
						c-0.7324219-0.0906372-1.3931274,0.4334717-1.4769897,1.1613159c-0.0890503,0.7303467,0.4314575,1.3915405,1.1613159,1.4769287
						c0.2712402,0.034668,27.3738403,3.0760498,57.612793-9.4755859
						C983.1101685,868.7624512,983.2945557,868.6159058,983.4321289,868.4366455z"/>
				</g>
				<path fill="#FF8D88" d="M984.0681152,845.2644653c0,0,29.604126-39.7689209,70.244873,6.8833618
					c0,0-51.2269287,67.1592407-92.6896362,104.1989746l-14.2613525-11.852478c0,0,32.8413696-32.1286011,51.5476074-56.9036865
					C998.9096069,887.5906372,980.5272827,865.2965088,984.0681152,845.2644653z"/>
				
					<ellipse transform="matrix(0.6087402 -0.7933696 0.7933696 0.6087402 -349.3807983 1103.2092285)" fill="#EEEEEE" cx="943.8153687" cy="905.8297119" rx="14.0776682" ry="16.965395"/>
			</g>
			<g>
				<path fill="#6081C1" d="M896.8181152,805.4122314c0,0,18.2676392,18.5630493,27.0216064,37.6661377
					c0,0-9.2614746,13.9901123-20.9919434,23.5186157c-11.7304077,9.5285034-20.3464355,10.869751-20.3464355,10.869751
					l-28.8406372-27.6775513C862.4835205,829.6886597,876.5410156,814.583374,896.8181152,805.4122314z"/>
				<path opacity="0.3" fill="#FFFFFF" d="M896.8181152,805.4122314c0,0,18.2676392,18.5630493,27.0216064,37.6661377
					c0,0-9.2614746,13.9901123-20.9919434,23.5186157c-11.7304077,9.5285034-20.3464355,10.869751-20.3464355,10.869751
					l-28.8406372-27.6775513C862.4835205,829.6886597,876.5410156,814.583374,896.8181152,805.4122314z"/>
			</g>
			<path fill="#6081C1" d="M896.9901733,813.9035034c0,0-15.0599976,27.7999878-35.0800171,33.0099487L581.920166,621.7434692
				l-32.0599976-25.789978l-9.25-19.6000366l-7.8599854-16.6499634
				c-51.8500366-61.3100281,44.2999878-139.8500671,86.3599854-99.1700745L896.9901733,813.9035034z"/>
			<polygon fill="#222B3F" points="581.920166,621.7434692 549.8601685,595.9534912 540.6101685,576.3534546 
				540.6101685,553.9035034 580.2401733,557.003479 			"/>
			<path opacity="0.3" fill="#FFFFFF" d="M751.8106689,679.0080566
				c18.6237183-15.4968262,67.8391113,30.3775024,43.2921753,57.6386719
				C770.5559692,763.9078979,727.2255859,699.465271,751.8106689,679.0080566z"/>
			<g opacity="0.3">
				<path fill="#FFFFFF" d="M659.892395,517.0874023c0.309082-0.2966919,0.4712524-0.5027466,0.4976196-0.5352783
					c0.4490356-0.5822144,0.3449097-1.4182129-0.2336426-1.8671265c-0.5822144-0.4490356-1.4147339-0.3338013-1.8615112,0.2282715
					c-0.1091309,0.1262817-2.1573486,2.5712891-6.9516602,2.6018677c-7.0592041,0.0449219-19.7704468-5.0893555-40.2510986-29.79953
					c-0.4696655-0.56427-1.3083496-0.6429443-1.8735352-0.1741943c-0.5202637,0.4292297-0.6437988,1.305542-0.1759644,1.8716125
					c21.258606,25.6480713,34.8346558,30.8845215,42.4813232,30.7615967
					C656.1869507,520.09729,658.8563843,518.0819092,659.892395,517.0874023z"/>
			</g>
		</g>
	</g>
	<g id="right_leg">
		<g>
			<g>
				<polygon fill="#ECBDBB" points="451.8034973,1048.9147949 426.585968,1042.5826416 427.9866943,1014.7439575 
					428.5403137,1003.7387695 460.604187,1012.3919678 455.9302368,1031.8365479 				"/>
				<path fill="#222B3F" d="M455.9302368,1031.8365479c-10.954071-4.1398926-20.2368164-10.2682495-27.9435425-17.0925903
					l0.5536194-11.005188l32.0638733,8.6531982L455.9302368,1031.8365479z"/>
			</g>
			<g>
				<path fill="#222B3F" d="M419.4534302,1042.5400391c0,0,21.2427063-7.2347412,38.2658081,2.2894287
					c0,0,7.8545837,19.1363525,7.4461975,50.9038086c0,0-17.3560486,38.0701904-45.1383972,37.7827148
					c-27.7823181-0.2874756-48.8341675-9.5743408-48.8341675-9.5743408s23.4144287-40.5454102,27.4405518-48.2374268
					S419.4534302,1042.5400391,419.4534302,1042.5400391z"/>
				<g opacity="0.3">
					<path fill="#FFFFFF" d="M423.1651917,1099.3769531c-6.2771912-0.7633057-18.8388977-3.0467529-22.0316162-9.2974854
						c-1.2554321-2.4547119-0.9653625-5.1845703,0.8579407-8.1099854
						c8.2934265-13.3010254,18.3366394-34.2584229,18.4377441-34.4658203
						c0.3160095-0.6627197,1.1109924-0.9400635,1.7713928-0.6269531c0.6626587,0.31604,0.9426575,1.1113281,0.6269531,1.7713623
						c-0.1017151,0.2126465-10.2079163,21.3009033-18.5795288,34.7286377
						c-1.3132324,2.1083984-1.5578308,3.904541-0.7462769,5.4918213c2.7323303,5.3470459,16.4386902,7.5970459,22.446106,8.1260986
						c2.3577271-3.9642334,14.117218-24.3205566,20.1421509-45.6644287
						c0.1983032-0.7056885,0.9413147-1.1149902,1.6419067-0.9173584c0.7057495,0.1983643,1.1159973,0.9335938,0.9173889,1.6419678
						c-6.7867126,24.0372314-20.7145691,46.8007813-20.8545837,47.0270996
						c-0.2578735,0.4211426-0.7292786,0.6621094-1.2221985,0.6282959
						C426.1079712,1099.6798096,424.8665771,1099.5838623,423.1651917,1099.3769531z"/>
				</g>
				
					<ellipse transform="matrix(0.9961367 -0.0878168 0.0878168 0.9961367 -92.6017303 44.1838531)" fill="#EEEEEE" cx="455.8638" cy="1074.5423584" rx="5.6551318" ry="14.6792784"/>
				<path fill="#FF8D88" d="M393.2149658,1075.4090576c0,0-42.1108398,19.3635254-29.7183228,69.9597168
					c0,0,47.1443481,13.0050049,66.8230286,6.6708984s36.2733765-41.1331787,36.2733765-41.1331787
					s0.6691895-10.7365723-0.8538818-17.6488037c0,0-12.9734802,18.7248535-28.6830444,29.2990723
					C437.0561218,1122.5567627,440.2669373,1074.2215576,393.2149658,1075.4090576z"/>
			</g>
			<g>
				<g>
					<g>
						<path fill="#6081C1" d="M418.8301697,962.3701782c0,0,32.9387207-5.086792,61.3405762,16.550354l-11.0187378,40.3978271
							c0,0-31.0762939,2.1313477-53.0880737-11.5777588L418.8301697,962.3701782z"/>
					</g>
					<path opacity="0.3" fill="#FFFFFF" d="M418.8301697,962.3701782c0,0,32.9387207-5.086792,61.3405762,16.550354
						l-11.0187378,40.3978271c0,0-31.0762939,2.1313477-53.0880737-11.5777588L418.8301697,962.3701782z"/>
				</g>
				<path fill="#6081C1" d="M474.2595215,982.6988525c-24.4386597,1.1185303-45.6414185-5.980957-51.0074768-9.2949219
					c-1.8465881-40.1557007-1.0516357-202.8862915,3.3339233-272.1583862
					c4.9876099-78.8535767,10.3655396-183.366333,10.3655396-183.366333
					c25.6771545-59.1264954,151.5707092-21.4798279,143.0198059,50.0079346c0,0-64.562561,231.5726929-73.0782166,264.4254761
					C499.7868042,859.7423096,480.4526978,952.7617188,474.2595215,982.6988525z"/>
				<path opacity="0.3" fill="#FFFFFF" d="M457.5777588,765.1469116
					c-24.3130493-3.447937-42.3300781,62.3207397-6.6445618,72.7605591
					C486.6186829,848.347229,489.6732788,769.6985474,457.5777588,765.1469116z"/>
				<g opacity="0.3">
					<g>
						<path fill="#FFFFFF" d="M536.699585,599.222168c0.7174072,0.1661987,1.1630249,0.8796387,0.993042,1.5961304
							C499.3505554,762.4296875,467.66922,967.239502,467.3201904,969.503479
							c-0.1100464,0.7299805-0.7900391,1.2199707-1.5200195,1.1099854
							c-0.0499878-0.0100098-0.0999756-0.0199585-0.1600342-0.0299683
							c-0.6299438-0.1799927-1.0499878-0.8099976-0.9499512-1.4899902
							c0.3490295-2.2640381,32.0419006-207.1634521,70.414978-368.8862915
							C535.2741699,599.4950562,535.9865723,599.0569458,536.699585,599.222168L536.699585,599.222168z"/>
					</g>
				</g>
				<g opacity="0.3">
					<g>
						<path fill="#FFFFFF" d="M859.3701782,836.4534912c-0.0300293,0.039978-0.0700073,0.0899658-0.1099854,0.1199951
							c-0.5,0.539978-1.3500366,0.5599976-1.8800049,0.0499878
							c-1.5858154-1.5159912-139.2532959-132.5288086-264.2084961-235.4951172
							c-0.5571899-0.4591675-0.6407471-1.2775269-0.1907349-1.8421021l0,0
							c0.4611206-0.5784912,1.3049927-0.6694946,1.8759766-0.1990967
							c125.0358276,103.0120239,262.7676392,234.0905151,264.3632202,235.616333
							C859.710144,835.1734619,859.7601929,835.9234619,859.3701782,836.4534912z"/>
					</g>
				</g>
			</g>
		</g>
	</g>
	<g id="left_forearm">
		<path fill="#FBBDBB" d="M748.7146606,407.0054016c0,0,39.2443237,18.4381714,77.1519165,26.9926147
			c37.9075317,8.5544434,77.8283081,15.3240662,77.8283081,15.3240662v-30.5319824l-123.3044434-74.3449707
			C745.9711304,327.542572,719.8842773,388.9502869,748.7146606,407.0054016z"/>
	</g>
	<g id="left_arm">
		<g>
			<g>
				<path fill="#FBBDBB" d="M724.5973511,305.6650696l55.7930298,38.7800598
					c32.5229492,23.0050964-3.5865479,80.5231934-34.4192505,61.0380249l-61.6815186-39.0914917L724.5973511,305.6650696z"/>
				<path fill="#FF8D88" d="M628.3070068,244.378891c20.4968262-1.2320099,116.1695557,67.3371124,116.1695557,67.3371124
					s-17.0238037,53.7242737-52.4897461,87.9481201c0,0-42.9924316-39.7263184-78.4017334-81.3536377
					C578.1758423,276.683136,602.7246094,245.9165802,628.3070068,244.378891z"/>
				<g>
					<path opacity="0.3" fill="#FFFFFF" d="M688.8121948,379.612915c0.3674316,0.0315247,0.7452393-0.0885315,1.0321045-0.363678
						c26.3586426-25.1870422,42.6615601-68.8756714,42.8242188-69.3139343
						c0.2546997-0.6897278-0.0994263-1.4537964-0.7892456-1.7071533c-0.687439-0.2505493-1.4522705,0.0969543-1.7069092,0.7866821
						c-0.159668,0.4332886-16.2576294,43.5556641-42.164917,68.3122864c-0.5308838,0.507019-0.5509644,1.3484802-0.0439453,1.879364
						C688.197998,379.4507446,688.501709,379.5862732,688.8121948,379.612915z"/>
				</g>
			</g>
		</g>
	</g>
	<g id="body">
		<g>
			<path fill="#FF8D88" d="M545.666748,212.608963c0,0-39.9398804,6.2748871-79.2201233,21.9394531
				c0,0-42.8825073,122.0175018-40.8251953,308.539978c0,0,32.738678,33.8345947,120.4451599,34.7225952
				c87.706543,0.8879395,146.350769-31.8729248,146.350769-31.8729248s-19.8498535-232.7857361-46.7116699-295.9518433
				C645.7056885,249.9861908,594.2548828,210.5278473,545.666748,212.608963z"/>
			<g>
				<path fill="#FF8D88" d="M674.0151978,374.5249939c-3.5092163-24.0029907-7.4008789-47.5169678-11.6047363-68.2473755
					c-4.2055664-20.7330017-8.7163696-38.6729431-13.49646-51.5821838c-0.2398071-0.6473694-0.9589844-0.9777222-1.6063232-0.737915
					c-0.6473999,0.2397766-0.9777222,0.9589539-0.737915,1.6063232c4.7010498,12.6878662,9.2015991,30.5484924,13.390564,51.2106323
					c4.1906128,20.6646729,8.0765991,44.1401062,11.5811768,68.1121826
					c0.0998535,0.6831055,0.7345581,1.1559143,1.4176636,1.0560608c0.6831055-0.099884,1.1559448-0.7345886,1.0560913-1.4176941
					L674.0151978,374.5249939z"/>
			</g>
			<g opacity="0.3">
				<path fill="#FFFFFF" d="M674.0151978,374.5249939c-3.5092163-24.0029907-7.4008789-47.5169678-11.6047363-68.2473755
					c-4.2055664-20.7330017-8.7163696-38.6729431-13.49646-51.5821838c-0.2398071-0.6473694-0.9589844-0.9777222-1.6063232-0.737915
					c-0.6473999,0.2397766-0.9777222,0.9589539-0.737915,1.6063232c4.7010498,12.6878662,9.2015991,30.5484924,13.390564,51.2106323
					c4.1906128,20.6646729,8.0765991,44.1401062,11.5811768,68.1121826
					c0.0998535,0.6831055,0.7345581,1.1559143,1.4176636,1.0560608c0.6831055-0.099884,1.1559448-0.7345886,1.0560913-1.4176941
					L674.0151978,374.5249939z"/>
			</g>
			<g>
				<path fill="#FF8D88" d="M436.1691895,376.4459839c-0.1207581,0.0178833-0.246521,0.0194092-0.3751526,0.001709
					c-0.7287903-0.0995483-1.2374878-0.7698364-1.1377563-1.4973145
					c8.8950195-64.854248,20.9978943-109.9812317,27.4193726-131.1084137
					c0.2158813-0.705307,0.9587402-1.0961151,1.6592407-0.8860626c0.7036438,0.2135315,1.099762,0.9568939,0.8860474,1.6592407
					c-5.1524048,16.9478455-18.1306458,63.6101379-27.328125,130.6958923
					C437.2084045,375.9115601,436.7394714,376.3616028,436.1691895,376.4459839z"/>
			</g>
			<g opacity="0.3">
				<path fill="#FFFFFF" d="M436.1691895,376.4459839c-0.1207581,0.0178833-0.246521,0.0194092-0.3751526,0.001709
					c-0.7287903-0.0995483-1.2374878-0.7698364-1.1377563-1.4973145
					c8.8950195-64.854248,20.9978943-109.9812317,27.4193726-131.1084137
					c0.2158813-0.705307,0.9587402-1.0961151,1.6592407-0.8860626c0.7036438,0.2135315,1.099762,0.9568939,0.8860474,1.6592407
					c-5.1524048,16.9478455-18.1306458,63.6101379-27.328125,130.6958923
					C437.2084045,375.9115601,436.7394714,376.3616028,436.1691895,376.4459839z"/>
			</g>
			<g opacity="0.3">
				<path fill="#FFFFFF" d="M605.8666382,553.194519c-105.4974365,15.6106567-171.1326904-21.7410278-171.9316101-22.208252
					c-0.6324463-0.3710327-0.8447571-1.1849365-0.473877-1.8186646s1.1878967-0.8425903,1.8195801-0.4766235
					c0.9659729,0.5671387,98.7359924,56.1221313,247.7992249,1.9868164
					c0.6798096-0.2489014,1.4515381,0.1055298,1.7033081,0.7954102c0.2491455,0.6903076-0.1052856,1.4528809-0.7979736,1.7036743
					C656.0733032,543.31604,629.9296265,549.6338501,605.8666382,553.194519z"/>
			</g>
			<g>
				<path opacity="0.3" fill="#FFFFFF" d="M551.5335693,321.0532532c-0.3416748,0.0505371-0.6953735,0.0726929-1.0511475,0.0636597
					l-11.6361084-0.3113708c-3.2130737-0.0876465-5.756897-2.660614-5.7893066-5.8598328
					c-0.2696533-27.4402466,2.2994385-76.1456451,2.3243408-76.633667c0.019104-0.3677216,0.1890869-0.7092133,0.4716187-0.946579
					c0.2799072-0.2369995,0.6501465-0.3429718,1.0102539-0.3043823l19.3078003,2.2515411
					c0.7079468,0.0829468,1.2255859,0.7072601,1.1733398,1.4185486c-1.5053711,20.465332-0.9613647,62.089447-0.7577515,74.3581848
					c0.0264893,1.6341553-0.6000977,3.1654663-1.758728,4.3121643
					C553.9162598,320.3016357,552.774353,320.8696289,551.5335693,321.0532532z M537.963623,239.8673096
					c-0.4202271,8.2303619-2.4891357,50.3277283-2.2487183,75.0513306c0.019104,1.761261,1.4262085,3.1806641,3.2025146,3.2275696
					l11.6361694,0.3113708c0.9069214,0.0259399,1.7625732-0.3119812,2.4037476-0.9463501
					c0.6387939-0.6326599,0.9836426-1.4778137,0.9685059-2.3786316c-0.1971436-12.0478516-0.723877-52.3488159,0.677002-73.3250427
					L537.963623,239.8673096z"/>
			</g>
			<path fill="#6081C1" d="M549.8285522,197.5797424c-8.0606689-0.0611877-17.819397,3.7162476-22.8646851,5.9446259
				c-2.0391235,0.90065-3.2601318,3.0093536-3.0605469,5.2295837l2.213623,24.6277466
				c0,0,10.7826538,12.4529877,27.8759766,10.8358917c17.0932617-1.6170807,24.9242554-12.8104858,24.9242554-12.8104858
				l1.7111816-24.0426331c0.1564941-2.1990814-1.0686035-4.2839203-3.0975342-5.1464233
				C573.1939087,200.3744202,564.4041138,197.6903839,549.8285522,197.5797424z"/>
			<g>
				<path fill="#FBBDBB" d="M563.9901733,211.6334534c-0.5300293,0.2000122-1.0599976,0.3599854-1.5900269,0.5299683
					c-9.3200073,2.9200439-18.0299683,2.2300415-24.289978,0.7900391l0.7600098-7.6600342l0.5999756-6.0599976l1.9199829-19.2000122
					l17.7900391-4.2599487l1.4299927,10.6999512l0.8300171,6.1700439L563.9901733,211.6334534z"/>
				<path fill="#222B3F" d="M561.4401855,192.6434631c-5.5300293,4.539978-12.8500366,8.9599609-22.5700073,12.6499634
					l0.5999756-6.0599976l1.9199829-19.2000122l17.7900391-4.2599487l1.4299927,10.6999512L561.4401855,192.6434631z"/>
			</g>
			<g>
				<g>
					<path fill="#6081C1" d="M555.8626099,215.0164795c-7.2006836,1.0654907-13.5592041,0.2645874-18.048584-0.7669678
						c-0.7782593-0.1854248-1.5175781-0.3739777-2.2310181-0.5650482c-4.8675537-1.3339233-7.8459473-2.9053802-7.9686279-2.9712524
						c-0.6495361-0.3448944-0.8947144-1.1499939-0.5495605-1.7982788c0.3428955-0.64534,1.1461182-0.8941498,1.7982788-0.5496216
						c0.0283203,0.0141907,2.8637085,1.5057526,7.416626,2.7536621c0.6807251,0.182785,1.3979492,0.3641205,2.140686,0.5403442
						c5.5604858,1.2799683,14.163269,2.1858673,23.5813599-0.7657776c0.5418091-0.1707306,1.0336914-0.3235779,1.5214233-0.5046997
						c3.9089966-1.3830261,7.710083-3.4063873,11.3216553-6.0186157c0.5877075-0.4282227,1.4230957-0.2998352,1.8554077,0.2977448
						c0.4317627,0.5937042,0.2976685,1.4260406-0.2977295,1.8554077c-3.8150024,2.763092-7.8453979,4.9043884-11.9738159,6.3658142
						c-0.5126343,0.1900635-1.046875,0.3583679-1.5863037,0.5274353
						C560.4542236,214.1664124,558.1155396,214.6831055,555.8626099,215.0164795z"/>
				</g>
				<g>
					<path opacity="0.3" fill="#FFFFFF" d="M555.8626099,215.0164795
						c-7.2006836,1.0654907-13.5592041,0.2645874-18.048584-0.7669678
						c-0.7782593-0.1854248-1.5175781-0.3739777-2.2310181-0.5650482c-4.8675537-1.3339233-7.8459473-2.9053802-7.9686279-2.9712524
						c-0.6495361-0.3448944-0.8947144-1.1499939-0.5495605-1.7982788c0.3428955-0.64534,1.1461182-0.8941498,1.7982788-0.5496216
						c0.0283203,0.0141907,2.8637085,1.5057526,7.416626,2.7536621c0.6807251,0.182785,1.3979492,0.3641205,2.140686,0.5403442
						c5.5604858,1.2799683,14.163269,2.1858673,23.5813599-0.7657776c0.5418091-0.1707306,1.0336914-0.3235779,1.5214233-0.5046997
						c3.9089966-1.3830261,7.710083-3.4063873,11.3216553-6.0186157c0.5877075-0.4282227,1.4230957-0.2998352,1.8554077,0.2977448
						c0.4317627,0.5937042,0.2976685,1.4260406-0.2977295,1.8554077c-3.8150024,2.763092-7.8453979,4.9043884-11.9738159,6.3658142
						c-0.5126343,0.1900635-1.046875,0.3583679-1.5863037,0.5274353
						C560.4542236,214.1664124,558.1155396,214.6831055,555.8626099,215.0164795z"/>
				</g>
			</g>
		</g>
	</g>
	<g id="head">
		<g>
			<g>
				<g>
					<path fill="#FBBDBB" d="M522.6726685,157.9639893c0,0-6.4247437-22.0918884-20.0201416-17.6426392
						c-13.5953674,4.449234-2.6438293,31.5000458,20.4684448,32.827713L522.6726685,157.9639893z"/>
					<g>
						<g>
							<path fill="#222B3F" d="M517.1206055,166.5830688c0.0610962,0.0122681,0.1229858,0.0207214,0.1859131,0.0240784
								c0.7330933,0.0425873,1.3616943-0.5158691,1.4055786-1.248703
								c0.0111084-0.1739044,0.8546143-17.3669128-13.1564026-20.3778229
								c-0.0050964-0.0010223-0.0127258-0.0025482-0.0178223-0.0035706
								c-0.7128906-0.143158-1.4081726,0.3118591-1.5617676,1.0239868
								c-0.1548767,0.7184906,0.3019104,1.4247131,1.0203857,1.5795898
								c11.8069763,2.5378418,11.070343,17.4704285,11.0613098,17.6209259
								C516.0185547,165.8717499,516.4815674,166.4547424,517.1206055,166.5830688z"/>
						</g>
						<g>
							<path fill="#222B3F" d="M508.2637024,162.13591c0.6288757,0.1262817,1.2759399-0.2205505,1.506897-0.8429718
								c0.0191345-0.0557556,2.0694885-5.5308228,5.0293884-8.3863983c0.5288086-0.5096283,0.5442505-1.3514862,0.0333252-1.8805237
								c-0.5063477-0.5254669-1.3497314-0.5465088-1.8790283-0.034317
								c-3.4033203,3.2830353-5.5871582,9.1325684-5.6790161,9.3789978
								c-0.2549133,0.6891327,0.0974121,1.4538422,0.7880859,1.7077637
								C508.1272278,162.1032104,508.1949463,162.1221008,508.2637024,162.13591z"/>
						</g>
						<path fill="#314060" d="M509.9154663,127.2257385c-9.2304688,14.257431,12.8251343,34.4635925,12.8251343,34.4635925
							v-32.5625916L509.9154663,127.2257385z"/>
					</g>
				</g>
				<path fill="#FBBDBB" d="M537.4569702,109.5470581c-26.5280151,7.8631058-16.350769,68.5258179-10.6333618,77.4410553
					c1.505249,2.3470917,9.8113403,9.5017548,16.1584473,9.9166565c5.5646362,0.3637543,13.1920776,2.954834,24.5940552-9.4015961
					c7.552002-8.1842194,11.588501-32.8238373,10.84552-47.524231
					C577.6786499,125.2785339,568.2676392,100.4145508,537.4569702,109.5470581z"/>
				<path fill="#314060" d="M572.7488403,145.3617096c0,0-8.1430664-2.0963593-10.4922485-14.8092346
					c0,0-40.6847534,23.3753967-68.8356628,8.7789764c0,0,3.675415-7.3651581,8.5219727-10.7315216
					c0,0-24.97995-14.8992081-26.1556396-43.162262c-0.4328613-10.4059753,27.8189087-2.6409836,38.3045349,8.3234787
					c0,0-12.1901855-25.5707779-1.5196533-42.402771c3.0756226-4.8516006,24.0440674,13.3961868,32.5186768,32.680191
					c0,0,0.1199951-16.5110397,5.7510376-23.6133728c1.9094849-2.40839,13.4945679,11.2806778,18.3619385,34.6026001
					c0,0,17.4664917,3.5905075,27.2842407,20.3957672c9.817688,16.8052597,4.1088257,36.3845291-20.3947754,52.0931931
					L572.7488403,145.3617096z"/>
				<g>
					<path fill="#FBBDBB" d="M573.1970825,157.9639893c0,0,6.4248047-22.0918884,20.0202026-17.6426392
						c13.5953979,4.449234,2.6438599,31.5000458-20.4684448,32.827713L573.1970825,157.9639893z"/>
					<g>
						<g>
							<path fill="#222B3F" d="M578.7492065,166.5830688c-0.0610962,0.0122681-0.1229858,0.0207214-0.1859131,0.0240784
								c-0.7330933,0.0425873-1.3616943-0.5158691-1.4055786-1.248703
								c-0.0111084-0.1739044-0.8546143-17.3669128,13.1563721-20.3778229
								c0.005127-0.0010223,0.0127563-0.0025482,0.0178223-0.0035706c0.7129517-0.143158,1.4082031,0.3118591,1.5618286,1.0239868
								c0.1548462,0.7184906-0.3019409,1.4247131-1.0204468,1.5795898
								c-11.8069458,2.5378418-11.0703125,17.4704285-11.0612793,17.6209259
								C579.8512573,165.8717499,579.3882446,166.4547424,578.7492065,166.5830688z"/>
						</g>
						<g>
							<path fill="#222B3F" d="M587.6060791,162.13591c-0.6288452,0.1262817-1.2759399-0.2205505-1.5068359-0.8429718
								c-0.019165-0.0557556-2.069519-5.5308228-5.0294189-8.3863983c-0.5288086-0.5096283-0.5442505-1.3514862-0.0333252-1.8805237
								c0.5063477-0.5254669,1.3497314-0.5465088,1.8790283-0.034317c3.4033203,3.2830353,5.5871582,9.1325684,5.6790161,9.3789978
								c0.2549438,0.6891327-0.0974121,1.4538422-0.7880859,1.7077637
								C587.7425537,162.1032104,587.6748657,162.1221008,587.6060791,162.13591z"/>
						</g>
					</g>
				</g>
			</g>
			<g>
				<g>
					<path fill="#222B3F" d="M545.0829468,176.9033661c-0.0891113,0.0178986-0.1825562,0.0273895-0.2782593,0.0254211
						c-0.2521362-0.0023499-6.1846924-0.1314087-8.1154785-5.1166229c-0.2051392-0.5335693-0.0487671-1.1397552,0.3917236-1.5050049
						c3.8604736-3.1988068,6.7235718-11.2325592,6.7522583-11.3138123c0.2438965-0.6979218,1.0088501-1.0567932,1.6963501-0.8121185
						c0.6928101,0.2449493,1.0570068,1.0035095,0.8120728,1.6963348c-0.1178589,0.3362122-2.7871094,7.818512-6.7763062,11.7609863
						c1.6044312,2.5291595,5.237793,2.6312408,5.2775269,2.6312103c0.7313232,0.0147095,1.3162231,0.6190338,1.3043213,1.3511505
						C546.137207,176.2572632,545.6838379,176.7826996,545.0829468,176.9033661z"/>
				</g>
				<path fill="#222B3F" d="M551.6401978,148.4950867c0,0,0.1511841-5.3755646,1.4265747-6.4386902
					c1.2754517-1.0631104,1.5490723,1.4879608,1.5490723,1.4879608s10.5078735-2.5827789,12.2402954,8.0162659
					C566.8561401,151.5606232,561.9111328,145.9244995,551.6401978,148.4950867z"/>
				<path fill="#222B3F" d="M538.3369141,149.4137878c0,0-0.1511841-5.3755646-1.4265747-6.4386902
					c-1.2754517-1.0631104-1.5490723,1.4879608-1.5490723,1.4879608s-10.5078735-2.5827789-12.2402954,8.0162659
					C523.1209717,152.4793243,528.065979,146.8432007,538.3369141,149.4137878z"/>
				<g>
					
						<ellipse transform="matrix(0.9996456 -0.0266211 0.0266211 0.9996456 -4.0152588 14.8443251)" fill="#222B3F" cx="555.508728" cy="158.2254028" rx="4.1152692" ry="5.1246748"/>
					<circle fill="#FFFFFF" cx="556.7133179" cy="155.8429565" r="1.4170502"/>
				</g>
				<g>
					
						<ellipse transform="matrix(0.9996456 -0.0266211 0.0266211 0.9996456 -4.0165014 14.2672424)" fill="#222B3F" cx="533.8342896" cy="157.983551" rx="4.1152692" ry="5.1246748"/>
					<circle fill="#FFFFFF" cx="535.0388794" cy="155.6011047" r="1.4170502"/>
				</g>
				<path fill="#FFFFFF" d="M537.6831665,179.7518768c0,0,7.5993652,3.5962219,18.420105-0.3995819
					c0,0-1.9088135,7.21698-9.210083,7.1924438C539.0374146,186.5183411,537.6831665,179.7518768,537.6831665,179.7518768z"/>
			</g>
		</g>
	</g>
	<g id="left_hand">
		<path fill="#FBBDBB" d="M921.9901733,481.2834167c-4.039978,2.3800049-7.6000366-2.6099854-10.4500122-8.3199463
			c-2.8599854-5.7000122-10.7000122-19.4800415-11.8800049-22.0900269
			c-1.1900024-2.6199951-4.9799805-20.0700073-4.9799805-20.0700073l9.0100098-12.0100098
			c0,0,33.5100098,8.7900391,42.7799683,12.1199951c9.2600098,3.3200073,10.9100342,46.3400269,10.9100342,46.3400269
			l-35.6799927-26.4299927c-0.7400513,1.6799927-1.3000488,3.5700073-1.3700562,5.5200195
			C920.0901489,462.773468,926.0301514,478.9134216,921.9901733,481.2834167z"/>
	</g>
</g>
</svg>
