<?xml version="1.0" encoding="iso-8859-1"?>
<!-- Generator: Adobe Illustrator 24.0.0, SVG Export Plug-In . SVG Version: 6.00 Build 0)  -->
<svg version="1.1" xmlns="http://www.w3.org/2000/svg" xmlns:xlink="http://www.w3.org/1999/xlink" x="0px" y="0px"
	 viewBox="0 0 1200 1200" enable-background="new 0 0 1200 1200" xml:space="preserve">
<g id="Background_x5F_Simple">
	<g>
		<g>
			<path fill="#EEEEEE" d="M1065.9416504,618.0016479h-0.6196289c-1.991333,0-3.6057129-1.6142578-3.6057129-3.6055908v-13.0853882
				c0-1.991333,1.6143799-3.6055908,3.6057129-3.6055908h0.6196289c1.991333,0,3.6057129,1.6142578,3.6057129,3.6055908v13.0853882
				C1069.5473633,616.3873901,1067.9329834,618.0016479,1065.9416504,618.0016479z"/>
			<path fill="#EEEEEE" d="M1074.8212891,627.5009155v-0.6196899c0-1.991333,1.6142578-3.6056519,3.6055908-3.6056519h13.0853271
				c1.991333,0,3.6055908,1.6143188,3.6055908,3.6056519v0.6196899c0,1.991333-1.6142578,3.6056519-3.6055908,3.6056519h-13.0853271
				C1076.4355469,631.1065674,1074.8212891,629.4922485,1074.8212891,627.5009155z"/>
			<path fill="#EEEEEE" d="M1065.3220215,636.3804321h0.6196289c1.991333,0,3.6057129,1.6143188,3.6057129,3.6056519v13.0853271
				c0,1.991333-1.6143799,3.6056519-3.6057129,3.6056519h-0.6196289c-1.991333,0-3.6057129-1.6143188-3.6057129-3.6056519
				V639.986084C1061.7163086,637.994751,1063.3306885,636.3804321,1065.3220215,636.3804321z"/>
			<path fill="#EEEEEE" d="M1056.4425049,626.8812256v0.6196899c0,1.991333-1.6143799,3.6056519-3.6057129,3.6056519h-13.0853271
				c-1.991333,0-3.6055908-1.6143188-3.6055908-3.6056519v-0.6196899c0-1.991333,1.6142578-3.6056519,3.6055908-3.6056519
				h13.0853271C1054.828125,623.2755737,1056.4425049,624.8898926,1056.4425049,626.8812256z"/>
		</g>
		<g>
			<path fill="#EEEEEE" d="M219.4461823,294.7267761h-0.6197052c-1.991333,0-3.6056366-1.6142883-3.6056366-3.6056213v-13.0853271
				c0-1.991333,1.6143036-3.6056519,3.6056366-3.6056519h0.6197052c1.991333,0,3.6056213,1.6143188,3.6056213,3.6056519v13.0853271
				C223.0518036,293.1124878,221.4375153,294.7267761,219.4461823,294.7267761z"/>
			<path fill="#EEEEEE" d="M228.3257294,304.2260132v-0.6196899c0-1.991333,1.6142883-3.6056213,3.6056213-3.6056213h13.0853424
				c1.991333,0,3.6056213,1.6142883,3.6056213,3.6056213v0.6196899c0,1.991333-1.6142883,3.6056519-3.6056213,3.6056519h-13.0853424
				C229.9400177,307.831665,228.3257294,306.2173767,228.3257294,304.2260132z"/>
			<path fill="#EEEEEE" d="M218.8264771,313.1055603h0.6197052c1.991333,0,3.6056213,1.6143188,3.6056213,3.6056519v13.0853271
				c0,1.991333-1.6142883,3.6056213-3.6056213,3.6056213h-0.6197052c-1.991333,0-3.6056366-1.6142883-3.6056366-3.6056213
				v-13.0853271C215.2208405,314.7198792,216.835144,313.1055603,218.8264771,313.1055603z"/>
			<path fill="#EEEEEE" d="M209.9469299,303.6063232v0.6196899c0,1.991333-1.6143036,3.6056519-3.6056366,3.6056519h-13.0853271
				c-1.991333,0-3.6056213-1.6142883-3.6056213-3.6056519v-0.6196899c0-1.991333,1.6142883-3.6056213,3.6056213-3.6056213
				h13.0853271C208.3326263,300.0007019,209.9469299,301.6149902,209.9469299,303.6063232z"/>
		</g>
		<g>
			<path fill="#EEEEEE" d="M532.0116577,323.1847534h-0.6196899c-1.991333,0-3.6056519-1.6142883-3.6056519-3.6056213v-13.0853271
				c0-1.991333,1.6143188-3.6056213,3.6056519-3.6056213h0.6196899c1.991333,0,3.6056519,1.6142883,3.6056519,3.6056213v13.0853271
				C535.6173096,321.5704651,534.0029907,323.1847534,532.0116577,323.1847534z"/>
			<path fill="#EEEEEE" d="M540.8912354,332.684021v-0.6197205c0-1.991333,1.6142578-3.6056213,3.6055908-3.6056213h13.0853271
				c1.991333,0,3.6056519,1.6142883,3.6056519,3.6056213v0.6197205c0,1.991333-1.6143188,3.6056213-3.6056519,3.6056213h-13.0853271
				C542.5054932,336.2896423,540.8912354,334.675354,540.8912354,332.684021z"/>
			<path fill="#EEEEEE" d="M531.3919678,341.5635681h0.6196899c1.991333,0,3.6056519,1.6142883,3.6056519,3.6056213v13.0853271
				c0,1.991333-1.6143188,3.6056213-3.6056519,3.6056213h-0.6196899c-1.991333,0-3.6056519-1.6142883-3.6056519-3.6056213
				v-13.0853271C527.7863159,343.1778564,529.4006348,341.5635681,531.3919678,341.5635681z"/>
			<path fill="#EEEEEE" d="M522.5123901,332.0643005v0.6197205c0,1.991333-1.6142578,3.6056213-3.6055908,3.6056213h-13.0853577
				c-1.991333,0-3.6056213-1.6142883-3.6056213-3.6056213v-0.6197205c0-1.991333,1.6142883-3.6056213,3.6056213-3.6056213
				h13.0853577C520.8981323,328.4586792,522.5123901,330.0729675,522.5123901,332.0643005z"/>
		</g>
		<g>
			<path fill="#EEEEEE" d="M916.8303223,323.9913635h-0.6196899c-1.991333,0-3.6056519-1.6142883-3.6056519-3.6056213V307.300415
				c0-1.991333,1.6143188-3.6056519,3.6056519-3.6056519h0.6196899c1.991333,0,3.6056519,1.6143188,3.6056519,3.6056519v13.0853271
				C920.4359741,322.3770752,918.8216553,323.9913635,916.8303223,323.9913635z"/>
			<path fill="#EEEEEE" d="M925.7098999,333.4906311v-0.6197205c0-1.991333,1.6142578-3.6056213,3.6055908-3.6056213h13.0853882
				c1.991333,0,3.6055908,1.6142883,3.6055908,3.6056213v0.6197205c0,1.991333-1.6142578,3.6056213-3.6055908,3.6056213h-13.0853882
				C927.3241577,337.0962524,925.7098999,335.4819641,925.7098999,333.4906311z"/>
			<path fill="#EEEEEE" d="M916.2106323,342.3701782h0.6196899c1.991333,0,3.6056519,1.6142883,3.6056519,3.6056213v13.0853271
				c0,1.991333-1.6143188,3.6056213-3.6056519,3.6056213h-0.6196899c-1.991333,0-3.6056519-1.6142883-3.6056519-3.6056213
				v-13.0853271C912.6049805,343.9844666,914.2192993,342.3701782,916.2106323,342.3701782z"/>
			<path fill="#EEEEEE" d="M907.3311157,332.8709106v0.6197205c0,1.991333-1.6143188,3.6056213-3.6056519,3.6056213h-13.0853271
				c-1.991333,0-3.6056519-1.6142883-3.6056519-3.6056213v-0.6197205c0-1.991333,1.6143188-3.6056213,3.6056519-3.6056213
				h13.0853271C905.7167969,329.2652893,907.3311157,330.8795776,907.3311157,332.8709106z"/>
		</g>
		<path fill="#EEEEEE" d="M147.8665619,444.7635803c-8.6592407,0-15.6491394,7.0108032-15.6491394,15.6491394
			c0,8.6591187,6.9898987,15.6491394,15.6491394,15.6491394c8.6383514,0,15.6491394-6.9900208,15.6491394-15.6491394
			C163.5157013,451.7743835,156.5049133,444.7635803,147.8665619,444.7635803z M147.8656769,468.8910522
			c-4.696991,0-8.4774323-3.7805481-8.4774323-8.4774475c0-4.677887,3.7804413-8.458313,8.4774323-8.458313
			c4.677887,0,8.458313,3.780426,8.458313,8.458313C156.3239899,465.1105042,152.5435638,468.8910522,147.8656769,468.8910522z"/>
		<path fill="#EEEEEE" d="M954.4848022,490.4043884c-8.6592407,0-15.6491699,7.0107727-15.6491699,15.6491394
			c0,8.6591187,6.9899292,15.6491089,15.6491699,15.6491089c8.6383667,0,15.6491089-6.9899902,15.6491089-15.6491089
			C970.1339111,497.4151611,963.1231689,490.4043884,954.4848022,490.4043884z"/>
		<path fill="#EEEEEE" d="M112.7945938,652.1030273c-8.6592407,0-15.6491394,7.0108032-15.6491394,15.6491699
			c0,8.6591187,6.9898987,15.6491089,15.6491394,15.6491089c8.6383514,0,15.6491318-6.9899902,15.6491318-15.6491089
			C128.4437256,659.1138306,121.4329453,652.1030273,112.7945938,652.1030273z"/>
	</g>
</g>
<g id="Layer_x5F_Plants">
	<g>
		<g>
			<path fill="#8FB3DB" d="M1103.3748779,838.6593018c0,0-8.3597412-29.1022339,5.8909912-40.6259766
				C1123.5167236,786.5095215,1149.0018311,813.5233765,1103.3748779,838.6593018z"/>
			<path fill="#8FB3DB" d="M1085.3842773,854.8707886c0,0-23.7546387-18.7758789-18.8909912-36.4458618
				S1107.8104248,807.8527222,1085.3842773,854.8707886z"/>
			<path fill="#8FB3DB" d="M1065.1097412,888.1467285c0,0-26.3093262-14.9880371-24.159668-33.1886597
				C1043.0997314,836.7575073,1080.2061768,838.2896118,1065.1097412,888.1467285z"/>
			<path fill="#8FB3DB" d="M1044.1966553,917.5184326c0,0-28.3842163-10.5430908-29.2016602-28.8519897
				C1014.1774902,870.357605,1051.0444336,865.8779297,1044.1966553,917.5184326z"/>
			<path fill="#8FB3DB" d="M1024.1330566,943.9144287c0,0-28.3842773-10.5430908-29.2017822-28.8519287
				C994.1137695,896.7536011,1030.9807129,892.2739258,1024.1330566,943.9144287z"/>
			<path fill="#8FB3DB" d="M1098.2667236,861.9716187c0,0,26.6591797,14.3565063,40.949707,2.881958
				C1153.5068359,853.3789673,1132.529541,822.732666,1098.2667236,861.9716187z"/>
			<path fill="#8FB3DB" d="M1075.7648926,893.7836914c0,0,24.1956787,18.2042847,40.0498047,9.010437
				C1131.6689453,893.6003418,1115.5415039,860.1466675,1075.7648926,893.7836914z"/>
			<path fill="#8FB3DB" d="M1057.1002197,924.6330566c0,0,20.9385986,21.8723145,38.0692139,15.3591309
				C1112.3001709,933.4790649,1101.7862549,897.8602905,1057.1002197,924.6330566z"/>
			<path fill="#8FB3DB" d="M1031.4150391,950.6055298c0,0,20.9385986,21.8722534,38.0693359,15.3591309
				S1076.1011963,923.8327637,1031.4150391,950.6055298z"/>
		</g>
		<g>
			<g>
				<path fill="#222B3F" d="M200.8989716,981.6811523c23.7312469,8.1547241,35.6677399-79.0355835,32.1313019-101.562439
					c-3.5364532-22.5269165-16.8068237-5.4476318-16.8068237-5.4476318s-3.1426239-75.0378418-18.8313293-93.9662476
					s-17.9249268,8.0331421-17.9249268,8.0331421s-27.0290375-71.0307007-61.0391846-68.9994507
					s14.0715637,75.8214722,14.0715637,75.8214722s-18.5750275-16.7110596-30.1203537-7.8416138
					c-11.5453186,8.8693848,51.0948563,90.4082031,51.0948563,90.4082031s-19.1604004-12.2453003-29.9841385-3.9302368
					S164.2627869,969.0919189,200.8989716,981.6811523z"/>
				<g opacity="0.3">
					<g>
						<path fill="#FFFFFF" d="M203.1711121,975.2451782c-0.5346985-0.0031738-0.9899445-0.4116821-1.0401306-0.9554443
							c-0.1341553-1.4483032-14.1391907-145.9905396-78.0340958-239.4728394
							c-0.3279419-0.4796753-0.2048645-1.1343384,0.2748032-1.4622803c0.4801865-0.3289795,1.1333466-0.204895,1.4623108,0.2747803
							c64.2065582,93.9382324,78.2577209,239.0128784,78.3918457,240.4673462
							c0.0535736,0.5776978-0.3722382,1.0908813-0.9504242,1.1439209
							C203.2399597,975.2435303,203.2055359,975.2454224,203.1711121,975.2451782z"/>
					</g>
					<g>
						<path fill="#FFFFFF" d="M181.4347229,864.0606689c-0.078598-0.0004883-0.1576385-0.0101929-0.2361298-0.0281372
							c-1.1489868-0.2719116-28.4839935-7.215332-58.0914764-55.069519
							c-0.3057709-0.4938965-0.1529388-1.1422729,0.3409805-1.4485474c0.4934082-0.3062744,1.1412506-0.1524658,1.4480438,0.3414917
							c26.6449509,43.0665894,51.893425,52.5967407,56.1596146,53.9453735
							c17.1493835-22.0625,9.3005524-63.7502441,9.2183228-64.1729736
							c-0.1106415-0.5698242,0.2614594-1.1223755,0.8317871-1.2329712c0.5734253-0.1157837,1.1228485,0.2625122,1.23349,0.8312988
							c0.3453674,1.7772827,8.2519989,43.7643433-10.0804443,66.4433594
							C182.055542,863.9215698,181.7506104,864.062561,181.4347229,864.0606689z"/>
					</g>
					<g>
						<path fill="#FFFFFF" d="M197.6119385,935.9298096c-0.1022186-0.0006104-0.2043457-0.015564-0.3043213-0.0469971
							c-0.7649841-0.2357178-18.9834747-6.1395874-39.9157715-36.7433472
							c-0.3284454-0.4796753-0.205368-1.1343994,0.274292-1.4623413c0.4776154-0.3279419,1.1343689-0.204895,1.4618073,0.2747803
							c18.6743774,27.3018799,35.4254913,34.6403809,38.3518524,35.7591553
							c11.4588776-7.8349609,14.7392731-36.5335083,14.7713165-36.8261108
							c0.0630341-0.5770264,0.5745239-0.9869385,1.1607971-0.9310303c0.5774841,0.0640259,0.9940643,0.583252,0.9305115,1.1612549
							c-0.1374054,1.2504883-3.5117188,30.7097168-16.1650085,38.6536865
							C198.0062408,935.876709,197.8096924,935.9310303,197.6119385,935.9298096z"/>
					</g>
					<g>
						<path fill="#FFFFFF" d="M159.315155,799.8106689c-0.1766968-0.0010376-0.3515778-0.0462646-0.5087585-0.1345215
							c-0.75-0.4215698-18.4812927-10.4985962-27.759613-26.7005615c-0.2887573-0.5040894-0.1143799-1.1472168,0.3902283-1.4359741
							c0.502533-0.2866821,1.1466675-0.1133423,1.4354248,0.3907471
							c7.7394714,13.5145264,22.0240631,22.9001465,25.9464722,25.3049316
							c3.4082794-9.4907227-1.1784515-32.1954956-1.2273865-32.4320679
							c-0.1162872-0.5698242,0.2501984-1.1254883,0.819519-1.2423096c0.5729218-0.1167603,1.1249847,0.2501831,1.2417908,0.8190308
							c0.2121277,1.0368042,5.148056,25.4798584,0.6151276,34.8375244c-0.1263885,0.2611694-0.354599,0.4581299-0.6314697,0.5447998
							C159.5314941,799.7955322,159.4230194,799.8113403,159.315155,799.8106689z"/>
					</g>
				</g>
			</g>
			<g>
				<path fill="#8FB3DB" d="M179.1407318,987.4036865c18.7901001-1.5723877,0.6155396-65.1541138-8.6336365-79.5780029
					c-9.249176-14.4238281-13.2082367,1.3389893-13.2082367,1.3389893s-24.8685608-50.6601563-41.3871536-58.9315796
					c-16.5186005-8.2714844-9.8978882,10.9494019-9.8978882,10.9494019s-40.0850677-40.6757813-62.8626366-28.9869995
					c-22.7775669,11.6888428,32.6226311,47.8919678,32.6226311,47.8919678s-17.8328285-5.8729248-23.0897675,3.7211914
					s62.501358,46.7211914,62.501358,46.7211914s-16.8840714-2.6242065-21.8124542,6.3702393
					C88.4445724,945.8945313,150.1327057,989.8311768,179.1407318,987.4036865z"/>
				<g opacity="0.3">
					<g>
						<path fill="#FFFFFF" d="M178.4372253,982.6157227c-0.3677826-0.0021973-0.7236176-0.1974487-0.9147034-0.541748
							c-0.5300598-0.9555054-53.8721619-96.0760498-126.0477905-141.0004272
							c-0.4933434-0.3070068-0.6440849-0.9561768-0.3370514-1.4495239s0.9546356-0.6435547,1.4490128-0.3375854
							c72.6444016,45.2168579,126.2426071,140.8064575,126.7757034,141.7670898
							c0.2815552,0.5081787,0.098465,1.1481323-0.4096985,1.4296875
							C178.7893219,982.574646,178.6118622,982.6167603,178.4372253,982.6157227z"/>
					</g>
					<g>
						<path fill="#FFFFFF" d="M125.8117828,912.9711304c-7.8531876-0.0457764-26.2668228-2.5112915-52.5901718-20.607605
							c-0.4788284-0.3285522-0.6002579-0.9836426-0.271225-1.4625244c0.330574-0.4788208,0.985199-0.6002197,1.4629974-0.2706909
							c30.8573914,21.213562,50.8147659,20.463501,54.5924759,20.0863647
							c4.9481201-20.2346802-12.9006042-46.2772217-13.0839539-46.5402832
							c-0.3310394-0.4776001-0.2125778-1.1333618,0.264534-1.4644165c0.4786682-0.3320313,1.1333923-0.2120361,1.4644318,0.2645264
							c0.7776871,1.1213989,18.9889145,27.7064819,13.2102127,48.9686279
							c-0.1060791,0.3897705-0.4268341,0.6847534-0.8243256,0.7584229
							C129.8202667,912.7433472,128.3805389,912.9864502,125.8117828,912.9711304z M129.8461914,911.6688843l0.0102692,0.000061
							L129.8461914,911.6688843z"/>
					</g>
					<g>
						<path fill="#FFFFFF" d="M161.0494232,957.3197021c-4.5910034-0.0273438-17.702301-1.3291016-36.9484024-13.300354
							c-0.4933472-0.3070679-0.6445999-0.9561768-0.3375702-1.4495239c0.3065262-0.4933472,0.9551392-0.6415405,1.4485016-0.3375854
							c20.6749649,12.8591919,34.2494888,13.0582886,36.9108963,12.9570313
							c5.317627-8.8095703-1.0182495-29.2563477-1.083786-29.465332c-0.1744232-0.5537109,0.1337128-1.1446533,0.687973-1.3190918
							c0.5532074-0.1702881,1.1446838,0.1331787,1.3190918,0.6879883c0.2853394,0.9057617,6.9144897,22.3066406,0.54599,31.7016602
							c-0.1720428,0.2537842-0.4458008,0.4205933-0.7500916,0.4557495
							C162.7284241,957.2629395,162.1203766,957.3261108,161.0494232,957.3197021z M162.7213745,956.2047729l0.0102844,0.000061
							L162.7213745,956.2047729z"/>
					</g>
					<g>
						<path fill="#FFFFFF" d="M95.1834717,875.2229614c-0.0318451-0.0001831-0.0636826-0.0014038-0.0955124-0.0046997
							c-0.6463318-0.0634155-15.9611893-1.6361694-27.3033371-10.0149536
							c-0.4674377-0.3449097-0.5662384-1.0040283-0.2213516-1.4714355c0.344368-0.4653931,1.0039978-0.5652466,1.4714355-0.2203369
							c9.10215,6.7237549,21.2470779,8.9145508,25.0608902,9.4602051
							c-0.7660599-7.5493164-10.4810257-21.3345337-10.5844269-21.4810181
							c-0.3356781-0.4735718-0.2238922-1.1303711,0.2501755-1.4665527c0.4730453-0.3372192,1.1303787-0.2244263,1.466568,0.2501221
							c0.4615021,0.651001,11.3026199,16.0394287,11.0130844,23.9348145
							c-0.0104675,0.2906494-0.1405106,0.5631714-0.3589249,0.7539673
							C95.6879196,875.1324463,95.43927,875.2244873,95.1834717,875.2229614z"/>
					</g>
				</g>
			</g>
		</g>
		<g>
			<path fill="#8FB3DB" d="M1001.7001343,977.2255859c-0.2753296-0.0016479-0.5489502-0.1101074-0.7542114-0.3250122
				c-0.4011841-0.4205322-0.3859253-1.0861816,0.0335693-1.4874268
				c0.5765381-0.550293,58.0780029-55.9402466,98.9556885-131.9020996c0.2752686-0.512085,0.9133301-0.7023926,1.425415-0.4281616
				c0.5109863,0.2753296,0.7033691,0.9133911,0.4281006,1.425415
				c-41.041748,76.2659912-98.7767944,131.8734131-99.3553467,132.4257813
				C1002.2277222,977.1300659,1001.9631348,977.2271118,1001.7001343,977.2255859z"/>
		</g>
	</g>
</g>
<g id="Chair_2">
	<g>
		<g>
			<path fill="#222B3F" d="M837.380127,785.5839844H608.3409424c0,0-48.6577759-140.6374512-45.5911255-221.147583
				c1.8605347-48.8827515,19.2995605-82.9431458,51.295166-100.2187195
				c20.6898193-11.1627197,47.4719849-15.3128662,80.0604248-11.8782349
				c84.2925415,8.852478,119.4569092,99.7279968,124.9360352,145.7279968h0.4498291L837.380127,785.5839844z"/>
		</g>
		<g opacity="0.3">
			<path fill="#FFFFFF" d="M646.2888794,788.8813477c-0.4273682,0-0.8290405-0.2619629-0.9862061-0.6862793
				c-43.7863159-117.9770508-47.9469604-196.8174438-43.7267456-242.1811523
				c4.5880127-49.3184204,19.3741455-70.3439941,20.0008545-71.2151489
				c0.3389893-0.4710388,0.9954224-0.5778503,1.4680176-0.2388611c0.47052,0.3390198,0.5783691,0.9960022,0.2393799,1.4675293
				c-0.1500244,0.2106018-15.1344604,21.5803223-19.6361694,70.4245911
				c-4.1575317,45.119751,0.0359497,123.5595093,43.6270752,241.0115967
				c0.2023926,0.5444946-0.0750122,1.1495972-0.6204834,1.3519897
				C646.5344238,788.8607788,646.4100952,788.8813477,646.2888794,788.8813477z"/>
		</g>
		<g>
			<g>
				<g>
					<path fill="#222B3F" d="M742.4123535,798.5230713l35.8577271,187.1121216
						c0.8425293,4.3965454-2.5269775,8.4731445-7.00354,8.4731445h-0.000061c-3.1668701,0-5.9542847-2.088562-6.8438721-5.1279297
						l-55.7435913-190.4573364H742.4123535z"/>
				</g>
				<g>
					<path fill="#222B3F" d="M631.5012207,798.5230713l-35.8577271,187.1121216
						c-0.8425293,4.3965454,2.5269775,8.4731445,7.00354,8.4731445l0,0c3.1668701,0,5.9543457-2.088562,6.8439331-5.1279297
						l55.7435913-190.4573364H631.5012207z"/>
				</g>
				<g>
					<path fill="#222B3F" d="M882.9679565,798.5230713l35.8577271,187.1121216
						c0.8425293,4.3965454-2.5269775,8.4731445-7.0036011,8.4731445l0,0c-3.1668701,0-5.9542847-2.088562-6.8438721-5.1279297
						l-55.7435913-190.4573364H882.9679565z"/>
				</g>
				<g>
					<path fill="#222B3F" d="M772.0568237,798.5230713l-35.8577271,187.1121216
						c-0.8425903,4.3965454,2.5269775,8.4731445,7.00354,8.4731445l0,0c3.1668701,0,5.9543457-2.088562,6.8438721-5.1279297
						l55.7436523-190.4573364H772.0568237z"/>
				</g>
			</g>
			<g>
				<polygon fill="#222B3F" points="902.7375488,785.581604 890.4708862,808.7453003 616.2856445,808.7453003 
					608.3374634,785.581604 				"/>
				<g opacity="0.3">
					<path fill="#FFFFFF" d="M659.9614258,809.7974854H632.616333c-0.5814819,0-1.052002-0.470459-1.052002-1.0519409
						s0.47052-1.052002,1.052002-1.052002h27.3450928c0.5814819,0,1.052002,0.47052,1.052002,1.052002
						S660.5429077,809.7974854,659.9614258,809.7974854z"/>
				</g>
				<g opacity="0.3">
					<path fill="#FFFFFF" d="M739.9503784,809.7974854h-24.5333862c-0.5814209,0-1.0519409-0.470459-1.0519409-1.0519409
						s0.47052-1.052002,1.0519409-1.052002h24.5333862c0.5814209,0,1.0519409,0.47052,1.0519409,1.052002
						S740.5317993,809.7974854,739.9503784,809.7974854z"/>
				</g>
			</g>
			<path fill="#222B3F" d="M902.7375488,785.581604l-8.7947998,23.1636963H742.3869019
				c-1.7379761-5.7654419-3.9666138-13.6365356-6.3175049-23.1636963H902.7375488z"/>
			<g opacity="0.3">
				<path fill="#FFFFFF" d="M799.5747681,809.7974854h-26.8879395c-0.5814819,0-1.0519409-0.470459-1.0519409-1.0519409
					s0.470459-1.052002,1.0519409-1.052002h26.8879395c0.5814819,0,1.052002,0.47052,1.052002,1.052002
					S800.15625,809.7974854,799.5747681,809.7974854z"/>
			</g>
			<g opacity="0.3">
				<path fill="#FFFFFF" d="M882.4268799,809.7974854h-26.8880005c-0.5814209,0-1.0519409-0.470459-1.0519409-1.0519409
					s0.47052-1.052002,1.0519409-1.052002h26.8880005c0.5814209,0,1.0519409,0.47052,1.0519409,1.052002
					S883.0083008,809.7974854,882.4268799,809.7974854z"/>
			</g>
		</g>
	</g>
</g>
<g id="Chair_1">
	<g>
		<g>
			<path fill="#222B3F" d="M472.8545227,785.5839844H243.8152924c0,0-48.6577759-140.6374512-45.5911102-221.147583
				c1.8605194-48.8827515,19.2995758-82.9431458,51.2951813-100.2187195
				c20.6897736-11.1627197,47.4719696-15.3128662,80.0604095-11.8782349
				c84.292572,8.852478,119.4569092,99.7279968,124.9360046,145.7279968h0.4498596L472.8545227,785.5839844z"/>
		</g>
		<g opacity="0.3">
			<path fill="#FFFFFF" d="M281.7630005,788.8813477c-0.4273682,0-0.8290405-0.2619629-0.9862366-0.6862793
				c-43.7862854-117.9770508-47.9464111-196.8174438-43.7266998-242.1811523
				c4.5879822-49.3184204,19.373642-70.3439941,20.0008087-71.2151489c0.338501-0.4710388,0.9960022-0.5778503,1.4675293-0.2388611
				c0.4715576,0.3390198,0.5788879,0.9960022,0.240387,1.4675293c-0.151001,0.2106018-15.1354523,21.5803223-19.6361237,70.4245911
				c-4.1580658,45.119751,0.0354462,123.5595093,43.6265411,241.0115967
				c0.2023926,0.5444946-0.0755005,1.1495972-0.6199646,1.3519897
				C282.0085144,788.8607788,281.8847351,788.8813477,281.7630005,788.8813477z"/>
		</g>
		<g>
			<g>
				<g>
					<path fill="#222B3F" d="M377.8867188,798.5230713l35.8576965,187.1121216
						c0.8425598,4.3965454-2.526947,8.4731445-7.00354,8.4731445l0,0c-3.1668701,0-5.9543457-2.088562-6.8439026-5.1279297
						l-55.7435913-190.4573364H377.8867188z"/>
				</g>
				<g>
					<path fill="#222B3F" d="M266.9755554,798.5230713l-35.8577118,187.1121216
						c-0.8425446,4.3965454,2.5269775,8.4731445,7.0035553,8.4731445h0.0000153c3.1668701,0,5.9543152-2.088562,6.8438873-5.1279297
						l55.7436218-190.4573364H266.9755554z"/>
				</g>
				<g>
					<path fill="#222B3F" d="M518.4423218,798.5230713l35.8577271,187.1121216
						c0.8425293,4.3965454-2.5269775,8.4731445-7.0036011,8.4731445l0,0c-3.1668701,0-5.9542847-2.088562-6.8438721-5.1279297
						l-55.7436218-190.4573364H518.4423218z"/>
				</g>
				<g>
					<path fill="#222B3F" d="M407.5311584,798.5230713l-35.8577271,187.1121216
						c-0.8425293,4.3965454,2.5269775,8.4731445,7.0035706,8.4731445l0,0c3.1668701,0,5.9543152-2.088562,6.8439026-5.1279297
						l55.7435913-190.4573364H407.5311584z"/>
				</g>
			</g>
			<g>
				<polygon fill="#222B3F" points="538.2119141,785.581604 525.9452515,808.7453003 251.7600098,808.7453003 
					243.8118439,785.581604 				"/>
				<g opacity="0.3">
					<path fill="#FFFFFF" d="M295.4355469,809.7974854h-27.3451233c-0.5809326,0-1.0519714-0.470459-1.0519714-1.0519409
						s0.4710388-1.052002,1.0519714-1.052002h27.3451233c0.5809631,0,1.0519714,0.47052,1.0519714,1.052002
						S296.01651,809.7974854,295.4355469,809.7974854z"/>
				</g>
				<g opacity="0.3">
					<path fill="#FFFFFF" d="M375.4249878,809.7974854h-24.533844c-0.5809631,0-1.0519714-0.470459-1.0519714-1.0519409
						s0.4710083-1.052002,1.0519714-1.052002h24.533844c0.5809631,0,1.0519714,0.47052,1.0519714,1.052002
						S376.0059509,809.7974854,375.4249878,809.7974854z"/>
				</g>
			</g>
			<path fill="#222B3F" d="M538.2119141,785.581604l-8.7947998,23.1636963H377.8612671
				c-1.7379761-5.7654419-3.9666138-13.6365356-6.3175049-23.1636963H538.2119141z"/>
			<g opacity="0.3">
				<path fill="#FFFFFF" d="M435.0489197,809.7974854h-26.8874512c-0.5809326,0-1.0519714-0.470459-1.0519714-1.0519409
					s0.4710388-1.052002,1.0519714-1.052002h26.8874512c0.5809326,0,1.0519714,0.47052,1.0519714,1.052002
					S435.6298523,809.7974854,435.0489197,809.7974854z"/>
			</g>
			<g opacity="0.3">
				<path fill="#FFFFFF" d="M517.901001,809.7974854h-26.8874512c-0.5809631,0-1.0519714-0.470459-1.0519714-1.0519409
					s0.4710083-1.052002,1.0519714-1.052002h26.8874512c0.5809326,0,1.0519409,0.47052,1.0519409,1.052002
					S518.4819336,809.7974854,517.901001,809.7974854z"/>
			</g>
		</g>
	</g>
</g>
<g id="Layer_x5F_Character_2">
	<g id="left_thigh_00000138552525322259540900000007149697693716319412_">
		<g>
			<path fill="#6081C1" d="M945.0801392,742.3302002c8.7771606-12.7652588,5.6348267-36.9460449-16.2270508-50.567627
				l-102.1630249-33.6127319l-100.5707397-13.8718872l-0.4483643,58.2806396
				c-0.2306519,29.9918213,24.0182495,54.4280396,54.0109253,54.4280396h108.5644531
				C888.2463379,756.9866333,932.9551392,759.9644165,945.0801392,742.3302002z"/>
			<path opacity="0.2" d="M945.0801392,742.3302002c8.7771606-12.7652588,5.6348267-36.9460449-16.2270508-50.567627
				l-102.1630249-33.6127319l-100.5707397-13.8718872l-0.4483643,58.2806396
				c-0.2306519,29.9918213,24.0182495,54.4280396,54.0109253,54.4280396h108.5644531
				C888.2463379,756.9866333,932.9551392,759.9644165,945.0801392,742.3302002z"/>
			<g opacity="0.3">
				<path fill="#FFFFFF" d="M926.1402588,754.3799438c-0.3389893,0-0.671875-0.1633301-0.8742065-0.4653931
					c-19.4615479-28.9846802-40.9961548-28.8059692-41.1851807-28.7946777
					c-0.0718994,0.0010376-0.145874-0.005127-0.2156982-0.0164185c-1.6210938-0.2948608-3.2833252-0.4437866-4.9393311-0.4437866
					H769.03479c-0.5568237,0-1.0170288-0.4335327-1.0499268-0.9893188l-3.9007568-65.4575195
					c-0.0349121-0.5804443,0.4078979-1.0786743,0.9873047-1.1126099c0.5794067-0.0308228,1.0786743,0.4067993,1.1125488,0.9872437
					l3.8421631,64.4682617h108.8997192c1.7463989,0,3.500061,0.1541138,5.2125854,0.4581909c0.0236206,0,0.0513916,0,0.0811768,0
					c2.3936157,0,23.4053345,0.8526611,42.7928467,29.727478c0.3236084,0.4827881,0.1951904,1.1361694-0.2866211,1.4597778
					C926.5460815,754.3223877,926.3416138,754.3799438,926.1402588,754.3799438z"/>
			</g>
			<g opacity="0.3">
				<path fill="#FFFFFF" d="M767.1948242,693.7600098c-0.3811035,0-0.7489014-0.2075195-0.9358521-0.5690918
					c-0.2660522-0.5157471-0.0646973-1.1506348,0.4520264-1.4177246l3.6983032-1.9128418
					c6.6591187-3.4436035,10.7960815-10.2402954,10.7960815-17.7366333v-13.9735718
					c0-0.5814819,0.47052-1.0519409,1.052002-1.0519409c0.5814209,0,1.0519409,0.470459,1.0519409,1.0519409v13.9735718
					c0,8.2863159-4.5725708,15.7990723-11.9343262,19.6063232l-3.6983643,1.9129028
					C767.522583,693.7220459,767.3571777,693.7600098,767.1948242,693.7600098z"/>
			</g>
		</g>
	</g>
	<g id="left_calf_00000043421826803269600530000000424175814158815668_">
		<g>
			<g>
				<g>
					<path fill="#FBBDBB" d="M939.5633545,929.0585938c0,0,20.8728638-4.9830933,20.6513062-5.5829468
						c-0.1594849-0.4317017-2.6323853-17.9780884-3.9540405-27.3882446
						c-0.4917603-3.4719849-0.8183594-5.8327637-0.8183594-5.8327637l-25.2637329,6.6049805l5.010376,17.1816406
						L939.5633545,929.0585938z"/>
					<path fill="#222B3F" d="M930.1785278,896.8596191l5.010376,17.1816406
						c11.8838501-6.4345703,18.164856-13.717041,21.0717163-17.9538574
						c-0.4917603-3.4719849-0.8183594-5.8327637-0.8183594-5.8327637L930.1785278,896.8596191z"/>
				</g>
				<g>
					<path fill="#222B3F" d="M964.1785278,919.7550049c0,0,30.7318726,27.3805542,35.0332642,27.6633301
						c4.3013916,0.2828369,23.9675293,2.7058716,23.9675293,2.7058716l10.2520752,30.5864868
						c0,0-73.3880005,7.406311-112.0831299,2.5070801c-1.3118896-20.8517456,1.9779663-45.5095825,10.8267822-62.5036011
						C941.968689,923.2138062,952.588501,923.0483398,964.1785278,919.7550049z"/>
					<g opacity="0.3">
						<path fill="#FFFFFF" d="M990.1051636,958.7700806c0.4057007-0.0338745,0.7823486-0.2776489,0.96875-0.6717529
							c0.2763672-0.588562,0.0239258-1.289917-0.5648193-1.5686035
							c-25.6914063-12.0793457-39.484314-31.159668-39.6201782-31.3491821
							c-0.3768921-0.5339966-1.1140747-0.6548462-1.6410522-0.2761841c-0.5317383,0.376709-0.6550903,1.1117554-0.2762451,1.6410522
							c0.138916,0.1984253,14.291748,19.7749634,40.5336914,32.1177368
							C989.6998291,958.7531128,989.9057007,958.7866821,990.1051636,958.7700806z"/>
					</g>
					<path fill="#FF8D88" d="M1005.6724854,945.382019c-15.2396851,9.6132813-18.9012451,34.9439087-18.9012451,34.9439087
						c-27.3833008,2.4985962-68.0075073,0.1130371-68.0075073,0.1130371l0.605835,13.6693726h123.7697144
						C1048.5656738,941.2053223,1005.6724854,945.382019,1005.6724854,945.382019z"/>
					<path opacity="0.2" d="M1005.6724854,945.382019c-15.2396851,9.6132813-18.9012451,34.9439087-18.9012451,34.9439087
						c-27.3833008,2.4985962-68.0075073,0.1130371-68.0075073,0.1130371l0.605835,13.6693726h123.7697144
						C1048.5656738,941.2053223,1005.6724854,945.382019,1005.6724854,945.382019z"/>
					
						<ellipse transform="matrix(0.9965374 -0.0831454 0.0831454 0.9965374 -76.1488037 81.6295242)" fill="#EEEEEE" cx="941.9938354" cy="955.079834" rx="12.4692345" ry="15.0270262"/>
				</g>
			</g>
			<g>
				<g>
					<path fill="#6081C1" d="M958.5737915,740.0515747c-0.0557251-20.3995361-11.5338745-39.0487671-29.7207031-48.2890015
						c-25.3253174-9.8062744-43.0053101,7.4610596-48.3571777,22.5160522
						c-5.2740479,14.8363037-1.6706543,35.7960205-1.6706543,35.7960205l34.399292,135.9702759l45.7453003-0.8760986
						L958.5737915,740.0515747z"/>
					<path opacity="0.2" d="M958.5737915,740.0515747c-0.0557251-20.3995361-11.5338745-39.0487671-29.7207031-48.2890015
						c-25.3253174-9.8062744-43.0053101,7.4610596-48.3571777,22.5160522
						c-5.2740479,14.8363037-1.6706543,35.7960205-1.6706543,35.7960205l34.399292,135.9702759l45.7453003-0.8760986
						L958.5737915,740.0515747z"/>
					<g opacity="0.3">
						<path fill="#FFFFFF" d="M921.3869019,862.4741821c-0.4972534,0-0.9389648-0.3533936-1.0335083-0.8588257
							l-22.8434448-122.6348877c-1.6066895-8.6264038-7.6535034-10.6306763-16.0230103-13.4034424
							c-0.9482422-0.3143311-1.9180298-0.6348267-2.9031982-0.9749146
							c-0.5496216-0.1890259-0.8413696-0.7879028-0.6523438-1.3365479c0.1890259-0.5495605,0.7869263-0.8444214,1.3365479-0.6523438
							c0.9779663,0.3359375,1.9395752,0.6554565,2.8805542,0.9667358
							c8.3685303,2.7727051,15.5957031,5.1674194,17.430481,15.0142212l22.8434448,122.6348877
							c0.1057739,0.571228-0.2712402,1.1208496-0.8413696,1.2276611
							C921.5152588,862.4680176,921.4505615,862.4741821,921.3869019,862.4741821z"/>
					</g>
					<polygon fill="#6081C1" points="902.2265625,870.5427856 965.734436,865.3746948 967.762146,906.4724731 
						910.7131348,909.5615234 					"/>
					
						<ellipse transform="matrix(0.9376453 -0.3475935 0.3475935 0.9376453 -196.1042938 368.075531)" opacity="0.3" fill="#FFFFFF" cx="927.8585815" cy="730.6253052" rx="21.0244846" ry="30.9948807"/>
				</g>
			</g>
		</g>
	</g>
	<g id="left_arm_00000111181421153115270740000007962366145348941231_">
		<g>
			<path fill="#374D6D" d="M861.8167725,525.088562c0,0-29.0108643,31.6679688-69.0506592,7.6920166
				c0,0,4.612793-17.1173706,31.1973877-24.1430359S861.8167725,525.088562,861.8167725,525.088562z"/>
			<path fill="#FBBDBB" d="M854.4732056,516.9564819l7.3435669,52.2675171c0,0,2.9763794,27.8120728-21.0491943,29.2506104
				c-24.0255127,1.4385986-37.1196289-25.9333496-40.9558105-73.3860474
				C799.8117676,525.088562,814.5223389,511.20224,854.4732056,516.9564819z"/>
			<g>
				<path fill="#FF8D88" d="M793.1127319,409.7183228c5.7634277-1.9980164,12.15979-0.8542175,17.1231689,2.6917419
					c9.3495483,6.6795349,27.6027832,21.1097412,32.8796997,35.3144531
					c7.192749,19.3619995,18.7011719,77.3640442,18.7011719,77.3640442s-18.0228882-9.5706787-59.600647,3.855896
					l-9.4500122,3.8361206c0,0-9.1154175-44.5952148-11.2709961-78.1615295
					C779.7886963,428.0457153,781.3693848,413.7894592,793.1127319,409.7183228z"/>
				<g opacity="0.3">
					<path fill="#FFFFFF" d="M802.6814575,519.5708008c-0.4129639,0-0.8043823-0.2445068-0.9729004-0.649292
						c-0.2218628-0.5368042,0.0318604-1.1521606,0.5691528-1.3745728
						c0.2599487-0.1078491,26.350708-10.7287598,50.5614624-3.3916626c0.5557861,0.168457,0.8701172,0.7561035,0.7016602,1.3118896
						c-0.1685181,0.5552368-0.7540894,0.8716431-1.3118896,0.7016602
						c-23.4752197-7.1146851-48.8910522,3.217041-49.145813,3.3218384
						C802.9516602,519.545105,802.8150024,519.5708008,802.6814575,519.5708008z"/>
				</g>
			</g>
		</g>
	</g>
	<g id="left_forearm_00000104669592503777548320000004749857370182373771_">
		<g>
			<path fill="#FBBDBB" d="M861.8167725,569.223999l56.5831909,97.3178101c0,0,34.0458374,10.4169922,35.7241821,11.6942139
				c1.6782837,1.2772217,2.5981445,31.9561157,0.3432007,34.039978c-3.7597656,3.4744873-5.4980469-0.5151367-5.4980469-0.5151367
				s-0.5118408,3.0328979-4.9150391,3.2367554c-3.2367554,0.1498413-4.3156738-2.8770752-4.3156738-2.8770752
				s-1.6783447,3.3499756-4.7952271,3.2333984c-3.1168213-0.1165161-4.795166-2.9936523-4.795166-2.9936523
				s-0.7492676,4.7651978-6.2337646,2.9966431c-4.3370972-1.3985596-6.4734497-22.6488647-6.4734497-22.6488647
				l-10.7891846-1.8803711c0,0,7.9120483,8.8902588,8.3915405,12.3342896
				c0.4795532,3.4440918-1.4385376,7.2802124-8.8710938,2.7247925c-7.4324951-4.5554199-12.7072144-8.9248657-14.145752-15.1317139
				c-1.4385986-6.2068481,0.9589844-15.3261108,0.9589844-15.3261108s-66.5044556-55.8555298-75.5241699-87.5037231
				C808.4416504,556.2769775,845.1293335,541.0761108,861.8167725,569.223999z"/>
			<g>
				<path fill="#222B3F" d="M929.9084473,711.1350098c-0.5722046,0-1.0406494-0.4581299-1.0519409-1.0324097
					c-0.0031128-0.1921387-0.3616333-19.2858276-0.593811-21.6137085c-0.1469116-1.4629517-2.0371704-2.6515503-2.7531738-2.9864502
					c-0.526001-0.2454834-0.7540894-0.8711548-0.5106201-1.3971558c0.2455444-0.5259399,0.868103-0.7540283,1.394104-0.5126343
					c0.1499634,0.0688477,3.6665039,1.7249146,3.9633789,4.6866455c0.2403564,2.413147,0.588623,20.9942627,0.6040649,21.7842407
					c0.0102539,0.5804443-0.4509888,1.0601807-1.0324707,1.0714722
					C929.921814,711.1350098,929.9146118,711.1350098,929.9084473,711.1350098z"/>
			</g>
			<g>
				<path fill="#222B3F" d="M939.8015137,709.9207764c-0.5722046,0-1.0406494-0.4581909-1.0519409-1.0324707
					c-0.0031128-0.1921387-0.3616333-19.2858276-0.593811-21.6126709c-0.1469116-1.4629517-2.0371704-2.6525879-2.7542114-2.9874878
					c-0.5249634-0.246521-0.7530518-0.8711548-0.5085449-1.3971558c0.2445068-0.5259399,0.8670654-0.7540283,1.3930664-0.5126343
					c0.1499634,0.0698853,3.6664429,1.7258911,3.9633789,4.6876831c0.2403564,2.4111328,0.588623,20.9932251,0.6040649,21.7832031
					c0.0102539,0.5804443-0.4509888,1.0601807-1.0324707,1.0715332
					C939.8148804,709.9207764,939.8076782,709.9207764,939.8015137,709.9207764z"/>
			</g>
			<g>
				<path fill="#222B3F" d="M948.954895,709.2766113c-0.0020142,0-0.0040894,0-0.0061646,0
					c-0.5803833-0.0030518-1.0488892-0.4766846-1.0457764-1.0581055c0.0010376-0.1972656,0.1068115-19.7861328-0.0195313-22.1335449
					c-0.0801392-1.467041-1.914917-2.7419434-2.6155396-3.1087036c-0.5136719-0.269104-0.7139893-0.9039917-0.4458618-1.4187012
					c0.2681274-0.5136719,0.8968506-0.7160645,1.4156494-0.447876c0.145874,0.0749512,3.5853271,1.8892212,3.7456055,4.8622437
					c0.1314697,2.4090576,0.02771,21.4493408,0.0236206,22.2589111
					C950.0037842,708.8092041,949.5333252,709.2766113,948.954895,709.2766113z"/>
			</g>
		</g>
	</g>
	<g id="right_thigh_00000163758571015884048480000013065677554467010698_">
		<g>
			<path fill="#6081C1" d="M869.3577271,741.2600708c7.7935791-13.3884888,2.84375-37.2649536-19.9795532-49.2059326
				l-104.3991699-25.8438721l-101.3286133-6.2783813l3.930603,58.1496582
				c2.0227661,29.9243774,28.0387573,52.4701538,57.9466553,50.2172852l108.2577515-8.1547241
				C813.7854004,760.144104,858.5915527,759.755188,869.3577271,741.2600708z"/>
			<g opacity="0.3">
				<path fill="#FFFFFF" d="M851.2971802,754.7014771c-0.3123169,0-0.6205444-0.1376343-0.828064-0.4016724
					c-21.5828857-27.4417114-43.0178223-25.6448975-43.2304688-25.6202393
					c-0.072937,0.0072021-0.145874,0.0072021-0.2167969-0.0010376c-1.612854-0.168457-1.9077148-1.7608032-2.083374-2.7120972
					c-0.0462646-0.2496338-0.1181641-0.6369629-0.1951904-0.8383179l-112.2302246,11.730957
					c-0.571228,0.0657349-1.074585-0.3421021-1.1516724-0.9040527l-8.8071899-64.9788208
					c-0.078064-0.5762939,0.3256836-1.1064453,0.901001-1.1845093c0.5783691-0.0739746,1.1063843,0.3267212,1.1845093,0.901001
					l8.6694946,63.9678955l111.3457031-11.6384888c1.8225098-0.1355591,2.1902466,1.6837769,2.3526001,2.5621338
					c0.0564575,0.3040771,0.145874,0.7910767,0.2506714,0.9821167c2.5775146-0.1797485,23.4803467-0.7571411,44.8649292,26.4328613
					c0.3595581,0.4561157,0.2804565,1.1177368-0.1766968,1.4772949
					C851.7532959,754.6275024,851.5241699,754.7014771,851.2971802,754.7014771z"/>
			</g>
			<g opacity="0.3">
				<path fill="#FFFFFF" d="M688.2476196,706.1915894c-0.3533936,0-0.6975708-0.1777344-0.8968506-0.5003052
					c-0.3040771-0.4941406-0.151001-1.142395,0.3441772-1.4475098l3.5441895-2.1850586
					c6.3817139-3.9335938,9.9957886-11.0210571,9.4328613-18.4968872l-1.0499268-13.9345093
					c-0.0441895-0.5794067,0.3903809-1.0848389,0.9697876-1.1279907c0.5753174-0.0349121,1.0848389,0.3903809,1.1279907,0.9697876
					l1.0499268,13.9345093c0.6225586,8.2637329-3.3726807,16.0980835-10.4272461,20.4467163l-3.5442505,2.1851196
					C688.626709,706.1412354,688.4356079,706.1915894,688.2476196,706.1915894z"/>
			</g>
		</g>
	</g>
	<g id="right_calf_00000168094791091054444780000015044328219527323571_">
		<g>
			<g>
				<g>
					<path fill="#FBBDBB" d="M887.3208618,929.0585938c0,0,20.8728027-4.9830933,20.6512451-5.5829468
						c-0.1594238-0.4317017-2.6323853-17.9780884-3.9539795-27.3882446
						c-0.4918213-3.4719849-0.8184204-5.8327637-0.8184204-5.8327637l-25.2636719,6.6049805l5.0103149,17.1816406
						L887.3208618,929.0585938z"/>
					<path fill="#222B3F" d="M877.9360352,896.8596191l5.0103149,17.1816406
						c11.8838501-6.4345703,18.164856-13.717041,21.0717773-17.9538574
						c-0.4918213-3.4719849-0.8184204-5.8327637-0.8184204-5.8327637L877.9360352,896.8596191z"/>
				</g>
				<g>
					<path fill="#222B3F" d="M911.9359741,919.7550049c0,0,30.7319336,27.3805542,35.0333252,27.6633301
						c4.3013916,0.2828369,23.9675293,2.7058716,23.9675293,2.7058716l10.2520142,30.5864868
						c0,0-73.3880005,7.406311-112.0831299,2.5070801c-1.3118896-20.8517456,1.9779663-45.5095825,10.8268433-62.5036011
						C889.7261963,923.2138062,900.3460083,923.0483398,911.9359741,919.7550049z"/>
					<g opacity="0.3">
						<path fill="#FFFFFF" d="M937.8626099,958.7700806c0.4057007-0.0338745,0.7824097-0.2776489,0.968811-0.6717529
							c0.2763062-0.588562,0.0239258-1.289917-0.5648193-1.5686035
							c-25.6914063-12.0793457-39.484375-31.159668-39.6201782-31.3491821
							c-0.3769531-0.5339966-1.1140747-0.6548462-1.6411133-0.2761841c-0.5317383,0.376709-0.6550903,1.1117554-0.2762451,1.6410522
							c0.138916,0.1984253,14.2918091,19.7749634,40.5337524,32.1177368
							C937.4572754,958.7531128,937.663208,958.7866821,937.8626099,958.7700806z"/>
					</g>
					<path fill="#FF8D88" d="M953.4299927,945.382019c-15.2396851,9.6132813-18.9013062,34.9439087-18.9013062,34.9439087
						c-27.3833008,2.4985962-68.0075073,0.1130371-68.0075073,0.1130371l0.605835,13.6693726h123.7697144
						C996.3230591,941.2053223,953.4299927,945.382019,953.4299927,945.382019z"/>
					
						<ellipse transform="matrix(0.9965374 -0.0831454 0.0831454 0.9965374 -76.3296967 77.2857971)" fill="#EEEEEE" cx="889.7512817" cy="955.079834" rx="12.4692345" ry="15.0270262"/>
				</g>
			</g>
			<g>
				<g>
					<path fill="#6081C1" d="M908.6582031,878.3615112l-45.0770874,7.8057251l-54.6289063-129.1821899
						c0,0-5.7122192-17.0946045-4.3025513-31.8748169c0.0631104-0.6942749,0.1472168-1.3991089,0.2419434-2.0828857
						c0.0841675-0.5680542,0.178833-1.1256714,0.2840576-1.6726685c3.008606-15.6954346,17.8729858-35.440918,44.3826904-29.5919189
						c19.3773193,6.374939,33.5579224,23.0697021,36.7033081,43.2254639L908.6582031,878.3615112z"/>
					<g opacity="0.3">
						<path fill="#FFFFFF" d="M868.2623901,861.5826416c-0.1156616,0.0420532-0.2313843,0.0631104-0.347168,0.0631104
							c-0.4417725,0-0.8415527-0.2735596-0.9993286-0.704895l-41.1741943-117.7577515
							c-3.2716064-9.3625488-11.350769-16.2739868-21.092041-18.072876
							c0.0631104-0.6942749,0.1472168-1.3991089,0.2419434-2.0828857c0.0210571-0.0105591,0.0420532,0,0.0631104,0
							c10.5197144,1.9145508,19.2405396,9.3730469,22.7752686,19.4614868l41.1741333,117.7577515
							C869.0935059,860.7936401,868.8094482,861.3932495,868.2623901,861.5826416z"/>
					</g>
					<polygon fill="#6081C1" points="850.3549805,872.5130005 912.3447266,857.7741699 920.5811768,898.0891724 
						864.6603394,909.7935791 					"/>
					<polygon opacity="0.3" fill="#FFFFFF" points="850.3549805,872.5130005 912.3447266,857.7741699 920.5811768,898.0891724 
						864.6603394,909.7935791 					"/>
					
						<ellipse transform="matrix(0.874092 -0.4857604 0.4857604 0.874092 -247.1787872 507.0232239)" opacity="0.3" fill="#FFFFFF" cx="854.4732056" cy="730.3267212" rx="21.0244846" ry="30.9948807"/>
				</g>
			</g>
		</g>
	</g>
	<g id="body_00000135666564315212979000000008220850362798085562_">
		<g>
			<g>
				<path fill="#FBBDBB" d="M742.9108887,375.7972717c0.3978271,1.4761353-18.0314331,2.1647949-18.0314331,2.1647949
					l-6.4050903-23.0939026l21.4885864,0.8795166c0,0,1.2700195,9.2016602,2.1633911,15.1625671
					C742.4981079,373.4377747,742.7926636,375.368042,742.9108887,375.7972717z"/>
				<path fill="#222B3F" d="M742.1263428,370.9102478c-15.3970337-3.719696-23.6519775-16.0420837-23.6519775-16.0420837
					l21.4885864,0.8795166C739.9629517,355.7476807,741.2329712,364.9493408,742.1263428,370.9102478z"/>
			</g>
			<g>
				<path fill="#6081C1" d="M704.6968994,380.7423096l6.4313965,24.2453003l49.465332-1.4427185l2.5487061-24.7445679
					C763.142334,378.8003235,737.3978882,363.588562,704.6968994,380.7423096z"/>
				<g>
					<path fill="#FF8D88" d="M751.0373535,392.1740112c-41.5419922-0.9577332-67.6646729,11.6234436-81.322876,21.0821228
						c-7.4187622,5.1376953-12.4537964,13.0229492-14.1742554,21.8815002
						c-6.4990845,33.4633484-23.6099243,132.7894287-19.1517944,230.8823853c0,0,118.1225586,36.618103,210.9515381-0.6119995
						c0,0,3.4666748-121.1298218-19.7327271-224.0389709c-3.6425171-16.1574707-14.6820679-29.6077881-29.7507935-36.482666
						C784.3293457,398.7148743,766.9611206,392.5411377,751.0373535,392.1740112z"/>
					<g>
						<path fill="#FF8D88" d="M847.241333,623.9466553c-0.571228,0-1.0386353-0.4561157-1.052002-1.0293579
							c-1.046814-47.6808472-5.2988892-117.8435059-19.6083984-181.3172913
							c-0.1273804-0.5665588,0.2280884-1.1295471,0.795166-1.2574463c0.5639648-0.1278992,1.1300659,0.2280579,1.2574463,0.7951355
							c14.3474731,63.6438293,18.6098022,133.9559326,19.659729,181.734375
							c0.0123291,0.5804443-0.447876,1.0612183-1.0293579,1.074585
							C847.2567139,623.9466553,847.2485352,623.9466553,847.241333,623.9466553z"/>
					</g>
					<g opacity="0.3">
						<path fill="#FFFFFF" d="M847.241333,623.9466553c-0.571228,0-1.0386353-0.4561157-1.052002-1.0293579
							c-1.046814-47.6808472-5.2988892-117.8435059-19.6083984-181.3172913
							c-0.1273804-0.5665588,0.2280884-1.1295471,0.795166-1.2574463c0.5639648-0.1278992,1.1300659,0.2280579,1.2574463,0.7951355
							c14.3474731,63.6438293,18.6098022,133.9559326,19.659729,181.734375
							c0.0123291,0.5804443-0.447876,1.0612183-1.0293579,1.074585
							C847.2567139,623.9466553,847.2485352,623.9466553,847.241333,623.9466553z"/>
					</g>
					<g opacity="0.3">
						<path fill="#FFFFFF" d="M755.1105347,445.0240479c-2.7131348,0-5.1149902-2.0140686-5.5146484-4.7523804
							c-4.3527222-29.797821-16.03125-46.9689026-16.1483765-47.138916
							c-0.3308105-0.4777222-0.2106323-1.1331482,0.2670898-1.4634399c0.4746094-0.3318176,1.1311035-0.2116089,1.4628906,0.2660828
							c0.1201782,0.1736145,12.0709839,17.7109375,16.4997559,48.032196
							c0.269165,1.8394165,1.9909058,3.1533508,3.8432007,2.9278564l5.2444458-0.6374512
							c0.9430542-0.1145325,1.7772217-0.5932617,2.3515015-1.3478394c0.5681152-0.7494202,0.8043823-1.6734924,0.6636353-2.6022034
							c-1.2132568-7.9950867-4.9732056-28.4489441-13.6817627-45.6585693
							c-0.2619629-0.5187988-0.0544434-1.1516113,0.4643555-1.4135742c0.5177612-0.2635193,1.1505737-0.055481,1.4135742,0.4633179
							c8.8451538,17.481842,12.6555176,38.1981812,13.8831177,46.293457
							c0.2270508,1.4957581-0.1520386,2.9838257-1.0683594,4.1899109c-0.9194946,1.2117004-2.2590942,1.9801331-3.7713013,2.164032
							l-5.2454834,0.6374512C755.5512695,445.0112,755.3293457,445.0240479,755.1105347,445.0240479z"/>
					</g>
					<g opacity="0.3">
						<path fill="#FFFFFF" d="M755.411499,667.5110474c-57.8225098,0-109.0568237-12.8938599-109.8109131-13.0869751
							c-0.5629272-0.1448364-0.9019775-0.7180786-0.7581177-1.2800293c0.1448364-0.5640259,0.7252808-0.9009399,1.2800293-0.7581787
							c1.1105347,0.2855835,111.8614502,28.1464233,191.2000732,1.5153198
							c0.5516968-0.1828613,1.147522,0.1119385,1.3324585,0.6625977c0.1848755,0.5506592-0.1119995,1.147522-0.6626587,1.3324585
							C812.1533203,664.5688477,783.0299072,667.5110474,755.411499,667.5110474z"/>
					</g>
				</g>
			</g>
		</g>
	</g>
	<g id="head_00000121241255057277423570000016144373087853591689_">
		<g>
			<path fill="#374D6D" d="M738.8513184,336.900116c0,0,23.0057373-6.4706421,23.4707031-28.2734375
				c0.4649658-21.8027649-38.8546753-26.3455505-38.8546753-26.3455505s-17.1644897-18.1820374-23.0475464-21.9544067
				c-5.8830566-3.7723999-2.8579102,18.1220398-2.8579102,18.1220398s-15.9049683-12.7148438-29.9661865-15.6166687
				c-6.6624146-1.3749084,1.244751,21.4894714,9.1135254,32.1737061c0,0-21.8972168-4.3719177-28.4719849,2.512207
				c-6.5747681,6.8840942,16.1334229,25.3908081,29.1969604,29.9069214c0,0-1.7515869,8.7301636-0.821228,10.8143005
				s22.30896-1.7605896,22.30896-1.7605896L738.8513184,336.900116z"/>
			<path fill="#FBBDBB" d="M736.7911377,321.5828552c0,0,5.3050537,27.0367737,2.9368286,31.3311768
				c-2.3682861,4.2944031-22.4815674,19.328186-30.0890503,19.6418152
				c-7.6074219,0.3135986-21.15625-32.8740234-21.3575439-54.3211365S731.0377197,288.498291,736.7911377,321.5828552z"/>
			<g>
				<g>
					<path fill="#222B3F" d="M712.3936768,350.9156799c-3.3120728,0-4.6660767-1.9472961-4.7390137-2.0561829
						c-0.1654053-0.2470703-0.218811-0.5527039-0.145874-0.8408508c1.119751-4.4796143,0.800293-12.212738,0.7971802-12.2903137
						c-0.0246582-0.5804443,0.425293-1.0715027,1.0057373-1.0966492c0.5804443-0.0159302,1.0704956,0.4247742,1.0961304,1.0052185
						c0.0133667,0.3164063,0.3123169,7.53125-0.7283325,12.332428c0.621521,0.5239258,2.3504639,1.4798584,5.8742065,0.2198486
						c0.5444336-0.1967468,1.1495361,0.0903931,1.343689,0.6369324c0.196228,0.5470581-0.0893555,1.1490479-0.6369019,1.3447571
						C714.7503052,350.7102051,713.4692383,350.9156799,712.3936768,350.9156799z"/>
				</g>
				<g>
					<path fill="#222B3F" d="M696.9109497,340.6584167c-0.2444458,0-0.4899902-0.0842285-0.6882935-0.2568054
						c-0.4355469-0.3796082-0.4869385-1.0375977-0.1099243-1.4762573c1.1865845-1.3822632,4.6188354-3.5000916,9.0969238-1.6339722
						c0.5362549,0.2234497,0.789978,0.839325,0.56604,1.3755798c-0.223938,0.5367737-0.840332,0.7900085-1.3755493,0.5660706
						c-4.15448-1.7320557-6.5933228,0.952301-6.6950684,1.0679016
						C697.496521,340.5372009,697.2047729,340.6584167,696.9109497,340.6584167z"/>
				</g>
				<path fill="#FFFFFF" d="M710.9050903,358.612854c9.0874634,4.6054382,14.1968384-6.0750427,14.1968384-6.0750427
					L710.9050903,358.612854z"/>
				
					<ellipse transform="matrix(0.9688931 -0.2474797 0.2474797 0.9688931 -60.0924492 188.27948)" fill="#222B3F" cx="718.9084473" cy="333.1807556" rx="2.9230738" ry="4.0056934"/>
				
					<ellipse transform="matrix(0.9688931 -0.2474797 0.2474797 0.9688931 -59.911293 187.9257813)" fill="#FFFFFF" cx="717.592041" cy="332.2832947" rx="1.0080371" ry="1.3813843"/>
				<path fill="#222B3F" d="M723.7994385,324.5668945c0,0-6.3272705,0.1635742-11.6432495,2.973999
					c0,0-1.3773193-2.3299255-0.3619995-4.0418396C712.8095093,321.7871094,721.0494385,320.7998047,723.7994385,324.5668945z"/>
				<path fill="#222B3F" d="M692.0514526,332.6761475c0,0,5.6306152-2.8908081,11.6432495-2.9739685
					c0,0,0.0912476-2.7050171-1.6207275-3.7203369C700.3620605,324.9665222,692.65802,328.0516968,692.0514526,332.6761475z"/>
			</g>
			<path fill="#374D6D" d="M738.0639038,323.7420959c0,0-1.7823486-3.7408447-7.4557495-6.1196594
				s-8.0352173-7.5856018-8.0352173-7.5856018s-18.7178345,21.1660461-43.7371826,17.862915
				c0,0,0.571106-24.2753296,28.5923462-32.4725037C735.4494019,287.2300415,739.5133667,313.0472717,738.0639038,323.7420959z"/>
			<g>
				<g>
					<g>
						<path fill="#FFFFFF" d="M738.7063599,353.1197815l-1.5101929-1.4639282
							c14.2848511-14.7456055,13.8287354-24.5950012,11.3066406-28.0904236
							c-1.1536865-1.6010742-2.8394775-2.183075-4.2941895-1.4834595
							c-4.4050903,2.1203918-7.6144409,13.4290771-8.4794312,17.6076965l-2.060791-0.4263306
							c0.1355591-0.6549072,3.3931885-16.0759583,9.6279907-19.0767517
							c2.3803101-1.1454773,5.1581421-0.2830505,6.9127808,2.1481018
							C753.8171387,327.3346558,752.9685669,338.3978271,738.7063599,353.1197815z"/>
					</g>
					<path fill="#6081C1" d="M693.8773193,353.4718323c1.496521,7.9650574,3.6761475,19.6838074,16.5914307,21.1875
						c18.4342651,2.1382141,29.3963623-19.7911682,29.3963623-19.7911682l-2.9069214-12.1743469l-1.213623-5.6572266
						c0,0-23.409729,1.3676147-26.7143555,1.8218689c-3.3046265,0.4543457-15.9074097,8.8265381-15.9074097,8.8265381
						S693.2295532,350.0737915,693.8773193,353.4718323z"/>
					<path fill="#FFFFFF" d="M693.8773193,353.4718323c3.8553467-2.8184204,11.9224854-6.7338562,15.8721313-8.0331726
						c4.0996704-1.3486328,23.9491577-2.3236084,27.2087402-2.7448425l-1.213623-5.6572266
						c0,0-23.409729,1.3676147-26.7143555,1.8218689c-3.3046265,0.4543457-15.9074097,8.8265381-15.9074097,8.8265381
						S693.2295532,350.0737915,693.8773193,353.4718323z"/>
				</g>
				<g>
					<path fill="#FBBDBB" d="M736.9581909,336.880127c0,0,0.6346436-22.1862488,13.9170532-19.8673706
						c13.2824707,2.3188782,5.4492188,33.2595825-11.3822021,31.7251282L736.9581909,336.880127z"/>
					<g>
						<path fill="#222B3F" d="M751.4198608,337.8161011c-0.1472778,0.0736389-0.3156128,0.1156921-0.4733887,0.1156921
							c-0.3787231,0-0.7468872-0.2103882-0.9362183-0.5785522c-0.0210571-0.0316162-1.5464478-2.9560547-4.4393921-4.7128296
							c-1.0414429,2.6509399-1.9777222,5.9226074-2.4721069,9.8148499c-0.0736084,0.526001-0.526001,0.9152222-1.0414429,0.9152222
							h-0.1367798c-0.5785522-0.0841064-0.9888306-0.6101074-0.9151611-1.1782227
							c0.5996094-4.6812134,1.777832-8.4894104,3.0822754-11.4769897c2.3563843-5.4491882,5.0704956-8.152771,5.2493286-8.3211365
							c0.4102783-0.4102173,1.072998-0.3996887,1.4832153,0.0210876c0.3997803,0.4208069,0.3997803,1.0835571-0.0209961,1.4833069
							c-0.0315552,0.0315247-1.5673828,1.5674133-3.2821045,4.6391602
							c-0.3682861,0.6522217-0.7364502,1.3780823-1.1046753,2.1670532c3.5767822,2.0408325,5.3966675,5.5333862,5.4702759,5.6912231
							C752.1456909,336.9114075,751.9458008,337.542572,751.4198608,337.8161011z"/>
					</g>
				</g>
			</g>
		</g>
	</g>
	<g id="right_arm">
		<g>
			<g>
				<g>
					<path fill="#FBBDBB" d="M696.9108887,435.486084c-8.1324463-19.4735107-45.5657959-28.6208496-56.3720703,8.923584
						c-10.8062134,37.5444336,0.696228,124.8823242,10.291687,147.6248779
						c8.5853271,21.7575073,51.7140503,17.4802856,54.7980957-20.1192017
						C705.6286011,571.9153442,705.043335,454.9595337,696.9108887,435.486084z"/>
					<g>
						<path fill="#FF8D88" d="M636.4084473,462.8051758c0,0-6.9515381-0.6385498-9.9456787-10.5861511
							c-2.9942017-9.9475708,12.9746704-20.3771057,12.9746704-20.3771057s-3.041748-18.5134888,19.2956543-23.0169067
							c22.3373413-4.5033875,50.6859131,12.1549683,48.963501,48.8745117c0,0,1.0980835,6.5098877-5.3024292,12.9833984
							c0,0-14.2923584-25.0081177-35.4640503-26.7098083C645.7584229,442.2714539,636.4084473,462.8051758,636.4084473,462.8051758z
							"/>
						<g opacity="0.3">
							<path fill="#FFFFFF" d="M702.3937378,471.7348022c-0.2670898,0-0.5341797-0.1011963-0.739624-0.3040771
								c-0.4130249-0.4083862-0.4171143-1.074585-0.0082397-1.4875793
								c5.9533081-6.0205688,5.0235596-12.0088196,5.0133057-12.0683899
								c-0.0123291-0.0744934-0.0164185-0.1494751-0.0133667-0.2244873
								c1.3016357-27.7498779-14.4543457-42.418396-29.6339722-46.8934021
								c-0.5568237-0.1638489-0.8752441-0.7489014-0.7108765-1.3062439
								c0.1643677-0.5567932,0.7427368-0.8768005,1.3067017-0.7113953
								c15.9265137,4.6948242,32.460144,20.0080261,31.144165,48.9089966
								c0.1314697,0.9949646,0.6852417,7.4079895-5.6101685,13.7742615
								C702.9362183,471.6305237,702.664978,471.7348022,702.3937378,471.7348022z"/>
						</g>
						<g opacity="0.3">
							<path fill="#FFFFFF" d="M698.638916,445.4606628c-0.2896729,0-0.5783691-0.1191711-0.7858887-0.3528748
								c-24.4573364-27.4858704-53.6845093-14.2489014-53.9762573-14.1117554
								c-0.5249634,0.2460327-1.1516113,0.02005-1.3991699-0.5054321c-0.246582-0.526001-0.0205688-1.1516113,0.5043945-1.3986816
								c0.3061523-0.1448669,30.9150391-14.071167,56.4428101,14.6176758
								c0.3862915,0.4340515,0.347229,1.0987244-0.0863037,1.4849854
								C699.1381836,445.3728333,698.8875122,445.4606628,698.638916,445.4606628z"/>
						</g>
					</g>
				</g>
			</g>
		</g>
	</g>
	<g id="right_forearm_00000052824247647152143350000007086210354782256778_">
		<g>
			<path fill="#FBBDBB" d="M825.0018311,652.2609863c-2.7645874-1.6748657-49.5008545,6.3061523-49.5008545,6.3061523
				l-69.8723755-86.6517944c-29.1038208-33.6876221-56.6502075-12.4315186-54.7980957,20.1192017
				c9.5853882,22.7426147,60.5997925,63.1827393,83.5845337,73.272644l22.9846802,10.0898438
				c0,0,2.7141724,8.6773682,5.7008057,9.968811c2.9764404,1.2915649,20.1595459-0.534729,20.1595459-0.534729
				s3.5516357,6.215332,9.5147095,14.0349731c5.9631958,7.8297729,11.6942139,2.5628052,11.6942139,2.5628052
				c6.5584106,4.4899902,11.2905884-1.2107544,11.2905884-1.2107544c5.4888916,2.6132813,9.4137573-3.6222534,9.4137573-3.6222534
				c3.0371094,2.25,7.8701782,0.2421265,8.4654541-4.8431396
				C834.2341309,686.6774902,827.7563477,653.9258423,825.0018311,652.2609863z"/>
			<g>
				<path fill="#222B3F" d="M825.4622192,691.8800659c-0.526001,0-0.9801025-0.3924561-1.0437622-0.9276733l-2.9987183-25.1836548
					c-0.0688477-0.576355,0.3430786-1.1002808,0.9204712-1.1690674c0.5773315-0.0760498,1.1002197,0.3430786,1.1690674,0.9204712
					l2.9987183,25.1835938c0.0688477,0.576355-0.3431396,1.1002808-0.9204712,1.1691284
					C825.5454102,691.8779907,825.5032959,691.8800659,825.4622192,691.8800659z"/>
			</g>
			<g>
				<path fill="#222B3F" d="M815.2958984,697.1532593c-0.5147095,0-0.963623-0.3770142-1.0396729-0.8999634l-3.6520996-25.0736694
					c-0.0842285-0.5753174,0.3143311-1.1094971,0.8886108-1.192749c0.5742798-0.0944824,1.1094971,0.3143921,1.192749,0.8886719
					l3.6520996,25.0736694c0.0842285,0.5753174-0.3143921,1.1094971-0.8886108,1.192749
					C815.397583,697.1501465,815.3461914,697.1532593,815.2958984,697.1532593z"/>
			</g>
			<g>
				<path fill="#222B3F" d="M804.6189575,698.5041504c-0.475647,0-0.9060669-0.324585-1.0221558-0.8074341l-4.8078613-20.0840454
					c-0.1356201-0.5650024,0.2136841-1.1320801,0.7786865-1.2677002c0.5650635-0.1335449,1.1321411,0.2136841,1.2677612,0.7786865
					l4.8078003,20.0840454c0.1356201,0.5650024-0.2136841,1.1320801-0.7786865,1.2677002
					C804.7822876,698.4949341,804.7001343,698.5041504,804.6189575,698.5041504z"/>
			</g>
		</g>
	</g>
</g>
<g id="Layer_x5F_Character_1">
	<g id="left_thigh">
		<g>
			<g>
				<g>
					<path fill="#374D6D" d="M601.7946167,727.8769531l-29.1574097-15.9530029c0,0-95.7056885-55.5122681-130.8139038-74.0629272
						c-44.7191772-7.5958862-73.7171631,3.9163208-79.4448547,41.6052856
						c-2.8000488,18.4247437,11.1526794,33.2824097,27.7108154,44.161377
						c4.5576477,1.7800903,9.2654724,3.5616455,14.1278381,5.3458252
						c80.0627136,29.3660889,175.4702759,51.7269287,175.4702759,51.7269287
						c6.5448608,1.5770264,12.8828735-0.2390747,18.1940308-4.0696411c0.7174683-0.5026245,1.4140015-1.0562744,2.0783691-1.6339111
						C613.1239014,763.6351318,618.5723877,739.7369995,601.7946167,727.8769531z"/>
					<path opacity="0.2" d="M601.7946167,727.8769531l-29.1574097-15.9530029c0,0-95.7056885-55.5122681-130.8139038-74.0629272
						c-44.7191772-7.5958862-73.7171631,3.9163208-79.4448547,41.6052856
						c-2.8000488,18.4247437,11.1526794,33.2824097,27.7108154,44.161377
						c4.5576477,1.7800903,9.2654724,3.5616455,14.1278381,5.3458252
						c80.0627136,29.3660889,175.4702759,51.7269287,175.4702759,51.7269287
						c6.5448608,1.5770264,12.8828735-0.2390747,18.1940308-4.0696411c0.7174683-0.5026245,1.4140015-1.0562744,2.0783691-1.6339111
						C613.1239014,763.6351318,618.5723877,739.7369995,601.7946167,727.8769531z"/>
					<g opacity="0.3">
						<path fill="#FFFFFF" d="M433.585144,659.3226318c0.0001526,0.0028076,0.0514221,1.0108643,0.1287537,2.8033447
							c0.2320557,5.3773193,0.6963806,17.7700195,0.6963501,30.791687c0,2.8933716-0.0229797,5.817627-0.076355,8.7026978
							c-0.0107422,0.5808716,0.4514465,1.0604858,1.0323792,1.071228c0.5808716,0.0106812,1.0605164-0.4514771,1.0712585-1.0323486
							c0.0535889-2.9000854,0.0766296-5.8370972,0.0766296-8.7415771
							c-0.0000916-17.4269409-0.8273621-33.6915894-0.8277893-33.7017822
							c-0.029541-0.5802612-0.5238037-1.0267944-1.1040039-0.9972534c-0.5802612,0.029541-1.0267029,0.5238037-0.9971924,1.1040649
							L433.585144,659.3226318z"/>
					</g>
					<g opacity="0.3">
						<path fill="#FFFFFF" d="M382.5428467,689.9059448c-0.5813904-0.2011108-1.2146301,0.1255493-1.4119568,0.697876
							c-0.1920776,0.5852051,0.1165466,1.2109375,0.6979675,1.4119873l179.8001709,51.5570679
							c0.7174072-0.5026245,1.4139404-1.0562744,2.0783081-1.6339722L382.5428467,689.9059448z"/>
					</g>
				</g>
			</g>
		</g>
	</g>
	<g id="left_calf">
		<g>
			<g>
				<path fill="#FBBDBB" d="M518.8359375,902.3851318l-16.6279297,29.8328247c0,0-11.2736511,5.8759766-17.3275146-2.8521729
					l16.3424377-38.6630249L518.8359375,902.3851318z"/>
				<g>
					<path fill="#222B3F" d="M473.015625,961.4171143c-0.9131775,8.9341431,0.1985474,20.0380859,2.755127,32.6912231
						l7.4177856-0.0001221c0,0,3.3909607-19.9749146,7.2058105-28.8761597
						C494.2091675,956.3307495,476.6185913,953.5756836,473.015625,961.4171143z"/>
					<path fill="#FF8D88" d="M483.1885376,926.447876c0,0,8.0535583,4.0267334,22.0412903,0
						c0,0,22.8890076,38.5722046,30.7306213,45.5661011c7.8416138,6.9938354,25.0083618,14.6235352,30.9425659,17.8025513
						s-39.4199829,5.5103149-50.0167236,3.6029053c-10.5968018-1.9074097-19.4980774-15.2593384-28.399353-22.4651489
						c-8.9013062-7.2058105-15.4713135-9.5371094-15.4713135-9.5371094S475.3469238,941.7072144,483.1885376,926.447876z"/>
				</g>
			</g>
			<g>
				<path fill="#374D6D" d="M614.3057861,766.7578125l-90.6484985,141.605957c0,0-23.3011475-6.7115479-30.5387268-17.1050415
					c0,0,21.9651794-51.578186,31.6748962-79.4239502c8.6051025-24.7213135,22.1439819-45.8449097,33.9366455-63.991394
					c0.4944458-0.7574463,0.9888306-1.5148315,1.4727783-2.2722778c0.9993286-1.5148926,1.9671631-3.019165,2.9244385-4.4919434
					C580.9057007,716.3682861,629.9064941,735.6720581,614.3057861,766.7578125z"/>
				<path opacity="0.2" d="M614.3057861,766.7578125l-90.6484985,141.605957c0,0-23.3011475-6.7115479-30.5387268-17.1050415
					c0,0,21.9651794-51.578186,31.6748962-79.4239502c8.6051025-24.7213135,22.1439819-45.8449097,33.9366455-63.991394
					c0.4944458-0.7574463,0.9888306-1.5148315,1.4727783-2.2722778c0.357605-0.5470581,0.715332-1.0834961,1.062439-1.6200562
					c0.5050049-0.7679443,0.9993896-1.5358887,1.4833374-2.2932739c0.1262207-0.1998901,0.2524414-0.3892212,0.3786621-0.5786133
					C580.9057007,716.3682861,629.9064941,735.6720581,614.3057861,766.7578125z"/>
				<path opacity="0.3" fill="#FFFFFF" d="M575.4354248,749.1162109
					c-5.9436646,9.3415527-27.635376,43.5200806-34.725647,56.8591309
					c-8.2369385,15.4744873-34.2942505,85.1782227-34.557251,85.8829956
					c-0.2209473,0.5681152-0.8626099,0.8626099-1.4307251,0.6522217c-0.0420532-0.0209961-0.0735779-0.0314941-0.1156921-0.0525513
					c-0.5049438-0.2525024-0.7364197-0.8416138-0.5365295-1.3781128
					c1.0730286-2.8718872,26.3729248-70.5452881,34.6730347-86.1459961
					c7.2270508-13.5914917,28.4137573-47.138916,33.8945923-55.7860718l-11.3718872-5.1967773
					c0.5050049-0.7679443,0.9993896-1.5358887,1.4833374-2.2932739l11.3717651,4.9337769
					C575.3828125,746.6546631,576.1087036,748.0537109,575.4354248,749.1162109z"/>
			</g>
		</g>
	</g>
	<g id="right_thigh">
		<g>
			<g>
				<g>
					<path fill="#374D6D" d="M536.0811768,774.2583618c-0.526001,0.704834-1.0835571,1.3991699-1.6726685,2.0408325
						c-4.3446655,4.9021606-10.1304932,8.0686035-16.8631592,7.9634399c0,0-85.9251099-0.8099976-166.2852173-10.0463867
						c-1.2308655-0.3155518-2.5247498-0.5891113-3.8607788-0.8309937
						c-61.0038757-11.0457153-80.5810547-89.7227173-18.967041-102.956543
						c5.9962769,0.7258301,11.3928223,1.6095581,15.7690735,2.6824951
						c29.0870361,7.1008301,151.4103699,45.5819702,151.4103699,45.5819702l31.9378662,9.1837158
						C546.5167236,735.7772217,546.4324951,760.288147,536.0811768,774.2583618z"/>
					<g opacity="0.3">
						<path fill="#FFFFFF" d="M502.5849304,747.5076904c-0.5217285,0.7091675-1.0801086,1.4019165-1.6700439,2.0494385
							l-199.0707703-23.0720825c-0.6113281-0.0689087-1.0494385-0.6117554-0.9902344-1.2247925
							c0.0671692-0.6017456,0.6135254-1.0591431,1.2248535-0.9902344L502.5849304,747.5076904z"/>
					</g>
				</g>
			</g>
		</g>
	</g>
	<g id="right_calf">
		<g>
			<g>
				<path fill="#FBBDBB" d="M444.59375,902.3851318l-16.6278992,29.8328247c0,0-11.2736816,5.8759766-17.3275452-2.8521729
					l16.3424377-38.6630249L444.59375,902.3851318z"/>
				<g>
					<path fill="#222B3F" d="M398.773468,961.4171143c-0.9131775,8.9341431,0.1985474,20.0380859,2.755127,32.6912231
						l7.4177856-0.0001221c0,0,3.3909607-19.9749146,7.2058105-28.8761597
						C419.9670105,956.3307495,402.3764343,953.5756836,398.773468,961.4171143z"/>
					<path fill="#FF8D88" d="M408.9463806,926.447876c0,0,8.0535278,4.0267334,22.0412598,0
						c0,0,22.8890381,38.5722046,30.7306519,45.5661011c7.8416138,6.9938354,25.0083618,14.6235352,30.9425659,17.8025513
						c5.9341736,3.1790161-39.4199829,5.5103149-50.0167542,3.6029053s-19.4980469-15.2593384-28.399353-22.4651489
						c-8.9012756-7.2058105-15.471283-9.5371094-15.471283-9.5371094S401.1047668,941.7072144,408.9463806,926.447876z"/>
				</g>
			</g>
			<g>
				<path fill="#374D6D" d="M540.0636597,766.7578125l-90.6485291,141.605957c0,0-23.3011475-6.7115479-30.5387268-17.1050415
					c0,0,21.9651794-51.578186,31.6748657-79.4239502c8.6051331-24.7213135,22.1440125-45.8449097,33.9366455-63.991394
					c0.4944763-0.7574463,0.9888611-1.5148315,1.4727783-2.2722778c0.9993286-1.5148926,1.9671936-3.019165,2.924469-4.4919434
					C506.6635132,716.3682861,555.6643677,735.6720581,540.0636597,766.7578125z"/>
				<path opacity="0.3" fill="#FFFFFF" d="M501.1932373,749.1162109
					c-5.9436646,9.3415527-27.6353149,43.5200806-34.7256165,56.8591309
					c-8.236969,15.4744873-34.2942505,85.1782227-34.557251,85.8829956
					c-0.2209473,0.5681152-0.8626404,0.8626099-1.4307251,0.6522217c-0.0420837-0.0209961-0.0736084-0.0314941-0.1157227-0.0525513
					c-0.5049133-0.2525024-0.7363892-0.8416138-0.536499-1.3781128
					c1.0730286-2.8718872,26.3729553-70.5452881,34.6730347-86.1459961
					c7.2270203-13.5914917,28.4137573-47.138916,33.8945618-55.7860718l-13.9071045-1.3044434
					c0.4944763-0.7574463,0.9888611-1.5148315,1.4727783-2.2722778l13.917572,1.0204468
					C501.1406555,746.6546631,501.8665161,748.0537109,501.1932373,749.1162109z"/>
			</g>
		</g>
	</g>
	<g id="left_arm">
		<g>
			<path fill="#6081C1" d="M462.5445557,408.0098877c17.7276611,17.0187988,33.4909668,32.283783,77.8226929,83.7057495
				l-4.0302124,12.5031433c0,0-19.4455566,22.9753113-30.2601318,24.0173645
				c-10.8145752,1.0421143-45.0490417-31.3354797-73.8293762-72.8203125
				c-18.1670227-26.1864624-17.6972351-52.5207825-1.0693054-58.098999
				C441.6945496,393.7888794,450.3798523,396.3316345,462.5445557,408.0098877z"/>
			<path fill="#222B3F" d="M540.407959,483.6956787c0,0-28.6088257-0.3857117-43.0553284,26.0686035
				c-10.6516724,19.505188-0.980835,33.4711304-0.980835,33.4711304l19.1937561,6.4127197
				c0,0,21.3200684-8.4542236,34.0426025-24.4476318c12.7225952-15.9934387,13.2345581-31.0903931,13.2345581-31.0903931
				L540.407959,483.6956787z"/>
		</g>
	</g>
	<g id="left_forearm">
		<g>
			<path fill="#9F5353" d="M621.5101318,411.8667297c-2.3304443,2.0075989-8.2667236,7.2791748-8.2667236,7.2791748
				s10.0712891-4.4169006,12.1412354-5.2546387c2.0700073-0.8377686,5.0767822,1.3936462,3.2315674,4.4971313
				c-1.7860107,2.9839478-9.036499,8.1868896-9.5075073,8.5249329c0.5884399-0.2288818,10.0196533-4.0066833,12.0343018-3.4675903
				c2.0800781,0.5540466,4.4265747,5.0110779-8.0177612,10.9353027c0.364502-0.0503845,6.1873779-0.7345581,8.5315552-0.5975952
				c2.4301758,0.1426392,3.7697144,4.6925049-0.7627563,6.2789917c-4.5247192,1.5928955-12.8778076,4.276062-12.8778076,4.276062
				s-5.2654419,11.9625854-7.8318481,14.2423401c-2.5523682,2.2782898-11.7366333,1.6687012-11.7366333,1.6687012
				s-2.7189941,4.7534485-6.9160767,11.9415283c-11.7442627,20.0734863-35.0771484,59.0679626-42.9831543,65.8281555
				c-7.605835,6.4888916-34.8917236,2.6318359-38.8356628-11.553894
				c-1.6273804-5.8533936,10.3274841-20.6034241,14.1009216-25.8345947l49.5554199-48.0690002l7.039978-6.8235168
				l3.0391846-34.8355103c0,0,3.7009277-1.8024902,5.3513794,2.0841064
				c1.6503296,3.8865967,4.0979614,15.5246277,4.0979614,15.5246277s5.9985962-8.4397888,8.7753906-12.3960266
				c2.7703247-3.9485168,17.2348633-10.06604,19.5431519-9.7904968
				C623.5181885,406.6082458,623.8483887,409.8654175,621.5101318,411.8667297z"/>
			<path fill="#6081C1" d="M621.5101318,411.8667297c-2.3304443,2.0075989-8.2667236,7.2791748-8.2667236,7.2791748
				s10.0712891-4.4169006,12.1412354-5.2546387c2.0700073-0.8377686,5.0767822,1.3936462,3.2315674,4.4971313
				c-1.7860107,2.9839478-9.036499,8.1868896-9.5075073,8.5249329c0.5884399-0.2288818,10.0196533-4.0066833,12.0343018-3.4675903
				c2.0800781,0.5540466,4.4265747,5.0110779-8.0177612,10.9353027c0.364502-0.0503845,6.1873779-0.7345581,8.5315552-0.5975952
				c2.4301758,0.1426392,3.7697144,4.6925049-0.7627563,6.2789917c-4.5247192,1.5928955-12.8778076,4.276062-12.8778076,4.276062
				s-5.2654419,11.9625854-7.8318481,14.2423401c-2.5523682,2.2782898-11.7366333,1.6687012-11.7366333,1.6687012
				s-2.7189941,4.7534485-6.9160767,11.9415283l-18.1624756-19.6293335l7.039978-6.8235168l3.0391846-34.8355103
				c0,0,3.7009277-1.8024902,5.3513794,2.0841064c1.6503296,3.8865967,4.0979614,15.5246277,4.0979614,15.5246277
				s5.9985962-8.4397888,8.7753906-12.3960266c2.7703247-3.9485168,17.2348633-10.06604,19.5431519-9.7904968
				C623.5181885,406.6082458,623.8483887,409.8654175,621.5101318,411.8667297z"/>
			<path opacity="0.3" fill="#FFFFFF" d="M621.5101318,411.8667297c-2.3304443,2.0075989-8.2667236,7.2791748-8.2667236,7.2791748
				s10.0712891-4.4169006,12.1412354-5.2546387c2.0700073-0.8377686,5.0767822,1.3936462,3.2315674,4.4971313
				c-1.7860107,2.9839478-9.036499,8.1868896-9.5075073,8.5249329c0.5884399-0.2288818,10.0196533-4.0066833,12.0343018-3.4675903
				c2.0800781,0.5540466,4.4265747,5.0110779-8.0177612,10.9353027c0.364502-0.0503845,6.1873779-0.7345581,8.5315552-0.5975952
				c2.4301758,0.1426392,3.7697144,4.6925049-0.7627563,6.2789917c-4.5247192,1.5928955-12.8778076,4.276062-12.8778076,4.276062
				s-5.2654419,11.9625854-7.8318481,14.2423401c-2.5523682,2.2782898-11.7366333,1.6687012-11.7366333,1.6687012
				s-2.7189941,4.7534485-6.9160767,11.9415283l-18.1624756-19.6293335l7.039978-6.8235168l3.0391846-34.8355103
				c0,0,3.7009277-1.8024902,5.3513794,2.0841064c1.6503296,3.8865967,4.0979614,15.5246277,4.0979614,15.5246277
				s5.9985962-8.4397888,8.7753906-12.3960266c2.7703247-3.9485168,17.2348633-10.06604,19.5431519-9.7904968
				C623.5181885,406.6082458,623.8483887,409.8654175,621.5101318,411.8667297z"/>
		</g>
	</g>
	<g id="hair">
		<g>
			<path fill="#374D6D" d="M383.3659058,285.8162537c0,0-3.3144531-19.6291809-16.09198-27.625946
				c-12.7775269-7.9967499-26.6660767,3.3673706-34.1299438,20.1622009s0.7043152,35.7399597,25.3245544,25.4453125
				C377.8105164,295.7102356,383.3659058,285.8162537,383.3659058,285.8162537z"/>
			<path fill="#374D6D" d="M379.6395874,284.9394836c0,0-26.1520996,4.871521-30.3167114,25.9141541
				c-4.1645813,21.0426636,26.0994263,48.2604065,48.8804626,42.961853
				c22.7810364-5.2985229,23.4498901-23.2988892,23.4498901-23.2988892s17.2709961,3.9416199,22.8301697-12.1351318
				c5.5591431-16.0767822-1.8216858-21.6510925-10.9786987-22.7886047c0,0,9.7087097-19.0737-8.2954712-26.930603
				S389.9038391,266.2134705,379.6395874,284.9394836z"/>
			<g opacity="0.3">
				<path fill="#FFFFFF" d="M352.3063049,303.9161682c-0.1860352,0-0.374939-0.0470886-0.5481567-0.1455994
					c-0.5348511-0.3031006-0.7218628-0.9821472-0.4182739-1.51651c8.2910767-14.6045227,27.9414368-18.3860474,28.134613-18.4145813
					c0.597168-0.0918579,1.1605835,0.3173828,1.2614441,0.9154968c0.1008911,0.5986328-0.2973938,1.1672668-0.894104,1.278595
					c-0.1869812,0.0352173-18.8071594,3.6506653-26.5671692,17.3187256
					C353.0700378,303.7134705,352.6936646,303.9161682,352.3063049,303.9161682z"/>
			</g>
		</g>
	</g>
	<g id="body">
		<g>
			<g>
				<g>
					<path fill="#FF8D88" d="M491.7609558,638.0003662c0,0-10.1740417,14.6276245-66.5404968,25.4350586
						c-56.3761597,10.8074341-118.4728088-8.9071045-120.382843-8.9071045
						c-1.9100647,0,45.7733459-235.8834229,45.7733459-235.8834229l46.4165344-40.3745117l64.6499023,49.1062317
						l2.7481689,58.0328674L491.7609558,638.0003662z"/>
					<g>
						<path fill="#FF8D88" d="M388.7405396,667.7521973c-21.2110901,0-48.0985107-2.8179321-80.8954163-11.3497925
							c-1.5074768-0.3920898-2.8093567-0.730896-3.0720215-0.7618408c-0.6143188,0-1.080658-0.4967651-1.080658-1.111084
							s0.5300903-1.111084,1.1444092-1.111084c0.3483276,0,0.858429,0.1251221,3.5688171,0.8303223
							c55.6882019,14.4874878,94.1452332,12.3952026,116.6011353,8.090271
							c55.289917-10.6002808,65.7446289-24.8322754,65.8436279-24.9745483
							c0.3516235-0.5039063,1.0439758-0.62854,1.5488586-0.2783203c0.5043945,0.3511353,0.6290588,1.0444336,0.2783508,1.5488281
							c-0.4263611,0.6124268-11.078064,15.1193848-67.2521057,25.8895874
							C416.0067444,666.3308105,403.8047485,667.7521973,388.7405396,667.7521973z"/>
					</g>
					<g opacity="0.3">
						<path fill="#FFFFFF" d="M388.7405396,667.7521973c-21.2110901,0-48.0985107-2.8179321-80.8954163-11.3497925
							c-1.5074768-0.3920898-2.8093567-0.730896-3.0720215-0.7618408c-0.6143188,0-1.080658-0.4967651-1.080658-1.111084
							s0.5300903-1.111084,1.1444092-1.111084c0.3483276,0,0.858429,0.1251221,3.5688171,0.8303223
							c55.6882019,14.4874878,94.1452332,12.3952026,116.6011353,8.090271
							c55.289917-10.6002808,65.7446289-24.8322754,65.8436279-24.9745483
							c0.3516235-0.5039063,1.0439758-0.62854,1.5488586-0.2783203c0.5043945,0.3511353,0.6290588,1.0444336,0.2783508,1.5488281
							c-0.4263611,0.6124268-11.078064,15.1193848-67.2521057,25.8895874
							C416.0067444,666.3308105,403.8047485,667.7521973,388.7405396,667.7521973z"/>
					</g>
					<g opacity="0.3">
						<path fill="#FFFFFF" d="M367.5908203,652.3534546c-20.8251953,0-35.1622925-1.3428345-35.5220337-1.3780518
							c-0.6119385-0.0594482-1.0592346-0.6038208-0.9992676-1.215271c0.0594788-0.6114502,0.6052551-1.0606689,1.2153015-0.9992676
							c0.908844,0.0880127,91.5162048,8.5632324,149.4832153-17.7089233
							c0.5591125-0.251709,1.2200623-0.0056763,1.4727173,0.5543823c0.2536316,0.5595703,0.0057068,1.2191162-0.5543518,1.4727173
							C447.1981506,649.1634521,399.6887207,652.3534546,367.5908203,652.3534546z"/>
					</g>
				</g>
				<path fill="#6081C1" d="M397.0289612,564.2462158c-5.5187378,96.210083-41.9631958,175.4825439-41.9631958,175.4825439
					c-36.0374451,20.3457642-88.5296631,9.7404175-88.5296631,9.7404175s34.2826233-138.1732788,42.7516174-194.1242065
					c8.4689636-55.9509583,14.9541626-138.6057739,14.9541626-138.6057739s35.1219177-30.7984009,60.1218872-40.2592773
					c-1.1445007,11.8768311-5.366333,61.037384-1.1190491,96.2102356
					C388.1276855,512.9492798,397.0289612,564.2462158,397.0289612,564.2462158z"/>
				<g>
					<path fill="#6081C1" d="M528.7508545,687.0163574c-11.9083252-6.553772-49.875946-28.8326416-62.4155273-35.5651855
						c-0.9572449-8.4894409-1.7988281-18.241272-2.3353271-29.1291504
						c-2.1144714-42.8153076-8.8997192-71.6393433-8.8997192-71.6393433s-24.1637878-100.8841248-29.8759766-122.0813904
						c-5.7332764-21.1867371-17.0630188-52.1252136-17.0630188-52.1252136s19.4612122,6.9664917,45.793457,25.9796143
						c5.1852417,3.743988,8.2463379,9.7680969,8.2463379,16.1637268v1.3031006c0,0,13.3495483,44.5089722,13.9912415,52.4513245
						c0.6312256,7.9529114-6.0488586,35.609314-6.0488586,35.609314S491.0594177,583.2574463,528.7508545,687.0163574z"/>
				</g>
				<g>
					<g>
						<path fill="#6081C1" d="M481.3454895,554.2891846c-0.4315796,0-0.8232117-0.2949829-0.927887-0.7337036
							c-6.3548584-26.6000366-11.1484985-45.1526184-11.1960754-45.3367615
							c-0.0394897-0.1517944-0.0409241-0.3112183-0.0038147-0.4634705
							c0.0661316-0.2750549,6.6327515-27.5988159,6.0184326-35.3093567
							c-0.6185913-7.7509766-13.8141479-51.8058167-13.9473877-52.2497559
							c-0.1513062-0.5053406,0.1351624-1.0378113,0.6405029-1.1896057c0.5062866-0.1503601,1.0378113,0.1351318,1.1896057,0.6404724
							c0.5462646,1.8215332,13.3868408,44.6953125,14.0216064,52.6470947
							c0.6143188,7.7129211-5.3213196,32.8007202-6.0103455,35.6771851
							c0.5719604,2.2192993,5.1695251,20.1252136,11.1451416,45.1407166
							c0.1227722,0.5129395-0.1936646,1.0282593-0.7070923,1.1505737
							C481.4939575,554.2806396,481.4192505,554.2891846,481.3454895,554.2891846z"/>
					</g>
				</g>
				<g opacity="0.3">
					<g>
						<path fill="#FFFFFF" d="M481.3454895,554.2891846c-0.4315796,0-0.8232117-0.2949829-0.927887-0.7337036
							c-6.3548584-26.6000366-11.1484985-45.1526184-11.1960754-45.3367615
							c-0.0394897-0.1517944-0.0409241-0.3112183-0.0038147-0.4634705
							c0.0661316-0.2750549,6.6327515-27.5988159,6.0184326-35.3093567
							c-0.6185913-7.7509766-13.8141479-51.8058167-13.9473877-52.2497559
							c-0.1513062-0.5053406,0.1351624-1.0378113,0.6405029-1.1896057c0.5062866-0.1503601,1.0378113,0.1351318,1.1896057,0.6404724
							c0.5462646,1.8215332,13.3868408,44.6953125,14.0216064,52.6470947
							c0.6143188,7.7129211-5.3213196,32.8007202-6.0103455,35.6771851
							c0.5719604,2.2192993,5.1695251,20.1252136,11.1451416,45.1407166
							c0.1227722,0.5129395-0.1936646,1.0282593-0.7070923,1.1505737
							C481.4939575,554.2806396,481.4192505,554.2891846,481.3454895,554.2891846z"/>
					</g>
				</g>
				<g>
					<path fill="#6081C1" d="M392.366394,368.2059937c-12.8119812,2.0053711-23.9487,30.5187073-28.7172546,55.7390137
						l14.3586121,13.1400146l-14.3586121,25.4322205c0,0,21.5114441,53.8315735,33.3798218,101.7289734
						c0,0-5.5103149-77.9921875-9.3251648-121.0150757c0.7417908-44.1885376,21.0875854-45.7972412,37.5125732-4.2387085
						c15.8951721,45.9899902,29.8829041,111.6899414,29.8829041,111.6899414s1.6954651-65.6999512-1.6954956-101.0931702
						l-21.1935425-16.3190308l6.3580627-16.5309753C438.5682983,416.7391968,416.7389526,364.3911743,392.366394,368.2059937z"/>
					<g opacity="0.3">
						<path fill="#FFFFFF" d="M454.851593,536.8462524c-0.0123901,0-0.024292,0-0.0371399-0.0004272
							c-0.5267334-0.0205078-0.9378662-0.4639893-0.9178772-0.9912109
							c0.0195007-0.5062866,1.8881226-50.8531494-1.4046936-85.7618408l-20.8646851-16.0658264
							c-0.3345337-0.2579346-0.460144-0.7052002-0.3083496-1.0996704l6.2187805-16.1695862
							c-1.0987244-2.5486145-8.1668701-18.507843-18.1043396-31.236145
							c-0.3245239-0.415863-0.2507935-1.0158997,0.1651001-1.3404236c0.4158936-0.3240662,1.0163879-0.2503052,1.3404541,0.1651001
							c10.9400635,14.0111694,18.4364624,31.8466492,18.5111694,32.0250854
							c0.0942383,0.2269897,0.0980225,0.4815674,0.0095215,0.710907l-6.1021729,15.8659973l20.6291504,15.8845215
							c0.2093506,0.1613159,0.3425903,0.4020996,0.3678284,0.6657104c3.35849,35.0509644,1.4708252,85.919342,1.4512939,86.4294739
							C455.785675,536.4423218,455.3626404,536.8462524,454.851593,536.8462524z"/>
					</g>
					<g opacity="0.3">
						<path fill="#FFFFFF" d="M392.1361694,546.9013062c-0.4158936,0-0.7984619-0.2741089-0.9179077-0.6937866
							c-11.9112549-41.7941284-28.2921143-82.9248962-28.4562683-83.3355408
							c-0.1075439-0.2688599-0.0870972-0.5719604,0.0551758-0.8241577l13.9854736-24.7709045l-13.7984619-12.6273804
							c-0.2441101-0.2236633-0.3549805-0.5572205-0.2935791-0.8822327
							c2.9863586-15.7936401,7.9698486-30.826416,13.671875-41.2435608c0.252655-0.4624939,0.834137-0.6314392,1.2966614-0.3792419
							c0.4625244,0.2536316,0.6323853,0.8336792,0.3792419,1.2966919
							c-5.5473633,10.1339722-10.4104614,24.745636-13.3716125,40.1586304l13.9659424,12.7806091
							c0.3278503,0.3002625,0.405426,0.7870483,0.1870117,1.1743774l-14.1348877,25.0349731
							c1.7758484,4.4905396,17.0636902,43.4914551,28.3501587,83.0942993
							c0.1446533,0.5072632-0.1494141,1.0358887-0.6566467,1.1801147
							C392.310791,546.8894043,392.2227478,546.9013062,392.1361694,546.9013062z"/>
					</g>
				</g>
			</g>
			<g>
				<path fill="#9F5353" d="M425.2079468,438.9924316c-3.1790466,11.6478577-12.2838135,16.734314-12.2838135,16.734314
					c-13.5554504-1.0426636-25.2287598-12.4871826-25.2287598-12.4871826v-44.7353821
					c-0.1525879-12.1820068-2.9756775-41.5052795-4.0437927-52.1868591
					c-0.2542725-2.4924622-0.4068604-3.9674377-0.4068604-3.9674377l20.9816284,4.4761047
					c0,0,0.4577637,9.8930359,1.3223572,20.9052429c0.8392944,10.4780579,2.1109314,21.9989319,3.7640686,26.9580994
					C412.7206116,404.8622437,425.2079468,438.9924316,425.2079468,438.9924316z"/>
				<path fill="#222B3F" d="M405.5487061,367.7312317c-12.0803223-3.7384644-18.5400391-13.5045166-21.8971252-21.4139099
					c-0.2542725-2.4924622-0.4068604-3.9674377-0.4068604-3.9674377l20.9816284,4.4761047
					C404.2263489,346.8259888,404.6841125,356.7190247,405.5487061,367.7312317z"/>
			</g>
		</g>
	</g>
	<g id="head">
		<g>
			<g>
				<path fill="#9F5353" d="M424.1171875,310.5925903c0,0,4.1987915,16.9081726-1.2923279,35.3469543
					c-5.4911194,18.4387512-20.6419983,15.687561-33.2910461,4.7241211s-14.8901978-34.923584-14.8901978-34.923584
					s-0.7559204-20.3019104,14.1908264-24.6367188S419.5216064,294.3911438,424.1171875,310.5925903z"/>
				<g>
					<path fill="#222B3F" d="M409.1750793,339.884552c-0.8036804,0-1.5493469-0.1203918-2.1084595-0.276947
						c-0.5914612-0.1660461-0.9369202-0.7799072-0.7713318-1.3718567c0.1655884-0.5919189,0.7808533-0.9373779,1.3718567-0.7713318
						c0.1356201,0.0371094,3.3813171,0.898407,4.2892456-1.2371826c0.2026978-0.4763184,0.089447-0.6552429,0.0466309-0.7223206
						c-0.4016113-0.6323853-2.1698608-1.0254517-3.2918701-1.0663757c-0.607666-0.0223389-1.0849304-0.52771-1.0720825-1.1353455
						l0.1627502-7.7747803c0.0133057-0.6143188,0.5367432-1.0958557,1.1358337-1.0892029
						c0.6142883,0.0128479,1.1020508,0.5215149,1.0892029,1.1358337l-0.1413269,6.7412415
						c1.2547913,0.1798706,3.1529236,0.6685791,3.995636,1.994751c0.3578186,0.5628967,0.6694946,1.5031738,0.12323,2.7874756
						C413.0779419,339.2759399,410.9804382,339.884552,409.1750793,339.884552z"/>
				</g>
				<g>
					<path fill="#222B3F" d="M406.6065063,348.5429688c-2.9721069,0-7.5687561-0.9535828-11.9346008-5.7372131
						c-0.4144592-0.453949-0.3820801-1.1577454,0.0718689-1.5717163c0.4544067-0.4149475,1.1586609-0.3825684,1.5716858,0.0718384
						c6.1079102,6.6917725,12.5603333,4.7850647,12.8320313,4.7003784c0.5857544-0.1803589,1.2100525,0.1422729,1.3941956,0.7266235
						c0.1846313,0.5843201-0.1355896,1.2067261-0.7189941,1.3941956
						C409.6975708,348.1670532,408.4718018,348.5429688,406.6065063,348.5429688z"/>
				</g>
				<path fill="#374D6D" d="M388.7815552,297.4373169c0,0,14.489563,21.7568359,41.9681702,19.4891968
					c0,0-6.9312134-39.3566589-40.6568298-32.2667236s-27.5881042,34.4891663-13.3479919,43.1283875
					C376.7449036,327.7881775,388.4528503,320.5622864,388.7815552,297.4373169z"/>
				<g>
					<g>
						<g>
							<g opacity="0.3">
								<path fill="#FFFFFF" d="M385.9267578,348.5266418c-14.0270081-10.2479858-16.3076477-19.4013977-13.9987488-24.1254883
									c1.1449585-2.3438416,3.4040222-3.4949341,5.6281433-2.8574829
									c5.6117249,1.6031189,10.4642639,10.5387268,10.6676636,10.9183044l-1.8532715,0.9954834
									c-0.0457153-0.0847473-4.6347351-8.5318604-9.3927612-9.8910217
									c-1.2235413-0.3492737-2.4655457,0.3395386-3.1595154,1.7587891
									c-1.5717773,3.2154846-0.5290527,11.3631287,13.3494873,21.5022278L385.9267578,348.5266418z"/>
							</g>
							<path fill="#6081C1" d="M425.7397461,337.6898804c-0.1052246,6.8272705-1.8725281,18.70401-12.3817139,21.796814
								c-15.0011292,4.4077759-27.9403992-12.0871582-27.9403992-12.0871582l0.4628906-11.4454346l0.1998596-4.8706665
								c0,0,19.9664307-0.7468567,22.775238-0.8415527c2.8087463-0.094635,16.6842651,2.5352783,16.6842651,2.5352783
								S425.7923584,334.7758789,425.7397461,337.6898804z"/>
							<path fill="#FFFFFF" d="M425.7397461,337.6898804c-3.7029419-0.8311157-11.9714355-2.5773621-15.4745178-2.5773621
								c-4.2289429,0-21.6180115,0.7258606-24.3847046,0.8415833l0.1998596-4.8706665c0,0,19.9664307-0.7468567,22.775238-0.8415527
								c2.8087463-0.094635,16.6842651,2.5352783,16.6842651,2.5352783S425.7923584,334.7758789,425.7397461,337.6898804z"/>
						</g>
						<path fill="#9F5353" d="M384.2164307,338.7402954l-3.8145447-12.6049194c0,0-5.3312378-9.3094177-13.9276428-7.200592
							C357.8778076,321.0436096,358.9184265,343.5551147,384.2164307,338.7402954z"/>
						<g>
							<path fill="#222B3F" d="M380.7592468,334.5508423c-0.3587646,0-0.710907-0.1731873-0.9255066-0.493927
								c-4.7032166-7.0224609-12.7468262-8.8373108-12.8277283-8.8549194
								c-0.6004944-0.1304016-0.9816589-0.7228088-0.8512878-1.3233337
								c0.1299133-0.6004944,0.7204285-0.9830627,1.3233337-0.8512573c0.365448,0.0789795,9.0072021,2.0303955,14.2048035,9.7913818
								c0.3416748,0.5105896,0.2051086,1.2015076-0.305481,1.5436401
								C381.1875305,334.4894714,380.9719543,334.5508423,380.7592468,334.5508423z"/>
						</g>
						<g>
							<path fill="#222B3F" d="M371.1220398,334.6350708c-0.0342712,0-0.0690002-0.0014343-0.1037292-0.0047607
								c-0.6114502-0.0566101-1.061615-0.5967102-1.0059204-1.2081604c0.0137939-0.147522,0.3506775-3.6544495,2.208374-7.3598328
								c0.2755127-0.5495911,0.9440613-0.7718201,1.4931946-0.4958191c0.5491028,0.2750244,0.7713318,0.943573,0.4958191,1.4931641
								c-1.660675,3.3132935-1.9780579,6.533783-1.9814148,6.5656738
								C372.1745911,334.2020569,371.6897278,334.6350708,371.1220398,334.6350708z"/>
						</g>
					</g>
					<g>
						<path fill="#FF8D88" d="M372.212677,357.1461792c-0.5215149,0-1.0344849-0.0799561-1.5322266-0.2417297
							c-1.9642639-0.6385803-3.3708496-2.4472656-3.960907-5.092926c-0.5438843-2.4377441-0.3330688-5.3508301,0.5938721-8.2025452
							c0.7137451-2.1955566,1.7967834-4.1836243,3.1319885-5.7486572c0.3987427-0.4677429,1.1001282-0.5229492,1.5688477-0.124176
							c0.4672852,0.399231,0.5229492,1.1010742,0.124176,1.5688477c-1.1477051,1.3447266-2.0841675,3.0710754-2.7084656,4.9920349
							c-0.805603,2.4781799-0.9968872,4.9749146-0.5386658,7.0296021c0.4120789,1.8467407,1.2914429,3.0758362,2.4772339,3.4612732
							c1.185791,0.384491,2.6199951-0.0918274,4.0384521-1.3432922c1.5788574-1.3927917,2.8921814-3.5250244,3.6972961-6.0032043
							c0.805603-2.4782104,0.9968872-4.9749451,0.5386658-7.0300903c-0.4120789-1.8467407-1.2919312-3.0758362-2.4772339-3.4608154
							c-0.5843506-0.1898499-0.9041138-0.8174744-0.7142334-1.4022827c0.1898499-0.5838623,0.8132019-0.9055481,1.4022827-0.7142334
							c1.9638062,0.638092,3.3708801,2.4467773,3.960907,5.092926c0.5438843,2.4377441,0.3330994,5.3508301-0.5938416,8.2025452
							c-0.9269409,2.8512573-2.4686584,5.3313293-4.3415833,6.9839172
							C375.3613281,356.4519348,373.7496338,357.1461792,372.212677,357.1461792z"/>
					</g>
				</g>
			</g>
			<g>
				<path fill="#222B3F" d="M390.0547485,317.0440369c0,0,3.776123-7.6876526,9.6091614-4.7744751
					c0,0,0.1528625-1.7443237,1.6768799-1.7872009c1.5240173-0.0429077,1.6895752,4.7249756,1.6895752,4.7249756
					S396.0344849,314.6506348,390.0547485,317.0440369z"/>
				<path fill="#222B3F" d="M422.8146667,320.6081543c0,0-0.4915466-7.8175659-4.9995422-5.6365356
					c0,0-0.1196289-1.4430237-1.0996094-1.6031494c-1.6948853-0.2769165-2.0287476,4.2142944-2.0287476,4.2142944
					S419.5570374,317.6575317,422.8146667,320.6081543z"/>
				<g>
					
						<ellipse transform="matrix(0.0285071 -0.9995936 0.9995936 0.0285071 61.0231323 714.9440308)" fill="#222B3F" cx="398.3235779" cy="326.0779114" rx="3.9757581" ry="3.2156868"/>
					<circle fill="#FFFFFF" cx="399.0724182" cy="324.6881714" r="0.8550804"/>
				</g>
				<g>
					
						<ellipse transform="matrix(0.0285071 -0.9995936 0.9995936 0.0285071 78.8791504 734.3966064)" fill="#222B3F" cx="417.2592163" cy="326.6179199" rx="3.9757581" ry="3.2156868"/>
					<circle fill="#FFFFFF" cx="418.0080261" cy="325.2281799" r="0.8550804"/>
				</g>
			</g>
		</g>
	</g>
	<g id="righ_arm">
		<g>
			<g>
				<path fill="#6081C1" d="M313.8359375,431.962616c2.927124-19.7770386,27.5417175-27.3256836,41.2506714-12.7735901
					c0.184967,0.1963501,0.3710938,0.3946838,0.5584412,0.5950623
					c18.7349243,20.0384827,68.5342712,84.4039001,68.5342712,84.4039001l20.6029358,49.0476074
					c0,0-13.586731,16.079834-26.5270691,13.0963135c-12.9403381-2.9834595-70.4815674-58.9501953-91.8346863-86.7704468
					C314.3789063,463.8729248,311.664856,446.6314697,313.8359375,431.962616z"/>
			</g>
			<g>
				<g>
					<path fill="#6081C1" d="M421.5818176,567.7560425c-1.1829529,0-2.3735962-0.1248169-3.5627136-0.3991089
						c-13.9633179-3.2191162-72.1376953-60.7134094-92.4333496-87.1549988
						c-0.3533936-0.4607544-0.2666016-1.1213074,0.1941528-1.4752197c0.4607544-0.3528748,1.1203003-0.2670898,1.4752502,0.1941528
						c21.5243225,28.0437012,78.7535706,83.5080261,91.2365112,86.3855286
						c10.9373169,2.5205078,22.708313-9.6778564,25.0644531-12.2733765l-20.2930908-48.3100586
						c-2.3289185-3.0064392-50.2589111-64.8319092-68.3864136-84.220459l-0.5552673-0.5917358
						c-4.1929932-4.451355-9.8072815-7.0222168-15.8078308-7.2389832c-0.5804443-0.0210571-1.0345154-0.5090332-1.0134583-1.0894775
						c0.0215759-0.5804138,0.5228882-1.0216675,1.0894775-1.0134277c6.5573425,0.2373047,12.688385,3.0423889,17.263031,7.8990173
						l0.5603943,0.5974121c18.5543518,19.8451843,68.1003113,83.8352051,68.5985718,84.4793091
						c0.0559692,0.0724487,0.1022034,0.1515503,0.1376343,0.2362976l20.6028442,49.0472107
						c0.1530762,0.3646851,0.0888672,0.7843018-0.1664124,1.0863647
						C445.0647583,554.5308838,433.73703,567.7560425,421.5818176,567.7560425z"/>
				</g>
			</g>
			<g opacity="0.3">
				<g>
					<path fill="#FFFFFF" d="M421.5818176,567.7560425c-1.1829529,0-2.3735962-0.1248169-3.5627136-0.3991089
						c-13.9633179-3.2191162-72.1376953-60.7134094-92.4333496-87.1549988
						c-0.3533936-0.4607544-0.2666016-1.1213074,0.1941528-1.4752197c0.4607544-0.3528748,1.1203003-0.2670898,1.4752502,0.1941528
						c21.5243225,28.0437012,78.7535706,83.5080261,91.2365112,86.3855286
						c10.9373169,2.5205078,22.708313-9.6778564,25.0644531-12.2733765l-20.2930908-48.3100586
						c-2.3289185-3.0064392-50.2589111-64.8319092-68.3864136-84.220459l-0.5552673-0.5917358
						c-4.1929932-4.451355-9.8072815-7.0222168-15.8078308-7.2389832c-0.5804443-0.0210571-1.0345154-0.5090332-1.0134583-1.0894775
						c0.0215759-0.5804138,0.5228882-1.0216675,1.0894775-1.0134277c6.5573425,0.2373047,12.688385,3.0423889,17.263031,7.8990173
						l0.5603943,0.5974121c18.5543518,19.8451843,68.1003113,83.8352051,68.5985718,84.4793091
						c0.0559692,0.0724487,0.1022034,0.1515503,0.1376343,0.2362976l20.6028442,49.0472107
						c0.1530762,0.3646851,0.0888672,0.7843018-0.1664124,1.0863647
						C445.0647583,554.5308838,433.73703,567.7560425,421.5818176,567.7560425z"/>
				</g>
			</g>
			<path fill="#222B3F" d="M412.1444092,500.3949585c28.6297913-12.7295227,50.4373169,19.0717163,44.3049622,50.7246704
				s-55.1000671,31.2619019-67.2633972,4.1535645S387.6630859,511.2799377,412.1444092,500.3949585z"/>
		</g>
	</g>
	<g id="right_forearm">
		<g>
			<g>
				<g>
					<g>
						<path fill="#EEEEEE" d="M584.7145386,494.3407898l-0.0186768,1.8184204
							c-0.0091553,0.8884888-1.2416382,1.5961609-2.7529297,1.5806274l-50.0374146-0.1368713
							c-0.8468018-0.008728-1.5354614-0.4231873-1.5303345-0.921051l0.0332031-3.2312622
							c0.005127-0.4967651,0.6942139-0.8924561,1.5391846-0.8837585l50.0471191,0.1369934
							C583.5059814,492.7194214,584.7236328,493.4522705,584.7145386,494.3407898z"/>
					</g>
					<path fill="#EEEEEE" d="M529.7994995,502.5710754L529.7994995,502.5710754
						c-0.9576416,0.0119934-1.7437744-0.7546692-1.7557373-1.7123718l-0.1512451-12.0915222
						c-0.0120239-0.9576721,0.7546387-1.7437744,1.7123413-1.7557373l0,0
						c0.9577026-0.0119934,1.7437744,0.7546692,1.7557373,1.7123413l0.1513062,12.0915527
						C531.5238647,501.7730103,530.7572021,502.559082,529.7994995,502.5710754z"/>
				</g>
				<polygon fill="#EEEEEE" points="640.3640747,496.036499 610.8046875,496.036499 610.8046875,494.6929016 
					638.6142578,494.6929016 				"/>
				<path fill="#222B3F" d="M610.7734375,497.286377h-8.9052734v-3.8433533h8.9052734
					c0.569519,0,1.0311279,0.4616394,1.0311279,1.0311279v1.7810669
					C611.8045654,496.824707,611.3429565,497.286377,610.7734375,497.286377z"/>
				<g>
					<path fill="#6081C1" d="M605.1547852,493.6438599l-0.0704346,3.0923157
						c-0.0344849,1.5109253-1.2872314,2.7078552-2.7981567,2.6734314l-50.0378418-0.4984131
						c-0.8466187-0.0192871-1.5235596-0.7278137-1.5042725-1.5744629l0.1252441-5.494873
						c0.0192871-0.8447876,0.7197266-1.5140076,1.5645142-1.494751l50.0475464,0.4986267
						C603.9923096,490.8801575,605.189209,492.1329346,605.1547852,493.6438599z"/>
				</g>
				<path fill="#6081C1" d="M551.2484741,502.6120605L551.2484741,502.6120605
					c-0.9577637,0-1.7341919-0.7764282-1.7341919-1.7341919v-12.0924683c0-0.9577637,0.7764282-1.7341919,1.7341919-1.7341919l0,0
					c0.9577637,0,1.7341919,0.7764282,1.7341919,1.7341919v12.0924683
					C552.982666,501.8356323,552.2062378,502.6120605,551.2484741,502.6120605z"/>
				<g>
					<path fill="#EEEEEE" d="M557.6868896,495.0945129v3.8712463l-1.5043945-0.0105286v-3.8607178
						c0-0.4102783,0.3366699-0.7469177,0.7574463-0.7469177
						C557.3502808,494.3475952,557.6868896,494.6842346,557.6868896,495.0945129z"/>
					<path fill="#EEEEEE" d="M565.3768311,497.2826233v1.7567749l-1.5043335-0.0105286v-1.7462463
						c0-0.4102783,0.3365479-0.7469177,0.7468262-0.7469177
						C565.0401611,496.5357056,565.3768311,496.872345,565.3768311,497.2826233z"/>
					<path fill="#EEEEEE" d="M573.0562134,495.0945129v4.0290833l-1.4938354-0.0210876v-4.0079956
						c0-0.4102783,0.3366089-0.7469177,0.7468872-0.7469177S573.0562134,494.6842346,573.0562134,495.0945129z"/>
					<path fill="#EEEEEE" d="M580.7460938,497.2826233v1.9145508l-1.5042725-0.0209961v-1.8935547
						c0-0.4102783,0.3366089-0.7469177,0.7573853-0.7469177
						C580.4094849,496.5357056,580.7460938,496.872345,580.7460938,497.2826233z"/>
					<path fill="#EEEEEE" d="M588.4360352,495.0945129v4.1763l-1.5043335-0.0105286v-4.1657715
						c0-0.4102783,0.3366699-0.7469177,0.7468872-0.7469177
						C588.0993652,494.3475952,588.4360352,494.6842346,588.4360352,495.0945129z"/>
					<path fill="#EEEEEE" d="M596.1154175,497.2826233v2.0618286l-1.4937744-0.0105286v-2.0513
						c0-0.4102783,0.3366089-0.7469177,0.7468262-0.7469177
						C595.7787476,496.5357056,596.1154175,496.872345,596.1154175,497.2826233z"/>
				</g>
			</g>
			<g>
				<g>
					<g>
						<path fill="#9F5353" d="M570.4805908,526.2033081c-3.4609375,4.7969971-7.3743286-2.6194458-17.3364868,3.2611084
							c-9.9621582,5.8699951-2.5562744,16.3581543-17.0629272,17.0945435
							c-2.7667236,0.5470581-5.7227783,1.0835571-8.6893311,1.5568848v0.0316162
							c-2.9244995,0.4628296-6.4486084,1.0519409-10.3934937,1.7252197
							c-27.8877869,4.8075562-76.4468689,13.9701538-76.4468689,13.9701538s-25.6049805-2.7035522-22.070343-30.5913696
							c3.5346069-27.8877258,29.2132874-19.4193726,29.2132874-19.4193726l67.2105408,6.1014404l8.4893188,0.7679443
							c-0.6206055-5.5438843-1.7251587-14.5803223-3.0506592-21.4917908
							c-2.0618896-10.7406006,6.3328857-7.7109985,7.8477173-2.8929443
							c0.4838867,1.5464478,1.1361084,3.8818054,1.8093872,6.3434448c1.1992798-2.7246399,2.6824951-5.4702759,4.4813843-7.9950256
							c7.8267212-11.0036011,30.7597046-4.3236084,32.432373-1.0203857
							c1.6725464,3.3136597-2.9876709,4.7969666-2.9876709,4.7969666s6.3538818,1.8199158,6.6484985,5.9857483
							c0.2840576,3.9554138-3.9343872,3.8396606-4.3552246,3.8186646c0.3682861,0.1367493,3.8397827,1.4832458,4.6602783,5.5333862
							c0.8626099,4.2919922-4.9337769,4.3551025-4.9337769,4.3551025S573.9521484,521.406311,570.4805908,526.2033081z"/>
						<path fill="#6081C1" d="M570.4805908,526.2033081c-3.4609375,4.7969971-7.3743286-2.6194458-17.3364868,3.2611084
							c-9.9621582,5.8699951-2.5562744,16.3581543-17.0629272,17.0945435
							c-2.7667236,0.5470581-5.7227783,1.0835571-8.6893311,1.5568848v0.0316162
							c-2.9244995,0.4628296-6.4486084,1.0519409-10.3934937,1.7252197l-2.0933838-29.9391479l8.4893188,0.7679443
							c-0.6206055-5.5438843-1.7251587-14.5803223-3.0506592-21.4917908
							c-2.0618896-10.7406006,6.3328857-7.7109985,7.8477173-2.8929443
							c0.4838867,1.5464478,1.1361084,3.8818054,1.8093872,6.3434448c1.1992798-2.7246399,2.6824951-5.4702759,4.4813843-7.9950256
							c7.8267212-11.0036011,30.7597046-4.3236084,32.432373-1.0203857
							c1.6725464,3.3136597-2.9876709,4.7969666-2.9876709,4.7969666s6.3538818,1.8199158,6.6484985,5.9857483
							c0.2840576,3.9554138-3.9343872,3.8396606-4.3552246,3.8186646c0.3682861,0.1367493,3.8397827,1.4832458,4.6602783,5.5333862
							c0.8626099,4.2919922-4.9337769,4.3551025-4.9337769,4.3551025S573.9521484,521.406311,570.4805908,526.2033081z"/>
						<path opacity="0.3" fill="#FFFFFF" d="M570.4805908,526.2033081
							c-3.4609375,4.7969971-7.3743286-2.6194458-17.3364868,3.2611084
							c-9.9621582,5.8699951-2.5562744,16.3581543-17.0629272,17.0945435
							c-2.7667236,0.5470581-5.7227783,1.0835571-8.6893311,1.5568848v0.0316162
							c-2.9244995,0.4628296-6.4486084,1.0519409-10.3934937,1.7252197l-2.0933838-29.9391479l8.4893188,0.7679443
							c-0.6206055-5.5438843-1.7251587-14.5803223-3.0506592-21.4917908
							c-2.0618896-10.7406006,6.3328857-7.7109985,7.8477173-2.8929443
							c0.4838867,1.5464478,1.1361084,3.8818054,1.8093872,6.3434448c1.1992798-2.7246399,2.6824951-5.4702759,4.4813843-7.9950256
							c7.8267212-11.0036011,30.7597046-4.3236084,32.432373-1.0203857
							c1.6725464,3.3136597-2.9876709,4.7969666-2.9876709,4.7969666s6.3538818,1.8199158,6.6484985,5.9857483
							c0.2840576,3.9554138-3.9343872,3.8396606-4.3552246,3.8186646c0.3682861,0.1367493,3.8397827,1.4832458,4.6602783,5.5333862
							c0.8626099,4.2919922-4.9337769,4.3551025-4.9337769,4.3551025S573.9521484,521.406311,570.4805908,526.2033081z"/>
						<g>
							<path fill="#222B3F" d="M561.1599731,499.2419739c-0.104187,0.0025024-0.2106323-0.0096741-0.3170166-0.0385132
								c-8.2213135-2.2145691-18.0342407-0.1905823-18.1322632-0.1701355
								c-0.5976563,0.12677-1.1914063-0.2577515-1.3182983-0.8587036c-0.1273193-0.6009521,0.2568359-1.1914063,0.8577271-1.3187256
								c0.4215088-0.0892029,10.4237671-2.1572571,19.1721191,0.1992493
								c0.5930786,0.1594238,0.9443359,0.7701721,0.7844849,1.3637695
								C562.0757446,498.9061584,561.6399536,499.2303772,561.1599731,499.2419739z"/>
						</g>
						<g>
							<path fill="#222B3F" d="M562.5545654,509.5222778c-0.104187,0.002533-0.2106323-0.0096741-0.3170166-0.0385132
								c-8.2337646-2.2180481-16.9624023-0.666748-17.0491333-0.6499023
								c-0.6099854,0.1070862-1.1845703-0.2902832-1.2948608-0.8940125
								c-0.1107178-0.6046753,0.2888794-1.184082,0.8930664-1.2948303
								c0.3753052-0.0700073,9.2971191-1.6625977,18.0301514,0.6904602c0.5931396,0.1593933,0.944397,0.7701721,0.7845459,1.3637695
								C563.4703369,509.1864929,563.0345459,509.5106812,562.5545654,509.5222778z"/>
						</g>
						<g>
							<path fill="#222B3F" d="M563.8251953,519.519043c-0.104187,0.0025024-0.2106323-0.0096436-0.3170166-0.0385132
								c-8.2294312-2.2167358-15.9588623-0.5419922-16.0365601-0.5249023
								c-0.5984497,0.1315308-1.1939087-0.2438965-1.3278809-0.8441772
								c-0.1334839-0.5998535,0.2443237-1.194458,0.8441772-1.3279419
								c0.3366089-0.0752563,8.3453979-1.8114624,17.0995483,0.5487671c0.5930786,0.1593628,0.944397,0.7701416,0.7844849,1.3637695
								C564.7409668,519.1832275,564.3051758,519.5074463,563.8251953,519.519043z"/>
						</g>
					</g>
				</g>
			</g>
		</g>
	</g>
</g>
<g id="Layer_x5F_Shield">
	<g opacity="0.3">
		<path fill="#6081C1" d="M711.0195923,388.8230286v92.3842163c0,44.3511047-21.081543,86.0618591-56.7960205,112.3611755
			l-21.6075439,15.9058228l-21.6074829-15.9058228c-35.7144775-26.2993164-56.7959595-68.0100708-56.7959595-112.3611755
			v-92.3842163c61.1826782,0,78.4034424-38.0183105,78.4034424-38.0183105S649.836853,388.8230286,711.0195923,388.8230286z"/>
		<path opacity="0.3" fill="#FFFFFF" d="M621.6104736,579.1664429
			c-31.003418-22.8305664-49.5146484-59.4512939-49.5146484-97.959259v-75.525238
			c29.4942627-3.4974976,48.6917725-15.3553162,60.5202637-26.355835
			c11.8285522,11.0005188,31.026001,22.8583374,60.5202637,26.355835v75.525238
			c0,38.5079651-18.5112305,75.1286926-49.5166626,97.9607849l-11.0036011,8.0999146L621.6104736,579.1664429z"/>
	</g>
</g>
</svg>
