<?xml version="1.0" encoding="iso-8859-1"?>
<!-- Generator: Adobe Illustrator 26.0.2, SVG Export Plug-In . SVG Version: 6.00 Build 0)  -->
<svg version="1.1" xmlns="http://www.w3.org/2000/svg" xmlns:xlink="http://www.w3.org/1999/xlink" x="0px" y="0px"
	 viewBox="0 0 1200 1200" enable-background="new 0 0 1200 1200" xml:space="preserve">
<g id="Background_x5F_Simple">
	<g>
		<g>
			<path fill="#EEEEEE" d="M680.72,213.39L680.72,213.39c-2.4,0-4.35-1.95-4.35-4.35v-13.84c0-2.4,1.95-4.35,4.35-4.35l0,0
				c2.4,0,4.35,1.95,4.35,4.35v13.84C685.07,211.45,683.12,213.39,680.72,213.39z"/>
			<path fill="#EEEEEE" d="M690.92,223.59L690.92,223.59c0-2.4,1.95-4.35,4.35-4.35h13.84c2.4,0,4.35,1.95,4.35,4.35l0,0
				c0,2.4-1.95,4.35-4.35,4.35h-13.84C692.87,227.94,690.92,225.99,690.92,223.59z"/>
			<path fill="#EEEEEE" d="M680.72,233.79L680.72,233.79c2.4,0,4.35,1.95,4.35,4.35v13.84c0,2.4-1.95,4.35-4.35,4.35l0,0
				c-2.4,0-4.35-1.95-4.35-4.35v-13.84C676.37,235.74,678.32,233.79,680.72,233.79z"/>
			<path fill="#EEEEEE" d="M670.52,223.59L670.52,223.59c0,2.4-1.95,4.35-4.35,4.35h-13.84c-2.4,0-4.35-1.95-4.35-4.35l0,0
				c0-2.4,1.95-4.35,4.35-4.35h13.84C668.58,219.25,670.52,221.19,670.52,223.59z"/>
		</g>
		<g>
			<path fill="#EEEEEE" d="M1070.08,457.21L1070.08,457.21c-2.4,0-4.35-1.95-4.35-4.35v-13.84c0-2.4,1.95-4.35,4.35-4.35l0,0
				c2.4,0,4.35,1.95,4.35,4.35v13.84C1074.43,455.27,1072.48,457.21,1070.08,457.21z"/>
			<path fill="#EEEEEE" d="M1080.28,467.41L1080.28,467.41c0-2.4,1.95-4.35,4.35-4.35h13.84c2.4,0,4.35,1.95,4.35,4.35l0,0
				c0,2.4-1.95,4.35-4.35,4.35h-13.84C1082.23,471.76,1080.28,469.81,1080.28,467.41z"/>
			<path fill="#EEEEEE" d="M1070.08,477.61L1070.08,477.61c2.4,0,4.35,1.95,4.35,4.35v13.84c0,2.4-1.95,4.35-4.35,4.35l0,0
				c-2.4,0-4.35-1.95-4.35-4.35v-13.84C1065.73,479.56,1067.68,477.61,1070.08,477.61z"/>
			<path fill="#EEEEEE" d="M1059.88,467.41L1059.88,467.41c0,2.4-1.95,4.35-4.35,4.35h-13.84c-2.4,0-4.35-1.95-4.35-4.35l0,0
				c0-2.4,1.95-4.35,4.35-4.35h13.84C1057.93,463.07,1059.88,465.01,1059.88,467.41z"/>
		</g>
		<g>
			<path fill="#EEEEEE" d="M170.7,290.27L170.7,290.27c-2.4,0-4.35-1.95-4.35-4.35v-13.84c0-2.4,1.95-4.35,4.35-4.35l0,0
				c2.4,0,4.35,1.95,4.35,4.35v13.84C175.04,288.32,173.1,290.27,170.7,290.27z"/>
			<path fill="#EEEEEE" d="M180.9,300.47L180.9,300.47c0-2.4,1.95-4.35,4.35-4.35h13.84c2.4,0,4.35,1.95,4.35,4.35v0
				c0,2.4-1.95,4.35-4.35,4.35h-13.84C182.84,304.81,180.9,302.87,180.9,300.47z"/>
			<path fill="#EEEEEE" d="M170.7,310.67L170.7,310.67c2.4,0,4.35,1.95,4.35,4.35v13.84c0,2.4-1.95,4.35-4.35,4.35l0,0
				c-2.4,0-4.35-1.95-4.35-4.35v-13.84C166.35,312.61,168.3,310.67,170.7,310.67z"/>
			<path fill="#EEEEEE" d="M160.5,300.47L160.5,300.47c0,2.4-1.95,4.35-4.35,4.35h-13.84c-2.4,0-4.35-1.95-4.35-4.35v0
				c0-2.4,1.95-4.35,4.35-4.35h13.84C158.55,296.12,160.5,298.07,160.5,300.47z"/>
		</g>
		<path fill="#EEEEEE" d="M382.02,214.21c-9.61,0-17.37,7.78-17.37,17.37c0,9.61,7.76,17.37,17.37,17.37
			c9.59,0,17.37-7.76,17.37-17.37C399.39,221.99,391.61,214.21,382.02,214.21z M382.02,240.98c-5.21,0-9.41-4.2-9.41-9.41
			c0-5.19,4.2-9.39,9.41-9.39c5.19,0,9.39,4.2,9.39,9.39C391.41,236.79,387.21,240.98,382.02,240.98z"/>
		<path fill="#EEEEEE" d="M965.94,256.32c-9.61,0-17.37,7.78-17.37,17.37c0,9.61,7.76,17.37,17.37,17.37
			c9.59,0,17.37-7.76,17.37-17.37C983.31,264.1,975.53,256.32,965.94,256.32z M965.94,283.1c-5.21,0-9.41-4.2-9.41-9.41
			c0-5.19,4.2-9.39,9.41-9.39c5.19,0,9.39,4.2,9.39,9.39C975.33,278.9,971.13,283.1,965.94,283.1z"/>
		<path fill="#EEEEEE" d="M120.6,484.89c-9.61,0-17.37,7.78-17.37,17.37c0,9.61,7.76,17.37,17.37,17.37
			c9.59,0,17.37-7.76,17.37-17.37C137.97,492.67,130.19,484.89,120.6,484.89z M120.6,511.67c-5.21,0-9.41-4.2-9.41-9.41
			c0-5.19,4.2-9.39,9.41-9.39c5.19,0,9.39,4.2,9.39,9.39C129.99,507.47,125.79,511.67,120.6,511.67z"/>
		<path fill="#EEEEEE" d="M758.79,506.5c-9.61,0-17.37,7.78-17.37,17.37c0,9.61,7.76,17.37,17.37,17.37
			c9.59,0,17.37-7.76,17.37-17.37C776.16,514.28,768.38,506.5,758.79,506.5z M758.79,533.28c-5.21,0-9.41-4.2-9.41-9.41
			c0-5.19,4.2-9.39,9.41-9.39c5.19,0,9.39,4.2,9.39,9.39C768.17,529.08,763.98,533.28,758.79,533.28z"/>
	</g>
</g>
<g id="Layer_x5F_Plants">
	<g>
		<g>
			<path fill="#6081C1" d="M1083.53,918.19c0,0,12.69-35.76,36.23-53.07c23.54-17.31,21.23,3,0,22.84c0,0,23.08-11.34,28.61,2.05
				C1152.29,899.5,1127.14,918.19,1083.53,918.19z"/>
			<g>
				<path fill="#374D6D" d="M1022.15,918.19c0,0-2.08-72.86,22.15-122.26c24.23-49.41,41.53-31.41,38.76-12.03
					c0,0,28.38-103.83,65.76-94.83c37.38,9-20.77,97.6-49.84,128.75c0,0,21.46-10.6,25.61,7.51
					C1128.76,843.43,1083.07,907.11,1022.15,918.19z"/>
				<g opacity="0.3">
					<path fill="#FFFFFF" d="M1026.54,909.79c-0.18,0-0.37-0.05-0.53-0.16c-0.45-0.29-0.57-0.9-0.28-1.34
						c51.98-79.24,116.52-202.72,117.17-203.96c0.25-0.48,0.83-0.66,1.31-0.41c0.48,0.25,0.66,0.83,0.41,1.31
						c-0.65,1.24-65.23,124.81-117.26,204.13C1027.16,909.64,1026.85,909.79,1026.54,909.79z"/>
				</g>
			</g>
		</g>
		<g>
			<path fill="#FF8D88" d="M119.29,918.19c0,0-11.88-46.37-39.73-70.49s-30.22,0.72-4.04,28.37c0,0-25.91-15.81-28.1,2.85
				C45.86,892.14,75.68,918.19,119.29,918.19z"/>
			<g>
				<path fill="#374D6D" d="M180.67,918.19c-17.01-147.9-93.98-249.36-126.68-229.12C-1.09,723.16,108.28,881.7,180.67,918.19z"/>
				<g opacity="0.3">
					<path fill="#FFFFFF" d="M176.28,909.79c-0.32,0-0.63-0.15-0.81-0.44C123.44,830.03,58.85,706.46,58.2,705.23
						c-0.25-0.48-0.06-1.06,0.41-1.31c0.48-0.25,1.06-0.06,1.31,0.41c0.65,1.24,65.19,124.72,117.17,203.96
						c0.29,0.45,0.17,1.05-0.28,1.34C176.65,909.74,176.46,909.79,176.28,909.79z"/>
				</g>
			</g>
		</g>
	</g>
</g>
<g id="Layer_x5F_Character_2">
	<g id="right_arm_00000160880784350967397310000000953492028763355831_">
		<g>
			<g>
				<path fill="#FBBDBB" d="M678.4,701l-44.1,92.39c-28.98,51.69,44.89,98.23,76.54,58.64l60.52-95.23L678.4,701z"/>
				<path fill="#FF8D88" d="M777.74,551.33c-29.6,7.52-134.18,147.96-134.18,147.96s48.42,68.44,114.16,100.9
					c0,0,42.96-75.74,74.32-150.74C863.39,574.44,814.68,541.94,777.74,551.33z"/>
				<g>
					<path opacity="0.3" fill="#FFFFFF" d="M753.14,770.33c-0.51,0.21-1.1,0.21-1.63-0.05c-48.74-23.77-91.6-78.32-92.03-78.86
						c-0.67-0.86-0.52-2.11,0.35-2.78c0.86-0.67,2.1-0.52,2.77,0.34c0.42,0.54,42.74,54.37,90.64,77.74
						c0.98,0.48,1.39,1.66,0.91,2.64C753.94,769.83,753.57,770.16,753.14,770.33z"/>
				</g>
			</g>
		</g>
	</g>
	<g id="body_00000151538299079673808370000009837793907853681309_">
		<g>
			<path fill="#FF8D88" d="M1080.94,920.34H698.72c26.24-212.3,79.01-369.02,79.01-369.02c59.82-19.49,119.71-24.98,119.71-24.98
				c58.57,1.27,120.58,20.45,142.03,27.69c5.07,1.71,8.95,5.8,10.44,10.92C1070.03,634.17,1077.9,806.22,1080.94,920.34z"/>
			<g opacity="0.3">
				<path fill="#FFFFFF" d="M771.95,563.29c-9.23,29.63-32.71,109.65-53.32,218.22c-0.19,1.01,0.47,1.98,1.48,2.17
					c1.01,0.19,1.98-0.47,2.17-1.48c20.57-108.39,44.02-188.28,53.22-217.81c0.31-0.98-0.24-2.02-1.22-2.33
					C773.3,561.76,772.26,562.31,771.95,563.29L771.95,563.29z"/>
			</g>
			<g>
				<path opacity="0.3" fill="#FFFFFF" d="M895.76,687.89c-0.51,0.04-1.04,0.04-1.57-0.01l-17.24-1.58
					c-4.76-0.44-8.29-4.5-8.03-9.25c2.23-40.76,10.7-112.82,10.79-113.54c0.06-0.54,0.35-1.03,0.79-1.36c0.44-0.33,1-0.45,1.53-0.36
					l28.45,5.19c1.04,0.19,1.75,1.17,1.61,2.22c-4.19,30.24-7.37,92.08-8.24,110.31c-0.12,2.43-1.19,4.64-3.02,6.23
					C899.37,687,897.62,687.73,895.76,687.89z M883.39,566.07c-1.41,12.18-8.51,74.47-10.52,111.2c-0.14,2.62,1.81,4.86,4.45,5.1
					l17.24,1.58c1.34,0.13,2.65-0.29,3.66-1.17c1.01-0.88,1.6-2.1,1.67-3.44c0.86-17.9,3.94-77.78,8.02-108.78L883.39,566.07z"/>
			</g>
			<path fill="#6081C1" d="M905.05,504.43c-11.96-0.86-26.81,3.81-34.51,6.64c-3.11,1.14-5.13,4.16-5.04,7.47l0.93,36.77
				c0,0,14.81,19.52,40.34,18.75c25.53-0.76,38.23-16.63,38.23-16.63l4.84-35.53c0.44-3.25-1.18-6.46-4.11-7.94
				C939.47,510.82,926.68,505.99,905.05,504.43z"/>
			<g>
				<path fill="#FBBDBB" d="M921.02,472.95l1.11,16.03l2.6,37.67c-0.8,0.24-1.6,0.43-2.4,0.63c-14.11,3.45-26.98,1.58-36.13-1.15
					l3.33-20.23l4.68-28.32L921.02,472.95z"/>
				<path fill="#222B3F" d="M921.02,472.95l1.11,16.03c-6.2,6.33-16.26,12.94-32.61,16.92l4.68-28.32L921.02,472.95z"/>
			</g>
			<g>
				<g>
					<path fill="#6081C1" d="M912.34,530.89c-10.79,0.89-20.15-0.91-26.72-2.87c-1.14-0.35-2.22-0.7-3.26-1.05
						c-7.1-2.45-11.37-5.06-11.54-5.17c-0.93-0.57-1.22-1.79-0.64-2.72c0.57-0.93,1.79-1.22,2.72-0.64
						c0.04,0.02,4.11,2.51,10.75,4.8c0.99,0.34,2.04,0.67,3.13,1.01c8.13,2.43,20.82,4.6,35.08,1.12c0.82-0.2,1.57-0.38,2.31-0.6
						c5.94-1.68,11.77-4.32,17.38-7.85c0.91-0.58,2.14-0.31,2.73,0.62c0.58,0.92,0.31,2.15-0.62,2.73
						c-5.93,3.74-12.12,6.53-18.38,8.3c-0.78,0.23-1.59,0.43-2.41,0.63C919.24,530.07,915.72,530.61,912.34,530.89z"/>
				</g>
				<g>
					<path opacity="0.3" fill="#FFFFFF" d="M912.34,530.89c-10.79,0.89-20.15-0.91-26.72-2.87c-1.14-0.35-2.22-0.7-3.26-1.05
						c-7.1-2.45-11.37-5.06-11.54-5.17c-0.93-0.57-1.22-1.79-0.64-2.72c0.57-0.93,1.79-1.22,2.72-0.64
						c0.04,0.02,4.11,2.51,10.75,4.8c0.99,0.34,2.04,0.67,3.13,1.01c8.13,2.43,20.82,4.6,35.08,1.12c0.82-0.2,1.57-0.38,2.31-0.6
						c5.94-1.68,11.77-4.32,17.38-7.85c0.91-0.58,2.14-0.31,2.73,0.62c0.58,0.92,0.31,2.15-0.62,2.73
						c-5.93,3.74-12.12,6.53-18.38,8.3c-0.78,0.23-1.59,0.43-2.41,0.63C919.24,530.07,915.72,530.61,912.34,530.89z"/>
				</g>
			</g>
		</g>
	</g>
	<g id="left_arm_00000000941890020355652910000012645767009174783649_">
		<g>
			<g>
				<path fill="#FBBDBB" d="M939.88,749.25l-31.36,85.49c-3.62,9.86-3.6,20.69,0.06,30.53l0.53,1.44
					c4.49,12.08,14.04,21.59,26.14,26.03l0,0c13.12,4.81,27.75,3.12,39.43-4.57l0.04-0.03c7.88-5.19,13.89-12.77,17.14-21.63
					l28.48-77.62L939.88,749.25z"/>
				<path fill="#FF8D88" d="M1042.06,554.89l-0.31-0.19l-0.35-0.07c-3.43-0.68-6.86-0.85-10.27-0.55
					c-8.96,0.79-17.72,4.79-26.16,11.02c-14.78,10.92-28.77,28.72-41.59,49.3c-38.39,61.72-68.55,154.56-68.55,154.56
					c66.94,14.49,110.5,38.15,126.79,80.58l0.74-1.24c55.34-92.79,58.46-163.76,54.41-209.74
					C1071.13,574.46,1047.31,556.78,1042.06,554.89z"/>
				<g>
					<path fill="#FF8D88" d="M1021.62,851c-0.04,0-0.08,0-0.13-0.01c-0.55-0.05-1.03-0.41-1.23-0.93
						c-15.19-39.57-53.97-64.14-125.74-79.68c-0.4-0.09-0.75-0.34-0.95-0.7c-0.2-0.36-0.25-0.79-0.12-1.18
						c0.3-0.93,30.66-93.72,68.7-154.88c10.47-16.81,20.85-30.32,30.87-40.15c0.58-0.56,1.5-0.55,2.06,0.02
						c0.56,0.57,0.55,1.5-0.02,2.06c-9.85,9.67-20.09,23-30.44,39.62c-35.18,56.55-63.79,140.39-67.9,152.72
						c34.45,7.58,61.04,17.28,81.26,29.65c21.22,12.98,35.61,28.95,43.9,48.74c21.3-35.96,36.55-71.84,45.33-106.67
						c0.2-0.78,0.99-1.26,1.77-1.06c0.78,0.2,1.25,0.99,1.06,1.77c-8.95,35.52-24.57,72.11-46.42,108.74l-0.74,1.24
						C1022.61,850.74,1022.13,851,1021.62,851z"/>
				</g>
				<g opacity="0.3">
					<path fill="#FFFFFF" d="M1021.62,851c-0.04,0-0.08,0-0.13-0.01c-0.55-0.05-1.03-0.41-1.23-0.93
						c-15.19-39.57-53.97-64.14-125.74-79.68c-0.4-0.09-0.75-0.34-0.95-0.7c-0.2-0.36-0.25-0.79-0.12-1.18
						c0.3-0.93,30.66-93.72,68.7-154.88c10.47-16.81,20.85-30.32,30.87-40.15c0.58-0.56,1.5-0.55,2.06,0.02
						c0.56,0.57,0.55,1.5-0.02,2.06c-9.85,9.67-20.09,23-30.44,39.62c-35.18,56.55-63.79,140.39-67.9,152.72
						c34.45,7.58,61.04,17.28,81.26,29.65c21.22,12.98,35.61,28.95,43.9,48.74c21.3-35.96,36.55-71.84,45.33-106.67
						c0.2-0.78,0.99-1.26,1.77-1.06c0.78,0.2,1.25,0.99,1.06,1.77c-8.95,35.52-24.57,72.11-46.42,108.74l-0.74,1.24
						C1022.61,850.74,1022.13,851,1021.62,851z"/>
				</g>
				<g opacity="0.3">
					<path fill="#FFFFFF" d="M916.68,739.49c0.29-0.07,0.6-0.08,0.92-0.01c77.21,17.6,119.42,63.36,119.84,63.82
						c0.73,0.81,0.67,2.06-0.14,2.79c-0.8,0.73-2.06,0.67-2.79-0.14c-0.41-0.45-41.85-45.31-117.79-62.62
						c-1.06-0.24-1.73-1.3-1.49-2.37C915.4,740.22,915.98,739.67,916.68,739.49z"/>
				</g>
			</g>
		</g>
	</g>
	<g id="left_forearm_00000158004340128430067310000011893649360658704035_">
		<g>
			<g>
				<path fill="#FBBDBB" d="M988.53,860.4c-4.94,21.81-34.53,47.52-65.32,28.1c-30.78-19.42-98.38-102.19-98.38-102.19
					s-10,1.32-13.4-0.77c-3.41-2.09-11.57-22.29-11.57-22.29l-36.27-26.45c-11.84-8.63-19.16-22.12-19.95-36.74l-1.39-26
					c-0.23-4.31,0.12-8.61,1.05-12.82c0.51-2.32,1.62-4.43,3.17-6.14c1.55-1.72,3.53-3.03,5.8-3.76c3.61-1.17,7.54-0.76,10.84,1.12
					l45.32,25.87c5.82,2.96,10.48,8.24,13.82,14.72l27.75,53.94c0,0,100.06,45.77,113.08,52.01
					C976.09,805.22,993.46,838.6,988.53,860.4z"/>
			</g>
			<g>
				<g>
					<path fill="#222B3F" d="M986.62,836.24c-0.63,0-1.21-0.41-1.4-1.04c-4.65-15.68-14.65-31.02-22.78-34.91
						c-3.58-1.71-14.11-6.6-31.31-14.52c-0.73-0.34-1.05-1.2-0.71-1.93c0.34-0.73,1.2-1.05,1.93-0.71
						c17.22,7.92,27.77,12.81,31.36,14.53c8.93,4.28,19.38,20.06,24.31,36.71c0.23,0.77-0.21,1.58-0.98,1.81
						C986.89,836.23,986.75,836.24,986.62,836.24z"/>
				</g>
			</g>
			<g>
				<g>
					<path fill="#222B3F" d="M807.94,697.41c-0.26,0-0.52-0.07-0.76-0.21l-47.5-28.9c-0.69-0.42-0.91-1.31-0.49-2
						c0.42-0.69,1.32-0.9,2-0.49l47.5,28.9c0.69,0.42,0.91,1.31,0.49,2C808.91,697.16,808.43,697.41,807.94,697.41z"/>
				</g>
				<g>
					<path fill="#222B3F" d="M807.11,715.66c-0.26,0-0.52-0.07-0.76-0.21l-47.5-28.9c-0.69-0.42-0.91-1.31-0.49-2
						c0.42-0.69,1.32-0.9,2-0.49l47.5,28.9c0.69,0.42,0.91,1.31,0.49,2C808.08,715.41,807.6,715.66,807.11,715.66z"/>
				</g>
				<g>
					<path fill="#222B3F" d="M806.29,733.91c-0.26,0-0.52-0.07-0.76-0.21l-47.5-28.9c-0.69-0.42-0.91-1.31-0.49-2
						c0.42-0.69,1.32-0.9,2-0.49l47.5,28.9c0.69,0.42,0.91,1.31,0.49,2C807.26,733.66,806.78,733.91,806.29,733.91z"/>
				</g>
			</g>
		</g>
	</g>
	<g id="right_forearm">
		<g>
			<g>
				<path fill="#FBBDBB" d="M632.81,824.85c-0.39,22.36,22.24,54.37,56.76,42.82c34.51-11.55,119.86-75.87,119.86-75.87
					s9.4,3.66,13.2,2.44c3.81-1.22,16.54-18.9,16.54-18.9l41.52-17.07c13.55-5.56,23.87-16.93,28.11-30.95l7.53-24.92
					c1.25-4.13,1.93-8.4,2.03-12.71c0.05-2.38-0.52-4.69-1.62-6.72c-1.1-2.04-2.71-3.78-4.74-5.03c-3.23-2-7.14-2.53-10.8-1.49
					l-50.17,14.35c-6.36,1.49-12.14,5.51-16.92,11.01l-39.78,45.79c0,0-108.08,20.66-122.2,23.63
					C658.01,774.2,633.2,802.5,632.81,824.85z"/>
			</g>
			<g>
				<g>
					<path fill="#222B3F" d="M639.92,803.35c-0.24,0-0.48-0.06-0.71-0.18c-0.7-0.39-0.96-1.28-0.57-1.98
						c8.6-15.49,23.18-29.27,33.2-31.37c3.45-0.72,12.67-2.54,27.41-5.4c0.79-0.15,1.55,0.36,1.71,1.15
						c0.15,0.79-0.36,1.55-1.15,1.71c-14.73,2.86-23.93,4.67-27.37,5.39c-9.14,1.92-23.15,15.35-31.25,29.94
						C640.92,803.08,640.43,803.35,639.92,803.35z"/>
				</g>
			</g>
			<g>
				<g>
					<path fill="#222B3F" d="M785.04,750.84c-0.68,0-1.3-0.48-1.43-1.18c-0.15-0.79,0.37-1.55,1.16-1.71l8.8-1.68l34.03-39.17
						c0.53-0.61,1.45-0.67,2.05-0.15c0.61,0.53,0.67,1.45,0.15,2.05l-34.36,39.56c-0.21,0.25-0.51,0.41-0.83,0.48l-9.3,1.78
						C785.22,750.84,785.13,750.84,785.04,750.84z"/>
				</g>
				<g>
					<path fill="#222B3F" d="M828.7,790.15c-0.34,0-0.68-0.12-0.96-0.36c-0.61-0.53-0.67-1.45-0.14-2.05
						c4.78-5.48,10.33-13.17,10.39-13.25c0.16-0.22,0.38-0.39,0.63-0.5l26.61-10.94c0.75-0.3,1.6,0.05,1.9,0.79
						c0.31,0.74-0.05,1.6-0.79,1.9l-26.22,10.78c-1.14,1.56-6.02,8.2-10.31,13.12C829.51,789.98,829.11,790.15,828.7,790.15z"/>
				</g>
			</g>
			<g>
				<g>
					<path fill="#222B3F" d="M847.32,709.51c-0.62,0-1.19-0.4-1.39-1.02c-0.24-0.77,0.18-1.59,0.95-1.83l53.01-16.78
						c0.77-0.25,1.59,0.18,1.83,0.95c0.24,0.77-0.18,1.59-0.95,1.83l-53.01,16.78C847.61,709.49,847.47,709.51,847.32,709.51z"/>
				</g>
				<g>
					<path fill="#222B3F" d="M843.78,727.43c-0.62,0-1.19-0.4-1.39-1.02c-0.24-0.77,0.18-1.59,0.95-1.83l53.01-16.78
						c0.77-0.25,1.59,0.18,1.83,0.95c0.24,0.77-0.18,1.59-0.95,1.83l-53.01,16.78C844.08,727.41,843.93,727.43,843.78,727.43z"/>
				</g>
				<g>
					<path fill="#222B3F" d="M840.25,745.35c-0.62,0-1.19-0.4-1.39-1.02c-0.24-0.77,0.18-1.59,0.95-1.83l53.01-16.78
						c0.77-0.24,1.59,0.18,1.83,0.95c0.24,0.77-0.18,1.59-0.95,1.83l-53.01,16.78C840.54,745.33,840.39,745.35,840.25,745.35z"/>
				</g>
			</g>
		</g>
	</g>
	<g id="head_00000000943385873812662750000010609178197008901802_">
		<g>
			<g>
				<path fill="#FBBDBB" d="M863.17,377.45c-38.36,14.91-22.7,108.62-13.14,121.14c9.57,12.52,63.31-10.43,70.96-17.48
					s9.54-41.87,6.63-63.57C924.72,395.84,907.72,360.13,863.17,377.45z"/>
				<path fill="#314060" d="M922.09,444.85l-3.46-12.97c0,0-16.14-8.48-16.43-24.04c0,0-45.94,36.43-89.46,18.25
					c0,0,4.55-11.37,11.32-16.95c0,0-38.86-19.03-44.07-60.78c-1.92-15.37,40.92-7.33,57.81,7.64c0,0-21.21-36.41-7.45-62.68
					c3.96-7.57,37.29,16.91,52.21,44.46c0,0-1.85-24.49,5.63-35.71c2.54-3.8,21.39,15.07,31.46,49.05c0,0,30.33,8.3,46.95,32.01
					s11.33,63.51-40.3,81.19L922.09,444.85z"/>
				<g>
					<path fill="#222B3F" d="M923.19,483.26c-0.17,0-0.34-0.03-0.51-0.09c-0.75-0.28-1.14-1.12-0.85-1.87l11.9-31.84l-11.12-2.97
						l-18.71,22.45c-0.52,0.62-1.43,0.7-2.05,0.19c-0.62-0.52-0.7-1.43-0.19-2.05l19.31-23.16c0.36-0.44,0.95-0.62,1.49-0.47
						l13.57,3.62c0.4,0.11,0.73,0.37,0.92,0.74c0.19,0.37,0.21,0.79,0.07,1.18l-12.46,33.34
						C924.34,482.9,923.78,483.26,923.19,483.26z"/>
				</g>
				<path fill="#6081C1" d="M926.08,483.54c0,0-14.77,26.48-45.22,29.48c-20.09,1.98-30.09-9.77-34.57-18
					c-2.31-4.24-3.16-7.55-3.16-7.55l1.47-2.68c0,0,4.89,10.49,20.9,9.25c28.63-2.18,36.24-30.23,36.24-30.23l7.51,6.09
					L926.08,483.54z"/>
				<path opacity="0.3" fill="#FFFFFF" d="M909.24,469.89c-6.58,12.39-18.36,28.73-35.13,30.16c-15.36,1.31-23.58-1.94-27.82-5.04
					c-2.31-4.24-3.16-7.55-3.16-7.55l1.47-2.68c0,0,4.89,10.49,20.9,9.25c28.63-2.18,36.24-30.23,36.24-30.23L909.24,469.89z"/>
				<g>
					<path fill="#6081C1" d="M915.5,494.53c-3.64,3.63-8.36,7.5-14.15,10.66c-5.79,3.15-12.66,5.59-20.64,6.38
						c-1.47,0.15-2.89,0.21-4.25,0.21c-2.04,0-3.96-0.16-5.75-0.44c-0.79-0.13-1.54,0.42-1.67,1.21c-0.13,0.79,0.42,1.54,1.21,1.67
						c1.95,0.31,4.01,0.48,6.21,0.48c1.46,0,2.97-0.07,4.53-0.23c8.41-0.83,15.66-3.4,21.74-6.72c6.09-3.31,11.02-7.36,14.82-11.15
						c0.57-0.57,0.57-1.49,0-2.06C916.99,493.97,916.07,493.97,915.5,494.53L915.5,494.53z"/>
				</g>
				<g opacity="0.3">
					<path fill="#FFFFFF" d="M915.5,494.53c-3.64,3.63-8.36,7.5-14.15,10.66c-5.79,3.15-12.66,5.59-20.64,6.38
						c-1.47,0.15-2.89,0.21-4.25,0.21c-2.04,0-3.96-0.16-5.75-0.44c-0.79-0.13-1.54,0.42-1.67,1.21c-0.13,0.79,0.42,1.54,1.21,1.67
						c1.95,0.31,4.01,0.48,6.21,0.48c1.46,0,2.97-0.07,4.53-0.23c8.41-0.83,15.66-3.4,21.74-6.72c6.09-3.31,11.02-7.36,14.82-11.15
						c0.57-0.57,0.57-1.49,0-2.06C916.99,493.97,916.07,493.97,915.5,494.53L915.5,494.53z"/>
				</g>
				<g>
					<path fill="#222B3F" d="M864.13,501.46c-5.58,0-9.27-0.85-9.37-0.88c-0.78-0.19-1.26-0.98-1.07-1.76
						c0.19-0.78,0.98-1.26,1.76-1.07c0.28,0.07,28.29,6.5,46.73-18.07c0.48-0.64,1.4-0.77,2.04-0.29c0.64,0.48,0.77,1.4,0.29,2.04
						C891.73,498.47,874.59,501.46,864.13,501.46z"/>
				</g>
				<g>
					<path fill="#222B3F" d="M870.9,509.37c-1.69,0-2.77-0.08-2.97-0.09c-0.8-0.06-1.4-0.76-1.34-1.57c0.06-0.8,0.76-1.41,1.57-1.34
						c0.25,0.02,24.96,1.76,36.1-14.1c0.46-0.66,1.37-0.82,2.03-0.35c0.66,0.46,0.82,1.37,0.35,2.03
						C896.82,507.93,878.17,509.37,870.9,509.37z"/>
				</g>
				<g>
					<path fill="#FBBDBB" d="M922.09,444.85c0,0,6.82-33.54,27.52-28.61s7.78,46.37-26.32,51.18L922.09,444.85z"/>
					<g>
						<g>
							<path fill="#222B3F" d="M931.37,456.94c-0.09,0.03-0.18,0.05-0.27,0.06c-1.08,0.15-2.08-0.6-2.24-1.68
								c-0.04-0.26-3.4-25.64,17.01-31.82c0.01,0,0.02-0.01,0.03-0.01c1.04-0.3,2.13,0.29,2.44,1.33c0.32,1.05-0.27,2.15-1.32,2.47
								c-17.19,5.21-14.27,27.26-14.24,27.48C932.92,455.75,932.31,456.67,931.37,456.94z"/>
						</g>
						<g>
							<path fill="#222B3F" d="M943.96,449.26c-0.92,0.26-1.92-0.17-2.34-1.06c-0.04-0.08-3.75-7.95-8.48-11.82
								c-0.85-0.69-0.97-1.94-0.28-2.78c0.69-0.84,1.93-0.98,2.78-0.28c5.45,4.45,9.4,12.85,9.57,13.21
								c0.46,0.99,0.03,2.17-0.96,2.63C944.16,449.2,944.06,449.24,943.96,449.26z"/>
						</g>
					</g>
				</g>
			</g>
			<g>
				<g>
					<path fill="#222B3F" d="M868.38,466.73c-0.13,0.04-0.27,0.06-0.41,0.07c-0.37,0.03-9.18,0.56-12.66-6.59
						c-0.37-0.77-0.21-1.68,0.4-2.28c5.33-5.22,8.59-17.48,8.62-17.6c0.28-1.06,1.37-1.69,2.42-1.41c1.06,0.28,1.69,1.36,1.41,2.42
						c-0.13,0.51-3.17,11.93-8.6,18.27c2.69,3.55,8.09,3.26,8.15,3.25c1.09-0.07,2.03,0.76,2.1,1.84
						C869.86,465.64,869.25,466.48,868.38,466.73z"/>
				</g>
				<g>
					<path fill="#222B3F" d="M870.12,473.92c10.97-3.16,19.16-0.65,19.58-0.52c1.04,0.33,1.61,1.44,1.29,2.48
						c-0.32,1.04-1.43,1.62-2.48,1.3c-0.11-0.03-10.99-3.31-23.98,3.17c-0.99,0.51-2.16,0.09-2.66-0.88
						c-0.49-0.98-0.09-2.17,0.89-2.65C865.31,475.53,867.77,474.59,870.12,473.92z"/>
				</g>
				<path fill="#222B3F" d="M882.13,426.24c0,0,0.42-7.99,2.36-9.52c1.94-1.53,2.25,2.27,2.25,2.27s15.72-3.45,17.9,12.38
					C904.64,431.37,897.5,422.8,882.13,426.24z"/>
				<path fill="#222B3F" d="M863.52,426.33c0,0,0.29-8.01-1.04-9.85c-1.33-1.84-1.85,1.9-1.85,1.9s-11.5-5.95-14.33,9.44
					C846.29,427.82,852.28,420.45,863.52,426.33z"/>
				<g>
					
						<ellipse transform="matrix(1 -1.657144e-03 1.657144e-03 1 -0.7318 1.4713)" fill="#222B3F" cx="887.48" cy="442.35" rx="6.12" ry="7.62"/>
					<circle fill="#FFFFFF" cx="889.36" cy="438.85" r="2.11"/>
				</g>
				<g>
					
						<ellipse transform="matrix(1 -1.657144e-03 1.657144e-03 1 -0.7299 1.4179)" fill="#222B3F" cx="855.26" cy="441.18" rx="6.12" ry="7.62"/>
					<circle fill="#FFFFFF" cx="857.14" cy="437.69" r="2.11"/>
				</g>
			</g>
		</g>
	</g>
</g>
<g id="Layer_x5F_Character_1">
	<g id="right_arm">
		<path fill="#6081C1" d="M212.7,644.02c-2.03-50.02-19.22-101.12-19.22-101.12c-41.17-3.26-55.43,22.83-59.09,78.29
			c-3.65,55.29-22.66,282.62-24.55,299.01H216.9C216.9,920.2,214.73,694.04,212.7,644.02z"/>
	</g>
	<g id="left_forearm">
		<g>
			<path fill="#9F5353" d="M629.24,535.74c0,0.24-0.01,0.5-0.03,0.74l-4.14,54.53l-16.24,59.53c0,0,0.36,180.49-7.07,210.94
				c-7.43,30.45-32.8,39.14-44.4,31.17c-11.59-7.97-14.5-116.7-14.5-116.7l27.55-129.03l-6.34-8.48
				c-4.19-5.58-6.18-12.52-5.58-19.47l0.82-9.62c-3.16,0-6.01-1.28-8.08-3.35c-2.06-2.07-3.34-4.92-3.34-8.07v-33.58
				c0-6.3,5.11-11.42,11.42-11.42h35.12c2.61,0,5.17,0.72,7.39,2.09l5.59,3.44l3.02-23.89c0.64-5.02,5.12-8.65,10.17-8.22
				C625.52,526.78,629.24,530.9,629.24,535.74z"/>
			<g>
				<path fill="#222B3F" d="M596.64,566.86h-35.3c-0.8,0-1.46-0.65-1.46-1.46c0-0.8,0.65-1.46,1.46-1.46h35.3
					c0.8,0,1.46,0.65,1.46,1.46C598.1,566.2,597.44,566.86,596.64,566.86z"/>
			</g>
			<g>
				<path fill="#222B3F" d="M592.2,580.87h-30.86c-0.8,0-1.46-0.65-1.46-1.46s0.65-1.46,1.46-1.46h30.86c0.8,0,1.46,0.65,1.46,1.46
					S593,580.87,592.2,580.87z"/>
			</g>
			<g>
				<path fill="#222B3F" d="M587.35,594.89h-26.02c-0.8,0-1.46-0.65-1.46-1.46c0-0.8,0.65-1.46,1.46-1.46h26.02
					c0.8,0,1.46,0.65,1.46,1.46C588.81,594.24,588.16,594.89,587.35,594.89z"/>
			</g>
		</g>
	</g>
	<g id="left_arm">
		<g>
			<path fill="#6081C1" d="M489.24,588.21c-7.97-34.79-22.47-59.44-56.54-55.09c0,0-30.45-0.5-30.45,38.48
				c0,30.44,25.37,174.63,45.68,242.04s59.43,106.7,85.53,106.7c26.1,0,49.53-32.04,49.53-32.04l-41.92-118.88
				C541.07,769.43,497.21,623,489.24,588.21z"/>
			<path fill="#222B3F" d="M536.37,772.87c0,0-13.27,103.36,0.25,147.33h42.33c15.19,0,26.14-14.56,21.91-29.15
				c-8.07-27.88-20.65-69.34-31.04-94.88C553.03,754.93,537.65,761.71,536.37,772.87z"/>
		</g>
	</g>
	<g id="body">
		<g>
			<g>
				<path fill="#6081C1" d="M481.62,920.2l-35.63-187.82c0,0,10.87-49.1,10.87-59.98c0-10.87-21.99-79.47-21.99-79.47l-2.17-59.8
					l-86.46,12.1l-22.27,3.12l-30.69-1.28l-99.79-4.16l11.18,81.96l-5.42,33.21c-3.6,22.07-3.84,44.57-0.71,66.71l4.29,30.35
					L178.27,920.2h56.16h-56.16l0,0H481.62z"/>
				<g>
					<path fill="#6081C1" d="M195.81,558.37c-0.07,0-0.13,0-0.2,0.01c-0.8,0.11-1.36,0.84-1.25,1.64l8.84,64.82l-5.38,32.99
						c-1.94,11.89-2.91,23.89-2.91,35.91c0,10.44,0.73,20.88,2.2,31.24l4.26,30.14l-19.28,129.53c-0.12,0.8,0.43,1.54,1.23,1.66
						c0.07,0.01,0.15,0.02,0.22,0.02c0.71,0,1.33-0.52,1.44-1.24l19.31-129.74c0.02-0.13,0.02-0.28,0-0.42l-4.29-30.35
						c-1.45-10.23-2.17-20.53-2.17-30.84c0-11.85,0.96-23.7,2.87-35.44l5.42-33.21c0.02-0.15,0.03-0.28,0.01-0.43l-8.87-65.04
						C197.15,558.9,196.52,558.37,195.81,558.37"/>
				</g>
				<g opacity="0.3">
					<path fill="#FFFFFF" d="M195.81,558.37c-0.07,0-0.13,0-0.2,0.01c-0.8,0.11-1.36,0.84-1.25,1.64l8.84,64.82l-5.38,32.99
						c-1.94,11.89-2.91,23.89-2.91,35.91c0,10.44,0.73,20.88,2.2,31.24l4.26,30.14l-19.28,129.53c-0.12,0.8,0.43,1.54,1.23,1.66
						c0.07,0.01,0.15,0.02,0.22,0.02c0.71,0,1.33-0.52,1.44-1.24l19.31-129.74c0.02-0.13,0.02-0.28,0-0.42l-4.29-30.35
						c-1.45-10.23-2.17-20.53-2.17-30.84c0-11.85,0.96-23.7,2.87-35.44l5.42-33.21c0.02-0.15,0.03-0.28,0.01-0.43l-8.87-65.04
						C197.15,558.9,196.52,558.37,195.81,558.37"/>
				</g>
				<g>
					<path opacity="0.3" fill="#6081C1" d="M467.93,849.48c-0.69,0-1.3-0.49-1.43-1.19l-21.94-115.65
						c-0.04-0.19-0.03-0.39,0.01-0.59c0.11-0.49,10.84-49.07,10.84-59.67c0-10.52-21.7-78.34-21.92-79.03
						c-0.04-0.13-0.06-0.26-0.07-0.39l-1.82-50.29c-0.03-0.8,0.6-1.48,1.4-1.51c0.8-0.03,1.48,0.6,1.51,1.4l1.81,50.09
						c1.54,4.8,22,68.93,22,79.72c0,10.59-9.86,55.53-10.84,60l21.88,115.35c0.15,0.79-0.37,1.55-1.16,1.7
						C468.11,849.47,468.02,849.48,467.93,849.48z"/>
				</g>
				<g>
					<path opacity="0.3" fill="#6081C1" d="M467.93,849.48c-0.69,0-1.3-0.49-1.43-1.19l-21.94-115.65
						c-0.04-0.19-0.03-0.39,0.01-0.59c0.11-0.49,10.84-49.07,10.84-59.67c0-10.52-21.7-78.34-21.92-79.03
						c-0.04-0.13-0.06-0.26-0.07-0.39l-1.82-50.29c-0.03-0.8,0.6-1.48,1.4-1.51c0.8-0.03,1.48,0.6,1.51,1.4l1.81,50.09
						c1.54,4.8,22,68.93,22,79.72c0,10.59-9.86,55.53-10.84,60l21.88,115.35c0.15,0.79-0.37,1.55-1.16,1.7
						C468.11,849.47,468.02,849.48,467.93,849.48z"/>
				</g>
				<g>
					<path opacity="0.3" fill="#FFFFFF" d="M467.93,849.48c-0.69,0-1.3-0.49-1.43-1.19l-21.94-115.65
						c-0.04-0.19-0.03-0.39,0.01-0.59c0.11-0.49,10.84-49.07,10.84-59.67c0-10.52-21.7-78.34-21.92-79.03
						c-0.04-0.13-0.06-0.26-0.07-0.39l-1.82-50.29c-0.03-0.8,0.6-1.48,1.4-1.51c0.8-0.03,1.48,0.6,1.51,1.4l1.81,50.09
						c1.54,4.8,22,68.93,22,79.72c0,10.59-9.86,55.53-10.84,60l21.88,115.35c0.15,0.79-0.37,1.55-1.16,1.7
						C468.11,849.47,468.02,849.48,467.93,849.48z"/>
				</g>
				<path fill="#6081C1" d="M342.82,872.36c56.09,0.58,69.32-84.07,67.79-164.38l-24.3-21.91l20.16-42.24
					c-9.8-84.8-41.21-121.59-88.3-121.59c-43.74,0-70.92,50.81-73.45,120.5l32.38,46.95l-28.53,21.72
					C257.96,787.72,284.17,871.75,342.82,872.36z"/>
				<g>
					<path opacity="0.3" fill="#FFFFFF" d="M394.58,832.18c-0.18,0-0.37-0.04-0.55-0.11c-0.74-0.31-1.1-1.16-0.79-1.9
						c11.36-27.6,16.87-69.61,15.93-121.53l-23.83-21.48c-0.48-0.43-0.62-1.13-0.34-1.71l19.98-41.86
						c-5.06-43.36-16.07-75.36-32.74-95.1c-0.52-0.61-0.44-1.53,0.17-2.05c0.62-0.52,1.53-0.44,2.05,0.17
						c17.09,20.25,28.35,52.91,33.45,97.06c0.03,0.27-0.01,0.55-0.13,0.79l-19.69,41.25l23.49,21.18c0.3,0.27,0.47,0.65,0.48,1.05
						c0.7,36.69-1.53,87.86-16.14,123.33C395.69,831.84,395.15,832.18,394.58,832.18z"/>
				</g>
				<g>
					<path opacity="0.3" fill="#FFFFFF" d="M292.19,846.04c-0.43,0-0.86-0.19-1.15-0.56c-26.9-34.32-38.74-91.76-43.92-133.89
						c-0.06-0.51,0.15-1.02,0.56-1.34l27.43-20.88l-31.59-45.8c-0.18-0.26-0.27-0.57-0.26-0.88c1.34-37.01,9.82-69.3,23.86-90.93
						c0.44-0.67,1.34-0.87,2.02-0.43c0.67,0.44,0.87,1.34,0.43,2.02c-13.7,21.1-21.99,52.68-23.37,88.97l32.1,46.55
						c0.44,0.64,0.3,1.51-0.32,1.99l-27.87,21.22c5.2,41.69,16.91,98.05,43.22,131.62c0.5,0.63,0.39,1.55-0.25,2.05
						C292.82,845.94,292.5,846.04,292.19,846.04z"/>
				</g>
				<path fill="#FF8D88" d="M303.61,920.2c0.49-16.46,0.67-45.78-2.1-81.91c-3.33-43.14-5.93-162.7-7.41-226.15l9.27-61.95v-0.01
					c9.62-8.82,24.08-12.09,35.06-2.49v0.02l22.75,55.35c7.09,24.32,14.7,56.23,16.44,88.81c2.41,45.21,10.84,183.14,13.62,228.33
					H303.61z"/>
			</g>
			<g>
				<path fill="#9F5353" d="M361.17,603.06c-13.18,28.99-28.5,40.24-28.5,40.24c-24.28-6.88-38.58-31.16-38.58-31.16l9.27-61.95
					v-0.01l-2.86-39.21l-0.82-11.38l35.88,1.54l1.76,28.64l1.1,17.92v0.02L361.17,603.06z"/>
				<path fill="#222B3F" d="M337.33,529.78c-17.18-0.85-29.15-9.94-36.82-18.8l-0.82-11.38l35.88,1.54L337.33,529.78z"/>
			</g>
		</g>
	</g>
	<g id="head">
		<g>
			<g>
				<path fill="#374D6D" d="M292.36,369.12c0,0-3.55-57.15-28.29-62.24c-24.74-5.09-58.75,26.09-61.15,51.26
					c-2.4,25.16,48.65,40.3,48.65,40.3L292.36,369.12z"/>
				<path fill="#374D6D" d="M319.26,335c-51.83,0-56.9,54-56.9,54s-27.54-5.07-36.97,24.28c-9.42,29.36,30.38,85.17,97.07,83
					c66.69-2.17,58.27-42.11,58.27-42.11s34.22-17.38,28.05-51.04c-5.74-31.38-38.42-21.75-38.42-21.75S366.38,335,319.26,335z"/>
				<g>
					<path opacity="0.3" fill="#FFFFFF" d="M243.37,393.09c-0.56,0-1.09-0.32-1.33-0.86c-0.33-0.73,0-1.6,0.73-1.93
						c7.73-3.48,15.19-3.25,18.32-2.94c0.86-6.07,5.19-28.76,23.29-42.78c0.64-0.49,1.55-0.38,2.04,0.26
						c0.49,0.64,0.38,1.55-0.26,2.04c-19.57,15.16-22.33,41.98-22.35,42.25c-0.04,0.41-0.25,0.78-0.57,1.02
						c-0.33,0.25-0.74,0.35-1.14,0.27c-0.09-0.02-9.03-1.57-18.13,2.53C243.77,393.05,243.57,393.09,243.37,393.09z"/>
				</g>
			</g>
			<g>
				<g>
					<path fill="#9F5353" d="M355.13,456.28c0,0,7.25-16.31,21.75-8.34c14.5,7.97-3.81,49.65-28.09,35.88L355.13,456.28z"/>
					<g>
						<g>
							<path fill="#222B3F" d="M356.22,475.68c-0.26,0-0.53-0.07-0.77-0.22c-0.68-0.43-0.89-1.33-0.46-2.01
								c8.78-14.01,18.57-15.47,18.98-15.53c0.79-0.1,1.53,0.45,1.64,1.25c0.11,0.8-0.45,1.53-1.24,1.64
								c-0.14,0.02-8.94,1.48-16.91,14.19C357.18,475.44,356.7,475.68,356.22,475.68z"/>
						</g>
						<g>
							<path fill="#222B3F" d="M367.91,478.85c-0.75,0-1.39-0.58-1.45-1.34l0,0c0-0.05-0.49-5.19-4.46-11.09
								c-0.45-0.67-0.27-1.57,0.39-2.02c0.67-0.45,1.57-0.27,2.02,0.39c4.43,6.58,4.93,12.24,4.95,12.48
								c0.06,0.8-0.53,1.5-1.33,1.57C367.99,478.85,367.95,478.85,367.91,478.85z"/>
						</g>
					</g>
					<g>
						<path fill="#FF8D88" d="M372.42,501.13c0,11.13-5.43,19.85-12.37,19.85c-6.94,0-12.37-8.72-12.37-19.85
							c0-6.43,1.81-12.05,4.68-15.65c2.1-2.63,4.76-4.19,7.69-4.19c0.81,0,1.46,0.65,1.46,1.46s-0.65,1.46-1.46,1.46
							c-1.62,0-3.16,0.78-4.52,2.13c-2.91,2.92-4.94,8.54-4.94,14.81c0,9.19,4.33,16.93,9.46,16.93c5.13,0,9.46-7.75,9.46-16.93
							c0-6.21-1.94-11.94-5.07-14.94c-0.16-0.15-0.27-0.33-0.35-0.51c0.95-0.31,1.86-0.71,2.76-1.17
							C370.35,488.15,372.42,494.31,372.42,501.13z"/>
					</g>
				</g>
				<path fill="#9F5353" d="M293.53,396.12c7.85,27.36-13.09,54.8-19.72,56.38c2.52,23.67,7.86,41.28,26.49,53.8
					c28.03,18.85,56.37,7.99,60.88-32.39c1.99-17.86-0.25-39.73,0-52.9C307.07,424.74,293.53,396.12,293.53,396.12z"/>
			</g>
			<g>
				<g>
					<ellipse fill="#222B3F" cx="306.58" cy="452.85" rx="5.2" ry="6.51"/>
					<circle fill="#FFFFFF" cx="307.58" cy="450.91" r="1.94"/>
					<path fill="#222B3F" d="M294.1,440.49c0,0,7.23-4.88,17.19-3.45c0,0-0.69-5.77-1.87-7.28c-1.18-1.52-1.92,2.61-1.92,2.61
						S295.66,431.07,294.1,440.49z"/>
				</g>
				<g>
					<ellipse fill="#222B3F" cx="342.09" cy="452.85" rx="5.2" ry="6.51"/>
					<circle fill="#FFFFFF" cx="343.02" cy="450.91" r="1.94"/>
					<path fill="#222B3F" d="M352.43,440.03c0,0-6.82-4.84-16.18-3.48c0,0,0.62-5.68,1.72-7.16c1.1-1.49,1.82,2.57,1.82,2.57
						S350.93,430.75,352.43,440.03z"/>
				</g>
				<g>
					<path fill="#222B3F" d="M325.33,468.79c-0.67,0-1.27-0.47-1.42-1.15c-0.17-0.79,0.33-1.56,1.11-1.73
						c2.15-0.47,6.48-2.09,6.12-4.12c-0.46-2.56-5.34-1.82-5.39-1.81c-0.4,0.07-0.81-0.04-1.13-0.28c-0.32-0.25-0.53-0.62-0.56-1.02
						l-0.91-10.06c-0.07-0.8,0.52-1.51,1.32-1.58c0.8-0.06,1.51,0.52,1.58,1.32l0.77,8.6c2.79-0.09,6.54,0.71,7.18,4.33
						c0.94,5.31-7.42,7.27-8.38,7.48C325.53,468.78,325.43,468.79,325.33,468.79z"/>
				</g>
				<g>
					<path fill="#222B3F" d="M323.06,488.74c-11.01,0-16.44-7.56-16.67-7.9c-0.46-0.66-0.3-1.57,0.36-2.03
						c0.66-0.46,1.57-0.3,2.03,0.36c0.22,0.31,5.2,7.12,15.34,6.63c9.93-0.49,11.77-7.86,11.79-7.94c0.18-0.78,0.97-1.27,1.75-1.09
						c0.78,0.18,1.27,0.97,1.09,1.75c-0.02,0.1-2.38,9.59-14.49,10.18C323.85,488.73,323.45,488.74,323.06,488.74z"/>
				</g>
				<g>
					<path fill="#222B3F" d="M292.58,501.38c-0.43,0-0.84-0.19-1.12-0.53l-16.1-19.44c-0.51-0.62-0.43-1.54,0.19-2.05
						c0.62-0.51,1.54-0.43,2.05,0.19l14.03,16.93l4.23-28.1l-25.37-14.27c-0.7-0.39-0.95-1.28-0.56-1.98
						c0.39-0.7,1.28-0.95,1.98-0.56l26.25,14.76c0.53,0.3,0.82,0.89,0.73,1.49l-4.86,32.31c-0.09,0.57-0.5,1.03-1.05,1.19
						C292.85,501.36,292.71,501.38,292.58,501.38z"/>
				</g>
				<g>
					<path fill="#6081C1" d="M362.01,475.74c-1.92,19.52-10.55,40.65-31.12,42.64c-24.69,2.39-42.06-18.78-42.06-18.78l3.7-23.8
						l1.56-10.08c0,0,31.1-10.37,38.18-10.02c7.07,0.34,30.12,8.7,30.12,8.7C362.5,468,362.39,471.84,362.01,475.74z"/>
					<path opacity="0.3" fill="#FFFFFF" d="M362.01,475.74c-6.48-2.77-20.23-8.24-27.92-8.26c-8.69-0.03-33.88,6.32-41.56,8.32
						l1.56-10.08c0,0,31.1-10.37,38.18-10.02c7.07,0.34,30.12,8.7,30.12,8.7C362.5,468,362.39,471.84,362.01,475.74z"/>
					<g>
						<path fill="#222B3F" d="M359.04,475.65c-0.17,0-0.35-0.03-0.52-0.1c-0.19-0.07-18.82-7.14-25.32-6.6
							c-6.75,0.56-34.14,6.6-34.42,6.66c-0.79,0.17-1.56-0.32-1.74-1.11s0.32-1.56,1.11-1.74c1.13-0.25,27.86-6.14,34.8-6.72
							c7.18-0.59,25.81,6.48,26.6,6.78c0.75,0.29,1.13,1.13,0.84,1.88C360.18,475.29,359.62,475.65,359.04,475.65z"/>
					</g>
					<g>
						<path fill="#222B3F" d="M325.79,489.06c-12.83,0-24.5-0.45-25.42-0.48c-0.8-0.03-1.43-0.71-1.4-1.51
							c0.03-0.8,0.7-1.42,1.51-1.4c0.44,0.02,43.89,1.67,56.01-1.35c0.78-0.2,1.57,0.28,1.77,1.06s-0.28,1.57-1.06,1.77
							C351.11,488.67,337.93,489.06,325.79,489.06z"/>
					</g>
					<g>
						<path fill="#222B3F" d="M331.1,510.1c-0.79,0-1.61-0.02-2.46-0.07c-18.09-1.08-30.65-12.82-31.17-13.32
							c-0.58-0.55-0.61-1.47-0.05-2.06c0.55-0.58,1.48-0.61,2.06-0.05c0.12,0.12,12.34,11.51,29.34,12.52
							c16.39,0.98,20.4-8.7,20.56-9.11c0.29-0.75,1.14-1.12,1.88-0.83c0.75,0.29,1.12,1.13,0.84,1.87
							C351.91,499.53,347.67,510.1,331.1,510.1z"/>
					</g>
				</g>
			</g>
			<g>
				<path fill="#9F5353" d="M276.11,456.28c0,0-7.25-16.31-21.75-8.34c-14.5,7.97,3.81,49.65,28.09,35.88L276.11,456.28z"/>
				<g>
					<g>
						<path fill="#222B3F" d="M275.02,475.68c-0.49,0-0.96-0.24-1.24-0.68c-7.99-12.76-16.82-14.18-16.91-14.19
							c-0.79-0.12-1.35-0.85-1.24-1.64c0.11-0.79,0.84-1.35,1.63-1.24c0.41,0.06,10.2,1.52,18.98,15.53
							c0.43,0.68,0.22,1.58-0.46,2.01C275.56,475.61,275.29,475.68,275.02,475.68z"/>
					</g>
					<g>
						<path fill="#222B3F" d="M263.34,478.85c-0.04,0-0.08,0-0.12-0.01c-0.8-0.07-1.4-0.77-1.33-1.57c0.02-0.24,0.52-5.9,4.95-12.48
							c0.45-0.67,1.35-0.84,2.02-0.39c0.67,0.45,0.84,1.35,0.39,2.02c-3.98,5.91-4.46,11.04-4.46,11.09
							C264.72,478.27,264.08,478.85,263.34,478.85z"/>
					</g>
				</g>
				<g>
					<path fill="#FF8D88" d="M283.58,501.13c0,11.13-5.44,19.85-12.38,19.85c-6.93,0-12.37-8.72-12.37-19.85
						c0-6.83,2.07-12.98,5.57-16.63c0.89,0.47,1.81,0.86,2.76,1.17c-0.08,0.18-0.19,0.37-0.35,0.51c-3.13,3-5.07,8.73-5.07,14.94
						c0,9.19,4.33,16.93,9.46,16.93c5.13,0,9.47-7.75,9.47-16.93c0-6.27-2.03-11.89-4.95-14.81c-1.35-1.35-2.89-2.13-4.52-2.13
						c-0.81,0-1.46-0.65-1.46-1.46s0.65-1.46,1.46-1.46c2.92,0,5.58,1.55,7.69,4.19C281.76,489.07,283.58,494.7,283.58,501.13z"/>
				</g>
			</g>
		</g>
	</g>
</g>
<g id="Layer_x5F_Right_Sign">
	<g>
		<circle fill="#222B3F" cx="492.62" cy="410.34" r="66.05"/>
		<polygon fill="#6081C1" points="527.16,375.5 542.33,390.67 483.96,449.04 445.43,410.51 460.6,395.33 483.96,418.69 		"/>
	</g>
</g>
<g id="Layer_x5F_Wrong_Sign">
	<g>
		<circle fill="#222B3F" cx="713.45" cy="410.34" r="66.05"/>
		<polygon fill="#FF8D88" points="728.63,410.34 751.77,433.48 736.59,448.66 713.45,425.52 690.3,448.66 675.13,433.48 
			698.28,410.34 675.13,387.19 690.3,372.01 713.45,395.16 736.59,372.01 751.77,387.19 		"/>
	</g>
</g>
<g id="Layer_x5F_Ground">
	<g>
		<g>
			<path fill="#222B3F" d="M1085.55,921.65h-971.1c-0.8,0-1.46-0.65-1.46-1.46s0.65-1.46,1.46-1.46h971.1c0.8,0,1.46,0.65,1.46,1.46
				S1086.35,921.65,1085.55,921.65z"/>
		</g>
		<g>
			<path fill="#222B3F" d="M954.51,971.16H245.49c-0.8,0-1.46-0.65-1.46-1.46s0.65-1.46,1.46-1.46h709.03c0.8,0,1.46,0.65,1.46,1.46
				S955.32,971.16,954.51,971.16z"/>
		</g>
		<g>
			<path fill="#222B3F" d="M859.72,1020.67H340.28c-0.8,0-1.46-0.65-1.46-1.46s0.65-1.46,1.46-1.46h519.43
				c0.8,0,1.46,0.65,1.46,1.46S860.52,1020.67,859.72,1020.67z"/>
		</g>
	</g>
</g>
</svg>
