<?xml version="1.0" encoding="iso-8859-1"?>
<!-- Generator: Adobe Illustrator 26.0.2, SVG Export Plug-In . SVG Version: 6.00 Build 0)  -->
<svg version="1.1" xmlns="http://www.w3.org/2000/svg" xmlns:xlink="http://www.w3.org/1999/xlink" x="0px" y="0px"
	 viewBox="0 0 1200 1200" enable-background="new 0 0 1200 1200" xml:space="preserve">
<g id="Background_x5F_Simple">
	<g>
		<g>
			<path fill="#EEEEEE" d="M392.62,744.34h0.61c1.96,0,3.54-1.59,3.54-3.54v-12.86c0-1.96-1.59-3.54-3.54-3.54h-0.61
				c-1.96,0-3.54,1.59-3.54,3.54v12.86C389.08,742.75,390.66,744.34,392.62,744.34z"/>
			<path fill="#EEEEEE" d="M383.9,753.67v-0.61c0-1.96-1.59-3.54-3.54-3.54H367.5c-1.96,0-3.54,1.59-3.54,3.54v0.61
				c0,1.96,1.59,3.54,3.54,3.54h12.86C382.31,757.22,383.9,755.63,383.9,753.67z"/>
			<path fill="#EEEEEE" d="M393.23,762.4h-0.61c-1.96,0-3.54,1.59-3.54,3.54v12.86c0,1.96,1.59,3.54,3.54,3.54h0.61
				c1.96,0,3.54-1.59,3.54-3.54v-12.86C396.77,763.98,395.19,762.4,393.23,762.4z"/>
			<path fill="#EEEEEE" d="M401.95,753.06v0.61c0,1.96,1.59,3.54,3.54,3.54h12.86c1.96,0,3.54-1.59,3.54-3.54v-0.61
				c0-1.96-1.59-3.54-3.54-3.54H405.5C403.54,749.52,401.95,751.11,401.95,753.06z"/>
		</g>
		<g>
			<path fill="#EEEEEE" d="M863.88,395.18h0.61c1.96,0,3.54-1.59,3.54-3.54v-12.86c0-1.96-1.59-3.54-3.54-3.54h-0.61
				c-1.96,0-3.54,1.59-3.54,3.54v12.86C860.34,393.59,861.93,395.18,863.88,395.18z"/>
			<path fill="#EEEEEE" d="M855.16,404.51v-0.61c0-1.96-1.59-3.54-3.54-3.54h-12.86c-1.96,0-3.54,1.59-3.54,3.54v0.61
				c0,1.96,1.59,3.54,3.54,3.54h12.86C853.57,408.05,855.16,406.47,855.16,404.51z"/>
			<path fill="#EEEEEE" d="M864.49,413.23h-0.61c-1.96,0-3.54,1.59-3.54,3.54v12.86c0,1.96,1.59,3.54,3.54,3.54h0.61
				c1.96,0,3.54-1.59,3.54-3.54v-12.86C868.04,414.82,866.45,413.23,864.49,413.23z"/>
			<path fill="#EEEEEE" d="M873.22,403.9v0.61c0,1.96,1.59,3.54,3.54,3.54h12.86c1.96,0,3.54-1.59,3.54-3.54v-0.61
				c0-1.96-1.59-3.54-3.54-3.54h-12.86C874.8,400.36,873.22,401.94,873.22,403.9z"/>
		</g>
		<g>
			<path fill="#EEEEEE" d="M346.94,115.88h0.61c1.96,0,3.54-1.59,3.54-3.54V99.48c0-1.96-1.59-3.54-3.54-3.54h-0.61
				c-1.96,0-3.54,1.59-3.54,3.54v12.86C343.4,114.29,344.98,115.88,346.94,115.88z"/>
			<path fill="#EEEEEE" d="M338.21,125.21v-0.61c0-1.96-1.59-3.54-3.54-3.54h-12.86c-1.96,0-3.54,1.59-3.54,3.54v0.61
				c0,1.96,1.59,3.54,3.54,3.54h12.86C336.63,128.75,338.21,127.17,338.21,125.21z"/>
			<path fill="#EEEEEE" d="M347.55,133.93h-0.61c-1.96,0-3.54,1.59-3.54,3.54v12.86c0,1.96,1.59,3.54,3.54,3.54h0.61
				c1.96,0,3.54-1.59,3.54-3.54v-12.86C351.09,135.52,349.5,133.93,347.55,133.93z"/>
			<path fill="#EEEEEE" d="M356.27,124.6v0.61c0,1.96,1.59,3.54,3.54,3.54h12.86c1.96,0,3.54-1.59,3.54-3.54v-0.61
				c0-1.96-1.59-3.54-3.54-3.54h-12.86C357.86,121.06,356.27,122.64,356.27,124.6z"/>
		</g>
		<path fill="#EEEEEE" d="M787.25,651.88c0,8.51,6.89,15.38,15.38,15.38c8.51,0,15.38-6.87,15.38-15.38
			c0-8.49-6.87-15.38-15.38-15.38C794.13,636.5,787.25,643.39,787.25,651.88z M794.31,651.88c0-4.6,3.71-8.31,8.31-8.31
			c4.61,0,8.33,3.71,8.33,8.31c0,4.61-3.71,8.33-8.33,8.33C798.03,660.21,794.31,656.49,794.31,651.88z"/>
		<path fill="#EEEEEE" d="M261.08,548.73c0,8.51,6.89,15.38,15.38,15.38c8.51,0,15.38-6.87,15.38-15.38
			c0-8.49-6.87-15.38-15.38-15.38C267.97,533.36,261.08,540.25,261.08,548.73z M268.15,548.73c0-4.6,3.71-8.31,8.31-8.31
			c4.61,0,8.33,3.71,8.33,8.31c0,4.61-3.71,8.33-8.33,8.33C271.86,557.06,268.15,553.35,268.15,548.73z"/>
		<path fill="#EEEEEE" d="M756.49,167.96c0,8.51,6.89,15.38,15.38,15.38c8.51,0,15.38-6.87,15.38-15.38
			c0-8.49-6.87-15.38-15.38-15.38C763.38,152.58,756.49,159.47,756.49,167.96z M763.56,167.96c0-4.6,3.71-8.31,8.31-8.31
			c4.61,0,8.33,3.71,8.33,8.31c0,4.61-3.71,8.33-8.33,8.33C767.27,176.29,763.56,172.58,763.56,167.96z"/>
	</g>
</g>
<g id="Layer_x5F_Plants">
	<g>
		<path fill="#6081C1" d="M890.03,1023.67c7.18,32.81-104.5,79.88-120.72,86.52c-1.27,0.53-1.95,0.8-1.95,0.8s0.42-2.76,1.29-7.73
			c7.16-40.66,44.79-229.43,132.43-270.79c98.37-46.42-72.94,196.73-72.94,196.73S882.3,988.3,890.03,1023.67z"/>
		<path fill="#FF8D88" d="M841.08,1110.98c0,0,40.4-62.41,82.39-53.31S928.65,1104.76,841.08,1110.98z"/>
		<g>
			<path fill="#6081C1" d="M509.82,1110.98c-0.16-0.08-1.78-0.93-4.52-2.36c0,0-0.02,0-0.02-0.01
				c-18.95-9.9-91.18-47.61-105.24-53.99c-16.21-7.37-51.44-14.98-50.84-44.45c0.5-24.06,41.26-23.33-2.95-51.33
				c-44.21-28-64.84-108.92-9.33-108.81c64.95,0.13,59.06,120.7,76.13,105.12c28-25.54,46.71,4.7,58.46,45.68
				c12.71,44.39,31.53,92.99,36.87,106.5C509.27,1109.57,509.78,1110.85,509.82,1110.98z"/>
			<g opacity="0.3">
				<path fill="#FFFFFF" d="M893.48,872.07c-50.82,68.03-92.59,160.87-112.35,208.5l87.07-47.2c0.74-0.41,1.68-0.13,2.1,0.62
					c0.4,0.75,0.12,1.7-0.62,2.1l-90.43,49.02c-5.29,12.91-8.71,21.85-9.94,25.09c-1.27,0.53-1.95,0.8-1.95,0.8s0.42-2.76,1.29-7.73
					c1.79-4.6,4.42-11.27,7.83-19.56c0.04-0.18,0.1-0.34,0.21-0.5c19.11-46.47,61.9-142.83,114.31-212.98
					c0.51-0.69,1.48-0.83,2.17-0.31C893.85,870.42,894,871.39,893.48,872.07z"/>
				<path fill="#FFFFFF" d="M509.82,1110.98c-0.16-0.08-1.78-0.93-4.52-2.36c0,0-0.02,0-0.02-0.01
					C402.35,1004.59,342.35,895.1,341.76,894c-0.41-0.75-0.13-1.7,0.62-2.1c0.75-0.41,1.7-0.13,2.1,0.62
					c0.61,1.11,60.74,110.85,163.91,214.81C509.27,1109.57,509.78,1110.85,509.82,1110.98z"/>
			</g>
		</g>
		<path fill="#FF8D88" d="M419.7,1110.68c0,0-58.26-75.16-125.9-83.51C226.16,1018.83,290.51,1117.07,419.7,1110.68z"/>
	</g>
</g>
<g id="Layer_x5F_Character_1">
	<g id="back_shirt">
		<path fill="#222B3F" d="M728.8,612.33c0,0-43.33,49.6-146.81,42.45s-132.33-64.14-132.33-64.14l25.03-115.88l210.65,26.8
			L728.8,612.33z"/>
	</g>
	<g id="right_calf">
		<g>
			<g>
				<path fill="#9F5353" d="M522.62,1002.2l1.67,38.39c0,0,8.58,5.72,19.07,0l2.86-41.25L522.62,1002.2z"/>
				<g>
					<path fill="#222B3F" d="M557.67,1074.21c1.03,10.05-0.22,22.54-3.1,36.78l-8.35,0c0,0-3.81-22.47-8.11-32.49
						C533.83,1068.48,553.62,1065.38,557.67,1074.21z"/>
					<path fill="#FF8D88" d="M546.23,1034.86c0,0-9.06,4.53-24.8,0c0,0-25.75,43.39-34.57,51.26c-8.82,7.87-28.13,16.45-34.81,20.03
						c-6.68,3.58,44.35,6.2,56.27,4.05c11.92-2.15,21.94-17.17,31.95-25.27s17.41-10.73,17.41-10.73S555.05,1052.03,546.23,1034.86z
						"/>
				</g>
			</g>
			<g>
				<path fill="#374D6D" d="M562.32,908.14c-4.29,32.9-8.23,95.85-8.23,95.85c-12.52,6.8-39.34,1.79-39.34,1.79l-19.71-188.12
					c0-39.13,59.01-33.82,64.41,0C562.32,843.76,566.61,875.23,562.32,908.14z"/>
				<path opacity="0.3" fill="#FFFFFF" d="M549.27,894.22c-0.47-19.75-6.14-75.17-6.19-75.72c-0.01-0.07-0.01-0.15,0-0.22l0.05-0.62
					h2.51l-0.05,0.7c0.29,2.8,5.73,56.39,6.19,75.81c0.47,19.88-8.22,100.69-8.59,104.12c-0.07,0.64-0.61,1.12-1.24,1.12
					c-0.04,0-0.09,0-0.14-0.01c-0.69-0.07-1.18-0.69-1.11-1.38C540.78,997.17,549.74,913.94,549.27,894.22z"/>
			</g>
		</g>
	</g>
	<g id="right_thigh">
		<g>
			<g>
				<g>
					<path fill="#374D6D" d="M470.4,603.78c2.15,33.61,20.74,176.68,20.74,176.68l3.89,37.19c5.02,22.56,32.19,27.29,49.7,18.56
						c0.89-0.44,1.77-0.92,2.6-1.45c6.28-3.85,10.92-9.64,12.13-17.11c0,0,18.23-108.73,22.53-204.57
						c4.29-95.85-8.58-148.79-45.78-152.36c-37.19-3.57-52.45,28.13-52.45,28.13S468.26,570.17,470.4,603.78z"/>
					<g opacity="0.3">
						<path fill="#FFFFFF" d="M544.74,836.21c0.89-0.44,1.77-0.92,2.6-1.45l13.56-225.05c0.04-0.69-0.47-1.28-1.16-1.34
							c-0.68-0.04-1.29,0.47-1.34,1.16L544.74,836.21z"/>
					</g>
				</g>
			</g>
		</g>
	</g>
	<g id="left_calf">
		<g>
			<g>
				<path fill="#9F5353" d="M684.08,999.79l4.53,41.25c0,0,8.58,5.72,19.07,0l0-44.11L684.08,999.79z"/>
			</g>
			<g>
				<path fill="#222B3F" d="M720.75,1084.48c0,0,0,16.35,0,26.5h-11.05v-28.41L720.75,1084.48z"/>
				<path fill="#FF8D88" d="M684.08,1037.57c0.37-1.11,14.07-6.08,28.81-0.92c0,0,6.75,37.15,7.86,47.83s-11.05,26.95-11.05,26.95
					s-54.28,0-56.86,0s0.37-7.8,14.37-25.05C681.2,1069.13,684.08,1037.57,684.08,1037.57z"/>
			</g>
			<g>
				<path fill="#374D6D" d="M717.9,853.87c3.58,29.33-0.77,145.2-0.77,145.2s-4.55,2.39-21.24,2.39c-16.69,0-23.15-1.66-23.15-1.66
					S649.62,857.64,637.67,816c-4.9-44.55,58.22-55.1,73.75,0C714.04,829.38,716.54,842.71,717.9,853.87z"/>
				<path opacity="0.3" fill="#FFFFFF" d="M694.12,805.65c0.62,0,1.15,0.45,1.24,1.06c3.13,21.53,8.14,58.36,9,80.24
					c1.41,35.84,2.38,104.73,2.38,105.42c0.01,0.69-0.54,1.26-1.23,1.27c-0.01,0-0.01,0-0.02,0c-0.68,0-1.24-0.55-1.25-1.23
					c-0.01-0.69-0.97-69.54-2.38-105.36c-0.86-21.76-5.86-58.51-8.98-79.98C692.77,806.32,693.36,805.65,694.12,805.65
					L694.12,805.65z"/>
			</g>
		</g>
	</g>
	<g id="left_thigh">
		<g>
			<g>
				<path fill="#374D6D" d="M619.54,458.03c51.14-0.28,73.32,72.53,78.32,119.74c5.01,47.21,3.58,160.94,4.29,181.69
					c0.44,12.85,5,34.76,9.26,56.55c5.97,33.97-58.72,44.94-73.75,0c-0.46-1.59-0.9-3.05-1.32-4.33
					c-11.44-35.05-66.88-196.23-66.88-196.23l-6.26-84.17C560.73,497.82,568.4,458.31,619.54,458.03z"/>
				<g opacity="0.3">
					<path fill="#FFFFFF" d="M671.83,534.7c0.11,1.43,10.96,142.37,10.96,169.19c0,27.65,4.52,62.87,6.69,79.8
						c0.57,4.51,1.52,10.84,2.63,18.19c0.65,4.33,1.36,9.08,2.09,14.11l3.34,25.48l2.36-1.33l-3.17-24.15
						c-0.76-5.17-1.49-10.04-2.16-14.48c-1.1-7.32-2.05-13.65-2.62-18.14c-2.16-16.87-6.67-51.99-6.67-79.48
						c0-26.92-10.86-167.96-10.97-169.38c-0.05-0.69-0.67-1.22-1.34-1.15C672.29,533.41,671.77,534.01,671.83,534.7z"/>
				</g>
				<g>
					<g>
						<path fill="#222B3F" d="M570.38,616.28c0.02-0.01,0.03-0.02,0.05-0.04c0.03-0.04,0.07-0.09,0.09-0.13
							C570.49,616.17,570.44,616.23,570.38,616.28z"/>
					</g>
					<g>
						<path fill="#374D6D" d="M547.12,524.9l3.78,67.45c0.35,6.13,3.25,11.9,7.94,15.83l9.77,8.16c0.09,0.09,0.19,0.15,0.3,0.21
							c0.04,0.02,0.1,0.04,0.15,0.07c0.07,0.02,0.13,0.04,0.21,0.05c0.07,0.01,0.14,0.02,0.21,0.02c0.09,0,0.18-0.01,0.26-0.03
							c0.05-0.01,0.1-0.02,0.14-0.04c0.04-0.01,0.1-0.03,0.14-0.05c0.14-0.07,0.26-0.15,0.36-0.27c0.05-0.05,0.11-0.11,0.14-0.18
							c0.04-0.07,0.08-0.13,0.11-0.21c0.02-0.05,0.03-0.11,0.04-0.16c0.03-0.1,0.04-0.2,0.04-0.31v-0.08l-6.26-88.64
							c-0.04-0.69-0.65-1.2-1.34-1.16c-0.69,0.05-1.21,0.65-1.16,1.34l6.05,85.7l-7.56-6.34c-4.18-3.49-6.74-8.61-7.05-14.03
							l-3.78-67.46c-0.03-0.69-0.62-1.21-1.32-1.17C547.61,523.62,547.08,524.21,547.12,524.9z"/>
						<path fill="#222B3F" d="M569.47,616.69h0.09c0.05,0,0.12-0.01,0.18-0.03C569.65,616.67,569.56,616.69,569.47,616.69z"/>
					</g>
				</g>
				<g opacity="0.3">
					<g>
						<path fill="#FFFFFF" d="M570.38,616.28c0.02-0.01,0.03-0.02,0.05-0.04c0.03-0.04,0.07-0.09,0.09-0.13
							C570.49,616.17,570.44,616.23,570.38,616.28z"/>
					</g>
					<g>
						<path fill="#FFFFFF" d="M547.12,524.9l3.78,67.45c0.35,6.13,3.25,11.9,7.94,15.83l9.77,8.16c0.09,0.09,0.19,0.15,0.3,0.21
							c0.04,0.02,0.1,0.04,0.15,0.07c0.07,0.02,0.13,0.04,0.21,0.05c0.07,0.01,0.14,0.02,0.21,0.02c0.09,0,0.18-0.01,0.26-0.03
							c0.05-0.01,0.1-0.02,0.14-0.04c0.04-0.01,0.1-0.03,0.14-0.05c0.14-0.07,0.26-0.15,0.36-0.27c0.05-0.05,0.11-0.11,0.14-0.18
							c0.04-0.07,0.08-0.13,0.11-0.21c0.02-0.05,0.03-0.11,0.04-0.16c0.03-0.1,0.04-0.2,0.04-0.31v-0.08l-6.26-88.64
							c-0.04-0.69-0.65-1.2-1.34-1.16c-0.69,0.05-1.21,0.65-1.16,1.34l6.05,85.7l-7.56-6.34c-4.18-3.49-6.74-8.61-7.05-14.03
							l-3.78-67.46c-0.03-0.69-0.62-1.21-1.32-1.17C547.61,523.62,547.08,524.21,547.12,524.9z"/>
						<path fill="#FFFFFF" d="M569.47,616.69h0.09c0.05,0,0.12-0.01,0.18-0.03C569.65,616.67,569.56,616.69,569.47,616.69z"/>
					</g>
				</g>
			</g>
		</g>
	</g>
	<g id="hair">
		<g>
			<path fill="#374D6D" d="M597.36,90.71c0,0,3.73-22.08,18.1-31.08s30,3.79,38.4,22.68c8.4,18.89-0.79,40.21-28.49,28.63
				C603.61,101.84,597.36,90.71,597.36,90.71z"/>
			<path fill="#374D6D" d="M601.55,89.72c0,0,29.42,5.48,34.11,29.15s-29.36,54.29-54.99,48.33c-25.63-5.96-26.38-26.21-26.38-26.21
				s-19.43,4.43-25.68-13.65c-6.25-18.09,2.05-24.36,12.35-25.64c0,0-10.92-21.46,9.33-30.3C570.54,62.57,590.01,68.65,601.55,89.72
				z"/>
			<g opacity="0.3">
				<path fill="#FFFFFF" d="M632.3,111.07c0.21,0,0.42-0.05,0.62-0.16c0.6-0.34,0.81-1.1,0.47-1.71
					c-9.33-16.43-31.43-20.68-31.65-20.72c-0.67-0.1-1.31,0.36-1.42,1.03c-0.11,0.67,0.33,1.31,1.01,1.44
					c0.21,0.04,21.16,4.11,29.89,19.48C631.45,110.84,631.87,111.07,632.3,111.07z"/>
			</g>
		</g>
	</g>
	<g id="right_arm">
		<g>
			<path fill="#6081C1" d="M489.48,250.5c-11.39,25.19-32.61,76.02-57.39,148.28l9.44,11.37c0,0,29.92,15.85,41.65,12.42
				c11.73-3.44,57.64-101.27,70.33-156.64c8.01-34.95-9.69-43.22-29.39-42.09C511.67,224.55,497.3,233.21,489.48,250.5z"/>
			<path fill="#222B3F" d="M428.7,390.41c0,0,29.71-12.38,55.87,9.2c19.29,15.91,15.03,34.54,15.03,34.54l-17.36,14.73
				c0,0-25.8,0.09-45.78-11.28c-19.98-11.38-26.83-26.93-26.83-26.93L428.7,390.41z"/>
		</g>
	</g>
	<g id="right_forearm">
		<g>
			<path fill="#9F5353" d="M432.56,386.01l-45.91-11.35c-9.68-2.06-20.88,12.07-1.36,23.9c0,0,52.72,39.84,71.19,40.12
				C474.95,438.94,459.46,394.91,432.56,386.01z"/>
		</g>
	</g>
	<g id="body">
		<g>
			<g>
				<g>
					<path fill="#FF8D88" d="M475.42,486.92c0,0,11.45,16.46,74.86,28.61c63.42,12.16,133.28-10.02,135.43-10.02
						c2.15,0-51.5-265.37-51.5-265.37l-52.22-45.42l-72.73,55.25l-3.09,65.29L475.42,486.92z"/>
					<g opacity="0.3">
						<path fill="#FFFFFF" d="M615.11,503.07c23.43,0,39.56-1.51,39.96-1.55c0.69-0.07,1.19-0.68,1.12-1.37
							c-0.07-0.69-0.68-1.19-1.37-1.12c-1.02,0.1-102.96,9.63-168.17-19.92c-0.63-0.28-1.37-0.01-1.66,0.62
							c-0.29,0.63-0.01,1.37,0.62,1.66C525.55,499.48,579,503.07,615.11,503.07z"/>
					</g>
				</g>
				<path fill="#6081C1" d="M581.99,403.95c6.21,108.24,47.21,197.42,47.21,197.42c40.54,22.89,99.6,10.96,99.6,10.96
					s-38.57-155.45-48.1-218.39C671.17,330.99,663.88,238,663.88,238s-39.51-34.65-67.64-45.29c1.29,13.36,6.04,68.67,1.26,108.24
					C592.01,346.24,581.99,403.95,581.99,403.95z"/>
				<g>
					<path fill="#6081C1" d="M504.38,582.41c0,0-0.12-64.97,2.27-113.13c2.38-48.16,10.01-80.59,10.01-80.59
						s27.18-113.5,33.61-137.34c6.45-23.83,19.2-58.64,19.2-58.64s-26.58,9.51-60.8,36.19v12.68c0,0-15.02,50.07-15.73,59.01
						c-0.71,8.95,6.8,40.06,6.8,40.06s-45.06,174.17-50.07,249.99C449.66,590.64,476.49,589.21,504.38,582.41z"/>
				</g>
				<g opacity="0.3">
					<g>
						<path fill="#FFFFFF" d="M487.13,392.74c0.49,0,0.93-0.33,1.04-0.83c7.15-29.93,12.54-50.8,12.6-51c0.04-0.17,0.05-0.35,0-0.52
							c-0.07-0.31-7.46-31.05-6.77-39.72c0.7-8.72,15.54-58.28,15.69-58.78c0.17-0.57-0.15-1.17-0.72-1.34
							c-0.57-0.17-1.17,0.15-1.34,0.72c-0.61,2.05-15.06,50.28-15.77,59.23c-0.69,8.68,5.99,36.9,6.76,40.14
							c-0.64,2.5-5.82,22.64-12.54,50.78c-0.14,0.58,0.22,1.16,0.8,1.29C486.97,392.73,487.05,392.74,487.13,392.74z"/>
					</g>
				</g>
				<g>
					<path fill="#6081C1" d="M587.24,183.4c14.41,2.26,26.94,34.33,32.31,62.71l-16.15,14.78l16.15,28.61
						c0,0-24.2,60.56-37.55,114.45c0,0,6.2-87.74,10.49-136.14c-0.83-49.71-23.72-51.52-42.2-4.77
						c-17.88,51.74-33.62,125.65-33.62,125.65s-1.91-73.91,1.91-113.73l23.84-18.36l-7.15-18.6
						C535.26,238,559.82,179.1,587.24,183.4z"/>
					<g opacity="0.3">
						<path fill="#FFFFFF" d="M516.94,373.12c0.01,0,0.03,0,0.04,0c0.59-0.02,1.06-0.52,1.03-1.12c-0.02-0.57-2.12-57.21,1.58-96.48
							l23.47-18.07c0.38-0.29,0.52-0.79,0.35-1.24l-7-18.19c1.24-2.87,9.19-20.82,20.37-35.14c0.37-0.47,0.28-1.14-0.19-1.51
							c-0.47-0.36-1.14-0.28-1.51,0.19c-12.31,15.76-20.74,35.83-20.83,36.03c-0.11,0.26-0.11,0.54-0.01,0.8l6.87,17.85
							l-23.21,17.87c-0.24,0.18-0.39,0.45-0.41,0.75c-3.78,39.43-1.65,96.66-1.63,97.23C515.89,372.67,516.36,373.12,516.94,373.12z
							"/>
					</g>
					<g opacity="0.3">
						<path fill="#FFFFFF" d="M587.5,384.43c0.47,0,0.9-0.31,1.03-0.78c13.4-47.02,31.83-93.29,32.01-93.75
							c0.12-0.3,0.1-0.64-0.06-0.93l-15.73-27.87l15.52-14.21c0.27-0.25,0.4-0.63,0.33-0.99c-3.36-17.77-8.97-34.68-15.38-46.4
							c-0.28-0.52-0.94-0.71-1.46-0.43c-0.52,0.29-0.71,0.94-0.43,1.46c6.24,11.4,11.71,27.84,15.04,45.18l-15.71,14.38
							c-0.37,0.34-0.46,0.89-0.21,1.32l15.9,28.16c-2,5.05-19.2,48.93-31.89,93.48c-0.16,0.57,0.17,1.17,0.74,1.33
							C587.3,384.42,587.4,384.43,587.5,384.43z"/>
					</g>
				</g>
			</g>
			<g>
				<path fill="#9F5353" d="M550.29,263.03c3.58,13.1,13.82,18.83,13.82,18.83c15.25-1.17,28.38-14.05,28.38-14.05v-50.33
					c0.17-13.71,3.35-46.69,4.55-58.71c0.29-2.8,0.46-4.46,0.46-4.46l-23.6,5.04c0,0-0.51,11.13-1.49,23.52
					c-0.94,11.79-2.37,24.75-4.23,30.33C564.34,224.64,550.29,263.03,550.29,263.03z"/>
				<path fill="#222B3F" d="M572.41,182.86c13.59-4.21,20.86-15.19,24.63-24.09c0.29-2.8,0.46-4.46,0.46-4.46l-23.6,5.04
					C573.89,159.34,573.38,170.47,572.41,182.86z"/>
			</g>
		</g>
	</g>
	<g id="head">
		<g>
			<g>
				<path fill="#9F5353" d="M551.52,118.58c0,0-4.72,19.02,1.45,39.77s23.22,17.65,37.45,5.31c14.23-12.33,16.75-39.29,16.75-39.29
					s0.85-22.84-15.97-27.72C574.39,91.78,556.69,100.35,551.52,118.58z"/>
				<path fill="#374D6D" d="M591.27,103.78c0,0-16.3,24.48-47.22,21.93c0,0,7.8-44.28,45.74-36.3c37.94,7.98,31.04,38.8,15.02,48.52
					C604.81,137.93,591.64,129.8,591.27,103.78z"/>
				<g>
					<g>
						<path fill="#9F5353" d="M596.41,150.25l4.29-14.18c0,0,6-10.47,15.67-8.1C626.04,130.34,624.87,155.66,596.41,150.25z"/>
						<g>
							<path fill="#222B3F" d="M600.29,145.53c0.4,0,0.8-0.19,1.04-0.56c5.29-7.9,14.34-9.94,14.43-9.96
								c0.68-0.15,1.1-0.81,0.96-1.49c-0.15-0.68-0.81-1.11-1.49-0.96c-0.41,0.09-10.13,2.28-15.98,11.02
								c-0.38,0.57-0.23,1.35,0.34,1.74C599.81,145.46,600.06,145.53,600.29,145.53z"/>
						</g>
						<g>
							<path fill="#222B3F" d="M611.14,145.63c0.04,0,0.08,0,0.12-0.01c0.69-0.06,1.19-0.67,1.13-1.36
								c-0.02-0.17-0.39-4.11-2.48-8.28c-0.31-0.62-1.06-0.87-1.68-0.56c-0.62,0.31-0.87,1.06-0.56,1.68
								c1.87,3.73,2.23,7.35,2.23,7.39C609.95,145.14,610.5,145.63,611.14,145.63z"/>
						</g>
					</g>
					<g>
						<path fill="#FF8D88" d="M609.91,170.95c0.59,0,1.16-0.09,1.72-0.27c2.21-0.72,3.79-2.75,4.46-5.73
							c0.61-2.74,0.37-6.02-0.67-9.23c-0.8-2.47-2.02-4.71-3.52-6.47c-0.45-0.53-1.24-0.59-1.77-0.14
							c-0.53,0.45-0.59,1.24-0.14,1.76c1.29,1.51,2.34,3.46,3.05,5.62c0.91,2.79,1.12,5.6,0.61,7.91c-0.46,2.08-1.45,3.46-2.79,3.89
							c-1.33,0.43-2.95-0.1-4.54-1.51c-1.78-1.57-3.25-3.97-4.16-6.75c-0.91-2.79-1.12-5.6-0.61-7.91c0.46-2.08,1.45-3.46,2.79-3.89
							c0.66-0.21,1.02-0.92,0.8-1.58c-0.21-0.66-0.91-1.02-1.58-0.8c-2.21,0.72-3.79,2.75-4.46,5.73c-0.61,2.74-0.37,6.02,0.67,9.23
							c1.04,3.21,2.78,6,4.88,7.86C606.37,170.17,608.18,170.95,609.91,170.95z"/>
					</g>
				</g>
			</g>
			<g>
				<path fill="#222B3F" d="M589.84,125.84c0,0-4.25-8.65-10.81-5.37c0,0-0.17-1.96-1.89-2.01c-1.71-0.05-1.9,5.32-1.9,5.32
					S583.11,123.15,589.84,125.84z"/>
				<path fill="#222B3F" d="M552.98,129.85c0,0,0.55-8.79,5.62-6.34c0,0,0.13-1.62,1.24-1.8c1.91-0.31,2.28,4.74,2.28,4.74
					S556.65,126.53,552.98,129.85z"/>
				<g>
					
						<ellipse transform="matrix(0.9996 -0.0285 0.0285 0.9996 -3.7686 16.6065)" fill="#222B3F" cx="580.53" cy="140.47" rx="3.62" ry="4.47"/>
					<circle fill="#FFFFFF" cx="579.69" cy="138.91" r="0.96"/>
				</g>
				<g>
					
						<ellipse transform="matrix(0.9996 -0.0285 0.0285 0.9996 -3.7945 15.9994)" fill="#222B3F" cx="559.23" cy="141.08" rx="3.62" ry="4.47"/>
					<circle fill="#FFFFFF" cx="558.39" cy="139.52" r="0.96"/>
				</g>
				<g>
					<path fill="#222B3F" d="M568.33,151.53c0.9,0,1.74-0.14,2.37-0.31c0.67-0.19,1.05-0.88,0.87-1.54
						c-0.19-0.67-0.88-1.05-1.54-0.87c-0.15,0.04-3.8,1.01-4.83-1.39c-0.23-0.54-0.1-0.74-0.05-0.81c0.45-0.71,2.44-1.15,3.7-1.2
						c0.68-0.03,1.22-0.59,1.21-1.28l-0.18-8.75c-0.01-0.69-0.6-1.23-1.28-1.23c-0.69,0.01-1.24,0.59-1.23,1.28l0.16,7.58
						c-1.41,0.2-3.55,0.75-4.5,2.24c-0.4,0.63-0.75,1.69-0.14,3.14C563.94,150.85,566.3,151.53,568.33,151.53z"/>
				</g>
				<g>
					<path fill="#222B3F" d="M571.22,161.27c3.34,0,8.51-1.07,13.43-6.45c0.47-0.51,0.43-1.3-0.08-1.77
						c-0.51-0.47-1.3-0.43-1.77,0.08c-6.87,7.53-14.13,5.38-14.44,5.29c-0.66-0.2-1.36,0.16-1.57,0.82
						c-0.21,0.66,0.15,1.36,0.81,1.57C567.74,160.85,569.12,161.27,571.22,161.27z"/>
				</g>
			</g>
		</g>
	</g>
	<g id="world">
		<g>
			<path fill="#374D6D" d="M601,315.73c0,64.12-51.98,116.11-116.11,116.11c-6.32,0-12.52-0.5-18.56-1.48
				c-4.46-0.71-8.84-1.69-13.11-2.89c-0.01-0.01-0.01-0.01-0.01-0.01c-48.73-13.78-84.43-58.59-84.43-111.73
				c0-32.72,13.53-62.28,35.3-83.38c14.16-13.74,31.81-23.89,51.5-29.01c9.36-2.44,19.19-3.73,29.31-3.73
				c16.68,0,32.53,3.51,46.86,9.85c24.22,10.7,44.09,29.43,56.24,52.82C596.31,278.28,601,296.46,601,315.73z"/>
			<path fill="#6081C1" d="M431.83,270.89l-9.98-3.91l-0.88-11.71l-13.01-8.24l-3.89-14.68c14.16-13.74,31.81-23.89,51.5-29.01
				c2.28,5.73,5.31,13.54,5.31,14.62c0,1.73-10.41,19.95-10.41,19.95l4.77,6.94c0,0-2.6,9.11-5.2,11.71
				c-2.61,2.61-10.41,4.77-10.41,4.77L431.83,270.89z"/>
			<path fill="#6081C1" d="M574.97,272.62c0,0,6.07,16.91,4.77,21.69c-1.31,4.77-11.72,15.18-11.28,17.35
				c0.43,2.17,2.6,9.11,2.6,9.11s-2.6,20.39-4.77,21.26c-2.16,0.87-10.84-0.44-10.84-0.44l-2.6-9.98c0,0-5.2-1.73-8.24-3.03
				c-3.04-1.31-7.8-16.05-7.8-16.05l-11.28,3.2c0,0-2.17,1.13-3.91,4.17c-1.73,3.04-11.27,8.24-11.27,8.24s5.63,31.66,2.6,39.48
				c-3.04,7.8-41.21,43.81-41.21,45.11c0,1.31,0.87,9.55,0.87,11.28c0,0.96-3.31,3.91-6.28,6.35c-4.46-0.71-8.84-1.69-13.11-2.89
				c-0.01-0.01-0.01-0.01-0.01-0.01c-0.33-0.09,5.08-17.33,4.65-18.63c-0.43-1.31-3.91-13.02-3.91-16.05
				c0-3.03,7.81-26.02,6.08-27.33c-1.73-1.3-26.9-10.41-28.19-10.84c-1.31-0.43-3.91-9.11-3.91-10.84c0-1.73,21.69-34.7,26.46-36.44
				c4.77-1.73,24.29,13.88,24.29,13.88s-3.9-15.62-3.9-17.35c0-1.73,5.63-11.72,5.63-11.72L470,285.2c0,0-8.68-5.2-8.68-9.98
				s24.73-19.09,27.33-19.52c2.6-0.43,11.72,2.61,11.72,2.61s1.3-3.04,3.47-7.37c2.16-4.34,26.02-18.66,26.02-18.66
				s-4.34-10.41-3.03-14.31c0.54-1.62,2.64-5.05,4.92-8.51c24.22,10.7,44.09,29.43,56.24,52.82L574.97,272.62z"/>
			<g>
				<path fill="#6081C1" d="M535.68,212.43c22.04,10.85,40.09,28.55,51.4,50.32c8.24,15.86,12.89,33.87,12.89,52.97
					c0,31.78-12.88,60.54-33.7,81.37c-20.83,20.83-49.59,33.71-81.37,33.71c-1.69,0-3.37-0.04-5.05-0.11
					c-0.57-0.02-1.05,0.42-1.08,0.99c-0.02,0.57,0.42,1.05,0.99,1.08c1.7,0.07,3.42,0.11,5.14,0.11
					c64.7,0,117.14-52.45,117.14-117.14c0-19.44-4.73-37.78-13.12-53.93c-11.51-22.16-29.88-40.17-52.32-51.22
					c-0.51-0.25-1.13-0.04-1.38,0.47C534.95,211.56,535.16,212.18,535.68,212.43L535.68,212.43z"/>
			</g>
			<g opacity="0.3">
				<path fill="#FFFFFF" d="M535.68,212.43c22.04,10.85,40.09,28.55,51.4,50.32c8.24,15.86,12.89,33.87,12.89,52.97
					c0,31.78-12.88,60.54-33.7,81.37c-20.83,20.83-49.59,33.71-81.37,33.71c-1.69,0-3.37-0.04-5.05-0.11
					c-0.57-0.02-1.05,0.42-1.08,0.99c-0.02,0.57,0.42,1.05,0.99,1.08c1.7,0.07,3.42,0.11,5.14,0.11
					c64.7,0,117.14-52.45,117.14-117.14c0-19.44-4.73-37.78-13.12-53.93c-11.51-22.16-29.88-40.17-52.32-51.22
					c-0.51-0.25-1.13-0.04-1.38,0.47C534.95,211.56,535.16,212.18,535.68,212.43L535.68,212.43z"/>
			</g>
		</g>
	</g>
	<g id="right_hand">
		<g>
			<path fill="#9F5353" d="M374.7,355.2c-12.41,1.29-19.92,10.74-12.84,15.96c0,0-1.16,6.48,5.39,10.88c0,0-1.76,5.88,7.76,10.12
				c0,0,0.37,6.02,6.75,7.83c6.38,1.81,14.1-3.66,17.34-6.94c3.24-3.28,0.06-9.99-4.44-8.97c0,0,4.1-1.5,2.68-5.85
				c-1.42-4.35-6.74-3.85-6.74-3.85s3.54-3.69,1.98-7.28c-1.55-3.59-6.57-3.36-6.57-3.36S393.62,353.24,374.7,355.2z"/>
			<g>
				<path fill="#2E374F" d="M364.02,370.8c-0.41,0-0.8-0.21-1.02-0.59c-0.33-0.57-0.14-1.29,0.43-1.62
					c9.09-5.29,19.68-5.91,20.13-5.93c0.63-0.04,1.21,0.47,1.24,1.12c0.03,0.65-0.47,1.21-1.12,1.25
					c-0.1,0.01-10.48,0.62-19.07,5.61C364.42,370.75,364.22,370.8,364.02,370.8z"/>
			</g>
			<g>
				<path fill="#2E374F" d="M369.47,382.19c-0.4,0-0.8-0.21-1.02-0.58c-0.33-0.56-0.15-1.29,0.42-1.62c10.16-6,18.9-6.32,19.27-6.33
					c0.69-0.02,1.2,0.5,1.22,1.15c0.02,0.65-0.49,1.2-1.15,1.22c-0.08,0-8.53,0.33-18.14,6
					C369.88,382.14,369.67,382.19,369.47,382.19z"/>
			</g>
			<g>
				<path fill="#2E374F" d="M377.18,391.43c-0.39,0-0.78-0.2-1-0.56c-0.35-0.55-0.18-1.28,0.38-1.63
					c6.75-4.21,15.77-5.95,16.15-6.02c0.64-0.12,1.26,0.3,1.38,0.94c0.12,0.64-0.3,1.26-0.94,1.38c-0.09,0.02-8.97,1.73-15.34,5.7
					C377.61,391.37,377.39,391.43,377.18,391.43z"/>
			</g>
		</g>
	</g>
	<g id="stethoscope">
		<g>
			<g>
				<path fill="#222B3F" d="M603.95,140.99v38.86c0,14.55-11.8,26.35-26.35,26.35h0c-14.55,0-26.35-11.8-26.35-26.35V151.2
					l2.05,8.29v20.36c0,6.71,2.72,12.78,7.12,17.18c4.4,4.4,10.47,7.12,17.18,7.12h0c6.71,0,12.78-2.72,17.18-7.12
					c4.4-4.4,7.12-10.47,7.12-17.18v-38.12L603.95,140.99L603.95,140.99z"/>
				<path fill="#222B3F" d="M578.63,205.18v194.78c0,8.16-6.61,14.77-14.77,14.77l0,0c-8.16,0-14.77-6.61-14.77-14.77v-65.27h2.05
					v65.27c0,3.52,1.42,6.69,3.73,9c2.31,2.3,5.48,3.73,9,3.73l0,0c3.52,0,6.69-1.42,9-3.73c2.3-2.31,3.73-5.48,3.73-9V205.18
					H578.63L578.63,205.18z"/>
			</g>
			<g>
				<g>
					<path fill="#222B3F" d="M527.39,336.92c0,8.58,4.58,15.54,10.23,15.54c0.08,0,0.16,0,0.24-0.01v0.01h2.41v-0.54
						c4.37-1.77,7.58-7.82,7.58-15.01c0-7.19-3.22-13.24-7.58-15.01v-0.53h-2.41v0.01c-0.08-0.01-0.16-0.01-0.24-0.01
						C531.97,321.39,527.39,328.34,527.39,336.92z"/>
					<ellipse fill="#6081C1" cx="539.87" cy="336.93" rx="10.23" ry="15.54"/>
					<g>
						<path fill="#6081C1" d="M550.1,337.96c-0.57,0-1.03-0.46-1.03-1.03c0-8-4.13-14.51-9.2-14.51c-0.57,0-1.03-0.46-1.03-1.03
							s0.46-1.03,1.03-1.03c6.21,0,11.27,7.43,11.27,16.57C551.14,337.5,550.68,337.96,550.1,337.96z"/>
					</g>
					<g opacity="0.3">
						<path fill="#FFFFFF" d="M550.1,337.96c-0.57,0-1.03-0.46-1.03-1.03c0-8-4.13-14.51-9.2-14.51c-0.57,0-1.03-0.46-1.03-1.03
							s0.46-1.03,1.03-1.03c6.21,0,11.27,7.43,11.27,16.57C551.14,337.5,550.68,337.96,550.1,337.96z"/>
					</g>
				</g>
				<path fill="#222B3F" d="M535.5,336.92c0,5.77,3.08,10.45,6.88,10.45h7.73v-20.89h-7.73C538.58,326.48,535.5,331.16,535.5,336.92
					z"/>
				<ellipse fill="#6081C1" cx="550.36" cy="336.93" rx="6.88" ry="10.44"/>
				<g>
					<path fill="#6081C1" d="M557.24,337.96c-0.57,0-1.03-0.46-1.03-1.03c0-5.1-2.68-9.41-5.84-9.41h-7.98
						c-0.57,0-1.03-0.46-1.03-1.03s0.46-1.03,1.03-1.03h7.98c4.44,0,7.91,5.04,7.91,11.48C558.27,337.5,557.81,337.96,557.24,337.96
						z"/>
				</g>
				<g opacity="0.3">
					<path fill="#FFFFFF" d="M557.24,337.96c-0.57,0-1.03-0.46-1.03-1.03c0-5.1-2.68-9.41-5.84-9.41h-7.98
						c-0.57,0-1.03-0.46-1.03-1.03s0.46-1.03,1.03-1.03h7.98c4.44,0,7.91,5.04,7.91,11.48C558.27,337.5,557.81,337.96,557.24,337.96
						z"/>
				</g>
			</g>
		</g>
	</g>
	<g id="left_arm">
		<g>
			<g>
				<path fill="#6081C1" d="M663.88,238c0,0,6.92,3.11,15.41,32.79c8.49,29.67,25.35,119.66,25.35,119.66l-4.52,59.68
					c0,0-21.85,9.14-33.28-0.49c-11.43-9.62-40.35-95.17-47.47-133.98C611.41,272.27,643.3,241.57,663.88,238z"/>
				<g opacity="0.3">
					<path fill="#FFFFFF" d="M678.41,455.04c10.54,0.84,21.48-3.65,22.12-3.92c0.55-0.23,0.81-0.86,0.58-1.41
						c-0.23-0.55-0.86-0.81-1.41-0.58c-0.21,0.09-21.38,8.77-32.17-0.32c-10.87-9.15-38.7-90.33-46.68-131.11
						c-0.11-0.58-0.68-0.97-1.26-0.85c-0.58,0.11-0.96,0.68-0.85,1.26c7.34,37.51,35.55,122.36,47.41,132.34
						C669.64,453.4,673.99,454.69,678.41,455.04z"/>
				</g>
			</g>
			<path fill="#222B3F" d="M694.53,380.48c35.2,1.93,40.73,44.96,18.36,73.51c-22.37,28.55-71.21,3.05-69.49-30.33
				C645.12,390.28,664.43,378.82,694.53,380.48z"/>
		</g>
	</g>
	<g id="left_forearm">
		<g>
			<g>
				<g>
					<path fill="#9F5353" d="M557.05,338.01c0,0-7.43-0.26-9.2,4.09c-1.68,4.14,2.88,5.47,3.34,5.6c-0.44,0.02-4.63,0.25-6.91,4.31
						c-2.41,4.29,3.76,6.37,3.76,6.37s-9.7,0.72-7.65,7.06c2.04,6.34,8.8-0.24,17.42,9.51c8.62,9.74-2.94,18.39,12.33,24.22
						c2.77,1.55,5.74,3.14,8.75,4.69l-0.01,0.03c23.95,12.21,87.47,46.96,87.47,46.96s28.33,6,34.24-25.07
						c5.91-31.07-24.52-30.93-24.52-30.93l-84.99-19.3c0,0,3.34-16.87-1.21-31.35c-4.56-14.49-31.42-15.32-34.35-12.35
						C552.58,334.81,557.05,338.01,557.05,338.01z"/>
				</g>
				<g>
					<path fill="#222B3F" d="M559.73,339.83c0.11,0.04,0.23,0.06,0.35,0.07c9.57,0.49,19.36,6.06,19.46,6.12
						c0.6,0.34,1.36,0.14,1.71-0.46c0.34-0.6,0.14-1.36-0.46-1.71c-0.42-0.24-10.4-5.93-20.58-6.45c-0.69-0.04-1.28,0.5-1.31,1.19
						C558.87,339.15,559.22,339.65,559.73,339.83z"/>
				</g>
				<g>
					<path fill="#222B3F" d="M554.67,350.34c0.11,0.04,0.23,0.06,0.35,0.07c9.58,0.49,18.38,5.18,18.47,5.23
						c0.62,0.33,1.37,0.1,1.7-0.51c0.33-0.61,0.1-1.37-0.51-1.7c-0.38-0.21-9.37-5.01-19.53-5.52c-0.69-0.04-1.28,0.5-1.31,1.19
						C553.81,349.66,554.16,350.16,554.67,350.34z"/>
				</g>
				<g>
					<path fill="#222B3F" d="M549.84,360.6c0.11,0.04,0.23,0.06,0.35,0.07c9.58,0.49,17.27,4.96,17.34,5.01
						c0.59,0.35,1.36,0.15,1.71-0.44c0.35-0.6,0.15-1.36-0.44-1.71c-0.33-0.2-8.3-4.84-18.49-5.35c-0.69-0.04-1.28,0.5-1.31,1.19
						C548.98,359.92,549.33,360.42,549.84,360.6z"/>
				</g>
			</g>
		</g>
	</g>
</g>
<g id="Layer_x5F_Ground">
	<g>
		<g>
			<path fill="#222B3F" d="M890.95,1112.98H260.73c-0.86,0-1.55-0.69-1.55-1.55s0.69-1.55,1.55-1.55h630.22
				c0.86,0,1.55,0.69,1.55,1.55S891.81,1112.98,890.95,1112.98z"/>
		</g>
		<g>
			<path fill="#222B3F" d="M792.43,1143.32H423.32c-0.86,0-1.55-0.69-1.55-1.55s0.69-1.55,1.55-1.55h369.11
				c0.86,0,1.55,0.69,1.55,1.55S793.28,1143.32,792.43,1143.32z"/>
		</g>
		<g>
			<path fill="#222B3F" d="M399.74,1143.32h-40.49c-0.86,0-1.55-0.69-1.55-1.55s0.69-1.55,1.55-1.55h40.49
				c0.86,0,1.55,0.69,1.55,1.55S400.6,1143.32,399.74,1143.32z"/>
		</g>
	</g>
</g>
</svg>
