<?xml version="1.0" encoding="iso-8859-1"?>
<!-- Generator: Adobe Illustrator 26.0.2, SVG Export Plug-In . SVG Version: 6.00 Build 0)  -->
<svg version="1.1" xmlns="http://www.w3.org/2000/svg" xmlns:xlink="http://www.w3.org/1999/xlink" x="0px" y="0px"
	 viewBox="0 0 1200 1200" enable-background="new 0 0 1200 1200" xml:space="preserve">
<g id="Background_x5F_Simple">
	<g>
		<g>
			<path fill="#EEEEEE" d="M1071.14,929.36h-0.59c-1.89,0-3.43-1.53-3.43-3.43v-12.44c0-1.89,1.53-3.43,3.43-3.43h0.59
				c1.89,0,3.43,1.53,3.43,3.43v12.44C1074.57,927.82,1073.04,929.36,1071.14,929.36z"/>
			<path fill="#EEEEEE" d="M1079.58,938.39v-0.59c0-1.89,1.53-3.43,3.43-3.43h12.44c1.89,0,3.43,1.53,3.43,3.43v0.59
				c0,1.89-1.53,3.43-3.43,3.43h-12.44C1081.12,941.82,1079.58,940.28,1079.58,938.39z"/>
			<path fill="#EEEEEE" d="M1070.55,946.83h0.59c1.89,0,3.43,1.53,3.43,3.43v12.44c0,1.89-1.53,3.43-3.43,3.43h-0.59
				c-1.89,0-3.43-1.53-3.43-3.43v-12.44C1067.13,948.36,1068.66,946.83,1070.55,946.83z"/>
			<path fill="#EEEEEE" d="M1062.11,937.8v0.59c0,1.89-1.53,3.43-3.43,3.43h-12.44c-1.89,0-3.43-1.53-3.43-3.43v-0.59
				c0-1.89,1.53-3.43,3.43-3.43h12.44C1060.58,934.37,1062.11,935.91,1062.11,937.8z"/>
		</g>
		<g>
			<path fill="#EEEEEE" d="M318.2,265.45h-0.59c-1.89,0-3.43-1.53-3.43-3.43v-12.44c0-1.89,1.53-3.43,3.43-3.43h0.59
				c1.89,0,3.43,1.53,3.43,3.43v12.44C321.63,263.92,320.09,265.45,318.2,265.45z"/>
			<path fill="#EEEEEE" d="M326.64,274.48v-0.59c0-1.89,1.53-3.43,3.43-3.43h12.44c1.89,0,3.43,1.53,3.43,3.43v0.59
				c0,1.89-1.53,3.43-3.43,3.43h-12.44C328.18,277.91,326.64,276.37,326.64,274.48z"/>
			<path fill="#EEEEEE" d="M317.61,282.92h0.59c1.89,0,3.43,1.53,3.43,3.43v12.44c0,1.89-1.53,3.43-3.43,3.43h-0.59
				c-1.89,0-3.43-1.53-3.43-3.43v-12.44C314.18,284.46,315.72,282.92,317.61,282.92z"/>
			<path fill="#EEEEEE" d="M309.17,273.89v0.59c0,1.89-1.53,3.43-3.43,3.43H293.3c-1.89,0-3.43-1.53-3.43-3.43v-0.59
				c0-1.89,1.53-3.43,3.43-3.43h12.44C307.64,270.46,309.17,272,309.17,273.89z"/>
		</g>
		<g>
			<path fill="#EEEEEE" d="M1014.42,325.32h-0.59c-1.89,0-3.43-1.53-3.43-3.43v-12.44c0-1.89,1.53-3.43,3.43-3.43h0.59
				c1.89,0,3.43,1.53,3.43,3.43v12.44C1017.85,323.78,1016.32,325.32,1014.42,325.32z"/>
			<path fill="#EEEEEE" d="M1022.86,334.35v-0.59c0-1.89,1.53-3.43,3.43-3.43h12.44c1.89,0,3.43,1.53,3.43,3.43v0.59
				c0,1.89-1.53,3.43-3.43,3.43h-12.44C1024.4,337.77,1022.86,336.24,1022.86,334.35z"/>
			<path fill="#EEEEEE" d="M1013.83,342.79h0.59c1.89,0,3.43,1.53,3.43,3.43v12.44c0,1.89-1.53,3.43-3.43,3.43h-0.59
				c-1.89,0-3.43-1.53-3.43-3.43v-12.44C1010.41,344.32,1011.94,342.79,1013.83,342.79z"/>
			<path fill="#EEEEEE" d="M1005.39,333.76v0.59c0,1.89-1.53,3.43-3.43,3.43h-12.44c-1.89,0-3.43-1.53-3.43-3.43v-0.59
				c0-1.89,1.53-3.43,3.43-3.43h12.44C1003.86,330.33,1005.39,331.87,1005.39,333.76z"/>
		</g>
		<path fill="#EEEEEE" d="M227.56,403.42c-8.23,0-14.88,6.66-14.88,14.88c0,8.23,6.64,14.88,14.88,14.88
			c8.21,0,14.88-6.64,14.88-14.88C242.44,410.08,235.78,403.42,227.56,403.42z M227.56,426.35c-4.46,0-8.06-3.59-8.06-8.06
			c0-4.45,3.59-8.04,8.06-8.04c4.45,0,8.04,3.59,8.04,8.04C235.6,422.76,232.01,426.35,227.56,426.35z"/>
		<path fill="#EEEEEE" d="M907.31,605.66c-8.23,0-14.88,6.66-14.88,14.88c0,8.23,6.64,14.88,14.88,14.88
			c8.21,0,14.88-6.64,14.88-14.88C922.18,612.32,915.52,605.66,907.31,605.66z M907.31,628.6c-4.46,0-8.06-3.59-8.06-8.06
			c0-4.45,3.59-8.04,8.06-8.04c4.45,0,8.04,3.59,8.04,8.04C915.35,625,911.75,628.6,907.31,628.6z"/>
	</g>
</g>
<g id="Layer_x5F_Plants">
	<g>
		<g>
			<path fill="#222B3F" d="M340.03,1059.2l28.68,46.3l-82.11-11.9c0,0-117.8-18.34-207.22-120.84
				c-77.44-88.77,57.49-117.84,186.82-2.17C295,996.33,319.68,1026.36,340.03,1059.2z"/>
			<g opacity="0.3">
				<path fill="#FFFFFF" d="M335.83,1087.04c-0.03,0.05-0.06,0.09-0.1,0.14c-0.74,0.95-2.1,1.13-3.06,0.4
					c-80.86-62.23-216.7-144.96-217.48-145.43c-1.03-0.62-1.37-1.96-0.75-2.99c0.62-1.04,1.96-1.37,2.99-0.75
					c0.79,0.47,136.83,83.33,217.9,145.71C336.24,1084.82,336.45,1086.1,335.83,1087.04z"/>
			</g>
		</g>
		<g>
			<path fill="#FF8D88" d="M269.74,613.76c-127.21-163.79-139.85,36.69-82.7,188.75c72.22,192.17,178.14,241.33,178.14,241.33
				S396.95,777.55,269.74,613.76z"/>
			<g opacity="0.3">
				<path fill="#FFFFFF" d="M209.22,639.85c0.03,0.08,52.32,207.72,133.21,367.68c0.54,1.08,1.86,1.51,2.93,0.96
					c1.08-0.54,1.51-1.86,0.96-2.93c-40.29-79.65-73.53-171.37-96.67-243.16c-11.57-35.89-20.63-66.81-26.79-88.74
					c-3.08-10.97-5.43-19.69-7.02-25.67c-0.79-2.99-1.39-5.29-1.79-6.85c-0.4-1.56-0.6-2.36-0.6-2.36
					c-0.29-1.17-1.48-1.88-2.65-1.58C209.63,637.5,208.92,638.69,209.22,639.85L209.22,639.85z"/>
			</g>
		</g>
		<g>
			
				<ellipse transform="matrix(0.5275 -0.8495 0.8495 0.5275 -654.7834 544.8841)" fill="#6081C1" cx="162.49" cy="861.13" rx="14.62" ry="20.14"/>
			
				<ellipse transform="matrix(0.6306 -0.7761 0.7761 0.6306 -568.1848 391.9963)" fill="#6081C1" cx="127.7" cy="792.88" rx="10.93" ry="15.06"/>
		</g>
	</g>
</g>
<g id="Layer_x5F_Character_1">
	<g id="legs">
		<g>
			<polygon fill="#374D6D" points="725.96,854.71 755.89,1108.23 536.41,1108.23 521.65,843.55 			"/>
			<g>
				<polygon fill="#374D6D" points="575.95,854.71 559.26,1108.23 339.78,1108.23 373.69,843.55 				"/>
				<path fill="#374D6D" d="M596.55,873.9c-1.1-0.07-2.06,0.76-2.13,1.86l-5.95,88.06c-0.67,9.87-7,18.45-16.23,22.01l-3,1.15
					l8.7-132.14c0.07-1.1-0.76-2.05-1.86-2.13c-1.1-0.07-2.05,0.76-2.13,1.86l-16.1,244.54c-0.07,1.1,0.76,2.05,1.86,2.13
					s2.05-0.76,2.13-1.86l7.11-108l4.72-1.82c10.68-4.11,18.01-14.05,18.78-25.47l5.95-88.06
					C598.48,874.93,597.65,873.98,596.55,873.9z"/>
				<path opacity="0.3" fill="#FFFFFF" d="M596.55,873.9c-1.1-0.07-2.06,0.76-2.13,1.86l-5.95,88.06c-0.67,9.87-7,18.45-16.23,22.01
					l-3,1.15l8.7-132.14c0.07-1.1-0.76-2.05-1.86-2.13c-1.1-0.07-2.05,0.76-2.13,1.86l-16.1,244.54c-0.07,1.1,0.76,2.05,1.86,2.13
					s2.05-0.76,2.13-1.86l7.11-108l4.72-1.82c10.68-4.11,18.01-14.05,18.78-25.47l5.95-88.06
					C598.48,874.93,597.65,873.98,596.55,873.9z"/>
			</g>
		</g>
	</g>
	<g id="hair_00000082344726472799971820000009357568267738933177_">
		<g id="hair">
			<g>
				<path fill="#FF8D88" d="M513.24,151.02c-2.89,4.29-15.63,20.73-48.64,34.56c-3.42,1.43-6.69,2.58-9.79,3.46
					c-15.12-3.87-28.87-8.26-37.08-11.02c1.12-58.25,35.66-78.99,57.16-86.25C496.81,109.32,509.07,131.58,513.24,151.02z"/>
				<g>
					<path fill="#FFFFFF" d="M494.21,115.98c-1.94-3.17-3.94-6.18-5.99-9.02c-2.93,2.2-5.87,4.43-8.83,6.7
						c-2.25-2.84-4.56-5.48-6.91-7.93c-2.81,2.31-5.63,4.65-8.44,7.03c2.38,2.26,4.72,4.72,7.02,7.38c-2.97,2.33-5.94,4.7-8.91,7.11
						c2.19,2.31,4.34,4.79,6.46,7.45c2.94-2.22,5.87-4.41,8.79-6.57c2.2,3.02,4.34,6.24,6.41,9.64c2.68-1.85,5.34-3.66,7.98-5.45
						c-2-3.58-4.07-6.97-6.21-10.17C488.47,120.06,491.35,118,494.21,115.98z"/>
				</g>
				<path fill="#374D6D" d="M613.22,169.28c0,0,19.23-37.77-16.44-53.34c-35.65-15.54-69.92-4.83-90.24,32.25
					c0,0-51.8,9.65-60.05,51.32c-8.25,41.67,51.69,95.59,96.82,85.09c45.13-10.5,46.44-46.15,46.44-46.15s34.21,7.81,45.21-24.04
					C645.97,182.57,631.37,171.53,613.22,169.28z"/>
				<g>
					<path fill="#374D6D" d="M508.69,147.84c-0.21-1.19-1.31-2-2.5-1.81c-0.38,0.04-39.29,7.54-55.71,36.46
						c-0.6,1.06-0.23,2.4,0.83,3c0.33,0.21,0.71,0.29,1.08,0.29c0.77,0,1.52-0.4,1.92-1.1c15.36-27.06,52.23-34.23,52.61-34.29
						C508.11,150.15,508.9,149.03,508.69,147.84z"/>
				</g>
				<g opacity="0.3">
					<path fill="#FFFFFF" d="M508.69,147.84c-0.21-1.19-1.31-2-2.5-1.81c-0.38,0.04-39.29,7.54-55.71,36.46
						c-0.6,1.06-0.23,2.4,0.83,3c0.33,0.21,0.71,0.29,1.08,0.29c0.77,0,1.52-0.4,1.92-1.1c15.36-27.06,52.23-34.23,52.61-34.29
						C508.11,150.15,508.9,149.03,508.69,147.84z"/>
				</g>
			</g>
		</g>
	</g>
	<g id="left_arm_00000039100505477577425270000016424747133977399469_">
		<g id="left_arm">
			<g>
				<path fill="#6081C1" d="M677.66,397.2c-10.64-7.91-22.15-8.36-33.1-8.53c-34.73-0.49-65.24,15.4-48.48,76.27
					c26.55,96.4,114.76,264.98,135.65,270.13c20.89,5.15,72.3-25.01,72.3-25.01l15.74-20.72
					c-49.07-125.2-90.29-212.99-112.24-256.42C699.96,417.99,685.91,403.33,677.66,397.2z"/>
				<path fill="#222B3F" d="M731.94,681.81c53.61-38.15,92.91-7.47,92.91-7.47l17.63,36.46c0,0-5.06,23.37-44.63,43.88
					c-39.56,20.49-83.64,13.86-83.64,13.86l-17.46-30.88C696.75,737.65,692.4,709.94,731.94,681.81z"/>
				<path fill="#9F5353" d="M820.91,713.86l13.12,32.54c18.63,38.35-34.73,90.13-76.27,69.21c-18.07-27.59-30.18-76.46-30.18-76.46
					C750.1,715.29,780.43,705.46,820.91,713.86z"/>
			</g>
		</g>
	</g>
	<g id="body_00000072244831911342026090000013705188282772479662_">
		<g id="body">
			<g>
				<g>
					<g>
						<path fill="#FF8D88" d="M674.45,545.25l-5.44-114.95l-128.05-97.26l-91.92,79.96c0,0-4.63,154.26-29.19,278.69
							c-21.34,107.99-63.21,188.49-61.46,188.49c3.79,0,126.78,39.04,238.44,17.65c111.63-21.4,141.22-34.02,141.22-34.02
							L674.45,545.25z"/>
						<g opacity="0.3">
							<path fill="#FFFFFF" d="M710.62,837.73c1.13-0.5,1.6-1.81,1.1-2.92c-0.5-1.13-1.81-1.6-2.92-1.1
								c-114.82,52.02-294.27,35.23-296.07,35.07c-1.21-0.12-2.29,0.77-2.42,1.98c-0.12,1.23,0.77,2.29,1.98,2.42
								c0.71,0.06,29.11,2.73,70.36,2.73C546.26,875.9,640.35,869.57,710.62,837.73z"/>
						</g>
					</g>
					<path fill="#6081C1" d="M513.67,520.06c-8.42-69.67-0.06-167.03,2.21-190.56c-49.5,18.73-119.07,79.74-119.07,79.74
						s0.75,97.8-2.96,292.36c-16.77,110.82-96.24,334.78-96.24,334.78s105.87,40.3,177.25,0c0,0,55.19-144.44,66.13-334.99
						C540.98,701.39,523.36,599.79,513.67,520.06z"/>
					<g>
						<path fill="#6081C1" d="M563.01,329.5c0,0,46.8,16.75,107.05,63.71v22.34c0,0,26.44,88.15,27.69,103.88
							c1.25,15.75-11.96,70.53-11.96,70.53s79.32,306.61,88.15,440.1c0,0-47.23-2.52-96.34-14.48
							c5.32-3.61-63.61-544.83-80.8-582.84C585.45,390.78,563.01,329.5,563.01,329.5z"/>
					</g>
					<g opacity="0.3">
						<g>
							<path fill="#FFFFFF" d="M708.44,681.61c1.02-0.23,1.65-1.25,1.4-2.27c-11.83-49.55-20.94-85.01-22.06-89.4
								c1.35-5.69,13.11-55.38,11.9-70.65c-1.25-15.75-26.69-100.67-27.77-104.28c-0.29-1-1.35-1.56-2.35-1.27
								c-1,0.29-1.56,1.35-1.27,2.35c0.27,0.88,26.4,88.13,27.63,103.49c1.23,15.25-11.79,69.38-11.92,69.92
								c-0.08,0.29-0.08,0.63,0,0.92c0.08,0.38,9.58,37.11,22.17,89.8c0.21,0.88,0.98,1.46,1.83,1.46
								C708.12,681.68,708.27,681.66,708.44,681.61z"/>
						</g>
					</g>
					<g>
						<path fill="#6081C1" d="M623.24,409.26l-12.58,32.73l41.98,32.32c6.71,70.11,3.35,200.22,3.35,200.22
							s-27.71-130.11-59.19-221.21c-32.52-82.3-72.82-79.13-74.3,8.4c7.54,85.22,18.46,239.69,18.46,239.69
							c-23.5-94.86-66.11-201.47-66.11-201.47l28.44-50.38l-28.44-26.02c9.44-49.96,31.5-106.43,56.88-110.4
							C580.01,305.56,623.24,409.24,623.24,409.26z"/>
						<g opacity="0.3">
							<path fill="#FFFFFF" d="M657.39,645.34c0.04-1.02,3.77-101.76-2.88-171.18c-0.04-0.52-0.31-1-0.73-1.31l-40.86-31.46
								l12.08-31.42c0.17-0.46,0.17-0.96-0.02-1.42c-0.15-0.35-15-35.67-36.67-63.42c-0.63-0.83-1.81-0.98-2.65-0.33
								c-0.83,0.63-0.98,1.81-0.33,2.65c19.69,25.21,33.69,56.82,35.86,61.86l-12.31,32.02c-0.31,0.79-0.06,1.67,0.6,2.19
								l41.32,31.82c6.52,69.13,2.83,168.85,2.79,169.85c-0.04,1.04,0.77,1.92,1.81,1.96c0.04,0,0.06,0,0.08,0
								C656.51,647.13,657.35,646.32,657.39,645.34z"/>
						</g>
						<g opacity="0.3">
							<path fill="#FFFFFF" d="M531.82,666.95c1-0.29,1.58-1.33,1.29-2.33c-22.36-78.44-52.63-155.68-56.15-164.58l28-49.59
								c0.44-0.77,0.27-1.73-0.38-2.33l-27.67-25.31c5.85-30.52,15.5-59.46,26.48-79.53c0.5-0.92,0.17-2.06-0.75-2.56
								c-0.92-0.5-2.06-0.17-2.56,0.75c-11.29,20.65-21.17,50.42-27.09,81.69c-0.12,0.65,0.1,1.31,0.58,1.75l27.34,25l-27.69,49.07
								c-0.27,0.5-0.31,1.08-0.1,1.63c0.33,0.81,32.77,82.28,56.36,165.05c0.23,0.83,0.98,1.38,1.81,1.38
								C531.46,667.03,531.63,667.01,531.82,666.95z"/>
						</g>
					</g>
				</g>
				<g>
					<path fill="#9F5353" d="M565.32,365.57c-3.27-9.83-5.79-32.65-7.46-53.4c-1.71-21.81-2.63-41.4-2.63-41.4l-41.57-8.85
						c0,0,0.31,2.92,0.81,7.85c2.1,21.17,7.69,79.24,8,103.36v88.61c0,0,23.11,22.67,49.96,24.73c0,0,18.04-10.08,24.34-33.15
						C596.78,453.32,572.05,385.71,565.32,365.57z"/>
					<path fill="#222B3F" d="M555.24,270.77l-41.57-8.85c0,0,0.31,2.92,0.81,7.85c6.67,15.67,19.46,35.02,43.38,42.42
						C556.13,290.37,555.24,270.77,555.24,270.77z"/>
				</g>
			</g>
		</g>
	</g>
	<g id="head_00000005265924407182524080000002433069557870238627_">
		<g id="head">
			<g>
				<g>
					<path fill="#9F5353" d="M524.75,160.41c-29.61,8.58-28.11,48.8-28.11,48.8s4.44,47.46,29.48,69.17
						c25.06,21.71,55.07,27.17,65.94-9.35s2.56-70.01,2.56-70.01C585.53,166.93,554.36,151.82,524.75,160.41z"/>
					<path fill="#374D6D" d="M527.23,147.65c-66.8,14.04-54.65,68.32-26.44,85.42c0,0,23.19-14.31,23.86-60.13
						c0,0,28.69,43.09,83.11,38.61C607.76,211.56,594.03,133.61,527.23,147.65z"/>
					<g>
						<g>
							<path fill="#9F5353" d="M480.46,215.56c17.02-4.19,27.59,14.25,27.59,14.25l7.56,24.96
								C465.5,264.29,463.44,219.7,480.46,215.56z"/>
							<g>
								<path fill="#222B3F" d="M509.98,246.08c1-0.69,1.27-2.04,0.6-3.06c-10.29-15.38-27.4-19.23-28.13-19.4
									c-1.21-0.25-2.38,0.5-2.63,1.69c-0.25,1.19,0.5,2.38,1.69,2.63c0.15,0.04,16.08,3.63,25.4,17.54
									c0.42,0.65,1.13,0.98,1.83,0.98C509.17,246.45,509.61,246.35,509.98,246.08z"/>
							</g>
							<g>
								<path fill="#222B3F" d="M491.86,244.62c0-0.06,0.63-6.44,3.92-13c0.54-1.08,0.1-2.42-0.98-2.96
									c-1.08-0.54-2.42-0.1-2.96,0.98c-3.69,7.35-4.35,14.29-4.38,14.58c-0.1,1.21,0.79,2.29,2,2.4c0.06,0,0.15,0,0.21,0
									C490.79,246.62,491.75,245.77,491.86,244.62z"/>
							</g>
						</g>
						<g>
							<path fill="#FF8D88" d="M501.06,287.19c3.71-3.27,6.77-8.19,8.6-13.83c1.83-5.65,2.25-11.42,1.17-16.25
								c-1.19-5.23-3.96-8.81-7.85-10.08c-1.17-0.38-2.4,0.25-2.77,1.42c-0.38,1.15,0.25,2.4,1.42,2.77
								c2.33,0.77,4.08,3.19,4.9,6.85c0.92,4.06,0.54,9-1.06,13.92c-1.58,4.92-4.19,9.15-7.31,11.9c-2.81,2.48-5.65,3.44-8,2.67
								c-2.33-0.77-4.08-3.19-4.9-6.85c-0.92-4.06-0.54-9,1.06-13.92c1.23-3.81,3.08-7.23,5.35-9.9c0.79-0.92,0.67-2.31-0.25-3.1
								c-0.92-0.79-2.31-0.67-3.1,0.25c-2.65,3.08-4.79,7.02-6.21,11.38c-1.83,5.65-2.25,11.42-1.17,16.25
								c1.19,5.23,3.96,8.81,7.85,10.08c1,0.31,2,0.48,3.04,0.48C494.88,291.21,498.06,289.83,501.06,287.19z"/>
						</g>
					</g>
				</g>
				<g>
					<path fill="#222B3F" d="M552.86,208.14c0,0-0.35-9.44-3.35-9.35s-3.31,3.54-3.31,3.54c-11.54-5.77-19.02,9.46-19.02,9.46
						C539.01,207.05,552.86,208.14,552.86,208.14z"/>
					<path fill="#222B3F" d="M575.95,212.87c0,0,0.67-8.9,4.02-8.35c1.96,0.31,2.19,3.17,2.19,3.17c8.92-4.31,9.9,11.17,9.9,11.17
						C585.59,213.01,575.95,212.87,575.95,212.87z"/>
					<g>
						
							<ellipse transform="matrix(0.0285 -0.9996 0.9996 0.0285 298.4711 766.4365)" fill="#222B3F" cx="543.54" cy="229.67" rx="7.88" ry="6.38"/>
						<circle fill="#FFFFFF" cx="545.03" cy="226.93" r="1.69"/>
					</g>
					<g>
						
							<ellipse transform="matrix(0.0285 -0.9996 0.9996 0.0285 333.8297 804.9562)" fill="#222B3F" cx="581.03" cy="230.74" rx="7.88" ry="6.38"/>
						<circle fill="#FFFFFF" cx="582.53" cy="227.99" r="1.69"/>
					</g>
					<g>
						<path fill="#222B3F" d="M574.61,251.54c1.08-2.54,0.46-4.4-0.25-5.52c-1.67-2.63-5.44-3.6-7.92-3.96l0.27-13.36
							c0.02-1.21-0.96-2.23-2.17-2.25c-1.19,0-2.23,0.96-2.25,2.17l-0.31,15.4c-0.02,1.21,0.92,2.21,2.13,2.25
							c2.23,0.08,5.73,0.85,6.52,2.1c0.1,0.15,0.31,0.5-0.08,1.44c-1.81,4.23-8.23,2.54-8.5,2.46c-1.17-0.33-2.38,0.35-2.71,1.52
							c-0.33,1.17,0.35,2.38,1.52,2.71c1.1,0.31,2.58,0.54,4.17,0.54C568.61,257.04,572.76,255.83,574.61,251.54z"/>
					</g>
					<g>
						<path fill="#222B3F" d="M566.34,273.39c1.15-0.38,1.79-1.6,1.42-2.77c-0.38-1.15-1.6-1.79-2.77-1.44
							c-0.54,0.17-13.31,3.94-25.42-9.31c-0.81-0.9-2.21-0.96-3.1-0.15c-0.9,0.81-0.96,2.21-0.15,3.1
							c8.65,9.46,17.73,11.36,23.63,11.36C563.63,274.19,566.07,273.44,566.34,273.39z"/>
					</g>
				</g>
			</g>
		</g>
	</g>
	<g id="baby">
		<g>
			<g>
				<path fill="#374D6D" d="M768.54,437.17c-75.42-13.08-127.48,87.86-152.22,145.6c-24.75,57.74-37.38,96.32-37.38,96.32
					l-6.72,4.91c0,0-57.76,96.73,13.36,136.47c71.12,39.74,138.72-22.5,166.47-83.23c27.74-60.74,64.49-146.97,78.73-193.46
					C845.02,497.29,824.03,446.8,768.54,437.17z"/>
				<path opacity="0.3" fill="#FFFFFF" d="M801.8,578.29c-0.54-0.84-1.66-1.08-2.5-0.54c-32.91,21.16-75.67,41.83-113.74,58.51
					c-11.11-26.52-17.71-51.34-21.54-69.64c-1.95-9.34-3.18-16.98-3.93-22.28c-0.37-2.65-0.62-4.71-0.78-6.11
					c-0.08-0.7-0.13-1.23-0.17-1.59c-0.02-0.18-0.03-0.31-0.04-0.4c-0.01-0.09-0.01-0.13-0.01-0.13c-0.09-0.99-0.96-1.73-1.96-1.65
					c-0.99,0.09-1.73,0.96-1.65,1.96c0.01,0.12,4.04,47.1,26.74,101.28c-5.11,2.22-10.13,4.38-15.02,6.44
					c-21.03,8.89-39.67,16.25-53.04,21.37c-6.69,2.56-12.06,4.57-15.76,5.94c-1.85,0.68-3.28,1.21-4.25,1.56
					c-0.97,0.35-1.47,0.53-1.47,0.53c-0.94,0.34-1.43,1.37-1.09,2.31s1.37,1.43,2.31,1.09v0c0.02-0.01,32.54-11.64,74.71-29.47
					c5.41-2.29,10.99-4.68,16.67-7.16c0,0,0,0,0.01,0c0,0,0.01,0,0.01,0c38.58-16.85,82.25-37.87,115.94-59.52
					C802.1,580.25,802.34,579.13,801.8,578.29z"/>
				<g>
					<path fill="#374D6D" d="M729.86,774.45c-0.79-0.61-1.93-0.46-2.54,0.34c-12.1,15.8-26.72,29.93-42.99,40.08
						c-16.27,10.15-34.15,16.33-52.88,16.33c-14.56,0-29.66-3.72-45.01-12.29c-13.27-7.42-21.85-16.78-27.18-27.11
						c-5.32-10.33-7.38-21.68-7.38-33.06c-0.01-18.48,5.45-36.98,10.94-50.82c2.74-6.92,5.48-12.68,7.54-16.7
						c1.03-2.01,1.88-3.59,2.48-4.66c0.3-0.53,0.53-0.94,0.69-1.22c0.02-0.03,0.04-0.06,0.05-0.09l6.42-4.69
						c0.31-0.22,0.53-0.54,0.65-0.9c0,0,0.05-0.15,0.15-0.44c1.47-4.41,14-41.66,37.18-95.73c8.17-19.06,19.31-42.82,33.27-65.58
						c13.95-22.76,30.73-44.5,50.05-59.53c0.79-0.61,0.93-1.75,0.32-2.54c-0.61-0.79-1.75-0.93-2.54-0.32v0
						c-19.84,15.45-36.81,37.52-50.91,60.5c-14.09,22.98-25.3,46.89-33.51,66.05c-23.07,53.83-35.62,91.02-37.25,95.92l-6.25,4.57
						c-0.19,0.14-0.36,0.33-0.49,0.53c-0.03,0.06-5.61,9.4-11.19,23.5c-5.58,14.1-11.19,32.97-11.19,52.15
						c0,11.81,2.14,23.76,7.78,34.72c5.64,10.96,14.8,20.89,28.63,28.61c15.84,8.85,31.59,12.76,46.77,12.75
						c19.53,0,38.08-6.44,54.79-16.87c16.71-10.44,31.61-24.86,43.94-40.95C730.8,776.19,730.65,775.06,729.86,774.45z"/>
					<path opacity="0.3" fill="#FFFFFF" d="M729.86,774.45c-0.79-0.61-1.93-0.46-2.54,0.34c-12.1,15.8-26.72,29.93-42.99,40.08
						c-16.27,10.15-34.15,16.33-52.88,16.33c-14.56,0-29.66-3.72-45.01-12.29c-13.27-7.42-21.85-16.78-27.18-27.11
						c-5.32-10.33-7.38-21.68-7.38-33.06c-0.01-18.48,5.45-36.98,10.94-50.82c2.74-6.92,5.48-12.68,7.54-16.7
						c1.03-2.01,1.88-3.59,2.48-4.66c0.3-0.53,0.53-0.94,0.69-1.22c0.02-0.03,0.04-0.06,0.05-0.09l6.42-4.69
						c0.31-0.22,0.53-0.54,0.65-0.9c0,0,0.05-0.15,0.15-0.44c1.47-4.41,14-41.66,37.18-95.73c8.17-19.06,19.31-42.82,33.27-65.58
						c13.95-22.76,30.73-44.5,50.05-59.53c0.79-0.61,0.93-1.75,0.32-2.54c-0.61-0.79-1.75-0.93-2.54-0.32v0
						c-19.84,15.45-36.81,37.52-50.91,60.5c-14.09,22.98-25.3,46.89-33.51,66.05c-23.07,53.83-35.62,91.02-37.25,95.92l-6.25,4.57
						c-0.19,0.14-0.36,0.33-0.49,0.53c-0.03,0.06-5.61,9.4-11.19,23.5c-5.58,14.1-11.19,32.97-11.19,52.15
						c0,11.81,2.14,23.76,7.78,34.72c5.64,10.96,14.8,20.89,28.63,28.61c15.84,8.85,31.59,12.76,46.77,12.75
						c19.53,0,38.08-6.44,54.79-16.87c16.71-10.44,31.61-24.86,43.94-40.95C730.8,776.19,730.65,775.06,729.86,774.45z"/>
					<polygon points="655.51,536.43 655.51,536.43 655.51,536.43 					"/>
				</g>
			</g>
			<g>
				<path fill="#FBBDBB" d="M750.99,453.53c-34.75-6.65-51.64,17.25-61.44,43.12c-9.8,25.87-5.3,45.97,15.7,54.1
					s47.99,3.63,68.24-34.98C793.74,477.16,768.62,456.91,750.99,453.53z"/>
				<g>
					<g>
						<g>
							<path fill="#222B3F" d="M722.99,495.38c-0.26,0-0.53-0.06-0.78-0.18c-0.9-0.43-1.28-1.51-0.85-2.41l2.57-5.35
								c0.43-0.9,1.51-1.28,2.41-0.85c0.9,0.43,1.28,1.51,0.85,2.41l-2.57,5.35C724.31,495,723.66,495.38,722.99,495.38z"/>
						</g>
						<g>
							<path fill="#222B3F" d="M722.46,507.59c-5.28,0-9.21-4.01-10.3-8.02c-0.91-3.37,0.21-6.37,2.86-7.64
								c6-2.87,11.46,1.52,11.69,1.7c0.77,0.63,0.89,1.77,0.25,2.54c-0.63,0.77-1.77,0.88-2.54,0.26c-0.18-0.14-3.95-3.11-7.84-1.24
								c-1.53,0.73-1.1,2.81-0.93,3.43c0.77,2.82,3.62,5.65,7.4,5.33c1-0.07,1.87,0.66,1.95,1.65c0.08,1-0.66,1.87-1.65,1.95
								C723.05,507.58,722.76,507.59,722.46,507.59z"/>
						</g>
					</g>
					<g>
						<path fill="#222B3F" d="M720.14,523.46c-4.3,0-7.31-0.93-7.54-1.01c-0.95-0.3-1.48-1.32-1.17-2.27
							c0.3-0.95,1.32-1.47,2.27-1.17c0.15,0.05,8.89,2.69,17.38-1.78c0.88-0.47,1.98-0.13,2.44,0.76c0.47,0.88,0.13,1.98-0.76,2.44
							C728.25,522.81,723.75,523.46,720.14,523.46z"/>
					</g>
					<g>
						<path fill="#222B3F" d="M718.47,488.01c-0.2,0-0.4-0.03-0.6-0.1c-6.67-2.35-12.95-0.04-13.01-0.02
							c-0.93,0.35-1.98-0.12-2.33-1.05c-0.35-0.93,0.11-1.97,1.04-2.33c0.3-0.12,7.54-2.82,15.5-0.02c0.94,0.33,1.44,1.36,1.11,2.31
							C719.92,487.55,719.22,488.01,718.47,488.01z"/>
					</g>
					<g>
						<path fill="#222B3F" d="M707.43,473.36c-0.59,0-1.17-0.29-1.52-0.83c-0.54-0.84-0.3-1.96,0.53-2.5
							c0.39-0.25,9.73-6.16,21.28-1.88c0.94,0.35,1.41,1.39,1.07,2.32c-0.35,0.94-1.39,1.42-2.32,1.07
							c-9.88-3.66-17.98,1.48-18.06,1.53C708.11,473.27,707.77,473.36,707.43,473.36z"/>
					</g>
					<g>
						<path fill="#222B3F" d="M763.74,489.42c-0.62,0-1.22-0.32-1.56-0.89c-7.41-12.5-19.8-13.34-20.32-13.37
							c-1-0.06-1.76-0.91-1.71-1.9s0.89-1.76,1.9-1.71c0.6,0.03,14.82,0.92,23.24,15.14c0.51,0.86,0.23,1.97-0.63,2.48
							C764.37,489.34,764.06,489.42,763.74,489.42z"/>
					</g>
					<g>
						<path fill="#222B3F" d="M751.2,497.05c-0.48,0-0.96-0.19-1.31-0.56c-5.04-5.31-13.12-3.83-13.2-3.82
							c-0.98,0.19-1.93-0.45-2.12-1.43s0.45-1.93,1.42-2.12c0.41-0.08,10.08-1.89,16.51,4.88c0.69,0.72,0.66,1.87-0.06,2.56
							C752.09,496.88,751.64,497.05,751.2,497.05z"/>
					</g>
				</g>
			</g>
		</g>
	</g>
	<g id="left_forearm">
		<g>
			<path fill="#9F5353" d="M808.35,582.13l-26.05-46.99c-1.07-1.92-1.2-4.23-0.38-6.28c1.48-3.64,5.36-5.21,8.73-4.28
				c1.37,0.38,2.63,1.17,3.64,2.39l-4.47-5.44c-2.03-2.47-2.55-5.84-1.34-8.79c1.75-4.31,6.34-6.23,10.39-5.1
				c1.39,0.39,2.74,1.14,3.86,2.29l-4.93-5.04c-2.64-2.69-3.42-6.67-2-10.16c1.91-4.68,6.9-6.75,11.29-5.53
				c1.59,0.44,3.09,1.32,4.34,2.65l-6.36-6.82c-2.26-2.41-2.9-5.92-1.66-8.99c1.72-4.22,6.22-6.09,10.17-4.99
				c1.39,0.39,2.71,1.14,3.82,2.3l38.02,39.56c6.1,6.34,8.21,15.53,5.49,23.9l-15.76,48.55c0,0,0.01,121.81-7.29,186.37
				c-1.07,9.51-31.97,43.47-45.44,47.76c-55.72,8.18-50.79-53.43-35.57-93.38L808.35,582.13z"/>
			<g>
				<path fill="#222B3F" d="M812.37,490.98l21.45,22.97c0.49,0.52,0.46,1.34-0.06,1.82c-0.52,0.49-1.34,0.46-1.82-0.06l-21.45-22.97
					c-0.49-0.52-0.46-1.34,0.06-1.82C811.07,490.43,811.88,490.46,812.37,490.98"/>
				<path fill="#222B3F" d="M803.66,509.04l20.51,20.93c0.5,0.51,0.49,1.33-0.02,1.82c-0.51,0.5-1.33,0.49-1.82-0.02l-20.51-20.93
					c-0.5-0.51-0.49-1.33,0.02-1.82C802.34,508.52,803.16,508.53,803.66,509.04"/>
				<path fill="#222B3F" d="M795.29,526.16l19.26,23.36c0.45,0.55,0.38,1.36-0.17,1.82c-0.55,0.45-1.36,0.38-1.82-0.17L793.3,527.8
					c-0.45-0.55-0.38-1.36,0.17-1.82C794.03,525.53,794.84,525.61,795.29,526.16"/>
			</g>
		</g>
	</g>
	<g id="stethoscope">
		<g>
			<g>
				<path fill="#222B3F" d="M493.77,231.62v75.73c0,28.36,22.99,51.35,51.35,51.35h0c28.36,0,51.35-22.99,51.35-51.35V248.3
					l-4,19.38l0,39.67c0,13.08-5.3,24.9-13.87,33.48c-8.57,8.57-20.4,13.87-33.48,13.87h0c-13.08,0-24.9-5.3-33.48-13.87
					c-8.57-8.57-13.87-20.4-13.87-33.48v-74.27L493.77,231.62L493.77,231.62z"/>
				<path fill="#222B3F" d="M543.12,356.7v379.55c0,15.9,12.89,28.79,28.79,28.79h0c15.9,0,28.79-12.89,28.79-28.79V609.05h-4
					v127.19c0,6.85-2.77,13.04-7.26,17.53c-4.49,4.49-10.68,7.26-17.53,7.26h0c-6.85,0-13.04-2.77-17.53-7.26
					c-4.49-4.49-7.26-10.68-7.26-17.53V356.7H543.12L543.12,356.7z"/>
			</g>
			<g>
				<g>
					<path fill="#222B3F" d="M642.97,613.42c0,16.73-8.93,30.29-19.94,30.29c-0.15,0-0.32,0-0.47-0.01v0.01h-4.69v-1.04
						c-8.51-3.44-14.78-15.24-14.78-29.25s6.27-25.79,14.78-29.25v-1.03h4.69v0.01c0.15-0.01,0.32-0.01,0.47-0.01
						C634.04,583.14,642.97,596.69,642.97,613.42z"/>
					<ellipse fill="#6081C1" cx="618.64" cy="613.42" rx="19.94" ry="30.28"/>
				</g>
				<path fill="#222B3F" d="M627.15,613.42c0,11.24-6,20.36-13.4,20.36H598.7v-40.71h15.05
					C621.15,593.07,627.15,602.18,627.15,613.42z"/>
				<ellipse fill="#6081C1" cx="598.19" cy="613.42" rx="13.4" ry="20.35"/>
			</g>
		</g>
	</g>
	<g id="right_arm_00000029018626865904191930000009722141627352071084_">
		<g id="right_arm">
			<g>
				<g>
					<path fill="#6081C1" d="M450.89,555.93c-24.93,64.83-91.79,209.1-114.69,222.02c-22.92,12.92-68.79-15.66-68.79-15.66
						l11.61-104.72c0,0,58.45-150.2,82.8-198.77s37.33-51.72,37.33-51.72C433.6,419.96,478.78,483.46,450.89,555.93z"/>
				</g>
				<g opacity="0.3">
					<path fill="#FFFFFF" d="M410.41,411.21c12.43,7.84,25.04,21.1,34.58,38.14c9.53,17.04,15.98,37.89,15.99,60.87
						c0,14.69-2.64,30.24-8.78,46.2c-10.37,26.97-27.96,67.59-46.63,106.85c-0.33,0.69-1.16,0.98-1.85,0.66
						c-0.69-0.33-0.98-1.16-0.66-1.85c18.65-39.19,36.22-79.78,46.55-106.65c6.02-15.65,8.6-30.85,8.6-45.21
						c0-22.46-6.31-42.84-15.63-59.51c-9.32-16.67-21.67-29.62-33.64-37.15c-0.65-0.41-0.84-1.26-0.43-1.91
						C408.9,411,409.76,410.8,410.41,411.21L410.41,411.21z"/>
				</g>
				<path fill="#222B3F" d="M389.43,735.78c-5.17,58.6-96.55,91.12-128.56,35.86c-32.01-55.26-11.85-128.9,49.99-123.67
					C363.74,652.47,394.6,677.18,389.43,735.78z"/>
			</g>
		</g>
	</g>
	<g id="right_forearm_00000165923719518643683900000016674406140527957121_">
		<g id="right_forearm">
			<g>
				<g>
					<g>
						<path fill="#9F5353" d="M605.53,609.07c-4.19-6.93-55.23-17.65-70.45,7.61c-15.21,25.24-16.6,58.58-16.6,58.58l-169.13-2.41
							c0,0-64.74-0.38-60.39,47.14c0.11,1.09,1.67,10.07,1.8,11.12c4.52,37.85,40.68,54.61,77.5,44.78
							c42.01-11.21,123.49-32.82,160.28-41.6l-0.01-0.06c6.4-1.55,12.72-3.19,18.67-4.84c31.46-4.04,13.6-25.64,34.32-40.06
							c20.7-14.44,30.44,1.04,37.19-9.97c6.75-11.04-11.21-16.83-11.21-16.83s12.59-1.11,10-10.31
							c-2.45-8.7-10.24-11.03-11.07-11.27c0.94-0.05,10.14-0.47,8.87-9.04c-1.33-9.03-15.47-11.93-15.47-11.93
							S609.74,615.98,605.53,609.07z"/>
					</g>
					<g>
						<path fill="#222B3F" d="M596.1,620.19c0.26-1.31-0.62-2.58-1.93-2.83c-19.44-3.66-40.87,2.51-41.78,2.76
							c-1.28,0.37-2.01,1.73-1.65,3.01c0.37,1.28,1.73,2.01,3.01,1.65c0.2-0.06,21.23-6.1,39.5-2.64c0.24,0.05,0.46,0.05,0.69,0.04
							C594.99,622.08,595.89,621.29,596.1,620.19z"/>
					</g>
					<g>
						<path fill="#222B3F" d="M600.86,642.37c0.26-1.31-0.62-2.58-1.93-2.83c-19.41-3.69-38.57,1.27-39.37,1.48
							c-1.29,0.33-2.06,1.67-1.72,2.96c0.33,1.29,1.65,2.05,2.96,1.72c0.17-0.05,18.91-4.88,37.21-1.42
							c0.24,0.05,0.46,0.05,0.69,0.04C599.73,644.22,600.63,643.43,600.86,642.37z"/>
					</g>
					<g>
						<path fill="#222B3F" d="M605.25,663.91c0.26-1.31-0.62-2.58-1.93-2.83c-19.45-3.69-36.6,1.44-37.31,1.65
							c-1.28,0.4-2.01,1.76-1.61,3.04c0.4,1.28,1.76,2.01,3.04,1.61c0.17-0.05,16.72-4.97,35-1.52c0.24,0.05,0.46,0.05,0.69,0.04
							C604.16,665.78,605.06,664.99,605.25,663.91z"/>
					</g>
				</g>
			</g>
		</g>
	</g>
</g>
<g id="Layer_x5F_Red_Cross">
	<g>
		<circle fill="#374D6D" cx="1070.85" cy="490.16" r="72.5"/>
		<g>
			<path fill="#FF8D88" d="M1106.64,484.98v10.36c0,4.72-3.82,8.54-8.54,8.54h-13.54v13.53c0,4.72-3.82,8.54-8.54,8.54h-10.36
				c-4.72,0-8.54-3.82-8.54-8.54v-13.53h-13.53c-4.72,0-8.54-3.82-8.54-8.54v-10.36c0-4.72,3.82-8.54,8.54-8.54h13.53v-13.53
				c0-4.72,3.82-8.54,8.54-8.54h10.36c4.72,0,8.54,3.82,8.54,8.54v13.53h13.54C1102.82,476.44,1106.64,480.27,1106.64,484.98z"/>
		</g>
	</g>
</g>
<g id="Layer_x5F_Gender">
	<g>
		<circle fill="#6081C1" cx="834.17" cy="277.91" r="110.23"/>
		<g>
			<path fill="#FFFFFF" d="M881.59,240.18l6.72-6.72c2.68-2.68,2.68-7.02,0-9.69c-2.68-2.68-7.02-2.68-9.69,0l-6.72,6.72l-6.72-6.72
				c-2.68-2.68-7.02-2.68-9.69,0s-2.68,7.02,0,9.69l6.72,6.72l-7.2,7.2c-8.52-6.39-18.68-9.6-28.84-9.6
				c-12.32,0-24.64,4.7-34.04,14.1c-18.8,18.8-18.8,49.27,0,68.07c9.4,9.4,21.72,14.1,34.04,14.1c12.32,0,24.64-4.7,34.04-14.1
				c17.15-17.15,18.64-44.02,4.5-62.88l7.2-7.2l6.72,6.72c2.68,2.68,7.02,2.68,9.69,0c2.68-2.68,2.68-7.02,0-9.69L881.59,240.18z
				 M850.5,310.26c-6.5,6.5-15.15,10.08-24.34,10.08s-17.84-3.58-24.34-10.08c-6.5-6.5-10.08-15.15-10.08-24.34
				s3.58-17.84,10.08-24.34c6.5-6.5,15.15-10.08,24.34-10.08s17.84,3.58,24.34,10.08C863.92,275,863.92,296.84,850.5,310.26z"/>
		</g>
	</g>
</g>
<g id="Layer_x5F_Weight">
	<g>
		<circle fill="#6081C1" cx="1051.69" cy="747.91" r="91.3"/>
		<g>
			<g>
				<path fill="#FFFFFF" d="M1072.55,724.13v-3.44c0-5.75-2.34-10.99-6.11-14.75c-3.76-3.77-9.01-6.11-14.75-6.11l0,0
					c-5.75,0-10.99,2.34-14.75,6.11c-3.77,3.76-6.11,9.01-6.11,14.75v3.44h8.28v-3.44c0-3.49,1.4-6.61,3.69-8.9
					c2.29-2.28,5.41-3.68,8.9-3.69v0c3.49,0,6.61,1.4,8.9,3.69c2.28,2.29,3.68,5.41,3.69,8.9v3.44H1072.55z"/>
			</g>
			<g>
				<path fill="#FFFFFF" d="M1083.26,796h-63.15c-8.6,0-15.17-7.69-13.83-16.18l7.09-45c1.07-6.81,6.94-11.83,13.83-11.83h48.97
					c6.89,0,12.76,5.02,13.83,11.83l7.08,45C1098.43,788.31,1091.86,796,1083.26,796z"/>
			</g>
			<g>
				<path fill="#6081C1" d="M1039.62,761.7l-3.01,3.14v5.68h-5.16v-22.44h5.16v10.48l9.94-10.48h5.77l-9.3,10l9.84,12.44h-6.06
					L1039.62,761.7z"/>
				<path fill="#6081C1" d="M1071.92,753.27v14.36c0,6.41-3.46,9.36-9.68,9.36c-3.27,0-6.44-0.8-8.46-2.37l1.99-3.59
					c1.47,1.19,3.88,1.96,6.09,1.96c3.53,0,5.06-1.6,5.06-4.71v-0.74c-1.31,1.44-3.21,2.15-5.45,2.15c-4.78,0-8.63-3.3-8.63-8.34
					c0-5.04,3.85-8.34,8.63-8.34c2.4,0,4.39,0.8,5.71,2.47v-2.21H1071.92z M1066.99,761.35c0-2.53-1.89-4.23-4.52-4.23
					s-4.55,1.7-4.55,4.23c0,2.53,1.92,4.23,4.55,4.23S1066.99,763.88,1066.99,761.35z"/>
			</g>
		</g>
	</g>
</g>
<g id="Layer_x5F_Blood_group">
	<g>
		<circle fill="#374D6D" cx="920.81" cy="990.03" r="81.56"/>
		<path fill="#FF8D88" d="M949.14,1005.54c-0.27-7.62-2.35-15.08-6.1-21.73l-22.23-39.35l-22.23,39.35
			c-3.76,6.66-5.83,14.11-6.1,21.73c-0.03,0.56-0.05,1.12-0.05,1.69c0,15.68,12.71,28.38,28.38,28.38
			c15.68,0,28.38-12.71,28.38-28.38C949.2,1006.66,949.18,1006.1,949.14,1005.54z"/>
	</g>
</g>
<g id="Layer_x5F_Ground">
	<g>
		<path fill="#222B3F" d="M162.49,1110.23h904.64c1.1,0,2-0.9,2-2c0-1.1-0.9-2-2-2H162.49c-1.1,0-2,0.9-2,2
			C160.49,1109.34,161.38,1110.23,162.49,1110.23"/>
		<path fill="#222B3F" d="M293.96,1159h641.69c1.1,0,2-0.9,2-2c0-1.1-0.9-2-2-2H293.96c-1.1,0-2,0.9-2,2
			C291.96,1158.1,292.86,1159,293.96,1159"/>
	</g>
</g>
</svg>
