<?xml version="1.0" encoding="iso-8859-1"?>
<!-- Generator: Adobe Illustrator 26.0.2, SVG Export Plug-In . SVG Version: 6.00 Build 0)  -->
<svg version="1.1" xmlns="http://www.w3.org/2000/svg" xmlns:xlink="http://www.w3.org/1999/xlink" x="0px" y="0px"
	 viewBox="0 0 1200 1200" enable-background="new 0 0 1200 1200" xml:space="preserve">
<g id="Background_x5F_Simple">
	<g>
		<g>
			<path fill="#EEEEEE" d="M742.08,148.56L742.08,148.56c-2.47,0-4.48-2-4.48-4.48v-14.25c0-2.47,2-4.48,4.48-4.48l0,0
				c2.47,0,4.48,2,4.48,4.48v14.25C746.55,146.55,744.55,148.56,742.08,148.56z"/>
			<path fill="#EEEEEE" d="M752.58,159.06L752.58,159.06c0-2.47,2-4.48,4.48-4.48h14.25c2.47,0,4.48,2,4.48,4.48v0
				c0,2.47-2,4.48-4.48,4.48h-14.25C754.58,163.54,752.58,161.53,752.58,159.06z"/>
			<path fill="#EEEEEE" d="M742.08,169.57L742.08,169.57c2.47,0,4.48,2,4.48,4.48v14.25c0,2.47-2,4.48-4.48,4.48l0,0
				c-2.47,0-4.48-2-4.48-4.48v-14.25C737.6,171.57,739.6,169.57,742.08,169.57z"/>
			<path fill="#EEEEEE" d="M731.57,159.06L731.57,159.06c0,2.47-2,4.48-4.48,4.48h-14.25c-2.47,0-4.48-2-4.48-4.48v0
				c0-2.47,2-4.48,4.48-4.48h14.25C729.57,154.59,731.57,156.59,731.57,159.06z"/>
		</g>
		<g>
			<path fill="#EEEEEE" d="M987.98,709.5L987.98,709.5c-2.47,0-4.48-2-4.48-4.48v-14.25c0-2.47,2-4.48,4.48-4.48h0
				c2.47,0,4.48,2,4.48,4.48v14.25C992.46,707.49,990.45,709.5,987.98,709.5z"/>
			<path fill="#EEEEEE" d="M998.48,720L998.48,720c0-2.47,2-4.48,4.48-4.48h14.25c2.47,0,4.48,2,4.48,4.48l0,0
				c0,2.47-2,4.48-4.48,4.48h-14.25C1000.49,724.48,998.48,722.47,998.48,720z"/>
			<path fill="#EEEEEE" d="M987.98,730.5L987.98,730.5c2.47,0,4.48,2,4.48,4.48v14.25c0,2.47-2,4.48-4.48,4.48h0
				c-2.47,0-4.48-2-4.48-4.48v-14.25C983.5,732.51,985.51,730.5,987.98,730.5z"/>
			<path fill="#EEEEEE" d="M977.48,720L977.48,720c0,2.47-2,4.48-4.48,4.48h-14.25c-2.47,0-4.48-2-4.48-4.48l0,0
				c0-2.47,2-4.48,4.48-4.48H973C975.47,715.53,977.48,717.53,977.48,720z"/>
		</g>
		<g>
			<path fill="#EEEEEE" d="M241.68,531.88L241.68,531.88c-2.47,0-4.48-2-4.48-4.48v-14.25c0-2.47,2-4.48,4.48-4.48h0
				c2.47,0,4.48,2,4.48,4.48v14.25C246.16,529.88,244.16,531.88,241.68,531.88z"/>
			<path fill="#EEEEEE" d="M252.19,542.39L252.19,542.39c0-2.47,2-4.48,4.48-4.48h14.25c2.47,0,4.48,2,4.48,4.48l0,0
				c0,2.47-2,4.48-4.48,4.48h-14.25C254.19,546.86,252.19,544.86,252.19,542.39z"/>
			<path fill="#EEEEEE" d="M241.68,552.89L241.68,552.89c2.47,0,4.48,2,4.48,4.48v14.25c0,2.47-2,4.48-4.48,4.48h0
				c-2.47,0-4.48-2-4.48-4.48v-14.25C237.21,554.89,239.21,552.89,241.68,552.89z"/>
			<path fill="#EEEEEE" d="M231.18,542.39L231.18,542.39c0,2.47-2,4.48-4.48,4.48h-14.25c-2.47,0-4.48-2-4.48-4.48l0,0
				c0-2.47,2-4.48,4.48-4.48h14.25C229.18,537.91,231.18,539.91,231.18,542.39z"/>
		</g>
		<path fill="#EEEEEE" d="M361.14,190.96c-9.9,0-17.89,8.01-17.89,17.89c0,9.9,7.99,17.89,17.89,17.89
			c9.87,0,17.89-7.99,17.89-17.89C379.03,198.98,371.02,190.96,361.14,190.96z M361.14,218.54c-5.37,0-9.69-4.32-9.69-9.69
			c0-5.35,4.32-9.67,9.69-9.67c5.35,0,9.67,4.32,9.67,9.67C370.81,214.22,366.49,218.54,361.14,218.54z"/>
		<path fill="#EEEEEE" d="M944.74,417.68c-9.9,0-17.89,8.01-17.89,17.89c0,9.9,7.99,17.89,17.89,17.89
			c9.87,0,17.89-7.99,17.89-17.89C962.62,425.7,954.61,417.68,944.74,417.68z M944.74,445.26c-5.37,0-9.69-4.32-9.69-9.69
			c0-5.35,4.32-9.67,9.69-9.67c5.35,0,9.67,4.32,9.67,9.67C954.4,440.94,950.08,445.26,944.74,445.26z"/>
		<path fill="#EEEEEE" d="M138.65,769.73c-9.9,0-17.89,8.01-17.89,17.89c0,9.9,7.99,17.89,17.89,17.89
			c9.87,0,17.89-7.99,17.89-17.89C156.54,777.74,148.53,769.73,138.65,769.73z M138.65,797.3c-5.37,0-9.69-4.32-9.69-9.69
			c0-5.35,4.32-9.67,9.69-9.67c5.35,0,9.67,4.32,9.67,9.67C148.32,792.98,144,797.3,138.65,797.3z"/>
		<path fill="#EEEEEE" d="M498.36,863.22c-9.9,0-17.89,8.01-17.89,17.89c0,9.9,7.99,17.89,17.89,17.89
			c9.87,0,17.89-7.99,17.89-17.89C516.25,871.23,508.23,863.22,498.36,863.22z M498.36,890.8c-5.37,0-9.69-4.32-9.69-9.69
			c0-5.35,4.32-9.67,9.69-9.67c5.35,0,9.67,4.32,9.67,9.67C508.03,886.48,503.71,890.8,498.36,890.8z"/>
	</g>
</g>
<g id="Layer_x5F_Rock">
	<g>
		<polygon fill="#222B3F" points="816.6,452.97 841.42,521.6 750.31,628.56 593.11,609.85 587.06,609.13 541.22,599.31 
			406.53,570.46 361.79,374.38 439.5,325.88 439.5,271.05 580.64,164.12 752.45,238.26 771.69,299.35 845.83,378.18 		"/>
		<polygon opacity="0.1" fill="#FFFFFF" points="537.16,279.04 609.87,263.21 710.83,246.11 752.45,238.26 580.64,164.12 
			439.5,271.06 		"/>
		<polygon opacity="0.1" fill="#FFFFFF" points="492.96,416.87 522.19,368.76 439.5,325.88 361.79,374.38 		"/>
		<polygon opacity="0.1" fill="#FFFFFF" points="613.56,341.18 570.95,433.46 729.73,448.14 657.04,376.9 		"/>
		<polygon fill="#141A26" points="492.96,416.87 541.22,599.31 406.53,570.46 361.79,374.38 		"/>
		<polygon fill="#141A26" points="757.45,492.22 841.42,521.6 750.31,628.56 593.11,609.85 570.95,433.46 729.73,448.14 650,613.42 
					"/>
		<polygon fill="#141A26" points="816.6,452.97 729.73,448.14 765.99,376.95 845.83,378.18 		"/>
		<polygon fill="#141A26" points="439.5,271.06 537.16,279.04 522.19,368.76 439.5,325.88 		"/>
		<polygon fill="#141A26" points="609.87,263.21 613.56,341.18 657.04,376.9 698.31,337.35 710.83,246.11 		"/>
	</g>
</g>
<g id="Layer_x5F_Stress">
	<g>
		<path fill="#222B3F" d="M298.11,412.04c-0.26,0-0.53-0.07-0.77-0.21c-0.25-0.15-24.64-15.09-22.71-47.71
			c-2.03,0.33-4.13,0.62-6.29,0.86c-2.06,0.23-4,0.34-5.85,0.34c2.9,15.33-1.01,26.62-11.36,31.36
			c-13.46,6.16-35.82-1.35-45.6-20.63c-6.66-13.13-7.53-23.37-2.6-30.46c3.79-5.45,11.06-8.85,21.43-10.12
			c0.58-17.25,11.8-39.25,27.71-51.12c8.53-6.36,14.4-4.55,17.81-1.91c0.39,0.3,0.77,0.63,1.13,0.99c1.89-0.86,3.84-1.55,5.83-2.04
			c14.83-3.71,32.78,2.26,38.39,20.84c4.86,16.13,4.49,29.43-1.1,39.56c4.69,3.13,7.96,7.93,7.81,14.14
			c-0.17,7.2-6.45,12.21-16.38,13.08c-7.5,0.66-16.81-1.16-25.57-5.9c-0.76,0.17-1.54,0.32-2.32,0.48
			c-2.21,31.26,20.97,45.54,21.21,45.68c0.71,0.43,0.94,1.35,0.52,2.06C299.11,411.78,298.62,412.04,298.11,412.04z M224.36,338.45
			c-9.26,1.17-15.69,4.14-18.97,8.86c-4.25,6.11-3.3,15.32,2.82,27.38c9.03,17.81,29.45,24.85,41.67,19.26
			c9.13-4.18,12.4-14.53,9.54-28.74c-5.69-0.41-10.22-1.96-13.74-4.22c-11.45-0.82-16.75-6.86-19.2-12.51
			C225.19,345.52,224.51,342.12,224.36,338.45z M284.48,362.01c7.25,3.3,14.68,4.54,20.82,4c8.41-0.73,13.52-4.53,13.65-10.16
			c0.12-5-2.53-8.9-6.38-11.51C307.01,352.55,297.6,358.46,284.48,362.01z M261.84,362.31c1.96,0.03,4.01-0.07,6.16-0.31
			c2.39-0.27,4.68-0.59,6.9-0.97c0.04-0.33,0.08-0.66,0.13-0.98c-1.53-1.06-3.04-2.23-4.49-3.5c-2.74,1.12-5.87,2.12-9.43,2.93
			C261.37,360.44,261.62,361.38,261.84,362.31z M252.48,360.9c1.91,0.6,3.99,1.02,6.23,1.24c-0.17-0.67-0.35-1.35-0.55-2.04
			c-0.22,0.04-0.44,0.08-0.66,0.12C255.73,360.53,254.06,360.75,252.48,360.9z M278.32,358.66c0.7,0.45,1.4,0.87,2.11,1.28
			c14.01-3.21,23.91-8.93,29.53-17.08c-2.74-1.31-5.84-2.07-8.88-2.24c-5.13-0.28-10.86,1.07-15.37,4.86
			c-0.97,1.31-2.17,2.66-3.62,3.99C280.39,351.92,279.07,354.96,278.32,358.66z M246.51,358.02c3.14,0.18,6.63-0.07,10.46-0.75
			c0.1-0.02,0.2-0.04,0.31-0.06c-0.68-2.09-1.48-4.24-2.38-6.45c-0.31-0.77,0.05-1.64,0.82-1.96c0.77-0.32,1.64,0.05,1.96,0.82
			c0.98,2.39,1.83,4.72,2.56,6.99c2.79-0.64,5.4-1.42,7.82-2.35c-4.28-4.24-8.06-9.46-10.91-15.72c-2.42,0.51-4.99,0.62-7.69,0.31
			c-3.69-0.43-7.17-0.71-10.45-0.85c-0.45,2.66-0.48,5.31-0.05,7.82C239.86,351.09,242.48,355.21,246.51,358.02z M227.28,338.15
			c0.15,3.35,0.77,6.44,1.94,9.14c2.23,5.15,6.3,8.49,12,9.94c-2.89-3.21-4.57-7.06-5.23-10.92c-0.46-2.7-0.47-5.55-0.05-8.42
			C232.86,337.85,229.97,337.93,227.28,338.15z M273.55,355.19c0.69,0.57,1.39,1.12,2.11,1.64c0.29-1.18,0.64-2.3,1.04-3.36
			C275.72,354.06,274.68,354.64,273.55,355.19z M260.07,337.71c2.87,6.16,6.68,11.23,10.99,15.29c3.54-1.64,6.58-3.6,9.05-5.85
			c0.97-1.31,2.05-2.48,3.21-3.52c1.32-1.76,2.33-3.65,3.01-5.65c2.15-6.27,0.81-12.91-3.58-17.79c-1.71-1.9-3.75-3.39-6.03-4.45
			c-0.52,2.27-1.21,4.5-2.07,6.62C271.48,330.15,266.39,335.41,260.07,337.71z M299.76,337.58c0.49,0,0.98,0.01,1.47,0.04
			c3.53,0.19,7.12,1.1,10.3,2.67c5.16-9.4,5.44-21.9,0.83-37.2c-5.06-16.79-21.33-22.16-34.79-18.8c-1.52,0.38-3.06,0.89-4.56,1.53
			c4.3,6.25,5.92,16.77,4.3,26.9c2.91,1.24,5.51,3.07,7.67,5.47c5.13,5.69,6.7,13.46,4.19,20.77c-0.12,0.34-0.25,0.69-0.39,1.05
			C292.23,338.36,296.01,337.58,299.76,337.58z M239.69,335.03c3.2,0.15,6.57,0.42,10.12,0.83c2.25,0.26,4.3,0.19,6.15-0.13
			c-1.27-3.22-2.3-6.7-3.04-10.44c-0.47-2.34-0.77-4.59-0.93-6.76C245.75,322.57,241.52,328.68,239.69,335.03z M262.92,283.02
			c-2.7,0-5.73,1.24-9.06,3.73c-15.19,11.33-25.97,32.19-26.58,48.42c2.88-0.23,5.98-0.32,9.28-0.25
			c1.98-7.79,7.17-15.33,15.3-19.88c0.01-14.56,7.01-24.74,16.3-30.14c-0.04-0.03-0.08-0.06-0.12-0.09
			C266.5,283.62,264.79,283.02,262.92,283.02z M254.87,316.89c0.11,2.45,0.43,5.06,0.98,7.81c0.74,3.69,1.77,7.11,3.03,10.27
			c7.28-2.55,11.14-9.21,12.98-13.74c0.85-2.09,1.52-4.29,2.01-6.55c-3.76-1.08-8.02-1.15-12.5-0.12
			C259.05,315.12,256.88,315.9,254.87,316.89z M270.28,287.14c-8.17,4.44-15.03,13-15.44,26.43c1.83-0.79,3.78-1.44,5.86-1.92
			c4.88-1.13,9.55-1.08,13.71,0.06C275.82,302.28,274.27,292.49,270.28,287.14z"/>
	</g>
</g>
<g id="Layer_x5F_Plants">
	<g>
		<g>
			<path fill="#6081C1" d="M985.65,978.94c0,0-21.86-146.26,73.91-236.83C1059.56,742.1,1081.43,898.26,985.65,978.94z"/>
			<path fill="#314060" d="M1085.65,906.65c0,0-56.73,5.18-100,72.29C985.65,978.94,1057.24,976.61,1085.65,906.65z"/>
		</g>
		<g>
			<path fill="#314060" d="M640.22,978.94c0,0,2.85-78.36-29.94-125.98c-32.79-47.62-86.5-41.72-53.7,0
				c32.79,41.72,39.74,46.24,36.74,51.11c-3,4.87-41.49-25.95-49.1-1.98C536.62,926.04,606.48,942.96,640.22,978.94z"/>
			<path fill="#FF8D88" d="M615.51,978.94c0,0-40.4-5.84-54.18-22.48S582.72,935.83,615.51,978.94z"/>
		</g>
		<g>
			<path fill="#314060" d="M356.35,978.94c0,0-19.31-129.21,65.29-209.21C421.65,769.73,440.96,907.67,356.35,978.94z"/>
			<path fill="#314060" d="M444.69,915.08c0,0-50.11,4.58-88.33,63.86C356.35,978.94,419.59,976.88,444.69,915.08z"/>
		</g>
	</g>
</g>
<g id="Layer_x5F_Character_1">
	<g id="right_calf">
		<g>
			<g>
				<path fill="#222B3F" d="M923.22,844.36c0,0,24.71-10.84,48.95-10.84c0,0,7.6,3.8,6.65,41.82c-0.95,38.02-7.76,91.46-7.76,91.46
					l-41.67-7.81l-15.21-94.57L923.22,844.36z"/>
				<g opacity="0.3">
					<path fill="#FFFFFF" d="M952.96,944.56c-0.82,0-1.49-0.66-1.5-1.49c-0.21-21.26-6.13-57.39-6.19-57.75
						c-0.13-0.82,0.42-1.59,1.24-1.72c0.82-0.13,1.59,0.42,1.72,1.24c0.06,0.36,6.02,36.72,6.23,58.21
						c0.01,0.83-0.66,1.51-1.49,1.51C952.97,944.56,952.97,944.56,952.96,944.56z"/>
				</g>
				<g opacity="0.3">
					<path fill="#FFFFFF" d="M935.09,947.58c-0.82,0-1.49-0.66-1.5-1.49c-0.21-21.26-6.13-57.39-6.19-57.75
						c-0.13-0.82,0.42-1.59,1.24-1.72c0.82-0.13,1.59,0.42,1.72,1.24c0.06,0.36,6.02,36.72,6.23,58.21
						c0.01,0.83-0.66,1.51-1.49,1.51C935.1,947.58,935.1,947.58,935.09,947.58z"/>
				</g>
				<path fill="#FF8D88" d="M994.98,859.18c-0.48,30.89,0,89.82-5.23,119.76h-86.02c0,0-5.23-42.22,25.19-48.2
					c30.41-5.97,42.77,19.21,42.77,19.21s6.19-55.5,5.23-87.92c-0.58-19.56-4.62-27.76-7.72-31.19c4.8-1.18,10.2-1.84,16.15-1.6
					C985.35,829.24,995.45,828.29,994.98,859.18z"/>
			</g>
			<g>
				<path fill="#6081C1" d="M917.86,827.31l29.25,2.1c0,0,16.34,15.35,12.24,33.84c-4.1,18.5-18.47,32.25-18.47,32.25l-32.8,1.54
					c0,0-18.82-8.22-14.75-36.12C897.39,833.01,917.86,827.31,917.86,827.31z"/>
				<path opacity="0.3" fill="#FFFFFF" d="M917.86,827.31l29.25,2.1c0,0,16.34,15.35,12.24,33.84c-4.1,18.5-18.47,32.25-18.47,32.25
					l-32.8,1.54c0,0-18.82-8.22-14.75-36.12C897.39,833.01,917.86,827.31,917.86,827.31z"/>
				<g>
					<path fill="#6081C1" d="M936.32,853.97c-2.28-18.07-20.52-23.11-20.52-23.11l-57.89,2.16c-93.43,1.74-92.35,84.29-43.37,80.75
						l105-23.3C919.54,890.47,938.6,872.05,936.32,853.97z"/>
					<g opacity="0.3">
						<path fill="#FFFFFF" d="M813.09,882.61c-0.7,0-1.33-0.49-1.47-1.21c-0.16-0.81,0.37-1.6,1.18-1.76l108.61-21.57
							c0.8-0.16,1.6,0.37,1.76,1.18c0.16,0.81-0.37,1.6-1.18,1.76l-108.61,21.57C813.28,882.6,813.18,882.61,813.09,882.61z"/>
					</g>
				</g>
			</g>
		</g>
	</g>
	<g id="right_thigh">
		<g>
			<path fill="#6081C1" d="M724.48,631.18c-56.27-14.09-95.49,32.43-97.04,33.91l67.13,104.43l86.82,129.72
				c17.71,15.65,44.44,15.13,61.54-1.18l0,0c0.99-0.94,1.96-1.85,2.89-2.74c8.01-7.59,11.07-19.03,7.93-29.61l0,0
				c-1.25-4.2-3.43-8.07-6.37-11.31C847.38,854.4,750.51,637.69,724.48,631.18z"/>
			<g opacity="0.3">
				<path fill="#FFFFFF" d="M847.38,855.9c-0.03,0-0.06,0-0.09,0l-36.6-2.26c-0.52-0.03-0.99-0.33-1.23-0.8l-91.83-173.78
					c-5.14-5.78-13.52-7.43-20.47-4l-25.63,12.67c-0.74,0.37-1.64,0.06-2.01-0.68c-0.37-0.74-0.06-1.64,0.68-2.01l25.63-12.67
					c8.21-4.06,18.15-2.07,24.17,4.84c0.08,0.09,0.14,0.18,0.19,0.28l91.52,173.19l35.76,2.21c0.83,0.05,1.46,0.76,1.4,1.59
					C848.83,855.29,848.16,855.9,847.38,855.9z"/>
			</g>
		</g>
	</g>
	<g id="left_calf">
		<g>
			<g>
				<path fill="#222B3F" d="M807.12,844.36c0,0,24.71-10.84,48.95-10.84c0,0,7.6,3.8,6.65,41.82c-0.95,38.02-7.76,91.46-7.76,91.46
					l-41.67-7.81l-15.21-94.57L807.12,844.36z"/>
				<g opacity="0.3">
					<path fill="#FFFFFF" d="M836.86,944.56c-0.82,0-1.49-0.66-1.5-1.49c-0.21-21.26-6.13-57.39-6.19-57.75
						c-0.13-0.82,0.42-1.59,1.24-1.72c0.82-0.13,1.59,0.42,1.72,1.24c0.06,0.36,6.02,36.72,6.23,58.21
						c0.01,0.83-0.66,1.51-1.49,1.51C836.87,944.56,836.87,944.56,836.86,944.56z"/>
				</g>
				<g opacity="0.3">
					<path fill="#FFFFFF" d="M818.99,947.58c-0.82,0-1.49-0.66-1.5-1.49c-0.21-21.26-6.13-57.39-6.19-57.75
						c-0.13-0.82,0.42-1.59,1.24-1.72c0.82-0.13,1.59,0.42,1.72,1.24c0.06,0.36,6.02,36.72,6.23,58.21
						c0.01,0.83-0.66,1.51-1.49,1.51C819,947.58,819,947.58,818.99,947.58z"/>
				</g>
				<path fill="#FF8D88" d="M878.88,859.18c-0.48,30.89,0,89.82-5.23,119.76h-86.02c0,0-5.23-42.22,25.19-48.2
					c30.41-5.97,42.77,19.21,42.77,19.21s6.19-55.5,5.23-87.92c-0.58-19.56-4.62-27.76-7.72-31.19c4.8-1.18,10.2-1.84,16.15-1.6
					C869.25,829.24,879.35,828.29,878.88,859.18z"/>
			</g>
			<path fill="#6081C1" d="M776.42,840.85l25.55-14.4c0,0,22.09,3.78,28.89,21.46c6.8,17.68,2.41,37.09,2.41,37.09l-26.5,19.39
				c0,0-20.23,3.54-32.25-21.97C762.5,856.91,776.42,840.85,776.42,840.85z"/>
			<path opacity="0.3" fill="#FFFFFF" d="M776.42,840.85l25.55-14.4c0,0,22.09,3.78,28.89,21.46c6.8,17.68,2.41,37.09,2.41,37.09
				l-26.5,19.39c0,0-20.23,3.54-32.25-21.97C762.5,856.91,776.42,840.85,776.42,840.85z"/>
			<g>
				<path fill="#6081C1" d="M806.53,852.89c-11.88-13.81-29.87-7.93-29.87-7.93l-47.07,33.76c-76.93,53.04-30.45,121.27,8.43,91.27
					l74.68-77.4C812.7,892.58,818.42,866.69,806.53,852.89z"/>
				<g>
					<path fill="#6081C1" d="M775.79,843.73l-47.07,33.76c-0.67,0.48-0.83,1.42-0.34,2.09c0.48,0.67,1.42,0.83,2.09,0.34
						l47.07-33.76c0.67-0.48,0.83-1.42,0.34-2.09C777.4,843.41,776.46,843.25,775.79,843.73"/>
				</g>
				<g opacity="0.3">
					<path fill="#FFFFFF" d="M775.79,843.73l-47.07,33.76c-0.67,0.48-0.83,1.42-0.34,2.09c0.48,0.67,1.42,0.83,2.09,0.34
						l47.07-33.76c0.67-0.48,0.83-1.42,0.34-2.09C777.4,843.41,776.46,843.25,775.79,843.73"/>
				</g>
				<g opacity="0.3">
					<path fill="#FFFFFF" d="M718.77,945.05c-0.39,0-0.77-0.15-1.07-0.44c-0.58-0.59-0.58-1.54,0.01-2.12l78.65-77.96
						c0.59-0.58,1.54-0.58,2.12,0.01c0.58,0.59,0.58,1.54-0.01,2.12l-78.65,77.96C719.54,944.91,719.15,945.05,718.77,945.05z"/>
				</g>
			</g>
		</g>
	</g>
	<g id="left_thigh">
		<g>
			<path fill="#6081C1" d="M752.99,767.91c4.28-45.62,9.98-106.93-7.13-127.6c-17.11-20.67-74.14-17.11-76.28-17.11l-23.52,121.9
				l16.41,192.19c2.01,23.54,21.71,41.63,45.34,41.63h0c1.37,0,2.69,0.01,3.98,0.02c11.03,0.04,21.15-6.13,26.18-15.95l0,0
				c2-3.9,3.09-8.2,3.2-12.58l1.85-72C743.01,878.41,748.71,813.53,752.99,767.91z"/>
			<g>
				<g>
					<path fill="#6081C1" d="M743.68,910.56L743.68,910.56 M757.45,696.66c-0.83,0-1.5,0.67-1.5,1.5
						c-0.07,22.66-2.42,47.9-4.46,69.62c-4.28,45.63-9.98,110.5-9.98,110.5l-0.01,0.09l-0.82,32.12c-0.02,0.83,0.63,1.52,1.46,1.54
						c0.01,0,0.03,0,0.04,0c0.81,0,1.48-0.65,1.5-1.46h0l0.82-32.07c0.02-0.22,0.11-1.2,0.25-2.83c1.15-13.04,5.98-67.7,9.73-107.61
						c2.04-21.73,4.4-47.04,4.47-69.89C758.96,697.33,758.29,696.66,757.45,696.66C757.46,696.66,757.45,696.66,757.45,696.66"/>
				</g>
				<g opacity="0.3">
					<path fill="#FFFFFF" d="M743.68,910.56L743.68,910.56 M757.45,696.66c-0.83,0-1.5,0.67-1.5,1.5
						c-0.07,22.66-2.42,47.9-4.46,69.62c-4.28,45.63-9.98,110.5-9.98,110.5l-0.01,0.09l-0.82,32.12c-0.02,0.83,0.63,1.52,1.46,1.54
						c0.01,0,0.03,0,0.04,0c0.81,0,1.48-0.65,1.5-1.46h0l0.82-32.07c0.02-0.22,0.11-1.2,0.25-2.83c1.15-13.04,5.98-67.7,9.73-107.61
						c2.04-21.73,4.4-47.04,4.47-69.89C758.96,697.33,758.29,696.66,757.45,696.66C757.46,696.66,757.45,696.66,757.45,696.66"/>
				</g>
			</g>
			<g opacity="0.3">
				<path fill="#FFFFFF" d="M725.38,934.54c-1.49,0-3.01-0.33-4.46-0.99c-4.01-1.83-6.38-5.71-6.17-10.11l10.43-227.7
					c0.36-7.79-4.6-14.86-12.04-17.19l-27.29-8.53c-0.79-0.25-1.23-1.09-0.98-1.88c0.25-0.79,1.09-1.23,1.88-0.98l27.29,8.53
					c8.75,2.74,14.56,11.04,14.14,20.19l-10.43,227.7c-0.17,3.77,2.17,6.22,4.42,7.25c2.25,1.03,5.63,1.2,8.37-1.4l10.35-9.83
					c0.6-0.57,1.55-0.55,2.12,0.06c0.57,0.6,0.55,1.55-0.06,2.12l-10.35,9.83C730.56,933.53,728,934.54,725.38,934.54z"/>
			</g>
		</g>
	</g>
	<g id="right_arm">
		<g>
			<g>
				<path fill="#FBBDBB" d="M377.48,692.36l-63.45-0.71c0,0-4.38,26.56-8.56,57.1c-3.25,36.01,53.83,46.98,64.43,8.64
					C376.78,706.97,377.48,692.36,377.48,692.36z"/>
			</g>
			<g>
				<path fill="#FF8D88" d="M373.3,539.85c0,0-10.93-2.15-23.91,11.08c-29.18,29.75-64.58,150.83-64.58,150.83l102.65,20.55
					l19.01-140.2C406.47,582.11,396.08,547.38,373.3,539.85z"/>
				<g opacity="0.3">
					<path fill="#FFFFFF" d="M299.52,687.18l85.46,18.05c0.81,0.17,1.61-0.35,1.78-1.16c0.17-0.81-0.35-1.61-1.16-1.78l-85.46-18.05
						c-0.81-0.17-1.61,0.35-1.78,1.16C298.19,686.21,298.71,687.01,299.52,687.18"/>
				</g>
			</g>
		</g>
	</g>
	<g id="right_forearm">
		<g>
			<path fill="#FBBDBB" d="M369.9,757.39c4.01-39.72-59.09-43.2-64.43-8.64c-2.57,18.75-5.06,38.99-6.41,55.53
				c-3.56,43.49-7.84,136.63-7.84,136.63s-58.46,23.76-69.86,25.9s-11.41,12.12,3.56,12.12h95.57c6.53,0,12.49-3.69,15.41-9.53
				c1.98-3.95,2.36-8.51,1.07-12.74l-5.83-13.61c0,0,31.37-131.64,38.5-183.68C369.73,758.7,369.81,758.06,369.9,757.39z"/>
			<g>
				<path fill="#222B3F" d="M261.31,978.27c-0.38,0-0.77-0.15-1.06-0.44c-1.68-1.68-2.61-3.91-2.61-6.29c0-3.65,2.29-6.99,5.7-8.3
					c0.06-0.02,0.12-0.04,0.19-0.06l36.61-8.87c0.81-0.19,1.62,0.3,1.81,1.1c0.19,0.81-0.3,1.62-1.1,1.81l-36.51,8.84
					c-2.21,0.89-3.69,3.08-3.69,5.47c0,1.58,0.61,3.06,1.73,4.17c0.59,0.59,0.59,1.54,0,2.12
					C262.07,978.12,261.69,978.27,261.31,978.27z"/>
			</g>
		</g>
	</g>
	<g id="body">
		<g>
			<path fill="#FF8D88" d="M691.68,599.92c0,0-60.43-12.83-98.21-23.53s-91.96-44.42-91.96-44.42l-128.22,7.88
				c0,0-17.56,14.22-17.56,42.74s16.04,89.82,91.6,152.55s188.03,70.09,188.03,70.09s66.3-62.73,67.01-123.33
				C703.09,621.3,691.68,599.92,691.68,599.92z"/>
			<g>
				<path fill="#FF8D88" d="M389.57,674.91c-0.48,0-0.94-0.22-1.23-0.64c-30.78-44.36-34.1-78.9-34.1-91.68
					c0-20.54,8.92-33.87,14.23-39.99c0.54-0.63,1.49-0.69,2.12-0.15c0.63,0.54,0.69,1.49,0.15,2.12c-5.04,5.8-13.5,18.45-13.5,38.02
					c0,12.51,3.27,46.31,33.56,89.97c0.47,0.68,0.3,1.62-0.38,2.09C390.16,674.82,389.86,674.91,389.57,674.91z"/>
			</g>
			<g opacity="0.3">
				<path fill="#FFFFFF" d="M389.57,674.91c-0.48,0-0.94-0.22-1.23-0.64c-30.78-44.36-34.1-78.9-34.1-91.68
					c0-20.54,8.92-33.87,14.23-39.99c0.54-0.63,1.49-0.69,2.12-0.15c0.63,0.54,0.69,1.49,0.15,2.12c-5.04,5.8-13.5,18.45-13.5,38.02
					c0,12.51,3.27,46.31,33.56,89.97c0.47,0.68,0.3,1.62-0.38,2.09C390.16,674.82,389.86,674.91,389.57,674.91z"/>
			</g>
		</g>
	</g>
	<g id="left_arm">
		<g>
			<path fill="#FBBDBB" d="M516.25,682.38c0,0,14.73,65.11,22.81,83.64c8.08,18.53,55.13,19.49,61.31-9.03s-11.88-85.54-11.88-85.54
				L516.25,682.38z"/>
			<path fill="#FF8D88" d="M499.14,531.97c-23.89,10.98-15.21,71.05-13.78,97.66c1.43,26.61,7.13,71.29,7.13,71.29l112.16-13.78
				c0,0-33.34-88.75-45.69-117.74C546.59,540.4,516.72,523.89,499.14,531.97z"/>
			<path fill="#FF8D88" d="M606.05,686.61c0,0-8.34-22.19-18.22-48.01c-9.88-25.82-21.3-55.25-27.5-69.79
				c-0.32-0.76-1.21-1.12-1.97-0.79c-0.76,0.32-1.12,1.21-0.79,1.97c6.16,14.45,17.58,43.89,27.46,69.69
				c4.94,12.9,9.49,24.9,12.81,33.67c1.66,4.39,3.01,7.97,3.94,10.45c0.31,0.82,0.57,1.51,0.79,2.09l-108.78,13.37
				c-0.02-0.15-0.04-0.31-0.06-0.49c-0.25-2.01-0.67-5.46-1.2-9.85l94.72-11.93c0.82-0.1,1.4-0.85,1.3-1.68
				c-0.1-0.82-0.85-1.4-1.68-1.3l-94.69,11.92c-1.8-15.39-4.42-39.55-5.33-56.38c-0.64-11.91-2.7-30.33-2.7-48.03
				c0-9.05,0.54-17.91,2.06-25.56c1.52-7.66,4.03-14.07,7.8-18.3c0.55-0.62,0.49-1.57-0.13-2.12s-1.57-0.49-2.12,0.13l0,0
				c-4.31,4.87-6.92,11.77-8.5,19.71c-1.58,7.95-2.12,16.97-2.12,26.14c0,17.92,2.08,36.43,2.71,48.19
				c1.43,26.72,7.14,71.38,7.14,71.4c0.1,0.82,0.85,1.4,1.67,1.3l112.16-13.78c0.46-0.06,0.86-0.32,1.1-0.71
				S606.21,687.04,606.05,686.61z"/>
			<path opacity="0.3" fill="#FFFFFF" d="M606.05,686.61c0,0-8.34-22.19-18.22-48.01c-9.88-25.82-21.3-55.25-27.5-69.79
				c-0.32-0.76-1.21-1.12-1.97-0.79c-0.76,0.32-1.12,1.21-0.79,1.97c6.16,14.45,17.58,43.89,27.46,69.69
				c4.94,12.9,9.49,24.9,12.81,33.67c1.66,4.39,3.01,7.97,3.94,10.45c0.31,0.82,0.57,1.51,0.79,2.09l-108.78,13.37
				c-0.02-0.15-0.04-0.31-0.06-0.49c-0.25-2.01-0.67-5.46-1.2-9.85l94.72-11.93c0.82-0.1,1.4-0.85,1.3-1.68
				c-0.1-0.82-0.85-1.4-1.68-1.3l-94.69,11.92c-1.8-15.39-4.42-39.55-5.33-56.38c-0.64-11.91-2.7-30.33-2.7-48.03
				c0-9.05,0.54-17.91,2.06-25.56c1.52-7.66,4.03-14.07,7.8-18.3c0.55-0.62,0.49-1.57-0.13-2.12s-1.57-0.49-2.12,0.13l0,0
				c-4.31,4.87-6.92,11.77-8.5,19.71c-1.58,7.95-2.12,16.97-2.12,26.14c0,17.92,2.08,36.43,2.71,48.19
				c1.43,26.72,7.14,71.38,7.14,71.4c0.1,0.82,0.85,1.4,1.67,1.3l112.16-13.78c0.46-0.06,0.86-0.32,1.1-0.71
				S606.21,687.04,606.05,686.61z"/>
		</g>
	</g>
	<g id="left_forearm">
		<g>
			<path fill="#FBBDBB" d="M541.08,782.18c-42.42-11.05-109.85-84.59-109.85-84.59l-6.73-1.1c-5.6-0.91-10.81-3.47-14.96-7.35
				l-9.15-8.54l-35.08,2.15c-0.14,0.01-0.28,0.01-0.42,0.01c-3.04,0-5.71-2.08-6.45-5.07c-0.92-3.8,1.62-7.57,5.48-8.14l-0.64,0.09
				c-0.36,0.06-0.73,0.08-1.09,0.08c-3.29,0-6.23-2.25-7.03-5.54c-1.01-4.15,1.76-8.27,5.98-8.89l-1.31,0.19
				c-0.36,0.05-0.72,0.08-1.07,0.08c-3.3,0-6.25-2.25-7.05-5.54c-1.01-4.14,1.76-8.25,5.96-8.89l-2.18,0.32
				c-0.31,0.05-0.62,0.07-0.93,0.07c-2.84,0-5.39-1.95-6.08-4.79c-0.84-3.48,1.39-6.96,4.91-7.63c15-2.86,50.98-9.61,52.11-8.86
				c1.43,0.95,36.6,48.48,36.6,48.48l105.04,35.04c16.39,3.93,51.68,25.31,53.11,45.63C601.67,769.71,583.5,793.23,541.08,782.18z"
				/>
			<g>
				<path fill="#222B3F" d="M594.76,737.25c-0.47,0-0.94-0.22-1.23-0.64c-10.59-15.04-34.36-28.42-46.74-31.39
					c-0.81-0.19-1.3-1-1.11-1.81s1-1.3,1.81-1.11c12.57,3.01,37.07,16.35,48.5,32.58c0.48,0.68,0.31,1.61-0.36,2.09
					C595.36,737.16,595.06,737.25,594.76,737.25z"/>
			</g>
			<g>
				<g>
					<path fill="#222B3F" d="M363.92,671.05c-0.73,0-1.37-0.54-1.48-1.28c-0.12-0.82,0.44-1.58,1.26-1.7l40.32-6
						c0.82-0.13,1.58,0.44,1.7,1.26c0.12,0.82-0.44,1.58-1.26,1.7l-40.32,6C364.07,671.05,363.99,671.05,363.92,671.05z"/>
				</g>
				<g>
					<path fill="#222B3F" d="M361.14,656.79c-0.73,0-1.37-0.54-1.48-1.28c-0.12-0.82,0.44-1.58,1.26-1.7l39.89-5.93
						c0.82-0.13,1.58,0.44,1.7,1.26c0.12,0.82-0.44,1.58-1.26,1.7l-39.89,5.93C361.29,656.79,361.21,656.79,361.14,656.79z"/>
				</g>
				<g>
					<path fill="#222B3F" d="M357.67,642.63c-0.73,0-1.37-0.54-1.48-1.28c-0.12-0.82,0.44-1.58,1.26-1.7l40.14-5.97
						c0.82-0.13,1.58,0.44,1.7,1.26c0.12,0.82-0.44,1.58-1.26,1.7l-40.14,5.97C357.82,642.63,357.74,642.63,357.67,642.63z"/>
				</g>
			</g>
		</g>
	</g>
	<g id="neck">
		<g>
			<path fill="#6081C1" d="M389.06,561.44c-1.36,7.9,0.77,18.09,2.14,23.4c0.55,2.15,2.43,3.69,4.64,3.85l24.53,1.81
				c0,0,13.96-8.57,15.14-25.61c1.17-17.04-8.55-26.53-8.55-26.53l-23.32-5.56c-2.13-0.51-4.38,0.36-5.55,2.21
				C395.58,538.95,391.53,547.15,389.06,561.44z"/>
			<g>
				<path fill="#FBBDBB" d="M369.17,548.74l10.74,0.32l25.24,0.76c0.11,0.55,0.18,1.09,0.26,1.64c1.37,9.62-0.72,18.06-3.15,23.97
					l-13.24-3.55l-18.53-4.98L369.17,548.74z"/>
				<path fill="#222B3F" d="M369.17,548.74l10.74,0.32c3.8,4.54,7.54,11.67,9.11,22.81l-18.53-4.98L369.17,548.74z"/>
			</g>
			<g>
				<path opacity="0.3" fill="#FFFFFF" d="M407.15,558.33c-0.12,7.24-1.93,13.35-3.67,17.59c-0.31,0.73-0.61,1.43-0.92,2.1
					c-2.1,4.56-4.12,7.23-4.2,7.34c-0.44,0.58-1.27,0.69-1.85,0.25c-0.58-0.44-0.69-1.27-0.25-1.85c0.02-0.03,1.94-2.57,3.9-6.83
					c0.29-0.64,0.58-1.31,0.88-2.01c2.15-5.25,4.43-13.55,3.06-23.27c-0.08-0.56-0.15-1.07-0.25-1.57
					c-0.73-4.06-2.1-8.12-4.08-12.08c-0.33-0.65-0.06-1.45,0.59-1.77c0.65-0.33,1.45-0.06,1.77,0.59c2.1,4.19,3.55,8.49,4.31,12.78
					c0.1,0.53,0.18,1.09,0.26,1.64C407.06,553.69,407.19,556.07,407.15,558.33z"/>
			</g>
			<g>
				<path opacity="0.3" fill="#FFFFFF" d="M407.15,558.33c-0.12,7.24-1.93,13.35-3.67,17.59c-0.31,0.73-0.61,1.43-0.92,2.1
					c-2.1,4.56-4.12,7.23-4.2,7.34c-0.44,0.58-1.27,0.69-1.85,0.25c-0.58-0.44-0.69-1.27-0.25-1.85c0.02-0.03,1.94-2.57,3.9-6.83
					c0.29-0.64,0.58-1.31,0.88-2.01c2.15-5.25,4.43-13.55,3.06-23.27c-0.08-0.56-0.15-1.07-0.25-1.57
					c-0.73-4.06-2.1-8.12-4.08-12.08c-0.33-0.65-0.06-1.45,0.59-1.77c0.65-0.33,1.45-0.06,1.77,0.59c2.1,4.19,3.55,8.49,4.31,12.78
					c0.1,0.53,0.18,1.09,0.26,1.64C407.06,553.69,407.19,556.07,407.15,558.33z"/>
			</g>
			<g>
				<g>
					<path fill="#6081C1" d="M407.15,558.33c-0.12,7.24-1.93,13.35-3.67,17.59c-0.31,0.73-0.61,1.43-0.92,2.1
						c-2.1,4.56-4.12,7.23-4.2,7.34c-0.44,0.58-1.27,0.69-1.85,0.25c-0.58-0.44-0.69-1.27-0.25-1.85c0.02-0.03,1.94-2.57,3.9-6.83
						c0.29-0.64,0.58-1.31,0.88-2.01c2.15-5.25,4.43-13.55,3.06-23.27c-0.08-0.56-0.15-1.07-0.25-1.57
						c-0.73-4.06-2.1-8.12-4.08-12.08c-0.33-0.65-0.06-1.45,0.59-1.77c0.65-0.33,1.45-0.06,1.77,0.59c2.1,4.19,3.55,8.49,4.31,12.78
						c0.1,0.53,0.18,1.09,0.26,1.64C407.06,553.69,407.19,556.07,407.15,558.33z"/>
				</g>
				<g>
					<path opacity="0.3" fill="#FFFFFF" d="M407.15,558.33c-0.12,7.24-1.93,13.35-3.67,17.59c-0.31,0.73-0.61,1.43-0.92,2.1
						c-2.1,4.56-4.12,7.23-4.2,7.34c-0.44,0.58-1.27,0.69-1.85,0.25c-0.58-0.44-0.69-1.27-0.25-1.85c0.02-0.03,1.94-2.57,3.9-6.83
						c0.29-0.64,0.58-1.31,0.88-2.01c2.15-5.25,4.43-13.55,3.06-23.27c-0.08-0.56-0.15-1.07-0.25-1.57
						c-0.73-4.06-2.1-8.12-4.08-12.08c-0.33-0.65-0.06-1.45,0.59-1.77c0.65-0.33,1.45-0.06,1.77,0.59c2.1,4.19,3.55,8.49,4.31,12.78
						c0.1,0.53,0.18,1.09,0.26,1.64C407.06,553.69,407.19,556.07,407.15,558.33z"/>
				</g>
			</g>
		</g>
	</g>
	<g id="head">
		<g>
			<g>
				<path fill="#FBBDBB" d="M341.69,496.31c-26.28,8.17-20.18,71.41-14.38,80.2s42.71-4.02,48.15-8.37
					c5.43-4.35,8.3-27.49,7.37-42.1C381.89,511.43,372.21,486.82,341.69,496.31z"/>
				<path fill="#314060" d="M377.86,544l-1.71-8.81c0,0-10.37-6.41-9.85-16.8c0,0-32.33,22.17-60.52,8.02c0,0,3.56-7.37,8.34-10.78
					c0,0-25.04-14.49-26.58-42.59c-0.57-10.34,27.63-2.99,38.21,7.78c0,0-12.46-25.27-2.06-42.15c3-4.87,24.09,13.01,32.77,32.08
					c0,0-0.1-16.42,5.41-23.56c1.87-2.42,13.57,11.04,18.71,34.18c0,0,19.85,6.94,29.83,23.53c9.98,16.59,4.61,42.89-30.65,52.29
					L377.86,544z"/>
				<g>
					<path fill="#FBBDBB" d="M377.86,544c0,0,6.1-22.06,19.68-17.81s3.04,31.3-19.93,32.92L377.86,544z"/>
					<g>
						<g>
							<path fill="#222B3F" d="M383.5,552.5c-0.06,0.01-0.12,0.02-0.18,0.03c-0.73,0.05-1.36-0.5-1.41-1.22
								c-0.01-0.17-1.08-17.26,12.82-20.44c0.01,0,0.01,0,0.02,0c0.71-0.15,1.4,0.29,1.57,1c0.16,0.71-0.28,1.42-0.99,1.58
								c-11.71,2.68-10.78,17.52-10.77,17.67C384.58,551.77,384.13,552.36,383.5,552.5z"/>
						</g>
						<g>
							<path fill="#222B3F" d="M392.25,547.96c-0.62,0.13-1.27-0.2-1.51-0.82c-0.02-0.06-2.13-5.47-5.11-8.28
								c-0.53-0.5-0.56-1.34-0.06-1.87c0.5-0.53,1.34-0.56,1.87-0.06c3.43,3.22,5.68,9.01,5.77,9.25c0.26,0.68-0.08,1.45-0.76,1.71
								C392.38,547.92,392.32,547.94,392.25,547.96z"/>
						</g>
					</g>
				</g>
			</g>
			<g>
				<g>
					<path fill="#222B3F" d="M341.02,556.1c-0.09,0.02-0.18,0.03-0.28,0.03c-0.25,0-6.15-0.05-8.14-4.98
						c-0.21-0.53-0.06-1.13,0.37-1.5c3.8-3.23,6.54-11.26,6.57-11.34c0.23-0.7,0.99-1.06,1.68-0.83c0.69,0.23,1.06,0.98,0.83,1.68
						c-0.11,0.34-2.67,7.81-6.59,11.79c1.63,2.49,5.24,2.55,5.28,2.55c0.73,0.01,1.32,0.6,1.31,1.33
						C342.06,555.45,341.61,555.98,341.02,556.1z"/>
				</g>
				<path fill="#222B3F" d="M338.21,566.3c0,0,4.8-7.37,12.01-8.09s7.65,5.96,7.65,5.96S349.93,562.58,338.21,566.3z"/>
				<path fill="#222B3F" d="M352.21,524.83c0,0,0.43-5.33,1.76-6.32c1.32-0.99,1.46,1.56,1.46,1.56s2.11,4.05,11.74,8.61
					C367.16,528.68,357.81,529.19,352.21,524.83z"/>
				<path fill="#222B3F" d="M339.77,524.54c0,0,0.34-5.35-0.51-6.6c-0.86-1.25-1.71,1.27-1.71,1.27s-2.68,4.98-9.32,6.01
					C328.22,525.21,330,528.11,339.77,524.54z"/>
				<g>
					
						<ellipse transform="matrix(0.0677 -0.9977 0.9977 0.0677 -208.6166 858.1957)" fill="#222B3F" cx="354.9" cy="540.72" rx="5.1" ry="4.09"/>
					<circle fill="#FFFFFF" cx="356.31" cy="538.48" r="1.41"/>
				</g>
				<g>
					
						<ellipse transform="matrix(0.0677 -0.9977 0.9977 0.0677 -226.3396 834.6867)" fill="#222B3F" cx="333.46" cy="538.45" rx="5.1" ry="4.09"/>
					<circle fill="#FFFFFF" cx="334.87" cy="536.21" r="1.41"/>
				</g>
			</g>
		</g>
	</g>
</g>
<g id="Layer_x5F_Ground">
	<g>
		<g>
			<g>
				<path fill="#222B3F" d="M1131.97,979.94H888.83c-0.55,0-1-0.45-1-1s0.45-1,1-1h243.14c0.55,0,1,0.45,1,1
					S1132.52,979.94,1131.97,979.94z"/>
			</g>
			<g>
				<path fill="#222B3F" d="M830.48,979.94H68.03c-0.55,0-1-0.45-1-1s0.45-1,1-1h762.45c0.55,0,1,0.45,1,1
					S831.03,979.94,830.48,979.94z"/>
			</g>
		</g>
		<g>
			<g>
				<path fill="#222B3F" d="M309.63,1027.29h-121.5c-0.55,0-1-0.45-1-1s0.45-1,1-1h121.5c0.55,0,1,0.45,1,1
					S310.18,1027.29,309.63,1027.29z"/>
			</g>
			<g>
				<path fill="#222B3F" d="M1046.82,1027.29H349.19c-0.55,0-1-0.45-1-1s0.45-1,1-1h697.62c0.55,0,1,0.45,1,1
					S1047.37,1027.29,1046.82,1027.29z"/>
			</g>
		</g>
		<g>
			<g>
				<path fill="#222B3F" d="M790.41,1074.64h-82.34c-0.55,0-1-0.45-1-1s0.45-1,1-1h82.34c0.55,0,1,0.45,1,1
					S790.96,1074.64,790.41,1074.64z"/>
			</g>
			<g>
				<path fill="#222B3F" d="M680.89,1074.64H310.58c-0.55,0-1-0.45-1-1s0.45-1,1-1h370.31c0.55,0,1,0.45,1,1
					S681.44,1074.64,680.89,1074.64z"/>
			</g>
		</g>
	</g>
</g>
</svg>
