<?xml version="1.0" encoding="iso-8859-1"?>
<!-- Generator: Adobe Illustrator 26.0.2, SVG Export Plug-In . SVG Version: 6.00 Build 0)  -->
<svg version="1.1" xmlns="http://www.w3.org/2000/svg" xmlns:xlink="http://www.w3.org/1999/xlink" x="0px" y="0px"
	 viewBox="0 0 1200 1200" enable-background="new 0 0 1200 1200" xml:space="preserve">
<g id="Background_x5F_Simple">
	<g>
		<g>
			<path fill="#EEEEEE" d="M643.81,646.63L643.81,646.63c-2.47,0-4.48-2-4.48-4.48V627.9c0-2.47,2-4.48,4.48-4.48l0,0
				c2.47,0,4.48,2,4.48,4.48v14.25C648.28,644.62,646.28,646.63,643.81,646.63z"/>
			<path fill="#EEEEEE" d="M654.31,657.13L654.31,657.13c0-2.47,2-4.48,4.48-4.48h14.25c2.47,0,4.48,2,4.48,4.48l0,0
				c0,2.47-2,4.48-4.48,4.48h-14.25C656.32,661.6,654.31,659.6,654.31,657.13z"/>
			<path fill="#EEEEEE" d="M643.81,667.63L643.81,667.63c2.47,0,4.48,2,4.48,4.48v14.25c0,2.47-2,4.48-4.48,4.48l0,0
				c-2.47,0-4.48-2-4.48-4.48v-14.25C639.33,669.64,641.34,667.63,643.81,667.63z"/>
			<path fill="#EEEEEE" d="M633.3,657.13L633.3,657.13c0,2.47-2,4.48-4.48,4.48h-14.25c-2.47,0-4.48-2-4.48-4.48l0,0
				c0-2.47,2-4.48,4.48-4.48h14.25C631.3,652.65,633.3,654.66,633.3,657.13z"/>
		</g>
		<g>
			<path fill="#EEEEEE" d="M1047.28,546.43L1047.28,546.43c-2.47,0-4.48-2-4.48-4.48V527.7c0-2.47,2-4.48,4.48-4.48l0,0
				c2.47,0,4.48,2,4.48,4.48v14.25C1051.75,544.42,1049.75,546.43,1047.28,546.43z"/>
			<path fill="#EEEEEE" d="M1057.78,556.93L1057.78,556.93c0-2.47,2-4.48,4.48-4.48h14.25c2.47,0,4.48,2,4.48,4.48l0,0
				c0,2.47-2,4.48-4.48,4.48h-14.25C1059.79,561.41,1057.78,559.4,1057.78,556.93z"/>
			<path fill="#EEEEEE" d="M1047.28,567.44L1047.28,567.44c2.47,0,4.48,2,4.48,4.48v14.25c0,2.47-2,4.48-4.48,4.48l0,0
				c-2.47,0-4.48-2-4.48-4.48v-14.25C1042.8,569.44,1044.81,567.44,1047.28,567.44z"/>
			<path fill="#EEEEEE" d="M1036.77,556.93L1036.77,556.93c0,2.47-2,4.48-4.48,4.48h-14.25c-2.47,0-4.48-2-4.48-4.48l0,0
				c0-2.47,2-4.48,4.48-4.48h14.25C1034.77,552.46,1036.77,554.46,1036.77,556.93z"/>
		</g>
		<g>
			<path fill="#EEEEEE" d="M390.45,137.47L390.45,137.47c-2.47,0-4.48-2-4.48-4.48v-14.25c0-2.47,2-4.48,4.48-4.48l0,0
				c2.47,0,4.48,2,4.48,4.48v14.25C394.92,135.47,392.92,137.47,390.45,137.47z"/>
			<path fill="#EEEEEE" d="M400.95,147.97L400.95,147.97c0-2.47,2-4.48,4.48-4.48h14.25c2.47,0,4.48,2,4.48,4.48v0
				c0,2.47-2,4.48-4.48,4.48h-14.25C402.95,152.45,400.95,150.45,400.95,147.97z"/>
			<path fill="#EEEEEE" d="M390.45,158.48L390.45,158.48c2.47,0,4.48,2,4.48,4.48v14.25c0,2.47-2,4.48-4.48,4.48l0,0
				c-2.47,0-4.48-2-4.48-4.48v-14.25C385.97,160.48,387.97,158.48,390.45,158.48z"/>
			<path fill="#EEEEEE" d="M379.94,147.97L379.94,147.97c0,2.47-2,4.48-4.48,4.48h-14.25c-2.47,0-4.48-2-4.48-4.48v0
				c0-2.47,2-4.48,4.48-4.48h14.25C377.94,143.5,379.94,145.5,379.94,147.97z"/>
		</g>
		<path fill="#EEEEEE" d="M124.6,261.79c-9.9,0-17.89,8.01-17.89,17.89c0,9.9,7.99,17.89,17.89,17.89c9.87,0,17.89-7.99,17.89-17.89
			C142.49,269.8,134.47,261.79,124.6,261.79z M124.6,289.36c-5.37,0-9.69-4.32-9.69-9.69c0-5.35,4.32-9.67,9.69-9.67
			c5.35,0,9.67,4.32,9.67,9.67C134.27,285.04,129.94,289.36,124.6,289.36z"/>
		<path fill="#EEEEEE" d="M1069.38,216.34c-9.9,0-17.89,8.01-17.89,17.89c0,9.9,7.99,17.89,17.89,17.89
			c9.87,0,17.89-7.99,17.89-17.89C1087.27,224.36,1079.26,216.34,1069.38,216.34z M1069.38,243.92c-5.37,0-9.69-4.32-9.69-9.69
			c0-5.35,4.32-9.67,9.69-9.67c5.35,0,9.67,4.32,9.67,9.67C1079.05,239.6,1074.73,243.92,1069.38,243.92z"/>
		<path fill="#EEEEEE" d="M93.68,582.41c-9.9,0-17.89,8.01-17.89,17.89c0,9.9,7.99,17.89,17.89,17.89c9.87,0,17.89-7.99,17.89-17.89
			C111.57,590.43,103.55,582.41,93.68,582.41z M93.68,609.99c-5.37,0-9.69-4.32-9.69-9.69c0-5.35,4.32-9.67,9.69-9.67
			c5.35,0,9.67,4.32,9.67,9.67C103.35,605.67,99.03,609.99,93.68,609.99z"/>
		<path fill="#EEEEEE" d="M669.06,168.96c-9.9,0-17.89,8.01-17.89,17.89c0,9.9,7.99,17.89,17.89,17.89
			c9.87,0,17.89-7.99,17.89-17.89C686.95,176.98,678.93,168.96,669.06,168.96z M669.06,196.54c-5.37,0-9.69-4.32-9.69-9.69
			c0-5.35,4.32-9.67,9.69-9.67c5.35,0,9.67,4.32,9.67,9.67C678.72,192.22,674.4,196.54,669.06,196.54z"/>
	</g>
</g>
<g id="Layer_x5F_Ground">
	<g>
		<g>
			<path fill="#222B3F" d="M86.15,1081.54h987.16c0.55,0,1-0.45,1-1c0-0.55-0.45-1-1-1H86.15c-0.55,0-1,0.45-1,1
				C85.15,1081.1,85.59,1081.54,86.15,1081.54"/>
		</g>
		<g>
			<path fill="#222B3F" d="M226.4,1115.66h706.64c0.55,0,1-0.45,1-1c0-0.55-0.45-1-1-1H226.4c-0.55,0-1,0.45-1,1
				C225.4,1115.21,225.85,1115.66,226.4,1115.66"/>
		</g>
	</g>
</g>
<g id="Layer_x5F_Plants">
	<g>
		<g>
			<g>
				<path fill="#6081C1" d="M564.27,745.41c-55.25,33.27-17.07,78.71,9.75,88.52c26.82,9.81-21.87,48.15,17.1,75.46
					s38.29,28.84,40.82,57.72c2.53,28.88,45.83,47.36,45.83,47.36s27.41-18.39,29.91-56.42c2.5-38.04-21.88-40.62-17.72-66.08
					c4.16-25.47,0.55-48.62-33.22-61.41c-33.77-12.79-2.25-36.07-21.24-65.31C616.51,736.01,586.9,731.79,564.27,745.41z"/>
				<g>
					<path fill="#222B3F" d="M692.38,1060.69c-3.96-14.58-8.4-30.27-13.17-46.64c-35.13-120.39-93.57-240.99-94.15-242.2
						c-0.36-0.75-1.26-1.06-2-0.69c-0.75,0.37-1.06,1.26-0.69,2c0.59,1.2,58.91,121.58,93.97,241.72
						c4.77,16.35,9.2,32.02,13.16,46.59c0.22,0.8,1.04,1.27,1.84,1.05c0.17-0.05,0.33-0.12,0.46-0.22
						C692.3,1061.96,692.55,1061.32,692.38,1060.69z"/>
				</g>
			</g>
			<g>
				<path fill="#FF8D88" d="M669.06,1048.31c0,0-30.11,2.57-57.96-1.63c-27.84-4.19-21.56-29.27-49.32-41.6s-126-43.13-93.94-97.34
					c34.78-58.82,94.06,15.75,127.32,49.87C628.43,991.73,647.26,936.59,669.06,1048.31z"/>
				<g>
					<path fill="#222B3F" d="M503.28,925.26c-0.7-0.44-1.63-0.22-2.07,0.48c-0.44,0.7-0.23,1.63,0.48,2.07
						c62.95,39.32,125.35,88.93,172.97,129.63c0.27,0.23,0.61,0.36,0.97,0.36l0,0c1.39,0,2.04-1.73,0.98-2.64
						C628.9,1014.38,566.37,964.67,503.28,925.26z"/>
				</g>
			</g>
		</g>
		<g>
			<g>
				<g>
					<path fill="#6081C1" d="M943.83,1019.23c0,0-24.76-93.75,49.24-246.51c72.71-150.08,149.69-52.29,77.7,73.76
						S943.83,1019.23,943.83,1019.23z"/>
					<path fill="#222B3F" d="M928.59,1072.87c3.96-14.58,8.4-30.27,13.17-46.64c35.13-120.39,93.57-240.99,94.15-242.2
						c0.36-0.75,1.26-1.06,2-0.69c0.75,0.37,1.06,1.26,0.69,2c-0.59,1.2-58.91,121.58-93.97,241.72
						c-4.77,16.35-9.2,32.02-13.16,46.59c-0.22,0.8-1.04,1.27-1.84,1.05c-0.17-0.05-0.33-0.12-0.46-0.22
						C928.67,1074.15,928.42,1073.5,928.59,1072.87z"/>
				</g>
			</g>
			<g>
				<path fill="#FF8D88" d="M956.92,1051.5c0,0,24.27,2.07,46.71-1.31c22.44-3.38,17.37-23.59,39.75-33.53
					c22.38-9.94,101.54-34.76,75.7-78.45c-28.03-47.4-75.8,12.69-102.61,40.19S974.49,961.46,956.92,1051.5z"/>
				<g>
					<path fill="#222B3F" d="M1102.39,942.35c0.7-0.44,1.63-0.22,2.07,0.48c0.44,0.7,0.23,1.63-0.48,2.07
						c-62.95,39.32-125.35,88.93-172.97,129.63c-0.27,0.23-0.61,0.36-0.97,0.36l0,0c-1.39,0-2.04-1.73-0.98-2.64
						C976.77,1031.47,1039.3,981.76,1102.39,942.35z"/>
				</g>
			</g>
		</g>
	</g>
</g>
<g id="Layer_x5F_Microscope">
	<g>
		<polygon fill="#222B3F" points="501.2,787.23 501.2,1031.04 117.67,1031.04 344.38,804.33 		"/>
		<path fill="#6081C1" d="M594.58,622.74c0,123.72-100.3,224.02-224.02,224.02c-75.75,0-142.73-37.6-183.26-95.17v-27.3h239.4
			c35.71-19.78,59.88-57.84,59.88-101.55c0-64.07-51.94-116.02-116.02-116.02c-20.58,0-39.9,5.36-56.65,14.76l-77.87-77.87
			c37.46-28.19,84.04-44.89,134.52-44.89C494.28,398.72,594.58,499.02,594.58,622.74z"/>
		<path opacity="0.3" fill="#FFFFFF" d="M370.56,415.72c-38.19,0-74.76,10.21-106.91,29.7l-1.09,0.66l54.75,54.75l0.62-0.27
			c16.54-7.12,34.49-10.84,52.64-10.84c36.68,0,69.92,14.92,94.02,39.01c24.09,24.09,39,57.34,39.01,94.01
			c0,48.36-26.3,92.97-68.64,116.42l-3.84,2.13H204.3v4.8l0.2,0.27c39.01,52.33,100.66,83.4,166.06,83.4
			c114.15,0,207.02-92.87,207.02-207.02C577.58,508.58,484.72,415.72,370.56,415.72z M515.47,767.64
			c-37.13,37.13-88.38,60.12-144.9,60.12c-64.66,0-125.62-30.67-164.26-82.34v-2.13h225.31l4.3-2.38
			c42.98-23.81,69.67-69.09,69.67-118.17c0-74.45-60.57-135.02-135.02-135.02c-18.19,0-36.18,3.69-52.8,10.74l-51.98-51.98
			c31.58-18.87,67.38-28.76,104.78-28.76c56.53,0,107.78,22.99,144.9,60.12c37.13,37.13,60.12,88.38,60.12,144.9
			C575.58,679.26,552.59,730.51,515.47,767.64z"/>
		<path fill="#222B3F" d="M410.13,751.59H123.56c-9.15,0-16.57-7.42-16.57-16.57v-29.94c0-9.15,7.42-16.57,16.57-16.57h286.57
			c9.15,0,16.57,7.42,16.57,16.57v29.94C426.7,744.17,419.28,751.59,410.13,751.59z"/>
		<path fill="#6081C1" d="M507.83,1062.58H97.5c-8.15,0-14.75-6.6-14.75-14.75v-33.59c0-8.15,6.6-14.75,14.75-14.75h410.34
			c8.15,0,14.75,6.6,14.75,14.75v33.59C522.59,1055.98,515.98,1062.58,507.83,1062.58z"/>
		<g>
			
				<rect x="394.73" y="261.41" transform="matrix(0.7071 0.7071 -0.7071 0.7071 337.0704 -227.4192)" fill="#6081C1" width="96.66" height="63.51"/>
			<path fill="#222B3F" d="M505.96,317.59l-87.33-87.33c-3.81-3.81-3.81-10,0-13.81l31.1-31.1c3.81-3.81,10-3.81,13.81,0
				l87.33,87.33c3.81,3.81,3.81,10,0,13.81l-31.1,31.1C515.96,321.4,509.78,321.4,505.96,317.59z"/>
			<path fill="#6081C1" d="M289.01,548.36L187.87,447.22L368.8,266.29c4.52-4.52,11.85-4.52,16.37,0l84.77,84.77
				c4.52,4.52,4.52,11.85,0,16.37L289.01,548.36z"/>
			<path opacity="0.3" fill="#FFFFFF" d="M289.01,548.36L187.87,447.22L368.8,266.29c4.52-4.52,11.85-4.52,16.37,0l84.77,84.77
				c4.52,4.52,4.52,11.85,0,16.37L289.01,548.36z"/>
			<g>
				<path fill="#6081C1" d="M168.04,514.13l-16.33-16.33c-2.3-2.3-2.3-6.03,0-8.33l49.1-49.1c4.36-4.36,11.43-4.36,15.79,0
					l8.87,8.87c4.36,4.36,4.36,11.43,0,15.79l-49.1,49.1C174.07,516.43,170.34,516.43,168.04,514.13z"/>
				<path opacity="0.3" fill="#FFFFFF" d="M168.04,514.13l-16.33-16.33c-2.3-2.3-2.3-6.03,0-8.33l49.1-49.1
					c4.36-4.36,11.43-4.36,15.79,0l8.87,8.87c4.36,4.36,4.36,11.43,0,15.79l-49.1,49.1C174.07,516.43,170.34,516.43,168.04,514.13z"
					/>
			</g>
			<g>
				<path fill="#6081C1" d="M203.27,549.36l-16.33-16.33c-2.3-2.3-2.3-6.03,0-8.33l49.1-49.1c4.36-4.36,11.43-4.36,15.79,0
					l8.87,8.87c4.36,4.36,4.36,11.43,0,15.79l-49.1,49.1C209.29,551.66,205.57,551.66,203.27,549.36z"/>
				<path opacity="0.3" fill="#FFFFFF" d="M203.27,549.36l-16.33-16.33c-2.3-2.3-2.3-6.03,0-8.33l49.1-49.1
					c4.36-4.36,11.43-4.36,15.79,0l8.87,8.87c4.36,4.36,4.36,11.43,0,15.79l-49.1,49.1C209.29,551.66,205.57,551.66,203.27,549.36z"
					/>
			</g>
			<g>
				<path fill="#6081C1" d="M238.49,584.59l-16.33-16.33c-2.3-2.3-2.3-6.03,0-8.33l49.1-49.1c4.36-4.36,11.43-4.36,15.79,0
					l8.87,8.87c4.36,4.36,4.36,11.43,0,15.79l-49.1,49.1C244.52,586.89,240.79,586.89,238.49,584.59z"/>
				<path opacity="0.3" fill="#FFFFFF" d="M238.49,584.59l-16.33-16.33c-2.3-2.3-2.3-6.03,0-8.33l49.1-49.1
					c4.36-4.36,11.43-4.36,15.79,0l8.87,8.87c4.36,4.36,4.36,11.43,0,15.79l-49.1,49.1C244.52,586.89,240.79,586.89,238.49,584.59z"
					/>
			</g>
			<path fill="#222B3F" d="M275.68,572.46L163.76,460.55c-5.29-5.29-5.29-13.87,0-19.16l25.45-25.45c5.29-5.29,13.87-5.29,19.16,0
				l111.92,111.92c5.29,5.29,5.29,13.87,0,19.16l-25.45,25.45C289.55,577.76,280.97,577.76,275.68,572.46z"/>
		</g>
	</g>
</g>
<g id="Layer_x5F_Character_1">
	<g id="right_leg">
		<g>
			<g>
				<path fill="#ECBDBB" d="M750.68,998.02c0,0-22.86,0.46-22.8-0.22c0.05-0.49-2.11-19.25-3.27-29.31
					c-0.42-3.71-0.72-6.24-0.72-6.24l27.83,0.04l-0.56,19.06L750.68,998.02z"/>
				<path fill="#222B3F" d="M751.73,962.29l-0.56,19.06c-13.98-3.45-22.41-9.28-26.55-12.87c-0.42-3.71-0.72-6.24-0.72-6.24
					L751.73,962.29z"/>
			</g>
			<g>
				<path fill="#222B3F" d="M723.36,988.22c0,0-33.22,28.64-37.81,28.87c-4.59,0.23-25.58,2.47-25.58,2.47l-11.45,32.41
					c0,0,78.07,9.16,119.38,4.61c1.76-22.19-1.32-48.52-10.45-66.78C746.96,992.29,735.65,991.93,723.36,988.22z"/>
				<g>
					<path opacity="0.3" fill="#FFFFFF" d="M695.06,1029.34c-0.43-0.04-0.83-0.31-1.02-0.73c-0.28-0.63,0-1.37,0.63-1.66
						c27.58-12.43,42.61-32.52,42.76-32.72c0.41-0.56,1.2-0.68,1.75-0.27c0.56,0.41,0.68,1.2,0.27,1.75
						c-0.15,0.21-15.57,20.82-43.74,33.52C695.49,1029.33,695.27,1029.36,695.06,1029.34z"/>
				</g>
				<path fill="#FF8D88" d="M678.7,1014.8c0,0-46.49-5.32-40.65,52.78c0,0,79.31,8.14,131.58,3.55l1.06-17.47
					c0,0-43.33,1.84-72.46-1.3C698.24,1052.36,694.77,1025.31,678.7,1014.8z"/>
				<g>
					<path fill="#FF8D88" d="M657.99,1017.49c-0.14,0-0.29,0.03-0.43,0.1v0c-4.27,2.01-8.55,5.04-12.12,9.57
						c-3.57,4.52-6.42,10.53-7.86,18.42c-0.1,0.54,0.26,1.06,0.8,1.16c0.06,0.01,0.12,0.02,0.18,0.02c0.47,0,0.89-0.34,0.98-0.82
						c1.39-7.62,4.11-13.29,7.46-17.54c3.36-4.25,7.37-7.09,11.4-9c0.5-0.24,0.71-0.83,0.48-1.33
						C658.73,1017.7,658.37,1017.49,657.99,1017.49"/>
				</g>
				<g opacity="0.3">
					<path fill="#FFFFFF" d="M657.99,1017.49c-0.14,0-0.29,0.03-0.43,0.1v0c-4.27,2.01-8.55,5.04-12.12,9.57
						c-3.57,4.52-6.42,10.53-7.86,18.42c-0.1,0.54,0.26,1.06,0.8,1.16c0.06,0.01,0.12,0.02,0.18,0.02c0.47,0,0.89-0.34,0.98-0.82
						c1.39-7.62,4.11-13.29,7.46-17.54c3.36-4.25,7.37-7.09,11.4-9c0.5-0.24,0.71-0.83,0.48-1.33
						C658.73,1017.7,658.37,1017.49,657.99,1017.49"/>
				</g>
				
					<ellipse transform="matrix(0.0993 -0.9951 0.9951 0.0993 -348.9061 1667.014)" fill="#EEEEEE" cx="746.38" cy="1026.24" rx="16.01" ry="13.29"/>
			</g>
			<g>
				<path fill="#6081C1" d="M711.55,923.58c0,0-0.85,24.57,5.25,43.44c0,0,15.37,3.82,29.61,2.96c14.24-0.86,21.09-5.43,21.09-5.43
					l2.39-37.65C750.92,918.54,731.5,917.01,711.55,923.58z"/>
				<path opacity="0.3" fill="#FFFFFF" d="M711.55,923.58c0,0-0.85,24.57,5.25,43.44c0,0,15.37,3.82,29.61,2.96
					c14.24-0.86,21.09-5.43,21.09-5.43l2.39-37.65C750.92,918.54,731.5,917.01,711.55,923.58z"/>
			</g>
			<path fill="#6081C1" d="M819.3,626.17c0,0-2.4,9.21-6.01,23.42c-2.6,10.1-5.8,22.76-9.25,36.41
				c-7.55,30.12-16.18,65.2-21.53,89.2c-11.18,50.24-19.06,156.62-19.06,156.62c-17.9,7.8-43.83,0.08-43.83,0.08
				s-10.94-144.22-11.7-212.09c-0.76-67.87,7.21-216.36,7.21-216.36c7.52-54.72,110.58-37.58,107.81,38.15L819.3,626.17z"/>
			<path fill="#222B3F" d="M813.29,649.6c-2.6,10.1-5.8,22.76-9.25,36.41c-16.81-21.54-19.98-55.3-20.18-57.76
				C785.22,637.21,798.71,644.41,813.29,649.6z"/>
			<path opacity="0.3" fill="#FFFFFF" d="M733.91,726.56c-22.85,0.79-28.69,64.03,5.73,67.8
				C774.07,798.13,764.09,725.52,733.91,726.56z"/>
			<g opacity="0.3">
				<path fill="#FFFFFF" d="M752.31,926.85c-0.63-0.06-1.12-0.59-1.13-1.24c-0.94-112.76,41.07-282.73,41.5-284.43
					c0.17-0.68,0.85-1.07,1.52-0.91c0.67,0.17,1.08,0.85,0.91,1.52c-0.42,1.7-42.36,171.36-41.42,283.8c0,0.69-0.55,1.26-1.24,1.27
					C752.4,926.86,752.35,926.86,752.31,926.85z"/>
			</g>
			<g opacity="0.3">
				<path fill="#FFFFFF" d="M805.32,647.95c-0.06-0.01-0.13-0.02-0.19-0.03c-0.82-0.21-20-5.36-22.53-19.59
					c-2.4-13.56-1.4-80.07-1.36-82.89c0.01-0.69,0.58-1.25,1.27-1.24c0.68,0,1.25,0.58,1.24,1.27c-0.01,0.69-1.04,69.09,1.32,82.41
					c1.86,10.49,14.76,15.66,19.19,17.14c0.52-10.52,3.58-69.48,7.47-92.97c0.12-0.69,0.82-1.13,1.44-1.03
					c0.68,0.11,1.15,0.76,1.03,1.44c-4.24,25.57-7.49,93.61-7.52,94.29c-0.02,0.38-0.2,0.73-0.51,0.95
					C805.93,647.9,805.62,647.98,805.32,647.95z"/>
			</g>
			<g opacity="0.3">
				<path fill="#FFFFFF" d="M717.8,569.22c-0.4-0.04-0.64-0.1-0.68-0.11c-0.67-0.17-1.08-0.85-0.91-1.52
					c0.17-0.67,0.86-1.07,1.52-0.92c0.15,0.03,3.1,0.65,6.68-2.12c5.27-4.08,11.71-15.3,12.52-45.58c0.02-0.69,0.6-1.24,1.29-1.22
					c0.64,0.02,1.24,0.59,1.22,1.29c-0.84,31.43-7.86,43.23-13.61,47.6C722.31,569.3,719.15,569.36,717.8,569.22z"/>
			</g>
		</g>
	</g>
	<g id="left_leg">
		<g>
			<g>
				<polygon fill="#ECBDBB" points="941.24,1002.44 917.37,1003.12 911.66,978.16 909.41,968.3 939.91,967.95 940.63,986.31 				"/>
				<path fill="#222B3F" d="M940.63,986.31c-10.72-0.93-20.45-4.03-28.97-8.14l-2.25-9.87l30.5-0.34L940.63,986.31z"/>
			</g>
			<g>
				<path fill="#222B3F" d="M909.91,994.66c0,0,18.57-8.95,35.15-2.16c0,0,9.28,16.58,12.43,45.59c0,0-11.6,36.64-36.97,39.46
					c-25.36,2.82-45.59-3.32-45.59-3.32s16.85-39.57,19.67-47.03S909.91,994.66,909.91,994.66z"/>
				<g opacity="0.3">
					<path fill="#FFFFFF" d="M919.59,1046.07c-5.81,0-17.52-0.69-21.12-6.04c-1.42-2.1-1.46-4.62-0.12-7.49
						c6.09-13.05,12.92-33.27,12.99-33.47c0.21-0.64,0.91-0.98,1.55-0.77c0.64,0.21,0.98,0.91,0.77,1.55
						c-0.07,0.21-6.95,20.55-13.09,33.73c-0.96,2.07-0.99,3.73-0.07,5.09c3.08,4.57,15.83,5.1,21.37,4.92
						c1.71-3.88,10.18-23.74,13.3-43.87c0.1-0.67,0.73-1.12,1.4-1.02c0.67,0.1,1.12,0.73,1.02,1.4
						c-3.52,22.67-13.7,44.97-13.8,45.19c-0.19,0.41-0.59,0.68-1.04,0.71C922.31,1046.02,921.17,1046.07,919.59,1046.07z"/>
				</g>
				
					<ellipse transform="matrix(0.9783 -0.2074 0.2074 0.9783 -190.9358 218.5291)" fill="#EEEEEE" cx="946.66" cy="1019.8" rx="5.19" ry="13.48"/>
				<path fill="#FF8D88" d="M889.63,1027.54c0,0-36.25,22.33-19.34,67.09c0,0,44.43,6.63,61.67-1.33
					c17.24-7.96,28.51-41.53,28.51-41.53s-0.58-9.86-2.74-16c0,0-9.75,18.51-22.91,29.9
					C934.83,1065.67,932.4,1021.24,889.63,1027.54z"/>
			</g>
			<g>
				<path fill="#6081C1" d="M890.51,934.15c0,0,27.85-12.71,58.36-0.66l0.33,38.46c0,0-21.55,7.63-44.43,0.99L890.51,934.15z"/>
				<path opacity="0.3" fill="#FFFFFF" d="M890.51,934.15c0,0,27.85-12.71,58.36-0.66l0.33,38.46c0,0-21.55,7.63-44.43,0.99
					L890.51,934.15z"/>
				<path fill="#6081C1" d="M944.58,938.3c-21.33,7.08-42.07,2.18-47.64,0.58C885.3,903.84,836.6,756.1,823.2,693.76
					c-15.25-70.95-17.9-151.86-17.9-151.86c7.96-58.67,119.05-62.02,129.31,3.32c0,0,0.66,220.82,1.33,251.99
					C936.49,823.23,942.59,910.29,944.58,938.3z"/>
				<g opacity="0.3">
					<path fill="#FFFFFF" d="M816.71,659.92c-0.59,0-1.11-0.43-1.2-1.03c-9.46-59.48-11.41-116.38-11.43-116.94
						c-0.02-0.68,0.51-1.24,1.18-1.26c0.01,0,0.03,0,0.04,0c0.66,0,1.2,0.52,1.22,1.18c0.02,0.57,1.97,57.32,11.4,116.64
						c0.1,0.67-0.35,1.29-1.02,1.4C816.84,659.92,816.77,659.92,816.71,659.92z"/>
				</g>
				<path opacity="0.3" fill="#FFFFFF" d="M875.59,750.13c-22.35,3.01-21.88,65.65,12.27,65.98
					C922.01,816.44,905.1,746.15,875.59,750.13z"/>
				<g opacity="0.3">
					<g>
						<path fill="#FFFFFF" d="M933.94,929.73c-0.61,0-1.13-0.45-1.21-1.07c-0.29-2.32-28.55-233.98-31.18-391.38
							c-0.01-0.67,0.53-1.23,1.2-1.24c0.75,0.01,1.23,0.53,1.24,1.2c2.62,157.27,30.87,388.8,31.16,391.12
							c0.08,0.67-0.39,1.28-1.06,1.36C934.04,929.73,933.99,929.73,933.94,929.73z"/>
					</g>
					<g>
						<path fill="#FFFFFF" d="M895.82,614.97c-8.4,0-21.85-10.1-23.59-17.72c-2.65-11.59-4.1-54.47-4.16-56.29
							c-0.02-0.67,0.51-1.24,1.18-1.26c0.01,0,0.03,0,0.04,0c0.66,0,1.2,0.52,1.22,1.18c0.01,0.44,1.51,44.47,4.1,55.83
							c1.49,6.51,13.98,15.82,21.21,15.82c0.68,0,1.22,0.55,1.22,1.22C897.04,614.42,896.5,614.97,895.82,614.97z"/>
					</g>
				</g>
			</g>
		</g>
	</g>
	<g id="right_arm">
		<g>
			<g>
				<path fill="#FBBDBB" d="M706.01,320.3l-37.54,50.86c-23.62,27.95,15.73,64.81,39.55,44.51l47.83-50.66L706.01,320.3z"/>
				<path fill="#FF8D88" d="M783.75,241.18c-18.83,1.1-98.66,74.01-98.66,74.01s21.35,47.16,57.41,74.53c0,0,34.91-40.9,62.7-82.7
					C832.97,265.21,807.25,239.81,783.75,241.18z"/>
				<g>
					<path opacity="0.3" fill="#FFFFFF" d="M743.21,371.08c-0.33,0.07-0.69,0-0.98-0.22c-26.77-20.12-46.38-58.2-46.57-58.58
						c-0.31-0.6-0.07-1.34,0.53-1.64c0.6-0.3,1.34-0.07,1.64,0.53c0.19,0.38,19.55,37.97,45.86,57.74c0.54,0.4,0.65,1.17,0.24,1.71
						C743.76,370.87,743.49,371.03,743.21,371.08z"/>
				</g>
			</g>
		</g>
	</g>
	<g id="body">
		<g>
			<path fill="#FF8D88" d="M858.68,231.89c0,0-37.14,0.33-74.93,9.28c0,0-58.41,135.38-81.62,305.14c0,0,33.81,1.37,109.25,4.79
				c80.48,3.65,135.8-0.21,135.8-0.21s16.45-210.45,4.21-282.99c-1.02-6.04-5.1-11.11-10.76-13.46
				C925.14,248,891.41,235.31,858.68,231.89z"/>
			<g>
				<path fill="#FF8D88" d="M779.58,248.24c-7.19,17.76-25.71,65.81-43.92,131.58c-0.17,0.61,0.19,1.24,0.8,1.41
					c0.61,0.17,1.24-0.19,1.41-0.8c18.18-65.66,36.67-113.63,43.83-131.33c0.24-0.59-0.05-1.26-0.63-1.5
					C780.49,247.37,779.82,247.66,779.58,248.24L779.58,248.24z"/>
			</g>
			<g opacity="0.3">
				<path fill="#FFFFFF" d="M779.58,248.24c-7.19,17.76-25.71,65.81-43.92,131.58c-0.17,0.61,0.19,1.24,0.8,1.41
					c0.61,0.17,1.24-0.19,1.41-0.8c18.18-65.66,36.67-113.63,43.83-131.33c0.24-0.59-0.05-1.26-0.63-1.5
					C780.49,247.37,779.82,247.66,779.58,248.24L779.58,248.24z"/>
			</g>
			<g>
				<path opacity="0.3" fill="#FFFFFF" d="M849.43,331.22c-0.32,0-0.64-0.03-0.96-0.08l-10.53-1.85c-2.91-0.51-4.87-3.19-4.47-6.1
					c3.44-24.97,12.33-68.88,12.42-69.32c0.07-0.33,0.27-0.62,0.56-0.8c0.29-0.18,0.64-0.22,0.96-0.14l17.24,4.64
					c0.63,0.17,1.02,0.81,0.88,1.45c-4.12,18.39-9.22,56.29-10.69,67.46c-0.2,1.49-0.97,2.8-2.18,3.68
					C851.7,330.86,850.58,331.22,849.43,331.22z M848.02,255.62c-1.49,7.42-9.03,45.4-12.13,67.89c-0.22,1.6,0.87,3.08,2.48,3.36
					l10.53,1.85c0.82,0.15,1.64-0.05,2.31-0.54c0.67-0.49,1.09-1.21,1.2-2.03c1.44-10.97,6.38-47.66,10.47-66.54L848.02,255.62z"/>
			</g>
			<path fill="#6081C1" d="M864.48,218.79c-7.32-1.14-16.69,0.98-21.58,2.33c-1.97,0.54-3.37,2.3-3.48,4.34l-1.3,22.68
				c0,0,8.12,12.77,23.87,13.59s24.37-8.29,24.37-8.29l4.79-21.62c0.44-1.98-0.4-4.04-2.12-5.09
				C885.34,224.48,877.71,220.86,864.48,218.79z"/>
			<g>
				<path fill="#FBBDBB" d="M875.91,200.23l-0.13,9.92l-0.32,23.32c-0.5,0.11-1.01,0.19-1.51,0.27c-8.86,1.41-16.68-0.4-22.17-2.55
					l3.08-12.28l4.32-17.19L875.91,200.23z"/>
				<path fill="#222B3F" d="M875.91,200.23l-0.13,9.92c-4.14,3.58-10.66,7.14-20.93,8.75l4.32-17.19L875.91,200.23z"/>
			</g>
			<g>
				<g>
					<path fill="#6081C1" d="M867.62,235.45c-6.69,0-12.36-1.58-16.3-3.12c-0.68-0.27-1.33-0.54-1.95-0.81
						c-4.24-1.87-6.74-3.69-6.84-3.77c-0.54-0.4-0.66-1.17-0.26-1.71c0.4-0.54,1.16-0.66,1.71-0.26c0.02,0.02,2.4,1.75,6.37,3.5
						c0.59,0.26,1.22,0.52,1.87,0.78c4.88,1.91,12.58,3.89,21.53,2.47c0.52-0.08,0.98-0.16,1.45-0.25c3.74-0.73,7.46-2.06,11.1-3.95
						c0.59-0.31,1.33-0.08,1.65,0.52c0.31,0.6,0.08,1.34-0.52,1.65c-3.84,2-7.79,3.4-11.74,4.17c-0.49,0.1-1,0.18-1.51,0.27
						C871.91,235.3,869.71,235.45,867.62,235.45z"/>
				</g>
				<g>
					<path opacity="0.3" fill="#FFFFFF" d="M867.62,235.45c-6.69,0-12.36-1.58-16.3-3.12c-0.68-0.27-1.33-0.54-1.95-0.81
						c-4.24-1.87-6.74-3.69-6.84-3.77c-0.54-0.4-0.66-1.17-0.26-1.71c0.4-0.54,1.16-0.66,1.71-0.26c0.02,0.02,2.4,1.75,6.37,3.5
						c0.59,0.26,1.22,0.52,1.87,0.78c4.88,1.91,12.58,3.89,21.53,2.47c0.52-0.08,0.98-0.16,1.45-0.25c3.74-0.73,7.46-2.06,11.1-3.95
						c0.59-0.31,1.33-0.08,1.65,0.52c0.31,0.6,0.08,1.34-0.52,1.65c-3.84,2-7.79,3.4-11.74,4.17c-0.49,0.1-1,0.18-1.51,0.27
						C871.91,235.3,869.71,235.45,867.62,235.45z"/>
				</g>
			</g>
		</g>
	</g>
	<g id="left_arm">
		<g>
			<g>
				<path fill="#FBBDBB" d="M949.22,393.59l6.71,55.83c0.77,6.44,3.82,12.39,8.59,16.78l0.7,0.64c5.86,5.39,13.78,7.95,21.68,7l0,0
					c8.57-1.03,16.14-6.06,20.41-13.57l0.01-0.03c2.88-5.06,4.06-10.92,3.36-16.7l-6.09-50.69L949.22,393.59z"/>
				<path fill="#FF8D88" d="M1016.74,409.2c-34.39,10.06-80.3,4.23-93.44,2.23c-1.02-6.53-8.78-57.82-5.21-99.62
					c1.28-14.92,3.98-28.64,9.05-38.79c2.91-5.79,6.6-10.44,11.31-13.39c1.79-1.13,3.73-2,5.81-2.58l0.21-0.06
					C995.67,278.03,1016.74,409.2,1016.74,409.2z"/>
				<g opacity="0.3">
					<path fill="#FFFFFF" d="M1012.5,390.36c-0.14,0.12-0.31,0.21-0.5,0.26c-47.4,12-83.47-1.32-83.82-1.45
						c-0.63-0.24-0.95-0.94-0.71-1.57c0.24-0.63,0.94-0.95,1.57-0.71c0.35,0.13,35.74,13.17,82.36,1.37
						c0.65-0.17,1.32,0.23,1.48,0.88C1012.99,389.6,1012.83,390.06,1012.5,390.36z"/>
				</g>
			</g>
		</g>
	</g>
	<g id="head">
		<g>
			<g>
				<path fill="#FBBDBB" d="M845.17,138.52c-24.37,7.22-19.5,65.69-14.25,73.88c5.25,8.19,39.49-3.2,44.56-7.14
					c5.07-3.95,8-25.28,7.32-38.78C882.11,152.97,873.47,130.13,845.17,138.52z"/>
				<path fill="#314060" d="M878,182.99l-1.47-8.16c0,0-9.5-6.04-8.89-15.63c0,0-30.12,20.08-55.98,6.68c0,0,3.38-6.77,7.83-9.86
					c0,0-22.95-13.69-24.03-39.65c-0.4-9.56,25.55-2.43,35.18,7.65c0,0-11.2-23.49-1.4-38.95c2.83-4.46,22.09,12.31,29.87,30.02
					c0,0,0.11-15.17,5.28-21.69c1.75-2.21,12.4,10.36,16.87,31.78c0,0,18.24,6.65,27.26,22.09c9.02,15.44,3.74,39.66-28.93,47.91
					L878,182.99z"/>
				<g>
					<path fill="#FBBDBB" d="M878,182.99c0,0,5.9-20.29,18.39-16.21s2.43,28.93-18.8,30.15L878,182.99z"/>
					<g>
						<g>
							<path fill="#222B3F" d="M883.1,190.91c-0.06,0.01-0.11,0.02-0.17,0.02c-0.67,0.04-1.25-0.47-1.29-1.15
								c-0.01-0.16-0.79-15.95,12.08-18.72c0,0,0.01,0,0.02,0c0.65-0.13,1.29,0.29,1.43,0.94c0.14,0.66-0.28,1.31-0.94,1.45
								c-10.85,2.33-10.17,16.05-10.16,16.19C884.11,190.26,883.68,190.79,883.1,190.91z"/>
						</g>
						<g>
							<path fill="#222B3F" d="M891.23,186.83c-0.58,0.12-1.17-0.2-1.38-0.77c-0.02-0.05-1.9-5.08-4.62-7.7
								c-0.49-0.47-0.5-1.24-0.03-1.73c0.47-0.48,1.24-0.5,1.73-0.03c3.13,3.02,5.13,8.39,5.22,8.62c0.23,0.63-0.09,1.34-0.72,1.57
								C891.36,186.8,891.3,186.81,891.23,186.83z"/>
						</g>
					</g>
				</g>
			</g>
			<g>
				<g>
					<path fill="#222B3F" d="M843.83,193.73c-0.08,0.02-0.17,0.03-0.26,0.02c-0.23,0-5.68-0.12-7.45-4.7
						c-0.19-0.49-0.04-1.05,0.36-1.38c3.55-2.94,6.18-10.32,6.2-10.39c0.22-0.64,0.93-0.97,1.56-0.75c0.64,0.22,0.97,0.92,0.75,1.56
						c-0.11,0.31-2.56,7.18-6.22,10.8c1.47,2.32,4.81,2.42,4.85,2.42c0.67,0.01,1.21,0.57,1.2,1.24
						C844.8,193.13,844.38,193.62,843.83,193.73z"/>
				</g>
				<g>
					<path fill="#222B3F" d="M851.97,201.98c-6.91,1.39-11.83-0.57-12.07-0.67c-0.62-0.26-0.92-0.97-0.66-1.59
						c0.25-0.62,0.96-0.92,1.59-0.67c0.06,0.03,6.6,2.59,14.92-0.73c0.63-0.26,1.34,0.05,1.59,0.68c0.25,0.63-0.05,1.34-0.68,1.59
						C855.02,201.24,853.45,201.69,851.97,201.98z"/>
				</g>
				<path fill="#222B3F" d="M854.35,169.51c0,0,0.67-4.89,1.94-5.74s1.27,1.51,1.27,1.51s9.85-1.32,10.39,8.53
					C867.95,173.81,863.99,168.18,854.35,169.51z"/>
				<path fill="#222B3F" d="M842.9,168.62c0,0,0.59-4.92-0.14-6.11c-0.73-1.2-1.24,1.07-1.24,1.07s-6.77-4.25-9.3,5.08
					C832.22,168.66,836.28,164.43,842.9,168.62z"/>
				<g>
					
						<ellipse transform="matrix(0.0808 -0.9967 0.9967 0.0808 608.5234 1019.2146)" fill="#222B3F" cx="856.83" cy="179.7" rx="4.71" ry="3.78"/>
					<circle fill="#FFFFFF" cx="858.16" cy="177.64" r="1.3"/>
				</g>
				<g>
					
						<ellipse transform="matrix(0.0808 -0.9967 0.9967 0.0808 592.6985 997.3427)" fill="#222B3F" cx="837.06" cy="177.34" rx="4.71" ry="3.78"/>
					<circle fill="#FFFFFF" cx="838.39" cy="175.28" r="1.3"/>
				</g>
			</g>
		</g>
	</g>
	<g id="tube">
		<g>
			<path fill="#6081C1" d="M715.52,562.52L715.52,562.52c-21.62-17.73-24.78-49.63-7.05-71.26L929.9,221.18l78.31,64.2
				L786.78,555.47C769.05,577.1,737.14,580.25,715.52,562.52z"/>
			<g>
				<path fill="#6081C1" d="M924.08,227.74c-0.38-0.13-0.83-0.02-1.1,0.31l-30.43,37.11c-0.35,0.43-0.29,1.06,0.14,1.41
					c0.09,0.08,0.2,0.13,0.3,0.17c0.38,0.13,0.83,0.02,1.1-0.31l30.43-37.11c0.35-0.43,0.29-1.06-0.14-1.41
					C924.29,227.84,924.19,227.78,924.08,227.74"/>
			</g>
			<g opacity="0.3">
				<path fill="#FFFFFF" d="M924.08,227.74c-0.38-0.13-0.83-0.02-1.1,0.31l-30.43,37.11c-0.35,0.43-0.29,1.06,0.14,1.41
					c0.09,0.08,0.2,0.13,0.3,0.17c0.38,0.13,0.83,0.02,1.1-0.31l30.43-37.11c0.35-0.43,0.29-1.06-0.14-1.41
					C924.29,227.84,924.19,227.78,924.08,227.74"/>
			</g>
			<g>
				<path fill="#6081C1" d="M795.23,543.59L786,554.84c-13.57,16.56-35.62,22.07-54.72,15.41c-5.36-1.87-10.48-4.69-15.12-8.5
					c-0.09-0.08-0.19-0.13-0.3-0.17l0,0l-0.33,0.94l0.63-0.77c-16.56-13.57-22.07-35.62-15.41-54.72c0.06-0.19,0.13-0.37,0.2-0.55
					c0.19-0.52-0.08-1.09-0.6-1.28c-0.52-0.19-1.09,0.08-1.28,0.6c-0.07,0.19-0.14,0.39-0.21,0.58
					c-6.93,19.87-1.19,42.81,16.03,56.93c0.09,0.08,0.19,0.13,0.3,0.17l0,0l0.33-0.94l-0.63,0.77c4.83,3.96,10.16,6.9,15.73,8.84
					c19.87,6.93,42.81,1.19,56.93-16.03l9.22-11.25c0.35-0.43,0.29-1.06-0.14-1.41C796.21,543.1,795.58,543.16,795.23,543.59
					L795.23,543.59z"/>
			</g>
			<g opacity="0.3">
				<path fill="#FFFFFF" d="M795.23,543.59L786,554.84c-13.57,16.56-35.62,22.07-54.72,15.41c-5.36-1.87-10.48-4.69-15.12-8.5
					c-0.09-0.08-0.19-0.13-0.3-0.17l0,0l-0.33,0.94l0.63-0.77c-16.56-13.57-22.07-35.62-15.41-54.72c0.06-0.19,0.13-0.37,0.2-0.55
					c0.19-0.52-0.08-1.09-0.6-1.28c-0.52-0.19-1.09,0.08-1.28,0.6c-0.07,0.19-0.14,0.39-0.21,0.58
					c-6.93,19.87-1.19,42.81,16.03,56.93c0.09,0.08,0.19,0.13,0.3,0.17l0,0l0.33-0.94l-0.63,0.77c4.83,3.96,10.16,6.9,15.73,8.84
					c19.87,6.93,42.81,1.19,56.93-16.03l9.22-11.25c0.35-0.43,0.29-1.06-0.14-1.41C796.21,543.1,795.58,543.16,795.23,543.59
					L795.23,543.59z"/>
			</g>
			<path fill="#6081C1" d="M995.79,292.9l-70.82-58.07c-6.36-5.22-7.29-14.6-2.08-20.97l7.8-9.51c5.22-6.36,14.6-7.29,20.97-2.08
				l70.82,58.07c6.36,5.22,7.29,14.6,2.08,20.97l-7.8,9.51C1011.54,297.19,1002.15,298.12,995.79,292.9z"/>
			<path opacity="0.3" fill="#FFFFFF" d="M995.79,292.9l-70.82-58.07c-6.36-5.22-7.29-14.6-2.08-20.97l7.8-9.51
				c5.22-6.36,14.6-7.29,20.97-2.08l70.82,58.07c6.36,5.22,7.29,14.6,2.08,20.97l-7.8,9.51
				C1011.54,297.19,1002.15,298.12,995.79,292.9z"/>
			<path fill="#222B3F" d="M910.28,300.66l-27.24-22.33l7.23-8.82l27.24,22.33c2.44,2,2.79,5.59,0.79,8.03l0,0
				C916.31,302.3,912.72,302.66,910.28,300.66z"/>
			<path fill="#222B3F" d="M854.36,344.08l-15.08-12.36l7.23-8.82l15.08,12.36c2.44,2,2.79,5.59,0.79,8.03l0,0
				C860.39,345.72,856.79,346.07,854.36,344.08z"/>
			<path fill="#222B3F" d="M822.75,407.43l-27.24-22.33l7.23-8.82l27.24,22.33c2.44,2,2.79,5.59,0.79,8.03v0
				C828.78,409.07,825.18,409.42,822.75,407.43z"/>
			<path fill="#222B3F" d="M766.82,450.84l-15.08-12.36l7.23-8.82l15.08,12.36c2.44,2,2.79,5.59,0.79,8.03l0,0
				C772.85,452.48,769.26,452.84,766.82,450.84z"/>
		</g>
	</g>
	<g id="right_forearm">
		<g>
			<g>
				<path fill="#FBBDBB" d="M771.45,368.8l32.13-19.24c6.39-3.83,13.62-4.78,19.6-0.33c8.9,6.62,20.93,15.56,23.27,17.3
					c3.79,2.82-1.25,12.9-6.31,10.96c0,0,2.87,3.23-1.36,8.08c-4.23,4.86-7.75,3.33-7.75,3.33s2.47,2.93-1.21,7.47
					c-3.69,4.54-8.37,2.51-8.37,2.51s1.35,3.19-1.27,6.7c-2.61,3.51-7.53,3.87-9.72,2.23c-2.2-1.63-18.01-14.13-18.01-14.13
					s-10.86,7.93-13.33,7.92c-2.47-0.02-7.28-3.96-7.28-3.96s-62.43,21.39-84.9,21.54c-22.47,0.16-29.62-22.97-25.11-36.02
					c4.52-13.05,24.51-24.89,33.37-23.93S771.45,368.8,771.45,368.8z"/>
				
					<line fill="none" stroke="#2E374F" stroke-width="2.2971" stroke-linecap="round" stroke-linejoin="round" stroke-miterlimit="10" x1="840.15" y1="377.48" x2="819.6" y2="362.2"/>
				
					<line fill="none" stroke="#2E374F" stroke-width="2.2971" stroke-linecap="round" stroke-linejoin="round" stroke-miterlimit="10" x1="831.03" y1="388.9" x2="812.22" y2="374.9"/>
				
					<line fill="none" stroke="#2E374F" stroke-width="2.2971" stroke-linecap="round" stroke-linejoin="round" stroke-miterlimit="10" x1="821.44" y1="398.87" x2="803.58" y2="385.58"/>
			</g>
		</g>
	</g>
	<g id="left_forearm">
		<g>
			<g>
				<path fill="#FBBDBB" d="M991.36,364.31l11.37-35.69c2.26-7.1,1.53-14.35-4.16-19.16c-8.48-7.15-19.94-16.81-22.17-18.69
					c-3.61-3.04-12.28,4.17-9.22,8.65c0,0-3.8-2.05-7.56,3.18c-3.76,5.23-1.47,8.31-1.47,8.31s-3.42-1.73-6.99,2.89
					c-3.57,4.63-0.52,8.73-0.52,8.73s-3.41-0.58-6.23,2.77c-2.82,3.35-2.04,8.21,0.05,9.97c2.09,1.76,17.88,14.3,17.88,14.3
					s-5.24,12.39-4.65,14.79c0.58,2.4,5.52,6.18,5.52,6.18s-6.52,65.67-1.53,87.58c4.99,21.91,29.15,23.57,40.81,16.19
					s18.62-29.56,15.65-37.96C1015.16,427.94,991.36,364.31,991.36,364.31z"/>
				
					<line fill="none" stroke="#2E374F" stroke-width="2.2971" stroke-linecap="round" stroke-linejoin="round" stroke-miterlimit="10" x1="967.18" y1="299.43" x2="986.76" y2="315.93"/>
				
					<line fill="none" stroke="#2E374F" stroke-width="2.2971" stroke-linecap="round" stroke-linejoin="round" stroke-miterlimit="10" x1="958.15" y1="310.92" x2="976.08" y2="326.03"/>
				
					<line fill="none" stroke="#2E374F" stroke-width="2.2971" stroke-linecap="round" stroke-linejoin="round" stroke-miterlimit="10" x1="950.64" y1="322.53" x2="967.66" y2="336.88"/>
			</g>
		</g>
	</g>
</g>
</svg>
