<?xml version="1.0" encoding="iso-8859-1"?>
<!-- Generator: Adobe Illustrator 24.0.0, SVG Export Plug-In . SVG Version: 6.00 Build 0)  -->
<svg version="1.1" xmlns="http://www.w3.org/2000/svg" xmlns:xlink="http://www.w3.org/1999/xlink" x="0px" y="0px"
	 viewBox="0 0 1200 1200" enable-background="new 0 0 1200 1200" xml:space="preserve">
<g id="Background_x5F_Simple">
	<g>
		<g>
			<g>
				<path fill="#EEEEEE" d="M90.3291016,753.609375c-1.9331055,0-3.5-1.5673828-3.5-3.5v-20.1484375
					c0-1.9326172,1.5668945-3.5,3.5-3.5s3.5,1.5673828,3.5,3.5v20.1484375
					C93.8291016,752.0419922,92.262207,753.609375,90.3291016,753.609375z"/>
			</g>
			<g>
				<path fill="#EEEEEE" d="M90.3291016,790.1943359c-1.9331055,0-3.5-1.5673828-3.5-3.5v-20.1484375
					c0-1.9326172,1.5668945-3.5,3.5-3.5s3.5,1.5673828,3.5,3.5v20.1484375
					C93.8291016,788.6269531,92.262207,790.1943359,90.3291016,790.1943359z"/>
			</g>
			<g>
				<path fill="#EEEEEE" d="M118.6958008,761.828125H98.5473633c-1.9331055,0-3.5-1.5673828-3.5-3.5s1.5668945-3.5,3.5-3.5
					h20.1484375c1.9331055,0,3.5,1.5673828,3.5,3.5S120.6289063,761.828125,118.6958008,761.828125z"/>
			</g>
			<g>
				<path fill="#EEEEEE" d="M82.1103516,761.828125H61.9619141c-1.9331055,0-3.5-1.5673828-3.5-3.5s1.5668945-3.5,3.5-3.5
					h20.1484375c1.9331055,0,3.5,1.5673828,3.5,3.5S84.043457,761.828125,82.1103516,761.828125z"/>
			</g>
		</g>
		<g>
			<g>
				<g>
					<path fill="#EEEEEE" d="M659.90625,193.1987305c-1.9326172,0-3.5-1.5668945-3.5-3.5V175.515625
						c0-1.9331055,1.5673828-3.5,3.5-3.5s3.5,1.5668945,3.5,3.5v14.1831055
						C663.40625,191.6318359,661.8388672,193.1987305,659.90625,193.1987305z"/>
				</g>
			</g>
			<g>
				<g>
					<path fill="#EEEEEE" d="M659.90625,224.9248047c-1.9326172,0-3.5-1.5668945-3.5-3.5v-14.1831055
						c0-1.9331055,1.5673828-3.5,3.5-3.5s3.5,1.5668945,3.5,3.5v14.1831055
						C663.40625,223.3579102,661.8388672,224.9248047,659.90625,224.9248047z"/>
				</g>
			</g>
			<g>
				<g>
					<path fill="#EEEEEE" d="M682.8613281,201.9702148h-14.1835938c-1.9326172,0-3.5-1.5668945-3.5-3.5s1.5673828-3.5,3.5-3.5
						h14.1835938c1.9326172,0,3.5,1.5668945,3.5,3.5S684.7939453,201.9702148,682.8613281,201.9702148z"/>
				</g>
			</g>
			<g>
				<g>
					<path fill="#EEEEEE" d="M651.1347656,201.9702148h-14.1835938c-1.9326172,0-3.5-1.5668945-3.5-3.5s1.5673828-3.5,3.5-3.5
						h14.1835938c1.9326172,0,3.5,1.5668945,3.5,3.5S653.0673828,201.9702148,651.1347656,201.9702148z"/>
				</g>
			</g>
		</g>
		<g>
			<g>
				<g>
					<path fill="#EEEEEE" d="M491.9755859,266.5146484c-1.9331055,0-3.5-1.5668945-3.5-3.5v-17.5151367
						c0-1.9331055,1.5668945-3.5,3.5-3.5s3.5,1.5668945,3.5,3.5v17.5151367
						C495.4755859,264.9477539,493.9086914,266.5146484,491.9755859,266.5146484z"/>
				</g>
			</g>
			<g>
				<g>
					<path fill="#EEEEEE" d="M491.9755859,305.6923828c-1.9331055,0-3.5-1.5668945-3.5-3.5v-17.5146484
						c0-1.9331055,1.5668945-3.5,3.5-3.5s3.5,1.5668945,3.5,3.5v17.5146484
						C495.4755859,304.1254883,493.9086914,305.6923828,491.9755859,305.6923828z"/>
				</g>
			</g>
			<g>
				<g>
					<path fill="#EEEEEE" d="M520.3217773,277.3461914h-17.5146484c-1.9331055,0-3.5-1.5668945-3.5-3.5s1.5668945-3.5,3.5-3.5
						h17.5146484c1.9331055,0,3.5,1.5668945,3.5,3.5S522.2548828,277.3461914,520.3217773,277.3461914z"/>
				</g>
			</g>
			<g>
				<g>
					<path fill="#EEEEEE" d="M481.144043,277.3461914h-17.5151367c-1.9331055,0-3.5-1.5668945-3.5-3.5s1.5668945-3.5,3.5-3.5
						h17.5151367c1.9331055,0,3.5,1.5668945,3.5,3.5S483.0771484,277.3461914,481.144043,277.3461914z"/>
				</g>
			</g>
		</g>
		<g>
			<g>
				<g>
					<path fill="#EEEEEE" d="M987.046875,409.2485352c-1.9326172,0-3.5-1.5668945-3.5-3.5v-14.1835938
						c0-1.9331055,1.5673828-3.5,3.5-3.5s3.5,1.5668945,3.5,3.5v14.1835938
						C990.546875,407.6816406,988.9794922,409.2485352,987.046875,409.2485352z"/>
				</g>
			</g>
			<g>
				<g>
					<path fill="#EEEEEE" d="M987.046875,440.9746094c-1.9326172,0-3.5-1.5668945-3.5-3.5v-14.1835938
						c0-1.9331055,1.5673828-3.5,3.5-3.5s3.5,1.5668945,3.5,3.5v14.1835938
						C990.546875,439.4077148,988.9794922,440.9746094,987.046875,440.9746094z"/>
				</g>
			</g>
			<g>
				<g>
					<path fill="#EEEEEE" d="M1010.0019531,418.0195313h-14.1835938c-1.9326172,0-3.5-1.5668945-3.5-3.5s1.5673828-3.5,3.5-3.5
						h14.1835938c1.9326172,0,3.5,1.5668945,3.5,3.5S1011.9345703,418.0195313,1010.0019531,418.0195313z"/>
				</g>
			</g>
			<g>
				<g>
					<path fill="#EEEEEE" d="M978.2753906,418.0195313h-14.1835938c-1.9326172,0-3.5-1.5668945-3.5-3.5s1.5673828-3.5,3.5-3.5
						h14.1835938c1.9326172,0,3.5,1.5668945,3.5,3.5S980.2080078,418.0195313,978.2753906,418.0195313z"/>
				</g>
			</g>
		</g>
		<g>
			<path fill="#EEEEEE" d="M846.0566406,365.2666016c-12.9404297,0-23.46875-10.527832-23.46875-23.46875
				s10.5283203-23.46875,23.46875-23.46875c12.9414063,0,23.4697266,10.527832,23.4697266,23.46875
				S858.9980469,365.2666016,846.0566406,365.2666016z M846.0566406,325.3291016c-9.0810547,0-16.46875,7.3876953-16.46875,16.46875
				s7.3876953,16.46875,16.46875,16.46875s16.4697266-7.3876953,16.4697266-16.46875
				S855.1376953,325.3291016,846.0566406,325.3291016z"/>
		</g>
		<g>
			<path fill="#EEEEEE" d="M1102.1201172,892.7392578c-12.9404297,0-23.46875-10.5283203-23.46875-23.46875
				s10.5283203-23.46875,23.46875-23.46875s23.46875,10.5283203,23.46875,23.46875
				S1115.0605469,892.7392578,1102.1201172,892.7392578z M1102.1201172,852.8017578
				c-9.0810547,0-16.46875,7.3876953-16.46875,16.46875s7.3876953,16.46875,16.46875,16.46875s16.46875-7.3876953,16.46875-16.46875
				S1111.2011719,852.8017578,1102.1201172,852.8017578z"/>
		</g>
		<g>
			<path fill="#EEEEEE" d="M136.6118164,511.3901367c-11.8085938,0-21.4160156-9.6074219-21.4160156-21.4160156
				s9.6074219-21.4160156,21.4160156-21.4160156s21.4160156,9.6074219,21.4160156,21.4160156
				S148.4204102,511.3901367,136.6118164,511.3901367z M136.6118164,475.5581055
				c-7.9492188,0-14.4160156,6.4667969-14.4160156,14.4160156s6.4667969,14.4160156,14.4160156,14.4160156
				s14.4160156-6.4667969,14.4160156-14.4160156S144.5610352,475.5581055,136.6118164,475.5581055z"/>
		</g>
	</g>
</g>
<g id="Layer_x5F_Apple">
	<g>
		<path fill="#222B3F" d="M635.2719727,428.6062622c0,0-9.3311768-42.7651978,7.4649658-74.8645935l17.1694946,5.6610718
			c0,0-19.4489136,23.079071-21.668457,70.8548889L635.2719727,428.6062622z"/>
		<path fill="#222B3F" d="M635.2224731,425.7054138c0,0-31.1725464-11.5553589-31.1725464-41.3842468
			C604.0499268,354.4922485,633.3413696,395.0703125,635.2224731,425.7054138z"/>
		<path fill="#FF8D88" d="M634.5255127,422.7926636c0,0-31.7261353-26.8739929-61.9592896-10.4510193
			c-30.2331543,16.4230042-27.6204224,63.4523315-5.9719849,110.4816589s56.3605347,38.4445801,72.0369873,22.3948975
			c0,0,23.1414185,24.005127,45.5363159,12.7490845c22.3949585-11.2561035,41.057373-63.2888794,42.177124-100.3515015
			S693.8720093,391.4397888,634.5255127,422.7926636z"/>
		<g>
			<path opacity="0.3" fill="#FFFFFF" d="M566.3457031,481.8271484c-0.6899414,0-1.3105469-0.4790039-1.4638672-1.1801758
				c-6.1298828-28.0610352-1.8237305-48.2626953,12.1259766-56.8837891
				c0.7041016-0.4360352,1.6289063-0.2172852,2.0644531,0.4873047s0.2172852,1.6289063-0.4873047,2.0644531
				c-17.2490234,10.6601563-14.1533203,38.215332-10.7724609,53.6914063
				c0.1767578,0.8095703-0.3359375,1.6088867-1.1450195,1.7856445
				C566.5595703,481.8154297,566.4516602,481.8271484,566.3457031,481.8271484z"/>
		</g>
		<g>
			<path opacity="0.3" fill="#FFFFFF" d="M612.1904297,426.5375977c-0.2050781,0-0.4140625-0.0424805-0.6132813-0.1318359
				c-6.3056641-2.8310547-12.3500977-4.2666016-17.9643555-4.2666016c-0.8286133,0-1.5-0.6713867-1.5-1.5s0.6713867-1.5,1.5-1.5
				c6.0410156,0,12.4985352,1.5239258,19.1928711,4.5292969c0.7558594,0.3393555,1.09375,1.2270508,0.7539063,1.9829102
				C613.3105469,426.2075195,612.7636719,426.5375977,612.1904297,426.5375977z"/>
		</g>
	</g>
</g>
<g id="Layer_x5F_Fruits_and_Vegetables">
	<g>
		<g>
			<path fill="#6081C1" d="M939.9025879,501.4224243c-64.3476563-4.2835083-58.9937134,54.8228149-42.5950317,78.2058105
				c16.3986206,23.3829346-45.4706421,27.0037231-29.1069336,71.6894531
				c16.3637085,44.6856689,14.9360962,45.5506592,0.5020142,70.6903076s10.5294189,65.0546265,10.5294189,65.0546265
				s33.0014648,0.5820313,56.7948608-29.1980591c23.793457-29.7800903,5.2628174-45.8334351,23.2307129-64.3530273
				s28.2400513-39.5762329,7.8434448-69.374939s18.7709351-30.8775024,19.9036255-65.7247314
				C988.1373901,523.5645752,966.258728,503.1769104,939.9025879,501.4224243z"/>
			<g>
				<path fill="#222B3F" d="M863.3876953,834.3339844c-0.1679688,0-0.3378906-0.0273438-0.5048828-0.0869141
					c-0.7792969-0.2792969-1.1865234-1.1376953-0.9082031-1.9179688
					c5.0761719-14.2119141,10.4042969-29.6025391,15.8359375-45.7451172
					c39.9130859-118.6181641,60.8662109-250.7324219,61.0732422-252.0532227
					c0.1269531-0.8183594,0.890625-1.3769531,1.7138672-1.2495117c0.8183594,0.128418,1.3779297,0.8955078,1.2490234,1.7143555
					c-0.2070313,1.3227539-21.1962891,133.6791992-61.1923828,252.5454102
					c-5.4384766,16.1591797-10.7724609,31.5683594-15.8535156,45.7978516
					C864.5810547,833.9521484,864.0039063,834.3339844,863.3876953,834.3339844z"/>
			</g>
		</g>
		<g>
			<path fill="#6081C1" d="M883.8688965,742.7507324c0,0-27.0272217-13.527832-48.5877075-31.6386108
				s-3.1090088-36.2215576-20.3574219-61.2316895c-17.2483521-25.0101318-84.9629517-102.5484009-29.3222046-132.0578613
				c60.3693237-32.0173035,72.0119629,62.5284424,82.5765991,108.9944458
				C878.7427979,673.2830811,923.588562,636.0748901,883.8688965,742.7507324z"/>
			<g>
				<path opacity="0.3" fill="#FFFFFF" d="M883.8691406,744.2509766c-0.1738281,0-0.3505859-0.0302734-0.5234375-0.0947266
					c-0.7763672-0.2890625-1.1708984-1.1523438-0.8818359-1.9287109
					c25.6503906-68.8916016,15.6796875-76.7470703,3.0566406-86.6933594
					c-6.2646484-4.9355469-13.3652344-10.5302734-17.4824219-23.4921875
					c-0.2509766-0.7900391,0.1865234-1.6328125,0.9755859-1.8837891c0.7910156-0.25,1.6328125,0.1855469,1.8837891,0.9755859
					c3.8378906,12.0839844,10.2646484,17.1474609,16.4794922,22.0439453
					c13.5830078,10.7021484,24.3115234,19.1552734-2.1025391,90.0966797
					C885.0498047,743.8779297,884.4775391,744.2509766,883.8691406,744.2509766z"/>
			</g>
			<g>
				<path fill="#222B3F" d="M917.5507813,864.0332031c-0.671875,0-1.2832031-0.4541016-1.4541016-1.1357422
					c-0.4316406-1.7236328-43.9638672-173.9189453-112.0908203-310.2905273
					c-0.3701172-0.7412109-0.0693359-1.6420898,0.671875-2.012207c0.7392578-0.3686523,1.6416016-0.0703125,2.0117188,0.6713867
					c68.2763672,136.6704102,111.8847656,309.1762695,112.3173828,310.902832
					c0.2011719,0.8037109-0.2871094,1.6181641-1.0908203,1.8193359
					C917.7939453,864.0185547,917.6708984,864.0332031,917.5507813,864.0332031z"/>
			</g>
		</g>
		<g>
			<path fill="#222B3F" d="M1024.2541504,675.4007568c0,0-5.9984131-15.2522583,8.3397217-59.2667847
				s29.4475098-40.0255127,18.2049561-7.1281128c-11.2425537,32.8973389-8.2978516,48.6898193-8.2978516,48.6898193
				s15.434082-44.9862671,26.9912109-65.8508301s18.5638428-11.6729736,11.3093262,9.1154785
				c-7.2546387,20.7883911-25.3675537,62.5102539-25.3675537,62.5102539s14.4511719-16.737915,27.8256836-42.3446045
				c13.3746338-25.6067505,25.0325928-22.1168213,15.2047119,1.4980469
				c-9.8278809,23.6149292-28.0040283,55.8291016-50.1789551,62.6456299
				C1026.1105957,692.0861206,1024.2541504,675.4007568,1024.2541504,675.4007568z"/>
			<g>
				<path fill="#FF8D88" d="M1048.7370605,748.9420776c-0.7365723,1.4952393-1.5064697,3.0082397-2.3012695,4.5609131
					c-0.7938232,1.5422974-1.6251221,3.1439209-2.5062256,4.8248901
					c-9.1729736,17.5946045-22.6260986,42.4277344-37.0645142,66.1537476
					c-1.821167,2.998291-3.6601563,5.9633179-5.4970093,8.9074707
					c-22.2891846,35.4846191-45.9465942,65.9520264-59.4107666,61.8475342
					c-18.6950684-5.6931763-0.0562744-74.3989258,14.9796143-126.4028931
					c0.9589844-3.3252563,1.9003906-6.5786133,2.8220825-9.7392578c3.3892212-11.651062,6.427002-22.0845947,8.5927124-30.2891235
					c11.96875-45.3297729,23.2084351-65.4249878,59.7402344-53.1235962
					C1064.5206299,687.9625244,1069.0059814,707.7972412,1048.7370605,748.9420776z"/>
				<path opacity="0.3" d="M1048.7370605,748.9420776c-0.7365723,1.4952393-1.5064697,3.0082397-2.3012695,4.5609131
					c-0.7938232,1.5422974-1.6251221,3.1439209-2.5062256,4.8248901
					c-16.4379883-7.6699829-48.4972534-23.2872314-39.1090698-24.0563965
					C1014.3356323,733.4938965,1038.0443115,743.942627,1048.7370605,748.9420776z"/>
				<path opacity="0.3" d="M1006.8650513,824.4816284c-1.821167,2.998291-3.6601563,5.9633179-5.4970093,8.9074707
					c-16.8375854-8.0986938-38.5895996-19.3963623-30.6444702-20.0445557
					C978.3405151,812.7165527,995.0144043,819.2733765,1006.8650513,824.4816284z"/>
				<path opacity="0.3" d="M985.553772,776.777771c-6.0999756,0.5037842-18.0167847-3.6060791-28.6168823-7.9440308
					c0.9589844-3.3252563,1.9003906-6.5786133,2.8220825-9.7392578
					C975.5760498,766.8716431,992.7571411,776.1826782,985.553772,776.777771z"/>
			</g>
		</g>
		<polygon fill="#374D6D" points="976.7944946,528.8291016 976.7944946,599.7463379 898.4122925,827.4279785 
			923.0466919,835.6394653 999.1893921,608.7042847 1063.7432861,528.8291016 1037.2607422,514.2012329 998.8161621,571.4699707 
			1002.921875,533.3080444 		"/>
		<polygon fill="#374D6D" points="755.5950928,638.4960938 808.2633057,685.9862061 924.8670044,896.666748 
			947.4620361,883.8703003 829.9130249,675.3529053 813.8208008,573.9216919 785.2229614,583.7938843 802.0101929,650.6959229 
			776.4178467,622.0913696 		"/>
		<g>
			<path fill="#222B3F" d="M919.2359619,677.3384399c0,0,0.1797485-37.2426758,20.0785522-60.7844849l13.2081909,7.8841553
				c0,0-20.4293823,15.5593872-31.1298828,54.8215332L919.2359619,677.3384399z"/>
			<path fill="#222B3F" d="M919.732666,674.9203491c0,0-23.7437134-15.374939-18.213623-40.1452026
				C907.0491943,610.0048828,923.8501587,649.1318359,919.732666,674.9203491z"/>
			<path fill="#FF8D88" d="M919.6939087,672.3723755c0,0-21.3634644-28.1983643-49.5141602-20.1655884
				s-34.7000122,47.5708618-25.4419556,90.6380615c9.2581177,43.0671997,39.6750488,42.3738403,55.668457,31.9523315
				c0,0,14.7664795,24.2244263,35.4503174,19.0291748c20.6838379-5.1953125,45.8279419-44.9440308,53.6290283-75.5136719
				S974.7886353,657.3391113,919.6939087,672.3723755z"/>
			<g>
				<path opacity="0.3" fill="#FFFFFF" d="M935.8554688,795.3261719c-0.671875,0-1.2832031-0.4541016-1.4541016-1.1347656
					c-0.2011719-0.8037109,0.2861328-1.6181641,1.0898438-1.8203125c20.1875-5.0703125,44.8203125-44.1738281,52.5410156-74.4296875
					c4.1640625-16.3154297-0.5644531-31.2548828-12.6494141-39.9628906c-0.671875-0.484375-0.8242188-1.421875-0.3398438-2.09375
					s1.4208984-0.8251953,2.09375-0.3398438c12.9277344,9.3144531,18.2158203,25.8447266,13.8017578,43.1386719
					c-7.9248047,31.0566406-33.5527344,71.28125-54.7167969,76.5976563
					C936.0996094,795.3115234,935.9765625,795.3261719,935.8554688,795.3261719z"/>
			</g>
		</g>
		<g>
			<path fill="#FF8D88" d="M756.1751099,722.9691162c-39.4175415,39.4818726,9.1320801,122.4815063,73.4320679,90.0957642
				s36.7337036-96.1705933,5.8197632-110.3491821S777.1258545,701.9841919,756.1751099,722.9691162z"/>
			<g>
				<path opacity="0.3" fill="#FFFFFF" d="M857.0634766,793.0703125c-0.3232422,0-0.6484375-0.1035156-0.921875-0.3173828
					c-0.6533203-0.5097656-0.7695313-1.453125-0.2597656-2.1054688
					c9.1640625-11.7363281,12.8583984-25.7841797,10.6855469-40.6259766
					c-2.4072266-16.4384766-12.2568359-32.9443359-25.09375-42.0517578
					c-0.6757813-0.4794922-0.8349609-1.4160156-0.3554688-2.0917969c0.4804688-0.6757813,1.4160156-0.8330078,2.0917969-0.3554688
					c13.6796875,9.7060547,23.7666016,26.5898438,26.3251953,44.0634766
					c2.2949219,15.6728516-1.6083984,30.5097656-11.2880859,42.9072266
					C857.9511719,792.8720703,857.5097656,793.0703125,857.0634766,793.0703125z"/>
			</g>
			<path fill="#222B3F" d="M778.7523193,713.1056519c0,0-15.5493774-20.2675781-31.6221313-28.8525391l5.7891235-7.4863892
				c0,0,19.3499756,15.3455811,28.6084595,34.3638306C781.527771,711.1305542,780.8372803,713.0526733,778.7523193,713.1056519z"/>
		</g>
		<g>
			<path fill="#222B3F" d="M1049.6029053,786.3344116c0,0-3.2592773,83.1484375-40.2960815,151.8040161
				c-4.657959,8.6344604-13.6268921,14.067688-23.4376221,14.067688H797.1752319
				c-9.81073,0-18.7796631-5.4332275-23.4376221-14.067688c-37.0368652-68.6555786-40.2961426-151.8040161-40.2961426-151.8040161
				H1049.6029053z"/>
			<path fill="#374D6D" d="M1050.2539063,799.7738037H732.7876587c-3.543396,0-6.4158936-2.8724976-6.4158936-6.4158936v-14.0421753
				c0-3.543396,2.8724976-6.4158325,6.4158936-6.4158325h317.4662476c3.543335,0,6.4157715,2.8724365,6.4157715,6.4158325
				v14.0421753C1056.6696777,796.9013062,1053.7972412,799.7738037,1050.2539063,799.7738037z"/>
		</g>
	</g>
</g>
<g id="Layer_x5F_Character_1">
	<g id="left_forearm">
		<g>
			<path fill="#9F5353" d="M619.968811,642.2628784c0,0-3.7324829-15.3032227,13.8101807-21.2752075
				c13.3984985-4.5611572,34.6352539-21.0974731,43.9212646-28.6558838c2.6386108-2.1477051,6.4716797-1.946106,8.8774414,0.4596558
				l0,0c2.2763062,2.2763062,2.5912476,5.8578491,0.7470093,8.49646l-21.0730591,30.1507568L619.968811,642.2628784z"/>
			<path fill="#9F5353" d="M587.1229248,803.5062866l28.3668823-132.8765259l-1.3908691-12.4019165
				c-1.005249-8.963501,2.2283936-17.8828125,8.7443237-24.1195068h0.000061
				c4.5910034-4.3942871,10.5015259-7.1542969,16.8180542-7.8534546l55.454834-6.1381226l32.1505737-40.8153076
				c1.6954346-2.1523438,4.6950073-2.7701416,7.1029663-1.4629517l0,0c2.5679321,1.3939819,3.6411133,4.5218506,2.4699707,7.1987305
				l-21.3898926,48.8912354c-2.8570557,6.5303345-7.81073,11.9210815-14.0768433,15.3186646l-46.3187866,25.1151123
				c0,0,0.3707275,185.8778076-7.2796631,217.2307129c-7.6503296,31.3528442-33.77771,40.3108521-45.7216797,32.0993652
				S587.1229248,803.5062866,587.1229248,803.5062866z"/>
			<g>
				<path fill="#222B3F" d="M622.8427734,635.6083984c-0.3251953,0-0.6523438-0.1054688-0.9277344-0.3222656
					c-0.6503906-0.5126953-0.7617188-1.4560547-0.2490234-2.1064453c0.2050781-0.2607422,5.125-6.3896484,13.7294922-7.6611328
					c8.0478516-1.1884766,33.6171875-4.0214844,33.875-4.0507813c0.8085938-0.0849609,1.5654297,0.5019531,1.65625,1.3261719
					c0.0908203,0.8232422-0.5029297,1.5644531-1.3261719,1.65625c-0.2568359,0.0283203-25.7724609,2.8564453-33.7675781,4.0371094
					c-7.4375,1.0976563-11.7685547,6.4951172-11.8115234,6.5498047
					C623.7255859,635.4121094,623.2861328,635.6083984,622.8427734,635.6083984z"/>
			</g>
		</g>
	</g>
	<g id="left_arm">
		<g>
			<path fill="#6081C1" d="M473.6553345,553.4296875c35.0853882-4.4790039,50.0153198,20.9019165,58.2268066,56.7337646
				c8.2114258,35.8319092,53.3745117,186.6243286,53.3745117,186.6243286l43.1724243,122.4255371
				c0,0-24.1367188,32.9951172-51.0106201,32.9951172s-67.1685486-40.460083-88.0785828-109.8843384
				c-20.9100037-69.4241943-47.0393066-217.9095459-47.0393066-249.2623901
				C442.3005676,552.9172974,473.6553345,553.4296875,473.6553345,553.4296875z"/>
			<path fill="#222B3F" d="M580.4204712,800.3321533c0,0-13.6625977,106.4395752,0.2524414,151.7270508h43.5932007
				c15.6442871,0,26.9177246-14.9956665,22.5668335-30.0227661c-8.3127441-28.7104492-21.2653809-71.4133301-31.9702759-97.7094727
				C597.5739136,781.8578491,581.7355347,788.8459473,580.4204712,800.3321533z"/>
		</g>
	</g>
	<g id="body">
		<g>
			<g>
				<path fill="#6081C1" d="M524.0389404,952.0595093H211.6367798l35.8341064-240.7443237l-20.1580048-147.8080444
					l102.7692413,4.282959l31.6035767,1.319397l22.9330444-3.2147217l89.0408325-12.4613647l2.2304688,61.5840454
					c0,0,22.6485291,70.6478271,22.6485291,81.8421021c0,11.2047119-11.1974487,61.770813-11.1974487,61.770813
					L524.0389404,952.0595093z"/>
				<g>
					<path opacity="0.3" fill="#6081C1" d="M509.9350586,879.2275391c-0.706543,0-1.3359375-0.5009766-1.472168-1.2207031
						l-22.5952148-119.0976563c-0.0380859-0.1992188-0.034668-0.4052734,0.0092773-0.6035156
						c0.1113281-0.5039063,11.1616211-50.5322266,11.1616211-61.4462891c0-10.8339844-22.3510742-80.6796875-22.5766602-81.3837891
						c-0.0419922-0.1308594-0.065918-0.2666016-0.0708008-0.4033203l-1.8759766-51.7905273
						c-0.0297852-0.8276367,0.6166992-1.5234375,1.4448242-1.5532227c0.8276367-0.0273438,1.5229492,0.6166992,1.5532227,1.4448242
						l1.8686523,51.5834961c1.5820313,4.9423828,22.6567383,70.9912109,22.6567383,82.1025391
						c0,10.9101563-10.1508789,57.1914063-11.1660156,61.7939453l22.5375977,118.7949219
						c0.1542969,0.8134766-0.3798828,1.5986328-1.1938477,1.7529297
						C510.121582,879.21875,510.0273438,879.2275391,509.9350586,879.2275391z"/>
				</g>
				<g>
					<path opacity="0.3" fill="#FFFFFF" d="M509.9350586,879.2275391c-0.706543,0-1.3359375-0.5009766-1.472168-1.2207031
						l-22.5952148-119.0976563c-0.0380859-0.1992188-0.034668-0.4052734,0.0092773-0.6035156
						c0.1113281-0.5039063,11.1616211-50.5322266,11.1616211-61.4462891c0-10.8339844-22.3510742-80.6796875-22.5766602-81.3837891
						c-0.0419922-0.1308594-0.065918-0.2666016-0.0708008-0.4033203l-1.8759766-51.7905273
						c-0.0297852-0.8276367,0.6166992-1.5234375,1.4448242-1.5532227c0.8276367-0.0273438,1.5229492,0.6166992,1.5532227,1.4448242
						l1.8686523,51.5834961c1.5820313,4.9423828,22.6567383,70.9912109,22.6567383,82.1025391
						c0,10.9101563-10.1508789,57.1914063-11.1660156,61.7939453l22.5375977,118.7949219
						c0.1542969,0.8134766-0.3798828,1.5986328-1.1938477,1.7529297
						C510.121582,879.21875,510.0273438,879.2275391,509.9350586,879.2275391z"/>
				</g>
				<path fill="#6081C1" d="M381.0896606,902.7903442c57.7639771,0.6017456,71.3886108-86.5805664,69.8112183-169.2894897
					l-25.0213623-22.5602417l20.7591858-43.4953613c-10.0940857-87.328186-42.4440002-125.2130737-90.9299316-125.2130737
					c-45.0457458,0-73.0401611,52.321106-75.6445923,124.0933838l33.3430786,48.3475342l-29.383606,22.371582
					C293.6982727,815.6279907,320.6898804,902.1612549,381.0896606,902.7903442z"/>
				<g>
					<path opacity="0.3" fill="#FFFFFF" d="M434.3935547,861.4111328c-0.1904297,0-0.3837891-0.0361328-0.5708008-0.1132813
						c-0.7661133-0.3154297-1.1313477-1.1914063-0.815918-1.9580078
						c11.7036133-28.4199219,17.3740234-71.6884766,16.40625-125.1601563l-24.5380859-22.125
						c-0.4931641-0.4453125-0.6352539-1.1611328-0.3491211-1.7607422l20.5727539-43.1044922
						c-5.2094727-44.6572266-16.5517578-77.6054688-33.7138672-97.9379883
						c-0.534668-0.6333008-0.4545898-1.5795898,0.1782227-2.1142578c0.6337891-0.534668,1.5795898-0.453125,2.1142578,0.1787109
						c17.6040039,20.8564453,29.1953125,54.4868164,34.4516602,99.9575195
						c0.0322266,0.2802734-0.0151367,0.5634766-0.1367188,0.8183594l-20.2768555,42.484375l24.1899414,21.8105469
						c0.3081055,0.2783203,0.4873047,0.6708984,0.4951172,1.0859375
						c0.7207031,37.7802734-1.5776367,90.4833984-16.6191406,127.0097656
						C435.5424805,861.0615234,434.9833984,861.4111328,434.3935547,861.4111328z"/>
				</g>
				<g>
					<path opacity="0.3" fill="#FFFFFF" d="M328.9501953,875.6923828c-0.4448242,0-0.8857422-0.1972656-1.1816406-0.5742188
						C300.0625,839.7744141,287.8774414,780.625,282.534668,737.2285156
						c-0.0649414-0.5292969,0.1557617-1.0537109,0.5800781-1.3769531l28.2451172-21.5048828l-32.5307617-47.1699219
						c-0.1831055-0.265625-0.2758789-0.5830078-0.2641602-0.90625c1.3833008-38.1113281,10.109375-71.3686523,24.5698242-93.6455078
						c0.4516602-0.6938477,1.3793945-0.8911133,2.0751953-0.4414063c0.6948242,0.4511719,0.8920898,1.3803711,0.4414063,2.0751953
						c-14.1074219,21.7319336-22.6489258,54.2558594-24.0698242,91.625l33.0605469,47.9375
						c0.4545898,0.6591797,0.3110352,1.5595703-0.3261719,2.0449219l-28.6977539,21.8496094
						c5.3500977,42.9375,17.4101563,100.9794922,44.5117188,135.5507813
						c0.5107422,0.6523438,0.3969727,1.5947266-0.2553711,2.1064453
						C329.6000977,875.5878906,329.2739258,875.6923828,328.9501953,875.6923828z"/>
				</g>
				<path fill="#FF8D88" d="M340.7109375,952.0595093c0.5026245-16.9536743,0.6911011-47.1435547-2.1676636-84.3495483
					c-3.4242554-44.4313965-6.105011-167.5576172-7.6338501-232.901001l9.5502014-63.7935791v-0.010437
					c9.906189-9.0789795,24.7969666-12.4508667,36.1063843-2.5655518v0.020874l23.4251709,56.9974976
					c7.2988281,25.0482788,15.1421204,57.9085083,16.9327393,91.4597778
					c2.481781,46.5571899,11.1628723,188.6057129,14.0216064,235.1419678H340.7109375z"/>
			</g>
			<g>
				<path fill="#9F5353" d="M399.9911804,625.4577637c-13.5713196,29.8547363-29.3521118,41.4364624-29.3521118,41.4364624
					c-25.0064392-7.0892944-39.7296448-32.0852661-39.7296448-32.0852661l9.5502014-63.7935791v-0.010437l-2.9425354-40.3789063
					l-0.8482056-11.7177734l36.9545898,1.5811768l1.8115845,29.4987793l1.1309509,18.4511719v0.020874L399.9911804,625.4577637z"/>
				<path fill="#222B3F" d="M375.4350586,549.9882202c-17.6971436-0.8796387-30.0223389-10.241333-37.9179688-19.3621826
					l-0.8482056-11.7177734l36.9545898,1.5811768L375.4350586,549.9882202z"/>
			</g>
		</g>
	</g>
	<g id="right_forearm">
		<g>
			<path fill="#9F5353" d="M524.0389404,952.0595093c0,0-54.9031067,0-118.4977722,0l-17.9798584-7.4663086
				c0,0-88.4544678,7.1312256-170.2907562,7.4558105c-36.3263245-0.6072998-40.7034912-32.3051758-38.48349-54.4841919
				c2.2409515-22.3989868,66.4401093-28.2945557,66.4401093-28.2945557s142.5854187,32.0224609,147.810791,32.0224609
				s53.9920654-14.1786499,62.2019043-14.9221802C463.449646,885.6165771,537.107605,927.4196167,524.0389404,952.0595093z"/>
			<g>
				<path fill="#222B3F" d="M514.4638672,945.0986328c-0.394043,0-0.7875977-0.1542969-1.0820313-0.4609375
					c-23.418457-24.3945313-53.5244141-39.3574219-53.8256836-39.5058594
					c-0.7431641-0.3652344-1.0493164-1.2646484-0.6835938-2.0078125s1.2670898-1.0507813,2.0078125-0.6835938
					c0.3056641,0.1503906,30.8701172,15.3330078,54.6655273,40.1191406c0.5737305,0.5976563,0.5541992,1.5478516-0.043457,2.1210938
					C515.2119141,944.9599609,514.8374023,945.0986328,514.4638672,945.0986328z"/>
			</g>
			<g>
				<path fill="#222B3F" d="M489.3388672,947.7792969c-0.340332,0-0.6831055-0.1152344-0.9643555-0.3515625
					c-20.0087891-16.8203125-40.0644531-26.7705078-40.2646484-26.8691406
					c-0.7431641-0.3652344-1.0493164-1.2646484-0.6835938-2.0078125s1.2670898-1.0507813,2.0078125-0.6835938
					c0.203125,0.0996094,20.5703125,10.1982422,40.8710938,27.2636719c0.6337891,0.5332031,0.7158203,1.4794922,0.1831055,2.1132813
					C490.1914063,947.5976563,489.7666016,947.7792969,489.3388672,947.7792969z"/>
			</g>
		</g>
	</g>
	<g id="right_arm">
		<g>
			<path fill="#6081C1" d="M227.3112488,563.5073853c-42.550354-3.3592529-55.9873047,23.5146484-57.1070404,80.6217041
				c-1.119751,57.1070557-6.7184753,242.9848633-7.8382263,258.6613159s29.2227631,22.3948975,56.6018524,0
				s44.175293-48.1490479,44.175293-48.1490479s-6.7184753-135.4892578-11.1974792-186.9976196
				C247.4666748,616.135437,227.3112488,563.5073853,227.3112488,563.5073853z"/>
			<g>
				<path fill="#6081C1" d="M262.4536133,857.1640625c-0.2915039,0-0.5864258-0.0849609-0.8452148-0.2617188
					c-0.684082-0.4677734-0.8588867-1.4013672-0.3916016-2.0849609c0.1645508-0.2402344,0.2993164-0.4394531,0.4033203-0.5947266
					c-0.4506836-9.0361328-6.8789063-137.1162109-11.168457-186.4492188
					c-3.090332-35.5341797-13.7294922-71.7324219-19.7963867-90.1474609
					c-0.2592773-0.7866211,0.168457-1.6347656,0.9555664-1.894043c0.7856445-0.2597656,1.6342773,0.168457,1.894043,0.9555664
					c6.1074219,18.5380859,16.8188477,54.9892578,19.9350586,90.8261719
					c4.4301758,50.9472656,11.1342773,185.6982422,11.2011719,187.0537109
					c0.015625,0.3154297-0.0688477,0.6289063-0.2416992,0.8935547c0,0-0.2382813,0.3662109-0.7060547,1.0498047
					C263.402832,856.9355469,262.9321289,857.1640625,262.4536133,857.1640625z"/>
			</g>
			<g opacity="0.3">
				<path fill="#FFFFFF" d="M262.4536133,857.1640625c-0.2915039,0-0.5864258-0.0849609-0.8452148-0.2617188
					c-0.684082-0.4677734-0.8588867-1.4013672-0.3916016-2.0849609c0.1645508-0.2402344,0.2993164-0.4394531,0.4033203-0.5947266
					c-0.4506836-9.0361328-6.8789063-137.1162109-11.168457-186.4492188
					c-3.090332-35.5341797-13.7294922-71.7324219-19.7963867-90.1474609
					c-0.2592773-0.7866211,0.168457-1.6347656,0.9555664-1.894043c0.7856445-0.2597656,1.6342773,0.168457,1.894043,0.9555664
					c6.1074219,18.5380859,16.8188477,54.9892578,19.9350586,90.8261719
					c4.4301758,50.9472656,11.1342773,185.6982422,11.2011719,187.0537109
					c0.015625,0.3154297-0.0688477,0.6289063-0.2416992,0.8935547c0,0-0.2382813,0.3662109-0.7060547,1.0498047
					C263.402832,856.9355469,262.9321289,857.1640625,262.4536133,857.1640625z"/>
			</g>
			<path fill="#222B3F" d="M251.2590332,849.2030029c-56.5445557,8.2947998-97.9924164,48.5411987-101.7210541,58.4178467
				c-3.7286224,9.876709,8.8466797,38.6583862,30.9927673,44.4386597
				c13.0214386,3.3986816,97.028244-66.4096069,100.2701569-74.1003418
				C284.0428467,870.2684326,294.7420044,842.8243408,251.2590332,849.2030029z"/>
		</g>
	</g>
	<g id="head">
		<g>
			<g>
				<path fill="#374D6D" d="M329.1322327,384.5336304c0,0-3.6560669-58.8562927-29.1353149-64.0942078
					c-25.4792786-5.237915-60.498764,26.8701172-62.9726257,52.7858887
					c-2.4738464,25.9157715,50.1055603,41.5041504,50.1055603,41.5041504L329.1322327,384.5336304z"/>
				<path fill="#374D6D" d="M356.8285217,349.4016724c-53.3745422,0-58.6000366,55.6140442-58.6000366,55.6140442
					s-28.3668823-5.2254639-38.0713501,25.0076599c-9.704483,30.2331543,31.2850342,87.7134399,99.9627686,85.473938
					s62.6445618-42.1770935,62.6445618-42.1770935s32.6016846-19.0829468,26.2564697-53.7478027
					c-5.9143982-32.3111572-39.5643616-22.394928-39.5643616-22.394928S405.3508301,349.4016724,356.8285217,349.4016724z"/>
				<g>
					<path opacity="0.3" fill="#FFFFFF" d="M278.6772461,409.2255554c-0.5722656,0-1.1186523-0.3291016-1.3686523-0.8847656
						c-0.340332-0.7548828-0.003418-1.6430664,0.7519531-1.9833984c7.9648438-3.5874023,15.6420898-3.3476563,18.8637695-3.0253906
						c0.8837891-6.2548828,5.3476563-29.6171875,23.9804688-44.0546875c0.6547852-0.5073242,1.5966797-0.387207,2.1044922,0.2666016
						c0.5078125,0.6552734,0.3881836,1.597168-0.2666016,2.1044922
						c-20.1552734,15.6171875-22.9946289,43.230957-23.0209961,43.5083008
						c-0.0395508,0.4179688-0.253418,0.800293-0.5883789,1.0541992c-0.3349609,0.253418-0.7602539,0.355957-1.1748047,0.2802734
						c-0.0913086-0.0170898-9.2958984-1.6181641-18.6665039,2.6015625
						C279.0922852,409.1825867,278.8828125,409.2255554,278.6772461,409.2255554z"/>
				</g>
			</g>
			<g>
				<g>
					<path fill="#9F5353" d="M400.3695374,474.3009644c0,0,7.4649658-16.7961731,22.394928-8.5847168
						c14.9299316,8.2114868-3.9190979,51.1350708-28.9267578,36.9516296L400.3695374,474.3009644z"/>
					<g>
						<g>
							<path fill="#222B3F" d="M401.487793,494.2768555c-0.2719727,0-0.5473633-0.0737305-0.7949219-0.2290039
								c-0.7021484-0.4399414-0.9145508-1.3657227-0.4746094-2.0673828
								c9.0410156-14.4277344,19.1220703-15.9360352,19.546875-15.9936523
								c0.8178711-0.1030273,1.5761719,0.4658203,1.6870117,1.2866211c0.1098633,0.8188477-0.4624023,1.5722656-1.2797852,1.6860352
								c-0.1484375,0.0224609-9.2060547,1.5195313-17.4121094,14.6137695
								C402.4755859,494.027832,401.9873047,494.2768555,401.487793,494.2768555z"/>
						</g>
						<g>
							<path fill="#222B3F" d="M413.5249023,497.5424805c-0.7724609,0-1.4282227-0.5927734-1.4931641-1.3754883l0,0
								c-0.0048828-0.0527344-0.5009766-5.3417969-4.5947266-11.4238281
								c-0.4628906-0.6870117-0.2807617-1.6191406,0.4067383-2.081543c0.6875-0.4633789,1.6196289-0.2807617,2.081543,0.4067383
								c4.5595703,6.7729492,5.0766602,12.6083984,5.0961914,12.8535156
								c0.0664063,0.8256836-0.5488281,1.5493164-1.3745117,1.6157227
								C413.605957,497.5410156,413.5649414,497.5424805,413.5249023,497.5424805z"/>
						</g>
					</g>
					<g>
						<path fill="#FF8D88" d="M418.1699829,520.4899902c0,11.460022-5.5899658,20.4400024-12.7399902,20.4400024
							c-7.1499634,0-12.7399902-8.9799805-12.7399902-20.4400024c0-6.6199951,1.8599854-12.4100342,4.8200073-16.1199951
							c2.1599731-2.710022,4.8999634-4.3200073,7.9199829-4.3200073c0.8300171,0,1.5,0.6699829,1.5,1.5s-0.6699829,1.5-1.5,1.5
							c-1.6699829,0-3.25,0.7999878-4.6499634,2.1900024c-3,3.0100098-5.0900269,8.789978-5.0900269,15.25
							c0,9.460022,4.460022,17.4400024,9.7399902,17.4400024c5.2800293,0,9.7399902-7.9799805,9.7399902-17.4400024
							c0-6.4000244-2-12.2999878-5.2199707-15.3900146c-0.1600342-0.1499634-0.2800293-0.3399658-0.3599854-0.5299683
							c0.9799805-0.3200073,1.9199829-0.7300415,2.8399658-1.210022
							C416.039978,507.1199951,418.1699829,513.4599609,418.1699829,520.4899902z"/>
					</g>
				</g>
				<path fill="#9F5353" d="M330.3278809,412.3416443c8.0891113,28.1803284-13.4830627,56.4299927-20.3119507,58.0585327
					c2.5942688,24.372406,8.0990601,42.5121155,27.2792358,55.4090881
					c28.8645325,19.4089355,54.2454834,6.2208252,65.1941223-37.0760498
					c4.5362244-17.9388428,6.0782166-34.7564087,6.333374-48.3148804
					C353.1074524,444.2593689,330.3278809,412.3416443,330.3278809,412.3416443z"/>
				<g>
					<path fill="#9F5353" d="M312.3919983,474.3009644c0,0-7.4649963-16.7961731-22.394928-8.5847168
						c-14.9299622,8.2114868,3.9190979,51.1350708,28.9267578,36.9516296L312.3919983,474.3009644z"/>
					<g>
						<g>
							<path fill="#222B3F" d="M311.2739258,494.2768555c-0.4995117,0-0.987793-0.2490234-1.2724609-0.7036133
								c-8.2324219-13.1367188-17.3222656-14.6010742-17.4130859-14.6142578
								c-0.8168945-0.1191406-1.3876953-0.8759766-1.2734375-1.6928711c0.1147461-0.8168945,0.862793-1.3857422,1.6816406-1.2792969
								c0.4248047,0.0576172,10.5058594,1.565918,19.546875,15.9936523
								c0.4399414,0.7016602,0.2275391,1.6274414-0.4746094,2.0673828
								C311.8212891,494.203125,311.5458984,494.2768555,311.2739258,494.2768555z"/>
						</g>
						<g>
							<path fill="#222B3F" d="M299.2363281,497.5405273c-0.0415039,0-0.0834961-0.0019531-0.1259766-0.0053711
								c-0.8242188-0.0688477-1.4370117-0.7890625-1.3706055-1.6132813
								c0.0200195-0.2451172,0.5371094-6.0805664,5.0966797-12.8535156c0.4619141-0.6875,1.394043-0.8701172,2.081543-0.4067383
								c0.6875,0.4624023,0.8696289,1.3945313,0.4067383,2.081543c-4.09375,6.0820313-4.590332,11.3710938-4.5952148,11.4238281
								C300.6625977,496.9487305,300.0068359,497.5405273,299.2363281,497.5405273z"/>
						</g>
					</g>
					<g>
						<path fill="#FF8D88" d="M320.0800171,520.4899902c0,11.460022-5.6000366,20.4400024-12.75,20.4400024
							c-7.1400146,0-12.7399902-8.9799805-12.7399902-20.4400024c0-7.0300293,2.1299438-13.3699951,5.7399902-17.1300049
							c0.9199829,0.4799805,1.8599854,0.8900146,2.8399658,1.210022c-0.0799561,0.1900024-0.2000122,0.3800049-0.3599854,0.5299683
							c-3.2199707,3.0900269-5.2199707,8.9899902-5.2199707,15.3900146c0,9.460022,4.4599609,17.4400024,9.7399902,17.4400024
							c5.2799683,0,9.75-7.9799805,9.75-17.4400024c0-6.460022-2.0900269-12.2399902-5.1000366-15.25
							c-1.3899536-1.3900146-2.9799805-2.1900024-4.6499634-2.1900024c-0.8300171,0-1.5-0.6699829-1.5-1.5s0.6699829-1.5,1.5-1.5
							c3.0100098,0,5.75,1.5999756,7.9199829,4.3099976C318.210022,508.0700073,320.0800171,513.8599854,320.0800171,520.4899902z"
							/>
					</g>
				</g>
			</g>
			<g>
				<g>
					<ellipse fill="#222B3F" cx="343.7672424" cy="470.7657776" rx="5.3502698" ry="6.7078009"/>
					<circle fill="#FFFFFF" cx="344.8053589" cy="468.7694092" r="1.9963694"/>
					<path fill="#222B3F" d="M330.9205627,458.0379333c0,0,7.4423523-5.0304565,17.7017212-3.5580139
						c0,0-0.7077942-5.9416504-1.9224548-7.5020142c-1.2146301-1.5603638-1.981842,2.6842957-1.981842,2.6842957
						S332.5227966,448.340332,330.9205627,458.0379333z"/>
				</g>
				<g>
					<ellipse fill="#222B3F" cx="380.3407288" cy="470.7657776" rx="5.3502698" ry="6.7078009"/>
					<circle fill="#FFFFFF" cx="381.2990112" cy="468.7694092" r="1.9963694"/>
					<path fill="#222B3F" d="M390.9922485,457.5636597c0,0-7.0211182-4.9850769-16.6627197-3.5808411
						c0,0,0.6394043-5.8460999,1.7747803-7.3768311s1.8756104,2.6512756,1.8756104,2.6512756
						S389.442688,448.0098267,390.9922485,457.5636597z"/>
				</g>
				<g>
					<path fill="#222B3F" d="M363.0791016,487.1855469c-0.6904297,0-1.3115234-0.4799805-1.4638672-1.1826172
						c-0.175293-0.809082,0.3383789-1.6074219,1.1474609-1.7836914c2.2177734-0.4833984,6.6767578-2.1567383,6.3056641-4.2436523
						c-0.46875-2.6367188-5.5004883-1.8725586-5.5507813-1.862793c-0.4116211,0.0693359-0.8344727-0.0366211-1.1660156-0.2919922
						c-0.3300781-0.2553711-0.5410156-0.6367188-0.5786133-1.0522461l-0.9331055-10.3574219
						c-0.0742188-0.8251953,0.534668-1.5541992,1.359375-1.6289063c0.824707-0.0649414,1.5546875,0.5341797,1.6289063,1.359375
						l0.7973633,8.8544922c2.8735352-0.0927734,6.7358398,0.7358398,7.3969727,4.4541016
						c0.9711914,5.465332-7.6401367,7.4882813-8.6254883,7.7011719
						C363.2905273,487.1743164,363.184082,487.1855469,363.0791016,487.1855469z"/>
				</g>
				<g>
					<path fill="#222B3F" d="M360.7460938,507.7280273c-11.3383789,0-16.9291992-7.7895508-17.1694336-8.1323242
						c-0.4755859-0.6787109-0.3105469-1.6142578,0.3676758-2.0893555c0.6796875-0.4750977,1.6123047-0.3110352,2.0878906,0.3657227
						c0.2294922,0.3222656,5.3530273,7.3305664,15.7988281,6.8295898c10.2290039-0.4995117,12.125-8.0981445,12.1430664-8.1748047
						c0.1879883-0.8071289,0.9970703-1.3071289,1.8022461-1.1186523c0.8066406,0.1889648,1.3076172,0.9956055,1.1186523,1.8022461
						c-0.0229492,0.0986328-2.4550781,9.8793945-14.9174805,10.4873047
						C361.5600586,507.7182617,361.1489258,507.7280273,360.7460938,507.7280273z"/>
				</g>
			</g>
		</g>
	</g>
</g>
<g id="Table">
	<g>
		<rect x="67.1875839" y="952.2084351" fill="#222B3F" width="1070.8503418" height="35.6826706"/>
		<g>
			<path fill="#222B3F" d="M1138.0380859,989.390625H67.1875c-0.8286133,0-1.5-0.671875-1.5-1.5v-35.6826172
				c0-0.828125,0.6713867-1.5,1.5-1.5h1070.8505859c0.828125,0,1.5,0.671875,1.5,1.5v35.6826172
				C1139.5380859,988.71875,1138.8662109,989.390625,1138.0380859,989.390625z M68.6875,986.390625h1067.8505859v-32.6826172
				H68.6875V986.390625z"/>
		</g>
		<g>
			<path opacity="0.3" fill="#FFFFFF" d="M1138.0380859,989.390625H67.1875c-0.8286133,0-1.5-0.671875-1.5-1.5v-35.6826172
				c0-0.828125,0.6713867-1.5,1.5-1.5h1070.8505859c0.828125,0,1.5,0.671875,1.5,1.5v35.6826172
				C1139.5380859,988.71875,1138.8662109,989.390625,1138.0380859,989.390625z M68.6875,986.390625h1067.8505859v-32.6826172
				H68.6875V986.390625z"/>
		</g>
	</g>
</g>
</svg>
