<?xml version="1.0" encoding="iso-8859-1"?>
<!-- Generator: Adobe Illustrator 26.0.2, SVG Export Plug-In . SVG Version: 6.00 Build 0)  -->
<svg version="1.1" xmlns="http://www.w3.org/2000/svg" xmlns:xlink="http://www.w3.org/1999/xlink" x="0px" y="0px"
	 viewBox="0 0 1200 1200" enable-background="new 0 0 1200 1200" xml:space="preserve">
<g id="Background_x5F_Simple">
	<g>
		<g>
			<path fill="#EEEEEE" d="M713.16,110.01L713.16,110.01c-2.47,0-4.48-2-4.48-4.48V91.28c0-2.47,2-4.48,4.48-4.48l0,0
				c2.47,0,4.48,2,4.48,4.48v14.25C717.64,108,715.64,110.01,713.16,110.01z"/>
			<path fill="#EEEEEE" d="M723.67,120.51L723.67,120.51c0-2.47,2-4.48,4.48-4.48h14.25c2.47,0,4.48,2,4.48,4.48v0
				c0,2.47-2,4.48-4.48,4.48h-14.25C725.67,124.99,723.67,122.98,723.67,120.51z"/>
			<path fill="#EEEEEE" d="M713.16,131.02L713.16,131.02c2.47,0,4.48,2,4.48,4.48v14.25c0,2.47-2,4.48-4.48,4.48l0,0
				c-2.47,0-4.48-2-4.48-4.48v-14.25C708.69,133.02,710.69,131.02,713.16,131.02z"/>
			<path fill="#EEEEEE" d="M702.66,120.51L702.66,120.51c0,2.47-2,4.48-4.48,4.48h-14.25c-2.47,0-4.48-2-4.48-4.48v0
				c0-2.47,2-4.48,4.48-4.48h14.25C700.66,116.04,702.66,118.04,702.66,120.51z"/>
		</g>
		<g>
			<path fill="#EEEEEE" d="M1078.06,672.95L1078.06,672.95c-2.47,0-4.48-2-4.48-4.48v-14.25c0-2.47,2-4.48,4.48-4.48l0,0
				c2.47,0,4.48,2,4.48,4.48v14.25C1082.53,670.94,1080.53,672.95,1078.06,672.95z"/>
			<path fill="#EEEEEE" d="M1088.56,683.45L1088.56,683.45c0-2.47,2-4.48,4.48-4.48h14.25c2.47,0,4.48,2,4.48,4.48l0,0
				c0,2.47-2,4.48-4.48,4.48h-14.25C1090.57,687.93,1088.56,685.92,1088.56,683.45z"/>
			<path fill="#EEEEEE" d="M1078.06,693.95L1078.06,693.95c2.47,0,4.48,2,4.48,4.48v14.25c0,2.47-2,4.48-4.48,4.48l0,0
				c-2.47,0-4.48-2-4.48-4.48v-14.25C1073.58,695.96,1075.59,693.95,1078.06,693.95z"/>
			<path fill="#EEEEEE" d="M1067.55,683.45L1067.55,683.45c0,2.47-2,4.48-4.48,4.48h-14.25c-2.47,0-4.48-2-4.48-4.48l0,0
				c0-2.47,2-4.48,4.48-4.48h14.25C1065.55,678.97,1067.55,680.98,1067.55,683.45z"/>
		</g>
		<g>
			<path fill="#EEEEEE" d="M410.72,105.53L410.72,105.53c-2.47,0-4.48-2-4.48-4.48V86.81c0-2.47,2-4.48,4.48-4.48l0,0
				c2.47,0,4.48,2,4.48,4.48v14.25C415.2,103.53,413.19,105.53,410.72,105.53z"/>
			<path fill="#EEEEEE" d="M421.23,116.04L421.23,116.04c0-2.47,2-4.48,4.48-4.48h14.25c2.47,0,4.48,2,4.48,4.48v0
				c0,2.47-2,4.48-4.48,4.48H425.7C423.23,120.51,421.23,118.51,421.23,116.04z"/>
			<path fill="#EEEEEE" d="M410.72,126.54L410.72,126.54c2.47,0,4.48,2,4.48,4.48v14.25c0,2.47-2,4.48-4.48,4.48l0,0
				c-2.47,0-4.48-2-4.48-4.48v-14.25C406.25,128.54,408.25,126.54,410.72,126.54z"/>
			<path fill="#EEEEEE" d="M400.22,116.04L400.22,116.04c0,2.47-2,4.48-4.48,4.48h-14.25c-2.47,0-4.48-2-4.48-4.48v0
				c0-2.47,2-4.48,4.48-4.48h14.25C398.21,111.56,400.22,113.56,400.22,116.04z"/>
		</g>
		<path fill="#EEEEEE" d="M144.88,191.57c-9.9,0-17.89,8.01-17.89,17.89c0,9.9,7.99,17.89,17.89,17.89
			c9.87,0,17.89-7.99,17.89-17.89C162.76,199.58,154.75,191.57,144.88,191.57z M144.87,219.15c-5.37,0-9.69-4.32-9.69-9.69
			c0-5.35,4.32-9.67,9.69-9.67c5.35,0,9.67,4.32,9.67,9.67C154.54,214.82,150.22,219.15,144.87,219.15z"/>
		<path fill="#EEEEEE" d="M1002.42,163.64c-9.9,0-17.89,8.01-17.89,17.89c0,9.9,7.99,17.89,17.89,17.89
			c9.87,0,17.89-7.99,17.89-17.89C1020.31,171.65,1012.29,163.64,1002.42,163.64z M1002.42,191.21c-5.37,0-9.69-4.32-9.69-9.69
			c0-5.35,4.32-9.67,9.69-9.67c5.35,0,9.67,4.32,9.67,9.67C1012.09,186.89,1007.76,191.21,1002.42,191.21z"/>
		<path fill="#EEEEEE" d="M113.97,673.41c-9.9,0-17.89,8.01-17.89,17.89c0,9.9,7.99,17.89,17.89,17.89
			c9.87,0,17.89-7.99,17.89-17.89C131.86,681.42,123.84,673.41,113.97,673.41z M113.97,700.99c-5.37,0-9.69-4.32-9.69-9.69
			c0-5.35,4.32-9.67,9.69-9.67c5.35,0,9.67,4.32,9.67,9.67C123.63,696.67,119.31,700.99,113.97,700.99z"/>
		<path fill="#EEEEEE" d="M654.42,889.57c-9.9,0-17.89,8.01-17.89,17.89c0,9.9,7.99,17.89,17.89,17.89
			c9.87,0,17.89-7.99,17.89-17.89C672.31,897.58,664.29,889.57,654.42,889.57z M654.42,917.15c-5.37,0-9.69-4.32-9.69-9.69
			c0-5.35,4.32-9.67,9.69-9.67c5.35,0,9.67,4.32,9.67,9.67C664.09,912.83,659.76,917.15,654.42,917.15z"/>
	</g>
</g>
<g id="Layer_x5F_Ground">
	<g>
		<g>
			
				<line fill="none" stroke="#222B3F" stroke-width="2" stroke-linecap="round" stroke-linejoin="round" stroke-miterlimit="10" x1="888.83" y1="1018.49" x2="1131.97" y2="1018.49"/>
			
				<line fill="none" stroke="#222B3F" stroke-width="2" stroke-linecap="round" stroke-linejoin="round" stroke-miterlimit="10" x1="68.03" y1="1018.49" x2="830.48" y2="1018.49"/>
		</g>
		<g>
			
				<line fill="none" stroke="#222B3F" stroke-width="2" stroke-linecap="round" stroke-linejoin="round" stroke-miterlimit="10" x1="309.63" y1="1065.84" x2="188.13" y2="1065.84"/>
			
				<line fill="none" stroke="#222B3F" stroke-width="2" stroke-linecap="round" stroke-linejoin="round" stroke-miterlimit="10" x1="1046.82" y1="1065.84" x2="349.19" y2="1065.84"/>
		</g>
		<g>
			
				<line fill="none" stroke="#222B3F" stroke-width="2" stroke-linecap="round" stroke-linejoin="round" stroke-miterlimit="10" x1="708.06" y1="1113.19" x2="790.41" y2="1113.19"/>
			
				<line fill="none" stroke="#222B3F" stroke-width="2" stroke-linecap="round" stroke-linejoin="round" stroke-miterlimit="10" x1="310.58" y1="1113.19" x2="680.89" y2="1113.19"/>
		</g>
	</g>
</g>
<g id="Layer_x5F_Plants">
	<g>
		<g>
			<path fill="#6081C1" d="M1017.23,1018.46c0,0,13.07-36.83,37.31-54.65c24.24-17.82,21.86,3.09,0,23.52
				c0,0,23.77-11.68,29.47,2.11C1088.04,999.21,1062.14,1018.46,1017.23,1018.46z"/>
			<g>
				<path fill="#374D6D" d="M954.02,1018.46c0,0-2.14-75.03,22.81-125.91s42.77-32.34,39.92-12.38c0,0,29.23-106.93,67.72-97.66
					s-21.39,100.51-51.33,132.59c0,0,22.1-10.92,26.38,7.73S1016.75,1007.05,954.02,1018.46z"/>
				<g opacity="0.3">
					<path fill="#FFFFFF" d="M958.53,1009.81c-0.19,0-0.38-0.05-0.55-0.16c-0.46-0.3-0.59-0.92-0.29-1.38
						c53.53-81.61,120-208.77,120.66-210.05c0.26-0.49,0.86-0.68,1.35-0.42c0.49,0.26,0.68,0.86,0.42,1.35
						c-0.67,1.28-67.18,128.53-120.76,210.22C959.18,1009.65,958.86,1009.81,958.53,1009.81z"/>
				</g>
			</g>
		</g>
		<g>
			<path fill="#6081C1" d="M159.1,1018.46c0,0-12.23-47.76-40.92-72.59s-31.12,0.74-4.16,29.21c0,0-26.68-16.28-28.94,2.94
				C83.48,991.64,114.19,1018.46,159.1,1018.46z"/>
			<g>
				<path fill="#374D6D" d="M222.31,1018.46c-17.51-152.32-96.79-256.8-130.46-235.96C35.13,817.61,147.76,980.88,222.31,1018.46z"
					/>
				<g opacity="0.3">
					<path fill="#FFFFFF" d="M217.79,1009.81c-0.33,0-0.65-0.16-0.84-0.45c-53.59-81.69-120.1-208.94-120.76-210.22
						c-0.26-0.49-0.07-1.09,0.42-1.35c0.49-0.26,1.09-0.07,1.35,0.42c0.67,1.28,67.13,128.44,120.66,210.05
						c0.3,0.46,0.17,1.08-0.29,1.38C218.17,1009.76,217.98,1009.81,217.79,1009.81z"/>
				</g>
			</g>
		</g>
	</g>
</g>
<g id="Layer_x5F_Character_3">
	<g id="left_arm_00000178187631487101168480000009812698827503689600_">
		<path fill="#6081C1" d="M944.56,299.44c15.62,4.41,82.33,55.12,98.47,66.14c16.13,11.02,17.4,36.42,0,46.69
			c-17.4,10.27-84.32-22.98-113.29-33.18C900.77,368.88,900.37,286.97,944.56,299.44z"/>
	</g>
	<g id="left_forearm">
		<g>
			<g>
				<path fill="#FFD4D4" d="M1094.1,265.93c0,0-2.51,20.16-12.36,24.42l-4.14,11.93l-25.32-7.91l0.9-7.18
					c0,0-17.94-11.79-26.1-15.82c-8.15-4.02-2.8-9.75,3.53-8.41c6.33,1.34,17.04,4.99,17.04,4.99l1.91-17.46L1094.1,265.93z"/>
				<g>
					<polygon fill="#EEEEEE" points="1077.49,315.1 1081.74,298.87 1044.05,285.23 1038.71,302.24 					"/>
				</g>
				<path fill="#6081C1" d="M1082.43,311.98l-44.32-16.84l-26.51,82.02c-11.94,38.96,29.28,47.29,44.45,28.54
					C1059.56,400.78,1082.43,311.98,1082.43,311.98z"/>
				<circle fill="#374D6D" cx="1070" cy="320.66" r="4.55"/>
			</g>
			<g>
				<path fill="#FFD4D4" d="M1054.42,247.42c-10.38-0.26-6.09,13.5,1.67,11.88C1063.85,257.68,1061.18,247.59,1054.42,247.42z"/>
				<path fill="#FFD4D4" d="M1065.36,248.99c-12.19-0.34-7.08,14.96,2.02,13.2C1076.48,260.43,1073.29,249.21,1065.36,248.99z"/>
				<path fill="#FFD4D4" d="M1077.37,252.72c-12.19-0.34-7.08,14.96,2.02,13.2S1085.31,252.94,1077.37,252.72z"/>
				<path fill="#FFD4D4" d="M1088.02,257.9c-10.38-0.29-6.03,12.73,1.72,11.24S1094.78,258.09,1088.02,257.9z"/>
			</g>
			<g>
				
					<path fill="none" stroke="#222B3F" stroke-width="2" stroke-linecap="round" stroke-linejoin="round" stroke-miterlimit="10" d="
					M1058.47,252.56c-0.58,1.65-0.3,3.63,0.61,5.36c-0.74,0.63-1.72,1.12-2.98,1.38c-2.33,0.49-4.35-0.41-5.75-1.91"/>
				
					<path fill="none" stroke="#222B3F" stroke-width="2" stroke-linecap="round" stroke-linejoin="round" stroke-miterlimit="10" d="
					M1072.88,255.91c0.14,1.83-0.52,3.65-2.18,4.88c-0.84,0.64-1.94,1.13-3.33,1.4c-3.76,0.73-6.84-1.46-8.3-4.26
					c-0.91-1.74-1.19-3.72-0.61-5.36"/>
				
					<path fill="none" stroke="#222B3F" stroke-width="2" stroke-linecap="round" stroke-linejoin="round" stroke-miterlimit="10" d="
					M1084.87,260.86c-0.2,1.52-1,2.94-2.52,3.92c-0.78,0.51-1.76,0.9-2.95,1.13c-4.15,0.8-7.46-1.94-8.69-5.13
					c1.66-1.24,2.32-3.05,2.18-4.88"/>
				
					<path fill="none" stroke="#222B3F" stroke-width="2" stroke-linecap="round" stroke-linejoin="round" stroke-miterlimit="10" d="
					M1091.67,268.5c-0.55,0.27-1.2,0.49-1.93,0.63c-3.52,0.68-6.34-1.64-7.39-4.35c1.53-0.98,2.33-2.4,2.52-3.92"/>
			</g>
		</g>
	</g>
	<g id="syringe">
		<g>
			<g>
				<polygon fill="#6081C1" points="915.35,1014.41 888.56,1008.74 911.96,873.6 948.75,881.4 				"/>
				<polygon opacity="0.6" fill="#FFFFFF" points="915.35,1014.41 888.56,1008.74 911.96,873.6 948.75,881.4 				"/>
			</g>
			<g>
				<path fill="#6081C1" d="M931.76,893.44l-9.15-1.94c-7.63-1.62-12.51-9.12-10.89-16.75l14.37-67.86l36.79,7.79l-14.37,67.86
					C946.89,890.18,939.39,895.06,931.76,893.44z"/>
				<path opacity="0.3" fill="#FFFFFF" d="M931.76,893.44l-9.15-1.94c-7.63-1.62-12.51-9.12-10.89-16.75l14.37-67.86l36.79,7.79
					l-14.37,67.86C946.89,890.18,939.39,895.06,931.76,893.44z"/>
			</g>
			<path fill="#6081C1" d="M1102.56,292.23l-92.33-19.56c-5.58-1.18-9.14-6.66-7.96-12.23l0.1-0.49c1.18-5.58,6.66-9.14,12.23-7.96
				l92.33,19.56c5.58,1.18,9.14,6.66,7.96,12.23l-0.1,0.49C1113.61,289.84,1108.13,293.41,1102.56,292.23z"/>
			<path opacity="0.3" fill="#FFFFFF" d="M1102.56,292.23l-92.33-19.56c-5.58-1.18-9.14-6.66-7.96-12.23l0.1-0.49
				c1.18-5.58,6.66-9.14,12.23-7.96l92.33,19.56c5.58,1.18,9.14,6.66,7.96,12.23l-0.1,0.49
				C1113.61,289.84,1108.13,293.41,1102.56,292.23z"/>
			
				<rect x="1021.69" y="281.1" transform="matrix(0.9783 0.2072 -0.2072 0.9783 95.1137 -208.5341)" fill="#EEEEEE" width="42.68" height="137.35"/>
			
				<rect x="1037.75" y="281.1" transform="matrix(0.9783 0.2072 -0.2072 0.9783 95.1137 -208.5341)" fill="#FFFFFF" width="10.55" height="137.35"/>
			<path fill="#6081C1" d="M973.91,823.1l-61.31-12.98c-7.63-1.62-12.51-9.12-10.89-16.75l80.18-378.56l88.95,18.84L990.66,812.2
				C989.04,819.84,981.54,824.71,973.91,823.1z"/>
			<g>
				<path fill="#222B3F" d="M1055.82,504.56l-33.31-7.06c-2.84-0.6-4.66-3.4-4.06-6.24l0.05-0.25c0.6-2.84,3.4-4.66,6.24-4.06
					l33.31,7.06L1055.82,504.56z"/>
				<path fill="#222B3F" d="M1041.99,569.83l-20.93-4.43c-2.84-0.6-4.66-3.4-4.06-6.24l0.05-0.25c0.6-2.84,3.4-4.66,6.24-4.06
					l20.93,4.43L1041.99,569.83z"/>
				<path fill="#222B3F" d="M1028.17,635.11l-33.31-7.06c-2.84-0.6-4.66-3.4-4.06-6.24l0.05-0.25c0.6-2.84,3.4-4.66,6.24-4.06
					l33.31,7.06L1028.17,635.11z"/>
				<path fill="#222B3F" d="M1014.34,700.38l-20.93-4.43c-2.84-0.6-4.66-3.4-4.06-6.24l0.05-0.25c0.6-2.84,3.4-4.66,6.24-4.06
					l20.93,4.43L1014.34,700.38z"/>
				<path fill="#222B3F" d="M1000.51,765.65l-33.31-7.06c-2.84-0.6-4.66-3.4-4.06-6.24l0.05-0.25c0.6-2.84,3.4-4.66,6.24-4.06
					l33.31,7.06L1000.51,765.65z"/>
			</g>
			<path fill="#6081C1" d="M1071.92,436.89l-92.33-19.56c-5.58-1.18-9.14-6.66-7.96-12.23l0.1-0.49c1.18-5.58,6.66-9.14,12.23-7.96
				l92.33,19.56c5.58,1.18,9.14,6.66,7.96,12.23l-0.1,0.49C1082.97,434.51,1077.49,438.08,1071.92,436.89z"/>
			<path opacity="0.3" fill="#FFFFFF" d="M1071.92,436.89l-92.33-19.56c-5.58-1.18-9.14-6.66-7.96-12.23l0.1-0.49
				c1.18-5.58,6.66-9.14,12.23-7.96l92.33,19.56c5.58,1.18,9.14,6.66,7.96,12.23l-0.1,0.49
				C1082.97,434.51,1077.49,438.08,1071.92,436.89z"/>
		</g>
	</g>
	<g id="left_thigh_00000179612222500421363090000017570286081905513610_">
		<g>
			<path fill="#FF8D88" d="M918.29,489.11c-28.85-34.3-76.7-12.7-77.07,47.33c0,0,28.56,189.75,34.61,230.88
				c6.06,33.79,58.48,34.67,66.7-9.32c0.33-39.58,2.29-131.27,2.01-140.45C942.53,551.07,947.14,523.41,918.29,489.11z"/>
			
				<path fill="none" stroke="#FBBDBB" stroke-width="2.1417" stroke-linecap="round" stroke-linejoin="round" stroke-miterlimit="10" d="
				M867.17,616.93c0,0,13.96,95.03,19.78,138.99"/>
		</g>
	</g>
	<g id="left_calf_00000140695625608474136060000014263263697040295334_">
		<g>
			<g>
				<g>
					<path fill="#FFD4D4" d="M932.2,916.02c0,0-1.06,21.12-1.3,27.03c-0.33,9.79-0.79,22.87-0.75,23.21
						c0.07,0.53-9.96,4.97-9.96,4.97l-11.53-2.75l-1.12-17.08l-2.17-31.65L932.2,916.02z"/>
					<path fill="#374D6D" d="M932.2,916.02c0,0-1.06,21.12-1.3,27.03c-5.42,1.93-15.23,5.47-23.35,8.35l-2.17-31.65L932.2,916.02z"
						/>
				</g>
				<g>
					<path fill="#374D6D" d="M901.95,955.72c0,0,18.41,5.44,33.47,0.84c0,0,26.36,19.04,43.09,25.1
						c16.74,6.07,32.63,10.46,32.63,36.82H890.86C890.86,1018.48,888.56,976.93,901.95,955.72z"/>
					
						<path fill="none" stroke="#8FB3DB" stroke-width="2.5104" stroke-linecap="round" stroke-linejoin="round" stroke-miterlimit="10" d="
						M953.99,984.47c0,0-14.75-8.63-28.24-20.55"/>
					<path fill="#FF8D88" d="M952.89,1002.16c0,0,5.96-19.14,19.14-25.73c0,0,22.28,7.53,31.69,12.87s10.04,16.94,10.04,29.18
						h-125.2v-16.32H952.89z"/>
				</g>
			</g>
			<g>
				<path fill="#FF8D88" d="M876.48,771.8c4.16,28.83,17.4,168.55,17.4,168.55s17.92,2.57,41.45,0.08
					c0.11-2.14,7.03-151.15,7.06-164.72c0-1.51,0.05-8.07,0.13-17.71c0.32-35.46-70.85-36.25-66.7,9.32
					C876.09,769.1,876.31,770.61,876.48,771.8z"/>
				
					<ellipse transform="matrix(0.9981 -0.0615 0.0615 0.9981 -46.0938 58.0019)" fill="none" stroke="#FBBDBB" stroke-width="2.1417" stroke-linecap="round" stroke-linejoin="round" stroke-miterlimit="10" cx="919.62" cy="778.13" rx="17.54" ry="27.09"/>
				
					<path fill="none" stroke="#FBBDBB" stroke-width="2.1417" stroke-linecap="round" stroke-linejoin="round" stroke-miterlimit="10" d="
					M884.97,741.26c1.36,10.27,4.26,32.41,4.45,35.24c1.01,14.96,15.27,151.55,15.27,151.55"/>
			</g>
		</g>
	</g>
	<g id="right_thigh_00000028297311787469527920000007755934414100674196_">
		<g>
			<path fill="#FF8D88" d="M862.98,504.55c-18.86-40.66-80.02-30.9-96.1,26.94c0,0-22.13,190.61-27.06,231.88
				c-3.01,34.2,47.36,48.78,66.81,8.47c10.68-38.12,35.56-126.39,38.72-135.02c1.97-5.37,3.18-8.69,3.34-9.18
				C849.82,624.25,881.84,545.21,862.98,504.55z"/>
			
				<path fill="none" stroke="#FBBDBB" stroke-width="2.1417" stroke-linecap="round" stroke-linejoin="round" stroke-miterlimit="10" d="
				M875.46,529.16c-0.1,21.91-5.33,76.06-5.33,76.06l-16.48,7.19l5.26-80.82"/>
			
				<path fill="none" stroke="#FBBDBB" stroke-width="2.1417" stroke-linecap="round" stroke-linejoin="round" stroke-miterlimit="10" d="
				M770.86,615.96c0,0-11.42,95.37-17.31,139.32"/>
		</g>
	</g>
	<g id="right_calf_00000047749082004290424830000003229676501393352865_">
		<g>
			<g>
				<g>
					<path fill="#FFD4D4" d="M722.49,929.44c0,0-0.91,4.63-2.04,10.44c-1.93,9.61-5.82,30.48-5.94,30.8
						c-0.19,0.5,9.88-0.92,9.88-0.92l11.85-0.03l5.01-16.36l4.63-15.13L722.49,929.44z"/>
					<g>
						<path fill="#374D6D" d="M772.71,1018.49h-72.89c0,0-0.38-6.81,0.07-16.31c0.62-13.97,6.64-33.82,14.62-46.45
							c0,0,14.78,5.45,29.85,0.84c0,0,11.01,21.04,21.59,36.14c0.07,0.12,0.17,0.24,0.24,0.36
							C771.44,1000.5,772.73,1010.39,772.71,1018.49z"/>
						
							<path fill="none" stroke="#8FB3DB" stroke-width="2.51" stroke-linecap="round" stroke-linejoin="round" stroke-miterlimit="10" d="
							M743.55,994.01c0,0-10.1-13.78-17.73-30.09"/>
						<path fill="#FF8D88" d="M783.19,1018.49H697.5v-16.31h29.9c0,0-0.17-25.75,26.01-25.75
							C779.58,976.43,783.19,998.59,783.19,1018.49z"/>
					</g>
					<path fill="#374D6D" d="M722.49,929.44c0,0-0.91,4.63-2.04,10.44c4.83,3.12,13.56,8.82,20.81,13.49l4.63-15.13L722.49,929.44z"
						/>
				</g>
			</g>
			<g>
				<path fill="#FF8D88" d="M739.29,767.87c-3.54,28.92-27.34,167.22-27.34,167.22s16.62,7.17,39.99,10.93
					C752.6,944,798.3,802,801.88,788.9c0.4-1.46,2.16-7.78,4.76-17.06c9.6-34.13-58.88-53.54-66.81-8.47
					C739.61,765.16,739.43,766.67,739.29,767.87z"/>
				
					<ellipse transform="matrix(0.2021 -0.9794 0.9794 0.2021 -147.2769 1389.7842)" fill="none" stroke="#FBBDBB" stroke-width="2.1417" stroke-linecap="round" stroke-linejoin="round" stroke-miterlimit="10" cx="779.26" cy="785.27" rx="27.09" ry="17.54"/>
				
					<path fill="none" stroke="#FBBDBB" stroke-width="2.1417" stroke-linecap="round" stroke-linejoin="round" stroke-miterlimit="10" d="
					M755.47,740.62c-1.38,10.27-4.38,32.39-4.93,35.18c-2.94,14.7-24.95,150.26-24.95,150.26"/>
			</g>
		</g>
	</g>
	<g id="body_00000021797675019724120880000002720516035344405411_">
		<g>
			<g>
				<g>
					<g>
						<path fill="#6081C1" d="M781.07,454.03c1.07-10.71-5.09-109.18-5.09-109.18s-9.94-46.55,6.8-50.18
							c15.36-3.33,70.62-15.99,91.99-13.04c31.05,4.28,69.79,17.81,69.79,17.81c10.71,58.9-17.32,126.22-13.57,156.2
							c3.75,29.98,31.59,97.45,31.59,97.45c-27.61,20.6-55.97,29.38-82.63,31.29c-6.12-10.31-27.85-45.74-27.85-45.74l-33.5,39.09
							c-40.63-11.3-68.59-32.13-68.59-32.13S780,464.74,781.07,454.03z"/>
					</g>
					<g>
						<g>
							<path fill="#222B3F" d="M942.4,378.07c-0.06,0-0.12,0-0.18-0.01c-0.58-0.1-0.98-0.65-0.88-1.23
								c3.12-18.69,6.81-46.58,2.87-72.94c-0.09-0.58,0.32-1.13,0.9-1.22c0.58-0.08,1.13,0.32,1.22,0.9
								c3.99,26.66,0.27,54.78-2.87,73.61C943.37,377.7,942.92,378.07,942.4,378.07z"/>
						</g>
					</g>
					<polygon fill="#374D6D" points="925.63,501.15 929.74,515.6 888.87,526.31 884.58,511.68 					"/>
					<polygon fill="#374D6D" points="790.61,497.2 785.63,511.38 825.78,524.54 830.94,510.19 					"/>
					<g>
						<path fill="#222B3F" d="M854.42,537.29c-0.27,0-0.54-0.1-0.74-0.3c-0.43-0.41-0.44-1.09-0.03-1.51l10.33-10.72
							c-0.87-5.13-7.46-46.12-7.96-109.8c0-0.59,0.47-1.07,1.06-1.08c0,0,0.01,0,0.01,0c0.59,0,1.07,0.47,1.07,1.06
							c0.53,67.66,7.94,109.57,8.01,109.98c0.06,0.34-0.04,0.69-0.28,0.93l-10.71,11.11C854.98,537.18,854.7,537.29,854.42,537.29z"
							/>
					</g>
				</g>
				<path fill="#374D6D" d="M872.09,274.93c0,0,13.65,2.68,37.21,15.53c0,0,11.69,15.08,18.12,37.57l-26.77,5.35l12.14,23.56
					l-55.68,55.33l-41.41-59.25l14.99-27.49l-26.06-5c0,0,12.49-26.5,19.28-33.29C830.68,280.46,861.38,273.5,872.09,274.93z"/>
				<g>
					<path fill="#EEEEEE" d="M872.63,282.02c7.82,1.56,23.72,8.62,31.74,12.32c-4.31,15.89-23.23,77.36-46.55,106.86
						c0,0-18.27-74.74-26.12-112.17C842,286.17,864.48,280.39,872.63,282.02z"/>
					<g>
						<path fill="#374D6D" d="M848.82,363.88c1.66-11.11,6.44-40.56,13.28-60.48l7.99-1.7l5.58,3.48c0,0,4.17,26.56,3.53,58.94
							c-6.39,13.99-13.64,27.3-21.37,37.08C857.81,401.2,853.85,384.98,848.82,363.88z"/>
						
							<path fill="none" stroke="#8FB3DB" stroke-width="2.1417" stroke-linecap="round" stroke-linejoin="round" stroke-miterlimit="10" d="
							M874.23,319.1c0,0-8.17-0.8-12.98-0.54"/>
					</g>
				</g>
				<g>
					<path fill="#EEEEEE" d="M868.25,304.82c0,0,10.53,5,21.42,15.71c0,0,2.5-38.19-17.67-41.94c-20.17-3.75-25.7,36.59-25.7,36.59
						S851.47,309.82,868.25,304.82z"/>
					<path opacity="0.7" fill="#6081C1" d="M889.88,303.31c-0.79-5.2-2.19-10.76-4.7-15.44c-0.28-0.52-0.93-0.72-1.45-0.44
						c-0.52,0.28-0.72,0.93-0.44,1.45c2.34,4.35,3.71,9.7,4.47,14.75c0.76,5.05,0.93,9.79,0.93,12.95c0,0.56-0.01,1.07-0.01,1.52
						c-10.37-9.68-19.91-14.22-19.97-14.25c-0.24-0.11-0.51-0.13-0.76-0.06c-11.06,3.29-17.18,6.76-20.13,8.81
						c0.43-2.28,1.17-5.79,2.32-9.68c1.77-6.01,4.52-12.93,8.45-17.65c0.38-0.46,0.31-1.13-0.14-1.51
						c-0.46-0.38-1.13-0.31-1.51,0.14h0c-4.52,5.47-7.4,13.22-9.2,19.63c-1.8,6.41-2.49,11.47-2.5,11.5
						c-0.06,0.46,0.18,0.91,0.59,1.11c0.41,0.2,0.91,0.11,1.23-0.22l0,0c0.02-0.02,5.04-5.11,21.09-9.95
						c1.9,0.96,11.19,5.91,20.76,15.32c0.3,0.29,0.74,0.39,1.13,0.24c0.39-0.15,0.66-0.51,0.69-0.93c0-0.02,0.1-1.55,0.1-4.02
						C890.83,313.35,890.66,308.51,889.88,303.31z"/>
				</g>
			</g>
			<g>
				<path fill="#FFD4D4" d="M864.64,293.81c0,0,5.76,4.01,13.64,1.07l2.72-19.34l3-21.22l-19.06-16.36l-0.17-0.15v1.33l-0.02,10.92
					L864.64,293.81z"/>
				<path fill="#374D6D" d="M864.74,250.05c0.88,8.5,4.3,20.56,16.26,25.49l3-21.22l-19.06-16.36c-0.09,0.45-0.13,0.84-0.17,1.18
					c-0.13,1.07-0.13,1.71-0.13,1.76C864.64,240.89,864.21,244.78,864.74,250.05z"/>
			</g>
		</g>
	</g>
	<g id="head_00000045610192927605877790000008253581447263372978_">
		<g>
			<g>
				<g>
					<path fill="#FFD4D4" d="M898.93,232.73c0,0,4.51-6.56,9.79-3.27s0.96,17.33-10.66,18.83L898.93,232.73z"/>
					<g>
						<path fill="#222B3F" d="M900.03,242.73c-0.14,0-0.28-0.03-0.42-0.09c-0.54-0.23-0.79-0.86-0.56-1.41
							c2.9-6.77,6.95-8.54,7.12-8.61c0.54-0.23,1.17,0.03,1.4,0.57c0.23,0.54-0.03,1.17-0.57,1.4c-0.07,0.03-3.47,1.6-5.99,7.48
							C900.84,242.49,900.45,242.73,900.03,242.73z"/>
					</g>
				</g>
				<path fill="#FFD4D4" d="M880.7,203.51c17-2.22,22.46,22.31,21.43,40.6s-15.58,30.83-31.67,17.72
					C854.37,248.73,845.94,208.06,880.7,203.51z"/>
				<path fill="#374D6D" d="M864.78,265.75l0.08-11.12l-0.51-10.66l-3.62-12.33c0,0,13.6-0.32,7.4-15.65
					c0,0,18.36,17.75,34.97,15.01c16.62-2.72,27.12-23.32,23.67-28.75c-3.28-5.21-10.56,1.51-11.14,2.05
					c0.72-1.25,14.66-25.22,3.06-37.42c-11.9-12.51-39.01,14.16-54.68,30.32c-2.4,2.47-4.75,4.77-7,6.94
					c1.15-4.01,2.85-10.44,4.08-17.08c2.01-10.96-13.81-6.21-9.92,22.41c0,0-12.89-14.25-19.25-9.59
					c-5.37,3.9,5.38,11.58,14.89,13.95c-7.23,7.09-12.02,12.96-11.83,19.74C835.3,244.92,864.78,265.75,864.78,265.75z"/>
				<g>
					<path fill="#FFD4D4" d="M860.4,238.21c0,0-3.34-7.07-11.46-4.59c-8.12,2.48-1.98,20.48,14.51,15.73L860.4,238.21z"/>
					<g>
						<path fill="#222B3F" d="M859.7,245.78c-0.4,0-0.79-0.23-0.97-0.62c-0.12-0.27-3.02-6.31-9.27-6.22
							c-0.64,0.01-1.08-0.47-1.08-1.06c-0.01-0.59,0.47-1.08,1.06-1.08c0.04,0,0.09,0,0.13,0c7.56,0,10.96,7.16,11.1,7.46
							c0.25,0.54,0.02,1.17-0.52,1.42C860,245.75,859.85,245.78,859.7,245.78z"/>
					</g>
					<g>
						<path fill="#222B3F" d="M853.11,245.84c-0.56,0-1.03-0.43-1.07-1c-0.01-0.13-0.18-3.28,2.16-6.05
							c0.38-0.45,1.06-0.51,1.51-0.13c0.45,0.38,0.51,1.06,0.13,1.51c-1.77,2.09-1.67,4.52-1.66,4.54c0.03,0.59-0.42,1.09-1.01,1.13
							C853.15,245.84,853.13,245.84,853.11,245.84z"/>
					</g>
				</g>
			</g>
			<g>
				<path fill="#374D6D" d="M870.64,231.09c0,0,2.81-6.95,8.09-4.78c0,0,0.02-1.53,1.35-1.67s1.77,4.02,1.77,4.02
					S875.71,228.62,870.64,231.09z"/>
				<path fill="#374D6D" d="M900.93,228.14c0,0-2.75-6.28-5.8-3.14c0,0-0.53-1.15-1.39-0.99c-1.48,0.28-0.4,4.08-0.4,4.08
					S897.36,226.69,900.93,228.14z"/>
				<g>
					
						<ellipse transform="matrix(0.999 -0.0437 0.0437 0.999 -9.6284 38.6153)" fill="#374D6D" cx="878.95" cy="239.67" rx="2.82" ry="3.48"/>
					<circle fill="#FFFFFF" cx="879.52" cy="238.41" r="0.75"/>
				</g>
				<g>
					
						<ellipse transform="matrix(0.999 -0.0437 0.0437 0.999 -9.5809 39.3384)" fill="#374D6D" cx="895.52" cy="238.94" rx="2.82" ry="3.48"/>
					<circle fill="#FFFFFF" cx="896.09" cy="237.68" r="0.75"/>
				</g>
				<g>
					<path fill="#222B3F" d="M889.23,253.11c-0.56,0-1.07-0.06-1.49-0.15c-0.58-0.12-0.95-0.69-0.83-1.27
						c0.12-0.58,0.69-0.95,1.27-0.83c0.03,0.01,3.07,0.6,3.53-1.21c0.37-1.44-2.05-2.24-2.07-2.25c-0.56-0.18-0.87-0.78-0.69-1.35
						c0.18-0.56,0.78-0.87,1.34-0.69c1.51,0.48,4.19,2.11,3.49,4.82C893.19,252.5,891.01,253.11,889.23,253.11z"/>
				</g>
				<g>
					<path fill="#222B3F" d="M878.76,248.66c-0.59,0-1.19-0.06-1.78-0.18c-4.8-0.97-7.91-5.67-6.94-10.46
						c0.47-2.32,1.82-4.32,3.79-5.63c1.98-1.31,4.34-1.77,6.67-1.3c2.32,0.47,4.32,1.82,5.63,3.79c1.31,1.98,1.77,4.34,1.3,6.67
						c-0.47,2.32-1.82,4.32-3.79,5.63C882.18,248.15,880.49,248.66,878.76,248.66z M878.74,233.05c-3.14,0-5.95,2.21-6.6,5.4
						c-0.74,3.64,1.62,7.2,5.26,7.94c3.64,0.74,7.2-1.62,7.94-5.26c0.74-3.64-1.62-7.2-5.26-7.94
						C879.63,233.09,879.18,233.05,878.74,233.05z"/>
				</g>
				<g>
					<path fill="#222B3F" d="M898,247.31c-0.59,0-1.19-0.06-1.78-0.18c-2.32-0.47-4.32-1.82-5.63-3.79
						c-1.31-1.98-1.77-4.34-1.3-6.67c0.97-4.8,5.67-7.91,10.46-6.93c4.8,0.97,7.91,5.67,6.94,10.46c-0.47,2.32-1.82,4.32-3.79,5.63
						C901.41,246.81,899.73,247.31,898,247.31z M897.98,231.7c-3.14,0-5.95,2.21-6.6,5.4c-0.74,3.64,1.62,7.2,5.26,7.94
						c3.64,0.73,7.2-1.62,7.94-5.26c0.74-3.64-1.62-7.2-5.26-7.94C898.87,231.74,898.42,231.7,897.98,231.7z"/>
				</g>
				<g>
					<path fill="#222B3F" d="M886.71,258.89c-2.61,0-6.27-0.81-9.96-4.31c-0.43-0.41-0.45-1.08-0.04-1.51
						c0.41-0.43,1.08-0.45,1.51-0.04c5.76,5.46,11.34,3.3,11.4,3.28c0.55-0.22,1.17,0.04,1.39,0.59s-0.04,1.17-0.59,1.39
						C890.29,258.34,888.86,258.89,886.71,258.89z"/>
				</g>
			</g>
		</g>
	</g>
	<g id="right_arm_00000183947507764594268120000010802973197702549153_">
		<g>
			<path fill="#6081C1" d="M772.9,298.67c0,0-88.45,80.11-91.5,85.32c-10.71,25.7,21.29,45.99,46.83,24.44l59.96-37.34
				C822.97,347.57,798.37,277.2,772.9,298.67z"/>
			<g>
				<path fill="#222B3F" d="M788.19,372.16c-0.34,0-0.68-0.17-0.89-0.47c-0.33-0.49-0.2-1.16,0.29-1.49
					c11.85-8.02,17.89-22.67,16.56-40.2c-1.17-15.43-7.94-29.04-16.46-33.09c-0.53-0.25-0.76-0.89-0.51-1.43
					c0.25-0.53,0.89-0.76,1.43-0.51c9.19,4.36,16.46,18.7,17.68,34.86c1.39,18.32-4.99,33.68-17.5,42.14
					C788.61,372.1,788.4,372.16,788.19,372.16z"/>
			</g>
		</g>
	</g>
	<g id="right_forearm_00000061432961687084033100000002484712966236445101_">
		<g>
			<g>
				<path fill="#FFD4D4" d="M749.44,511.49l1.87,5.28c1.24,3.51,3.39,6.64,6.24,9.05l36.71,31.1c1.46,1.23,3.62,1.15,4.97-0.2l0,0
					c1.42-1.41,1.45-3.7,0.07-5.15l-13.9-14.57l21.19,15.21c1.58,1.14,3.78,0.8,4.96-0.75l0,0c1.1-1.46,0.94-3.51-0.39-4.77
					l-18.17-17.28l23.94,13.48c1.93,1.09,4.39,0.35,5.39-1.63l0,0c0.85-1.66,0.39-3.69-1.08-4.84l-21.67-16.91l21.14,11.79
					c1.64,0.91,3.7,0.36,4.66-1.25l0,0c0.93-1.56,0.5-3.57-0.98-4.61l-35.2-24.72l13.28,2.7c2.47,0.5,4.87-1.14,5.3-3.62l0,0
					c0.36-2.08-0.79-4.14-2.75-4.92L785.25,487c-4.67-1.86-9.86-1.93-14.58-0.18l-7.51,2.78l-7.42-18.14l-16.04,19.42L749.44,511.49
					z"/>
			</g>
			<g>
				<polygon fill="#EEEEEE" points="727.92,486.92 735.23,503.43 772.68,484.41 764.43,468.6 				"/>
			</g>
			<path fill="#6081C1" d="M726.62,492.62l43.26-19.42l-32.09-81.43c-19.1-36-59.81-14.38-57.28,9.61
				C681.5,407.33,726.62,492.62,726.62,492.62z"/>
			<circle fill="#374D6D" cx="729.28" cy="477.69" r="4.55"/>
		</g>
	</g>
</g>
<g id="Layer_x5F_Character_1_00000039116806889341783420000005649540045452944558_">
	<g id="right_leg">
		<g>
			<g>
				<path fill="#ECBDBB" d="M240.22,951.09c0,0-20.31,2.44-20.31,1.83c0-0.44-3.58-16.94-5.51-25.79c-0.71-3.27-1.19-5.49-1.19-5.49
					l24.77-2.44l1.19,17.02L240.22,951.09z"/>
				<path fill="#222B3F" d="M237.98,919.2l1.19,17.02c-12.75-1.83-20.77-6.27-24.77-9.09c-0.71-3.27-1.19-5.49-1.19-5.49
					L237.98,919.2z"/>
			</g>
			<g>
				<path fill="#222B3F" d="M215.03,944.79c0,0-27.02,28.44-31.09,29.05c-4.06,0.61-22.55,4.47-22.55,4.47l-7.31,29.87
					c0,0,70.3,1.22,106.66-6.5c-0.41-19.91-5.49-43.07-15.24-58.51C236.4,946.32,226.3,947,215.03,944.79z"/>
				<g>
					<path opacity="0.3" fill="#FFFFFF" d="M193.49,983.91c-0.39,0-0.77-0.2-0.97-0.56c-0.31-0.54-0.12-1.22,0.41-1.53
						c23.45-13.51,35.04-32.73,35.15-32.92c0.32-0.54,1.01-0.71,1.54-0.39c0.53,0.32,0.71,1,0.39,1.54
						c-0.12,0.2-12.01,19.92-35.96,33.72C193.88,983.86,193.69,983.91,193.49,983.91z"/>
				</g>
				<path fill="#FF8D88" d="M177.65,972.42c0,0-41.85-0.61-31.49,50.59c0,0,71.31,0.2,117.43-8.53l-0.61-15.64
					c0,0-38.4,5.49-64.61,5.28C198.37,1004.12,192.88,980.35,177.65,972.42z"/>
				<ellipse fill="#EEEEEE" cx="238.9" cy="976.59" rx="11.89" ry="14.32"/>
			</g>
			<g>
				<path fill="#6081C1" d="M198.78,888.31c0,0,1.42,21.94,8.53,38.2c0,0,14.02,2.03,26.62,0c12.6-2.03,18.29-6.7,18.29-6.7
					l-1.22-33.73C233.37,880.33,215.95,880.69,198.78,888.31z"/>
				<path opacity="0.3" fill="#FFFFFF" d="M198.78,888.31c0,0,1.42,21.94,8.53,38.2c0,0,14.02,2.03,26.62,0
					c12.6-2.03,18.29-6.7,18.29-6.7l-1.22-33.73C233.37,880.33,215.95,880.69,198.78,888.31z"/>
			</g>
			<path fill="#6081C1" d="M268.26,614.03c0,0-1.32,8.41-3.27,21.38c-1.41,9.22-3.15,20.77-5,33.23
				c-4.05,27.48-8.61,59.46-11.24,81.31c-5.49,45.71-3.05,141.1-3.05,141.1c-15.24,8.53-39,3.97-39,3.97s-22.55-127.39-29.26-187.73
				s-12.8-193.21-12.8-193.21c1.83-49.37,95.08-43.28,99.35,24.38L268.26,614.03z"/>
			<path fill="#222B3F" d="M264.99,635.41c-1.41,9.22-3.15,20.77-5,33.23c-16.87-17.68-22.7-47.44-23.09-49.61
				C238.91,626.88,251.56,632.1,264.99,635.41z"/>
			<path opacity="0.3" fill="#FFFFFF" d="M201.18,710.97c-20.27,2.73-19.84,59.53,11.13,59.84
				C243.28,771.1,227.94,707.36,201.18,710.97z"/>
			<g opacity="0.3">
				<path fill="#FFFFFF" d="M235.35,887.61c-0.57,0-1.05-0.43-1.11-1c-10.85-100.28,11.44-255.29,11.67-256.84
					c0.09-0.62,0.66-1.03,1.27-0.95c0.61,0.09,1.04,0.66,0.95,1.27c-0.23,1.55-22.48,156.28-11.66,256.28
					c0.07,0.62-0.38,1.17-1,1.24C235.43,887.6,235.39,887.61,235.35,887.61z"/>
			</g>
			<g opacity="0.3">
				<path fill="#FFFFFF" d="M257.75,634.66c-0.06,0-0.12,0-0.17-0.01c-0.75-0.12-18.28-3-21.79-15.43
					c-3.34-11.85-8.36-71.14-8.57-73.66c-0.05-0.62,0.41-1.16,1.02-1.21c0.6-0.06,1.16,0.41,1.21,1.02
					c0.05,0.61,5.21,61.59,8.5,73.24c2.58,9.17,14.53,12.62,18.61,13.55c-0.47-9.41-2.99-62.15-1.61-83.41
					c0.04-0.62,0.63-1.08,1.19-1.05c0.62,0.04,1.09,0.57,1.05,1.19c-1.5,23.13,1.65,83.98,1.68,84.59c0.02,0.34-0.12,0.67-0.37,0.89
					C258.3,634.56,258.03,634.66,257.75,634.66z"/>
			</g>
			<g opacity="0.3">
				<path fill="#FFFFFF" d="M172.87,572.36c-0.36,0-0.58-0.03-0.62-0.04c-0.61-0.09-1.04-0.66-0.95-1.27
					c0.09-0.61,0.67-1.03,1.27-0.95c0.14,0.01,2.82,0.3,5.76-2.48c4.33-4.1,9.07-14.66,7.09-41.68c-0.04-0.62,0.42-1.16,1.04-1.2
					c0.57-0.04,1.16,0.42,1.2,1.04c2.05,28.05-3.16,39.18-7.89,43.57C176.88,572.02,174.08,572.36,172.87,572.36z"/>
			</g>
		</g>
	</g>
	<g id="left_leg">
		<g>
			<g>
				<polygon fill="#ECBDBB" points="369.81,950.64 348.46,951.26 343.35,928.93 341.34,920.1 368.62,919.79 369.26,936.21 				"/>
				<path fill="#222B3F" d="M369.26,936.21c-9.59-0.83-18.29-3.61-25.91-7.28l-2.02-8.83l27.29-0.31L369.26,936.21z"/>
			</g>
			<g>
				<path fill="#222B3F" d="M341.78,943.68c0,0,16.61-8.01,31.44-1.93c0,0,8.3,14.83,11.12,40.78c0,0-10.38,32.77-33.07,35.29
					c-22.69,2.52-40.78-2.97-40.78-2.97s15.08-35.39,17.6-42.06S341.78,943.68,341.78,943.68z"/>
				<g opacity="0.3">
					<path fill="#FFFFFF" d="M350.45,989.67c-5.2,0-15.67-0.62-18.89-5.4c-1.27-1.88-1.3-4.13-0.1-6.7
						c5.45-11.67,11.56-29.76,11.62-29.94c0.19-0.57,0.81-0.88,1.38-0.69c0.57,0.19,0.88,0.81,0.69,1.38
						c-0.06,0.18-6.21,18.39-11.71,30.17c-0.86,1.85-0.88,3.34-0.06,4.55c2.76,4.09,14.16,4.57,19.11,4.4
						c1.53-3.47,9.1-21.24,11.9-39.24c0.09-0.6,0.66-1,1.25-0.91c0.6,0.09,1,0.65,0.91,1.25c-3.15,20.28-12.25,40.23-12.35,40.42
						c-0.17,0.37-0.53,0.61-0.93,0.63C352.88,989.63,351.85,989.67,350.45,989.67z"/>
				</g>
				
					<ellipse transform="matrix(0.9783 -0.2074 0.2074 0.9783 -192.2517 98.7204)" fill="#EEEEEE" cx="374.65" cy="966.17" rx="4.65" ry="12.06"/>
				<path fill="#FF8D88" d="M323.64,973.09c0,0-32.43,19.97-17.3,60.01c0,0,39.74,5.93,55.16-1.19
					c15.42-7.12,25.51-37.15,25.51-37.15s-0.52-8.82-2.45-14.31c0,0-8.72,16.56-20.49,26.74
					C364.08,1007.2,361.9,967.46,323.64,973.09z"/>
			</g>
			<g>
				<path fill="#6081C1" d="M324.43,889.56c0,0,24.91-11.37,52.2-0.59l0.3,34.4c0,0-19.28,6.82-39.74,0.89L324.43,889.56z"/>
				<path opacity="0.3" fill="#FFFFFF" d="M324.43,889.56c0,0,24.91-11.37,52.2-0.59l0.3,34.4c0,0-19.28,6.82-39.74,0.89
					L324.43,889.56z"/>
				<path fill="#6081C1" d="M372.8,893.27c-19.08,6.33-37.63,1.95-42.61,0.52c-10.42-31.34-53.98-163.5-65.96-219.25
					c-13.64-63.47-16.02-135.83-16.02-135.83c7.12-52.48,106.48-55.47,115.66,2.97c0,0,0.59,197.52,1.19,225.4
					C365.56,790.35,371.02,868.21,372.8,893.27z"/>
				<g opacity="0.3">
					<path fill="#FFFFFF" d="M258.42,644.27c-0.53,0-0.99-0.38-1.08-0.92c-8.46-53.21-10.2-104.1-10.22-104.6
						c-0.02-0.6,0.45-1.11,1.06-1.13c0.01,0,0.03,0,0.04,0c0.59,0,1.07,0.47,1.09,1.06c0.02,0.51,1.76,51.27,10.19,104.34
						c0.09,0.6-0.31,1.15-0.91,1.25C258.53,644.26,258.48,644.27,258.42,644.27z"/>
				</g>
				<path opacity="0.3" fill="#FFFFFF" d="M311.09,724.96c-20,2.7-19.57,58.72,10.97,59.02S337.48,721.4,311.09,724.96z"/>
				<g opacity="0.3">
					<g>
						<path fill="#FFFFFF" d="M363.28,885.61c-0.54,0-1.01-0.41-1.08-0.96c-0.26-2.08-25.54-209.29-27.89-350.08
							c-0.01-0.6,0.47-1.1,1.07-1.11c0.67,0.01,1.1,0.47,1.11,1.07c2.34,140.67,27.62,347.77,27.87,349.85
							c0.07,0.6-0.35,1.14-0.95,1.22C363.37,885.61,363.33,885.61,363.28,885.61z"/>
					</g>
					<g>
						<path fill="#FFFFFF" d="M329.18,604.06c-7.51,0-19.54-9.04-21.1-15.85c-2.37-10.36-3.67-48.72-3.72-50.35
							c-0.02-0.6,0.45-1.11,1.06-1.13c0.01,0,0.03,0,0.04,0c0.59,0,1.07,0.47,1.09,1.06c0.01,0.4,1.35,39.78,3.67,49.94
							c1.33,5.82,12.5,14.15,18.97,14.15c0.6,0,1.09,0.49,1.09,1.09S329.79,604.06,329.18,604.06z"/>
					</g>
				</g>
			</g>
		</g>
	</g>
	<g id="right_arm_00000003827898924962932340000016030723630102424750_">
		<g>
			<g>
				<path fill="#FBBDBB" d="M155.4,336.32l-36.17,43.46c-22.54,23.73,10.67,58.69,33,41.8l45.35-42.75L155.4,336.32z"/>
				<path fill="#FF8D88" d="M228.93,269.71c-16.87,0-91.96,60.95-91.96,60.95s16.61,43.22,47.38,69.54c0,0,33.3-34.7,60.29-70.59
					S249.99,269.71,228.93,269.71z"/>
				<g>
					<path opacity="0.3" fill="#FFFFFF" d="M185.98,383.6c-0.3,0.04-0.62-0.04-0.86-0.25c-22.86-19.36-38.38-54.38-38.54-54.74
						c-0.24-0.55,0.01-1.2,0.56-1.44c0.55-0.24,1.2,0.01,1.44,0.56c0.15,0.35,15.48,34.92,37.95,53.95
						c0.46,0.39,0.52,1.08,0.13,1.54C186.47,383.44,186.23,383.57,185.98,383.6z"/>
				</g>
			</g>
		</g>
	</g>
	<g id="body_00000102545781545724265520000014491526784705354171_">
		<g>
			<path fill="#FF8D88" d="M295.96,261.41c0,0-33.22,0.3-67.03,8.3c0,0-52.25,121.1-73.01,272.94c0,0,30.24,1.22,97.72,4.29
				c71.99,3.27,121.47-0.19,121.47-0.19s16.19-207.2,1.96-261.77C377.07,284.98,335.7,265.56,295.96,261.41z"/>
			<g opacity="0.3">
				<path fill="#FFFFFF" d="M225.21,276.03c-6.43,15.89-23,58.87-39.28,117.69c-0.15,0.55,0.17,1.11,0.72,1.26
					c0.55,0.15,1.11-0.17,1.26-0.72c16.26-58.73,32.8-101.64,39.21-117.47c0.21-0.53-0.04-1.12-0.57-1.34
					C226.02,275.25,225.42,275.51,225.21,276.03L225.21,276.03z"/>
			</g>
			<g>
				<path opacity="0.3" fill="#FFFFFF" d="M287.69,350.25c-0.28,0-0.57-0.02-0.86-0.07l-9.42-1.65c-2.6-0.46-4.36-2.85-4-5.46
					c3.08-22.34,11.03-61.61,11.11-62.01c0.06-0.3,0.24-0.55,0.5-0.71c0.26-0.16,0.57-0.2,0.86-0.13l15.42,4.15
					c0.57,0.15,0.91,0.72,0.78,1.29c-3.68,16.45-8.25,50.35-9.56,60.34c-0.17,1.33-0.87,2.5-1.95,3.29
					C289.71,349.93,288.72,350.25,287.69,350.25z M286.42,282.63c-1.33,6.64-8.08,40.61-10.85,60.73c-0.2,1.43,0.78,2.76,2.21,3.01
					l9.42,1.65c0.73,0.13,1.47-0.04,2.07-0.48c0.6-0.44,0.98-1.08,1.07-1.82c1.29-9.82,5.71-42.63,9.37-59.51L286.42,282.63z"/>
			</g>
			<path fill="#6081C1" d="M301.15,249.69c-6.54-1.02-14.93,0.88-19.3,2.08c-1.77,0.49-3.01,2.05-3.12,3.88l-1.16,20.28
				c0,0,7.27,11.42,21.35,12.16c14.09,0.74,21.8-7.41,21.8-7.41l4.28-19.34c0.39-1.77-0.35-3.61-1.9-4.56
				C319.81,254.77,312.98,251.53,301.15,249.69z"/>
			<g>
				<path fill="#FBBDBB" d="M311.37,233.09l-0.12,8.87l-0.28,20.86c-0.45,0.1-0.9,0.17-1.35,0.24c-7.92,1.26-14.92-0.36-19.84-2.28
					l2.75-10.99l3.87-15.37L311.37,233.09z"/>
				<path fill="#222B3F" d="M311.37,233.09l-0.12,8.87c-3.7,3.2-9.54,6.38-18.72,7.83l3.87-15.37L311.37,233.09z"/>
			</g>
			<g>
				<g>
					<path fill="#6081C1" d="M303.96,264.59c-5.98,0-11.05-1.42-14.58-2.79c-0.61-0.24-1.19-0.49-1.75-0.73
						c-3.8-1.67-6.03-3.31-6.12-3.37c-0.49-0.36-0.59-1.04-0.23-1.53c0.36-0.48,1.04-0.59,1.53-0.23c0.02,0.01,2.15,1.57,5.7,3.13
						c0.53,0.23,1.09,0.46,1.67,0.7c4.37,1.71,11.25,3.48,19.26,2.21c0.46-0.07,0.88-0.14,1.3-0.23c3.34-0.65,6.68-1.84,9.93-3.53
						c0.53-0.28,1.19-0.07,1.47,0.47c0.28,0.53,0.07,1.19-0.47,1.47c-3.43,1.79-6.97,3.04-10.5,3.73c-0.44,0.09-0.89,0.17-1.35,0.24
						C307.79,264.45,305.83,264.59,303.96,264.59z"/>
				</g>
				<g>
					<path opacity="0.3" fill="#FFFFFF" d="M303.96,264.59c-5.98,0-11.05-1.42-14.58-2.79c-0.61-0.24-1.19-0.49-1.75-0.73
						c-3.8-1.67-6.03-3.31-6.12-3.37c-0.49-0.36-0.59-1.04-0.23-1.53c0.36-0.48,1.04-0.59,1.53-0.23c0.02,0.01,2.15,1.57,5.7,3.13
						c0.53,0.23,1.09,0.46,1.67,0.7c4.37,1.71,11.25,3.48,19.26,2.21c0.46-0.07,0.88-0.14,1.3-0.23c3.34-0.65,6.68-1.84,9.93-3.53
						c0.53-0.28,1.19-0.07,1.47,0.47c0.28,0.53,0.07,1.19-0.47,1.47c-3.43,1.79-6.97,3.04-10.5,3.73c-0.44,0.09-0.89,0.17-1.35,0.24
						C307.79,264.45,305.83,264.59,303.96,264.59z"/>
				</g>
			</g>
		</g>
	</g>
	<g id="left_arm_00000124850333213905675340000009678460547649031338_">
		<g>
			<g>
				<path fill="#FBBDBB" d="M376.95,406.04l6,49.94c0.69,5.76,3.42,11.08,7.69,15.01l0.62,0.57c5.24,4.82,12.32,7.11,19.39,6.26l0,0
					c7.67-0.92,14.44-5.42,18.26-12.14l0.01-0.02c2.58-4.53,3.63-9.77,3.01-14.94l-5.45-45.34L376.95,406.04z"/>
				<path fill="#FF8D88" d="M372.9,283.87l-0.2-0.02l-0.19,0.05c-1.86,0.52-3.59,1.3-5.19,2.31c-4.21,2.64-7.52,6.8-10.11,11.98
					c-4.54,9.08-6.96,21.35-8.1,34.69c-3.42,40,4.76,89.69,4.77,89.73l0.09,0.55l0.5,0.25c41.31,20.64,81.38,10.79,81.5,10.77
					l0.78-0.19l0.05-0.8c3.97-59.54-12.29-95.25-25.82-116.86C392.11,286.21,373.08,283.87,372.9,283.87z"/>
				<g opacity="0.3">
					<path fill="#FFFFFF" d="M436.27,434.06c-0.1,0.06-0.2,0.11-0.32,0.13c-0.4,0.1-40.7,9.63-81.5-10.77
						c-0.31-0.16-0.53-0.45-0.59-0.8c-0.73-4.41-17.44-108.39,10.17-133.88c0.43-0.4,1.13-0.38,1.54,0.06
						c0.41,0.44,0.38,1.13-0.06,1.54c-25.75,23.78-10.88,123.04-9.58,131.38c36.79,18.18,73.01,11.72,78.72,10.53
						c0.95-14.66,0.12-28.52-0.63-41.21c-0.04-0.61,0.43-1.12,1.03-1.15c0.6-0.04,1.12,0.42,1.15,1.03
						c0.77,13.02,1.58,27.25,0.57,42.3C436.76,433.56,436.56,433.88,436.27,434.06z"/>
				</g>
				<g opacity="0.3">
					<path fill="#FFFFFF" d="M432.54,415.05c-0.14,0.09-0.3,0.15-0.48,0.16c-43.56,3.91-73.54-12.94-73.84-13.11
						c-0.52-0.3-0.7-0.97-0.4-1.49c0.3-0.52,0.97-0.71,1.49-0.4c0.29,0.17,29.71,16.67,72.55,12.83c0.6-0.05,1.13,0.39,1.19,0.99
						C433.09,414.45,432.88,414.84,432.54,415.05z"/>
				</g>
			</g>
		</g>
	</g>
	<g id="left_foreram">
		<g>
			<path fill="#222B3F" d="M279.19,326.94l-76.35,7.74c-6.48,0.66-10.73,7.09-8.8,13.3l34.92,112.47c1.45,4.68,6,7.69,10.88,7.19
				l76.35-7.74c6.48-0.66,10.73-7.09,8.8-13.3l-34.92-112.47C288.61,329.45,284.06,326.44,279.19,326.94z"/>
			<g>
				<path fill="#FBBDBB" d="M345.71,407.23l-19.19-27.46c-3.82-5.46-9.37-8.88-15.88-7.44c-9.68,2.14-22.78,5.04-25.32,5.61
					c-4.13,0.92-3.7,10.99,1.14,11.25c0,0-3.52,1.58-1.84,7.1c1.68,5.51,5.11,5.56,5.11,5.56s-3.09,1.49-1.74,6.54
					c1.35,5.05,5.92,5.11,5.92,5.11s-2.27,2.11-1.42,5.93s4.73,5.91,7.12,5.38c2.39-0.53,19.87-4.94,19.87-4.94
					s5.96,10.45,7.98,11.34c2.02,0.89,7.39-0.57,7.39-0.57s43.13,40.3,61.42,48.65c18.29,8.35,32.58-7.91,33.67-20.21
					c1.09-12.3-10.9-29.29-18.48-31.74S345.71,407.23,345.71,407.23z"/>
				
					<line fill="none" stroke="#2E374F" stroke-width="2.0547" stroke-linecap="round" stroke-linejoin="round" stroke-miterlimit="10" x1="286.46" y1="389.18" x2="308.82" y2="384.22"/>
				
					<line fill="none" stroke="#2E374F" stroke-width="2.0547" stroke-linecap="round" stroke-linejoin="round" stroke-miterlimit="10" x1="289.72" y1="401.84" x2="310.2" y2="397.3"/>
				
					<line fill="none" stroke="#2E374F" stroke-width="2.0547" stroke-linecap="round" stroke-linejoin="round" stroke-miterlimit="10" x1="293.9" y1="413.49" x2="313.34" y2="409.18"/>
			</g>
		</g>
	</g>
	<g id="head_00000106834102045594570450000018080969605959024298_">
		<g>
			<g>
				<path fill="#FBBDBB" d="M283.88,177.89c-21.8,6.46-17.44,58.76-12.74,66.08s35.32-2.86,39.86-6.39
					c4.53-3.53,7.16-22.61,6.55-34.69C316.92,190.81,309.19,170.38,283.88,177.89z"/>
				<path fill="#314060" d="M313.24,217.67l-1.31-7.3c0,0-8.5-5.4-7.95-13.98c0,0-26.94,17.96-50.07,5.97c0,0,3.02-6.05,7-8.82
					c0,0-20.52-12.24-21.49-35.46c-0.36-8.55,22.86-2.17,31.47,6.84c0,0-10.02-21.01-1.25-34.84c2.53-3.99,19.76,11.01,26.72,26.85
					c0,0,0.1-13.57,4.73-19.4c1.57-1.98,11.09,9.27,15.09,28.43c0,0,16.32,5.95,24.39,19.76c8.07,13.81,3.34,35.48-25.88,42.86
					L313.24,217.67z"/>
				<g>
					<path fill="#FBBDBB" d="M313.24,217.67c0,0,5.28-18.15,16.45-14.5c11.17,3.66,2.17,25.88-16.82,26.97L313.24,217.67z"/>
					<g>
						<g>
							<path fill="#222B3F" d="M317.8,224.75c-0.05,0.01-0.1,0.02-0.15,0.02c-0.6,0.03-1.12-0.42-1.15-1.03
								c-0.01-0.14-0.7-14.27,10.81-16.74c0,0,0.01,0,0.01,0c0.59-0.12,1.16,0.26,1.28,0.84c0.13,0.59-0.25,1.17-0.84,1.3
								c-9.7,2.09-9.1,14.35-9.09,14.48C318.71,224.17,318.33,224.64,317.8,224.75z"/>
						</g>
						<g>
							<path fill="#222B3F" d="M325.08,221.1c-0.52,0.1-1.05-0.18-1.24-0.69c-0.02-0.05-1.7-4.54-4.13-6.89
								c-0.43-0.42-0.45-1.11-0.03-1.55c0.42-0.43,1.11-0.45,1.54-0.03c2.8,2.7,4.59,7.5,4.67,7.71c0.21,0.57-0.08,1.19-0.65,1.4
								C325.19,221.07,325.14,221.08,325.08,221.1z"/>
						</g>
					</g>
				</g>
			</g>
			<g>
				<g>
					<path fill="#222B3F" d="M282.68,227.27c-0.07,0.01-0.15,0.02-0.23,0.02c-0.21,0-5.08-0.11-6.67-4.2
						c-0.17-0.44-0.04-0.94,0.32-1.24c3.17-2.63,5.52-9.23,5.55-9.3c0.2-0.57,0.83-0.87,1.39-0.67c0.57,0.2,0.87,0.82,0.67,1.39
						c-0.1,0.28-2.29,6.42-5.57,9.66c1.32,2.08,4.3,2.16,4.34,2.16c0.6,0.01,1.08,0.51,1.07,1.11
						C283.54,226.74,283.17,227.17,282.68,227.27z"/>
				</g>
				<g>
					<path fill="#222B3F" d="M289.96,234.65c-6.18,1.24-10.58-0.51-10.8-0.6c-0.56-0.23-0.82-0.86-0.59-1.42
						c0.23-0.56,0.86-0.82,1.42-0.6c0.06,0.02,5.9,2.32,13.34-0.65c0.57-0.23,1.2,0.05,1.42,0.61c0.22,0.56-0.05,1.2-0.61,1.42
						C292.68,233.99,291.28,234.39,289.96,234.65z"/>
				</g>
				<path fill="#222B3F" d="M292.09,205.61c0,0,0.6-4.38,1.73-5.13c1.14-0.76,1.13,1.35,1.13,1.35s8.81-1.18,9.29,7.63
					C304.25,209.45,300.71,204.41,292.09,205.61z"/>
				<path fill="#222B3F" d="M281.84,204.81c0,0,0.52-4.4-0.13-5.47s-1.11,0.96-1.11,0.96s-6.06-3.8-8.32,4.55
					C272.29,204.85,275.93,201.06,281.84,204.81z"/>
				<g>
					
						<ellipse transform="matrix(0.0808 -0.9967 0.9967 0.0808 56.5213 490.7226)" fill="#222B3F" cx="294.31" cy="214.72" rx="4.21" ry="3.38"/>
					<circle fill="#FFFFFF" cx="295.5" cy="212.88" r="1.16"/>
				</g>
				<g>
					
						<ellipse transform="matrix(0.0808 -0.9967 0.9967 0.0808 42.3662 471.1587)" fill="#222B3F" cx="276.62" cy="212.61" rx="4.21" ry="3.38"/>
					<circle fill="#FFFFFF" cx="277.82" cy="210.77" r="1.16"/>
				</g>
			</g>
		</g>
	</g>
	<g id="right_forearm_00000076592543995924121000000014040372098060436097_">
		<g>
			<g>
				<path fill="#6081C1" d="M152.22,278.43l4.67,7.47l-74.06,46.28c-0.74,0.46-1.71,0.24-2.18-0.5l-3-4.8
					c-0.46-0.74-0.23-1.71,0.51-2.17L152.22,278.43z"/>
				<path fill="#EEEEEE" d="M71.72,330.98l6.11-3.82l2.65,4.24l-6.11,3.82c-0.55,0.35-1.29,0.18-1.63-0.38l-1.4-2.23
					C71,332.06,71.17,331.33,71.72,330.98z"/>
				<polygon fill="#222B3F" points="152.22,278.43 166.58,274.65 156.89,285.9 				"/>
				<path fill="#222B3F" d="M85.3,320.25l4.67,7.47l-7.14,4.46c-0.74,0.46-1.71,0.24-2.18-0.5l-3-4.8
					c-0.46-0.74-0.23-1.71,0.51-2.17L85.3,320.25z"/>
			</g>
			<g>
				<path fill="#FBBDBB" d="M112.34,320.85l20.43,30.4l-18.48,35.42c-5.8,10.29-4.47,23.33,3.77,31.79
					c5.12,5.26,13.03,8.93,25.22,7.22c32.51-4.56,16.98-72.83,16.98-72.83s7.8-11.12,7.5-15.63c-0.3-4.52-9.51-14.71-9.51-14.71
					l3.39-6.28c2.82-5.23,0.94-11.75-4.22-14.69L136,289.71c0,0,6.24-17.11,0-18.89c-6.79-1.94-20.5,29.5-24.51,40.97
					C110.44,314.79,110.75,318.09,112.34,320.85z"/>
				
					<path fill="none" stroke="#2E374F" stroke-width="2.0547" stroke-linecap="round" stroke-linejoin="round" stroke-miterlimit="10" d="
					M160.27,410.85c3.06-7.88,3.87-17.82,3.66-27.24"/>
				
					<line fill="none" stroke="#2E374F" stroke-width="2.0547" stroke-linecap="round" stroke-linejoin="round" stroke-miterlimit="10" x1="131.98" y1="292.98" x2="122" y2="314.69"/>
				
					<line fill="none" stroke="#2E374F" stroke-width="2.0547" stroke-linecap="round" stroke-linejoin="round" stroke-miterlimit="10" x1="142.75" y1="298.54" x2="132.77" y2="320.25"/>
				
					<line fill="none" stroke="#2E374F" stroke-width="2.0547" stroke-linecap="round" stroke-linejoin="round" stroke-miterlimit="10" x1="152.22" y1="303.83" x2="142.24" y2="325.54"/>
			</g>
		</g>
	</g>
</g>
<g id="Layer_x5F_Character_2">
	<g id="back_shirt">
		<path fill="#222B3F" d="M427.67,605.06c0,0,36.61,41.91,124.05,35.87s111.81-54.19,111.81-54.19l-21.15-97.91l-177.99,22.65
			L427.67,605.06z"/>
	</g>
	<g id="left_calf">
		<g>
			<path fill="#9F5353" d="M523.93,912.3l-24.52,21.28c0,0-8.5-1.94-11.08-11.7l23.64-25.73L523.93,912.3z"/>
			<g>
				<path fill="#222B3F" d="M456.76,929.7c-7.25,4.51-14.95,11.81-22.98,21.09l4.32,5.58c0,0,16.99-9.07,25.9-11.38
					C472.91,942.67,464.75,927.85,456.76,929.7z"/>
				<path fill="#FF8D88" d="M488.97,917c0,0,1.66,8.4,12.82,16.57c0,0-15.68,39.65-16.38,49.61c-0.7,9.96,3.55,27.31,4.62,33.62
					s-27.07-26.43-31.8-35.51c-4.73-9.08,0.13-23.54,0.37-34.42c0.24-10.88-1.83-17.18-1.83-17.18S472.93,919.99,488.97,917z"/>
			</g>
			<g>
				<path fill="#374D6D" d="M558.56,833.28c-17.69,21.75-54.01,60.75-54.01,60.75c3.11,11.63,21.77,25.17,21.77,25.17l126.85-97.23
					c24-22.74-13.54-55.85-37.43-39.51C598.04,795.87,576.24,811.53,558.56,833.28z"/>
				<path opacity="0.3" fill="#FFFFFF" d="M574.68,833.2c12.39-11.19,49.67-39.92,50.05-40.21c0.05-0.04,0.09-0.08,0.14-0.13
					l0.36-0.39l-1.46-1.54l-0.4,0.44c-1.88,1.45-37.92,29.25-50.1,40.25c-12.47,11.26-56.99,63.56-58.87,65.78
					c-0.35,0.42-0.33,1.02,0.04,1.41c0.03,0.03,0.05,0.05,0.08,0.08c0.44,0.38,1.11,0.32,1.49-0.12
					C516.46,898.24,562.31,844.37,574.68,833.2z"/>
			</g>
		</g>
	</g>
	<g id="left_thigh">
		<g>
			<g>
				<g>
					<path fill="#374D6D" d="M664.91,802.29c-1.07,19.5-23.07,27.2-38.87,22.34c-0.8-0.24-1.59-0.53-2.36-0.85
						c-5.77-2.34-10.44-6.52-12.47-12.59c0,0-0.74-2.15-2.05-6.07c-0.21-0.66-0.45-1.37-0.7-2.13
						c-7.82-23.64-30.54-94.38-44.29-159.22c-16.81-79.31-25-152.14,5.51-160.25c7.86-2.09,16.69-3.64,25.47-4.79
						c27.05-3.54,51.47,16.53,53.35,43.75c2.48,35.85,5.76,81.77,7.41,98.13c2.85,28.32,7.11,150.14,7.11,150.14L664.91,802.29z"/>
					<g opacity="0.3">
						<path fill="#FFFFFF" d="M619.19,794.63c0.31,1.37-0.19,2.8-1.3,3.67l-0.02,0.02c-2.46,1.92-5.45,4.24-8.71,6.8
							c-0.21-0.66-0.45-1.37-0.7-2.13c3.14-2.47,6.01-4.71,8.37-6.55c0.32-0.25,0.46-0.65,0.37-1.04l-35.91-157.35
							c-0.13-0.57,0.22-1.13,0.78-1.27c0.56-0.13,1.15,0.21,1.28,0.78l35.84,157.05L619.19,794.63z"/>
					</g>
				</g>
			</g>
		</g>
	</g>
	<g id="right_calf">
		<g>
			<g>
				<path fill="#9F5353" d="M554.01,922.82l3.83,34.85c0,0-6.03,6.29-15.73,3.5l-8.09-36.38L554.01,922.82z"/>
				<g>
					<path fill="#222B3F" d="M530.05,986.11c-1.06,8.47-0.25,19.05,1.91,31.13l7.05,0.16c0,0,3.66-18.91,7.48-27.29
						C550.3,981.74,533.64,978.74,530.05,986.11z"/>
					<path fill="#FF8D88" d="M540.48,953.1c0,0,7.57,4,20.95,0.48c0,0,20.91,37.16,28.21,43.97c7.3,6.82,23.45,14.44,29.02,17.59
						s-37.58,4.38-47.61,2.33c-10.03-2.04-18.2-14.93-26.5-21.97s-14.5-9.4-14.5-9.4S532.69,967.43,540.48,953.1z"/>
				</g>
			</g>
			<g>
				<path fill="#374D6D" d="M499.35,808.66c2.43,24.85,25.71,123.46,25.71,123.46l38.73-5.27c0,0-7.43-127.61-5.21-164.14
					c-4.13-37.64-58.12-34.77-60.83,13.53C498.05,787.75,498.43,799.21,499.35,808.66z"/>
				<path opacity="0.3" fill="#FFFFFF" d="M510.12,764.53c-0.51,0.11-0.87,0.58-0.83,1.1c1.37,18.33,3.99,49.63,7.29,67.84
					c5.41,29.82,17.25,86.82,17.37,87.39c0.12,0.57,0.68,0.94,1.25,0.82c0,0,0.01,0,0.01,0c0.56-0.13,0.92-0.68,0.81-1.25
					c-0.12-0.57-11.96-57.54-17.36-87.34c-3.28-18.11-5.9-49.34-7.26-67.62C511.36,764.83,510.75,764.39,510.12,764.53
					L510.12,764.53z"/>
			</g>
		</g>
	</g>
	<g id="right_thigh">
		<g>
			<g>
				<path fill="#374D6D" d="M507.88,464.13c-42.24,9.15-47.17,73.27-42.64,113.13c4.53,39.86,26.57,133.4,29.78,150.64
					c1.99,10.68,2.25,29.59,2.73,48.34c1.31,29.11,56.68,26.3,60.83-13.53c0.08-1.39,0.18-2.68,0.29-3.81
					c3.01-31.01,19.17-174.12,19.17-174.12l-10.27-70.57C563.69,486.16,550.11,454.98,507.88,464.13z"/>
				<g opacity="0.3">
					<path fill="#FFFFFF" d="M478.81,536.96c0.17,1.2,17.07,119.44,21.99,141.56c5.07,22.81,7.8,52.68,9.12,67.05
						c0.36,3.82,0.73,9.22,1.17,15.48c0.26,3.69,0.54,7.74,0.86,12.02l1.92,21.63l-2.19-0.66l-1.82-20.5
						c-0.33-4.41-0.61-8.56-0.87-12.34c-0.44-6.24-0.81-11.63-1.17-15.45c-1.31-14.31-4.04-44.1-9.08-66.77
						c-4.94-22.2-21.84-140.53-22.01-141.72c-0.08-0.58,0.33-1.13,0.89-1.19C478.2,535.98,478.73,536.38,478.81,536.96z"/>
				</g>
				<g>
					<g>
						<path fill="#222B3F" d="M577.45,585.64c-0.02-0.01-0.03-0.01-0.05-0.03c-0.04-0.03-0.07-0.06-0.1-0.09
							C577.34,585.57,577.39,585.61,577.45,585.64z"/>
					</g>
					<g>
						<path fill="#374D6D" d="M579.88,506l9.25,56.33c0.83,5.12-0.49,10.41-3.64,14.51l-6.56,8.52c-0.06,0.09-0.13,0.16-0.21,0.23
							c-0.03,0.03-0.07,0.05-0.11,0.08c-0.05,0.03-0.1,0.06-0.16,0.08c-0.05,0.02-0.11,0.04-0.17,0.06
							c-0.07,0.02-0.15,0.02-0.22,0.02c-0.05,0-0.09,0-0.13-0.01c-0.04,0-0.09-0.01-0.13-0.02c-0.13-0.03-0.25-0.08-0.35-0.16
							c-0.06-0.04-0.11-0.07-0.15-0.12c-0.05-0.05-0.09-0.09-0.13-0.15c-0.03-0.04-0.05-0.08-0.07-0.13
							c-0.05-0.08-0.07-0.15-0.09-0.25l-0.01-0.06l-11.09-74.26c-0.09-0.58,0.31-1.1,0.89-1.2c0.58-0.08,1.11,0.31,1.2,0.89
							l10.73,71.8l5.08-6.61c2.81-3.64,3.98-8.34,3.24-12.87l-9.25-56.33c-0.1-0.58,0.29-1.11,0.87-1.21
							C579.24,505.03,579.78,505.43,579.88,506z"/>
						<path fill="#222B3F" d="M578.27,585.81l-0.07,0.02c-0.05,0.01-0.1,0.01-0.15,0.01C578.13,585.83,578.2,585.82,578.27,585.81z"
							/>
					</g>
				</g>
				<g opacity="0.3">
					<g>
						<path fill="#FFFFFF" d="M577.45,585.64c-0.02-0.01-0.03-0.01-0.05-0.03c-0.04-0.03-0.07-0.06-0.1-0.09
							C577.34,585.57,577.39,585.61,577.45,585.64z"/>
					</g>
					<g>
						<path fill="#FFFFFF" d="M579.88,506l9.25,56.33c0.83,5.12-0.49,10.41-3.64,14.51l-6.56,8.52c-0.06,0.09-0.13,0.16-0.21,0.23
							c-0.03,0.03-0.07,0.05-0.11,0.08c-0.05,0.03-0.1,0.06-0.16,0.08c-0.05,0.02-0.11,0.04-0.17,0.06
							c-0.07,0.02-0.15,0.02-0.22,0.02c-0.05,0-0.09,0-0.13-0.01c-0.04,0-0.09-0.01-0.13-0.02c-0.13-0.03-0.25-0.08-0.35-0.16
							c-0.06-0.04-0.11-0.07-0.15-0.12c-0.05-0.05-0.09-0.09-0.13-0.15c-0.03-0.04-0.05-0.08-0.07-0.13
							c-0.05-0.08-0.07-0.15-0.09-0.25l-0.01-0.06l-11.09-74.26c-0.09-0.58,0.31-1.1,0.89-1.2c0.58-0.08,1.11,0.31,1.2,0.89
							l10.73,71.8l5.08-6.61c2.81-3.64,3.98-8.34,3.24-12.87l-9.25-56.33c-0.1-0.58,0.29-1.11,0.87-1.21
							C579.24,505.03,579.78,505.43,579.88,506z"/>
						<path fill="#FFFFFF" d="M578.27,585.81l-0.07,0.02c-0.05,0.01-0.1,0.01-0.15,0.01C578.13,585.83,578.2,585.82,578.27,585.81z"
							/>
					</g>
				</g>
			</g>
		</g>
	</g>
	<g id="hair">
		<g>
			<path fill="#374D6D" d="M538.73,164.32c0,0-3.15-18.66-15.3-26.26c-12.15-7.6-25.35,3.2-32.44,19.17s0.67,33.97,24.07,24.19
				C533.45,173.72,538.73,164.32,538.73,164.32z"/>
			<path fill="#374D6D" d="M535.19,163.48c0,0-24.86,4.63-28.82,24.63c-3.96,20,24.81,45.88,46.47,40.84
				c21.66-5.04,22.29-22.15,22.29-22.15s16.42,3.75,21.7-11.54c5.28-15.28-1.73-20.58-10.44-21.66c0,0,9.23-18.13-7.89-25.6
				C561.39,140.54,544.94,145.68,535.19,163.48z"/>
			<g opacity="0.3">
				<path fill="#FFFFFF" d="M509.2,181.52c-0.18,0-0.36-0.04-0.52-0.14c-0.51-0.29-0.69-0.93-0.4-1.44
					c7.88-13.88,26.56-17.48,26.74-17.5c0.57-0.09,1.1,0.3,1.2,0.87c0.1,0.57-0.28,1.11-0.85,1.22
					c-0.18,0.03-17.88,3.47-25.25,16.46C509.93,181.33,509.57,181.52,509.2,181.52z"/>
			</g>
		</g>
	</g>
	<g id="left_arm">
		<g>
			<path fill="#6081C1" d="M630.34,295.98c13.43,19.11,39.08,57.95,71.05,114.02l-6.04,10.93c0,0-22.33,17.88-32.61,16.88
				c-10.28-1-63.84-74.96-83.12-118.91c-12.17-27.75,1.22-37.41,17.75-39.58c5.21-0.68,10.71-1.26,16.31,1.76
				C618.02,283.42,625.71,289.41,630.34,295.98z"/>
			<path fill="#222B3F" d="M702.89,402.53c0,0-26.62-5.58-44.92,16.46c-13.5,16.25-7.02,31.05-7.02,31.05l16.74,9.49
				c0,0,21.43-4,36.22-16.59c14.79-12.6,18.02-26.59,18.02-26.59L702.89,402.53z"/>
		</g>
	</g>
	<g id="body">
		<g>
			<g>
				<g>
					<path fill="#FF8D88" d="M646.3,506.95c0,0-14.2,6.06-67.78,16.33c-53.59,10.27-112.62-8.47-114.44-8.47
						c-0.84,0,19.26-38.64,29.5-90.47c11.79-59.72,14.01-133.76,14.01-133.76l44.12-38.38l61.46,46.68l2.61,55.17L646.3,506.95z"/>
					<g opacity="0.3">
						<path fill="#FFFFFF" d="M523.73,512.75c-19.8,0-33.43-1.28-33.77-1.31c-0.58-0.06-1.01-0.57-0.95-1.16
							c0.06-0.58,0.58-1.01,1.16-0.95c0.86,0.08,86.99,8.14,142.1-16.83c0.53-0.24,1.16-0.01,1.4,0.53c0.24,0.53,0.01,1.16-0.53,1.4
							C599.41,509.71,554.25,512.75,523.73,512.75z"/>
					</g>
				</g>
				<path fill="#6081C1" d="M551.72,428.99c-5.25,91.46-39.89,166.81-39.89,166.81c-34.26,19.34-84.16,9.26-84.16,9.26
					s45.38-122.78,53.43-175.97c1.78-93.38,1.42-140.32,1.42-140.32s33.39-29.28,57.15-38.27c-1.09,11.29-5.1,58.02-1.06,91.46
					C543.26,380.23,551.72,428.99,551.72,428.99z"/>
				<g>
					<path fill="#6081C1" d="M617.29,579.79c0,0,0.1-54.9-1.92-95.59c-2.01-40.7-8.46-68.1-8.46-68.1s-22.96-95.9-28.4-116.05
						c-5.45-20.14-16.22-49.55-16.22-49.55s22.46,8.04,51.38,30.58v10.72c0,0,12.69,42.31,13.29,49.86
						c0.6,7.56-5.74,33.85-5.74,33.85s38.07,147.16,42.31,211.23C663.53,586.74,640.86,585.53,617.29,579.79z"/>
				</g>
				<g opacity="0.3">
					<g>
						<path fill="#FFFFFF" d="M631.87,419.53c-0.41,0-0.78-0.28-0.88-0.7c-6.04-25.29-10.6-42.92-10.64-43.1
							c-0.04-0.14-0.04-0.3,0-0.44c0.06-0.26,6.31-26.24,5.72-33.56c-0.59-7.37-13.13-49.25-13.26-49.67
							c-0.14-0.48,0.13-0.99,0.61-1.13c0.48-0.14,0.99,0.13,1.13,0.61c0.52,1.73,12.73,42.49,13.33,50.05
							c0.58,7.33-5.06,31.18-5.71,33.91c0.54,2.11,4.91,19.13,10.59,42.91c0.12,0.49-0.18,0.98-0.67,1.09
							C632.01,419.52,631.94,419.53,631.87,419.53z"/>
					</g>
				</g>
				<g>
					<path fill="#6081C1" d="M547.28,242.64c-12.18,1.91-22.77,29.01-27.3,52.99l13.65,12.49l-13.65,24.18
						c0,0,20.45,51.17,31.73,96.7c0,0-5.24-74.14-8.86-115.04c0.71-42.01,20.05-43.53,35.66-4.03
						c15.11,43.72,28.41,106.17,28.41,106.17s1.61-62.45-1.61-96.1l-20.15-15.51l6.04-15.71
						C591.2,288.77,570.45,239.01,547.28,242.64z"/>
					<g opacity="0.3">
						<path fill="#FFFFFF" d="M606.68,402.95c-0.01,0-0.02,0-0.04,0c-0.5-0.02-0.89-0.44-0.87-0.94c0.02-0.48,1.79-48.34-1.34-81.52
							l-19.83-15.27c-0.32-0.25-0.44-0.67-0.29-1.05l5.91-15.37c-1.04-2.42-7.76-17.59-17.21-29.69c-0.31-0.4-0.24-0.97,0.16-1.27
							c0.4-0.31,0.97-0.24,1.27,0.16c10.4,13.32,17.53,30.27,17.6,30.44c0.09,0.22,0.09,0.46,0.01,0.68l-5.8,15.08l19.61,15.1
							c0.2,0.15,0.33,0.38,0.35,0.63c3.19,33.32,1.4,81.67,1.38,82.16C607.57,402.56,607.17,402.95,606.68,402.95z"/>
					</g>
					<g opacity="0.3">
						<path fill="#FFFFFF" d="M547.07,412.5c-0.4,0-0.76-0.26-0.87-0.66c-11.32-39.73-26.89-78.83-27.05-79.22
							c-0.1-0.26-0.08-0.54,0.05-0.78l13.29-23.55l-13.12-12c-0.23-0.21-0.34-0.53-0.28-0.84c2.84-15.01,7.58-29.3,13-39.21
							c0.24-0.44,0.79-0.6,1.23-0.36c0.44,0.24,0.6,0.79,0.36,1.23c-5.27,9.63-9.9,23.52-12.71,38.17l13.28,12.15
							c0.31,0.29,0.39,0.75,0.18,1.12l-13.44,23.8c1.69,4.27,16.22,41.34,26.95,78.99c0.14,0.48-0.14,0.98-0.62,1.12
							C547.23,412.49,547.15,412.5,547.07,412.5z"/>
					</g>
				</g>
			</g>
			<g>
				<g>
					<path fill="#374D6D" d="M541.01,242.82c-0.28,0-0.53,0.11-0.71,0.29l0,0c-7.84,7.84-12.25,18.48-12.25,29.57v30.8
						c0,0.55,0.45,1,1,1s1-0.45,1-1v-30.8c0-10.56,4.2-20.69,11.66-28.16c0.19-0.19,0.29-0.44,0.29-0.71
						C542.01,243.27,541.57,242.82,541.01,242.82z"/>
					<path fill="#374D6D" d="M583.55,278.26c-1.8-15.16-10.32-28.72-23.19-36.92c-0.09-0.06-0.19-0.1-0.29-0.13h0
						c-0.54-0.13-1.08,0.19-1.21,0.73c-0.11,0.43,0.09,0.85,0.44,1.08l-0.01,0.01c12.37,7.88,20.55,20.9,22.28,35.47l4.44,37.39
						c0.07,0.55,0.56,0.94,1.11,0.88c0.55-0.07,0.94-0.56,0.88-1.11L583.55,278.26z"/>
					<g>
						<g>
							<g>
								<path fill="#374D6D" d="M593.38,324.46c0-4.44-2.35-8.18-5.55-9.32v-0.37h-2.05c-4.2,0-7.6,4.33-7.6,9.68s3.4,9.68,7.6,9.68
									h2.05v-0.37C591.02,332.63,593.38,328.9,593.38,324.46z"/>
								<ellipse fill="#222B3F" cx="587.82" cy="324.46" rx="7.6" ry="9.68"/>
							</g>
							<g>
								<path fill="#374D6D" d="M593.64,324.46c0-2.5-1.2-4.63-2.91-5.53v-0.45h-1.78c-2.59,0-4.69,2.68-4.69,5.98
									c0,3.3,2.1,5.98,4.69,5.98h1.78v-0.45C592.44,329.09,593.64,326.96,593.64,324.46z"/>
								<ellipse fill="#222B3F" cx="590.73" cy="324.46" rx="4.69" ry="5.98"/>
							</g>
						</g>
					</g>
				</g>
				<path fill="#9F5353" d="M578.5,309.93c-3.02,11.07-11.68,15.91-11.68,15.91c-12.89-0.99-23.98-11.87-23.98-11.87v-42.53
					c-0.15-11.58-2.83-39.45-3.84-49.61c-0.24-2.37-0.39-3.77-0.39-3.77l19.95,4.25c0,0,0.44,9.4,1.26,19.87
					c0.8,9.96,2.01,20.91,3.58,25.63C566.63,277.48,578.5,309.93,578.5,309.93z"/>
				<path fill="#222B3F" d="M559.82,242.19c-11.48-3.55-17.62-12.84-20.82-20.36c-0.24-2.37-0.39-3.77-0.39-3.77l19.95,4.25
					C558.56,222.31,558.99,231.72,559.82,242.19z"/>
			</g>
			<g>
				<g>
					<path fill="#374D6D" d="M511.22,376.33h-1.8c-1.03,0-1.87-0.84-1.87-1.87v-42.59c0-7.18,2.91-13.67,7.61-18.37
						c4.71-4.7,11.19-7.61,18.37-7.61l0,0c7.18,0,13.67,2.91,18.37,7.61c4.7,4.71,7.61,11.19,7.61,18.37v42.59
						c0,1.03-0.84,1.87-1.87,1.87h-1.78v2.52l1.78,0c2.43,0,4.39-1.97,4.39-4.39v-42.59c0-15.74-12.76-28.5-28.5-28.5h0
						c-15.74,0-28.5,12.76-28.5,28.5v42.59c0,2.43,1.97,4.39,4.39,4.39h1.8V376.33L511.22,376.33z"/>
				</g>
				<path fill="#222B3F" d="M513.72,380.41l-2.18,0.39c-0.87,0.16-1.66-0.51-1.66-1.39v-3.64c0-0.88,0.8-1.55,1.66-1.39l2.18,0.39
					c0.67,0.12,1.16,0.71,1.16,1.39v2.86C514.88,379.7,514.39,380.29,513.72,380.41z"/>
				<path fill="#222B3F" d="M553.34,380.41l2.18,0.39c0.87,0.16,1.66-0.51,1.66-1.39v-3.64c0-0.88-0.8-1.55-1.66-1.39l-2.18,0.39
					c-0.67,0.12-1.16,0.71-1.16,1.39v2.86C552.17,379.7,552.66,380.29,553.34,380.41z"/>
			</g>
		</g>
	</g>
	<g id="head">
		<g>
			<g>
				<path fill="#9F5353" d="M577.47,187.87c0,0,3.99,16.07-1.23,33.6c-5.22,17.53-19.62,14.91-31.65,4.49
					c-12.02-10.42-14.15-33.2-14.15-33.2s-0.72-19.3,13.49-23.42S573.1,172.47,577.47,187.87z"/>
				<path fill="#374D6D" d="M543.88,175.36c0,0,13.77,20.68,39.89,18.53c0,0-6.59-37.41-38.65-30.67
					c-32.06,6.74-26.23,32.79-12.69,41C532.43,204.22,543.56,197.35,543.88,175.36z"/>
				<g>
					<g>
						<path fill="#9F5353" d="M539.54,214.63l-3.63-11.98c0,0-5.07-8.85-13.24-6.84C514.5,197.8,515.49,219.2,539.54,214.63z"/>
						<g>
							<path fill="#222B3F" d="M536.25,210.64c-0.34,0-0.68-0.16-0.88-0.47c-4.47-6.68-12.12-8.4-12.19-8.42
								c-0.57-0.12-0.93-0.69-0.81-1.26c0.12-0.57,0.68-0.93,1.26-0.81c0.35,0.08,8.56,1.93,13.5,9.31
								c0.32,0.49,0.19,1.14-0.29,1.47C536.66,210.59,536.45,210.64,536.25,210.64z"/>
						</g>
						<g>
							<path fill="#222B3F" d="M527.09,210.72c-0.03,0-0.07,0-0.1,0c-0.58-0.05-1.01-0.57-0.96-1.15c0.01-0.14,0.33-3.47,2.1-7
								c0.26-0.52,0.9-0.73,1.42-0.47c0.52,0.26,0.73,0.9,0.47,1.42c-1.58,3.15-1.88,6.21-1.88,6.24
								C528.09,210.31,527.63,210.72,527.09,210.72z"/>
						</g>
					</g>
					<g>
						<path fill="#FF8D88" d="M528.13,232.12c-0.5,0-0.98-0.08-1.46-0.23c-1.87-0.61-3.2-2.33-3.77-4.84
							c-0.52-2.32-0.32-5.09,0.56-7.8c0.68-2.09,1.71-3.98,2.98-5.46c0.38-0.44,1.05-0.5,1.49-0.12c0.44,0.38,0.5,1.05,0.12,1.49
							c-1.09,1.28-1.98,2.92-2.57,4.75c-0.77,2.36-0.95,4.73-0.51,6.68c0.39,1.76,1.23,2.92,2.35,3.29
							c1.13,0.37,2.49-0.09,3.84-1.28c1.5-1.32,2.75-3.35,3.51-5.71c0.77-2.36,0.95-4.73,0.51-6.68c-0.39-1.76-1.23-2.92-2.35-3.29
							c-0.56-0.18-0.86-0.78-0.68-1.33c0.18-0.56,0.77-0.86,1.33-0.68c1.87,0.61,3.2,2.33,3.77,4.84c0.52,2.32,0.32,5.09-0.56,7.8
							c-0.88,2.71-2.35,5.07-4.13,6.64C531.12,231.46,529.59,232.12,528.13,232.12z"/>
					</g>
				</g>
			</g>
			<g>
				<path fill="#222B3F" d="M545.09,194c0,0,3.59-7.31,9.13-4.54c0,0,0.15-1.66,1.59-1.7s1.61,4.49,1.61,4.49
					S550.77,191.73,545.09,194z"/>
				<path fill="#222B3F" d="M576.23,197.39c0,0-0.47-7.43-4.75-5.36c0,0-0.11-1.37-1.05-1.52c-1.61-0.26-1.93,4.01-1.93,4.01
					S573.13,194.59,576.23,197.39z"/>
				<g>
					
						<ellipse transform="matrix(0.0285 -0.9996 0.9996 0.0285 334.6763 749.5381)" fill="#222B3F" cx="552.95" cy="202.59" rx="3.78" ry="3.06"/>
					<circle fill="#FFFFFF" cx="553.66" cy="201.27" r="0.81"/>
				</g>
				<g>
					
						<ellipse transform="matrix(0.0285 -0.9996 0.9996 0.0285 351.6502 768.0296)" fill="#222B3F" cx="570.95" cy="203.1" rx="3.78" ry="3.06"/>
					<circle fill="#FFFFFF" cx="571.66" cy="201.78" r="0.81"/>
				</g>
				<g>
					<path fill="#222B3F" d="M563.26,215.72c-0.76,0-1.47-0.11-2-0.26c-0.56-0.16-0.89-0.74-0.73-1.3s0.74-0.89,1.3-0.73
						c0.13,0.04,3.21,0.85,4.08-1.18c0.19-0.45,0.09-0.62,0.04-0.69c-0.38-0.6-2.06-0.97-3.13-1.01c-0.58-0.02-1.03-0.5-1.02-1.08
						l0.15-7.39c0.01-0.58,0.51-1.04,1.08-1.04c0.58,0.01,1.05,0.5,1.04,1.08l-0.13,6.41c1.19,0.17,3,0.64,3.8,1.9
						c0.34,0.54,0.64,1.43,0.12,2.65C566.97,215.14,564.98,215.72,563.26,215.72z"/>
				</g>
				<g>
					<path fill="#222B3F" d="M560.82,223.95c-2.83,0-7.19-0.91-11.34-5.45c-0.39-0.43-0.36-1.1,0.07-1.49
						c0.43-0.39,1.1-0.36,1.49,0.07c5.81,6.36,11.94,4.55,12.2,4.47c0.56-0.17,1.15,0.14,1.33,0.69c0.18,0.56-0.13,1.15-0.68,1.33
						C563.76,223.59,562.59,223.95,560.82,223.95z"/>
				</g>
			</g>
		</g>
	</g>
	<g id="right_arm">
		<g>
			<g>
				<path fill="#6081C1" d="M491.37,283.53c0,0-6.32-1.05-26.2,15.83s-73.91,72.24-73.91,72.24l-24.8,44.07
					c0,0,14.89,21.24,27.44,19.84c12.54-1.41,69.17-52.57,92.36-76.52C512.19,332.22,504.16,295.69,491.37,283.53z"/>
			</g>
			<g opacity="0.3">
				<path fill="#FFFFFF" d="M492.1,353.31c8.67-11.55,12.01-24.32,12.01-35.97c-0.01-14.84-5.38-27.84-12.22-34.36
					c-0.3-0.29-0.78-0.27-1.06,0.03c-0.29,0.3-0.27,0.78,0.03,1.06c6.43,6.09,11.77,18.8,11.75,33.27
					c0,11.36-3.25,23.79-11.71,35.06c-0.25,0.33-0.18,0.8,0.15,1.05C491.38,353.71,491.85,353.65,492.1,353.31L492.1,353.31z"/>
			</g>
			<path fill="#222B3F" d="M407.12,373.34c-26.33-13.93-49.07,14.81-45.31,45.23s50.23,33.22,63.52,8.31
				S429.63,385.26,407.12,373.34z"/>
		</g>
	</g>
	<g id="right_forearm">
		<g>
			<g>
				<g>
					<path fill="#9F5353" d="M498.29,481.31c0,0,2.32,5.84-0.65,8.48c-2.82,2.51-5.17-0.74-5.41-1.07c0.11,0.36,1.12,3.75-1.46,6.72
						c-2.73,3.14-6.14-1.18-6.14-1.18s2.18,7.92-3.45,8.1c-5.62,0.17-2.31-7.07-12.51-11.16c-10.2-4.1-13.8,7.56-22.78-2.93
						c-2.02-1.77-4.13-3.68-6.22-5.64l-0.02,0.02c-11.98-11.3-39.3-35.8-53.41-48.42c-12.37-11.06-12.37-30.65,0.33-41.33
						c0.35-0.3,0.72-0.59,1.09-0.89c16.26-12.93,31.58,10.73,31.58,10.73l39.5,62.15c0,0,12.47-7.45,25.29-7.94
						c12.83-0.49,21.11,20.65,19.59,23.83C502.11,483.96,498.29,481.31,498.29,481.31z"/>
				</g>
				<g>
					<path fill="#222B3F" d="M496.08,479.69c-0.06-0.08-0.11-0.16-0.15-0.26c-3.1-7.48-10.32-13.69-10.39-13.75
						c-0.44-0.38-0.5-1.05-0.12-1.49c0.38-0.44,1.05-0.5,1.49-0.12c0.31,0.27,7.67,6.6,10.98,14.55c0.22,0.54-0.03,1.16-0.57,1.38
						C496.87,480.19,496.37,480.05,496.08,479.69z"/>
				</g>
				<g>
					<path fill="#222B3F" d="M489.15,486.71c-0.06-0.08-0.11-0.16-0.15-0.26c-3.11-7.49-9.34-13.16-9.4-13.21
						c-0.43-0.4-0.47-1.06-0.08-1.49c0.39-0.43,1.06-0.47,1.49-0.08c0.27,0.24,6.65,6.03,9.94,13.98c0.22,0.54-0.03,1.16-0.57,1.38
						C489.94,487.2,489.44,487.06,489.15,486.71z"/>
				</g>
				<g>
					<path fill="#222B3F" d="M482.36,493.47c-0.06-0.08-0.11-0.16-0.15-0.26c-3.11-7.48-8.85-12.33-8.91-12.38
						c-0.45-0.37-0.51-1.04-0.14-1.49c0.37-0.45,1.04-0.51,1.49-0.14c0.25,0.21,6.21,5.23,9.51,13.19c0.22,0.54-0.03,1.16-0.57,1.38
						C483.15,493.96,482.65,493.82,482.36,493.47z"/>
				</g>
			</g>
		</g>
	</g>
	<g id="left_hand">
		<g>
			<path fill="#FBBDBB" d="M706.42,417.94l30.22,7.46l-1.75,19.75c0,0-46.34,13.55-61.28,9.01S682.48,418.17,706.42,417.94z"/>
			<path fill="#222B3F" d="M675.73,342.15l76.35,7.74c6.48,0.66,10.73,7.09,8.8,13.3l-34.92,112.47c-1.45,4.68-6,7.69-10.88,7.19
				l-76.35-7.74c-6.48-0.66-10.73-7.09-8.8-13.3l34.92-112.47C666.3,344.66,670.85,341.65,675.73,342.15z"/>
			<g>
				<path fill="#9F5353" d="M734.97,415.57c10.48-1.1,18.35,5.41,13.4,10.95c0,0,2.09,5.15-2.56,9.94c0,0,2.48,4.56-4.65,9.72
					c0,0,0.74,5.04-4.21,7.65s-12.3-0.56-15.55-2.71c-3.25-2.15-1.8-8.25,2.11-8.19c0,0-3.65-0.53-3.23-4.37s4.9-4.36,4.9-4.36
					s-3.57-2.43-2.91-5.67s4.85-3.93,4.85-3.93S718.98,417.25,734.97,415.57z"/>
				
					<path fill="none" stroke="#2E374F" stroke-width="2" stroke-linecap="round" stroke-linejoin="round" stroke-miterlimit="10" d="
					M729.11,424.27c0,0,8.9-1.39,17.21,1.36"/>
				
					<path fill="none" stroke="#2E374F" stroke-width="2" stroke-linecap="round" stroke-linejoin="round" stroke-miterlimit="10" d="
					M727.26,434.15c0,0,7.23-1.3,16.54,1.84"/>
				
					<path fill="none" stroke="#2E374F" stroke-width="2" stroke-linecap="round" stroke-linejoin="round" stroke-miterlimit="10" d="
					M724.99,442.87c0,0,7.83-0.17,14.04,2.1"/>
			</g>
		</g>
	</g>
</g>
</svg>
