<?xml version="1.0" encoding="utf-8"?>
<!-- Generator: Adobe Illustrator 25.2.3, SVG Export Plug-In . SVG Version: 6.00 Build 0)  -->
<svg version="1.1" xmlns="http://www.w3.org/2000/svg" xmlns:xlink="http://www.w3.org/1999/xlink" x="0px" y="0px"
	 viewBox="0 0 600 600" style="enable-background:new 0 0 600 600;" xml:space="preserve">
<style type="text/css">
	.st0{fill:#F68D88;}
	.st1{fill:#ECBDBB;}
	.st2{fill:none;stroke:#ECBDBB;stroke-linecap:round;stroke-linejoin:round;stroke-miterlimit:10;}
	.st3{fill:#9AB3DA;}
	.st4{fill:none;stroke:#6B81BE;stroke-linecap:round;stroke-linejoin:round;stroke-miterlimit:10;}
	.st5{fill:none;stroke:#E9F3FF;stroke-linecap:round;stroke-linejoin:round;stroke-miterlimit:10;}
	.st6{fill:#404B7C;}
	.st7{fill:#6B81BE;}
	.st8{fill:#EEEEEE;}
	.st9{fill:none;stroke:#9AB3DA;stroke-linecap:round;stroke-linejoin:round;stroke-miterlimit:10;}
	.st10{fill:none;stroke:#404B7C;stroke-linecap:round;stroke-linejoin:round;stroke-miterlimit:10;}
	.st11{fill:#FFFFFF;}
	.st12{fill:none;stroke:#DEEBFF;stroke-linecap:round;stroke-linejoin:round;stroke-miterlimit:10;}
	.st13{fill:#E9F3FF;}
</style>
<g id="PLANT">
	<g>
		<g>
			<g>
				<path class="st0" d="M92.0123825,495.4042969c0,0-88.4549942-53.2902832-69.9177551-160.6608582
					C22.0946312,334.7434387,116.5505371,382.3174744,92.0123825,495.4042969z"/>
				<g>
					<path class="st1" d="M53.6503563,390.4110718c-14.9876137-0.7880249-25.9187565-7.444458-33.6810989-15.1522217
						c0.6691761,9.1502686,2.1107693,17.7828064,4.1604118,25.8840027c6.947998,3.8544006,15.4763966,6.3790283,25.8928318,6.301239
						c17.6491013-0.1317749,30.5762634,4.1507874,39.6808472,9.2131958
						c-1.5971298-5.063324-3.4420166-9.8761597-5.4845963-14.4393616
						C76.193222,395.9694519,66.0451965,391.0627441,53.6503563,390.4110718z"/>
					<path class="st1" d="M67.5418701,430.637207c-15.2353134,2.0991211-27.4467201-2.6560974-36.5981712-8.9946289
						c4.0328598,9.7332458,8.8512421,18.5035706,13.9966927,26.305542
						c6.5367584,1.4883728,13.940094,1.7576599,22.2461243,0.1005859
						c10.9852676-2.1915283,20.4267426-2.2687073,28.3999023-1.2084351
						c-0.3669128-4.4789124-0.9354172-8.8090515-1.675354-12.9987183
						C86.1447372,430.8413086,77.2840195,429.2949219,67.5418701,430.637207z"/>
				</g>
			</g>
			<line class="st2" x1="26.6539288" y1="345.931427" x2="89.6110764" y2="487.7455444"/>
		</g>
		<g>
			<path class="st3" d="M86.0253906,497.219574c0,0-20.1105118-59.9983215-75.0950775-58.221283
				C10.9303093,438.998291,14.6932039,490.4532471,86.0253906,497.219574z"/>
			<path class="st4" d="M21.219244,446.7611084c0.4953709,0.1333008,58.6566849,46.7581482,58.6566849,46.7581482"/>
		</g>
		<g>
			<g>
				<path class="st0" d="M469.4521179,503.9212341c0,0,101.1830139-20.6431885,119.6175842-128.0314331
					C589.0697021,375.889801,484.1427307,389.1390991,469.4521179,503.9212341z"/>
				<g>
					<path class="st1" d="M540.7153931,417.8005066c14.3883057,4.2692261,26.9160156,1.6513672,36.80896-3.0169678
						c-3.6904907,8.3997192-7.935791,16.0532227-12.5764771,23.002655
						c-7.8369141,1.3091125-16.7185669,0.8364868-26.5093384-2.7200623
						c-16.5889893-6.0260315-30.204071-6.3128357-40.477356-4.5864258
						c3.1983337-4.2377625,6.5464478-8.1566162,9.9973755-11.7740784
						C517.6115112,415.5006104,528.8161621,414.2698669,540.7153931,417.8005066z"/>
					<path class="st1" d="M514.1719971,451.0655823c13.65625,7.0729675,26.7548218,6.6749573,37.4990234,3.7615967
						c-7.055481,7.8243408-14.5292358,14.4784851-21.9874878,20.1106873
						c-6.6581421-0.7832031-13.7253418-3.0050964-20.999054-7.3442993
						c-9.6200256-5.7388306-18.492157-8.9687805-26.3608704-10.6357727
						c1.8435364-4.0983582,3.8273315-7.9891357,5.9256592-11.690155
						C496.5717773,445.0371704,505.4395142,446.5428162,514.1719971,451.0655823z"/>
				</g>
			</g>
			<line class="st2" x1="581.0316162" y1="384.9090881" x2="474.2762756" y2="497.5063477"/>
		</g>
		<g>
			<g>
				<path class="st3" d="M476.1805115,441.8126526c0,0-6.9509277-47.9677734,31.262146-65.7255554
					C507.4426575,376.0870972,522.6245117,412.5717468,476.1805115,441.8126526z"/>
			</g>
		</g>
	</g>
</g>
<g id="ORNAMENT_8">
	<g>
		<line class="st4" x1="54.8362999" y1="62.0598869" x2="54.8362999" y2="67.3485031"/>
		<line class="st4" x1="54.8362999" y1="72.99366" x2="54.8362999" y2="78.28228"/>
		<line class="st4" x1="62.9474945" y1="70.1710815" x2="57.6588783" y2="70.1710815"/>
		<line class="st4" x1="52.0137253" y1="70.1710815" x2="46.7251053" y2="70.1710815"/>
	</g>
</g>
<g id="ORNAMENT_7">
	<g>
		<line class="st4" x1="172.6504974" y1="117.7358932" x2="172.6504974" y2="122.1624451"/>
		<line class="st4" x1="172.6504974" y1="126.8874207" x2="172.6504974" y2="131.3139648"/>
		<line class="st4" x1="179.4395447" y1="124.5249329" x2="175.0129852" y2="124.5249329"/>
		<line class="st4" x1="170.2880096" y1="124.5249329" x2="165.8614655" y2="124.5249329"/>
	</g>
</g>
<g id="ORNAMENT_6">
	<g>
		<line class="st4" x1="419.3103027" y1="157.1095123" x2="419.3103027" y2="161.5360718"/>
		<line class="st4" x1="419.3103027" y1="166.2610474" x2="419.3103027" y2="170.6875916"/>
		<line class="st4" x1="426.0993347" y1="163.8985596" x2="421.6727905" y2="163.8985596"/>
		<line class="st4" x1="416.9478149" y1="163.8985596" x2="412.5212708" y2="163.8985596"/>
	</g>
</g>
<g id="ORNAMENT_5">
	<g>
		<line class="st4" x1="545.9117432" y1="58.0934258" x2="545.9117432" y2="63.6333046"/>
		<line class="st4" x1="545.9117432" y1="69.5466537" x2="545.9117432" y2="75.0865326"/>
		<line class="st4" x1="554.4083252" y1="66.5899811" x2="548.8684082" y2="66.5899811"/>
		<line class="st4" x1="542.9550781" y1="66.5899811" x2="537.4151611" y2="66.5899811"/>
	</g>
</g>
<g id="ORNAMENT_4">
	<circle class="st4" cx="30.9436989" cy="173.7372131" r="4.3902001"/>
</g>
<g id="ORNAMENT_3">
	<circle class="st4" cx="554.4083252" cy="178.1274109" r="4.3902001"/>
</g>
<g id="MAN_CHAIR">
	<g>
		<g>
			<path class="st3" d="M65.3785934,385.2281799L46.2381668,499.0453186
				c-0.4290085,2.5510864,1.5375061,4.8759155,4.1243896,4.8759155h0.0000076c1.8579063,0,3.4930916-1.2256775,4.0143318-3.0089417
				l33.8135796-115.6841125H65.3785934z"/>
			<line class="st5" x1="57.4395142" y1="490.4343567" x2="88.1904755" y2="385.2281799"/>
			<line class="st5" x1="65.3785934" y1="385.2281799" x2="48.247612" y2="487.0963135"/>
			<path class="st6" d="M106.3537903,385.2281799l-19.140419,113.8171387
				c-0.4290085,2.5510864,1.5374985,4.8759155,4.124382,4.8759155h0.0000076c1.8579102,0,3.4930954-1.2256775,4.0143356-3.0089417
				l33.8135834-115.6841125H106.3537903z"/>
		</g>
		<g>
			<path class="st6" d="M200.1896973,385.2281799l19.1404266,113.8171387
				c0.4290009,2.5510864-1.5375061,4.8759155-4.1243896,4.8759155l0,0c-1.8579102,0-3.493103-1.2256775-4.0143433-3.0089417
				l-33.8135681-115.6841125H200.1896973z"/>
			<path class="st3" d="M159.2144928,385.2281799l19.1404266,113.8171387
				c0.4290161,2.5510864-1.5375061,4.8759155-4.1243896,4.8759155l0,0c-1.8579102,0-3.4930878-1.2256775-4.0143433-3.0089417
				l-33.8135681-115.6841125H159.2144928z"/>
		</g>
		<g>
			<path class="st6" d="M173.9726562,378.0994873H54.9231491V235.3038788h76.8794174
				c5.8355103,0,10.5661316,4.7306061,10.5661316,10.5661163v103.7883911c0,11.6134338,7.7415771,21.8026733,18.93013,24.9152832
				L173.9726562,378.0994873z"/>
			<path class="st7" d="M66.278389,246.5609589c-0.2487793-12.3291321-17.3451614-15.6761322-21.9702225-4.2446594
				c-8.8868752,21.9651031-5.0681877,61.7039642-5.0681877,91.1099091c0,42.7722778,8.5544548,63.6831665,59.8811913,63.6831665
				c0,0,46.0990143,0,65.108902,0s17.1089172-23.7623596,0.9505005-23.7623596s-66.0594025,0-77.9405899,0
				s-19.4851532-9.9801941-19.4851532-34.2178345C67.7548294,322.3031006,66.8386841,274.3279419,66.278389,246.5609589z"/>
			<path class="st6" d="M201.7709656,397.109375h-61.665802c-6.5617828,0-11.8811798-5.3193665-11.8811798-11.8811646v-0.0000305
				c0-6.5617981,5.319397-11.8811646,11.8811798-11.8811646h61.665802c6.5617828,0,11.8811798,5.3193665,11.8811798,11.8811646
				v0.0000305C213.6521454,391.7900085,208.3327484,397.109375,201.7709656,397.109375z"/>
		</g>
	</g>
</g>
<g id="MAN_NECK">
	<g>
		<path class="st1" d="M128.9772797,164.9889221c0.2180786,0.8091431-9.8840942,1.1866455-9.8840942,1.1866455
			l-3.5110016-12.6591034l11.7791519,0.4821167c0,0,0.6961746,5.0439606,1.1858749,8.3114777
			C128.7510071,163.6955414,128.9124451,164.7536316,128.9772797,164.9889221z"/>
		<path class="st6" d="M128.5472107,162.3100586c-8.4400177-2.0389709-12.9650269-8.7935944-12.9650269-8.7935944
			l11.7791519,0.4821167C127.3613358,153.9985809,128.0575104,159.0425415,128.5472107,162.3100586z"/>
	</g>
</g>
<g id="MAN_LEFT_LEG">
	<g>
		<g>
			<g>
				<path class="st1" d="M209.5298767,468.0761719c0,0,11.6671143,1.5002136,11.6700592,1.1497192
					c0.002121-0.2522888,2.1428528-9.7266846,3.2932892-14.8069153c0.422348-1.8752441,0.713501-3.1487732,0.713501-3.1487732
					l-14.2328339-1.5217896l-0.7692566,9.7803345L209.5298767,468.0761719z"/>
				<path class="st6" d="M210.9738922,449.7484131l-0.7692566,9.7803345
					c7.3414001-0.9898682,11.9755707-3.5026855,14.2885895-5.1097717c0.422348-1.8752441,0.713501-3.1487732,0.713501-3.1487732
					L210.9738922,449.7484131z"/>
			</g>
			<g>
				<path class="st6" d="M224.9850616,463.1638184c0,0,16.845932,15.0089111,19.2037811,15.1639099
					c2.3578339,0.1550293,13.1380005,1.4832458,13.1380005,1.4832458l5.6197205,16.7662048
					c0,0-40.2282257,4.059845-61.43927,1.3742981c-0.7191315-11.4300537,1.0842438-24.9464722,5.9347992-34.2618713
					C212.8105621,465.0597839,218.631897,464.9691162,224.9850616,463.1638184z"/>
				<g>
					<path class="st3" d="M239.1969452,484.5502625c0.2223969-0.0185547,0.4288788-0.1521912,0.5310516-0.3682251
						c0.151474-0.3226013,0.0131226-0.7070923-0.3096161-0.8598328
						c-14.0829468-6.6213989-21.6436615-17.0804443-21.7181244-17.1842957
						c-0.2066193-0.2927551-0.6106873-0.3589783-0.8995667-0.1514282c-0.2914886,0.2065125-0.3590851,0.609436-0.151413,0.8995667
						c0.0761261,0.1087952,7.834137,10.8398132,22.2188721,17.6056213
						C238.9747467,484.5409546,239.0876312,484.5593872,239.1969452,484.5502625z"/>
				</g>
				<path class="st0" d="M247.7303314,477.2115173c-8.3537598,5.2695923-10.3609009,19.1547852-10.3609009,19.1547852
					c-15.010376,1.3696289-37.2788696,0.0619507-37.2788696,0.0619507l0.3320923,7.492981h67.8453827
					C271.2425232,474.9220276,247.7303314,477.2115173,247.7303314,477.2115173z"/>
				
					<ellipse transform="matrix(0.9965374 -0.0831454 0.0831454 0.9965374 -39.3830338 19.3661594)" class="st8" cx="212.8243256" cy="482.5274353" rx="6.8351135" ry="8.2371883"/>
			</g>
		</g>
		<g>
			<path class="st6" d="M245.9567719,355.1156921l-1.8599854,11.3599854l-12.1199951,74l-24.710022,4.2799683l0.960022-70.8099976
				h-59.5100098c-16.4400024,0-29.7299881-13.3999634-29.609993-29.8399658l0.25-31.9500122l51.5812759,7.6099854
				l57.8787537,17.8699951l8.1599731,2.6900024C243.2067719,342.3756409,247.0068207,348.6456604,245.9567719,355.1156921z"/>
			<g>
				<path class="st4" d="M140.7414093,319.7627869l2.1386108,35.8811951h60.1410675
					c6.1057129,0,10.9465942,5.1493225,10.569931,11.2434082l-3.9462585,63.8457031"/>
				<path class="st4" d="M141.8704834,338.7061768l2.0274506-1.0484924
					c3.8265381-1.9788818,6.2296143-5.9270325,6.2296143-10.2349548v-7.6599426"/>
			</g>
			<polygon class="st7" points="202.4715729,431.0841064 237.955719,435.013031 232.610672,457.2362671 200.9792175,452.8749695 			
				"/>
			<path class="st7" d="M245.9567719,355.1156921l-1.8599854,11.3599854
				c-0.0599976,0.0299683-0.1199951,0.0499878-0.1799927,0.0700073c-6.039978,2.0199585-13.3499756-3.5599976-16.3300171-12.4500122
				c-2.1199951-6.3200073-1.4799805-12.6199951,1.2300415-16.460022l8.1599731,2.6900024
				C243.2067719,342.3756409,247.0068207,348.6456604,245.9567719,355.1156921z"/>
		</g>
	</g>
</g>
<g id="MAN_RIGHT_LEG">
	<g>
		<g>
			<g>
				<path class="st1" d="M208.1367645,468.2636719c0,0,11.4416351-2.7315369,11.3201752-3.0603333
					c-0.0874023-0.2366638-1.4429626-9.8548584-2.1674194-15.013092c-0.269577-1.9031982-0.4486084-3.1972656-0.4486084-3.1972656
					l-13.8484955,3.6205444l2.7464447,9.4182739L208.1367645,468.2636719z"/>
				<path class="st6" d="M202.9924164,450.6135254l2.7464447,9.4182739
					c6.5142365-3.5271606,9.9572296-7.519104,11.5506592-9.8415527c-0.269577-1.9031982-0.4486084-3.1972656-0.4486084-3.1972656
					L202.9924164,450.6135254z"/>
			</g>
			<g>
				<path class="st6" d="M221.629776,463.1638184c0,0,16.845932,15.0089111,19.2037811,15.1639099
					c2.3578491,0.1550293,13.1380005,1.4832458,13.1380005,1.4832458l5.6197205,16.7662048
					c0,0-40.2282257,4.059845-61.4392548,1.3742981c-0.7191467-11.4300537,1.0842285-24.9464722,5.9347839-34.2618713
					C209.4552917,465.0597839,215.2766266,464.9691162,221.629776,463.1638184z"/>
				<g>
					<path class="st3" d="M235.8416595,484.5502625c0.2224121-0.0185547,0.4288788-0.1521912,0.5310516-0.3682251
						c0.1514893-0.3226013,0.0131226-0.7070923-0.3096008-0.8598328
						c-14.082962-6.6213989-21.6436768-17.0804443-21.7181244-17.1842957
						c-0.2066193-0.2927551-0.6107025-0.3589783-0.8995667-0.1514282c-0.2914886,0.2065125-0.3591003,0.609436-0.1514282,0.8995667
						c0.0761261,0.1087952,7.834137,10.8398132,22.2188873,17.6056213
						C235.6194763,484.5409546,235.7323456,484.5593872,235.8416595,484.5502625z"/>
				</g>
				<path class="st0" d="M244.3750458,477.2115173c-8.3537598,5.2695923-10.3609009,19.1547852-10.3609009,19.1547852
					c-15.010376,1.3696289-37.2788696,0.0619507-37.2788696,0.0619507l0.3320923,7.492981h67.8454132
					C267.8872681,474.9220276,244.3750458,477.2115173,244.3750458,477.2115173z"/>
				
					<ellipse transform="matrix(0.9965374 -0.0831454 0.0831454 0.9965374 -39.3946533 19.087183)" class="st8" cx="209.4690399" cy="482.5274353" rx="6.8351135" ry="8.2371883"/>
			</g>
		</g>
		<g>
			<path class="st7" d="M76.309288,312.158844l-0.2457504,31.9470215
				c-0.1264572,16.4402466,13.165802,29.835144,29.6065369,29.835144h59.510498l29.9405975,70.8118896l24.7128754-4.2772217
				l-12.2773438-78.5943604c-1.7258606-11.0482178-9.4951324-20.1986084-20.1172028-23.6933899l-56.0014954-18.4251404
				L76.309288,312.158844z"/>
			<path class="st9" d="M97.6954269,319.7627869l2.1386108,35.8811951H160.07164
				c6.6889191,0,12.6469269,4.228363,14.8548279,10.5423584l22.5709381,64.5467529"/>
			<path class="st9" d="M98.824501,338.7061768l2.0274506-1.0484924c3.8265381-1.9788818,6.2296143-5.9270325,6.2296143-10.2349548
				v-7.6599426"/>
			<polygon class="st3" points="187.873642,437.2677307 221.8538361,429.1885376 226.3686981,451.2875366 195.7152252,457.7033997 
							"/>
			
				<ellipse transform="matrix(0.8740927 -0.4857592 0.4857592 0.8740927 -150.6075745 137.5998383)" class="st3" cx="190.131073" cy="359.3271484" rx="11.5247526" ry="16.990099"/>
		</g>
	</g>
</g>
<g id="MAN_LEFT_ARM">
	<g>
		<g>
			<path class="st0" d="M160.9033508,184.3173065c-16.633667,2.2136993,12.3531647,84.2178192,13.7805481,94.5643768
				c1.4273682,10.3465271,8.4271851,15.098999,23.6995544,15.098999s24.3613892-21.8613892,4.608963-34.4554443
				c0,0-12.2424011-42.1119385-22.0791931-57.1651611C168.0747375,182.7133484,160.9033508,184.3173065,160.9033508,184.3173065z"/>
			<path class="st2" d="M180.6473236,274.3173218c0,0,1.4852142-15.5049438,18.9674835-14.7920837"/>
		</g>
		<g>
			<path class="st1" d="M191.8162994,293.6289062c-4.1802826,0-2.3089905-10.8462524,0.3642731-16.9056396
				c2.6732635-6.0594177,7.3960419-2.4059448,7.3960419-2.4059448s4.0990143-2.5841675,6.5049438-1.6039734
				c2.4059448,0.9801941,3.2970428,2.7623901,3.2970428,2.7623901s2.2081146-1.539093,4.7129669-0.7250061
				c2.5048523,0.8141174,2.9503937,4.1173401,2.9503937,4.1173401s2.9405975-0.9863892,4.2772217,0.4393311
				c1.3366394,1.4257507,0.8019867,12.2469788-3.5643463,14.3215027
				C213.3884888,295.7034607,191.8162994,293.6289062,191.8162994,293.6289062z"/>
			<g>
				<line class="st10" x1="199.4875031" y1="277.1094055" x2="196.1013641" y2="291.158905"/>
				<line class="st10" x1="208.6657257" y1="278.5054321" x2="205.3351288" y2="291.158905"/>
				<line class="st10" x1="216.3290863" y1="280.7331543" x2="213.6116028" y2="290.5351257"/>
			</g>
		</g>
	</g>
</g>
<g id="MAN_BODY">
	<g>
		<path class="st7" d="M108.0299683,167.699585l3.5254288,13.2902527l27.1148148-0.7908325l1.39711-13.5639343
			C140.0673218,166.6350708,125.9552765,158.2966156,108.0299683,167.699585z"/>
		<g>
			<path class="st0" d="M133.4318695,173.9659729c-22.7715912-0.5249939-37.09095,6.3714752-44.5778046,11.5563354
				c-4.0666504,2.8162689-6.8266678,7.1386261-7.7697525,11.9945221
				c-3.5625076,18.3432159-12.9419708,72.7895966-10.4981918,126.5601044c0,0,64.7498474,20.0725098,115.6348114-0.3355103
				c0,0,1.9002838-66.3982849-10.8166656-122.8087921c-1.9966583-8.856842-8.0480804-16.2297516-16.3081512-19.9982758
				C151.6811523,177.5514069,142.1605988,174.1672211,133.4318695,173.9659729z"/>
			<path class="st2" d="M186.220932,323.7414246c0,0,1.9002838-66.3982849-10.8166656-122.8087921"/>
			<path class="st2" d="M124.2637405,174.1634674c0,0,6.5122452,9.4048767,8.9484482,26.0842133
				c0.1937103,1.3261871,1.4158783,2.2558136,2.7463531,2.0941315l2.8752441-0.349411
				c1.3852386-0.168335,2.3622894-1.4445038,2.1530457-2.8241577c-0.7353668-4.848877-2.8101349-15.8241882-7.5549622-25.2022705"/>
			<path class="st2" d="M75.7790756,317.1621399c0,0,60.9715805,15.6414795,105.1341476,0.818573"/>
		</g>
	</g>
</g>
<g id="MAN_RIGHT_ARM">
	<g>
		<g>
			
				<rect x="160.0721588" y="172.1559448" transform="matrix(0.9861278 -0.1659878 0.1659878 0.9861278 -26.5255318 32.1522331)" class="st7" width="38.0478172" height="5.2316728"/>
			<polygon class="st6" points="197.421875,169.0345001 204.4904785,170.4973297 198.2902679,174.1936035 			"/>
		</g>
		<g>
			<path class="st1" d="M166.1664581,213.8911896l8.1079712-12.8536835c0,0-5.2913208-25.4501343-4.4314117-26.9945374
				s18.6709595-5.7350769,21.4660339-5.5106049c2.7950592,0.2244873,3.9944,2.8359222,2.8167877,4.544342
				c0,0,3.4936371,2.0280457,2.1725006,5.0835114c0,0,3.2148895,2.4803772,0.8838959,6.1618042
				c0,0,2.9987335,3.0337219-1.1700439,6.4564362c-4.1687622,3.4227142-7.5012817,5.4883728-7.5012817,5.4883728
				s1.3379517,9.3749847,0.6894836,11.0350037s-5.3522339,3.3175659-5.3522339,3.3175659l-5.0725403,12.7893829
				L166.1664581,213.8911896z"/>
			<line class="st10" x1="177.2262573" y1="175.1687927" x2="190.9627533" y2="173.0301819"/>
			<line class="st10" x1="180.3884888" y1="180.9898376" x2="194.0518646" y2="178.4955292"/>
			<line class="st10" x1="184.0945129" y1="187.3470154" x2="195.0023499" y2="184.3173065"/>
		</g>
		<path class="st7" d="M167.9603577,206.5883636l-8.9945221,11.590332c0,0-1.3641357,13.5132446,15.7180634,15.0891113
			l9.2046356-12.4339447C183.8885345,220.8338623,182.7605743,208.3029175,167.9603577,206.5883636z"/>
		<path class="st0" d="M87.2752228,186.7138977c-29.1427193,21.722229,32.2253036,76.4829712,49.2715302,87.5033264
			c17.0462189,11.0203247,40.0000305-27.1228943,39.8983765-38.7054596
			c-0.1016388-11.5825806-12.0746155-21.0420074-18.9039154-18.7004089
			c-6.8293152,2.3415985-14.7323914,14.1348724-14.7323914,14.1348724s-16.9325409-25.6545105-29.9904556-38.44664
			C99.7604599,179.7074432,87.2752228,186.7138977,87.2752228,186.7138977z"/>
		<path class="st2" d="M81.097908,210.965332c7.8490448,24.6408539,43.1621933,55.3085938,55.4488449,63.2518921
			c17.0462189,11.0203247,40.0000305-27.1228943,39.8983765-38.7054596
			c-0.1016388-11.5825806-12.0746155-21.0420074-18.9039154-18.7004089
			c-6.8293152,2.3415985-14.7323914,14.1348724-14.7323914,14.1348724s-16.9325409-25.6545105-29.9904556-38.44664
			c-7.8101273-7.6511688-15.4153824-8.2195587-20.2668381-7.4406738"/>
		<path class="st2" d="M142.8088226,230.946228c0,0-5.5314026,9.9434052-4.9450836,20.7072144"/>
	</g>
</g>
<g id="MAN_HEAD">
	<g>
		<path class="st6" d="M111.7206421,146.7661285c0,0-12.9266891,2.1245728-18.2165451-8.5953979
			c-5.2898483-10.7199707,13.1832886-22.0994492,13.1832886-22.0994492s4.3055344-13.0124054,6.3519135-16.2509308
			s5.6241913,8.3367767,5.6241913,8.3367767s4.9486084-10.0050049,11.2584763-14.7087708
			c2.9897156-2.228714,4.3680573,10.9610825,2.9392853,18.0929642c0,0,9.8603363-7.2520676,14.7228851-5.3587875
			c4.8625641,1.89328-2.1208191,16.3532333-7.5606537,21.6272278c0,0,2.8955688,3.9292068,2.9171143,5.1801224
			c0.0215454,1.2509003-11.4877472,4.3020477-11.4877472,4.3020477L111.7206421,146.7661285z"/>
		<path class="st1" d="M109.189682,138.6811371c0,0,3.6387482,14.6581421,5.8113327,16.241333
			c2.1725845,1.5832062,15.6497116,4.3824768,19.5005569,2.773056c3.8508301-1.609436,2.8789368-21.2350616-1.9975128-31.932991
			S104.3703003,120.9154587,109.189682,138.6811371z"/>
		<path class="st6" d="M109.0585938,140.0487976c0,0,0.017189-2.2713776,2.2827835-4.769165
			s2.2303925-5.6316376,2.2303925-5.6316376s14.2070007,6.1684875,25.8658371-1.2772217
			c0,0-5.9162598-11.9232788-21.7343903-9.4923935S105.8572159,135.0737762,109.0585938,140.0487976z"/>
		<g>
			<path class="st1" d="M111.2962723,142.4690247c0,0-4.9741211-9.8244934-11.032486-5.5909119
				c-6.0583725,4.2335663,5.0110626,17.7819977,13.0139618,13.1145325L111.2962723,142.4690247z"/>
			<path class="st10" d="M102.0898438,139.7371216c0,0,4.5883255,1.5914307,8.4279709,7.6628418"/>
			<path class="st10" d="M104.8384781,146.7595215c0,0,0.085556-2.4059296,1.6051788-4.2079315"/>
		</g>
		<g>
			<path class="st10" d="M125.9703674,140.1348267c0,0,1.6643906,4.0067139,3.3327026,6.0613708
				c0,0-0.2869873,1.8630981-3.4538498,2.1616364"/>
			<path class="st11" d="M130.5220947,151.8819275c-3.4444962,4.3957825-8.460144,0.2770996-8.460144,0.2770996
				L130.5220947,151.8819275z"/>
			
				<ellipse transform="matrix(0.9825665 -0.1859117 0.1859117 0.9825665 -24.342741 24.9569435)" class="st6" cx="120.8993378" cy="142.2742462" rx="1.602307" ry="2.1957541"/>
			
				<ellipse transform="matrix(0.9825665 -0.1859117 0.1859117 0.9825665 -24.1953239 25.02668)" class="st11" cx="121.3448792" cy="141.5230865" rx="0.5525638" ry="0.7572171"/>
			<path class="st6" d="M116.2186584,137.965683c0,0,3.1802521-1.3869019,6.4724274-1.2246399
				c0,0,0.1433792-1.4766846-0.7580795-2.0912781C121.0315475,134.0351562,116.7103043,135.4567566,116.2186584,137.965683z"/>
			
				<ellipse transform="matrix(0.9825665 -0.1859117 0.1859117 0.9825665 -23.8547287 26.7565804)" class="st6" cx="130.7390289" cy="140.5719757" rx="1.602307" ry="2.1957541"/>
			
				<ellipse transform="matrix(0.9825665 -0.1859117 0.1859117 0.9825665 -23.6797695 26.816206)" class="st11" cx="131.1444397" cy="139.6689148" rx="0.5190083" ry="0.7112336"/>
			<path class="st6" d="M133.8671875,134.6264038c0,0-3.4671021-0.1291656-6.4724197,1.2246552
				c0,0-0.6729584-1.3222198-0.0583572-2.2236786S132.4929047,132.47052,133.8671875,134.6264038z"/>
		</g>
	</g>
</g>
<g id="WOMAN_RIGHT_ARM">
	<g>
		<path class="st1" d="M395.1400757,235.354248l-5.9258118-9.4930573c0,0,6.2970276-13.1881256,6.2970276-14.6138611
			c0-1.4257507,1.4257507-16.9808502,1.4257507-20.7280579c0-3.7471924-4.7524719-0.7769012-6.0594177,5.5201263
			c-1.3069153,6.2970276-2.3776855,8.6732788-2.3776855,8.6732788l-4.7510071-14.7326813l-13.0832214,28.7644348
			l14.746582,23.397995L395.1400757,235.354248z"/>
		<g>
			
				<rect x="367.8210449" y="187.3438568" transform="matrix(0.2136589 -0.9769083 0.9769083 0.2136589 120.1124115 529.7706299)" class="st7" width="42.6291008" height="5.8616114"/>
			<polygon class="st6" points="390.8265076,168.8261108 395.3001709,162.088562 396.5527649,170.0784912 			"/>
		</g>
		<g>
			<path class="st1" d="M378.9810181,188.0990753c-0.4729309,2.6638947-0.460907,4.7130127-0.460907,4.7130127
				s-4.164032-0.8016052-4.2260742,7.3886414c0,0-3.5367126-0.3722839-2.730072,6.949295
				c0,0-2.6680603,0.3102264-2.7685242,4.9637756c-0.1266479,5.8665314,3.5751343,11.6648865,6.1811218,10.9203186
				s1.8196106-5.9020538,1.8196106-5.9020538s4.2598267,2.8844147,4.2598267-5.3678741c0,0,3.1035461-0.0847168,1.8626099-7.7785797
				c0,0,3.6711121,1.6515045,3.2461853-4.9121399c-0.2151184-3.3228912-1.0444031-7.4943848-1.8108826-10.8036194
				C383.6722107,185.3266907,379.5090942,185.1245117,378.9810181,188.0990753z"/>
			<path class="st10" d="M378.5849915,193.9127502c0,0,1.1104431,5.1683044,3.130249,8.7920685"/>
			<path class="st10" d="M374.7053223,201.3978882c0,0,2.2940063,6.2376251,3.8796692,8.7920837"/>
			<path class="st10" d="M372.1508789,208.2889862c0,0,2.4356384,5.2871246,4.098999,8.0198059"/>
		</g>
		<g>
			<path class="st0" d="M463.9880676,244.360199c-12.1027527,16.0516663-35.8635864,42.9139709-47.6690674,40.1794739
				c-8.6767578-2.0063782-24.9623718-26.102356-32.9941711-38.7502136
				c-2.9128113-4.5773163-4.7398376-7.6609497-4.7398376-7.6609497
				c3.8118896-5.9029236,13.5766602-10.0927124,13.5766602-10.0927124l7.2404785,5.1098938l20.2227478,14.2855988
				c10.0309448-17.5185394,30.0889587-46.0453491,38.2710266-49.9352264
				C457.8959045,197.4960632,476.1006165,228.3104248,463.9880676,244.360199z"/>
			<path class="st2" d="M419.3103027,249.5187073c0,0,0.1320801,16.4839172,0,22.9727173"/>
			<path class="st3" d="M399.4021301,233.1456909l-16.077301,12.6437683
				c-2.9128113-4.5773163-4.7398376-7.6609497-4.7398376-7.6609497
				c3.8118896-5.9029236,13.5766602-10.0927124,13.5766602-10.0927124L399.4021301,233.1456909z"/>
		</g>
	</g>
</g>
<g id="WOMAN_HAIR">
	<path class="st6" d="M465.5562744,131.0380249c0,0,0.0853271-0.1665039,0.266571-0.4548645
		c1.2802124-2.0367126,7.34552-10.1521149,21.9249878-8.6111984c16.6436462,1.7590866,23.1387634,22.0562515,17.9967957,30.4457321
		c-5.1419373,8.3894958,4.4653931,12.178299,14.4786377,16.3730469c10.0133057,4.1947479,17.9968262,17.861496,8.5248413,30.1751099
		c-9.4720459,12.3136139-57.7792664,15.1552124-60.89151,0.5412598
		c-3.1122131-14.6139526,6.7657166-26.3863068,5.5479126-38.1586609L465.5562744,131.0380249z"/>
</g>
<g id="WOMAN_NECK">
	<g>
		<polygon class="st1" points="475.2832031,163.3835907 476.8312073,171.3076019 478.4008484,179.3398438 486.7903442,178.2573395 
			485.3397522,162.9072723 484.8959351,158.2308044 		"/>
		<path class="st6" d="M475.2832031,163.3835907l1.5480042,7.9240112c5.0120544-0.6495514,7.3827515-4.763092,8.5085449-8.4003296
			l-0.4438171-4.6764679L475.2832031,163.3835907z"/>
	</g>
</g>
<g id="WOMAN_CHAIR">
	<g>
		<g>
			<path class="st3" d="M543.1745605,385.2281799l19.1404419,113.8171387
				c0.4290161,2.5510864-1.5375366,4.8759155-4.1243896,4.8759155l0,0c-1.8579102,0-3.493103-1.2256775-4.0143433-3.0089417
				l-33.8135986-115.6841125H543.1745605z"/>
			<line class="st5" x1="551.1136475" y1="490.4343567" x2="520.3626709" y2="385.2281799"/>
			<line class="st5" x1="543.1745605" y1="385.2281799" x2="560.305542" y2="487.0963135"/>
			<path class="st6" d="M502.1993408,385.2281799l19.1404419,113.8171387
				c0.4290161,2.5510864-1.5374756,4.8759155-4.1243896,4.8759155l0,0c-1.8579102,0-3.493103-1.2256775-4.0143433-3.0089417
				l-33.8135681-115.6841125H502.1993408z"/>
		</g>
		<g>
			<path class="st6" d="M408.3634644,385.2281799l-19.1404419,113.8171387
				c-0.4290161,2.5510864,1.5375061,4.8759155,4.1243896,4.8759155l0,0c1.8579102,0,3.493103-1.2256775,4.0143433-3.0089417
				l33.8135681-115.6841125H408.3634644z"/>
			<path class="st3" d="M449.3386536,385.2281799l-19.1404419,113.8171387
				c-0.4289856,2.5510864,1.5375061,4.8759155,4.1243896,4.8759155h0.0000305c1.8579102,0,3.4930725-1.2256775,4.0143127-3.0089417
				l33.8135986-115.6841125H449.3386536z"/>
		</g>
		<g>
			<path class="st6" d="M434.5805054,378.0994873h119.0494995V235.3038788h-76.879425
				c-5.8355103,0-10.5661316,4.7306061-10.5661316,10.5661163v103.7883911c0,11.6134338-7.7415771,21.8026733-18.9301147,24.9152832
				L434.5805054,378.0994873z"/>
			<path class="st7" d="M542.2747803,246.5609589c0.2487793-12.3291321,17.3451538-15.6761322,21.9702148-4.2446594
				c8.8868408,21.9651031,5.0681763,61.7039642,5.0681763,91.1099091c0,42.7722778-8.5544434,63.6831665-59.8811951,63.6831665
				c0,0-46.098999,0-65.1089172,0c-19.0098877,0-17.1088867-23.7623596-0.95047-23.7623596s66.0593872,0,77.9405823,0
				c11.8811646,0,19.4851685-9.9801941,19.4851685-34.2178345
				C540.7983398,322.3031006,541.7144775,274.3279419,542.2747803,246.5609589z"/>
			<path class="st6" d="M406.782196,397.109375h61.6657715c6.5617981,0,11.8811951-5.3193665,11.8811951-11.8811646v-0.0000305
				c0-6.5617981-5.319397-11.8811646-11.8811951-11.8811646H406.782196c-6.5617981,0-11.8811951,5.3193665-11.8811951,11.8811646
				v0.0000305C394.901001,391.7900085,400.2203979,397.109375,406.782196,397.109375z"/>
		</g>
	</g>
</g>
<g id="WOMAN_RIGHT_LEG">
	<g>
		<path class="st6" d="M404.0389404,447.4856262H382.560791c0,0,0,24.2376404-19.9836731,37.3069458
			c-12.7931213,8.3666687-8.8620605,19.1286621-8.8620605,19.1286621h30.7467346l13.2133484-14.732605l0.5688171,14.732605h9.522644
			C408.645813,480.990509,404.0389404,447.4856262,404.0389404,447.4856262z"/>
		<g>
			<g>
				<g>
					<path class="st7" d="M447.2210388,370.6623535c-4.0999756,1.6300049-9.8773499,2.4812012-15.5,2.8200073l-21.9122009,0.0599976
						l13.9395447,90.3193054h-56.0202332c0,0-4.9221802-95.0093079-6.722168-108.7293396
						c-1.8099976-13.6999512,7.3999634-22.1900024,23.9899902-23.8099976
						c6.5700073-0.6399536,25.4250793-1.4599609,35.3450623-2.2099609l15.7553101-27.6324768l41.7247314,13.54245
						C477.8210754,315.0223389,479.6410828,360.7523193,447.2210388,370.6623535z"/>
				</g>
			</g>
			<g>
				<path class="st9" d="M421.5051575,329.5788879c0,0,14.7458496,1.4257507,20.7392578,6.0594177"/>
				<polyline class="st9" points="464.7977905,347.1036072 394.8700562,352.2125549 408.9001465,452.918396 				"/>
				<line class="st9" x1="374.0671692" y1="455.0301819" x2="418.7713623" y2="455.0301819"/>
			</g>
			<path class="st9" d="M467.927948,312.2960205l-5.104187,17.5412903
				c-0.7460022,2.5637512-0.0899963,5.3309021,1.7275391,7.2868958l1.8721008,2.0147705"/>
		</g>
	</g>
</g>
<g id="WOMAN_LEFT_LEG">
	<g>
		<path class="st6" d="M473.6895142,447.4856262h-20.4356689c0,0-0.9505005,29.2277222-10.6930542,37.3069458
			s-6.6534424,19.1286621-6.6534424,19.1286621h26.940979l3.9500732-14.732605l0.427063,14.732605h9.2626953
			C477.1482544,480.990509,473.6895142,447.4856262,473.6895142,447.4856262z"/>
		<g>
			<g>
				<path class="st3" d="M496.3865051,370.6623535c-4.0999756,1.6300049-9.8773499,2.4812012-15.5,2.8200073l-13.2770996,0.0599976
					l13.9395447,90.3193054H425.528717c0,0-4.9221802-95.0093079-6.722168-108.7293396
					c-1.8099976-13.6999512,7.3999634-22.1900024,23.9899902-23.8099976
					c6.5700073-0.6399536,16.789978-1.4599609,26.7099609-2.2099609l4.7300415-14.0900269h52.7500305
					C526.9865723,315.0223389,528.8065796,360.7523193,496.3865051,370.6623535z"/>
			</g>
		</g>
		<g>
			<path class="st12" d="M497.8140564,313.1828613c0,0-5.2167358,16.0396118,6.723877,20.1386108"/>
			<path class="st12" d="M470.6706238,329.5788879c0,0,14.7458496,1.4257507,20.7392578,6.0594177"/>
			<polyline class="st12" points="508.4527893,313.1828613 501.8587341,347.1036072 452.6706238,352.2125549 
				466.7007141,452.918396 			"/>
			<line class="st12" x1="431.8677368" y1="455.0301819" x2="476.5719299" y2="455.0301819"/>
		</g>
	</g>
</g>
<g id="WOMAN_BODY">
	<g>
		<path class="st0" d="M505.1927185,178.1274414c0,0-19.48526-8.2541809-39.6470947,1.623764l3.7887878,11.6370392
			l33.1520386-1.2178345L505.1927185,178.1274414z"/>
		<g>
			<path class="st0" d="M529.0057983,317.0597229c-0.06427-37.6801147-1.621521-112.9519501-1.621521-112.9519501
				s-17.5908813-18.1321411-40.8649292-17.5908813c-23.2741089,0.5412598-36.805542,19.2146606-36.805542,19.2146606
				s-11.9076538,18.6734009-11.6370239,27.8747559c0.2706299,9.201416,6.7657471,34.6404877,6.7657471,34.6404877
				s-2.7062988,11.366394-7.8482666,21.9209595c-1.5866089,3.2567749-5.2374268,7.3644409-9.6508179,11.6141968h0.000061
				C427.3435059,301.7819519,471.3202515,325.4391174,529.0057983,317.0597229z"/>
			<path class="st2" d="M500.2657166,188.2904968c-4.2610168-1.1833801-8.879425-1.8867493-13.7463684-1.7735748
				c-5.2245789,0.1215057-9.9581909,1.1567078-14.1579895,2.68927"/>
			<path class="st2" d="M449.7138367,205.7315674c0,0-11.9076843,18.6733856-11.6370544,27.8747711
				c0.2157593,7.3361053,4.3881836,24.9938812,6.0709534,31.8514862"/>
		</g>
	</g>
</g>
<g id="WOMAN_LEFT_ARM">
	<g>
		<g>
			<g>
				<path class="st0" d="M559.3220215,277.1816406c-0.5774536,7.2524719-5.7111816,10.8318481-13.9457397,11.2949829
					c-4.9262695,0.2770691-9.843689-0.7247925-14.3753662-2.6766052c-4.9816284-2.1455994-9.5688477-4.3483582-9.5688477-4.3483582
					l7.3171997-17.0816345l-8.9472046-12.8184052c0,0-6.4299927-11.3099976-11.1799622-19.1099854
					c-7.5800171-12.4500122,8.6599426-38.6199951,18.7599182-28.3300171
					C544.1920166,221.2216644,560.2120361,265.8116455,559.3220215,277.1816406z"/>
			</g>
			<g>
				<path class="st2" d="M526.9556885,284.0133362c-3.1681519-1.430603-5.5236206-2.561676-5.5236206-2.561676l7.3171997-17.0816345
					l-8.9472046-12.8184052c0,0-6.4299927-11.3099976-11.1799622-19.1099854
					c-5.5429077-9.1040649,1.6513977-25.5445404,9.8679504-29.7001953"/>
			</g>
			<g>
				<path class="st2" d="M536.3416138,260.760498c0,0,5.0973511,1.9015198,11.0072021,5.1342468"/>
			</g>
			<path class="st3" d="M513.6141357,276.0870361c0,0,3.0635986,2.2624207,7.8158569,5.3692322
				c11.6370239-5.9213257,12.0700684-17.4067993,11.7669067-21.8017883l-7.50177-2.1542664
				C513.072876,262.371521,513.6141357,276.0870361,513.6141357,276.0870361z"/>
		</g>
		<g>
			<path class="st3" d="M499.3503723,283.12854h-39.4077759c-2.0957947,0-3.7947388-1.6989746-3.7947388-3.7947693v-61.197937
				c0-2.0957947,1.6989441-3.794754,3.7947388-3.794754h39.4077759c2.0957947,0,3.7947693,1.6989594,3.7947693,3.794754v61.197937
				C503.1451416,281.4295654,501.446167,283.12854,499.3503723,283.12854z"/>
			<path class="st11" d="M488.8659058,222.2563782h-18.4388123c-0.9451294,0-1.7113037-0.7661743-1.7113037-1.7112885v-4.4927216
				c0-0.9451294,0.7661743-1.7112885,1.7113037-1.7112885h18.4388123c0.9450989,0,1.7112732,0.7661591,1.7112732,1.7112885
				v4.4927216C490.577179,221.4902039,489.8110046,222.2563782,488.8659058,222.2563782z"/>
			<g>
				<circle class="st6" cx="473.4088745" cy="218.2987213" r="1.1584158"/>
				<circle class="st6" cx="485.8841248" cy="218.2987213" r="1.1584158"/>
			</g>
		</g>
		<g>
			<path class="st1" d="M523.4335327,259.522583l-6.7462158-1.8646545c0,0-1.1709595-16.9546051-2.4075317-18.2177429
				c-1.2365723-1.2631226-19.5223694-0.6108704-22.1594238,0.3424072s-3.1056213,3.7884979-1.5193481,5.1260986
				c0,0-2.8355408,2.8771973-0.7557373,5.4763641c0,0-2.4474182,3.2400665,0.7715149,6.1768951
				c0,0-2.0930481,3.7168579,2.8304749,5.9197083s8.6826782,3.3170471,8.6826782,3.3170471s2.1075134,7.1841431,3.1705933,8.6145325
				c1.0630798,1.4303589,8.5128174-2.5038147,8.5128174-2.5038147l3.8959961,1.9685059
				C520.828125,271.8960266,526.9578857,265.1405029,523.4335327,259.522583z"/>
			<line class="st10" x1="506.7242737" y1="243.2511902" x2="493.6399841" y2="244.0300751"/>
			<line class="st10" x1="505.938324" y1="248.9210205" x2="492.1006775" y2="250.1163788"/>
			<line class="st10" x1="504.039032" y1="256.0302429" x2="492.7183533" y2="255.9828186"/>
		</g>
	</g>
</g>
<g id="WOMAN_HEAD">
	<g>
		<path class="st1" d="M479.6620178,133.9603424c9.3232727,5.0729675,14.2452087,33.6578217-2.3742065,35.0544128
			C460.6683655,170.4113464,460.6683655,123.6255722,479.6620178,133.9603424z"/>
		<path class="st6" d="M490.2760925,157.0040741c0,0-3.2121582-8.1002197-7.2622681-13.1279449
			c0,0-9.915802,6.2846527-18.4349976,3.2121582s-13.2676086-19.4126053-6.0053406-22.6247635
			s11.1727295,4.0501175,11.1727295,4.0501175S501.0298462,119.4357986,490.2760925,157.0040741z"/>
		<g>
			<path class="st1" d="M486.7846069,154.4902191c0,0,2.6535339-10.4744263,11.0330811-8.3795471
				c8.3795471,2.0948944,0.6982727,18.0160217-11.3123779,12.7089844L486.7846069,154.4902191z"/>
			<g>
				<g>
					<path class="st6" d="M490.0241394,156.9577179c0.2231445,0,0.4342651-0.1347504,0.5204468-0.3551636
						c0.023468-0.0599976,2.390564-5.9654999,7.3615723-6.7189026c0.3055115-0.0458221,0.5149841-0.3305969,0.4686279-0.6355591
						c-0.0458374-0.3060455-0.3322449-0.5144501-0.6355591-0.4686127c-5.6163635,0.8504944-8.1313171,7.1487885-8.2355347,7.4166565
						c-0.1118469,0.2874908,0.0299988,0.6110077,0.3175049,0.7228394
						C489.8877563,156.9451599,489.9565125,156.9577179,490.0241394,156.9577179z"/>
				</g>
				<g>
					<path class="st6" d="M494.5477905,155.9408112c0.3011475,0,0.5493469-0.2389374,0.558075-0.5422668
						c0.0016479-0.0758209,0.0354614-1.8919373-1.3283691-4.0653839c-0.1636658-0.261322-0.509552-0.341507-0.7697754-0.1762085
						c-0.261322,0.1636658-0.3404236,0.5084381-0.1762085,0.7697601c1.1729126,1.8690338,1.1576538,3.4281921,1.1571045,3.4434662
						c-0.0054626,0.3076935,0.2384033,0.5630035,0.5455322,0.5700989
						C494.5385132,155.9408112,494.5434265,155.9408112,494.5477905,155.9408112z"/>
				</g>
			</g>
		</g>
	</g>
</g>
<g id="WOMAN_FACE">
	<g>
		<path class="st6" d="M482.192688,150.1316833c0,0-1.9865417-3.5980225-4.7154846-2.0676727
			c0,0-0.1133423-0.8325653-0.8448181-0.8181152c-0.7314453,0.0144501-0.7012634,2.3035583-0.7012634,2.3035583
			S479.2715454,149.1218872,482.192688,150.1316833z"/>
		<path class="st6" d="M466.5723572,152.5927124c0,0,0.0559692-3.7583618,2.2668152-2.8165436
			c0,0,0.0242004-0.6944122,0.4902344-0.7936707c0.8060303-0.1716766,1.0692444,1.9733582,1.0692444,1.9733582
			S468.065979,151.1035767,466.5723572,152.5927124z"/>
		<g>
			
				<ellipse transform="matrix(0.9970822 -0.0763355 0.0763355 0.9970822 -10.4094267 36.9729614)" class="st6" cx="478.4369202" cy="154.6517181" rx="1.5430899" ry="1.9078202"/>
			<circle class="st11" cx="478.046051" cy="154.0028076" r="0.4103216"/>
		</g>
		<g>
			
				<ellipse transform="matrix(0.9970822 -0.0763355 0.0763355 0.9970822 -10.488842 36.2831039)" class="st6" cx="469.37323" cy="155.3456268" rx="1.5430899" ry="1.9078202"/>
			<circle class="st11" cx="468.9823608" cy="154.6967163" r="0.4103216"/>
		</g>
		<g>
			<path class="st6" d="M473.3719788,161.5473633c0.4577332,0,0.8859558-0.0845642,1.1931152-0.1865692
				c0.2924194-0.0971069,0.4495239-0.4124298,0.3535156-0.7048492c-0.0960388-0.2918701-0.4124451-0.4522552-0.7043152-0.3562317
				c-0.0163574,0.0054474-1.5815125,0.5024414-2.0561523-0.4806366c-0.1025391-0.212204-0.0572815-0.2918549-0.0398254-0.322403
				c0.1718445-0.3022308,1.0016174-0.5275421,1.5346375-0.5744629c0.3033142-0.0261841,0.5302429-0.2913208,0.5095215-0.594635
				l-0.2564087-3.7227936c-0.0218201-0.3082275-0.2907715-0.5340881-0.5957336-0.5193634
				c-0.3082275,0.021286-0.5400696,0.2880554-0.5193481,0.5957336l0.2209473,3.2061615
				c-0.6011963,0.118927-1.4904175,0.4004364-1.8641357,1.0561676c-0.1614685,0.2831421-0.2918701,0.7490387,0.004364,1.3622284
				C471.6175232,161.2680511,472.5422058,161.5473633,473.3719788,161.5473633z"/>
		</g>
		<path class="st11" d="M473.570282,164.9687042c0,0,4.2330322,2.460144,6.5901489-2.7236633L473.570282,164.9687042z"/>
	</g>
</g>
<g id="CHAIR">
	<g>
		
			<rect x="208.4291382" y="394.7321167" transform="matrix(5.425178e-11 -1 1 5.425178e-11 -106.9376678 703.9126587)" class="st6" width="180.1167297" height="21.3861389"/>
		<rect x="189.6578522" y="315.3667603" class="st7" width="217.6593018" height="21.3861389"/>
		<polyline class="st9" points="407.3171692,315.3667603 407.3171692,336.7528992 372.1508789,336.7528992 		"/>
		<rect x="225.7746277" y="495.483551" class="st7" width="145.4257355" height="8.4376774"/>
		<g>
			<rect x="165.6558228" y="293.9806824" class="st6" width="265.6633606" height="21.3861389"/>
			<g>
				<polygon class="st7" points="148.591507,312.1518555 148.5952911,312.149292 148.5988922,312.1463623 				"/>
				<path class="st7" d="M177.7823639,300.5687256c4.8516846-2.2376099,10.0872192-4.4923706,15.4545898-6.5880737h-7.9815674
					c-5.371521,2.2764893-10.4812622,4.6378784-15.0859985,6.8743896c-1.5662231,0.7609863-3.0737915,1.5073853-4.5135498,2.2311401
					v3.3621216C169.2763824,304.6102295,173.371048,302.6026611,177.7823639,300.5687256z"/>
				<path class="st7" d="M255.2695465,299.0811157c-12.5355835,4.8200073-25.0135498,10.2611084-35.7346191,16.2856445h6.3059692
					c5.7993774-3.026001,12.0311279-5.9082642,18.446167-8.6259766
					c11.2684937-4.7753296,23.0844879-9.0471191,34.0927277-12.7601318h-9.2136841
					C264.5848083,295.5927734,259.9250793,297.2918701,255.2695465,299.0811157z"/>
				<path class="st7" d="M170.9380646,315.3667603h6.8614502c7.8253784-3.725647,19.2718506-8.8601074,33.1184082-14.1417236
					c6.3582764-2.4258423,13.2243042-4.8808594,20.4713135-7.2443848h-9.3693237
					c-5.1118774,1.7844238-9.9987793,3.5913696-14.5948486,5.3737183
					C190.8845978,305.7703247,177.9980011,311.8571167,170.9380646,315.3667603z"/>
				<path class="st7" d="M431.3191833,307.1858521v-3.4290771c-7.3060913-3.9194336-15.142334-7.1383667-23.0995483-9.776123
					h-10.3604736C409.3988953,297.1401367,420.9838562,301.4544067,431.3191833,307.1858521z"/>
				<path class="st7" d="M418.9321594,314.723999c0.2669678,0.2196045,0.5050659,0.4303589,0.7484741,0.6427612h4.2973022
					c-0.2003174-0.2224731-0.4008789-0.4448242-0.6251221-0.6748047c-2.0819702-2.1223145-5.2185059-4.5518188-9.4141235-7.1053467
					c-7.6697388-4.6621704-18.9034424-9.7106323-33.4557495-13.605957h-13.4677124
					c15.6679688,2.9927368,28.2651367,7.4485474,37.552124,11.9438477
					C410.9385071,309.0067749,415.7601013,312.1099243,418.9321594,314.723999z"/>
				<path class="st7" d="M285.8522644,308.8033447c14.4360352-4.690918,28.8446045-7.8538818,47.5655518-7.8572998
					c18.6360474-0.0025635,36.8469238,4.7570801,52.1903687,9.8588867
					c4.6078491,1.5314331,8.9502563,3.0909424,12.9783936,4.5618286h8.7305908
					c-0.0361938-0.0131226-0.0700684-0.0251465-0.1063232-0.0383301
					c-8.885498-3.2250977-20.1670532-7.5672607-32.8007812-11.1053467
					c-12.6355591-3.5374756-26.6324463-6.276062-40.9922485-6.2769775
					c-19.0609131-0.003418-33.8797607,3.2496338-48.4931641,8.0042725
					c-8.4608765,2.7522583-16.8590698,5.9998169-26.0079956,9.4163818h8.5466309
					C273.7958679,312.9920044,279.8283997,310.7611694,285.8522644,308.8033447z"/>
			</g>
		</g>
	</g>
</g>
<g id="ORNAMENT_2">
	<circle class="st13" cx="61.2020187" cy="123.4771271" r="3.0695159"/>
</g>
<g id="ORNAMENT_1">
	<circle class="st13" cx="443.3938904" cy="91.7499161" r="5.3216376"/>
</g>
<g id="CUBE">
	<g>
		<polygon class="st3" points="281.3967896,172.1076508 327.9079285,183.1498566 290.4313354,205.9035034 243.9201965,194.8612976 
					"/>
		<polygon class="st7" points="327.9079285,183.1498566 341.2924194,234.0109558 303.8158264,256.7645874 290.4313354,205.9035034 
					"/>
		<polygon class="st6" points="243.9201965,194.8612976 257.3046875,245.7223969 303.8158264,256.7645874 290.4313354,205.9035034 
					"/>
	</g>
</g>
<g id="PROJECTOR">
	<g>
		<path class="st0" d="M331.5172119,293.9806824h-68.4356384c-1.0498962,0-1.901001-0.8511047-1.901001-1.901001V279.010376
			c0-1.0498962,0.8511047-1.9009705,1.901001-1.9009705h68.4356384c1.0498962,0,1.9009705,0.8510742,1.9009705,1.9009705v13.0693054
			C333.4181824,293.1295776,332.5671082,293.9806824,331.5172119,293.9806824z"/>
		<g>
			<circle class="st6" cx="273.5370178" cy="285.5450439" r="2.4059405"/>
			<circle class="st6" cx="283.398407" cy="285.5450439" r="2.4059405"/>
			<path class="st6" d="M321.5667114,287.9509888h-23.8811951c-1.0498657,0-1.9009705-0.8511047-1.9009705-1.901001v-1.0098877
				c0-1.0498962,0.8511047-1.901001,1.9009705-1.901001h23.8811951c1.0498962,0,1.901001,0.8511047,1.901001,1.901001v1.0098877
				C323.4677124,287.099884,322.6166077,287.9509888,321.5667114,287.9509888z"/>
		</g>
	</g>
</g>
<g id="PROJECTOR_LIGHT">
	<g>
		<line class="st9" x1="204.4776001" y1="138.3371124" x2="262.6954346" y2="273.426239"/>
		<line class="st9" x1="390.1211548" y1="138.3371124" x2="331.9033508" y2="273.426239"/>
	</g>
</g>
<g id="ONLINE_TEAM_2">
	<g>
		<path class="st3" d="M272.3786011,138.3371124H230.140976c-1.8209076,0-3.2970428-1.47612-3.2970428-3.2970276v-24.0594025
			c0-1.8209,1.4761353-3.2970352,3.2970428-3.2970352h42.2376251c1.8208923,0,3.2970276,1.4761353,3.2970276,3.2970352v24.0594025
			C275.6756287,136.8609924,274.1994934,138.3371124,272.3786011,138.3371124z"/>
		<g>
			<g>
				<circle class="st11" cx="239.6016998" cy="116.7727585" r="4.1617913"/>
				<path class="st11" d="M247.9860382,133.4098053h-16.7686768v-1.8226929c0-4.6305466,3.7537994-8.3843384,8.3843384-8.3843384
					h0.0000153c4.6305389,0,8.3843231,3.7537918,8.3843231,8.3843384V133.4098053z"/>
			</g>
			<g>
				<path class="st11" d="M269.2526855,119.9543533h-16.7524719c-1.1319122,0-2.0494995-0.9175949-2.0494995-2.0495071l0,0
					c0-1.1319122,0.9175873-2.0495071,2.0494995-2.0495071h16.7524719c1.1319275,0,2.0494995,0.9175949,2.0494995,2.0495071l0,0
					C271.3021851,119.0367584,270.384613,119.9543533,269.2526855,119.9543533z"/>
				<path class="st11" d="M269.2526855,127.3017883h-11.5841675c-1.131897,0-2.0494843-0.9175949-2.0494843-2.0495071l0,0
					c0-1.1319122,0.9175873-2.0495071,2.0494843-2.0495071h11.5841675c1.1319275,0,2.0494995,0.9175949,2.0494995,2.0495071l0,0
					C271.3021851,126.3841934,270.384613,127.3017883,269.2526855,127.3017883z"/>
			</g>
		</g>
	</g>
</g>
<g id="ONLINE_TEAM_1">
	<g>
		<path class="st3" d="M354.9528503,158.9597473h-42.2376099c-1.8209229,0-3.2970581-1.47612-3.2970581-3.2970276v-24.0594025
			c0-1.8208923,1.4761353-3.2970276,3.2970581-3.2970276h42.2376099c1.8208923,0,3.2970276,1.4761353,3.2970276,3.2970276
			v24.0594025C358.2498779,157.4836273,356.7737427,158.9597473,354.9528503,158.9597473z"/>
		<g>
			<g>
				<circle class="st11" cx="322.1759644" cy="137.395401" r="4.1617913"/>
				<path class="st11" d="M330.5603027,154.0324402H313.791626v-1.8226929c0-4.6305389,3.7537842-8.3843384,8.3843384-8.3843384l0,0
					c4.6305542,0,8.3843384,3.7537994,8.3843384,8.3843384V154.0324402z"/>
			</g>
			<g>
				<path class="st11" d="M351.8269653,140.5769958h-16.7525024c-1.131897,0-2.0494995-0.9176025-2.0494995-2.0495148l0,0
					c0-1.1319122,0.9176025-2.0494995,2.0494995-2.0494995h16.7525024c1.131897,0,2.0494995,0.9175873,2.0494995,2.0494995l0,0
					C353.8764648,139.6593933,352.9588623,140.5769958,351.8269653,140.5769958z"/>
				<path class="st11" d="M351.8269653,147.9244232h-11.5841675c-1.1319275,0-2.0494995-0.9175873-2.0494995-2.0494995l0,0
					c0-1.1319122,0.917572-2.0495148,2.0494995-2.0495148h11.5841675c1.131897,0,2.0494995,0.9176025,2.0494995,2.0495148l0,0
					C353.8764648,147.0068359,352.9588623,147.9244232,351.8269653,147.9244232z"/>
			</g>
		</g>
	</g>
</g>
<g id="GROUND">
	<g>
		<g>
			<g>
				<line class="st4" x1="442.4743347" y1="503.32724" x2="554.6795654" y2="503.32724"/>
				<line class="st4" x1="63.6815681" y1="503.32724" x2="415.545166" y2="503.32724"/>
			</g>
			<g>
				<line class="st4" x1="175.1781464" y1="522.6168823" x2="119.1059418" y2="522.6168823"/>
				<line class="st4" x1="515.3812866" y1="522.6168823" x2="193.4356384" y2="522.6168823"/>
			</g>
			<g>
				<line class="st4" x1="359.0502625" y1="541.9065552" x2="397.0516663" y2="541.9065552"/>
				<line class="st4" x1="175.6160431" y1="541.9065552" x2="346.5090332" y2="541.9065552"/>
			</g>
		</g>
	</g>
</g>
</svg>
