<?xml version="1.0" encoding="iso-8859-1"?>
<!-- Generator: Adobe Illustrator 26.0.2, SVG Export Plug-In . SVG Version: 6.00 Build 0)  -->
<svg version="1.1" xmlns="http://www.w3.org/2000/svg" xmlns:xlink="http://www.w3.org/1999/xlink" x="0px" y="0px"
	 viewBox="0 0 1200 1200" enable-background="new 0 0 1200 1200" xml:space="preserve">
<g id="Background_x5F_Simple">
	<g>
		<g>
			<path fill="#EEEEEE" d="M562.97,909.21h-0.59c-1.89,0-3.43-1.53-3.43-3.43v-12.44c0-1.89,1.53-3.43,3.43-3.43h0.59
				c1.89,0,3.43,1.53,3.43,3.43v12.44C566.4,907.68,564.86,909.21,562.97,909.21z"/>
			<path fill="#EEEEEE" d="M571.41,918.24v-0.59c0-1.89,1.53-3.43,3.43-3.43h12.44c1.89,0,3.43,1.53,3.43,3.43v0.59
				c0,1.89-1.53,3.43-3.43,3.43h-12.44C572.94,921.67,571.41,920.13,571.41,918.24z"/>
			<path fill="#EEEEEE" d="M562.38,926.68h0.59c1.89,0,3.43,1.53,3.43,3.43v12.44c0,1.89-1.53,3.43-3.43,3.43h-0.59
				c-1.89,0-3.43-1.53-3.43-3.43v-12.44C558.95,928.22,560.49,926.68,562.38,926.68z"/>
			<path fill="#EEEEEE" d="M553.94,917.65v0.59c0,1.89-1.53,3.43-3.43,3.43h-12.44c-1.89,0-3.43-1.53-3.43-3.43v-0.59
				c0-1.89,1.53-3.43,3.43-3.43h12.44C552.4,914.23,553.94,915.76,553.94,917.65z"/>
		</g>
		<g>
			<path fill="#EEEEEE" d="M909.35,142.47h-0.59c-1.89,0-3.43-1.53-3.43-3.43V126.6c0-1.89,1.53-3.43,3.43-3.43h0.59
				c1.89,0,3.43,1.53,3.43,3.43v12.44C912.78,140.93,911.24,142.47,909.35,142.47z"/>
			<path fill="#EEEEEE" d="M917.79,151.5v-0.59c0-1.89,1.53-3.43,3.43-3.43h12.44c1.89,0,3.43,1.53,3.43,3.43v0.59
				c0,1.89-1.53,3.43-3.43,3.43h-12.44C919.33,154.93,917.79,153.39,917.79,151.5z"/>
			<path fill="#EEEEEE" d="M908.76,159.94h0.59c1.89,0,3.43,1.53,3.43,3.43v12.44c0,1.89-1.53,3.43-3.43,3.43h-0.59
				c-1.89,0-3.43-1.53-3.43-3.43v-12.44C905.33,161.47,906.87,159.94,908.76,159.94z"/>
			<path fill="#EEEEEE" d="M900.32,150.91v0.59c0,1.89-1.53,3.43-3.43,3.43h-12.44c-1.89,0-3.43-1.53-3.43-3.43v-0.59
				c0-1.89,1.53-3.43,3.43-3.43h12.44C898.79,147.48,900.32,149.02,900.32,150.91z"/>
		</g>
		<g>
			<path fill="#EEEEEE" d="M741.76,326.21h-0.59c-1.89,0-3.43-1.53-3.43-3.43v-12.44c0-1.89,1.53-3.43,3.43-3.43h0.59
				c1.89,0,3.43,1.53,3.43,3.43v12.44C745.18,324.68,743.65,326.21,741.76,326.21z"/>
			<path fill="#EEEEEE" d="M750.2,335.24v-0.59c0-1.89,1.53-3.43,3.43-3.43h12.44c1.89,0,3.43,1.53,3.43,3.43v0.59
				c0,1.89-1.53,3.43-3.43,3.43h-12.44C751.73,338.67,750.2,337.14,750.2,335.24z"/>
			<path fill="#EEEEEE" d="M741.17,343.68h0.59c1.89,0,3.43,1.53,3.43,3.43v12.44c0,1.89-1.53,3.43-3.43,3.43h-0.59
				c-1.89,0-3.43-1.53-3.43-3.43v-12.44C737.74,345.22,739.27,343.68,741.17,343.68z"/>
			<path fill="#EEEEEE" d="M732.73,334.65v0.59c0,1.89-1.53,3.43-3.43,3.43h-12.44c-1.89,0-3.43-1.53-3.43-3.43v-0.59
				c0-1.89,1.53-3.43,3.43-3.43h12.44C731.19,331.23,732.73,332.76,732.73,334.65z"/>
		</g>
		<g>
			<path fill="#EEEEEE" d="M222,468.86h-0.59c-1.89,0-3.43-1.53-3.43-3.43v-12.44c0-1.89,1.53-3.43,3.43-3.43H222
				c1.89,0,3.43,1.53,3.43,3.43v12.44C225.43,467.32,223.89,468.86,222,468.86z"/>
			<path fill="#EEEEEE" d="M230.44,477.89v-0.59c0-1.89,1.53-3.43,3.43-3.43h12.44c1.89,0,3.43,1.53,3.43,3.43v0.59
				c0,1.89-1.53,3.43-3.43,3.43h-12.44C231.98,481.31,230.44,479.78,230.44,477.89z"/>
			<path fill="#EEEEEE" d="M221.41,486.33H222c1.89,0,3.43,1.53,3.43,3.43v12.44c0,1.89-1.53,3.43-3.43,3.43h-0.59
				c-1.89,0-3.43-1.53-3.43-3.43v-12.44C217.98,487.86,219.52,486.33,221.41,486.33z"/>
			<path fill="#EEEEEE" d="M212.97,477.3v0.59c0,1.89-1.53,3.43-3.43,3.43H197.1c-1.89,0-3.43-1.53-3.43-3.43v-0.59
				c0-1.89,1.53-3.43,3.43-3.43h12.44C211.44,473.87,212.97,475.4,212.97,477.3z"/>
		</g>
		<path fill="#EEEEEE" d="M149.78,322.12c-8.23,0-14.88,6.66-14.88,14.88c0,8.23,6.64,14.88,14.88,14.88
			c8.21,0,14.88-6.64,14.88-14.88C164.65,328.79,157.99,322.12,149.78,322.12z M149.78,345.06c-4.46,0-8.06-3.59-8.06-8.06
			c0-4.45,3.59-8.04,8.06-8.04c4.45,0,8.04,3.59,8.04,8.04C157.82,341.47,154.22,345.06,149.78,345.06z"/>
		<path fill="#EEEEEE" d="M1046.64,736.89c-8.23,0-14.88,6.66-14.88,14.88c0,8.23,6.64,14.88,14.88,14.88
			c8.21,0,14.88-6.64,14.88-14.88C1061.52,743.55,1054.85,736.89,1046.64,736.89z M1046.64,759.82c-4.46,0-8.06-3.59-8.06-8.06
			c0-4.45,3.59-8.04,8.06-8.04c4.45,0,8.04,3.59,8.04,8.04C1054.68,756.23,1051.09,759.82,1046.64,759.82z"/>
	</g>
</g>
<g id="Layer_x5F_Plants">
	<g>
		<g>
			<path fill="#374D6D" d="M808.33,1012.97c0,0,38.5-40.4,96-102.65s73.66-64.44,84.59-57.41c10.93,7.03,4.75,66-73.19,114.93
				c0,0,47.94-28.06,67.93-11.42s-23.25,56.55-64.13,56.55S808.33,1012.97,808.33,1012.97z"/>
			<g>
				<path fill="#6081C1" d="M769.71,1012.97c0,0,2.66-116.2,95.61-229.54s172.07-56.32,71.56,59.88S769.71,1012.97,769.71,1012.97z"
					/>
				<g opacity="0.3">
					<path fill="#FFFFFF" d="M780.44,994.82c0,0,0.23-0.55,0.68-1.6c6.84-15.86,65.02-145.92,166.39-233.27
						c0.42-0.36,0.47-0.99,0.1-1.41c-0.36-0.42-0.99-0.47-1.41-0.1c-108.58,93.6-167.58,235.56-167.62,235.62
						c-0.21,0.51,0.03,1.1,0.54,1.31C779.64,995.57,780.23,995.33,780.44,994.82L780.44,994.82z"/>
				</g>
			</g>
		</g>
		<g>
			<path fill="#374D6D" d="M286.22,1012.97c0,0-25.15-26.39-62.71-67.06c-37.57-40.67-48.12-42.09-55.26-37.5
				c-7.14,4.59-3.1,43.11,47.81,75.08c0,0-31.31-18.33-44.37-7.46c-13.06,10.87,15.19,36.94,41.89,36.94
				S286.22,1012.97,286.22,1012.97z"/>
			<path fill="#374D6D" d="M369.79,1012.97c0,0,3.91-7.67,39.01-50.49c26.56-32.41,46.8-36.83,55.26-37.5
				c13.6-1.08,26.81,26.55-24.1,58.51c0,0,31.31-18.33,44.37-7.46c13.06,10.87-33.2,36.94-59.9,36.94S369.79,1012.97,369.79,1012.97
				z"/>
			<g>
				<path fill="#6081C1" d="M323.38,1012.97c0,0-1.73-75.7-62.29-149.54s-112.1-36.69-46.62,39.01S323.38,1012.97,323.38,1012.97z"
					/>
			</g>
			<g opacity="0.3">
				<path fill="#FFFFFF" d="M201.74,841.52c0,0,0.33,0.36,0.95,1.05c4.67,5.19,25.93,29.07,49.65,59.79
					c23.72,30.71,49.89,68.28,64.36,100.72c0.23,0.5,0.82,0.73,1.32,0.51c0.5-0.23,0.73-0.82,0.51-1.32
					c-15.58-34.9-44.39-75.38-69.32-107.18c-24.93-31.8-45.97-54.89-45.98-54.9c-0.37-0.41-1-0.44-1.41-0.07
					S201.37,841.12,201.74,841.52L201.74,841.52z"/>
			</g>
		</g>
	</g>
</g>
<g id="Layer_x5F_Covid">
	<g>
		<g>
			<path fill="#FF8D88" d="M1017.98,552.81v-1.47c0-1.41-1.06-2.58-2.46-2.73l-6.31-0.67c-4.56-0.49-8.19-3.93-9.1-8.43
				c-1.5-7.43-4.37-14.35-8.36-20.5c-2.45-3.78-2.24-8.7,0.59-12.21l5.15-6.39c0.88-1.09,0.8-2.68-0.2-3.67l0,0
				c-0.99-0.99-2.58-1.08-3.67-0.2l-6.19,5c-3.57,2.88-8.59,3.04-12.4,0.47c-5.99-4.04-12.75-7.01-20.02-8.65
				c-4.38-0.99-7.69-4.58-8.17-9.05l-0.71-6.64c-0.15-1.4-1.33-2.46-2.73-2.46h-1.47c-1.41,0-2.58,1.06-2.73,2.46l-0.67,6.31
				c-0.49,4.56-3.93,8.19-8.43,9.1c-7.43,1.5-14.35,4.37-20.5,8.36c-3.78,2.45-8.7,2.24-12.21-0.59l-6.39-5.15
				c-1.09-0.88-2.68-0.8-3.67,0.2l0,0c-0.99,0.99-1.08,2.58-0.2,3.67l5,6.19c2.88,3.57,3.04,8.59,0.47,12.4
				c-4.04,5.99-7.01,12.75-8.65,20.02c-0.99,4.38-4.58,7.69-9.05,8.17l-6.64,0.71c-1.4,0.15-2.46,1.33-2.46,2.73v1.47
				c0,1.41,1.06,2.58,2.46,2.73l6.31,0.67c4.56,0.49,8.19,3.93,9.1,8.43c1.5,7.43,4.37,14.35,8.36,20.5
				c2.45,3.78,2.24,8.7-0.59,12.21l-5.15,6.39c-0.88,1.09-0.8,2.68,0.2,3.67l0,0c0.99,0.99,2.58,1.08,3.67,0.2l6.19-5
				c3.57-2.88,8.59-3.04,12.4-0.47c5.99,4.04,12.75,7.01,20.02,8.65c4.38,0.99,7.69,4.58,8.17,9.05l0.71,6.64
				c0.15,1.4,1.33,2.46,2.73,2.46h1.47c1.41,0,2.58-1.06,2.73-2.46l0.67-6.31c0.49-4.56,3.93-8.19,8.43-9.1
				c7.43-1.5,14.35-4.37,20.5-8.36c3.78-2.45,8.7-2.24,12.21,0.59l6.39,5.15c1.09,0.88,2.68,0.8,3.67-0.2v0
				c0.99-0.99,1.08-2.58,0.2-3.67l-5-6.19c-2.88-3.57-3.04-8.59-0.47-12.4c4.04-5.99,7.01-12.75,8.65-20.02
				c0.99-4.38,4.58-7.69,9.05-8.17l6.64-0.71C1016.92,555.4,1017.98,554.22,1017.98,552.81z"/>
			<g>
				<circle fill="#FF8D88" cx="942.68" cy="469.69" r="9.91"/>
				<circle fill="#FF8D88" cx="1023.51" cy="552.08" r="9.91"/>
				<circle fill="#FF8D88" cx="999.46" cy="609.71" r="7.64"/>
				<circle fill="#FF8D88" cx="1000.31" cy="493.74" r="7.64"/>
				<circle fill="#FF8D88" cx="884.33" cy="492.89" r="7.64"/>
				<circle fill="#FF8D88" cx="883.49" cy="608.86" r="7.64"/>
				<circle fill="#FF8D88" cx="941.12" cy="632.91" r="9.91"/>
				<circle fill="#FF8D88" cx="860.29" cy="550.52" r="9.91"/>
			</g>
			<g opacity="0.3">
				<circle fill="#FFFFFF" cx="942.68" cy="469.69" r="9.91"/>
				<circle fill="#FFFFFF" cx="1023.51" cy="552.08" r="9.91"/>
				<circle fill="#FFFFFF" cx="999.46" cy="609.71" r="7.64"/>
				<circle fill="#FFFFFF" cx="1000.31" cy="493.74" r="7.64"/>
				<circle fill="#FFFFFF" cx="884.33" cy="492.89" r="7.64"/>
				<circle fill="#FFFFFF" cx="883.49" cy="608.86" r="7.64"/>
				<circle fill="#FFFFFF" cx="941.12" cy="632.91" r="9.91"/>
				<circle fill="#FFFFFF" cx="860.29" cy="550.52" r="9.91"/>
			</g>
			<g opacity="0.3">
				<circle fill="#FFFFFF" cx="944.35" cy="550.52" r="10.57"/>
				<ellipse fill="#FFFFFF" cx="939.35" cy="511.38" rx="8.44" ry="5.12"/>
				
					<ellipse transform="matrix(0.4892 -0.8722 0.8722 0.4892 -1.6461 1065.7375)" fill="#FFFFFF" cx="909.06" cy="534.27" rx="8.44" ry="5.12"/>
				
					<ellipse transform="matrix(0.8534 -0.5213 0.5213 0.8534 -164.5815 559.9932)" fill="#FFFFFF" cx="913.13" cy="572.55" rx="6.38" ry="10.51"/>
				
					<ellipse transform="matrix(0.9993 -0.0372 0.0372 0.9993 -21.3296 35.6627)" fill="#FFFFFF" cx="947.78" cy="591.07" rx="7.39" ry="4.48"/>
				
					<ellipse transform="matrix(0.4564 -0.8898 0.8898 0.4564 30.0573 1179.7095)" fill="#FFFFFF" cx="980.57" cy="565.25" rx="9.89" ry="6"/>
				
					<ellipse transform="matrix(0.8334 -0.5527 0.5527 0.8334 -127.1294 627.1152)" fill="#FFFFFF" cx="976.54" cy="524.41" rx="3.35" ry="5.52"/>
			</g>
		</g>
		<g>
			<path fill="#FF8D88" d="M399.18,192.13v-1.47c0-1.41-1.06-2.58-2.46-2.73l-6.31-0.67c-4.56-0.49-8.19-3.93-9.1-8.43
				c-1.5-7.43-4.37-14.35-8.36-20.5c-2.45-3.78-2.24-8.7,0.59-12.21l5.15-6.39c0.88-1.09,0.8-2.68-0.2-3.67l0,0
				c-0.99-0.99-2.58-1.08-3.67-0.2l-6.19,5c-3.57,2.88-8.59,3.04-12.4,0.47c-5.99-4.04-12.75-7.01-20.02-8.65
				c-4.38-0.99-7.69-4.58-8.17-9.05l-0.71-6.64c-0.15-1.4-1.33-2.46-2.73-2.46h-1.47c-1.41,0-2.58,1.06-2.73,2.46l-0.67,6.31
				c-0.49,4.56-3.93,8.19-8.43,9.1c-7.43,1.5-14.35,4.37-20.5,8.36c-3.78,2.45-8.7,2.24-12.21-0.59l-6.39-5.15
				c-1.09-0.88-2.68-0.8-3.67,0.2v0c-0.99,0.99-1.08,2.58-0.2,3.67l5,6.19c2.88,3.57,3.04,8.59,0.47,12.4
				c-4.04,5.99-7.01,12.75-8.65,20.02c-0.99,4.38-4.58,7.69-9.05,8.17l-6.64,0.71c-1.4,0.15-2.46,1.33-2.46,2.73v1.47
				c0,1.41,1.06,2.58,2.46,2.73l6.31,0.67c4.56,0.49,8.19,3.93,9.1,8.43c1.5,7.43,4.37,14.35,8.36,20.5
				c2.45,3.78,2.24,8.7-0.59,12.21l-5.15,6.39c-0.88,1.09-0.8,2.68,0.2,3.67l0,0c0.99,0.99,2.58,1.08,3.67,0.2l6.19-5
				c3.57-2.88,8.59-3.04,12.4-0.47c5.99,4.04,12.75,7.01,20.02,8.65c4.38,0.99,7.69,4.58,8.17,9.05l0.71,6.64
				c0.15,1.4,1.33,2.46,2.73,2.46h1.47c1.41,0,2.58-1.06,2.73-2.46l0.67-6.31c0.49-4.56,3.93-8.19,8.43-9.1
				c7.43-1.5,14.35-4.37,20.5-8.36c3.78-2.45,8.7-2.24,12.21,0.59l6.39,5.15c1.09,0.88,2.68,0.8,3.67-0.2v0
				c0.99-0.99,1.08-2.58,0.2-3.67l-5-6.19c-2.88-3.57-3.04-8.59-0.47-12.4c4.04-5.99,7.01-12.75,8.65-20.02
				c0.99-4.38,4.58-7.69,9.05-8.17l6.64-0.71C398.12,194.71,399.18,193.54,399.18,192.13z"/>
			<g>
				<circle fill="#FF8D88" cx="323.88" cy="109.01" r="9.91"/>
				<circle fill="#FF8D88" cx="404.71" cy="191.39" r="9.91"/>
				<circle fill="#FF8D88" cx="380.66" cy="249.03" r="7.64"/>
				<circle fill="#FF8D88" cx="381.51" cy="133.05" r="7.64"/>
				<circle fill="#FF8D88" cx="265.53" cy="132.2" r="7.64"/>
				<circle fill="#FF8D88" cx="264.69" cy="248.18" r="7.64"/>
				<circle fill="#FF8D88" cx="322.32" cy="272.22" r="9.91"/>
				<circle fill="#FF8D88" cx="241.49" cy="189.84" r="9.91"/>
			</g>
			<g opacity="0.3">
				<circle fill="#FFFFFF" cx="323.88" cy="109.01" r="9.91"/>
				<circle fill="#FFFFFF" cx="404.71" cy="191.39" r="9.91"/>
				<circle fill="#FFFFFF" cx="380.66" cy="249.03" r="7.64"/>
				<circle fill="#FFFFFF" cx="381.51" cy="133.05" r="7.64"/>
				<circle fill="#FFFFFF" cx="265.53" cy="132.2" r="7.64"/>
				<circle fill="#FFFFFF" cx="264.69" cy="248.18" r="7.64"/>
				<circle fill="#FFFFFF" cx="322.32" cy="272.22" r="9.91"/>
				<circle fill="#FFFFFF" cx="241.49" cy="189.84" r="9.91"/>
			</g>
			<g opacity="0.3">
				<circle fill="#FFFFFF" cx="325.55" cy="189.84" r="10.57"/>
				<ellipse fill="#FFFFFF" cx="320.55" cy="150.7" rx="8.44" ry="5.12"/>
				
					<ellipse transform="matrix(0.4892 -0.8722 0.8722 0.4892 -3.1414 341.8164)" fill="#FFFFFF" cx="290.26" cy="173.59" rx="8.44" ry="5.12"/>
				
					<ellipse transform="matrix(0.8534 -0.5213 0.5213 0.8534 -67.2898 184.5072)" fill="#FFFFFF" cx="294.33" cy="211.86" rx="6.38" ry="10.51"/>
				
					<ellipse transform="matrix(0.9993 -0.0372 0.0372 0.9993 -8.3419 12.3963)" fill="#FFFFFF" cx="328.98" cy="230.39" rx="7.39" ry="4.48"/>
				
					<ellipse transform="matrix(0.4564 -0.8898 0.8898 0.4564 14.6238 433.0785)" fill="#FFFFFF" cx="361.77" cy="204.57" rx="9.89" ry="6"/>
				
					<ellipse transform="matrix(0.8334 -0.5527 0.5527 0.8334 -30.8838 225.0038)" fill="#FFFFFF" cx="357.74" cy="163.72" rx="3.35" ry="5.52"/>
			</g>
		</g>
		<g>
			<path fill="#FF8D88" d="M173.07,664v-0.83c0-0.79-0.6-1.45-1.38-1.54l-3.55-0.38c-2.56-0.27-4.61-2.21-5.11-4.74
				c-0.84-4.17-2.46-8.07-4.7-11.52c-1.38-2.13-1.26-4.89,0.33-6.86l2.9-3.59c0.5-0.61,0.45-1.5-0.11-2.06l0,0
				c-0.56-0.56-1.45-0.61-2.06-0.11l-3.48,2.81c-2.01,1.62-4.83,1.71-6.97,0.26c-3.37-2.27-7.17-3.94-11.25-4.86
				c-2.46-0.56-4.32-2.57-4.59-5.08l-0.4-3.73c-0.08-0.79-0.75-1.38-1.54-1.38h-0.83c-0.79,0-1.45,0.6-1.54,1.38l-0.38,3.55
				c-0.27,2.56-2.21,4.61-4.74,5.11c-4.17,0.84-8.07,2.46-11.52,4.7c-2.13,1.38-4.89,1.26-6.86-0.33l-3.59-2.9
				c-0.61-0.5-1.5-0.45-2.06,0.11h0c-0.56,0.56-0.61,1.45-0.11,2.06l2.81,3.48c1.62,2.01,1.71,4.83,0.26,6.97
				c-2.27,3.37-3.94,7.17-4.86,11.25c-0.56,2.46-2.57,4.32-5.08,4.59l-3.73,0.4c-0.79,0.08-1.38,0.75-1.38,1.54v0.83
				c0,0.79,0.6,1.45,1.38,1.54l3.55,0.38c2.56,0.27,4.61,2.21,5.11,4.74c0.84,4.17,2.46,8.07,4.7,11.52
				c1.38,2.13,1.26,4.89-0.33,6.86l-2.9,3.59c-0.5,0.61-0.45,1.5,0.11,2.06l0,0c0.56,0.56,1.45,0.61,2.06,0.11l3.48-2.81
				c2.01-1.62,4.83-1.71,6.97-0.26c3.37,2.27,7.17,3.94,11.25,4.86c2.46,0.56,4.32,2.57,4.59,5.08l0.4,3.73
				c0.08,0.79,0.75,1.38,1.54,1.38h0.83c0.79,0,1.45-0.6,1.54-1.38l0.38-3.55c0.27-2.56,2.21-4.61,4.74-5.11
				c4.17-0.84,8.07-2.46,11.52-4.7c2.13-1.38,4.89-1.26,6.86,0.33l3.59,2.9c0.61,0.5,1.5,0.45,2.06-0.11h0
				c0.56-0.56,0.61-1.45,0.11-2.06l-2.81-3.48c-1.62-2.01-1.71-4.83-0.26-6.97c2.27-3.37,3.94-7.17,4.86-11.25
				c0.56-2.46,2.57-4.32,5.08-4.59l3.73-0.4C172.47,665.46,173.07,664.79,173.07,664z"/>
			<g>
				<circle fill="#FF8D88" cx="130.75" cy="617.29" r="5.57"/>
				<circle fill="#FF8D88" cx="176.17" cy="663.59" r="5.57"/>
				<circle fill="#FF8D88" cx="162.66" cy="695.98" r="4.29"/>
				<circle fill="#FF8D88" cx="163.14" cy="630.8" r="4.29"/>
				<circle fill="#FF8D88" cx="97.96" cy="630.32" r="4.29"/>
				<circle fill="#FF8D88" cx="97.48" cy="695.5" r="4.29"/>
				<circle fill="#FF8D88" cx="129.87" cy="709.02" r="5.57"/>
				<circle fill="#FF8D88" cx="84.44" cy="662.72" r="5.57"/>
			</g>
			<g opacity="0.3">
				<circle fill="#FFFFFF" cx="130.75" cy="617.29" r="5.57"/>
				<circle fill="#FFFFFF" cx="176.17" cy="663.59" r="5.57"/>
				<circle fill="#FFFFFF" cx="162.66" cy="695.98" r="4.29"/>
				<circle fill="#FFFFFF" cx="163.14" cy="630.8" r="4.29"/>
				<circle fill="#FFFFFF" cx="97.96" cy="630.32" r="4.29"/>
				<circle fill="#FFFFFF" cx="97.48" cy="695.5" r="4.29"/>
				<circle fill="#FFFFFF" cx="129.87" cy="709.02" r="5.57"/>
				<circle fill="#FFFFFF" cx="84.44" cy="662.72" r="5.57"/>
			</g>
			<g opacity="0.3">
				<circle fill="#FFFFFF" cx="131.69" cy="662.72" r="5.94"/>
				<ellipse fill="#FFFFFF" cx="128.88" cy="640.72" rx="4.74" ry="2.88"/>
				
					<ellipse transform="matrix(0.4892 -0.8722 0.8722 0.4892 -512.8979 431.3882)" fill="#FFFFFF" cx="111.85" cy="653.58" rx="4.74" ry="2.88"/>
				
					<ellipse transform="matrix(0.8534 -0.5213 0.5213 0.8534 -335.2057 158.4995)" fill="#FFFFFF" cx="114.14" cy="675.09" rx="3.58" ry="5.91"/>
				
					<ellipse transform="matrix(0.9993 -0.0372 0.0372 0.9993 -25.4055 5.4444)" fill="#FFFFFF" cx="133.62" cy="685.51" rx="4.15" ry="2.52"/>
				
					<ellipse transform="matrix(0.4564 -0.8898 0.8898 0.4564 -514.3768 500.0031)" fill="#FFFFFF" cx="152.04" cy="670.99" rx="5.56" ry="3.37"/>
				
					<ellipse transform="matrix(0.8334 -0.5527 0.5527 0.8334 -333.2178 190.7604)" fill="#FFFFFF" cx="149.78" cy="648.04" rx="1.88" ry="3.1"/>
			</g>
		</g>
		<g>
			<path fill="#FF8D88" d="M790.39,180.12v-0.83c0-0.79-0.6-1.45-1.38-1.54l-3.55-0.38c-2.56-0.27-4.61-2.21-5.11-4.74
				c-0.84-4.17-2.46-8.07-4.7-11.52c-1.38-2.13-1.26-4.89,0.33-6.86l2.9-3.59c0.5-0.61,0.45-1.5-0.11-2.06l0,0
				c-0.56-0.56-1.45-0.61-2.06-0.11l-3.48,2.81c-2.01,1.62-4.83,1.71-6.97,0.26c-3.37-2.27-7.17-3.94-11.25-4.86
				c-2.46-0.56-4.32-2.57-4.59-5.08l-0.4-3.73c-0.08-0.79-0.75-1.38-1.54-1.38h-0.83c-0.79,0-1.45,0.6-1.54,1.38l-0.38,3.55
				c-0.27,2.56-2.21,4.61-4.74,5.11c-4.17,0.84-8.07,2.46-11.52,4.7c-2.13,1.38-4.89,1.26-6.86-0.33l-3.59-2.9
				c-0.61-0.5-1.5-0.45-2.06,0.11v0c-0.56,0.56-0.61,1.45-0.11,2.06l2.81,3.48c1.62,2.01,1.71,4.83,0.26,6.97
				c-2.27,3.37-3.94,7.17-4.86,11.25c-0.56,2.46-2.57,4.32-5.08,4.59l-3.73,0.4c-0.79,0.08-1.38,0.75-1.38,1.54v0.83
				c0,0.79,0.6,1.45,1.38,1.54l3.55,0.38c2.56,0.27,4.61,2.21,5.11,4.74c0.84,4.17,2.46,8.07,4.7,11.52
				c1.38,2.13,1.26,4.89-0.33,6.86l-2.9,3.59c-0.5,0.61-0.45,1.5,0.11,2.06v0c0.56,0.56,1.45,0.61,2.06,0.11l3.48-2.81
				c2.01-1.62,4.83-1.71,6.97-0.26c3.37,2.27,7.17,3.94,11.25,4.86c2.46,0.56,4.32,2.57,4.59,5.08l0.4,3.73
				c0.08,0.79,0.75,1.38,1.54,1.38h0.83c0.79,0,1.45-0.6,1.54-1.38l0.38-3.55c0.27-2.56,2.21-4.61,4.74-5.11
				c4.17-0.84,8.07-2.46,11.52-4.7c2.13-1.38,4.89-1.26,6.86,0.33l3.59,2.9c0.61,0.5,1.5,0.45,2.06-0.11v0
				c0.56-0.56,0.61-1.45,0.11-2.06l-2.81-3.48c-1.62-2.01-1.71-4.83-0.26-6.97c2.27-3.37,3.94-7.17,4.86-11.25
				c0.56-2.46,2.57-4.32,5.08-4.59l3.73-0.4C789.8,181.57,790.39,180.91,790.39,180.12z"/>
			<g>
				<circle fill="#FF8D88" cx="748.07" cy="133.4" r="5.57"/>
				<circle fill="#FF8D88" cx="793.5" cy="179.7" r="5.57"/>
				<circle fill="#FF8D88" cx="779.99" cy="212.09" r="4.29"/>
				<circle fill="#FF8D88" cx="780.46" cy="146.91" r="4.29"/>
				<circle fill="#FF8D88" cx="715.28" cy="146.44" r="4.29"/>
				<circle fill="#FF8D88" cx="714.81" cy="211.62" r="4.29"/>
				<circle fill="#FF8D88" cx="747.2" cy="225.13" r="5.57"/>
				<circle fill="#FF8D88" cx="701.77" cy="178.83" r="5.57"/>
			</g>
			<g opacity="0.3">
				<circle fill="#FFFFFF" cx="748.07" cy="133.4" r="5.57"/>
				<circle fill="#FFFFFF" cx="793.5" cy="179.7" r="5.57"/>
				<circle fill="#FFFFFF" cx="779.99" cy="212.09" r="4.29"/>
				<circle fill="#FFFFFF" cx="780.46" cy="146.91" r="4.29"/>
				<circle fill="#FFFFFF" cx="715.28" cy="146.44" r="4.29"/>
				<circle fill="#FFFFFF" cx="714.81" cy="211.62" r="4.29"/>
				<circle fill="#FFFFFF" cx="747.2" cy="225.13" r="5.57"/>
				<circle fill="#FFFFFF" cx="701.77" cy="178.83" r="5.57"/>
			</g>
			<g opacity="0.3">
				<circle fill="#FFFFFF" cx="749.01" cy="178.83" r="5.94"/>
				<ellipse fill="#FFFFFF" cx="746.2" cy="156.83" rx="4.74" ry="2.88"/>
				
					<ellipse transform="matrix(0.4892 -0.8722 0.8722 0.4892 224.4459 722.6357)" fill="#FFFFFF" cx="729.18" cy="169.7" rx="4.74" ry="2.88"/>
				
					<ellipse transform="matrix(0.8534 -0.5213 0.5213 0.8534 7.582 409.3685)" fill="#FFFFFF" cx="731.46" cy="191.21" rx="3.58" ry="5.91"/>
				
					<ellipse transform="matrix(0.9993 -0.0372 0.0372 0.9993 -6.9797 28.0715)" fill="#FFFFFF" cx="750.94" cy="201.62" rx="4.15" ry="2.52"/>
				
					<ellipse transform="matrix(0.4564 -0.8898 0.8898 0.4564 251.7159 786.2499)" fill="#FFFFFF" cx="769.37" cy="187.11" rx="5.56" ry="3.37"/>
				
					<ellipse transform="matrix(0.8334 -0.5527 0.5527 0.8334 37.0898 451.3327)" fill="#FFFFFF" cx="767.1" cy="164.15" rx="1.88" ry="3.1"/>
			</g>
		</g>
	</g>
</g>
<g id="Layer_x5F_Character_1">
	<g id="back_shirt">
		<path fill="#222B3F" d="M380.57,618.22c0,0,25.53,49.45,111.87,64.49c86.34,15.04,170.9-44.43,170.9-44.43l-46.5-81.58
			L438.6,536.12L380.57,618.22z"/>
	</g>
	<g id="left_calf">
		<g>
			<g>
				<path fill="#9F5353" d="M713.94,917.95l11.73,30.27c0,0-4.7,7.34-14.76,6.47l-16.21-30.95L713.94,917.95z"/>
				<g>
					<path fill="#222B3F" d="M711.25,985.56c2.62,8.13,7.82,17.37,14.88,27.41l6.46-2.83c0,0-4.67-18.68-4.75-27.89
						C727.76,973.04,711.39,977.36,711.25,985.56z"/>
					<path fill="#FF8D88" d="M706.76,951.23c0,0,8.55,0.43,19.19-8.41c0,0,34.65,24.84,44.15,27.94c9.5,3.1,27.35,3.19,33.73,3.69
						c6.38,0.5-32.22,19.84-42.17,22.23c-9.95,2.38-22.8-5.84-33.3-8.72c-10.5-2.88-17.11-2.4-17.11-2.4
						S705.76,967.51,706.76,951.23z"/>
				</g>
			</g>
			<g>
				<path fill="#374D6D" d="M651.31,858.63c14.48,24.01,38.89,71.38,38.89,71.38c11.99,1.01,31.05-11.96,31.05-11.96l-48.58-152.27
					c-13.28-30.28-57.14-6.15-49.85,21.85C629.47,808.81,636.82,834.62,651.31,858.63z"/>
				<path opacity="0.3" fill="#FFFFFF" d="M656.69,843.43c-6.34-15.44-20.75-60.25-20.9-60.7c-0.02-0.06-0.04-0.12-0.07-0.17
					l-0.25-0.47l-1.94,0.85l0.28,0.52c0.73,2.26,14.7,45.58,20.93,60.77c6.38,15.55,40.52,75.13,41.97,77.66
					c0.27,0.47,0.85,0.66,1.34,0.44c0.03-0.02,0.07-0.03,0.1-0.05c0.51-0.29,0.68-0.94,0.39-1.44
					C698.19,920.22,663.01,858.85,656.69,843.43z"/>
			</g>
		</g>
	</g>
	<g id="left_thigh">
		<g>
			<g>
				<g>
					<path fill="#374D6D" d="M619.18,591.92c9.74,26.74,43.89,143.76,43.89,143.76l9.61,30.1c3.77,19.16-15.65,32.04-32.16,31.23
						c-0.84-0.04-1.68-0.11-2.5-0.24c-6.17-0.85-11.72-3.75-15.19-9.13c0,0-51-77.95-86.84-150.66
						c-35.84-72.72-43.84-118.05-16.26-133.44c27.57-15.38,50.13,3.98,50.13,3.98S609.43,565.17,619.18,591.92z"/>
					<g opacity="0.3">
						<path fill="#FFFFFF" d="M640.51,797c-0.84-0.04-1.68-0.11-2.5-0.24l-86.85-169.55c-0.27-0.52-0.07-1.15,0.45-1.43
							c0.51-0.26,1.16-0.07,1.43,0.45L640.51,797z"/>
					</g>
				</g>
			</g>
		</g>
	</g>
	<g id="right_calf">
		<g>
			<g>
				<path fill="#9F5353" d="M326.92,900.91l-27.66,21.56c0,0-8.52-1.83-11.24-11.55l26.72-25.99L326.92,900.91z"/>
				<g>
					<path fill="#222B3F" d="M259.23,922.05c-6.69,5.3-13.52,13.42-20.45,23.54l4.92,5.05c0,0,15.86-10.93,24.45-14.23
						C276.74,933.13,266.96,919.31,259.23,922.05z"/>
					<path fill="#FF8D88" d="M289.8,905.81c0,0,2.59,8.16,14.61,15.02c0,0-11.12,41.16-10.68,51.14c0.43,9.98,6.61,26.73,8.38,32.88
						c1.77,6.15-29.88-23.21-35.6-31.7c-5.72-8.49-2.52-23.4-3.51-34.24s-3.75-16.86-3.75-16.86S274.21,910.58,289.8,905.81z"/>
				</g>
			</g>
			<g>
				<path fill="#374D6D" d="M395.38,794.47c-19.87,15.11-86.8,84.42-86.8,84.42s-2.58,7.01,7.25,17.12
					c9.83,10.11,18.58,10.59,18.58,10.59s98.91-68.55,131.17-85.84c29.87-23.27-0.92-67.72-43.45-44.67
					C412.49,782.38,402.94,788.72,395.38,794.47z"/>
				<path opacity="0.3" fill="#FFFFFF" d="M438.6,780.47c-0.37-0.38-0.95-0.43-1.37-0.12c-14.88,10.79-40.15,29.45-53.91,41.82
					c-22.54,20.26-64.84,60.26-65.26,60.66c-0.42,0.4-0.44,1.07-0.04,1.5c0,0,0.01,0.01,0.01,0.01c0.4,0.41,1.06,0.43,1.48,0.03
					c0.42-0.4,42.7-40.38,65.22-60.62c13.69-12.3,38.89-30.92,53.74-41.68C438.99,781.68,439.05,780.93,438.6,780.47L438.6,780.47z"
					/>
			</g>
		</g>
	</g>
	<g id="right_thigh">
		<g>
			<g>
				<path fill="#374D6D" d="M548.05,561.08l-6.85,70.98c0,0-49.81,135.13-60.12,164.53c-0.38,1.08-0.78,2.3-1.19,3.64
					c-13.53,37.68-67.97,27.22-62.31-1.37c0.12-0.56,0.25-1.13,0.37-1.69c0.23-1.05,0.46-2.11,0.69-3.16
					c3.66-16.67,7.25-32.86,7.81-42.75c0.99-17.51,1.88-113.61,6.99-153.4c5.1-39.78,25.18-100.88,68.37-99.7
					C545.01,499.35,550.77,532.87,548.05,561.08z"/>
				<g opacity="0.3">
					<path fill="#FFFFFF" d="M456.23,561.97c-0.12,1.2-11.89,120.07-12.39,142.72c-0.51,23.36-4.98,53.02-7.12,67.29
						c-0.4,2.64-0.96,6.03-1.63,9.92v0.03c-0.32,1.88-1.36,3.57-2.89,4.7c-0.03,0.02-0.05,0.03-0.07,0.05
						c-4.36,3.19-9.21,6.76-14.18,10.49c0.23-1.05,0.46-2.11,0.69-3.16c4.05-3.02,7.98-5.93,11.6-8.58c1.54-1.13,2.58-2.81,2.9-4.7
						c0.61-3.54,1.13-6.63,1.49-9.07c2.14-14.22,6.59-43.8,7.1-67.02c0.5-22.73,12.28-141.68,12.4-142.88
						c0.06-0.58,0.59-1.01,1.15-0.94C455.87,560.87,456.29,561.38,456.23,561.97z"/>
				</g>
				<g>
					<g>
						<path fill="#222B3F" d="M540.42,632.75c-0.02-0.01-0.03-0.02-0.05-0.04c-0.03-0.04-0.05-0.08-0.07-0.11
							C540.33,632.66,540.37,632.71,540.42,632.75z"/>
					</g>
					<g>
						<path fill="#374D6D" d="M561.76,555.99l-4.44,56.91c-0.41,5.17-2.96,9.99-7,13.23l-8.4,6.71c-0.08,0.07-0.16,0.13-0.25,0.17
							c-0.04,0.02-0.08,0.04-0.13,0.05c-0.06,0.02-0.11,0.03-0.18,0.04c-0.06,0.01-0.12,0.02-0.18,0.01c-0.07,0-0.15-0.01-0.22-0.03
							c-0.05-0.01-0.08-0.02-0.12-0.04c-0.04-0.01-0.08-0.03-0.12-0.05c-0.12-0.06-0.22-0.13-0.3-0.24
							c-0.05-0.05-0.09-0.09-0.12-0.15c-0.04-0.06-0.06-0.11-0.09-0.18c-0.02-0.05-0.03-0.09-0.03-0.14
							c-0.03-0.08-0.03-0.17-0.03-0.26l0-0.06l6.93-74.76c0.05-0.58,0.57-1,1.15-0.96c0.58,0.06,1.01,0.57,0.96,1.15l-6.7,72.29
							l6.51-5.21c3.59-2.87,5.85-7.15,6.21-11.72l4.44-56.92c0.04-0.58,0.55-1.01,1.13-0.97
							C561.37,554.9,561.8,555.41,561.76,555.99z"/>
						<path fill="#222B3F" d="M541.18,633.11l-0.07,0c-0.05,0-0.1-0.01-0.15-0.03C541.03,633.1,541.11,633.11,541.18,633.11z"/>
					</g>
				</g>
				<g opacity="0.3">
					<g>
						<path fill="#FFFFFF" d="M540.42,632.75c-0.02-0.01-0.03-0.02-0.05-0.04c-0.03-0.04-0.05-0.08-0.07-0.11
							C540.33,632.66,540.37,632.71,540.42,632.75z"/>
					</g>
					<g>
						<path fill="#FFFFFF" d="M561.76,555.99l-4.44,56.91c-0.41,5.17-2.96,9.99-7,13.23l-8.4,6.71c-0.08,0.07-0.16,0.13-0.25,0.17
							c-0.04,0.02-0.08,0.04-0.13,0.05c-0.06,0.02-0.11,0.03-0.18,0.04c-0.06,0.01-0.12,0.02-0.18,0.01c-0.07,0-0.15-0.01-0.22-0.03
							c-0.05-0.01-0.08-0.02-0.12-0.04c-0.04-0.01-0.08-0.03-0.12-0.05c-0.12-0.06-0.22-0.13-0.3-0.24
							c-0.05-0.05-0.09-0.09-0.12-0.15c-0.04-0.06-0.06-0.11-0.09-0.18c-0.02-0.05-0.03-0.09-0.03-0.14
							c-0.03-0.08-0.03-0.17-0.03-0.26l0-0.06l6.93-74.76c0.05-0.58,0.57-1,1.15-0.96c0.58,0.06,1.01,0.57,0.96,1.15l-6.7,72.29
							l6.51-5.21c3.59-2.87,5.85-7.15,6.21-11.72l4.44-56.92c0.04-0.58,0.55-1.01,1.13-0.97
							C561.37,554.9,561.8,555.41,561.76,555.99z"/>
						<path fill="#FFFFFF" d="M541.18,633.11l-0.07,0c-0.05,0-0.1-0.01-0.15-0.03C541.03,633.1,541.11,633.11,541.18,633.11z"/>
					</g>
				</g>
			</g>
		</g>
	</g>
	<g id="left_arm_00000045612171211685471410000000768731737820540570_">
		<g>
			<path fill="#6081C1" d="M646.34,358.29c10.51,20.86,30.22,63.03,53.69,123.15l-7.57,9.93c0,0-24.7,14.44-34.72,11.96
				s-52.24-83.46-64.92-129.75c-8-29.22,6.65-36.83,23.32-36.57C626.69,337.17,639.13,343.97,646.34,358.29z"/>
			<path fill="#222B3F" d="M702.61,474.26c0,0-25.52-9.4-46.84,9.75c-15.72,14.11-11.47,29.69-11.47,29.69l15.18,11.82
				c0,0,21.79-0.83,38.25-11.14c16.46-10.31,21.7-23.68,21.7-23.68L702.61,474.26z"/>
		</g>
	</g>
	<g id="left_forearm">
		<g>
			<path fill="#9F5353" d="M801.32,495.82c0,0-4.69,32.23-16.46,30.8c-6.34-0.77-9.83-3.09-11.7-5.07
				c-13.78,1.59-88.29,7.92-100.85,1.32c-13.83-7.25,3.66-44.57,39.54-35.25l66.17,12.11L801.32,495.82z"/>
			<g>
				<g>
					<path fill="#222B3F" d="M825.51,459.58l-41.77,96.3c-1.15,2.66-4.24,3.88-6.9,2.73l-7.66-3.32c-2.66-1.15-3.88-4.25-2.73-6.9
						l41.77-96.3c1.16-2.66,4.25-3.88,6.91-2.73l7.66,3.32C825.45,453.83,826.67,456.92,825.51,459.58z"/>
					<path fill="#6081C1" d="M777.49,558.89l-8.97-3.89l-4.05,9.33c-0.78,1.8,0.05,3.9,1.85,4.68l2.44,1.06
						c1.8,0.78,3.9-0.05,4.68-1.85L777.49,558.89z"/>
				</g>
				<polygon fill="#6081C1" points="901.62,264.05 822.79,452.67 815.13,449.35 899.24,262.36 902.39,261.01 913.13,256.43 
					911.55,271.1 				"/>
				<g>
					<path fill="#EEEEEE" d="M918.09,255.93l5.52-2.36c0.76-0.33,1.12-1.21,0.79-1.97c-0.33-0.76-1.21-1.12-1.97-0.79l-5.52,2.36
						c-0.76,0.33-1.12,1.21-0.79,1.97C916.45,255.91,917.33,256.26,918.09,255.93"/>
					<path fill="#EEEEEE" d="M1084.86,184.7l10.75-4.59c0.76-0.33,1.12-1.21,0.79-1.97c-0.33-0.76-1.21-1.12-1.97-0.79l-10.75,4.59
						c-0.76,0.33-1.12,1.21-0.79,1.97C1083.21,184.67,1084.09,185.03,1084.86,184.7z M1063.36,193.88l10.75-4.59
						c0.76-0.33,1.12-1.21,0.79-1.97c-0.33-0.76-1.21-1.12-1.97-0.79l-10.75,4.59c-0.76,0.33-1.12,1.21-0.79,1.97
						C1061.71,193.86,1062.6,194.21,1063.36,193.88z M1041.86,203.07l10.75-4.59c0.76-0.33,1.12-1.21,0.79-1.97
						c-0.33-0.76-1.21-1.12-1.97-0.79l-10.75,4.59c-0.76,0.33-1.12,1.21-0.79,1.97C1040.21,203.04,1041.1,203.39,1041.86,203.07z
						 M1020.36,212.25l10.75-4.59c0.76-0.33,1.12-1.21,0.79-1.97c-0.33-0.76-1.21-1.12-1.97-0.79l-10.75,4.59
						c-0.76,0.33-1.12,1.21-0.79,1.97C1018.72,212.22,1019.6,212.58,1020.36,212.25z M998.86,221.43l10.75-4.59
						c0.76-0.33,1.12-1.21,0.79-1.97c-0.33-0.76-1.21-1.12-1.97-0.79l-10.75,4.59c-0.76,0.33-1.12,1.21-0.79,1.97
						C997.22,221.41,998.1,221.76,998.86,221.43z M977.36,230.62l10.75-4.59c0.76-0.33,1.12-1.21,0.79-1.97
						c-0.33-0.76-1.21-1.12-1.97-0.79l-10.75,4.59c-0.76,0.33-1.12,1.21-0.79,1.97C975.72,230.59,976.6,230.94,977.36,230.62z
						 M955.86,239.8l10.75-4.59c0.76-0.33,1.12-1.21,0.79-1.97c-0.33-0.76-1.21-1.12-1.97-0.79l-10.75,4.59
						c-0.76,0.33-1.12,1.21-0.79,1.97C954.22,239.77,955.1,240.13,955.86,239.8z M934.36,248.99l10.75-4.59
						c0.76-0.33,1.12-1.21,0.79-1.97c-0.33-0.76-1.21-1.12-1.97-0.79l-10.75,4.59c-0.76,0.33-1.12,1.21-0.79,1.97
						C932.72,248.96,933.6,249.31,934.36,248.99z"/>
					<path fill="#EEEEEE" d="M1106.36,175.52l5.52-2.36c0.76-0.33,1.12-1.21,0.79-1.97c-0.33-0.76-1.21-1.12-1.97-0.79l-5.52,2.36
						c-0.76,0.33-1.12,1.21-0.79,1.97C1104.71,175.49,1105.59,175.84,1106.36,175.52"/>
					<path fill="#EEEEEE" d="M917.18,260.83l5.93-0.94c0.82-0.13,1.38-0.9,1.25-1.72c-0.13-0.82-0.9-1.38-1.72-1.25l-5.93,0.94
						c-0.82,0.13-1.38,0.9-1.25,1.72C915.6,260.4,916.36,260.96,917.18,260.83"/>
					<path fill="#EEEEEE" d="M1077.85,235.45l11.9-1.88c0.82-0.13,1.38-0.9,1.25-1.72c-0.13-0.82-0.9-1.38-1.72-1.25l-11.9,1.88
						c-0.82,0.13-1.38,0.9-1.25,1.72C1076.27,235.02,1077.03,235.57,1077.85,235.45z M1054.05,239.21l11.9-1.88
						c0.82-0.13,1.38-0.9,1.25-1.72c-0.13-0.82-0.9-1.38-1.72-1.25l-11.9,1.88c-0.82,0.13-1.38,0.9-1.25,1.72
						C1052.46,238.78,1053.23,239.34,1054.05,239.21z M1030.24,242.97l11.9-1.88c0.82-0.13,1.38-0.9,1.25-1.72
						c-0.13-0.82-0.9-1.38-1.72-1.25l-11.9,1.88c-0.82,0.13-1.38,0.9-1.25,1.72C1028.65,242.54,1029.42,243.1,1030.24,242.97z
						 M1006.43,246.73l11.9-1.88c0.82-0.13,1.38-0.9,1.25-1.72c-0.13-0.82-0.9-1.38-1.72-1.25l-11.9,1.88
						c-0.82,0.13-1.38,0.9-1.25,1.72C1004.85,246.3,1005.61,246.86,1006.43,246.73z M982.63,250.49l11.9-1.88
						c0.82-0.13,1.38-0.9,1.25-1.72c-0.13-0.82-0.9-1.38-1.72-1.25l-11.9,1.88c-0.82,0.13-1.38,0.9-1.25,1.72
						C981.04,250.06,981.81,250.62,982.63,250.49z M958.82,254.25l11.9-1.88c0.82-0.13,1.38-0.9,1.25-1.72
						c-0.13-0.82-0.9-1.38-1.72-1.25l-11.9,1.88c-0.82,0.13-1.38,0.9-1.25,1.72C957.23,253.82,958,254.38,958.82,254.25z
						 M935.01,258.02l11.9-1.88c0.82-0.13,1.38-0.9,1.25-1.72c-0.13-0.82-0.9-1.38-1.72-1.25l-11.9,1.88
						c-0.82,0.13-1.38,0.9-1.25,1.72C933.43,257.59,934.19,258.15,935.01,258.02z"/>
					<path fill="#EEEEEE" d="M1101.66,231.68l5.93-0.94c0.82-0.13,1.38-0.9,1.25-1.72c-0.13-0.82-0.9-1.38-1.72-1.25l-5.93,0.94
						c-0.82,0.13-1.38,0.9-1.25,1.72C1100.07,231.25,1100.84,231.81,1101.66,231.68"/>
					<path fill="#EEEEEE" d="M1083,285.79l11.91,1.44c0.82,0.1,1.57-0.49,1.67-1.31c0.1-0.82-0.49-1.57-1.31-1.67l-11.91-1.44
						c-0.82-0.1-1.57,0.49-1.67,1.31C1081.59,284.95,1082.18,285.69,1083,285.79z M1107.53,289l11.91,1.44
						c0.82,0.1,1.57-0.49,1.67-1.31c0.1-0.82-0.49-1.57-1.31-1.67l-11.91-1.44c-0.82-0.1-1.57,0.49-1.67,1.31
						C1106.12,288.15,1106.71,288.9,1107.53,289z M1059.17,282.91l11.91,1.44c0.82,0.1,1.57-0.49,1.67-1.31
						c0.1-0.82-0.49-1.57-1.31-1.67l-11.91-1.44c-0.82-0.1-1.57,0.49-1.67,1.31C1057.76,282.07,1058.35,282.81,1059.17,282.91z
						 M1035.34,280.03l11.91,1.44c0.82,0.1,1.57-0.49,1.67-1.31c0.1-0.82-0.49-1.57-1.31-1.67l-11.91-1.44
						c-0.82-0.1-1.57,0.49-1.67,1.31C1033.94,279.19,1034.52,279.94,1035.34,280.03z M1011.52,277.16l11.91,1.44
						c0.82,0.1,1.57-0.49,1.67-1.31c0.1-0.82-0.49-1.57-1.31-1.67l-11.91-1.44c-0.82-0.1-1.57,0.49-1.67,1.31
						C1010.11,276.31,1010.7,277.06,1011.52,277.16z M987.69,274.28l11.91,1.44c0.82,0.1,1.57-0.49,1.67-1.31s-0.49-1.57-1.31-1.67
						l-11.91-1.44c-0.82-0.1-1.57,0.49-1.67,1.31C986.28,273.43,986.87,274.18,987.69,274.28z M963.86,271.4l11.91,1.44
						c0.82,0.1,1.57-0.49,1.67-1.31s-0.49-1.57-1.31-1.67l-11.91-1.44c-0.82-0.1-1.57,0.49-1.67,1.31
						C962.46,270.55,963.04,271.3,963.86,271.4z M940.04,268.52l11.91,1.44c0.82,0.1,1.57-0.49,1.67-1.31s-0.49-1.57-1.31-1.67
						l-11.91-1.44c-0.82-0.1-1.57,0.49-1.67,1.31C938.63,267.67,939.22,268.42,940.04,268.52z M916.21,265.64l11.91,1.44
						c0.82,0.1,1.57-0.49,1.67-1.31s-0.49-1.57-1.31-1.67l-11.91-1.44c-0.82-0.1-1.57,0.49-1.67,1.31S915.39,265.54,916.21,265.64z"
						/>
					<path fill="#EEEEEE" d="M1092.92,343.16l6,2.46c0.77,0.31,1.64-0.05,1.96-0.82s-0.05-1.64-0.82-1.96l-6-2.46
						c-0.77-0.31-1.64,0.05-1.96,0.82S1092.15,342.85,1092.92,343.16z M1070.71,334.06l11.1,4.55c0.77,0.31,1.64-0.05,1.96-0.82
						s-0.05-1.64-0.82-1.96l-11.1-4.55c-0.77-0.31-1.64,0.05-1.96,0.82S1069.94,333.75,1070.71,334.06z M1048.5,324.96l11.1,4.55
						c0.77,0.31,1.64-0.05,1.96-0.82s-0.05-1.64-0.82-1.96l-11.1-4.55c-0.77-0.31-1.64,0.05-1.96,0.82S1047.74,324.64,1048.5,324.96
						z M1026.3,315.85l11.1,4.55c0.77,0.31,1.64-0.05,1.96-0.82c0.31-0.77-0.05-1.64-0.82-1.96l-11.1-4.55
						c-0.77-0.31-1.64,0.05-1.96,0.82S1025.53,315.54,1026.3,315.85z M1004.09,306.75l11.1,4.55c0.77,0.31,1.64-0.05,1.96-0.82
						c0.31-0.77-0.05-1.64-0.82-1.96l-11.1-4.55c-0.77-0.31-1.64,0.05-1.96,0.82C1002.96,305.56,1003.32,306.43,1004.09,306.75z
						 M981.88,297.64l11.1,4.55c0.77,0.31,1.64-0.05,1.96-0.82c0.31-0.77-0.05-1.64-0.82-1.96l-11.1-4.55
						c-0.77-0.31-1.64,0.05-1.96,0.82C980.75,296.45,981.12,297.33,981.88,297.64z M959.68,288.54l11.1,4.55
						c0.77,0.31,1.64-0.05,1.96-0.82c0.31-0.77-0.05-1.64-0.82-1.96l-11.1-4.55c-0.77-0.31-1.64,0.05-1.96,0.82
						C958.54,287.35,958.91,288.23,959.68,288.54z M937.47,279.44l11.1,4.55c0.77,0.31,1.64-0.05,1.96-0.82
						c0.31-0.77-0.05-1.64-0.82-1.96l-11.1-4.55c-0.77-0.31-1.64,0.05-1.96,0.82C936.34,278.25,936.7,279.12,937.47,279.44z
						 M915.27,270.33l11.1,4.55c0.77,0.31,1.64-0.05,1.96-0.82c0.31-0.77-0.05-1.64-0.82-1.96l-11.1-4.55
						c-0.77-0.31-1.64,0.05-1.96,0.82C914.13,269.14,914.5,270.02,915.27,270.33z"/>
					<path fill="#EEEEEE" d="M1090.54,400l4.15,2.94c0.68,0.48,1.61,0.32,2.09-0.35c0.48-0.68,0.32-1.61-0.35-2.09l-4.15-2.94
						c-0.68-0.48-1.61-0.32-2.09,0.35C1089.7,398.59,1089.86,399.52,1090.54,400z M1070.97,386.11l9.79,6.95
						c0.68,0.48,1.61,0.32,2.09-0.35c0.48-0.68,0.32-1.61-0.35-2.09l-9.79-6.95c-0.68-0.48-1.61-0.32-2.09,0.35
						C1070.13,384.69,1070.29,385.63,1070.97,386.11z M1051.4,372.22l9.79,6.95c0.68,0.48,1.61,0.32,2.09-0.35
						c0.48-0.68,0.32-1.61-0.35-2.09l-9.79-6.95c-0.68-0.48-1.61-0.32-2.09,0.35C1050.56,370.8,1050.72,371.74,1051.4,372.22z
						 M1031.83,358.32l9.78,6.95c0.68,0.48,1.61,0.32,2.09-0.35c0.48-0.68,0.32-1.61-0.35-2.09l-9.78-6.95
						c-0.68-0.48-1.61-0.32-2.09,0.35C1030.99,356.91,1031.15,357.84,1031.83,358.32z M1012.26,344.43l9.79,6.95
						c0.68,0.48,1.61,0.32,2.09-0.35c0.48-0.68,0.32-1.61-0.35-2.09l-9.79-6.95c-0.68-0.48-1.61-0.32-2.09,0.35
						S1011.58,343.95,1012.26,344.43z M992.69,330.54l9.79,6.95c0.68,0.48,1.61,0.32,2.09-0.35s0.32-1.61-0.35-2.09l-9.79-6.95
						c-0.68-0.48-1.61-0.32-2.09,0.35S992.01,330.06,992.69,330.54z M973.12,316.64l9.79,6.95c0.68,0.48,1.61,0.32,2.09-0.35
						s0.32-1.61-0.35-2.09l-9.79-6.95c-0.68-0.48-1.61-0.32-2.09,0.35S972.44,316.16,973.12,316.64z M953.55,302.75l9.79,6.95
						c0.68,0.48,1.61,0.32,2.09-0.35s0.32-1.61-0.35-2.09l-9.79-6.95c-0.68-0.48-1.61-0.32-2.09,0.35S952.87,302.27,953.55,302.75z
						 M933.98,288.86l9.79,6.95c0.68,0.48,1.61,0.32,2.09-0.35s0.32-1.61-0.35-2.09l-9.79-6.95c-0.68-0.48-1.61-0.32-2.09,0.35
						S933.3,288.38,933.98,288.86z M914.41,274.97l9.78,6.95c0.68,0.48,1.61,0.32,2.09-0.35s0.32-1.61-0.35-2.09l-9.78-6.95
						c-0.68-0.48-1.61-0.32-2.09,0.35C913.57,273.55,913.73,274.49,914.41,274.97z"/>
				</g>
			</g>
			<g>
				<path fill="#9F5353" d="M796.03,490.42c10.42-1.54,18.56,4.63,13.85,10.38c0,0,2.3,5.06-2.14,10.03c0,0,2.67,4.45-4.24,9.91
					c0,0,0.96,5-3.89,7.82c-4.84,2.82-12.31-0.04-15.65-2.05s-2.14-8.16,1.76-8.27c0,0-3.67-0.37-3.41-4.23
					c0.26-3.86,4.71-4.56,4.71-4.56s-3.67-2.28-3.15-5.54c0.52-3.26,4.68-4.13,4.68-4.13S780.13,492.77,796.03,490.42z"/>
				
					<path fill="none" stroke="#2E374F" stroke-width="2" stroke-linecap="round" stroke-linejoin="round" stroke-miterlimit="10" d="
					M782.16,521.55c0.4-1.76,1.66-3.26,3.57-3.31c0,0-3.67-0.37-3.41-4.23c0.26-3.86,4.71-4.56,4.71-4.56s-3.67-2.28-3.15-5.54
					c0.52-3.26,4.68-4.13,4.68-4.13s-8.43-7,7.48-9.36"/>
				
					<path fill="none" stroke="#2E374F" stroke-width="2" stroke-linecap="round" stroke-linejoin="round" stroke-miterlimit="10" d="
					M790.54,499.36c0,0,8.83-1.77,17.25,0.63"/>
				
					<path fill="none" stroke="#2E374F" stroke-width="2" stroke-linecap="round" stroke-linejoin="round" stroke-miterlimit="10" d="
					M787.02,509.44c0,0,9.25-1.74,18.69,1.01"/>
				
					<path fill="none" stroke="#2E374F" stroke-width="2" stroke-linecap="round" stroke-linejoin="round" stroke-miterlimit="10" d="
					M785.73,518.24c0,0,9.3-0.62,15.6,1.39"/>
			</g>
			<g>
				<path fill="#9F5353" d="M773.16,502.24c0,0,3.1-8.38,8.86-15.33c5.75-6.95,16.1-6.59,17.14,3.27
					c1.18,11.16-5.33,16.51-7.11,5.46C792.05,495.64,786.89,517.92,773.16,502.24z"/>
				
					<path fill="none" stroke="#2E374F" stroke-width="2" stroke-linecap="round" stroke-linejoin="round" stroke-miterlimit="10" d="
					M799.3,492.2c0.25,9.75-5.57,13.8-7.24,3.44c0,0-2.88,12.39-10.03,12.18"/>
			</g>
		</g>
	</g>
	<g id="hair">
		<g>
			<path fill="#374D6D" d="M583.35,219.36c0,0-3.15-18.66-15.3-26.26c-12.15-7.6-25.35,3.2-32.44,19.17
				c-7.1,15.97,0.67,33.97,24.07,24.19C578.07,228.77,583.35,219.36,583.35,219.36z"/>
			<path fill="#374D6D" d="M579.81,218.53c0,0-24.86,4.63-28.82,24.63s24.81,45.88,46.47,40.84s22.29-22.15,22.29-22.15
				s16.42,3.75,21.7-11.54s-1.73-20.58-10.44-21.66c0,0,9.23-18.13-7.89-25.6S589.56,200.73,579.81,218.53z"/>
			<g opacity="0.3">
				<path fill="#FFFFFF" d="M553.82,236.57c-0.18,0-0.36-0.04-0.52-0.14c-0.51-0.29-0.69-0.93-0.4-1.44
					c7.88-13.88,26.56-17.48,26.74-17.5c0.57-0.09,1.1,0.3,1.2,0.87c0.1,0.57-0.28,1.11-0.85,1.22
					c-0.18,0.03-17.88,3.47-25.25,16.46C554.55,236.38,554.19,236.57,553.82,236.57z"/>
			</g>
		</g>
	</g>
	<g id="body">
		<g>
			<g>
				<g>
					<path fill="#FF8D88" d="M613.79,566.52c0,0-12.72,11.19-67.2,8.35c-54.49-2.84-107.33-35.15-109.09-35.58
						c-1.76-0.43,95.86-207.32,95.86-207.32l52.02-26.72l48.51,60.02l-10.65,54.19L613.79,566.52z"/>
					<g opacity="0.3">
						<path fill="#FFFFFF" d="M495.92,551.55c-19.22-4.73-32.15-9.23-32.47-9.35c-0.55-0.19-0.84-0.8-0.65-1.35
							c0.19-0.55,0.8-0.84,1.35-0.65c0.82,0.29,82.53,28.7,142,17.63c0.57-0.11,1.13,0.27,1.23,0.85c0.11,0.57-0.27,1.13-0.85,1.23
							C570.12,566.7,525.54,558.84,495.92,551.55z"/>
					</g>
				</g>
				<path fill="#6081C1" d="M543.11,476.91c-26.96,87.55-78.62,152.44-78.62,152.44c-37.89,10.59-83.93-11.13-83.93-11.13
					s63.05-119.75,83.58-169.47s41.28-136.29,41.28-136.29s43.44-8.69,68.66-11.74c-3.76,10.7-18.83,55.12-22.9,88.55
					C546.56,427.54,543.11,476.91,543.11,476.91z"/>
				<g>
					<path fill="#6081C1" d="M613.33,638.28L599.8,477.59c0,0,0.63-98.61,0.17-119.47c-0.47-20.86-3.9-51.99-3.9-51.99
						s19.89,13.18,42.58,41.98l-2.56,10.41c0,0,2.21,44.12,0.99,51.59c-1.22,7.48-13.67,31.49-13.67,31.49s10.5,92.26,39.95,196.68
						C663.34,638.28,640.82,643.26,613.33,638.28z"/>
				</g>
				<g opacity="0.3">
					<g>
						<path fill="#FFFFFF" d="M623.2,486.89c-0.4-0.1-0.69-0.46-0.69-0.89c0.18-26-0.03-44.21-0.03-44.39c0-0.15,0.03-0.3,0.1-0.43
							c0.12-0.24,12.39-23.97,13.58-31.22c1.19-7.29-0.98-50.96-1-51.4c-0.02-0.5,0.36-0.93,0.86-0.95c0.5-0.02,0.93,0.36,0.95,0.86
							c0.09,1.81,2.2,44.3,0.98,51.78c-1.19,7.26-12.37,29.07-13.66,31.56c0.02,2.18,0.2,19.75,0.03,44.2c0,0.5-0.41,0.91-0.91,0.9
							C623.34,486.91,623.27,486.9,623.2,486.89z"/>
					</g>
				</g>
				<g>
					<path fill="#6081C1" d="M583.37,294.9c-12.28-1.06-29.04,22.73-39.17,44.92l10.27,15.39l-19.03,20.21
						c0,0,7.62,54.58,7.69,101.48c0,0,12.64-73.24,18.9-113.82c10.73-40.62,29.87-37.48,35.59,4.61
						c4.22,46.06,2.2,109.88,2.2,109.88s16.5-60.26,21.41-93.7l-15.85-19.88l9.63-13.81C614.98,350.2,606.73,296.92,583.37,294.9z"
						/>
					<g opacity="0.3">
						<path fill="#FFFFFF" d="M602.71,464.76c-0.01,0-0.02-0.01-0.03-0.01c-0.48-0.14-0.76-0.64-0.62-1.12
							c0.13-0.46,13.3-46.51,18.2-79.48l-15.61-19.57c-0.25-0.31-0.26-0.76-0.03-1.09l9.42-13.51c-0.43-2.6-3.33-18.94-9.61-32.95
							c-0.21-0.46,0-0.99,0.46-1.2c0.46-0.2,1,0,1.2,0.46c6.91,15.42,9.78,33.59,9.81,33.77c0.04,0.23-0.02,0.47-0.15,0.66
							l-9.24,13.26l15.43,19.35c0.16,0.2,0.22,0.45,0.19,0.7c-4.87,33.12-18.17,79.64-18.3,80.11
							C603.67,464.6,603.19,464.88,602.71,464.76z"/>
					</g>
					<g opacity="0.3">
						<path fill="#FFFFFF" d="M542.54,459.79c-0.38-0.09-0.67-0.43-0.69-0.85c-1.5-41.28-7.27-82.97-7.33-83.39
							c-0.04-0.27,0.05-0.55,0.24-0.75l18.54-19.69l-9.87-14.79c-0.17-0.26-0.2-0.6-0.07-0.88c6.35-13.9,14.36-26.64,21.99-34.96
							c0.34-0.37,0.91-0.39,1.28-0.06c0.37,0.34,0.39,0.91,0.06,1.28c-7.42,8.09-15.23,20.47-21.47,34.03l9.99,14.97
							c0.23,0.35,0.2,0.82-0.09,1.13l-18.74,19.9c0.62,4.55,5.87,44.02,7.28,83.14c0.02,0.5-0.37,0.92-0.87,0.94
							C542.7,459.82,542.62,459.81,542.54,459.79z"/>
					</g>
				</g>
			</g>
			<g>
				<path fill="#9F5353" d="M597.59,367.71c-5.58,10.03-15.14,12.65-15.14,12.65C570.17,376.32,562,363.1,562,363.1l10.17-41.29
					c2.63-11.28,6.69-38.99,8.13-49.09c0.33-2.36,0.53-3.75,0.53-3.75l18.35,8.9c0,0-1.83,9.24-3.53,19.6
					c-1.61,9.86-3.05,20.79-2.65,25.74C593.82,333.36,597.59,367.71,597.59,367.71z"/>
				<path fill="#222B3F" d="M595.64,297.46c-10.3-6.2-14.04-16.68-15.34-24.74c0.33-2.36,0.53-3.75,0.53-3.75l18.35,8.9
					C599.17,277.86,597.35,287.1,595.64,297.46z"/>
			</g>
		</g>
	</g>
	<g id="head">
		<g>
			<g>
				<path fill="#9F5353" d="M622.09,242.92c0,0,3.99,16.07-1.23,33.6c-5.22,17.53-19.62,14.91-31.65,4.49s-14.15-33.2-14.15-33.2
					s-0.72-19.3,13.49-23.42S617.72,227.52,622.09,242.92z"/>
				<g>
					<path fill="#222B3F" d="M589.71,249.05c0,0,3.59-7.31,9.13-4.54c0,0,0.15-1.66,1.59-1.7s1.61,4.49,1.61,4.49
						S595.39,246.77,589.71,249.05z"/>
					<path fill="#222B3F" d="M620.85,252.44c0,0-0.47-7.43-4.75-5.36c0,0-0.11-1.37-1.05-1.52c-1.61-0.26-1.93,4.01-1.93,4.01
						S617.75,249.63,620.85,252.44z"/>
					<g>
						
							<ellipse transform="matrix(0.0285 -0.9996 0.9996 0.0285 324.7707 845.8096)" fill="#222B3F" cx="597.52" cy="255.82" rx="3.78" ry="3.06"/>
						<circle fill="#FFFFFF" cx="598.23" cy="254.5" r="0.81"/>
					</g>
					<g>
						
							<ellipse transform="matrix(0.0285 -0.9996 0.9996 0.0285 341.7445 864.301)" fill="#222B3F" cx="615.52" cy="256.34" rx="3.78" ry="3.06"/>
						<circle fill="#FFFFFF" cx="616.23" cy="255.01" r="0.81"/>
					</g>
					<g>
						<path fill="#222B3F" d="M607.88,270.76c-0.76,0-1.47-0.11-2-0.26c-0.56-0.16-0.89-0.74-0.73-1.3c0.16-0.56,0.74-0.89,1.3-0.73
							c0.13,0.04,3.21,0.85,4.08-1.18c0.19-0.45,0.09-0.62,0.04-0.69c-0.38-0.6-2.06-0.97-3.13-1.01c-0.58-0.02-1.03-0.5-1.02-1.08
							l0.15-7.39c0.01-0.58,0.51-1.04,1.08-1.04c0.58,0.01,1.05,0.5,1.04,1.08l-0.13,6.41c1.19,0.17,3,0.64,3.8,1.9
							c0.34,0.54,0.64,1.43,0.12,2.65C611.59,270.18,609.6,270.76,607.88,270.76z"/>
					</g>
					<g>
						<path fill="#222B3F" d="M605.44,278.99c-2.83,0-7.19-0.91-11.34-5.45c-0.39-0.43-0.36-1.1,0.07-1.49
							c0.43-0.39,1.1-0.36,1.49,0.07c5.81,6.36,11.94,4.55,12.2,4.47c0.56-0.17,1.15,0.14,1.33,0.69c0.18,0.56-0.13,1.15-0.68,1.33
							C608.38,278.63,607.21,278.99,605.44,278.99z"/>
					</g>
				</g>
				<path fill="#374D6D" d="M588.5,230.41c0,0,13.77,20.68,39.89,18.53c0,0-6.59-37.41-38.65-30.67
					c-32.06,6.74-26.23,32.79-12.69,41C577.05,259.26,588.18,252.39,588.5,230.41z"/>
				<g>
					<path fill="none" stroke="#EEEEEE" stroke-miterlimit="10" d="M587.43,263.42l-8.37-7.42c-1.64-1.46-4.22-0.94-5.17,1.04
						l-2,4.17c-0.63,1.31-0.32,2.88,0.75,3.87l12.54,11.46"/>
					<path fill="#6081C1" d="M623.55,266.27c-0.13,1.34-0.27,2.97-0.51,4.73c-1.07,7.87-3.99,18.47-15.65,19.16
						c-14.26,0.83-24.04-14.26-24.04-14.26l1.84-8.79l1.05-4.99c0,0,20.89-0.75,23-0.17C611.34,262.54,623.55,266.27,623.55,266.27z
						"/>
					<path fill="#EEEEEE" d="M623.55,266.27c-0.13,1.34-0.27,2.97-0.51,4.73c-4.6-1.32-13.67-3.89-14.82-3.89h-23.03l1.05-4.99
						c0,0,20.89-0.75,23-0.17C611.34,262.54,623.55,266.27,623.55,266.27z"/>
				</g>
				<g>
					<g>
						<path fill="#9F5353" d="M584.16,269.67l-3.63-11.98c0,0-5.07-8.85-13.24-6.84C559.12,252.85,560.11,274.25,584.16,269.67z"/>
						<g>
							<path fill="#222B3F" d="M580.87,265.69c-0.34,0-0.68-0.16-0.88-0.47c-4.47-6.68-12.12-8.4-12.19-8.42
								c-0.57-0.12-0.93-0.69-0.81-1.26c0.12-0.57,0.68-0.93,1.26-0.81c0.35,0.08,8.56,1.93,13.5,9.31
								c0.32,0.49,0.19,1.14-0.29,1.47C581.28,265.63,581.07,265.69,580.87,265.69z"/>
						</g>
						<g>
							<path fill="#222B3F" d="M571.71,265.77c-0.03,0-0.07,0-0.1,0c-0.58-0.05-1.01-0.57-0.96-1.15c0.01-0.14,0.33-3.47,2.1-7
								c0.26-0.52,0.9-0.73,1.42-0.47c0.52,0.26,0.73,0.9,0.47,1.42c-1.58,3.15-1.88,6.21-1.88,6.24
								C572.71,265.36,572.25,265.77,571.71,265.77z"/>
						</g>
					</g>
					<g>
						<path fill="#FF8D88" d="M572.75,287.17c-0.5,0-0.98-0.08-1.46-0.23c-1.87-0.61-3.2-2.33-3.77-4.84
							c-0.52-2.32-0.32-5.09,0.56-7.8c0.68-2.09,1.71-3.98,2.98-5.46c0.38-0.44,1.05-0.5,1.49-0.12c0.44,0.38,0.5,1.05,0.12,1.49
							c-1.09,1.28-1.98,2.92-2.57,4.75c-0.77,2.36-0.95,4.73-0.51,6.68c0.39,1.76,1.23,2.92,2.35,3.29
							c1.13,0.37,2.49-0.09,3.84-1.28c1.5-1.32,2.75-3.35,3.51-5.71c0.77-2.36,0.95-4.73,0.51-6.68c-0.39-1.76-1.23-2.92-2.35-3.29
							c-0.56-0.18-0.86-0.78-0.68-1.33c0.18-0.56,0.77-0.86,1.33-0.68c1.87,0.61,3.2,2.33,3.77,4.84c0.52,2.32,0.32,5.09-0.56,7.8
							c-0.88,2.71-2.35,5.07-4.13,6.64C575.74,286.51,574.21,287.17,572.75,287.17z"/>
					</g>
				</g>
			</g>
		</g>
	</g>
	<g id="left_arm">
		<g>
			<g>
				<path fill="#6081C1" d="M529.34,358.29c15.62-23.79-8.46-53.82-35.3-44.36c-0.24,0.09-0.49,0.17-0.73,0.26
					c-24.58,8.7-116.41,47.1-116.41,47.1l-12.93,23.46c0,0,4.42,19.52,16.65,22.67c12.22,3.15,101.51-20.92,131.71-35.04
					C520.27,368.66,525.73,363.78,529.34,358.29z"/>
			</g>
			<g opacity="0.3">
				<path fill="#FFFFFF" d="M485.18,383.82c11.1-3.73,20.78-7.37,27.56-10.54c8.09-3.78,13.72-8.79,17.43-14.44
					c3.71-5.65,5.26-11.67,5.09-17.45c-0.38-12.68-8.94-24.15-20.84-28.46c-0.52-0.19-1.09,0.08-1.28,0.6
					c-0.19,0.52,0.08,1.09,0.6,1.28c11.12,4.01,19.19,14.83,19.52,26.63c0.16,5.39-1.28,10.98-4.76,16.3
					c-3.5,5.33-8.8,10.08-16.6,13.73c-6.66,3.12-16.29,6.75-27.35,10.46c-0.52,0.18-0.81,0.74-0.63,1.27
					C484.09,383.71,484.66,384,485.18,383.82L485.18,383.82z"/>
			</g>
			<path fill="#222B3F" d="M406.66,364.55c-19.25-15.23-42.93-16.09-51.62,13.3s33.17,50.97,54.93,32.96
				C426.39,397.23,426.64,380.35,406.66,364.55z"/>
		</g>
	</g>
	<g id="disinfectant">
		<g>
			<g>
				<path fill="#222B3F" d="M401.6,510.32h-64.53c-6.64,0-12.02,5.38-12.02,12.03v41.53h88.59v-41.53
					C413.63,515.7,408.26,510.32,401.6,510.32z M404.73,555.91h-70.78v-34.65c0-1.64,1.33-2.97,2.97-2.97h64.83
					c1.64,0,2.97,1.33,2.97,2.97V555.91z"/>
				<path fill="#222B3F" d="M394.71,510.32h-64.53c-6.64,0-12.02,5.38-12.02,12.03v41.53h88.59v-41.53
					C406.74,515.7,401.36,510.32,394.71,510.32z M327.06,555.91v-34.65c0-1.64,1.33-2.97,2.97-2.97 M330.03,518.29h64.83
					c1.64,0,2.97,1.33,2.97,2.97v34.65h-70.78"/>
				<g opacity="0.3">
					<path fill="#FFFFFF" d="M407.74,559.86v-37.51c0-3.79-1.62-7.21-4.2-9.59c-0.41-0.37-1.04-0.35-1.41,0.06
						c-0.37,0.41-0.35,1.04,0.06,1.41c2.19,2.02,3.55,4.9,3.56,8.12v37.51c0,0.55,0.45,1,1,1
						C407.3,560.86,407.74,560.41,407.74,559.86L407.74,559.86z M407.74,563.88v-4.02c0-0.55-0.45-1-1-1c-0.55,0-1,0.45-1,1v4.02
						c0,0.55,0.45,1,1,1C407.3,564.88,407.74,564.44,407.74,563.88z M328.06,555.91v-34.65c0-1.09,0.88-1.97,1.97-1.97h2.71
						c0.55,0,1-0.45,1-1c0-0.55-0.45-1-1-1h-2.71c-1.09,0-2.09,0.45-2.81,1.16c-0.72,0.72-1.16,1.72-1.16,2.81v34.65
						c0,0.55,0.45,1,1,1C327.61,556.91,328.06,556.47,328.06,555.91L328.06,555.91z"/>
				</g>
			</g>
			<path fill="#6081C1" d="M458.6,677.84H273.2c-7.93,0-14.35-6.43-14.35-14.35v-107.4c0-7.93,6.43-14.35,14.35-14.35h185.4
				c7.93,0,14.35,6.43,14.35,14.35v107.4C472.95,671.42,466.52,677.84,458.6,677.84z"/>
			<path fill="#222B3F" d="M458.6,677.84h-54.95c-7.93,0-14.35-6.43-14.35-14.35v-107.4c0-7.93,6.43-14.35,14.35-14.35h54.95
				c7.93,0,14.35,6.43,14.35,14.35v107.4C472.95,671.42,466.52,677.84,458.6,677.84z"/>
			<g>
				<path fill="#6081C1" d="M457.15,616.12v21.34l-13.72,2.55l-2.56,0.48c-5.38,0-9.75-6.13-9.75-13.7s4.37-13.7,9.75-13.7
					l2.56,0.48L457.15,616.12z"/>
				<ellipse fill="#FF8D88" cx="457.15" cy="626.79" rx="7.59" ry="10.67"/>
				<g>
					<path fill="#6081C1" d="M456.83,629.77l0.1-0.91L456.83,629.77L456.83,629.77l0.1-0.91L456.83,629.77
						c0.08,0.01,4.75,0.56,12.1,3.43c11.03,4.3,28.07,13.77,44.84,34.52c16.76,20.75,33.28,52.84,42.99,102.5
						c7.65,39.14,23.71,67.18,43.96,85.4c20.25,18.23,44.63,26.57,68.57,26.56c26.86,0,53.19-10.43,72.85-29.01
						c9.83-9.29,17.99-20.61,23.69-33.68c5.7-13.06,8.93-27.86,8.93-44.05c0-12.73-2-26.32-6.33-40.61
						c-9.7-31.95-13.02-60.3-13.02-84.15c0-25.95,3.93-46.57,7.84-60.68c1.96-7.05,3.91-12.47,5.36-16.11
						c0.73-1.82,1.33-3.19,1.74-4.1c0.21-0.45,0.37-0.79,0.48-1.01c0.05-0.11,0.09-0.19,0.12-0.24l0.03-0.05l0.01-0.01l-0.57-0.29
						l0.57,0.29l0,0l-0.57-0.29l0.57,0.29c0.75-1.48,0.17-3.28-1.3-4.04c-1.48-0.75-3.28-0.17-4.04,1.3
						c-0.15,0.3-16.22,31.82-16.22,84.94c0,24.4,3.4,53.36,13.28,85.89c4.18,13.77,6.08,26.76,6.08,38.87
						c0,15.39-3.06,29.34-8.43,41.65c-8.05,18.46-21.3,33.22-37.31,43.38c-16.01,10.16-34.76,15.71-53.74,15.7
						c-22.56-0.01-45.41-7.8-64.56-25.02c-19.14-17.22-34.62-43.96-42.09-82.09c-6.63-33.88-16.42-59.93-27.44-79.93
						c-16.52-30.01-35.81-46.39-51.04-55.2c-15.23-8.82-26.37-10.09-26.69-10.12c-1.65-0.18-3.13,1.01-3.31,2.66
						C453.99,628.11,455.18,629.59,456.83,629.77L456.83,629.77z"/>
				</g>
			</g>
			<g>
				<path fill="#222B3F" d="M367.38,599.87h-88.4c-2.46,0-4.46-1.99-4.46-4.46l0,0c0-2.46,1.99-4.46,4.46-4.46h88.4
					c2.46,0,4.46,1.99,4.46,4.46l0,0C371.83,597.88,369.84,599.87,367.38,599.87z"/>
				<path fill="#222B3F" d="M367.38,628.62h-88.4c-2.46,0-4.46-1.99-4.46-4.46l0,0c0-2.46,1.99-4.46,4.46-4.46h88.4
					c2.46,0,4.46,1.99,4.46,4.46l0,0C371.83,626.63,369.84,628.62,367.38,628.62z"/>
			</g>
		</g>
	</g>
	<g id="left_forearm_00000071542820039397138290000016677455512717184640_">
		<g>
			<g>
				<g>
					<path fill="#9F5353" d="M383.57,530.2c0,0-3.12,5.45-7.03,4.78c-3.72-0.64-2.65-4.51-2.53-4.89c-0.21,0.31-2.24,3.21-6.17,3.05
						c-4.16-0.18-2.9-5.54-2.9-5.54s-4.83,6.64-8.48,2.35c-3.64-4.29,4.09-6.21,0.92-16.74c-3.16-10.53-14.52-6.07-11.91-19.64
						c0.12-2.68,0.3-5.52,0.53-8.37l-0.03,0c1.54-18.37,7.27-61.07,8.15-76.88c0.38-6.88,5.43-21.64,11-25.69
						c5.24-3.81,10.58-5.82,21.82-1.55c21.18,8.05,8.79,38.34,8.79,38.34l-23.98,69.63c0,0,13.6,5.11,21.97,14.83
						c8.38,9.72-2.99,29.38-6.42,30.17C383.88,534.83,383.57,530.2,383.57,530.2z"/>
				</g>
				<g>
					<path fill="#222B3F" d="M383.46,527.46c0.02-0.1,0.06-0.19,0.11-0.28c3.91-7.09,4.27-16.6,4.27-16.7
						c0.02-0.58,0.51-1.04,1.09-1.02c0.58,0.02,1.04,0.51,1.02,1.09c-0.01,0.41-0.37,10.11-4.54,17.65
						c-0.28,0.51-0.93,0.7-1.44,0.41C383.56,528.38,383.36,527.91,383.46,527.46z"/>
				</g>
				<g>
					<path fill="#222B3F" d="M373.65,526.42c0.02-0.1,0.06-0.19,0.11-0.28c3.92-7.1,4.47-15.51,4.47-15.59
						c0.04-0.59,0.54-1.03,1.12-0.99c0.58,0.03,1.03,0.54,0.99,1.12c-0.02,0.36-0.58,8.96-4.73,16.49c-0.28,0.51-0.93,0.7-1.44,0.41
						C373.75,527.34,373.55,526.86,373.65,526.42z"/>
				</g>
				<g>
					<path fill="#222B3F" d="M364.14,525.32c0.02-0.1,0.06-0.19,0.11-0.28c3.91-7.09,4.12-14.61,4.12-14.68
						c0.01-0.58,0.5-1.05,1.08-1.03c0.58,0.01,1.05,0.5,1.03,1.08c-0.01,0.33-0.22,8.11-4.39,15.66c-0.28,0.51-0.93,0.7-1.44,0.41
						C364.24,526.24,364.04,525.77,364.14,525.32z"/>
				</g>
			</g>
		</g>
	</g>
</g>
<g id="Layer_x5F_Ground">
	<g>
		
			<line fill="none" stroke="#222B3F" stroke-width="2" stroke-linecap="round" stroke-linejoin="round" stroke-miterlimit="10" x1="169.35" y1="1012.97" x2="941.61" y2="1012.97"/>
		
			<line fill="none" stroke="#222B3F" stroke-width="2" stroke-linecap="round" stroke-linejoin="round" stroke-miterlimit="10" x1="956.51" y1="1012.97" x2="1065.84" y2="1012.97"/>
		<g>
			
				<line fill="none" stroke="#222B3F" stroke-width="2" stroke-linecap="round" stroke-linejoin="round" stroke-miterlimit="10" x1="989.49" y1="1059.47" x2="1011.25" y2="1059.47"/>
			
				<line fill="none" stroke="#222B3F" stroke-width="2" stroke-linecap="round" stroke-linejoin="round" stroke-miterlimit="10" x1="331.63" y1="1059.47" x2="962.08" y2="1059.47"/>
			
				<line fill="none" stroke="#222B3F" stroke-width="2" stroke-linecap="round" stroke-linejoin="round" stroke-miterlimit="10" x1="223.94" y1="1059.47" x2="298.62" y2="1059.47"/>
		</g>
		<g>
			
				<line fill="none" stroke="#222B3F" stroke-width="2" stroke-linecap="round" stroke-linejoin="round" stroke-miterlimit="10" x1="807.49" y1="1105.97" x2="870.2" y2="1105.97"/>
			
				<line fill="none" stroke="#222B3F" stroke-width="2" stroke-linecap="round" stroke-linejoin="round" stroke-miterlimit="10" x1="421.2" y1="1105.97" x2="791.43" y2="1105.97"/>
			
				<line fill="none" stroke="#222B3F" stroke-width="2" stroke-linecap="round" stroke-linejoin="round" stroke-miterlimit="10" x1="364.99" y1="1105.97" x2="409.33" y2="1105.97"/>
		</g>
	</g>
</g>
</svg>
